<svg width="168" height="57" viewBox="0 0 168 57" fill="none" xmlns="http://www.w3.org/2000/svg">
<path d="M41.2948 0.0135774H0.648926L21.2415 20.4649L40.7862 39.8719C40.9603 39.8719 41.1275 39.8719 41.305 39.8719C46.6271 39.8719 51.7312 37.7715 55.4945 34.0328C59.2577 30.2941 61.3719 25.2233 61.3719 19.936C61.3719 14.6486 59.2577 9.57783 55.4945 5.83912C51.7312 2.1004 46.6271 0 41.305 0L41.2948 0.0135774ZM25.1088 12.2484C24.7221 12.2478 24.3443 12.1333 24.0231 11.9193C23.7019 11.7054 23.4518 11.4017 23.3043 11.0466C23.1568 10.6915 23.1185 10.3009 23.1944 9.92424C23.2702 9.54755 23.4568 9.20164 23.7304 8.93024C24.0041 8.65883 24.3526 8.47411 24.7319 8.39941C25.1112 8.32471 25.5043 8.36339 25.8615 8.51056C26.2186 8.65772 26.5239 8.90676 26.7387 9.22623C26.9534 9.54569 27.068 9.92123 27.068 10.3054C27.0671 10.821 26.8603 11.3153 26.493 11.6796C26.1256 12.0439 25.6278 12.2484 25.1088 12.2484ZM31.6658 18.722C31.2791 18.7213 30.9013 18.6068 30.5801 18.3928C30.2589 18.1789 30.0088 17.8752 29.8613 17.5201C29.7137 17.165 29.6755 16.7744 29.7514 16.3978C29.8272 16.0211 30.0138 15.6751 30.2874 15.4037C30.5611 15.1323 30.9096 14.9476 31.2889 14.8729C31.6682 14.7982 32.0613 14.8369 32.4185 14.984C32.7756 15.1312 33.0809 15.3803 33.2956 15.6997C33.5104 16.0192 33.625 16.3947 33.625 16.7789C33.6241 17.2945 33.4173 17.7887 33.05 18.153C32.6826 18.5173 32.1848 18.722 31.6658 18.722ZM31.6658 12.2484C31.2791 12.2478 30.9013 12.1333 30.5801 11.9193C30.2589 11.7054 30.0088 11.4017 29.8613 11.0466C29.7137 10.6915 29.6755 10.3009 29.7514 9.92424C29.8272 9.54755 30.0138 9.20164 30.2874 8.93024C30.5611 8.65883 30.9096 8.47411 31.2889 8.39941C31.6682 8.32471 32.0613 8.36339 32.4185 8.51056C32.7756 8.65772 33.0809 8.90676 33.2956 9.22623C33.5104 9.54569 33.625 9.92123 33.625 10.3054C33.6241 10.821 33.4173 11.3153 33.05 11.6796C32.6826 12.0439 32.1848 12.2484 31.6658 12.2484ZM38.2228 25.1955C37.8361 25.1948 37.4583 25.0802 37.1371 24.8663C36.8159 24.6524 36.5658 24.3487 36.4183 23.9936C36.2707 23.6385 36.2325 23.2479 36.3084 22.8712C36.3842 22.4945 36.5707 22.1486 36.8444 21.8772C37.1181 21.6058 37.4666 21.4211 37.8459 21.3464C38.2252 21.2717 38.6183 21.3104 38.9754 21.4575C39.3326 21.6047 39.6379 21.8538 39.8526 22.1732C40.0674 22.4927 40.182 22.8682 40.182 23.2524C40.1802 23.7678 39.9731 24.2614 39.606 24.6255C39.2388 24.9896 38.7415 25.1946 38.2228 25.1955ZM38.2228 18.722C37.8361 18.7213 37.4583 18.6068 37.1371 18.3928C36.8159 18.1789 36.5658 17.8752 36.4183 17.5201C36.2707 17.165 36.2325 16.7744 36.3084 16.3978C36.3842 16.0211 36.5707 15.6751 36.8444 15.4037C37.1181 15.1323 37.4666 14.9476 37.8459 14.8729C38.2252 14.7982 38.6183 14.8369 38.9754 14.984C39.3326 15.1312 39.6379 15.3803 39.8526 15.6997C40.0674 16.0192 40.182 16.3947 40.182 16.7789C40.1811 17.2945 39.9743 17.7887 39.607 18.153C39.2396 18.5173 38.7418 18.722 38.2228 18.722ZM38.2228 12.2484C37.8361 12.2478 37.4583 12.1333 37.1371 11.9193C36.8159 11.7054 36.5658 11.4017 36.4183 11.0466C36.2707 10.6915 36.2325 10.3009 36.3084 9.92424C36.3842 9.54755 36.5707 9.20164 36.8444 8.93024C37.1181 8.65883 37.4666 8.47411 37.8459 8.39941C38.2252 8.32471 38.6183 8.36339 38.9754 8.51056C39.3326 8.65772 39.6379 8.90676 39.8526 9.22623C40.0674 9.54569 40.182 9.92123 40.182 10.3054C40.1811 10.821 39.9743 11.3153 39.607 11.6796C39.2396 12.0439 38.7418 12.2484 38.2228 12.2484ZM44.7764 31.6622C44.3894 31.6622 44.0111 31.5481 43.6894 31.3345C43.3677 31.1208 43.117 30.8171 42.9691 30.4619C42.8211 30.1066 42.7826 29.7158 42.8584 29.3388C42.9341 28.9618 43.1207 28.6155 43.3946 28.3439C43.6685 28.0723 44.0173 27.8876 44.3969 27.813C44.7765 27.7384 45.1699 27.7774 45.5272 27.9249C45.8845 28.0725 46.1897 28.3221 46.4042 28.6421C46.6187 28.962 46.7329 29.3381 46.7322 29.7225C46.7313 30.2372 46.5248 30.7306 46.1581 31.0943C45.7914 31.4579 45.2945 31.6622 44.7764 31.6622ZM44.7764 25.1955C44.3895 25.1955 44.0114 25.0815 43.6898 24.868C43.3681 24.6545 43.1174 24.351 42.9694 23.996C42.8214 23.6409 42.7826 23.2502 42.8581 22.8733C42.9336 22.4964 43.1199 22.1502 43.3934 21.8784C43.6669 21.6067 44.0154 21.4216 44.3948 21.3466C44.7742 21.2717 45.1674 21.3102 45.5248 21.4572C45.8822 21.6043 46.1877 21.8533 46.4026 22.1729C46.6175 22.4924 46.7322 22.8681 46.7322 23.2524C46.7304 23.7672 46.5237 24.2604 46.1573 24.6244C45.7909 24.9884 45.2945 25.1937 44.7764 25.1955ZM44.7764 18.722C44.3895 18.722 44.0114 18.608 43.6898 18.3945C43.3681 18.181 43.1174 17.8775 42.9694 17.5225C42.8214 17.1674 42.7826 16.7767 42.8581 16.3998C42.9336 16.0229 43.1199 15.6767 43.3934 15.4049C43.6669 15.1332 44.0154 14.9481 44.3948 14.8731C44.7742 14.7982 45.1674 14.8366 45.5248 14.9837C45.8822 15.1308 46.1877 15.3798 46.4026 15.6994C46.6175 16.0189 46.7322 16.3946 46.7322 16.7789C46.7322 17.034 46.6816 17.2867 46.5833 17.5225C46.485 17.7582 46.3409 17.9724 46.1593 18.1528C45.9777 18.3333 45.7621 18.4764 45.5248 18.574C45.2875 18.6717 45.0332 18.722 44.7764 18.722ZM44.7764 12.2484C44.3895 12.2484 44.0114 12.1345 43.6898 11.921C43.3681 11.7075 43.1174 11.404 42.9694 11.049C42.8214 10.6939 42.7826 10.3032 42.8581 9.92631C42.9336 9.54939 43.1199 9.20318 43.3934 8.93144C43.6669 8.65969 44.0154 8.47463 44.3948 8.39966C44.7742 8.32469 45.1674 8.36316 45.5248 8.51023C45.8822 8.65729 46.1877 8.90634 46.4026 9.22588C46.6175 9.54541 46.7322 9.92108 46.7322 10.3054C46.7322 10.5606 46.6816 10.8132 46.5833 11.049C46.485 11.2847 46.3409 11.4989 46.1593 11.6794C45.9777 11.8598 45.7621 12.0029 45.5248 12.1005C45.2875 12.1982 45.0332 12.2484 44.7764 12.2484ZM51.3333 25.1955C50.9465 25.1955 50.5684 25.0815 50.2467 24.868C49.9251 24.6545 49.6744 24.351 49.5264 23.996C49.3783 23.6409 49.3396 23.2502 49.4151 22.8733C49.4906 22.4964 49.6768 22.1502 49.9504 21.8784C50.2239 21.6067 50.5724 21.4216 50.9518 21.3466C51.3312 21.2717 51.7244 21.3102 52.0818 21.4572C52.4392 21.6043 52.7446 21.8533 52.9595 22.1729C53.1745 22.4924 53.2892 22.8681 53.2892 23.2524C53.2874 23.7672 53.0807 24.2604 52.7143 24.6244C52.3479 24.9884 51.8515 25.1937 51.3333 25.1955ZM51.3333 18.722C50.9465 18.722 50.5684 18.608 50.2467 18.3945C49.9251 18.181 49.6744 17.8775 49.5264 17.5225C49.3783 17.1674 49.3396 16.7767 49.4151 16.3998C49.4906 16.0229 49.6768 15.6767 49.9504 15.4049C50.2239 15.1332 50.5724 14.9481 50.9518 14.8731C51.3312 14.7982 51.7244 14.8366 52.0818 14.9837C52.4392 15.1308 52.7446 15.3798 52.9595 15.6994C53.1745 16.0189 53.2892 16.3946 53.2892 16.7789C53.2892 17.034 53.2386 17.2867 53.1403 17.5225C53.042 17.7582 52.8979 17.9724 52.7163 18.1528C52.5347 18.3333 52.3191 18.4764 52.0818 18.574C51.8445 18.6717 51.5902 18.722 51.3333 18.722Z" fill="#81E700"/>
<path d="M58.0166 57H37.8609L20.6339 39.8854H40.7896L58.0166 57Z" fill="#81E700"/>
<path d="M72.2945 25.8771V11.516H83.1113C86.4359 11.516 89.327 12.7877 89.327 16.5822C89.327 20.3768 86.4359 21.6688 83.1113 21.6688H75.387V25.8737L72.2945 25.8771ZM75.3938 14.3882V18.7966H83.3229C84.9955 18.7966 86.173 18.2405 86.173 16.5788C86.173 14.9172 84.9955 14.3849 83.3229 14.3849L75.3938 14.3882Z" fill="white"/>
<path d="M109.267 25.8771H105.694L104.021 23.0049H94.3546L92.7026 25.8771H89.1288L97.4096 11.516H100.983L109.267 25.8771ZM96.2559 19.7223L96.0067 20.1327H102.369L102.14 19.7223L99.1879 14.2085L96.2559 19.7223Z" fill="white"/>
<path d="M111.746 25.8771V11.516H118.832C126.341 11.516 129.488 14.4289 129.488 18.6982C129.488 22.9676 126.348 25.8771 118.832 25.8771H111.746ZM114.845 14.3882V23.0049H118.832C124.293 23.0049 126.341 21.4043 126.341 18.6982C126.341 15.9922 124.293 14.3882 118.832 14.3882H114.845Z" fill="white"/>
<path d="M133 25.8771V11.516H148.678V14.3882H136.1V17.0536H147.439V19.9258H136.1V23.0049H149.091V25.8771H133Z" fill="white"/>
<path d="M152.603 25.8771V11.516H155.702V23.0049H167.649V25.8771H152.603Z" fill="white"/>
<path d="M89.9552 45.1924H85.1766L79.2647 40.0652L75.9538 37.1896H83.8761C85.2414 37.1896 86.1869 36.742 86.1869 35.45C86.1869 34.158 85.238 33.7104 83.8761 33.7104H75.4077V45.1924H72.3083V30.8246H83.7737C86.8696 30.8246 89.3477 31.9911 89.3477 35.4398C89.3477 38.8308 86.8491 39.9533 83.8147 39.9533H83.6269L89.9552 45.1924Z" fill="white"/>
<path d="M107.097 30.8246V39.4378C107.097 42.11 104.708 42.6186 101.523 42.6186C98.3383 42.6186 95.9489 42.11 95.9489 39.4378V30.8246H92.8463V39.4378C92.8463 43.6902 95.7407 45.4908 101.523 45.4908C107.305 45.4908 110.196 43.6902 110.196 39.4378V30.8246H107.097Z" fill="white"/>
<path d="M123.064 36.6605C120.173 36.5554 117.405 36.4333 117.405 35.043C117.405 33.422 121.126 33.4017 121.866 33.4017C124.312 33.3938 126.752 33.6543 129.14 34.1783L129.778 31.3637C127.35 30.8309 124.872 30.5513 122.385 30.5295C118.753 30.5295 114.248 31.2654 114.248 35.2024C114.248 39.1394 118.77 39.3869 122.918 39.6107C126.348 39.8006 127.751 39.8786 127.751 40.9061C127.751 42.6016 123.829 42.6457 122.877 42.6457C120.056 42.6524 117.251 42.2327 114.558 41.4012L113.708 44.1446C116.49 45.0467 119.398 45.5046 122.324 45.501C125.918 45.501 130.912 44.7855 130.912 40.7535C130.898 37.2675 127.109 36.8233 123.064 36.6605Z" fill="white"/>
<path d="M148.261 30.8246V36.3655H137.523V30.8246H134.424V45.1822H137.523V39.2378H148.261V45.1822H151.378V30.8246H148.261Z" fill="white"/>
</svg>
