<svg width="22" height="26" viewBox="0 0 22 26" fill="none" xmlns="http://www.w3.org/2000/svg">
    <path
        d="M14.3438 4.13C15.2538 3.04 15.8538 1.51 15.6838 0C14.3838 0.06 12.8138 0.870022 11.8738 1.96002C11.0338 2.93002 10.3038 4.48002 10.5038 5.96002C11.9438 6.07002 13.4338 5.22001 14.3438 4.13ZM10.7038 7.42999C9.68377 7.42999 8.10376 6.27 6.43376 6.31C4.23376 6.34 2.22376 7.58 1.08376 9.56C-1.19624 13.52 0.49377 19.37 2.72377 22.59C3.81377 24.16 5.10377 25.92 6.81377 25.87C8.45377 25.8 9.06376 24.81 11.0538 24.81C13.0438 24.81 13.5838 25.87 15.3238 25.83C17.0838 25.8 18.2038 24.23 19.2838 22.65C20.5338 20.83 21.0438 19.07 21.0738 18.97C21.0338 18.96 17.6438 17.65 17.6038 13.73C17.5738 10.45 20.2738 8.89001 20.4038 8.82001C18.8638 6.57001 16.4938 6.31001 15.6738 6.26001C13.5138 6.09001 11.7138 7.44 10.7038 7.44"
        fill="white" />
</svg>
    