<svg width="20" height="20" viewBox="0 0 20 20" fill="none" xmlns="http://www.w3.org/2000/svg">
<g clip-path="url(#clip0_779_21296)">
<path d="M13.2503 8.57523C13.2503 9.54988 12.8631 10.4846 12.1739 11.1738C11.4848 11.863 10.55 12.2502 9.57537 12.2502C8.60072 12.2502 7.66599 11.863 6.97681 11.1738C6.28763 10.4846 5.90045 9.54988 5.90045 8.57523C5.90045 7.60058 6.28763 6.66585 6.97681 5.97667C7.66599 5.28748 8.60072 4.90031 9.57537 4.90031C10.55 4.90031 11.4848 5.28748 12.1739 5.97667C12.8631 6.66585 13.2503 7.60058 13.2503 8.57523ZM12.0253 8.57523C12.0253 7.92546 11.7672 7.30231 11.3077 6.84285C10.8483 6.3834 10.2251 6.12528 9.57537 6.12528C8.92561 6.12528 8.30245 6.3834 7.843 6.84285C7.38354 7.30231 7.12543 7.92546 7.12543 8.57523C7.12543 9.22499 7.38354 9.84815 7.843 10.3076C8.30245 10.7671 8.92561 11.0252 9.57537 11.0252C10.2251 11.0252 10.8483 10.7671 11.3077 10.3076C11.7672 9.84815 12.0253 9.22499 12.0253 8.57523ZM15.639 14.645C17.2473 13.0359 18.1507 10.8539 18.1507 8.5789C18.1507 6.30387 17.2473 4.12194 15.639 2.51283C14.8429 1.7162 13.8976 1.08425 12.8572 0.653085C11.8168 0.221922 10.7016 0 9.57537 0C8.44915 0 7.33396 0.221922 6.29354 0.653085C5.25311 1.08425 4.30785 1.7162 3.51175 2.51283C1.90347 4.12194 1.00002 6.30387 1.00002 8.5789C1.00002 10.8539 1.90347 13.0359 3.51175 14.645L5.37494 16.4812L7.87756 18.9128L8.04048 19.0573C8.98984 19.8266 10.3802 19.7776 11.2744 18.9128L14.2572 16.0096L15.639 14.645ZM4.37536 3.37644C5.05813 2.69337 5.86878 2.15151 6.76102 1.78182C7.65325 1.41212 8.60958 1.22184 9.57537 1.22184C10.5412 1.22184 11.4975 1.41212 12.3897 1.78182C13.282 2.15151 14.0926 2.69337 14.7754 3.37644C16.1164 4.71834 16.8874 6.52624 16.9276 8.42291C16.9678 10.3196 16.274 12.1585 14.991 13.556L14.7754 13.7814L13.1572 15.3787L10.4255 18.0345L10.3104 18.1325C10.0986 18.2921 9.84057 18.3784 9.57537 18.3784C9.31018 18.3784 9.05219 18.2921 8.84039 18.1325L8.72647 18.0345L5.07604 14.4759L4.37536 13.7814L4.15976 13.5572C2.87678 12.1597 2.183 10.3208 2.22317 8.42413C2.26334 6.52746 3.03436 4.71834 4.37536 3.37644Z" fill="#8C8C8C" stroke="#8C8C8C" stroke-width="0.1"/>
</g>
<defs>
<clipPath id="clip0_779_21296">
<rect width="20" height="20" fill="white"/>
</clipPath>
</defs>
</svg>
