<svg width="18" height="12" viewBox="0 0 18 12" fill="none" xmlns="http://www.w3.org/2000/svg">
<path d="M7.00001 1C7.00001 1.3 6.90001 1.5 6.70001 1.7L1.70001 6.7C1.30001 7.1 0.700008 7.1 0.300008 6.7C-0.0999924 6.3 -0.0999924 5.7 0.300008 5.3L5.30001 0.3C5.70001 -0.1 6.30001 -0.1 6.70001 0.3C6.90001 0.5 7.00001 0.700001 7.00001 1Z" fill="#1D212C"/>
<path d="M7.00001 11C7.00001 11.3 6.90001 11.5 6.70001 11.7C6.30001 12.1 5.70001 12.1 5.30001 11.7L0.300008 6.7C-0.0999924 6.3 -0.0999924 5.7 0.300008 5.3C0.700008 4.9 1.30001 4.9 1.70001 5.3L6.70001 10.3C6.90001 10.5 7.00001 10.7 7.00001 11Z" fill="#1D212C"/>
<path d="M18 6C18 6.6 17.6 7 17 7L1.00001 7C0.400008 7 7.62224e-06 6.6 7.62939e-06 6C7.63655e-06 5.4 0.400008 5 1.00001 5L17 5C17.6 5 18 5.4 18 6Z" fill="#1D212C"/>
</svg>
