<svg width="20" height="19" viewBox="0 0 20 19" fill="none" xmlns="http://www.w3.org/2000/svg">
<g clip-path="url(#clip0_312_5106)">
<path d="M18.356 10.8159L16.8519 5.40408C16.411 3.81863 15.4528 2.42606 14.1296 1.4477C12.8064 0.469345 11.1941 -0.0386406 9.5491 0.00448949C7.90406 0.0476196 6.32065 0.63939 5.05054 1.68574C3.78043 2.73208 2.89652 4.17296 2.53932 5.77933L1.37478 11.0162C1.24614 11.5949 1.24912 12.195 1.38348 12.7724C1.51784 13.3497 1.78016 13.8895 2.15107 14.3519C2.52198 14.8143 2.99201 15.1875 3.52646 15.444C4.0609 15.7004 4.64612 15.8335 5.2389 15.8335H6.12082C6.30252 16.7283 6.78798 17.5328 7.49495 18.1106C8.20192 18.6885 9.08691 19.0041 9.99999 19.0041C10.9131 19.0041 11.7981 18.6885 12.505 18.1106C13.212 17.5328 13.6975 16.7283 13.8792 15.8335H14.5426C15.1528 15.8335 15.7548 15.6925 16.3015 15.4214C16.8482 15.1503 17.3248 14.7564 17.6941 14.2706C18.0633 13.7848 18.3153 13.2202 18.4303 12.6209C18.5453 12.0216 18.5193 11.4039 18.356 10.8159ZM9.99999 17.4168C9.51053 17.4148 9.03366 17.2616 8.6346 16.9782C8.23555 16.6948 7.9338 16.295 7.77065 15.8335H12.2293C12.0662 16.295 11.7644 16.6948 11.3654 16.9782C10.9663 17.2616 10.4894 17.4148 9.99999 17.4168ZM16.4331 13.312C16.2125 13.6047 15.9267 13.8419 15.5983 14.0047C15.27 14.1676 14.9083 14.2516 14.5418 14.2502H5.2389C4.88327 14.2501 4.5322 14.1702 4.21159 14.0163C3.89098 13.8624 3.60902 13.6385 3.38653 13.361C3.16404 13.0836 3.00669 12.7598 2.9261 12.4134C2.84551 12.067 2.84373 11.7069 2.9209 11.3598L4.08465 6.12212C4.36518 4.86037 5.05944 3.7286 6.05706 2.90673C7.05467 2.08485 8.2984 1.62005 9.59052 1.5862C10.8826 1.55235 12.149 1.9514 13.1883 2.71991C14.2276 3.48842 14.9801 4.58229 15.3263 5.82762L16.8305 11.2395C16.9299 11.592 16.9457 11.9629 16.8767 12.3227C16.8077 12.6825 16.6558 13.0212 16.4331 13.312Z" fill="#1D212C"/>
</g>
<defs>
<clipPath id="clip0_312_5106">
<rect x="0.5" width="19" height="19" rx="9.5" fill="white"/>
</clipPath>
</defs>
</svg>
