<svg width="16" height="16" viewBox="0 0 16 16" fill="none" xmlns="http://www.w3.org/2000/svg">
<path fill-rule="evenodd" clip-rule="evenodd" d="M5.06537 2.99133C5.24337 2.118 6.02071 1.5 6.91071 1.5H9.08937C9.97937 1.5 10.756 2.118 10.9347 2.99133C10.9544 3.0875 11.0059 3.17425 11.0808 3.23761C11.1558 3.30098 11.2499 3.33728 11.348 3.34067H11.37C12.3054 3.382 13.024 3.49667 13.624 3.89067C14.002 4.13867 14.3274 4.45733 14.5807 4.83C14.896 5.29267 15.0347 5.82467 15.1014 6.46733C15.1667 7.096 15.1667 7.88333 15.1667 8.88067V8.93733C15.1667 9.93467 15.1667 10.7227 15.1014 11.3507C15.0347 11.9933 14.896 12.5253 14.5807 12.9887C14.3266 13.3615 14.0015 13.6807 13.624 13.928C13.1554 14.2353 12.6174 14.3713 11.9654 14.436C11.3267 14.5 10.526 14.5 9.50871 14.5H6.49137C5.47404 14.5 4.67337 14.5 4.03471 14.436C3.38271 14.3713 2.84471 14.236 2.37604 13.928C1.99851 13.6805 1.67343 13.3611 1.41937 12.988C1.10404 12.5253 0.965374 11.9933 0.898707 11.3507C0.833374 10.7227 0.833374 9.93467 0.833374 8.93733V8.88067C0.833374 7.88333 0.833374 7.096 0.898707 6.46733C0.965374 5.82467 1.10404 5.29267 1.41937 4.83C1.67343 4.45688 1.99851 4.13746 2.37604 3.89C2.97604 3.49667 3.69471 3.382 4.63004 3.34133L4.64137 3.34067H4.65204C4.75015 3.33728 4.84426 3.30098 4.91923 3.23761C4.9942 3.17425 5.04568 3.0875 5.06537 2.99133ZM6.91071 2.5C6.48404 2.5 6.12604 2.79533 6.04537 3.19067C5.91537 3.83067 5.34737 4.33467 4.66404 4.34067C3.76537 4.38067 3.28404 4.49067 2.92404 4.72667C2.65663 4.90215 2.42627 5.12843 2.24604 5.39267C2.06204 5.66267 1.95137 6.00867 1.89271 6.57067C1.83404 7.14133 1.83337 7.87733 1.83337 8.90933C1.83337 9.94133 1.83337 10.6767 1.89337 11.2473C1.95137 11.8093 2.06204 12.1553 2.24671 12.426C2.42537 12.6887 2.65537 12.9153 2.92471 13.0913C3.20271 13.274 3.55871 13.384 4.13404 13.4413C4.71671 13.4993 5.46737 13.5 6.51871 13.5H9.48137C10.532 13.5 11.2827 13.5 11.866 13.4413C12.4414 13.384 12.7974 13.2747 13.0754 13.092C13.3447 12.9153 13.5754 12.6887 13.754 12.4253C13.938 12.1553 14.0487 11.8093 14.1074 11.2473C14.166 10.6767 14.1667 9.94067 14.1667 8.90933C14.1667 7.87733 14.1667 7.14133 14.1067 6.57067C14.0487 6.00867 13.938 5.66267 13.7534 5.39267C13.5733 5.12808 13.343 4.90154 13.0754 4.726C12.7167 4.49067 12.2354 4.38067 11.3354 4.34067C10.6527 4.334 10.0847 3.83133 9.95471 3.19067C9.91204 2.99351 9.80264 2.81713 9.64499 2.69129C9.48733 2.56546 9.29108 2.49789 9.08937 2.5H6.91071ZM8.00004 7.16667C7.60221 7.16667 7.22068 7.3247 6.93938 7.60601C6.65807 7.88731 6.50004 8.26884 6.50004 8.66667C6.50004 9.06449 6.65807 9.44602 6.93938 9.72733C7.22068 10.0086 7.60221 10.1667 8.00004 10.1667C8.39786 10.1667 8.77939 10.0086 9.0607 9.72733C9.342 9.44602 9.50004 9.06449 9.50004 8.66667C9.50004 8.26884 9.342 7.88731 9.0607 7.60601C8.77939 7.3247 8.39786 7.16667 8.00004 7.16667ZM5.50004 8.66667C5.50004 8.00363 5.76343 7.36774 6.23227 6.8989C6.70111 6.43006 7.337 6.16667 8.00004 6.16667C8.66308 6.16667 9.29896 6.43006 9.76781 6.8989C10.2366 7.36774 10.5 8.00363 10.5 8.66667C10.5 9.32971 10.2366 9.96559 9.76781 10.4344C9.29896 10.9033 8.66308 11.1667 8.00004 11.1667C7.337 11.1667 6.70111 10.9033 6.23227 10.4344C5.76343 9.96559 5.50004 9.32971 5.50004 8.66667ZM11.5 6.66667C11.5 6.53406 11.5527 6.40688 11.6465 6.31311C11.7403 6.21935 11.8674 6.16667 12 6.16667H12.6667C12.7993 6.16667 12.9265 6.21935 13.0203 6.31311C13.114 6.40688 13.1667 6.53406 13.1667 6.66667C13.1667 6.79927 13.114 6.92645 13.0203 7.02022C12.9265 7.11399 12.7993 7.16667 12.6667 7.16667H12C11.8674 7.16667 11.7403 7.11399 11.6465 7.02022C11.5527 6.92645 11.5 6.79927 11.5 6.66667Z" fill="#1D212C"/>
</svg>
