<svg xmlns="http://www.w3.org/2000/svg" width="16" height="20" viewBox="0 0 16 20">
    <g id="Group_2247" data-name="Group 2247" transform="translate(-36.236 -193.38)">
        <path id="Path_5333" data-name="Path 5333"
            d="M41.236,198.38a3,3,0,0,1,6,0v2h2v-2a5,5,0,0,0-10,0v2h2Z" fill="#e7e7e7" />
        <path id="Path_5334" data-name="Path 5334"
            d="M45.236,206.98v1.4a1,1,0,0,1-2,0v-1.4a1.6,1.6,0,0,1-.5-1.1,1.5,1.5,0,0,1,3,0,1.61,1.61,0,0,1-.5,1.1m4-6.6h-10a2.946,2.946,0,0,0-3,3v7a2.946,2.946,0,0,0,3,3h10a2.947,2.947,0,0,0,3-3v-7a2.947,2.947,0,0,0-3-3"
            fill="#fff" />
    </g>
</svg>
  