<svg width="375" height="259" viewBox="0 0 375 259" fill="none"
    xmlns="http://www.w3.org/2000/svg">
    <mask id="mask0_2_35" style="mask-type:alpha" maskUnits="userSpaceOnUse" x="0" y="0" width="375" height="259">
        <rect width="375" height="259" fill="#D9D9D9"/>
    </mask>
    <g mask="url(#mask0_2_35)">
        <path d="M-299.99 -61.0812C-275.44 -72.2912 -248.49 -79.4912 -219.1 -82.6312C-180.36 -87.1412 -142.67 -84.1412 -106.03 -73.6312C-69.39 -63.1212 -26 -33.4112 24.14 15.4988L68.49 48.4988C106.24 75.9288 146.31 99.8788 188.7 120.339C213.66 132.389 240.93 142.179 268.86 143.389C300.63 144.769 320.47 131.699 347 117.829C359.09 147.939 322.91 173.399 298.69 179.779C271.71 186.879 241.16 183.459 215.22 173.869C156.4 152.139 116.06 100.449 65.66 65.5988C2.14999 21.6888 -68.08 -11.9812 -143.29 -30.0712C-169.78 -36.4412 -199.09 -41.6112 -231.15 -45.6212C-255.9 -53.3312 -279.34 -58.8612 -300 -61.0812" fill="#FB8636"/>
        <path d="M-90.39 26.1488C-82.5 66.1888 -77.75 90.2488 -76.13 98.3388C-72.55 117.679 -67.24 134.059 -60.18 147.479C-39.24 187.339 2.07005 216.329 63.7401 234.439C94.0901 243.229 124.31 248.759 154.39 251.009C176.25 252.599 208.27 252.579 250.44 250.969C214.78 251.359 178.37 245.749 141.2 234.129C102.78 221.779 73.28 209.799 52.69 198.219C32.24 186.559 10.1 169.389 -13.71 146.719C-37.6 123.909 -52.29 96.9388 -57.78 65.7988C-63.41 34.3888 -72.96 4.1188 -86.42 -25.0012C-99.75 -54.2012 -119.47 -80.2212 -145.6 -103.051C-171.8 -126.021 -199.28 -142.331 -228.04 -151.981C-224.34 -146.061 -216.83 -138.771 -205.51 -130.111C-194.05 -121.521 -174.01 -103.311 -145.37 -75.5012C-116.6 -47.7612 -98.28 -13.8712 -90.39 26.1688" fill="#DF2A57"/>
        <path d="M348.49 220.849C357.87 220.189 364.01 217.949 366.89 214.109L297.79 212.819C276.93 212.449 261.8 211.809 252.42 210.879C219.11 207.369 186.17 197.429 153.61 181.039C122.91 165.579 94.36 145.369 67.94 120.409C22.01 76.9588 -17.71 19.3488 -51.21 -52.4112C-63.94 -80.1812 -70.48 -94.4012 -70.85 -95.0812C-78.7 -111.241 -86.43 -124.821 -94.06 -135.831C-107.65 -155.051 -125.89 -173.701 -148.77 -191.781C-157.8 -199.041 -166.37 -204.011 -174.47 -206.681C-184.77 -210.271 -193.51 -209.691 -200.7 -204.951C-161.89 -186.481 -126.81 -150.981 -95.46 -98.4412C-87.6 -85.1012 -75.7 -62.6912 -59.78 -31.2012C-44.89 -1.9612 -32.74 20.3088 -23.3 35.6188C4.40997 80.4388 38.41 118.379 78.68 149.409C120.91 181.849 166.01 203.439 213.97 214.169C251.75 222.479 296.58 224.699 348.48 220.839" fill="#DF2A57"/>
        <path d="M290.17 131.339C293.02 128.349 294.44 124.859 294.44 120.869C294.44 116.879 293.02 113.389 290.17 110.399C287.18 107.549 283.69 106.129 279.7 106.129C275.71 106.129 272.08 107.549 269.23 110.399C266.38 113.389 264.96 116.879 264.96 120.869C264.96 124.859 266.38 128.349 269.23 131.339C272.08 134.189 275.57 135.609 279.7 135.609C283.83 135.609 287.18 134.189 290.17 131.339Z" fill="#239DD2"/>
        <path d="M252.17 118.369C253.89 116.569 254.74 114.469 254.74 112.059C254.74 109.649 253.88 107.559 252.17 105.759C250.37 104.039 248.27 103.189 245.86 103.189C243.45 103.189 241.27 104.049 239.55 105.759C237.83 107.559 236.98 109.659 236.98 112.059C236.98 114.459 237.84 116.559 239.55 118.369C241.27 120.089 243.37 120.939 245.86 120.939C248.35 120.939 250.36 120.079 252.17 118.369Z" fill="#239DD2"/>
    </g>
</svg>
