<svg width="105" height="112" viewBox="0 0 105 112" fill="none" xmlns="http://www.w3.org/2000/svg">
<g filter="url(#filter0_d_742_27696)">
<path d="M94.9637 32.9657L53.48 9.26071C52.8716 8.9131 52.1288 8.9131 51.5204 9.26071L10.0366 32.9657C9.4203 33.3174 9.04102 33.9731 9.04102 34.6804V78.1396C9.04102 78.8468 9.4203 79.5026 10.0366 79.8543L51.5204 103.559C51.8247 103.733 52.1604 103.82 52.5003 103.82C52.8401 103.82 53.1759 103.733 53.4801 103.559L94.9639 79.8543C95.5802 79.5026 95.9595 78.8468 95.9595 78.1396V34.6804C95.9593 33.9731 95.5801 33.3174 94.9637 32.9657Z" fill="url(#paint0_linear_742_27696)"/>
<path d="M94.1287 34.427L94.1296 34.4275C94.2198 34.4789 94.2765 34.5761 94.2765 34.6809V78.1396C94.2765 78.2439 94.22 78.341 94.1298 78.3925L94.1289 78.393L52.6451 102.098L52.645 102.098C52.5977 102.125 52.5502 102.137 52.5003 102.137C52.4504 102.137 52.4029 102.125 52.3555 102.098L52.3554 102.098L10.8716 78.393L10.8708 78.3925C10.7805 78.341 10.7241 78.2439 10.7241 78.1396V34.6804C10.7241 34.5761 10.7805 34.4789 10.8707 34.4275L10.8716 34.427L52.3554 10.722C52.3554 10.722 52.3554 10.722 52.3554 10.722C52.4464 10.67 52.554 10.6701 52.6449 10.722C52.645 10.722 52.645 10.722 52.645 10.722L94.1287 34.427Z" stroke="white" stroke-width="3.36607"/>
</g>
<g clip-path="url(#clip0_742_27696)">
<path d="M37.8794 61.7551C40.959 62.1528 43.6457 63.4034 45.548 65.1264C45.9464 65.4872 45.798 66.636 45.321 66.8838C43.0435 68.067 40.1272 68.5941 37.0476 68.1964C33.968 67.7987 31.2814 66.5481 29.379 64.8251C28.9806 64.4643 29.129 63.3155 29.606 63.0677C31.8835 61.8845 34.7998 61.3574 37.8794 61.7551Z" fill="url(#paint1_linear_742_27696)"/>
<path d="M37.8794 61.7551C40.959 62.1528 43.6457 63.4034 45.548 65.1264C45.9464 65.4872 45.798 66.636 45.321 66.8838C43.0435 68.067 40.1272 68.5941 37.0476 68.1964C33.968 67.7987 31.2814 66.5481 29.379 64.8251C28.9806 64.4643 29.129 63.3155 29.606 63.0677C31.8835 61.8845 34.7998 61.3574 37.8794 61.7551Z" fill="url(#paint2_linear_742_27696)"/>
<path d="M38.2395 57.4432C41.5329 58.871 44.1168 61.1207 45.6782 63.6436C46.0051 64.1719 45.4725 65.4004 44.8633 65.523C41.9546 66.108 38.5464 65.7596 35.253 64.3318C31.9596 62.904 29.3757 60.6545 27.8143 58.1315C27.4874 57.6032 28.02 56.3746 28.6292 56.2521C31.5379 55.6672 34.946 56.0154 38.2395 57.4432Z" fill="url(#paint3_linear_742_27696)"/>
<path d="M38.2395 57.4432C41.5329 58.871 44.1168 61.1207 45.6782 63.6436C46.0051 64.1719 45.4725 65.4004 44.8633 65.523C41.9546 66.108 38.5464 65.7596 35.253 64.3318C31.9596 62.904 29.3757 60.6545 27.8143 58.1315C27.4874 57.6032 28.02 56.3746 28.6292 56.2521C31.5379 55.6672 34.946 56.0154 38.2395 57.4432Z" fill="url(#paint4_linear_742_27696)"/>
<path d="M44.1681 50.5199C45.4873 53.8583 45.7237 57.2762 45.0437 60.1642C44.9013 60.769 43.6559 61.2611 43.1386 60.917C40.6682 59.2738 38.5045 56.6175 37.1854 53.2791C35.8662 49.9407 35.6298 46.5229 36.3098 43.6349C36.4522 43.0301 37.6976 42.538 38.2149 42.8821C40.6853 44.5252 42.849 47.1814 44.1681 50.5199Z" fill="url(#paint5_linear_742_27696)"/>
<path d="M44.1681 50.5199C45.4873 53.8583 45.7237 57.2762 45.0437 60.1642C44.9013 60.769 43.6559 61.2611 43.1386 60.917C40.6682 59.2738 38.5045 56.6175 37.1854 53.2791C35.8662 49.9407 35.6298 46.5229 36.3098 43.6349C36.4522 43.0301 37.6976 42.538 38.2149 42.8821C40.6853 44.5252 42.849 47.1814 44.1681 50.5199Z" fill="url(#paint6_linear_742_27696)"/>
<path d="M39.3616 50.6458C42.7197 53.6649 44.9032 57.3807 45.7577 61.0141C45.9366 61.775 44.8104 63.0277 44.0348 62.9305C40.3313 62.4661 36.4049 60.689 33.0468 57.6699C29.6887 54.6509 27.5052 50.935 26.6508 47.3016C26.4719 46.5407 27.5981 45.288 28.3737 45.3852C32.0771 45.8496 36.0035 47.6268 39.3616 50.6458Z" fill="url(#paint7_linear_742_27696)"/>
<path d="M28.1885 51.4297C29.3308 53.6538 30.9621 55.7959 33.0462 57.6696C36.4043 60.6887 40.3307 62.4659 44.0342 62.9303C44.8098 63.0275 45.936 61.7748 45.757 61.0138C44.9026 57.3805 42.7191 53.6646 39.361 50.6456C37.3836 48.8678 35.209 47.5212 32.9991 46.6191L28.1885 51.4297Z" fill="url(#paint8_linear_742_27696)"/>
<path d="M67.4724 61.7551C64.3928 62.1528 61.7062 63.4034 59.8038 65.1264C59.4054 65.4872 59.5538 66.636 60.0308 66.8838C62.3083 68.067 65.2246 68.5941 68.3042 68.1964C71.3838 67.7987 74.0705 66.5481 75.9728 64.8251C76.3712 64.4643 76.2228 63.3155 75.7458 63.0677C73.4683 61.8845 70.552 61.3574 67.4724 61.7551Z" fill="url(#paint9_linear_742_27696)"/>
<path d="M67.4724 61.7551C64.3928 62.1528 61.7062 63.4034 59.8038 65.1264C59.4054 65.4872 59.5538 66.636 60.0308 66.8838C62.3083 68.067 65.2246 68.5941 68.3042 68.1964C71.3838 67.7987 74.0705 66.5481 75.9728 64.8251C76.3712 64.4643 76.2228 63.3155 75.7458 63.0677C73.4683 61.8845 70.552 61.3574 67.4724 61.7551Z" fill="url(#paint10_linear_742_27696)"/>
<path d="M67.1124 57.4432C63.8189 58.871 61.2351 61.1207 59.6737 63.6436C59.3468 64.1719 59.8794 65.4004 60.4885 65.523C63.3972 66.108 66.8055 65.7596 70.0988 64.3318C73.3923 62.904 75.9761 60.6545 77.5375 58.1315C77.8645 57.6032 77.3318 56.3746 76.7227 56.2521C73.814 55.6672 70.4059 56.0154 67.1124 57.4432Z" fill="url(#paint11_linear_742_27696)"/>
<path d="M67.1124 57.4432C63.8189 58.871 61.2351 61.1207 59.6737 63.6436C59.3468 64.1719 59.8794 65.4004 60.4885 65.523C63.3972 66.108 66.8055 65.7596 70.0988 64.3318C73.3923 62.904 75.9761 60.6545 77.5375 58.1315C77.8645 57.6032 77.3318 56.3746 76.7227 56.2521C73.814 55.6672 70.4059 56.0154 67.1124 57.4432Z" fill="url(#paint12_linear_742_27696)"/>
<path d="M61.1815 50.5199C59.8623 53.8583 59.6259 57.2762 60.3059 60.1642C60.4482 60.769 61.6936 61.2611 62.2109 60.917C64.6814 59.2738 66.8451 56.6175 68.1642 53.2791C69.4834 49.9407 69.7198 46.5229 69.0398 43.6349C68.8974 43.0301 67.652 42.538 67.1347 42.8821C64.6643 44.5252 62.5006 47.1814 61.1815 50.5199Z" fill="url(#paint13_linear_742_27696)"/>
<path d="M61.1815 50.5199C59.8623 53.8583 59.6259 57.2762 60.3059 60.1642C60.4482 60.769 61.6936 61.2611 62.2109 60.917C64.6814 59.2738 66.8451 56.6175 68.1642 53.2791C69.4834 49.9407 69.7198 46.5229 69.0398 43.6349C68.8974 43.0301 67.652 42.538 67.1347 42.8821C64.6643 44.5252 62.5006 47.1814 61.1815 50.5199Z" fill="url(#paint14_linear_742_27696)"/>
<path d="M65.9892 50.6458C62.6311 53.6649 60.4476 57.3807 59.5932 61.0141C59.4143 61.775 60.5405 63.0277 61.3161 62.9305C65.0196 62.4661 68.9459 60.689 72.304 57.6699C75.6621 54.6509 77.8456 50.935 78.7001 47.3016C78.879 46.5407 77.7528 45.288 76.9772 45.3852C73.2738 45.8496 69.3473 47.6268 65.9892 50.6458Z" fill="url(#paint15_linear_742_27696)"/>
<path d="M77.1617 51.4297C76.0194 53.6538 74.3881 55.7959 72.304 57.6696C68.9459 60.6887 65.0196 62.4659 61.3161 62.9303C60.5405 63.0275 59.4143 61.7748 59.5932 61.0138C60.4476 57.3805 62.6311 53.6646 65.9892 50.6456C67.9666 48.8678 70.1412 47.5212 72.3511 46.6191L77.1617 51.4297Z" fill="url(#paint16_linear_742_27696)"/>
<path d="M52.6752 75.2519C61.6453 75.2519 68.9169 67.9802 68.9169 59.0102C68.9169 50.0402 61.6453 42.7686 52.6752 42.7686C43.7052 42.7686 36.4336 50.0402 36.4336 59.0102C36.4336 67.9802 43.7052 75.2519 52.6752 75.2519Z" fill="url(#paint17_linear_742_27696)"/>
<path d="M52.6762 71.955C59.826 71.955 65.622 66.159 65.622 59.0092C65.622 51.8595 59.826 46.0635 52.6762 46.0635C45.5265 46.0635 39.7305 51.8595 39.7305 59.0092C39.7305 66.159 45.5265 71.955 52.6762 71.955Z" fill="url(#paint18_linear_742_27696)"/>
<path d="M52.6755 70.1245C58.8136 70.1245 63.7895 65.1486 63.7895 59.0105C63.7895 52.8724 58.8136 47.8965 52.6755 47.8965C46.5374 47.8965 41.5615 52.8724 41.5615 59.0105C41.5615 65.1486 46.5374 70.1245 52.6755 70.1245Z" fill="url(#paint19_linear_742_27696)"/>
<path d="M36.4336 59.0108C36.4336 67.9809 43.7052 75.2525 52.6752 75.2525C61.6453 75.2525 68.9169 67.9809 68.9169 59.0108C68.9169 58.9478 68.9153 58.8852 68.9146 58.8223H36.4359C36.4352 58.8852 36.4336 58.9478 36.4336 59.0108Z" fill="url(#paint20_linear_742_27696)"/>
<path d="M57.2302 74.603C62.3479 73.1104 66.4203 69.1676 68.0925 64.1291L60.1821 56.2187L58.3988 56.3062L53.5857 51.4932L47.7197 65.0926L57.2302 74.603Z" fill="url(#paint21_linear_742_27696)"/>
<path d="M59.3339 55.4812L56.1487 54.7116C55.8524 54.64 55.5935 54.4604 55.4226 54.2079L53.5865 51.4938C53.3643 51.1655 53.0241 50.9893 52.674 50.9609C52.3239 50.9893 51.9836 51.1655 51.7616 51.4938L49.9254 54.2079C49.7547 54.4604 49.4958 54.64 49.1994 54.7116L46.0142 55.4812C45.1502 55.69 44.7901 56.7212 45.3363 57.4224L47.3503 60.0074C47.5376 60.2479 47.6285 60.5496 47.605 60.8536L47.3526 64.1207C47.2842 65.0069 48.1537 65.6681 48.9894 65.3651L52.0702 64.2486C52.2649 64.1781 52.4725 64.1599 52.674 64.1911C52.8756 64.16 53.0832 64.1782 53.2778 64.2486L56.3586 65.3651C57.1943 65.668 58.0638 65.0069 57.9954 64.1207L57.743 60.8536C57.7196 60.5496 57.8104 60.2479 57.9978 60.0074L60.0117 57.4224C60.5579 56.7212 60.1979 55.69 59.3339 55.4812Z" fill="url(#paint22_linear_742_27696)"/>
<path d="M53.2776 64.2486L56.3584 65.3651C57.1941 65.668 58.0636 65.0069 57.9952 64.1207L57.7428 60.8536C57.7194 60.5496 57.8103 60.2479 57.9976 60.0074L60.0115 57.4224C60.5578 56.7213 60.1977 55.69 59.3337 55.4812L56.1485 54.7116C55.8522 54.64 55.5933 54.4604 55.4224 54.2079L53.5863 51.4938C53.3641 51.1655 53.0239 50.9893 52.6738 50.9609V64.1911C52.8754 64.1599 53.0831 64.1781 53.2776 64.2486Z" fill="url(#paint23_linear_742_27696)"/>
<path d="M59.334 55.4804L56.1488 54.7109C56.0401 54.6846 55.9365 54.6435 55.8404 54.5898L47.7207 65.0924C48.0393 65.4002 48.5198 65.5347 48.9896 65.3645L52.0704 64.248C52.2651 64.1774 52.4727 64.1592 52.6742 64.1905C52.8758 64.1593 53.0834 64.1775 53.278 64.248L56.3588 65.3645C57.1945 65.6673 58.064 65.0062 57.9956 64.12L57.7432 60.8529C57.7197 60.5489 57.8106 60.2472 57.9979 60.0067L60.0119 57.4218C60.5581 56.7204 60.1981 55.6892 59.334 55.4804Z" fill="url(#paint24_linear_742_27696)"/>
<path d="M46.0142 55.4804L49.1994 54.7109C49.3082 54.6846 49.4117 54.6435 49.5078 54.5898L57.6275 65.0924C57.309 65.4002 56.8284 65.5347 56.3586 65.3645L53.2778 64.248C53.0832 64.1774 52.8755 64.1592 52.674 64.1905C52.4724 64.1593 52.2649 64.1775 52.0702 64.248L48.9894 65.3645C48.1538 65.6673 47.2842 65.0062 47.3526 64.12L47.605 60.8529C47.6285 60.5489 47.5376 60.2472 47.3503 60.0067L45.3363 57.4218C44.7901 56.7204 45.1502 55.6892 46.0142 55.4804Z" fill="url(#paint25_linear_742_27696)"/>
<path d="M45.1671 56.2188C45.0156 56.6007 45.052 57.0559 45.337 57.4219L47.351 60.0068C47.5383 60.2474 47.6292 60.549 47.6057 60.853L47.3533 64.1201C47.2849 65.0063 48.1543 65.6675 48.9901 65.3646L52.0709 64.2481C52.2655 64.1775 52.4732 64.1593 52.6747 64.1906C52.8763 64.1594 53.0838 64.1776 53.2785 64.2481L56.3593 65.3646C57.195 65.6674 58.0645 65.0063 57.9961 64.1201L57.7437 60.853C57.7306 60.6844 57.754 60.5168 57.8084 60.3596L45.1671 56.2188Z" fill="url(#paint26_linear_742_27696)"/>
<path d="M60.1834 56.2188C60.3348 56.6007 60.2986 57.0559 60.0134 57.4219L57.9995 60.0068C57.8122 60.2474 57.7213 60.549 57.7448 60.853L57.9971 64.1201C58.0656 65.0063 57.196 65.6675 56.3604 65.3646L53.2796 64.2481C53.0849 64.1775 52.8773 64.1593 52.6758 64.1906C52.4742 64.1594 52.2666 64.1776 52.072 64.2481L48.9911 65.3646C48.1555 65.6674 47.286 65.0063 47.3544 64.1201L47.6067 60.853C47.6198 60.6844 47.5964 60.5168 47.5421 60.3596L60.1834 56.2188Z" fill="url(#paint27_linear_742_27696)"/>
</g>
<defs>
<filter id="filter0_d_742_27696" x="0.976876" y="0.935861" width="103.047" height="110.949" filterUnits="userSpaceOnUse" color-interpolation-filters="sRGB">
<feFlood flood-opacity="0" result="BackgroundImageFix"/>
<feColorMatrix in="SourceAlpha" type="matrix" values="0 0 0 0 0 0 0 0 0 0 0 0 0 0 0 0 0 0 127 0" result="hardAlpha"/>
<feOffset/>
<feGaussianBlur stdDeviation="4.03207"/>
<feComposite in2="hardAlpha" operator="out"/>
<feColorMatrix type="matrix" values="0 0 0 0 0 0 0 0 0 0 0 0 0 0 0 0 0 0 0.33 0"/>
<feBlend mode="normal" in2="BackgroundImageFix" result="effect1_dropShadow_742_27696"/>
<feBlend mode="normal" in="SourceGraphic" in2="effect1_dropShadow_742_27696" result="shape"/>
</filter>
<linearGradient id="paint0_linear_742_27696" x1="9.04102" y1="56.41" x2="95.9595" y2="56.41" gradientUnits="userSpaceOnUse">
<stop stop-color="#CCA3B7"/>
<stop offset="0.966667" stop-color="#EDA674"/>
</linearGradient>
<linearGradient id="paint1_linear_742_27696" x1="34.0599" y1="60.2829" x2="37.4302" y2="64.9299" gradientUnits="userSpaceOnUse">
<stop stop-color="#FEF0AE"/>
<stop offset="1" stop-color="#FBC56D"/>
</linearGradient>
<linearGradient id="paint2_linear_742_27696" x1="33.7529" y1="63.2632" x2="39.0638" y2="65.7143" gradientUnits="userSpaceOnUse">
<stop stop-color="#DC8758" stop-opacity="0"/>
<stop offset="0.9957" stop-color="#DC8758" stop-opacity="0.996"/>
<stop offset="1" stop-color="#DC8758"/>
</linearGradient>
<linearGradient id="paint3_linear_742_27696" x1="30.6029" y1="56.3223" x2="36.1691" y2="60.4587" gradientUnits="userSpaceOnUse">
<stop stop-color="#FEF0AE"/>
<stop offset="1" stop-color="#FBC56D"/>
</linearGradient>
<linearGradient id="paint4_linear_742_27696" x1="32.9364" y1="60.949" x2="37.1578" y2="60.881" gradientUnits="userSpaceOnUse">
<stop stop-color="#DC8758" stop-opacity="0"/>
<stop offset="0.9957" stop-color="#DC8758" stop-opacity="0.996"/>
<stop offset="1" stop-color="#DC8758"/>
</linearGradient>
<linearGradient id="paint5_linear_742_27696" x1="41.7839" y1="46.8067" x2="40.5072" y2="52.6793" gradientUnits="userSpaceOnUse">
<stop stop-color="#FEF0AE"/>
<stop offset="1" stop-color="#FBC56D"/>
</linearGradient>
<linearGradient id="paint6_linear_742_27696" x1="36.2673" y1="47.3982" x2="39.5355" y2="50.7344" gradientUnits="userSpaceOnUse">
<stop stop-color="#DC8758" stop-opacity="0"/>
<stop offset="0.9957" stop-color="#DC8758" stop-opacity="0.996"/>
<stop offset="1" stop-color="#DC8758"/>
</linearGradient>
<linearGradient id="paint7_linear_742_27696" x1="34.3048" y1="48.2177" x2="37.1134" y2="57.001" gradientUnits="userSpaceOnUse">
<stop stop-color="#FEF0AE"/>
<stop offset="1" stop-color="#FBC56D"/>
</linearGradient>
<linearGradient id="paint8_linear_742_27696" x1="34.87" y1="53.0002" x2="38.4786" y2="56.1322" gradientUnits="userSpaceOnUse">
<stop stop-color="#DC8758" stop-opacity="0"/>
<stop offset="0.9957" stop-color="#DC8758" stop-opacity="0.996"/>
<stop offset="1" stop-color="#DC8758"/>
</linearGradient>
<linearGradient id="paint9_linear_742_27696" x1="71.2919" y1="60.2829" x2="67.9215" y2="64.9299" gradientUnits="userSpaceOnUse">
<stop stop-color="#FEF0AE"/>
<stop offset="1" stop-color="#FBC56D"/>
</linearGradient>
<linearGradient id="paint10_linear_742_27696" x1="71.5989" y1="63.2632" x2="66.288" y2="65.7143" gradientUnits="userSpaceOnUse">
<stop stop-color="#DC8758" stop-opacity="0"/>
<stop offset="0.9957" stop-color="#DC8758" stop-opacity="0.996"/>
<stop offset="1" stop-color="#DC8758"/>
</linearGradient>
<linearGradient id="paint11_linear_742_27696" x1="74.749" y1="56.3223" x2="69.1828" y2="60.4587" gradientUnits="userSpaceOnUse">
<stop stop-color="#FEF0AE"/>
<stop offset="1" stop-color="#FBC56D"/>
</linearGradient>
<linearGradient id="paint12_linear_742_27696" x1="72.4155" y1="60.949" x2="68.1941" y2="60.881" gradientUnits="userSpaceOnUse">
<stop stop-color="#DC8758" stop-opacity="0"/>
<stop offset="0.9957" stop-color="#DC8758" stop-opacity="0.996"/>
<stop offset="1" stop-color="#DC8758"/>
</linearGradient>
<linearGradient id="paint13_linear_742_27696" x1="63.5657" y1="46.8067" x2="64.8424" y2="52.6793" gradientUnits="userSpaceOnUse">
<stop stop-color="#FEF0AE"/>
<stop offset="1" stop-color="#FBC56D"/>
</linearGradient>
<linearGradient id="paint14_linear_742_27696" x1="69.0823" y1="47.3982" x2="65.8141" y2="50.7344" gradientUnits="userSpaceOnUse">
<stop stop-color="#DC8758" stop-opacity="0"/>
<stop offset="0.9957" stop-color="#DC8758" stop-opacity="0.996"/>
<stop offset="1" stop-color="#DC8758"/>
</linearGradient>
<linearGradient id="paint15_linear_742_27696" x1="71.0461" y1="48.2177" x2="68.2374" y2="57.001" gradientUnits="userSpaceOnUse">
<stop stop-color="#FEF0AE"/>
<stop offset="1" stop-color="#FBC56D"/>
</linearGradient>
<linearGradient id="paint16_linear_742_27696" x1="70.4803" y1="53.0002" x2="66.8716" y2="56.1322" gradientUnits="userSpaceOnUse">
<stop stop-color="#DC8758" stop-opacity="0"/>
<stop offset="0.9957" stop-color="#DC8758" stop-opacity="0.996"/>
<stop offset="1" stop-color="#DC8758"/>
</linearGradient>
<linearGradient id="paint17_linear_742_27696" x1="42.6616" y1="48.9966" x2="59.7908" y2="66.1257" gradientUnits="userSpaceOnUse">
<stop stop-color="#FEF0AE"/>
<stop offset="1" stop-color="#FBC56D"/>
</linearGradient>
<linearGradient id="paint18_linear_742_27696" x1="61.0843" y1="67.4174" x2="44.0228" y2="50.3558" gradientUnits="userSpaceOnUse">
<stop stop-color="#FEF0AE"/>
<stop offset="1" stop-color="#FBC56D"/>
</linearGradient>
<linearGradient id="paint19_linear_742_27696" x1="44.596" y1="50.9309" x2="57.8953" y2="64.2303" gradientUnits="userSpaceOnUse">
<stop stop-color="#FEF0AE"/>
<stop offset="1" stop-color="#FBC56D"/>
</linearGradient>
<linearGradient id="paint20_linear_742_27696" x1="52.6752" y1="63.7628" x2="52.6752" y2="74.4234" gradientUnits="userSpaceOnUse">
<stop stop-color="#DC8758" stop-opacity="0"/>
<stop offset="0.9957" stop-color="#DC8758" stop-opacity="0.996"/>
<stop offset="1" stop-color="#DC8758"/>
</linearGradient>
<linearGradient id="paint21_linear_742_27696" x1="62.4023" y1="67.4507" x2="48.9889" y2="59.0077" gradientUnits="userSpaceOnUse">
<stop stop-color="#DC8758" stop-opacity="0"/>
<stop offset="0.9957" stop-color="#DC8758" stop-opacity="0.996"/>
<stop offset="1" stop-color="#DC8758"/>
</linearGradient>
<linearGradient id="paint22_linear_742_27696" x1="49.2908" y1="55.9232" x2="55.3918" y2="62.0241" gradientUnits="userSpaceOnUse">
<stop stop-color="#FBC56D"/>
<stop offset="1" stop-color="#C5715A"/>
</linearGradient>
<linearGradient id="paint23_linear_742_27696" x1="56.3294" y1="57.5867" x2="47.8971" y2="61.0726" gradientUnits="userSpaceOnUse">
<stop stop-color="#8C3D27" stop-opacity="0"/>
<stop offset="1" stop-color="#8C3D27"/>
</linearGradient>
<linearGradient id="paint24_linear_742_27696" x1="54.1282" y1="60.5784" x2="49.5116" y2="58.5998" gradientUnits="userSpaceOnUse">
<stop stop-color="#8C3D27" stop-opacity="0"/>
<stop offset="1" stop-color="#8C3D27"/>
</linearGradient>
<linearGradient id="paint25_linear_742_27696" x1="51.2201" y1="60.5784" x2="55.8366" y2="58.5998" gradientUnits="userSpaceOnUse">
<stop stop-color="#8C3D27" stop-opacity="0"/>
<stop offset="1" stop-color="#8C3D27"/>
</linearGradient>
<linearGradient id="paint26_linear_742_27696" x1="51.3234" y1="60.8101" x2="54.2911" y2="56.0404" gradientUnits="userSpaceOnUse">
<stop stop-color="#8C3D27" stop-opacity="0"/>
<stop offset="1" stop-color="#8C3D27"/>
</linearGradient>
<linearGradient id="paint27_linear_742_27696" x1="53.7983" y1="60.2077" x2="53.551" y2="55.5441" gradientUnits="userSpaceOnUse">
<stop stop-color="#8C3D27" stop-opacity="0"/>
<stop offset="1" stop-color="#B9624A"/>
</linearGradient>
<clipPath id="clip0_742_27696">
<rect width="52.0873" height="52.0874" fill="white" transform="translate(26.6318 33.4668)"/>
</clipPath>
</defs>
</svg>
