<svg width="24" height="21" viewBox="0 0 24 21" fill="none" xmlns="http://www.w3.org/2000/svg">
    <path
        d="M18.7245 7.5L15.1045 10.39C14.3445 11 13.3745 11.3 12.3945 11.3C11.4145 11.3 10.4445 11 9.69446 10.39L6.07446 7.5C5.70446 7.2 5.64446 6.65002 5.93446 6.27002C6.23446 5.90002 6.77447 5.83 7.14447 6.13L10.7645 9.02002C11.6445 9.73002 13.1345 9.73002 14.0145 9.02002L17.6345 6.13C18.0045 5.83 18.5545 5.89002 18.8445 6.27002C19.1445 6.64002 19.0845 7.19 18.7145 7.5M18.1745 0.460022H6.61447C3.14447 0.460022 0.834473 2.18999 0.834473 6.23999V14.33C0.834473 18.38 3.14447 20.11 6.61447 20.11H18.1745C21.6445 20.11 23.9545 18.38 23.9545 14.33V6.23999C23.9545 2.18999 21.6445 0.460022 18.1745 0.460022Z"
        fill="white" />
</svg>
    