<svg id="Layer_1" data-name="Layer 1" xmlns="http://www.w3.org/2000/svg" viewBox="0 0 512 512"><title>failed red</title><path d="M491.87,156.34A256.76,256.76,0,1,0,512,256,255.26,255.26,0,0,0,491.87,156.34ZM473.82,256A217.82,217.82,0,0,1,102,410,217.82,217.82,0,1,1,410,102,216.4,216.4,0,0,1,473.82,256Z" fill="#ea3434"/><path d="M287.18,256l81.07-81.07a22.05,22.05,0,0,0-31.19-31.18L256,224.82l-81.07-81.07a22,22,0,0,0-31.18,31.18L224.81,256l-81.06,81.06a22.05,22.05,0,1,0,31.19,31.19L256,287.18l81.07,81.07a22.05,22.05,0,0,0,31.18-31.19Z" fill="#ea3434"/></svg>