<svg width="83" height="83" viewBox="0 0 83 83" fill="none" xmlns="http://www.w3.org/2000/svg">
<path d="M46.8823 41.2061L53.6553 34.4331C54.0382 34.0625 54.3434 33.6194 54.5533 33.1297C54.7632 32.6399 54.8735 32.1133 54.8778 31.5805C54.8822 31.0477 54.7804 30.5193 54.5785 30.0262C54.3766 29.5331 54.0786 29.0851 53.7018 28.7084C53.325 28.3316 52.8771 28.0336 52.384 27.8317C51.8909 27.6298 51.3625 27.528 50.8297 27.5324C50.2969 27.5367 49.7703 27.647 49.2805 27.8569C48.7908 28.0668 48.3477 28.372 47.9771 28.7549L41.2041 35.5278L34.4311 28.7549C34.0605 28.372 33.6174 28.0668 33.1277 27.8569C32.6379 27.647 32.1113 27.5367 31.5785 27.5324C31.0457 27.528 30.5174 27.6298 30.0243 27.8317C29.5312 28.0336 29.0832 28.3316 28.7064 28.7084C28.3297 29.0851 28.0316 29.5331 27.8297 30.0262C27.6278 30.5193 27.5261 31.0477 27.5304 31.5805C27.5347 32.1133 27.6451 32.6399 27.8549 33.1297C28.0648 33.6194 28.3701 34.0625 28.7529 34.4331L35.5259 41.2061L28.7529 47.9791C28.3701 48.3497 28.0648 48.7927 27.8549 49.2825C27.6451 49.7722 27.5347 50.2989 27.5304 50.8317C27.5261 51.3645 27.6278 51.8928 27.8297 52.3859C28.0316 52.879 28.3297 53.327 28.7064 53.7038C29.0832 54.0805 29.5312 54.3785 30.0243 54.5804C30.5174 54.7824 31.0457 54.8841 31.5785 54.8798C32.1113 54.8755 32.6379 54.7651 33.1277 54.5553C33.6174 54.3454 34.0605 54.0401 34.4311 53.6573L41.2041 46.8843L47.9771 53.6573C48.3477 54.0401 48.7908 54.3454 49.2805 54.5553C49.7703 54.7651 50.2969 54.8755 50.8297 54.8798C51.3625 54.8841 51.8909 54.7824 52.384 54.5804C52.8771 54.3785 53.325 54.0805 53.7018 53.7038C54.0786 53.327 54.3766 52.879 54.5785 52.3859C54.7804 51.8928 54.8822 51.3645 54.8778 50.8317C54.8735 50.2989 54.7632 49.7722 54.5533 49.2825C54.3434 48.7927 54.0382 48.3497 53.6553 47.9791L46.8823 41.2061Z" fill="#F4B2B0"/>
<path d="M41.205 8.27129V6C31.8714 6.01082 22.9231 9.72338 16.3233 16.3233C9.72338 22.9231 6.01082 31.8714 6 41.205H8.27129C8.28091 32.4734 11.7538 24.1022 17.928 17.928C24.1022 11.7538 32.4734 8.28091 41.205 8.27129ZM74.1387 41.205C74.1288 49.9365 70.6558 58.3076 64.4817 64.4817C58.3076 70.6558 49.9365 74.1288 41.205 74.1387V76.41C50.5387 76.3995 59.4871 72.687 66.0871 66.0871C72.687 59.4871 76.3995 50.5387 76.41 41.205H74.1387Z" fill="#B73E53"/>
<path d="M41.2049 12.8136C35.5897 12.8136 30.1005 14.4787 25.4316 17.5984C20.7627 20.718 17.1238 25.1521 14.9749 30.3399C12.8261 35.5277 12.2638 41.2362 13.3593 46.7436C14.4548 52.2509 17.1588 57.3097 21.1293 61.2803C25.0999 65.2509 30.1587 67.9549 35.6661 69.0504C41.1734 70.1458 46.8819 69.5836 52.0697 67.4347C57.2575 65.2859 61.6916 61.6469 64.8112 56.978C67.9309 52.3091 69.596 46.82 69.596 41.2047C69.5876 33.6775 66.5937 26.461 61.2711 21.1385C55.9486 15.8159 48.7321 12.822 41.2049 12.8136ZM41.2049 67.3246C36.0389 67.3246 30.9889 65.7927 26.6935 62.9226C22.3981 60.0525 19.0503 55.9732 17.0733 51.2004C15.0964 46.4276 14.5791 41.1758 15.5869 36.109C16.5948 31.0423 19.0825 26.3881 22.7354 22.7352C26.3883 19.0823 31.0424 16.5946 36.1092 15.5868C41.1759 14.5789 46.4277 15.0962 51.2005 17.0732C55.9733 19.0501 60.0527 22.3979 62.9227 26.6933C65.7928 30.9887 67.3247 36.0387 67.3247 41.2047C67.3169 48.1298 64.5625 54.7689 59.6658 59.6656C54.769 64.5624 48.1299 67.3168 41.2049 67.3246ZM9.13315 48.7261L6.92205 49.2428C7.0958 49.9844 7.29681 50.7328 7.5194 51.4653L9.69189 50.8044C9.48368 50.1207 9.29744 49.428 9.13315 48.7261ZM10.3846 52.8394L8.25984 53.6412C8.52785 54.351 8.82766 55.0653 9.14223 55.7637L11.2091 54.8234C10.9161 54.1723 10.6413 53.511 10.3846 52.8394ZM8.43246 44.4811L6.17139 44.7082C6.2471 45.4767 6.34741 46.2368 6.47233 46.9886L8.7141 46.6184C8.5975 45.9135 8.50362 45.2011 8.43246 44.4811ZM12.1642 56.7506L10.1632 57.8238C10.5258 58.5006 10.9101 59.1638 11.3159 59.8134L13.2465 58.6119C12.8641 58.004 12.5034 57.3835 12.1642 56.7506ZM30.9727 74.8993C31.6984 75.1197 32.4491 75.3207 33.1963 75.4944L33.7119 73.2822C33.0101 73.1194 32.317 72.9339 31.6325 72.7257L30.9727 74.8993ZM35.454 75.9419C36.2073 76.066 36.9678 76.1656 37.7355 76.2405L37.9558 73.9806C37.2381 73.9102 36.5268 73.8171 35.8219 73.7012L35.454 75.9419ZM26.6686 73.2765C27.3659 73.5934 28.0814 73.8898 28.7957 74.1589L29.5907 72.0341C28.9176 71.7797 28.2548 71.5045 27.6021 71.2085L26.6686 73.2765ZM15.5143 65.2804C16.039 65.8407 16.5815 66.3828 17.1417 66.9067L18.6941 65.2486C18.1702 64.7595 17.663 64.2527 17.1724 63.728L15.5143 65.2804ZM18.8713 68.4193C19.4634 68.9069 20.0713 69.3744 20.6951 69.8219L22.0204 67.9764C21.4367 67.5578 20.8689 67.1205 20.317 66.6648L18.8713 68.4193ZM22.6087 71.1029C23.2583 71.5079 23.9223 71.8922 24.6006 72.2556L25.6738 70.2546C25.0401 69.9139 24.4189 69.5542 23.8102 69.1757L22.6087 71.1029ZM14.4389 60.3972L12.5946 61.7236C13.0428 62.3467 13.5103 62.9542 13.9971 63.5463L15.7506 62.1006C15.2963 61.5495 14.8591 60.9816 14.4389 60.3972ZM72.0252 29.5701L74.1499 28.7683C73.8819 28.0585 73.5821 27.3442 73.2676 26.6458L71.2007 27.5861C71.4937 28.2372 71.7685 28.8985 72.0252 29.5701ZM46.9558 6.46762C46.2032 6.34421 45.4427 6.24466 44.6743 6.16895L44.454 8.42888C45.1717 8.49929 45.883 8.59241 46.5878 8.70825L46.9558 6.46762ZM73.9773 37.9284L76.2384 37.7013C76.1627 36.9328 76.0624 36.1727 75.9375 35.4209L73.6957 35.7911C73.813 36.4967 73.9069 37.2092 73.9773 37.9284ZM70.2456 25.6589L72.2466 24.5857C71.884 23.9089 71.4997 23.2456 71.0939 22.5961L69.1633 23.7976C69.5457 24.4055 69.9064 25.026 70.2456 25.6589ZM73.2766 33.6834L75.4877 33.1666C75.3126 32.4196 75.1134 31.6784 74.8904 30.9442L72.7179 31.6051C72.9261 32.2888 73.1124 32.9815 73.2766 33.6834ZM51.437 7.51014C50.7026 7.28742 49.961 7.08895 49.2135 6.91506L48.7001 9.1273C49.402 9.28932 50.0951 9.47481 50.7795 9.68377L51.437 7.51014ZM63.5385 13.9901C62.9472 13.5033 62.3392 13.0354 61.7146 12.5865L60.3893 14.433C60.9731 14.8517 61.5409 15.2889 62.0928 15.7447L63.5385 13.9901ZM55.7411 9.13298C55.042 8.81557 54.3326 8.52127 53.6141 8.25058L52.8191 10.3754C53.4922 10.6298 54.155 10.905 54.8076 11.201L55.7411 9.13298ZM59.8011 11.3066C59.1515 10.9008 58.4875 10.5166 57.8092 10.1539L56.736 12.1549C57.3697 12.4956 57.9909 12.8552 58.5996 13.2338L59.8011 11.3066ZM66.8955 17.1291C66.3708 16.5688 65.8283 16.0267 65.2681 15.5028L63.7156 17.1609C64.2388 17.6499 64.7461 18.1568 65.2374 18.6815L66.8955 17.1291ZM67.9709 22.0123L69.8152 20.687C69.367 20.0632 68.8995 19.4556 68.4127 18.8643L66.6592 20.3089C67.1135 20.86 67.5507 21.4279 67.9709 22.0123Z" fill="#B73E53"/>
<path d="M55.9685 31.5914C55.9688 30.5724 55.6669 29.5763 55.1009 28.729C54.535 27.8817 53.7304 27.2213 52.789 26.8314C51.8477 26.4415 50.8118 26.3396 49.8125 26.5386C48.8132 26.7376 47.8954 27.2286 47.1752 27.9493L41.2051 33.9194L35.235 27.9493C34.7567 27.4711 34.1889 27.0917 33.564 26.8328C32.9391 26.574 32.2694 26.4408 31.593 26.4408C30.9166 26.4408 30.2468 26.574 29.6219 26.8328C28.997 27.0917 28.4292 27.4711 27.951 27.9493C27.4727 28.4276 27.0933 28.9954 26.8344 29.6203C26.5756 30.2452 26.4424 30.915 26.4424 31.5914C26.4424 32.2677 26.5756 32.9375 26.8344 33.5624C27.0933 34.1873 27.4727 34.7551 27.951 35.2334L33.921 41.2035L27.951 47.1747C26.985 48.1406 26.4424 49.4507 26.4424 50.8167C26.4424 52.1827 26.985 53.4928 27.951 54.4587C28.9169 55.4246 30.2269 55.9673 31.593 55.9673C32.959 55.9673 34.2691 55.4246 35.235 54.4587L41.2051 48.4875L47.1752 54.4587C48.1411 55.4246 49.4511 55.9673 50.8172 55.9673C52.1832 55.9673 53.4933 55.4246 54.4592 54.4587C55.4251 53.4928 55.9678 52.1827 55.9678 50.8167C55.9678 49.4507 55.4251 48.1406 54.4592 47.1747L48.4891 41.2035L54.4592 35.2334C54.9391 34.7563 55.3196 34.1887 55.5786 33.5635C55.8377 32.9384 55.9702 32.2681 55.9685 31.5914ZM52.8534 33.6276L46.0804 40.4006C45.8675 40.6135 45.7479 40.9023 45.7479 41.2035C45.7479 41.5046 45.8675 41.7934 46.0804 42.0064L52.8534 48.7805C53.3794 49.3234 53.6709 50.0514 53.665 50.8073C53.659 51.5632 53.3561 52.2865 52.8215 52.8211C52.287 53.3556 51.5637 53.6585 50.8078 53.6645C50.0518 53.6705 49.3239 53.379 48.781 52.8529L42.008 46.0788C41.795 45.8659 41.5062 45.7463 41.2051 45.7463C40.9039 45.7463 40.6151 45.8659 40.4022 46.0788L33.6292 52.8529C33.3633 53.1273 33.0456 53.346 32.6944 53.4963C32.3432 53.6467 31.9656 53.7257 31.5836 53.7287C31.2016 53.7317 30.8228 53.6587 30.4692 53.5139C30.1157 53.3691 29.7945 53.1554 29.5244 52.8853C29.2543 52.6151 29.0406 52.2939 28.8958 51.9404C28.751 51.5869 28.6779 51.2081 28.681 50.8261C28.684 50.4441 28.763 50.0665 28.9133 49.7153C29.0637 49.3641 29.2824 49.0463 29.5568 48.7805L36.3297 42.0064C36.5426 41.7934 36.6622 41.5046 36.6622 41.2035C36.6622 40.9023 36.5426 40.6135 36.3297 40.4006L29.5568 33.6276C29.2824 33.3617 29.0637 33.044 28.9133 32.6928C28.763 32.3416 28.684 31.964 28.681 31.582C28.6779 31.1999 28.751 30.8211 28.8958 30.4676C29.0406 30.1141 29.2543 29.7929 29.5244 29.5228C29.7945 29.2527 30.1157 29.039 30.4692 28.8942C30.8228 28.7494 31.2016 28.6763 31.5836 28.6793C31.9656 28.6824 32.3432 28.7613 32.6944 28.9117C33.0456 29.0621 33.3633 29.2808 33.6292 29.5551L40.4022 36.3281C40.6151 36.541 40.9039 36.6606 41.2051 36.6606C41.5062 36.6606 41.795 36.541 42.008 36.3281L48.781 29.5551C49.0468 29.2808 49.3646 29.0621 49.7158 28.9117C50.067 28.7613 50.4446 28.6824 50.8266 28.6793C51.2086 28.6763 51.5874 28.7494 51.9409 28.8942C52.2944 29.039 52.6156 29.2527 52.8857 29.5228C53.1559 29.7929 53.3696 30.1141 53.5144 30.4676C53.6592 30.8211 53.7322 31.1999 53.7292 31.582C53.7262 31.964 53.6472 32.3416 53.4968 32.6928C53.3465 33.044 53.1277 33.3617 52.8534 33.6276Z" fill="#B73E53"/>
</svg>
