<svg width="20" height="20" viewBox="0 0 20 20" fill="none" xmlns="http://www.w3.org/2000/svg">
<g clip-path="url(#clip0_1782_7973)">
<path d="M8.525 3.025C8.525 2.22272 8.2063 1.4533 7.639 0.886002C7.0717 0.318704 6.30228 0 5.5 0C4.69772 0 3.9283 0.318704 3.361 0.886002C2.7937 1.4533 2.475 2.22272 2.475 3.025C2.475 3.82728 2.7937 4.5967 3.361 5.164C3.9283 5.7313 4.69772 6.05 5.5 6.05C6.30228 6.05 7.0717 5.7313 7.639 5.164C8.2063 4.5967 8.525 3.82728 8.525 3.025ZM3.575 3.025C3.575 2.77221 3.62479 2.52189 3.72153 2.28833C3.81827 2.05478 3.96007 1.84257 4.13882 1.66382C4.31757 1.48507 4.52978 1.34327 4.76333 1.24653C4.99689 1.14979 5.2472 1.1 5.5 1.1C5.75279 1.1 6.00311 1.14979 6.23666 1.24653C6.47022 1.34327 6.68243 1.48507 6.86118 1.66382C7.03993 1.84257 7.18173 2.05478 7.27847 2.28833C7.37521 2.52189 7.425 2.77221 7.425 3.025C7.425 3.53554 7.22219 4.02517 6.86118 4.38618C6.50017 4.74719 6.01054 4.95 5.5 4.95C4.98946 4.95 4.49983 4.74719 4.13882 4.38618C3.77781 4.02517 3.575 3.53554 3.575 3.025ZM1.65 7.15H6.2513C6.0709 7.491 5.9367 7.8606 5.8575 8.25H1.65C1.50413 8.25 1.36424 8.30795 1.26109 8.41109C1.15795 8.51424 1.1 8.65413 1.1 8.8V9.35C1.1 10.736 2.3089 12.2254 4.5056 12.573C4.1514 12.815 3.8566 13.1373 3.6465 13.5124C1.3255 12.8843 0 11.0957 0 9.35V8.8C0 8.36239 0.173839 7.94271 0.483274 7.63327C0.792709 7.32384 1.21239 7.15 1.65 7.15ZM7.5669 7.15C8.1213 6.479 8.9606 6.05 9.9 6.05C10.5588 6.04885 11.1998 6.26324 11.7253 6.66046C12.2508 7.05768 12.632 7.61592 12.8106 8.25C12.9698 8.81595 12.9608 9.416 12.7848 9.97693C12.6087 10.5379 12.2732 11.0354 11.8191 11.4089C11.3651 11.7823 10.8121 12.0156 10.2278 12.0801C9.6434 12.1446 9.05289 12.0376 8.5283 11.7722C8.1244 11.5666 7.77184 11.2729 7.49669 10.9128C7.22154 10.5527 7.03083 10.1353 6.93864 9.69161C6.84645 9.24788 6.85514 8.7891 6.96408 8.34918C7.07301 7.90926 7.2783 7.49944 7.5669 7.15ZM8.1609 8.25C8.05256 8.47853 7.99029 8.72615 7.97765 8.97874C7.96501 9.23134 8.00224 9.48394 8.08723 9.72214C8.17221 9.96034 8.30328 10.1795 8.47295 10.367C8.64262 10.5546 8.84757 10.7069 9.0761 10.8152C9.30463 10.9235 9.55225 10.9858 9.80484 10.9984C10.0574 11.0111 10.31 10.9739 10.5482 10.8889C10.7864 10.8039 11.0056 10.6728 11.1931 10.5031C11.3807 10.3335 11.533 10.1285 11.6413 9.9C11.8601 9.43832 11.8865 8.90864 11.7148 8.42747C11.5431 7.9463 11.1872 7.55305 10.7255 7.33425C10.2639 7.11545 9.73419 7.089 9.25302 7.26074C8.77184 7.43248 8.3797 7.78832 8.1609 8.25ZM16.1535 13.5124C15.944 13.1371 15.6498 12.8158 15.2944 12.5741C17.49 12.2254 18.7 10.7349 18.7 9.35V8.8C18.7 8.65413 18.6421 8.51424 18.5389 8.41109C18.4358 8.30795 18.2959 8.25 18.15 8.25H13.9425C13.8648 7.86647 13.7325 7.49604 13.5498 7.15H18.15C18.5876 7.15 19.0073 7.32384 19.3167 7.63327C19.6262 7.94271 19.8 8.36239 19.8 8.8V9.35C19.8 11.0957 18.4734 12.8832 16.1535 13.5124ZM14.8357 13.6081C14.5355 13.3445 14.1495 13.1995 13.75 13.2H6.05C5.83316 13.1994 5.61834 13.2417 5.41789 13.3244C5.21744 13.4071 5.03531 13.5286 4.88198 13.682C4.72865 13.8353 4.60713 14.0174 4.52442 14.2179C4.4417 14.4183 4.39942 14.6332 4.4 14.85V15.4C4.4 17.5681 6.446 19.8 9.9 19.8C13.354 19.8 15.4 17.5681 15.4 15.4V14.85C15.4 14.355 15.1822 13.9106 14.8357 13.607V13.6081ZM5.5 14.85C5.5 14.7041 5.55795 14.5642 5.66109 14.4611C5.76424 14.3579 5.90413 14.3 6.05 14.3H13.75C13.8959 14.3 14.0358 14.3579 14.1389 14.4611C14.2421 14.5642 14.3 14.7041 14.3 14.85V15.4C14.3 16.9818 12.7248 18.7 9.9 18.7C7.0752 18.7 5.5 16.9818 5.5 15.4V14.85ZM14.3 0C15.1023 0 15.8717 0.318704 16.439 0.886002C17.0063 1.4533 17.325 2.22272 17.325 3.025C17.325 3.82728 17.0063 4.5967 16.439 5.164C15.8717 5.7313 15.1023 6.05 14.3 6.05C13.4977 6.05 12.7283 5.7313 12.161 5.164C11.5937 4.5967 11.275 3.82728 11.275 3.025C11.275 2.22272 11.5937 1.4533 12.161 0.886002C12.7283 0.318704 13.4977 0 14.3 0ZM14.3 1.1C13.7895 1.1 13.2998 1.30281 12.9388 1.66382C12.5778 2.02483 12.375 2.51446 12.375 3.025C12.375 3.53554 12.5778 4.02517 12.9388 4.38618C13.2998 4.74719 13.7895 4.95 14.3 4.95C14.8105 4.95 15.3002 4.74719 15.6612 4.38618C16.0222 4.02517 16.225 3.53554 16.225 3.025C16.225 2.51446 16.0222 2.02483 15.6612 1.66382C15.3002 1.30281 14.8105 1.1 14.3 1.1Z" fill="#1D212C" stroke="#1D212C" stroke-width="0.1"/>
</g>
<defs>
<clipPath id="clip0_1782_7973">
<rect width="20" height="20" fill="white"/>
</clipPath>
</defs>
</svg>
