<svg width="375" height="812" viewBox="0 0 375 812" fill="none" xmlns="http://www.w3.org/2000/svg">
    <rect width="375" height="812" fill="#31225D" />
    <mask id="mask0_2_4145" style="mask-type:alpha" maskUnits="userSpaceOnUse" x="0" y="0"
        width="375" height="409">
        <rect width="375" height="409" fill="#D9D9D9" />
    </mask>
    <g mask="url(#mask0_2_4145)">
        <g clip-path="url(#clip0_2_4145)">
            <path
                d="M202.65 367.11C202.65 368.97 202.65 370.57 202.65 372.18C202.65 372.69 202.63 373.2 202.65 373.71C202.72 375 203.57 375.88 204.72 375.88C205.87 375.88 206.78 375.01 206.81 373.72C206.86 371.6 206.82 369.48 206.82 367.1C208.75 368.21 210.45 369.21 212.17 370.18C213.58 370.98 214.79 370.78 215.45 369.66C216.11 368.54 215.7 367.41 214.27 366.57C212.56 365.56 210.82 364.57 208.96 363.49C209.46 363.18 209.84 362.94 210.22 362.71C211.7 361.84 213.2 361.01 214.66 360.11C215.54 359.57 216.08 358.67 215.58 357.75C215.22 357.09 214.38 356.54 213.64 356.28C213.21 356.13 212.51 356.57 212 356.85C210.31 357.78 208.65 358.75 206.8 359.81V355.55C206.8 352.07 206.31 351.04 204.67 351.06C203.07 351.08 202.61 352.06 202.61 355.47C202.61 356.84 202.61 358.21 202.61 359.82C200.72 358.74 199.06 357.76 197.37 356.82C196.89 356.55 196.25 356.13 195.85 356.27C195.1 356.53 194.21 357 193.85 357.65C193.32 358.59 193.82 359.56 194.77 360.13C196.62 361.23 198.5 362.3 200.51 363.47C198.47 364.65 196.58 365.64 194.81 366.83C194.26 367.2 193.78 368.09 193.78 368.75C193.78 369.34 194.37 370.22 194.91 370.44C195.53 370.69 196.48 370.54 197.12 370.23C198.93 369.33 200.65 368.25 202.62 367.12L202.65 367.11ZM170.6 359.79C169.99 359.45 169.59 359.24 169.19 359.02C167.78 358.21 166.39 357.37 164.96 356.6C163.72 355.93 162.55 356.23 161.95 357.29C161.34 358.36 161.7 359.46 162.92 360.23C163.39 360.53 163.88 360.79 164.36 361.07C165.69 361.84 167.02 362.6 168.51 363.46C166.49 364.63 164.72 365.63 162.97 366.68C161.71 367.43 161.34 368.53 161.93 369.59C162.55 370.71 163.74 370.98 165.06 370.29C165.59 370.01 166.11 369.69 166.63 369.39C167.9 368.67 169.17 367.94 170.59 367.13C170.59 369.43 170.57 371.47 170.59 373.5C170.61 374.91 171.42 375.83 172.61 375.87C173.85 375.92 174.74 374.96 174.76 373.5C174.78 371.44 174.76 369.39 174.76 367.09C176.7 368.2 178.37 369.17 180.06 370.13C181.55 370.98 182.78 370.78 183.44 369.59C184.07 368.46 183.64 367.38 182.18 366.52C180.48 365.51 178.76 364.53 176.91 363.46C178.89 362.31 180.75 361.28 182.56 360.15C183.95 359.29 184.09 357.56 182.9 356.66C181.99 355.97 181.09 356.17 180.18 356.71C178.44 357.73 176.69 358.73 174.78 359.83C174.78 357.56 174.79 355.57 174.78 353.57C174.77 351.96 173.96 351.03 172.64 351.06C171.38 351.09 170.62 352 170.6 353.54C170.58 355.54 170.6 357.53 170.6 359.78V359.79ZM142.74 367.09C144.7 368.21 146.38 369.19 148.06 370.14C149.5 370.96 150.69 370.79 151.36 369.71C152.07 368.56 151.64 367.4 150.15 366.51C148.45 365.51 146.73 364.53 144.89 363.47C145.51 363.1 145.98 362.81 146.46 362.53C147.86 361.71 149.29 360.94 150.66 360.06C151.7 359.4 151.95 358.25 151.4 357.27C150.85 356.29 149.72 355.92 148.63 356.46C147.67 356.93 146.77 357.52 145.85 358.04C144.87 358.6 143.88 359.15 142.73 359.79C142.73 357.43 142.76 355.34 142.73 353.26C142.71 351.93 141.89 351.09 140.72 351.06C139.54 351.04 138.69 351.85 138.58 353.16C138.53 353.71 138.56 354.27 138.56 354.83C138.56 356.42 138.56 358.01 138.56 359.8C136.53 358.64 134.78 357.6 132.99 356.62C131.59 355.85 130.25 356.28 129.78 357.61C129.34 358.85 129.94 359.67 130.96 360.26C132.74 361.3 134.53 362.32 136.46 363.43C135.86 363.79 135.47 364.03 135.07 364.27C133.63 365.11 132.16 365.91 130.74 366.79C129.66 367.46 129.36 368.56 129.88 369.55C130.43 370.6 131.57 370.96 132.75 370.41C133.34 370.14 133.89 369.78 134.45 369.46C135.76 368.71 137.07 367.96 138.55 367.11C138.55 369.37 138.53 371.36 138.55 373.35C138.57 374.93 139.44 375.91 140.72 375.87C141.95 375.83 142.71 374.89 142.72 373.35C142.74 371.36 142.72 369.37 142.72 367.08L142.74 367.09ZM238.89 359.8C238.89 357.6 238.9 355.62 238.89 353.64C238.87 351.99 238.1 351.07 236.79 351.06C235.48 351.06 234.72 351.97 234.71 353.62C234.7 355.6 234.71 357.58 234.71 359.82C232.79 358.72 231.08 357.72 229.36 356.75C227.92 355.94 226.73 356.12 226.08 357.22C225.38 358.39 225.81 359.51 227.32 360.4C229.03 361.4 230.75 362.39 232.59 363.46C230.62 364.6 228.8 365.63 227.01 366.7C225.79 367.43 225.44 368.58 226.05 369.64C226.66 370.69 227.83 370.98 229.08 370.31C230.23 369.7 231.33 369.01 232.46 368.37C233.15 367.98 233.86 367.61 234.72 367.14C234.72 369.56 234.7 371.69 234.72 373.83C234.74 374.97 235.42 375.66 236.5 375.83C237.53 375.99 238.33 375.51 238.69 374.51C238.86 374.05 238.88 373.51 238.89 373.01C238.91 371.13 238.89 369.24 238.89 367.17C239.52 367.5 239.97 367.72 240.4 367.96C241.77 368.74 243.12 369.57 244.51 370.32C245.9 371.07 247.27 370.59 247.7 369.24C248.07 368.07 247.52 367.26 246.55 366.68C244.76 365.62 242.96 364.59 241 363.45C242.8 362.41 244.44 361.47 246.08 360.51C247.71 359.56 248.2 358.46 247.53 357.28C246.85 356.09 245.62 355.95 244.03 356.86C242.39 357.8 240.75 358.73 238.9 359.79L238.89 359.8Z"
                fill="white" />
            <path
                d="M117.31 345.79C117.41 345.59 117.53 345.4 117.6 345.19C118.87 341.02 122.11 338.58 126.51 338.57C134.18 338.55 141.85 338.57 149.52 338.57H151.15C151.15 337.87 151.15 337.32 151.15 336.78C151.15 326.04 151.15 315.31 151.15 304.57C151.15 300.14 153.45 297.61 158.03 297.2C158.03 296.74 158.03 296.25 158.03 295.77C158.11 290.94 157.87 286.08 158.33 281.29C159.57 268.3 169.78 257.39 182.68 254.87C201.81 251.13 219.31 265.49 219.39 285C219.41 289.04 219.39 293.07 219.39 297.18C219.97 297.25 220.47 297.28 220.96 297.38C224.01 298 226.09 300.45 226.25 303.7C226.33 305.28 226.3 306.86 226.26 308.44C226.22 309.93 225.35 310.89 224.13 310.86C222.9 310.84 222.12 309.91 222.09 308.37C222.07 306.98 222.11 305.58 222.07 304.19C222.02 302.3 221.18 301.46 219.32 301.46C198.92 301.46 178.51 301.46 158.11 301.46C156.28 301.46 155.36 302.27 155.36 304.05C155.33 315.34 155.35 326.64 155.36 337.93C155.36 338.11 155.43 338.28 155.48 338.51H179.19C179.56 335.35 179.94 332.19 180.27 329.03C180.31 328.66 180.03 328.25 179.86 327.88C178.2 324.17 178.44 320.6 180.95 317.38C183.47 314.15 186.91 312.96 190.87 313.83C194.78 314.69 197.29 317.24 198.29 321.14C198.89 323.47 198.58 325.73 197.56 327.93C197.31 328.48 197.2 329.17 197.25 329.77C197.53 332.67 197.88 335.57 198.22 338.52H222.01C222.03 338.03 222.08 337.54 222.08 337.05C222.08 331.24 222.08 325.43 222.08 319.62C222.08 319.11 222.06 318.59 222.16 318.09C222.36 317.11 223.04 316.39 224 316.56C224.75 316.69 225.53 317.26 226.04 317.86C226.36 318.23 226.26 319.01 226.26 319.61C226.27 325.37 226.26 331.14 226.26 336.9C226.26 337.4 226.26 337.91 226.26 338.58H227.86C235.44 338.58 243.01 338.58 250.59 338.58C256.38 338.58 260.09 342.3 260.09 348.08C260.09 357.56 260.09 367.04 260.09 376.52C260.09 382.33 256.43 386.01 250.6 386.01C217.46 386.02 184.32 386.01 151.18 386.01C150.81 386.01 150.43 386.02 150.07 385.96C149.01 385.78 148.27 385.05 148.39 384.07C148.48 383.34 149.1 382.51 149.72 382.05C150.2 381.7 151.06 381.81 151.74 381.81C184.55 381.81 217.37 381.76 250.18 381.85C254.11 381.86 256 379.44 255.95 376.05C255.81 366.76 255.9 357.46 255.9 348.16C255.9 344.57 254.09 342.74 250.51 342.74C209.28 342.74 168.06 342.74 126.83 342.74C123.32 342.74 121.48 344.57 121.48 348.05C121.48 357.53 121.48 367.01 121.48 376.49C121.48 380.01 123.28 381.79 126.81 381.79C131.09 381.79 135.36 381.79 139.64 381.79C140.1 381.79 140.58 381.77 141.02 381.88C142.16 382.16 142.79 382.91 142.68 384.11C142.58 385.23 141.89 385.95 140.77 385.95C135.47 385.97 130.16 386.16 124.88 385.83C121.43 385.62 119.07 383.37 117.81 380.09C117.63 379.62 117.46 379.15 117.29 378.68C117.29 367.71 117.29 356.74 117.29 345.77L117.31 345.79ZM162.16 297.14H171.74C171.74 292.89 171.68 288.75 171.75 284.62C171.9 276.05 178.5 268.93 187.05 268.03C195.41 267.15 203.27 272.76 205.17 281.06C205.54 282.67 205.64 284.37 205.67 286.03C205.74 289.73 205.69 293.43 205.69 297.16H214.97C214.97 291.92 215.39 286.73 214.89 281.63C213.69 269.37 203.49 259.64 191.22 258.53C178.64 257.39 166.91 265.29 163.34 277.28C161.4 283.8 162.57 290.47 162.16 297.14ZM201.46 297.2C201.46 292.72 201.67 288.39 201.41 284.09C201.02 277.47 195.64 272.37 189.25 272.18C182.54 271.98 176.85 276.59 176.14 283.31C175.69 287.54 175.96 291.85 175.92 296.12C175.92 296.47 175.99 296.83 176.03 297.2H201.46ZM194 338.51C193.82 336.98 193.65 335.6 193.49 334.22C193.33 332.84 193.26 331.44 193.03 330.07C192.8 328.68 192.99 327.44 193.66 326.19C195.02 323.65 194.43 320.77 192.3 319.03C190.2 317.31 187.21 317.32 185.12 319.04C182.97 320.81 182.39 323.65 183.75 326.2C184.42 327.46 184.57 328.69 184.38 330.08C184 332.86 183.75 335.65 183.43 338.51H194Z"
                fill="white" />
            <path
                d="M202.65 367.11C200.68 368.24 198.96 369.32 197.15 370.22C196.51 370.54 195.56 370.68 194.94 370.43C194.4 370.21 193.81 369.33 193.81 368.74C193.81 368.09 194.29 367.19 194.84 366.82C196.61 365.63 198.5 364.64 200.54 363.46C198.53 362.29 196.66 361.23 194.8 360.12C193.85 359.55 193.35 358.59 193.88 357.64C194.24 356.99 195.13 356.52 195.88 356.26C196.28 356.12 196.92 356.55 197.4 356.81C199.09 357.75 200.76 358.73 202.64 359.81C202.64 358.2 202.64 356.83 202.64 355.46C202.64 352.06 203.1 351.07 204.7 351.05C206.34 351.03 206.83 352.06 206.83 355.54V359.8C208.68 358.74 210.34 357.76 212.03 356.84C212.55 356.56 213.25 356.11 213.67 356.27C214.41 356.54 215.25 357.08 215.61 357.74C216.1 358.65 215.56 359.56 214.69 360.1C213.23 361 211.73 361.84 210.25 362.7C209.86 362.93 209.48 363.17 208.99 363.48C210.85 364.56 212.58 365.54 214.3 366.56C215.72 367.4 216.14 368.53 215.48 369.65C214.82 370.77 213.61 370.98 212.2 370.17C210.48 369.2 208.77 368.2 206.85 367.09C206.85 369.47 206.89 371.59 206.84 373.71C206.81 375 205.9 375.87 204.75 375.87C203.6 375.87 202.75 374.98 202.68 373.7C202.65 373.19 202.68 372.68 202.68 372.17C202.68 370.56 202.68 368.96 202.68 367.1L202.65 367.11Z"
                fill="white" />
            <path
                d="M170.59 359.8C170.59 357.56 170.58 355.56 170.59 353.56C170.6 352.02 171.37 351.11 172.63 351.08C173.95 351.04 174.76 351.97 174.77 353.59C174.78 355.58 174.77 357.58 174.77 359.85C176.68 358.75 178.43 357.75 180.17 356.73C181.08 356.2 181.99 356 182.89 356.68C184.08 357.58 183.95 359.31 182.55 360.17C180.74 361.29 178.88 362.32 176.9 363.48C178.75 364.55 180.47 365.54 182.17 366.54C183.63 367.4 184.06 368.48 183.43 369.61C182.77 370.8 181.54 371 180.05 370.15C178.37 369.19 176.69 368.22 174.75 367.11C174.75 369.4 174.77 371.46 174.75 373.52C174.73 374.99 173.84 375.94 172.6 375.89C171.41 375.84 170.6 374.93 170.58 373.52C170.55 371.48 170.58 369.44 170.58 367.15C169.15 367.96 167.88 368.69 166.62 369.41C166.1 369.71 165.58 370.03 165.05 370.31C163.73 371 162.53 370.73 161.92 369.61C161.33 368.55 161.71 367.45 162.96 366.7C164.71 365.66 166.49 364.65 168.5 363.48C167.01 362.62 165.68 361.86 164.35 361.09C163.87 360.81 163.38 360.55 162.91 360.25C161.69 359.48 161.33 358.37 161.94 357.31C162.54 356.25 163.71 355.95 164.95 356.62C166.38 357.39 167.77 358.23 169.18 359.04C169.57 359.26 169.97 359.48 170.59 359.81V359.8Z"
                fill="white" />
            <path
                d="M142.73 367.1C142.73 369.39 142.74 371.38 142.73 373.37C142.72 374.91 141.95 375.84 140.73 375.89C139.45 375.93 138.58 374.95 138.56 373.37C138.54 371.38 138.56 369.39 138.56 367.13C137.07 367.98 135.77 368.74 134.46 369.48C133.9 369.8 133.35 370.16 132.76 370.43C131.58 370.98 130.44 370.61 129.89 369.57C129.37 368.58 129.66 367.49 130.75 366.81C132.17 365.93 133.64 365.13 135.08 364.29C135.48 364.06 135.87 363.81 136.47 363.45C134.55 362.34 132.76 361.32 130.97 360.28C129.95 359.68 129.35 358.86 129.79 357.63C130.26 356.3 131.6 355.87 133 356.64C134.78 357.62 136.54 358.66 138.57 359.82C138.57 358.03 138.57 356.44 138.57 354.85C138.57 354.29 138.54 353.73 138.59 353.18C138.7 351.87 139.55 351.06 140.73 351.08C141.91 351.1 142.72 351.94 142.74 353.28C142.78 355.37 142.74 357.46 142.74 359.81C143.89 359.17 144.88 358.62 145.86 358.06C146.79 357.53 147.69 356.95 148.64 356.48C149.73 355.94 150.86 356.32 151.41 357.29C151.96 358.27 151.71 359.42 150.67 360.08C149.3 360.95 147.87 361.73 146.47 362.55C145.99 362.83 145.52 363.12 144.9 363.49C146.74 364.55 148.46 365.53 150.16 366.53C151.66 367.41 152.09 368.58 151.37 369.73C150.69 370.82 149.51 370.98 148.07 370.16C146.38 369.2 144.7 368.23 142.75 367.11L142.73 367.1Z"
                fill="white" />
            <path
                d="M238.88 359.81C240.73 358.75 242.37 357.82 244.01 356.88C245.61 355.97 246.84 356.11 247.51 357.3C248.18 358.48 247.69 359.58 246.06 360.53C244.42 361.48 242.78 362.43 240.98 363.47C242.94 364.61 244.74 365.64 246.53 366.7C247.5 367.27 248.05 368.08 247.68 369.26C247.25 370.61 245.89 371.09 244.49 370.34C243.1 369.59 241.75 368.77 240.38 367.98C239.95 367.73 239.5 367.52 238.87 367.19C238.87 369.26 238.88 371.15 238.87 373.03C238.87 373.53 238.84 374.07 238.67 374.53C238.31 375.53 237.51 376.01 236.48 375.85C235.4 375.68 234.72 374.99 234.7 373.85C234.67 371.71 234.7 369.58 234.7 367.16C233.84 367.63 233.13 368 232.44 368.39C231.31 369.03 230.2 369.71 229.06 370.33C227.81 371 226.63 370.71 226.03 369.66C225.42 368.6 225.78 367.45 226.99 366.72C228.78 365.65 230.6 364.62 232.57 363.48C230.73 362.41 229.01 361.42 227.3 360.42C225.79 359.54 225.35 358.41 226.06 357.24C226.72 356.14 227.91 355.96 229.34 356.77C231.06 357.74 232.77 358.73 234.69 359.84C234.69 357.6 234.68 355.62 234.69 353.64C234.7 351.99 235.46 351.07 236.77 351.08C238.08 351.08 238.85 352.01 238.87 353.66C238.89 355.64 238.87 357.61 238.87 359.82L238.88 359.81Z"
                fill="white" />
            <path
                d="M428.57 203.48C404.15 177.25 389.46 161.49 384.5 156.2C372.88 143.42 361.32 133.7 349.81 127.06C315.65 107.32 271.21 105.67 216.49 122.11C189.61 130.29 164.35 140.87 140.69 153.82C123.52 163.28 99.4598 178.89 68.5098 200.65C95.1298 182.98 125.1 169.46 158.41 160.08C193 150.64 220.7 145.26 241.53 143.94C262.29 142.73 286.86 144.84 315.24 150.27C343.74 155.76 367.24 168.87 385.75 189.58C404.49 210.43 425.65 228.52 449.23 243.84C472.74 259.28 499.59 269.22 529.78 273.64C560.09 278.13 588.28 276.99 614.36 270.23C608.85 267.59 599.83 265.77 587.32 264.78C574.74 263.91 551.26 260 516.89 253.06C482.45 246.24 453.02 229.71 428.59 203.48"
                fill="#30B9B5" />
            <path
                d="M8.72 271.05C1.97 276.11 -1.6 280.79 -2 285.08L50.54 252.38C66.39 242.49 78.06 235.61 85.54 231.73C112.2 218.13 141.55 209.56 173.6 206C203.81 202.66 234.62 203.93 266.01 209.81C320.61 220.07 377.08 243.99 435.42 281.57C457.81 296.23 469.31 303.72 469.9 304.06C483.26 312.38 495.35 318.81 506.17 323.36C525.26 331.18 547.59 336.3 573.14 338.73C583.28 339.78 592.02 339.34 599.34 337.4C608.74 335.08 615.05 330.39 618.26 323.32C580.55 328.35 537.78 318.77 489.95 294.59C477.88 288.4 458.58 277.36 432.06 261.46C407.36 246.75 387.93 235.94 373.77 229.04C332.23 208.87 289.15 196.94 244.54 193.25C197.81 189.45 153.94 195.21 112.93 210.51C80.69 222.68 45.97 242.85 8.74 271.03"
                fill="#30B9B5" />
            <path
                d="M175.96 82C173.54 84.42 172.34 87.35 172.34 90.8C172.34 94.25 173.55 97.18 175.96 99.6C178.37 102.02 181.31 103.22 184.76 103.22C188.21 103.22 191.14 102.01 193.56 99.6C195.98 97.18 197.18 94.25 197.18 90.8C197.18 87.35 195.97 84.42 193.56 82C191.15 79.58 188.21 78.38 184.76 78.38C181.31 78.38 178.38 79.59 175.96 82Z"
                fill="#30B9B5" />
            <path
                d="M267.79 50C261.8 50.15 256.75 52.27 252.66 56.36C248.57 60.45 246.45 65.5 246.3 71.49C246.45 77.48 248.57 82.53 252.66 86.62C256.9 90.86 261.94 92.98 267.79 92.98C273.78 92.83 278.83 90.71 282.92 86.62C287.01 82.53 289.13 77.48 289.28 71.49C289.28 65.64 287.16 60.6 282.92 56.36C278.83 52.27 273.78 50.15 267.79 50"
                fill="#30B9B5" />
        </g>
    </g>
    <defs>
        <clipPath id="clip0_2_4145">
            <rect width="620.24" height="336.03" fill="white" transform="translate(-2 50)" />
        </clipPath>
    </defs>
</svg>
    