<svg width="20" height="20" viewBox="0 0 20 20" fill="none" xmlns="http://www.w3.org/2000/svg">
<path d="M10.1364 18.1947C14.5873 18.1947 18.1955 14.5866 18.1955 10.1357C18.1955 5.68474 14.5873 2.07656 10.1364 2.07656C5.68545 2.07656 2.07727 5.68474 2.07727 10.1357C2.07727 14.5866 5.68545 18.1947 10.1364 18.1947Z" stroke="#8C8C8C" stroke-width="1.3" stroke-linecap="round" stroke-linejoin="round"/>
<path d="M2.72727 10.1348H17.5455" stroke="#8C8C8C" stroke-width="1.3" stroke-linecap="round" stroke-linejoin="round"/>
<path d="M10.6164 2.28819C10.4932 2.15337 10.319 2.07656 10.1364 2.07656C9.95385 2.07656 9.77967 2.15337 9.65652 2.28819C7.69704 4.43339 6.58347 7.21732 6.52295 10.1221C6.52276 10.1311 6.52276 10.1402 6.52295 10.1492C6.58347 13.054 7.69704 15.8379 9.65652 17.9831C9.77967 18.1179 9.95385 18.1947 10.1364 18.1947C10.319 18.1947 10.4932 18.1179 10.6164 17.9831C12.5759 15.8379 13.6894 13.054 13.7499 10.1492C13.7501 10.1402 13.7501 10.1311 13.7499 10.1221C13.6894 7.21732 12.5759 4.43339 10.6164 2.28819Z" stroke="#8C8C8C" stroke-width="1.3" stroke-linecap="round" stroke-linejoin="round"/>
</svg>
