<svg width="25" height="24" viewBox="0 0 25 24" fill="none" xmlns="http://www.w3.org/2000/svg">
    <path
        d="M5.7243 14.5L4.88429 17.62L1.8343 17.68C0.924305 15.99 0.404297 14.05 0.404297 11.99C0.404297 9.92999 0.884293 8.12003 1.74429 6.47003L4.46429 6.97003L5.6543 9.67004C5.4043 10.4 5.2643 11.18 5.2643 11.99C5.2643 12.87 5.42429 13.71 5.71429 14.49"
        fill="white" />
    <path
        d="M24.1943 9.76001C24.3343 10.49 24.4043 11.24 24.4043 12C24.4043 12.86 24.3143 13.7 24.1443 14.51C23.5643 17.26 22.0343 19.66 19.9243 21.36L16.5043 21.18L16.0143 18.16C17.4143 17.34 18.5143 16.05 19.0943 14.51H12.6743V9.76001H24.2043H24.1943Z"
        fill="white" />
    <path
        d="M19.9142 21.36C17.8542 23.01 15.2442 24 12.4042 24C7.83422 24 3.86423 21.45 1.83423 17.69L5.72423 14.51C6.73423 17.21 9.34422 19.14 12.4042 19.14C13.7142 19.14 14.9542 18.79 16.0042 18.16L19.9142 21.36Z"
        fill="white" />
    <path
        d="M20.0641 2.76001L16.1741 5.94C15.0841 5.26 13.7841 4.85999 12.4041 4.85999C9.27414 4.85999 6.62414 6.86999 5.65414 9.67999L1.74414 6.48004C3.74414 2.63004 7.76414 0 12.4041 0C15.3141 0 17.9841 1.04001 20.0641 2.76001Z"
        fill="white" />
</svg>
    