<svg xmlns="http://www.w3.org/2000/svg" width="266.449" height="83.95" viewBox="0 0 266.449 83.95">
  <g id="Group_1801" data-name="Group 1801" transform="translate(-57.638 -191.904)">
    <g id="Group_1800" data-name="Group 1800" transform="translate(57.638 191.904)">
      <path id="Path_1148" data-name="Path 1148" d="M595.167,290.195l16.955,17,16.955-17v34.389h-7.663V307.917l-9.292,9.291-9.292-9.291v16.668h-7.663Z" transform="translate(-398.278 -254.192)" fill="#030504"/>
      <path id="Path_1149" data-name="Path 1149" d="M730.139,291.241h-9.475l-6.4,9.753-6.4-9.753h-9.476l11.138,16.972-11.138,16.97h9.476l6.4-9.752,6.4,9.752h9.475L719,308.212Z" transform="translate(-463.691 -254.855)" fill="#030504"/>
      <rect id="Rectangle_2339" data-name="Rectangle 2339" width="7.466" height="23.553" transform="translate(83.446 46.744)" fill="#030504"/>
      <path id="Path_1150" data-name="Path 1150" d="M316.42,328.009a12.894,12.894,0,0,1,23.683-6.923l-5.933,4.2a5.508,5.508,0,0,0-4.894-3.065c-3.066,0-5.341,2.374-5.341,5.785s2.275,5.785,5.341,5.785a5.508,5.508,0,0,0,4.894-3.065l5.933,4.2a12.894,12.894,0,0,1-23.683-6.922" transform="translate(-221.632 -270.071)" fill="#030504"/>
      <path id="Path_1151" data-name="Path 1151" d="M457.2,328.009c0-7.268,5.142-12.756,12.756-12.756,6.28,0,11.916,4.1,11.916,11.916a16.566,16.566,0,0,1-.148,2.175H464.374a5.156,5.156,0,0,0,5.389,4.6,5.662,5.662,0,0,0,5.291-3.116l5.932,4.006a13,13,0,0,1-11.174,5.932A12.594,12.594,0,0,1,457.2,328.009m7.219-3.016H474.51c-.4-2.62-2.571-3.757-4.995-3.757a4.933,4.933,0,0,0-5.092,3.757" transform="translate(-310.849 -270.072)" fill="#030504"/>
      <path id="Path_1152" data-name="Path 1152" d="M536.014,300.335V291.1l7.466-.015v9.247h6.9l.052,6.527H543.48v8.455c0,2.076.841,2.917,2.868,2.917H550.4v6.823h-6.823c-4.648,0-7.565-2.917-7.565-7.614V300.335Z" transform="translate(-360.792 -254.758)" fill="#030504"/>
      <path id="Path_1153" data-name="Path 1153" d="M229.342,297.548v-3.461a1,1,0,0,1,.281-.7l6.266-6.533a.534.534,0,0,1,.92.37v10.322h6.9l.051,6.527h-6.95v8.455c0,2.076.841,2.917,2.868,2.917h4.054v6.823h-6.823c-4.648,0-7.565-2.917-7.565-7.614V297.548Z" transform="translate(-166.449 -251.972)" fill="#030504"/>
      <rect id="Rectangle_2340" data-name="Rectangle 2340" width="7.467" height="33.969" transform="translate(121.828 36.329)" fill="#030504"/>
      <path id="Path_1154" data-name="Path 1154" d="M426.726,316.469h-8.865l-9.094,12.36,9.094,12.361h8.865l-9.094-12.361Z" transform="translate(-280.154 -270.842)" fill="#030504"/>
      <path id="Path_1155" data-name="Path 1155" d="M292.494,295.213a4.26,4.26,0,1,0-6.6,3.556h4.683a4.25,4.25,0,0,0,1.918-3.556" transform="translate(-201.071 -254.673)" fill="#030504"/>
      <g id="Group_1791" data-name="Group 1791" transform="translate(0 20.737)">
        <g id="Group_1790" data-name="Group 1790">
          <path id="Path_1156" data-name="Path 1156" d="M82.125,277.144H60.577a2,2,0,0,1-1.413-3.411l22.962-22.962ZM80.759,254.07,60.13,274.7a.632.632,0,0,0,.447,1.078H80.759Z" transform="translate(-58.231 -249.946)" fill="#030504"/>
          <path id="Path_1157" data-name="Path 1157" d="M81.874,276.058H59.984a2.34,2.34,0,0,1-1.655-3.994l23.545-23.545Zm-.683-25.89L58.812,272.547a1.657,1.657,0,0,0,1.172,2.828H81.19Zm-.683,24.523H59.984a.973.973,0,0,1-.689-1.661l21.212-21.212Zm-.683-21.223L59.779,273.514a.271.271,0,0,0-.063.313.273.273,0,0,0,.268.182h19.84Z" transform="translate(-57.638 -248.519)" fill="#030504"/>
        </g>
      </g>
      <g id="Group_1793" data-name="Group 1793" transform="translate(22.187 46.227)">
        <g id="Group_1792" data-name="Group 1792">
          <path id="Path_1158" data-name="Path 1158" d="M121.153,342.592a2.027,2.027,0,0,1-.776-.157,1.967,1.967,0,0,1-1.233-1.847V319.04h26.372L122.553,342A1.971,1.971,0,0,1,121.153,342.592Zm-.642-22.185v20.182a.63.63,0,0,0,1.076.446l20.63-20.628Z" transform="translate(-118.802 -318.699)" fill="#030504"/>
          <path id="Path_1159" data-name="Path 1159" d="M120.562,342.344a2.364,2.364,0,0,1-.907-.183A2.305,2.305,0,0,1,118.211,340v-21.89H145.75L122.2,341.653A2.316,2.316,0,0,1,120.562,342.344Zm-1.667-23.552V340a1.655,1.655,0,0,0,2.826,1.171l22.38-22.379Zm1.663,22.181a1,1,0,0,1-.377-.074.96.96,0,0,1-.6-.9V319.475H142.45l-21.213,21.212A.945.945,0,0,1,120.558,340.972Zm-.3-20.814V340a.273.273,0,0,0,.179.268.281.281,0,0,0,.314-.063L140.8,320.158Z" transform="translate(-118.211 -318.108)" fill="#030504"/>
        </g>
      </g>
      <g id="Group_1796" data-name="Group 1796" transform="translate(21.763)">
        <g id="Group_1795" data-name="Group 1795">
          <g id="Group_1794" data-name="Group 1794">
            <path id="Path_1160" data-name="Path 1160" d="M144.061,239.561l-.955.882-24.734-24.734,22.278-22.279a2,2,0,0,1,3.41,1.412ZM120.3,215.708l22.389,22.39V194.842a.631.631,0,0,0-1.077-.446Z" transform="translate(-117.889 -192.496)" fill="#030504"/>
            <path id="Path_1161" data-name="Path 1161" d="M142.261,240.324l-25.208-25.208,22.52-22.52a2.339,2.339,0,0,1,3.994,1.654v44.868Zm-24.242-25.208,24.261,24.261.6-.558V194.249a1.656,1.656,0,0,0-2.827-1.171Zm24.18,23.215-23.214-23.215,21.554-21.554a.949.949,0,0,1,1.063-.21.959.959,0,0,1,.6.9Zm-22.248-23.215,21.564,21.565V194.249a.289.289,0,0,0-.494-.205Z" transform="translate(-117.053 -191.904)" fill="#030504"/>
          </g>
        </g>
      </g>
      <g id="Group_1798" data-name="Group 1798" transform="translate(46.226 22.187)">
        <g id="Group_1797" data-name="Group 1797">
          <path id="Path_1162" data-name="Path 1162" d="M184.773,279.783V253.41h21.55a2,2,0,0,1,1.412,3.411Zm1.367-25.006v21.706l20.628-20.628a.631.631,0,0,0-.446-1.078Z" transform="translate(-184.431 -253.068)" fill="#030504"/>
          <path id="Path_1163" data-name="Path 1163" d="M183.84,280.016V252.477h21.891a2.34,2.34,0,0,1,1.654,3.994Zm.683-26.856v25.206L206.9,255.988a1.656,1.656,0,0,0-1.171-2.827Zm.684,23.556V253.844h20.524a.973.973,0,0,1,.688,1.661Zm.683-22.19v20.54l20.045-20.045A.276.276,0,0,0,206,254.7a.272.272,0,0,0-.267-.177Z" transform="translate(-183.84 -252.477)" fill="#030504"/>
        </g>
      </g>
      <g id="Group_1799" data-name="Group 1799" transform="translate(225.518 74.476)">
        <path id="Path_1164" data-name="Path 1164" d="M676.717,413.658a1.983,1.983,0,0,1-3.388-1.4,1.89,1.89,0,0,1,.588-1.414,2,2,0,0,1,2.791,0,1.89,1.89,0,0,1,.588,1.414A1.913,1.913,0,0,1,676.717,413.658Z" transform="translate(-673.329 -404.761)" fill="#030504"/>
        <path id="Path_1165" data-name="Path 1165" d="M691.638,404.706a4.616,4.616,0,0,1-3.378-1.386,4.721,4.721,0,0,1,0-6.7,4.618,4.618,0,0,1,3.378-1.386,4.787,4.787,0,0,1,4.021,2.167l-2.2,1.561a1.973,1.973,0,0,0-1.818-1.138,1.853,1.853,0,0,0-1.423.606,2.405,2.405,0,0,0,0,3.085,1.852,1.852,0,0,0,1.423.606,1.972,1.972,0,0,0,1.818-1.138l2.2,1.561a4.787,4.787,0,0,1-4.021,2.167Z" transform="translate(-681.906 -395.231)" fill="#030504"/>
        <path id="Path_1166" data-name="Path 1166" d="M721.233,403.32a4.81,4.81,0,0,1-6.757,0,4.721,4.721,0,0,1,0-6.7,4.81,4.81,0,0,1,6.757,0,4.721,4.721,0,0,1,0,6.7Zm-4.8-1.809a1.974,1.974,0,0,0,2.846,0,2.4,2.4,0,0,0,0-3.085,1.973,1.973,0,0,0-2.846,0,2.405,2.405,0,0,0,0,3.085Z" transform="translate(-698.52 -395.231)" fill="#030504"/>
        <path id="Path_1167" data-name="Path 1167" d="M749.456,404.559v-4.627q0-2.148-1.45-2.148a1.863,1.863,0,0,0-1.524.734v6.041h-2.772v-9.181h2.772v.551a3.271,3.271,0,0,1,2.093-.7,3.386,3.386,0,0,1,2.607,1.12,3.973,3.973,0,0,1,2.938-1.12,3.519,3.519,0,0,1,2.9,1.175,4.653,4.653,0,0,1,.955,3.03v5.123H755.2v-4.627q0-2.148-1.451-2.148a1.9,1.9,0,0,0-1.579.789,6.415,6.415,0,0,1,.055.863v5.123Z" transform="translate(-717.93 -395.231)" fill="#030504"/>
      </g>
    </g>
  </g>
</svg>
