<svg width="24" height="24" viewBox="0 0 24 24" fill="none" xmlns="http://www.w3.org/2000/svg">
<path d="M16.1827 12.0405C17.502 12.0405 18.7674 12.5646 19.7003 13.4976C20.6333 14.4305 21.1574 15.6959 21.1574 17.0152C21.1574 18.3346 20.6333 19.6 19.7003 20.5329C18.7674 21.4659 17.502 21.99 16.1827 21.99C14.8633 21.99 13.5979 21.4659 12.665 20.5329C11.732 19.6 11.2079 18.3346 11.2079 17.0152C11.2079 15.6959 11.732 14.4305 12.665 13.4976C13.5979 12.5646 14.8633 12.0405 16.1827 12.0405ZM13.7893 16.696C13.7476 16.6528 13.6977 16.6183 13.6425 16.5946C13.5874 16.5709 13.528 16.5584 13.468 16.5579C13.4079 16.5574 13.3484 16.5688 13.2928 16.5916C13.2372 16.6143 13.1867 16.6479 13.1443 16.6903C13.1018 16.7328 13.0682 16.7833 13.0455 16.8389C13.0227 16.8945 13.0113 16.954 13.0118 17.0141C13.0123 17.0741 13.0248 17.1335 13.0485 17.1886C13.0722 17.2438 13.1067 17.2937 13.1499 17.3354L14.9589 19.1444C15.0437 19.2292 15.1587 19.2769 15.2786 19.2769C15.3985 19.2769 15.5135 19.2292 15.5983 19.1444L19.2164 15.5264C19.2595 15.4847 19.294 15.4348 19.3177 15.3796C19.3414 15.3245 19.3539 15.2651 19.3544 15.2051C19.3549 15.145 19.3435 15.0855 19.3207 15.0299C19.298 14.9743 19.2644 14.9238 19.222 14.8813C19.1795 14.8389 19.129 14.8053 19.0734 14.7826C19.0178 14.7598 18.9583 14.7484 18.8982 14.7489C18.8382 14.7494 18.7788 14.7619 18.7237 14.7856C18.6685 14.8093 18.6186 14.8438 18.5769 14.887L15.2782 18.1848L13.7893 16.696ZM11.2287 13.8495C10.9576 14.2723 10.7421 14.7283 10.5874 15.2062H4.20073C4.11161 15.2061 4.02334 15.2236 3.94098 15.2576C3.85862 15.2917 3.78379 15.3417 3.72078 15.4047C3.65776 15.4677 3.6078 15.5425 3.57375 15.6249C3.5397 15.7072 3.52223 15.7955 3.52235 15.8846V16.4065C3.52235 16.8904 3.69602 17.359 4.01078 17.7271C5.14412 19.0558 6.92328 19.7297 9.3989 19.7297C9.93888 19.7297 10.4454 19.698 10.9185 19.6338C11.141 20.0815 11.4186 20.4967 11.7434 20.8702C11.0243 21.0149 10.2419 21.0873 9.3989 21.0873C6.55333 21.0873 4.39519 20.2678 2.97875 18.609C2.45448 17.9949 2.16648 17.2139 2.1665 16.4065V15.8837C2.1665 15.3442 2.38082 14.8268 2.76231 14.4453C3.1438 14.0638 3.66122 13.8495 4.20073 13.8495H11.2287ZM9.3989 3C9.9928 3 10.5809 3.11698 11.1296 3.34426C11.6783 3.57153 12.1768 3.90466 12.5968 4.32461C13.0167 4.74456 13.3499 5.24312 13.5771 5.79182C13.8044 6.34051 13.9214 6.9286 13.9214 7.52251C13.9214 8.11641 13.8044 8.7045 13.5771 9.25319C13.3499 9.80189 13.0167 10.3004 12.5968 10.7204C12.1768 11.1404 11.6783 11.4735 11.1296 11.7008C10.5809 11.928 9.9928 12.045 9.3989 12.045C8.19945 12.045 7.04914 11.5685 6.201 10.7204C5.35287 9.87227 4.87639 8.72195 4.87639 7.52251C4.87639 6.32306 5.35287 5.17275 6.201 4.32461C7.04914 3.47648 8.19945 3 9.3989 3ZM9.3989 4.35675C8.98316 4.35675 8.5715 4.43864 8.18741 4.59773C7.80333 4.75682 7.45434 4.99001 7.16037 5.28398C6.8664 5.57795 6.63321 5.92694 6.47412 6.31102C6.31503 6.69511 6.23314 7.10677 6.23314 7.52251C6.23314 7.93824 6.31503 8.3499 6.47412 8.73399C6.63321 9.11807 6.8664 9.46706 7.16037 9.76103C7.45434 10.055 7.80333 10.2882 8.18741 10.4473C8.5715 10.6064 8.98316 10.6883 9.3989 10.6883C10.2385 10.6883 11.0437 10.3547 11.6374 9.76103C12.2311 9.16734 12.5646 8.36212 12.5646 7.52251C12.5646 6.6829 12.2311 5.87767 11.6374 5.28398C11.0437 4.69029 10.2385 4.35675 9.3989 4.35675Z" fill="#181B28" fill-opacity="0.7"/>
</svg>
