<svg width="24" height="24" viewBox="0 0 24 24" fill="none" xmlns="http://www.w3.org/2000/svg">
<g clip-path="url(#clip0_0_114)">
<path d="M10.8167 4.48333C10.8167 3.5595 10.4497 2.6735 9.79642 2.02024C9.14317 1.36699 8.25717 1 7.33333 1C6.4095 1 5.5235 1.36699 4.87024 2.02024C4.21699 2.6735 3.85 3.5595 3.85 4.48333C3.85 5.40717 4.21699 6.29317 4.87024 6.94642C5.5235 7.59967 6.4095 7.96667 7.33333 7.96667C8.25717 7.96667 9.14317 7.59967 9.79642 6.94642C10.4497 6.29317 10.8167 5.40717 10.8167 4.48333ZM5.11667 4.48333C5.11667 4.19224 5.174 3.90399 5.2854 3.63505C5.3968 3.36611 5.56008 3.12175 5.76591 2.91591C5.97175 2.71008 6.21611 2.5468 6.48505 2.4354C6.75399 2.324 7.04224 2.26667 7.33333 2.26667C7.62443 2.26667 7.91268 2.324 8.18161 2.4354C8.45055 2.5468 8.69492 2.71008 8.90075 2.91591C9.10659 3.12175 9.26987 3.36611 9.38127 3.63505C9.49266 3.90399 9.55 4.19224 9.55 4.48333C9.55 5.07123 9.31646 5.63505 8.90075 6.05075C8.48505 6.46646 7.92123 6.7 7.33333 6.7C6.74544 6.7 6.18162 6.46646 5.76591 6.05075C5.35021 5.63505 5.11667 5.07123 5.11667 4.48333ZM2.9 9.23333H8.19847C7.99073 9.626 7.8362 10.0516 7.745 10.5H2.9C2.73203 10.5 2.57094 10.5667 2.45217 10.6855C2.33339 10.8043 2.26667 10.9654 2.26667 11.1333V11.7667C2.26667 13.3627 3.65873 15.0777 6.18827 15.478C5.7804 15.7567 5.44093 16.1278 5.199 16.5597C2.52633 15.8365 1 13.7769 1 11.7667V11.1333C1 10.6294 1.20018 10.1461 1.5565 9.78983C1.91282 9.43351 2.39609 9.23333 2.9 9.23333ZM9.7134 9.23333C10.3518 8.46067 11.3183 7.96667 12.4 7.96667C13.1586 7.96534 13.8967 8.21222 14.5019 8.66962C15.107 9.12703 15.5459 9.76985 15.7516 10.5C15.9349 11.1517 15.9246 11.8427 15.7219 12.4886C15.5191 13.1345 15.1328 13.7075 14.6099 14.1375C14.0871 14.5676 13.4503 14.8361 12.7774 14.9104C12.1045 14.9847 11.4245 14.8615 10.8205 14.5559C10.3554 14.3192 9.9494 13.981 9.63256 13.5663C9.31572 13.1516 9.09611 12.671 8.98995 12.16C8.88379 11.6491 8.8938 11.1208 9.01924 10.6142C9.14468 10.1076 9.38108 9.63572 9.7134 9.23333ZM10.3974 10.5C10.2726 10.7632 10.2009 11.0483 10.1864 11.3392C10.1718 11.63 10.2147 11.9209 10.3126 12.1952C10.4104 12.4695 10.5614 12.7218 10.7567 12.9378C10.9521 13.1537 11.1881 13.3291 11.4513 13.4539C11.7144 13.5786 11.9996 13.6503 12.2904 13.6649C12.5813 13.6794 12.8722 13.6366 13.1465 13.5387C13.4208 13.4408 13.6731 13.2899 13.889 13.0945C14.105 12.8992 14.2804 12.6632 14.4051 12.4C14.6571 11.8684 14.6875 11.2584 14.4898 10.7044C14.292 10.1503 13.8823 9.69746 13.3506 9.4455C12.819 9.19354 12.2091 9.1631 11.655 9.36085C11.1009 9.55861 10.6494 9.96837 10.3974 10.5ZM19.601 16.5597C19.3597 16.1276 19.021 15.7576 18.6117 15.4793C21.14 15.0777 22.5333 13.3614 22.5333 11.7667V11.1333C22.5333 10.9654 22.4666 10.8043 22.3478 10.6855C22.2291 10.5667 22.068 10.5 21.9 10.5H17.055C16.9655 10.0584 16.8132 9.6318 16.6028 9.23333H21.9C22.4039 9.23333 22.8872 9.43351 23.2435 9.78983C23.5998 10.1461 23.8 10.6294 23.8 11.1333V11.7667C23.8 13.7769 22.2724 15.8352 19.601 16.5597ZM18.0835 16.6699C17.7378 16.3664 17.2934 16.1994 16.8333 16.2H7.96667C7.71697 16.1993 7.4696 16.248 7.23878 16.3433C7.00796 16.4385 6.79824 16.5784 6.62167 16.755C6.44511 16.9316 6.30518 17.1413 6.20993 17.3721C6.11469 17.6029 6.066 17.8503 6.06667 18.1V18.7333C6.06667 21.2299 8.42267 23.8 12.4 23.8C16.3773 23.8 18.7333 21.2299 18.7333 18.7333V18.1C18.7333 17.53 18.4825 17.0183 18.0835 16.6687V16.6699ZM7.33333 18.1C7.33333 17.932 7.40006 17.7709 7.51883 17.6522C7.63761 17.5334 7.7987 17.4667 7.96667 17.4667H16.8333C17.0013 17.4667 17.1624 17.5334 17.2812 17.6522C17.3999 17.7709 17.4667 17.932 17.4667 18.1V18.7333C17.4667 20.5548 15.6528 22.5333 12.4 22.5333C9.1472 22.5333 7.33333 20.5548 7.33333 18.7333V18.1ZM17.4667 1C18.3905 1 19.2765 1.36699 19.9298 2.02024C20.583 2.6735 20.95 3.5595 20.95 4.48333C20.95 5.40717 20.583 6.29317 19.9298 6.94642C19.2765 7.59967 18.3905 7.96667 17.4667 7.96667C16.5428 7.96667 15.6568 7.59967 15.0036 6.94642C14.3503 6.29317 13.9833 5.40717 13.9833 4.48333C13.9833 3.5595 14.3503 2.6735 15.0036 2.02024C15.6568 1.36699 16.5428 1 17.4667 1ZM17.4667 2.26667C16.8788 2.26667 16.315 2.50021 15.8992 2.91591C15.4835 3.33162 15.25 3.89544 15.25 4.48333C15.25 5.07123 15.4835 5.63505 15.8992 6.05075C16.315 6.46646 16.8788 6.7 17.4667 6.7C18.0546 6.7 18.6184 6.46646 19.0341 6.05075C19.4498 5.63505 19.6833 5.07123 19.6833 4.48333C19.6833 3.89544 19.4498 3.33162 19.0341 2.91591C18.6184 2.50021 18.0546 2.26667 17.4667 2.26667Z" fill="#1D212C" stroke="#1D212C" stroke-width="0.1"/>
</g>
<defs>
<clipPath id="clip0_0_114">
<rect width="24" height="24" fill="white"/>
</clipPath>
</defs>
</svg>
