<svg width="22" height="22" viewBox="0 0 22 22" fill="none" xmlns="http://www.w3.org/2000/svg">
<path d="M2.38558 3.3915L3.27234 2.61559C4.07992 1.808 5.44965 1.76841 6.32057 2.65517L7.80114 4.59496C8.63248 5.42629 8.63248 6.78019 7.80114 7.60361L6.62144 8.81498C7.90407 11.8236 10.2714 14.1989 13.185 15.3865L14.3964 14.2068C14.8002 13.803 15.3307 13.5813 15.9007 13.5813C16.4708 13.5813 17.0013 13.803 17.3655 14.1751L19.3765 15.727C20.2079 16.5583 20.2079 17.9122 19.3924 18.7198L18.5848 19.6461C17.7138 20.517 16.5421 21 15.2673 21C9.13128 21 1.00002 12.8608 1.00002 6.73268C1.00002 5.46588 1.48298 4.28618 2.36974 3.39942L2.38558 3.3915ZM15.2832 20.2003C16.3441 20.2003 17.318 19.8045 18.0226 19.0998L18.8302 18.1655C19.3528 17.643 19.3528 16.7958 18.8698 16.3049L16.8588 14.7531C16.6054 14.4997 16.2729 14.3572 15.9087 14.3572C15.5445 14.3572 15.2119 14.4997 14.9586 14.7531L13.5572 16.1228C13.4463 16.2337 13.288 16.2653 13.1375 16.2099C9.83594 14.951 7.15191 12.267 5.78218 8.86249C5.72676 8.71997 5.75843 8.5537 5.86928 8.43494L7.239 7.03355C7.76156 6.51099 7.76156 5.66382 7.20733 5.10168L5.72676 3.16189C5.20421 2.63934 4.35703 2.63934 3.81073 3.17773L2.92397 3.95364C2.20348 4.67413 1.8076 5.64798 1.8076 6.70893C1.8076 12.3779 9.61425 20.1845 15.2832 20.1845V20.2003Z" fill="#8C8C8C" stroke="#8C8C8C" stroke-width="0.5"/>
</svg>
