<svg width="22" height="22" viewBox="0 0 22 22" fill="none" xmlns="http://www.w3.org/2000/svg">
<ellipse cx="10.8622" cy="6.44059" rx="4.60709" ry="4.60709" stroke="#181B28" stroke-opacity="0.4" stroke-width="1.5" stroke-linecap="round" stroke-linejoin="round"/>
<path fill-rule="evenodd" clip-rule="evenodd" d="M3.55446 17.455C3.55322 17.1311 3.62565 16.8112 3.76628 16.5194C4.20757 15.6369 5.45202 15.1691 6.48464 14.9573C7.22937 14.7983 7.98438 14.6922 8.74405 14.6395C10.1505 14.516 11.5651 14.516 12.9716 14.6395C13.7312 14.6928 14.4862 14.7989 15.231 14.9573C16.2637 15.1691 17.5081 15.5927 17.9494 16.5194C18.2322 17.1142 18.2322 17.8046 17.9494 18.3993C17.5081 19.3261 16.2637 19.7497 15.231 19.9527C14.4872 20.1182 13.7319 20.2274 12.9716 20.2792C11.8269 20.3763 10.6768 20.394 9.52955 20.3322C9.26478 20.3322 9.00883 20.3322 8.74405 20.2792C7.98662 20.228 7.23423 20.1188 6.49346 19.9527C5.45202 19.7497 4.2164 19.3261 3.76628 18.3993C3.62637 18.1042 3.55401 17.7816 3.55446 17.455Z" stroke="#181B28" stroke-opacity="0.4" stroke-width="1.5" stroke-linecap="round" stroke-linejoin="round"/>
</svg>
