<svg width="41" height="17" viewBox="0 0 41 17" fill="none" xmlns="http://www.w3.org/2000/svg">
<path fill-rule="evenodd" clip-rule="evenodd" d="M18.9101 13.2053V8.25103H21.4671C22.5149 8.25103 23.3993 7.89994 24.1203 7.2075L24.2933 7.03196C25.6103 5.59833 25.5238 3.36499 24.1203 2.03864C23.4186 1.33645 22.4573 0.956102 21.4671 0.975607H17.3625V13.2053H18.9101ZM18.9102 6.74873V2.47709H21.5061C22.0637 2.47709 22.5925 2.69165 22.9867 3.08175C23.8231 3.90097 23.8423 5.26633 23.0347 6.11481C22.6406 6.53417 22.0829 6.76823 21.5061 6.74873H18.9102ZM31.5124 5.49136C30.8492 4.87695 29.9456 4.56487 28.8016 4.56487C27.3309 4.56487 26.2254 5.11101 25.4948 6.19355L26.8598 7.06153C27.3597 6.32033 28.0422 5.94973 28.9074 5.94973C29.4553 5.94973 29.984 6.15454 30.3974 6.52514C30.8011 6.87623 31.0318 7.38336 31.0318 7.91975V8.2806C30.4358 7.94901 29.686 7.77346 28.7632 7.77346C27.6865 7.77346 26.8214 8.02703 26.1773 8.54392C25.5333 9.0608 25.2064 9.74348 25.2064 10.6115C25.1872 11.4014 25.5237 12.1524 26.1197 12.6595C26.7253 13.2056 27.4943 13.4787 28.3979 13.4787C29.4649 13.4787 30.3108 13.0008 30.9549 12.0451H31.0222V13.2056H32.5026V8.04654C32.5026 6.964 32.1757 6.10577 31.5124 5.49136ZM27.3119 11.6641C26.9946 11.4301 26.8023 11.0497 26.8023 10.6401C26.8023 10.1817 27.0138 9.8014 27.4273 9.49907C27.8503 9.19674 28.3791 9.04069 29.004 9.04069C29.8693 9.03094 30.5423 9.22599 31.023 9.6161C31.023 10.2793 30.7634 10.8547 30.2539 11.3423C29.7924 11.8104 29.1675 12.0738 28.5137 12.0738C28.081 12.0835 27.658 11.9372 27.3119 11.6641ZM35.8287 16.8823L41.0004 4.83788H39.3181L36.9245 10.8455H36.8957L34.4444 4.83788H32.7622L36.1555 12.6692L34.2329 16.8823H35.8287Z" fill="#181B28" fill-opacity="0.7"/>
<path d="M13.5664 7.17809C13.5664 6.70021 13.5279 6.22234 13.451 5.75421H6.92389V8.45568H10.6633C10.5095 9.32366 10.0096 10.1039 9.27903 10.5915V12.347H11.5092C12.8166 11.1279 13.5664 9.32366 13.5664 7.17809Z" fill="#4285F4"/>
<path d="M6.92339 14.0437C8.78828 14.0437 10.3648 13.4196 11.5087 12.3468L9.27853 10.5913C8.6537 11.0204 7.85583 11.2643 6.92339 11.2643C5.11618 11.2643 3.58774 10.0257 3.03981 8.36775H0.742343V10.1817C1.91511 12.5516 4.3087 14.0437 6.92339 14.0437Z" fill="#34A853"/>
<path d="M3.04054 8.36812C2.75211 7.50014 2.75211 6.55414 3.04054 5.67641V3.87218H0.742709C-0.24757 5.85195 -0.24757 8.19257 0.742709 10.1723L3.04054 8.36812Z" fill="#FBBC04"/>
<path d="M6.92341 2.77991C7.91353 2.76041 8.86521 3.14076 9.57656 3.83319L11.5568 1.82416C10.2975 0.634342 8.64411 -0.0190807 6.92341 0.000424442C4.30871 0.000424442 1.91511 1.50232 0.742343 3.8722L3.03982 5.68618C3.58775 4.01849 5.11619 2.77991 6.92341 2.77991Z" fill="#EA4335"/>
</svg>
