<svg width="122" height="20" viewBox="0 0 122 20" fill="none" xmlns="http://www.w3.org/2000/svg">
<path d="M6.74957 11.654C6.71437 11.4635 6.67936 11.2728 6.64455 11.0819V10.2329L6.54011 10.2365V10.582L6.24969 10.609L6.20568 10.1819V9.62979L5.90411 9.66206C5.82842 9.49484 5.76447 9.35403 5.70111 9.21322C5.68996 9.1921 5.67881 9.17097 5.66825 9.14985L5.80143 8.95096L5.52157 8.92514C5.27574 8.90871 5.27691 8.71686 5.24816 8.54495C5.22704 8.41763 5.20181 8.2909 5.17834 8.16417C5.20768 8.01573 5.23701 7.86729 5.27456 7.68013L4.8134 7.76286L4.8093 7.75816C4.79052 7.67309 4.77233 7.58801 4.75356 7.50294C4.75356 7.44427 4.75063 7.39029 4.74945 7.33455C4.75943 7.1468 4.76999 6.95964 4.77938 6.77952L4.24311 6.69092L4.36574 6.35826L3.82831 6.3342C3.82831 6.85696 3.82831 7.33162 3.82831 7.80627C3.83104 11.2534 3.8328 14.7004 3.83359 18.1472C3.83359 18.2563 3.76787 18.3654 3.74441 18.4405H0.462313V0.478182C0.567922 0.478182 0.662383 0.478182 0.755671 0.478182L4.73126 0.520426C4.73948 0.579097 4.74769 0.637769 4.75649 0.699961C4.73009 0.758632 4.6767 0.817303 4.68257 0.873041C4.7031 1.04906 4.74534 1.22507 4.79463 1.47677C4.88968 1.63108 5.07977 1.46621 5.24933 1.46504C5.28845 1.67626 5.32874 1.88747 5.3702 2.09869V2.41024H5.70287L5.75332 2.4871L5.76741 2.63906C5.77914 2.72531 5.79029 2.81155 5.80202 2.89721V3.4012L6.21272 3.32258C6.23913 3.4898 6.26553 3.65701 6.29369 3.83831L6.66978 3.91399C6.69148 4.11817 6.70615 4.25194 6.72023 4.38337V5.32211L7.084 5.28104C7.14678 5.52042 7.21014 5.76156 7.27175 5.99508L7.65253 5.79853L7.72469 6.30604V6.85344H8.18174L8.18702 7.20547C8.17529 7.35685 8.16355 7.50822 8.14595 7.73H8.65229L8.71566 7.91306C8.71566 7.9905 8.71155 8.06795 8.70979 8.14481V8.65466L8.83769 8.67461C8.86292 8.56607 8.88815 8.45753 8.92453 8.30322L9.10054 8.26861L9.1199 8.66933C9.12577 9.0108 9.13222 9.35286 9.13868 9.73012L9.52298 9.57874L9.68726 10.6653L9.92195 10.5932L9.86327 10.5286C9.93368 10.4148 10.0037 10.3008 10.0733 10.1866C10.0933 10.4956 10.1128 10.8048 10.132 11.1142V11.6968L10.5398 11.5918C10.5609 11.9156 10.5826 12.2372 10.6049 12.578L11.58 12.6367C11.5606 12.4537 11.5442 12.2929 11.5272 12.1327L11.5554 11.7308L11.6821 11.6176L11.695 11.6645L12.047 11.5636C12.0834 11.1863 12.1116 10.8994 12.1397 10.6131L12.4853 10.6495C12.544 10.1801 12.598 9.72953 12.6525 9.28069H12.7188L12.8285 9.71603L12.9459 9.7043C12.9963 9.40155 13.0474 9.09881 13.1049 8.75382L13.4974 8.69984V8.14305L13.5009 7.97407C13.5455 7.89604 13.5895 7.81742 13.6347 7.73939L13.9767 7.79806C13.958 7.61324 13.9433 7.46246 13.928 7.31167L13.9674 7.253H14.4068C14.4561 7.02418 14.4966 6.83584 14.5242 6.71205C14.5341 6.52664 14.5412 6.40285 14.5488 6.26497L14.9296 6.30662C14.9636 5.95459 14.9965 5.62017 15.0322 5.25053L15.3843 5.41071C15.4277 5.25875 15.4647 5.12967 15.5016 5.00001L15.4799 4.98768C15.5051 4.79642 15.5304 4.60456 15.5568 4.4086L15.9329 4.43441C15.9774 4.09236 16.0185 3.77612 16.059 3.46046H16.1617C16.1752 3.58426 16.1887 3.70747 16.2027 3.8342C16.2368 3.84065 16.2884 3.85122 16.2884 3.84946C16.3641 3.52676 16.4357 3.20407 16.5067 2.8802L16.8792 2.89897C16.9268 2.55574 16.969 2.24713 17.0107 1.94263L17.3809 1.97431V0.545654L17.8549 0.468794C19.0559 0.471728 20.257 0.472901 21.4586 0.479355C21.5841 0.487424 21.7091 0.502902 21.8329 0.525706C21.8141 0.718736 21.7895 0.853093 21.7895 0.987451C21.7895 6.69816 21.7883 12.4089 21.7859 18.1196C21.7859 18.2592 21.7367 18.3983 21.7103 18.5414C21.7372 18.6294 21.7689 18.7298 21.8 18.8301C21.7276 18.856 21.6524 18.8735 21.5759 18.8823C20.5495 18.8874 19.5236 18.889 18.498 18.887C18.4367 18.8795 18.3762 18.8666 18.3173 18.8483C18.3173 18.6511 18.3173 18.4528 18.3173 18.2545C18.3267 14.8856 18.3359 11.5167 18.3448 8.14774C18.3448 7.67837 18.3208 7.21251 18.3073 6.74549C18.339 6.60116 18.3707 6.45741 18.4123 6.26497L17.8344 6.29782C17.8145 6.47384 17.7998 6.6035 17.7839 6.74314L17.3955 6.71967C17.4061 6.92913 17.4155 7.11688 17.4249 7.30639L17.3879 7.73821H17.0112L16.9226 7.70301L16.864 8.74209L16.4005 8.70219V9.28128L16.3969 9.73774L15.9276 9.6204L15.9898 10.1608L15.917 10.67L15.4406 10.7093C15.4494 10.9106 15.4559 11.0555 15.4623 11.2004C15.4623 11.2591 15.4623 11.3143 15.4623 11.3712L15.3068 11.6563L14.9988 11.5442V12.104L14.9196 12.6044C14.7729 12.6461 14.5822 12.4449 14.4602 12.7042L14.5294 13.0427L14.4766 13.1219C14.4731 13.2041 14.4702 13.2862 14.4667 13.3683C14.4567 13.427 14.4473 13.481 14.4373 13.5367H14.0026V14.0378C13.9732 14.2232 13.9443 14.4086 13.9157 14.594L13.5514 14.489C13.5379 14.648 13.5267 14.7782 13.5115 14.9583H12.9864V16.0056C12.9787 16.1599 12.9711 16.3142 12.9623 16.4885C11.9062 16.4885 10.9088 16.4885 9.91138 16.4885C9.79784 16.4787 9.68536 16.459 9.5752 16.4298L9.67318 16.0907C9.55114 15.8343 9.34168 16.015 9.16684 16.0103C9.14748 15.663 9.12812 15.3157 9.10817 14.966L8.68456 15.0211L8.62589 14.5652C8.6388 14.3892 8.6517 14.2132 8.66696 14.0137L8.31493 14.0542L8.12953 13.8336C8.11368 13.7221 8.09843 13.6112 8.07613 13.4511L7.74581 13.6799C7.71296 13.3443 7.68714 13.0644 7.65839 12.7846L7.77574 12.7341C7.72469 12.5047 7.6801 12.3017 7.63434 12.0958L7.25004 12.1544C7.21249 11.9714 7.17728 11.8024 7.13269 11.5929L6.74957 11.654ZM18.6646 18.491V18.5737C19.5723 18.5608 20.4834 18.7374 21.3881 18.491H18.6646ZM4.4074 0.688226L4.30061 0.7645L4.43556 0.940515L4.52591 0.877148C4.49071 0.813196 4.44905 0.751004 4.40974 0.688226H4.4074Z" fill="#1D212C"/>
<path d="M98.7362 11.5456C98.7555 11.7398 98.7743 11.9346 98.7948 12.1288V12.6727L99.1991 12.614C99.2096 12.7554 99.2208 12.8962 99.2314 13.037C99.2413 13.5222 99.2507 14.0069 99.2613 14.549L99.5499 14.4598C99.5288 14.3425 99.5141 14.2586 99.4913 14.1436L99.7213 14.1266C99.7213 14.2627 99.7265 14.3982 99.7289 14.5337V14.9497L99.838 15.0612H100.193V15.2372L100.198 15.4132L100.238 15.7001C100.205 15.7482 100.14 15.7981 100.144 15.8433C100.159 16.0539 100.197 16.2622 100.22 16.4722C100.238 16.6412 100.247 16.8108 100.258 16.9416L100.733 16.9938V17.2373C100.647 17.3335 100.709 17.81 100.828 17.9649L101.18 17.881C101.21 18.1954 101.239 18.5093 101.275 18.8637H97.3814L97.3228 18.6061C98.5244 18.6314 99.6984 18.6701 100.867 18.5897V18.4442H97.2271C97.2271 18.4225 97.2271 18.4002 97.2301 18.3785H96.9121C96.8593 17.8669 96.8094 17.3811 96.7572 16.8718L96.3817 17.0578C96.3729 17.0091 96.3635 16.961 96.3541 16.9123L96.3453 16.7087C96.3365 16.6101 96.3283 16.5116 96.3201 16.4153C96.374 16.2692 96.4744 16.1179 96.272 16.0046L96.1546 16.0087L95.9545 16.0193L95.8959 15.5599C95.8728 15.3952 95.8501 15.2304 95.8278 15.0653L95.5814 15.0266L95.4271 15.0225C94.0647 15.0225 92.7024 15.0225 91.34 15.0225C91.2227 15.0225 91.1094 15.0025 90.9939 14.992C90.9939 14.8097 90.9939 14.6272 90.9939 14.4445L91.0484 13.6061L91.4081 13.6572L91.5976 13.4266V12.5583L91.7102 12.5489L91.8387 13.057L91.925 13.0417V12.7237C91.9631 12.6445 92.0048 12.5594 92.0259 12.516L91.9273 12.1423L92.04 12.117H92.3404H94.3264H94.8621V11.1513L94.5276 11.1994C94.2783 10.8668 94.6262 10.395 94.307 10.1158L93.9151 10.1439L93.9204 10.0852C93.9515 10.0647 94.0108 10.0418 94.009 10.0266C93.9714 9.59064 93.9274 9.15471 93.8828 8.69473L93.5431 8.80444C93.4968 8.42367 93.454 8.06812 93.4076 7.68968L92.9764 7.74835C92.9506 7.43544 92.9249 7.12252 92.8995 6.80961C92.9324 6.63066 93.0262 6.4435 92.876 6.29271L92.524 6.39128C92.5052 6.21057 92.487 6.02927 92.4653 5.84857C92.5487 5.5071 92.5187 5.17208 92.4454 4.8177L92.0881 4.90688C92.0464 4.56072 92.0071 4.2304 91.9707 3.90125L91.4843 3.81618L91.6334 3.59909L91.9531 3.7135C91.9326 3.57973 91.9203 3.50053 91.9039 3.3955L91.6486 3.50581C91.6486 3.47764 91.6486 3.44713 91.6533 3.42132L90.9281 3.34328V4.34481L90.5444 4.29435V4.84176C90.5327 5.33812 90.521 5.83448 90.5086 6.36253L90.193 6.28332L90.1044 6.3772C90.0786 6.71221 90.0569 6.99032 90.0352 7.26842L89.672 7.22618C89.6309 7.27311 89.581 7.32885 89.5893 7.31946C89.5482 7.68968 89.5159 7.98011 89.4836 8.26994L89.3927 8.27757L89.2472 8.14145C89.2372 7.99008 89.2308 7.88858 89.2243 7.78942L89.1516 7.79412C89.1234 8.18722 89.0929 8.58032 89.0712 8.97342C89.0712 9.03209 89.1128 9.09487 89.1351 9.1553C89.1228 9.32838 89.1105 9.50088 89.0988 9.67396L88.7784 9.62819V9.30902L88.6798 9.29963C88.6153 9.91275 88.5502 10.5259 88.4856 11.1355L88.1248 11.0979V12.1417C88.1193 12.277 88.1137 12.4122 88.1078 12.5471H87.8913C87.8731 12.3711 87.8596 12.2379 87.8455 12.1018L87.7675 12.0824C87.7323 12.1411 87.6701 12.1939 87.6678 12.252C87.656 12.5324 87.6601 12.8135 87.659 13.0945C87.6539 13.2451 87.649 13.3955 87.6443 13.5457L87.1585 13.5874C87.1344 13.9852 87.1104 14.3501 87.094 14.7162C87.094 14.7356 87.1479 14.7573 87.1767 14.7749L87.1274 15.4232L86.9737 15.3927C86.9261 15.2243 86.8874 15.0894 86.8493 14.9544L86.7431 14.9708C86.651 15.1609 86.5747 15.3516 86.7613 15.554C86.7525 15.6239 86.7431 15.6937 86.7343 15.7629C86.7296 15.8181 86.7243 15.8732 86.7196 15.9284C86.6844 15.9835 86.6492 16.0387 86.631 16.068L86.6498 16.474L86.3453 16.3731L86.4345 16.0985L86.3318 16.0621C86.3001 16.1642 86.2479 16.2651 86.2414 16.3696C86.2168 16.7363 86.2074 17.1047 86.1928 17.4726L86.1787 17.8798L85.9956 17.9701L85.7187 17.8628V18.4683L85.7398 18.6384C85.7181 18.707 85.6958 18.7763 85.6735 18.8449C85.5321 18.8572 85.3907 18.8784 85.2487 18.8795C84.1703 18.8866 83.0916 18.8905 82.0124 18.8913C81.9477 18.883 81.8844 18.8662 81.8241 18.8414C81.8106 18.7364 81.7971 18.6308 81.7842 18.5258L81.8106 18.0065L81.8546 17.4462C81.853 17.4401 81.8534 17.4337 81.8554 17.4277C81.8575 17.4218 81.8613 17.4166 81.8663 17.4127L82.1761 18.0159C82.4307 17.4679 82.2987 16.9281 82.4196 16.4441L82.7681 16.4746V15.5358H83.241C83.3049 15.2255 83.3442 14.8905 83.2457 14.5384L83.2774 14.0491L83.5343 14.1236C83.5426 14.2058 83.5443 14.2539 83.5531 14.2996C83.5619 14.3454 83.5772 14.4 83.5895 14.4504H83.657C83.7285 13.9687 83.8007 13.4876 83.8752 12.9918L84.2449 13.1321C84.2302 12.8387 84.2179 12.6011 84.2055 12.3611C84.2282 12.0924 84.2507 11.8239 84.273 11.5556C84.6333 11.5714 84.3986 11.9076 84.5969 12.103C84.6391 12.0032 84.6908 11.9322 84.6978 11.8571C84.733 11.494 84.7565 11.129 84.787 10.7653C84.7911 10.7142 84.8363 10.6661 84.865 10.6127L85.1519 10.7166C85.2693 10.3352 85.2552 9.97377 85.2188 9.60942C85.2188 9.57246 85.2223 9.53608 85.2235 9.49912L85.3872 9.12772C85.4646 9.3495 85.5157 9.49677 85.5667 9.64404C85.6326 9.50229 85.6685 9.34851 85.6723 9.19226C85.6658 9.03632 85.6511 8.88082 85.6283 8.72641C85.6371 8.48527 85.6407 8.24354 85.6571 8.00299C85.6713 7.89592 85.6925 7.78989 85.7204 7.68558L86.1517 7.74718C86.2045 7.3887 86.2479 7.09534 86.2907 6.80139L86.394 6.78849C86.4398 6.91404 86.4855 7.0396 86.5442 7.19919C86.5782 7.04312 86.6205 6.92519 86.6269 6.8055C86.6439 6.47225 86.6457 6.13782 86.6533 5.80456C86.6643 5.64341 86.6756 5.48206 86.6874 5.32052L87.0394 5.37039C87.2741 5.23486 87.1286 5.05533 87.0881 4.88811C87.0872 4.88482 87.0871 4.88139 87.0876 4.87804C87.0882 4.87469 87.0895 4.8715 87.0913 4.86867C87.0932 4.86584 87.0957 4.86345 87.0986 4.86164C87.1014 4.85983 87.1047 4.85866 87.108 4.85819C87.1555 4.79084 87.1948 4.71818 87.2254 4.64169C87.2464 4.53586 87.2592 4.42856 87.2635 4.32076L87.6196 4.44749L87.737 2.94021L87.835 2.91733C87.8813 3.05169 87.9271 3.18546 87.9729 3.31982C88.0475 3.17357 88.0928 3.0141 88.106 2.85044C88.1201 2.56647 88.1119 2.28074 88.1125 1.99618L88.1389 1.82838L88.5238 1.93986C88.5601 1.78164 88.5867 1.62137 88.6036 1.45992C88.6177 1.14368 88.7796 0.823925 88.5918 0.509444C88.592 0.501628 88.5949 0.494127 88.6003 0.488386C88.6056 0.482646 88.6128 0.479072 88.6206 0.478349C88.8701 0.478349 89.1193 0.478349 89.3681 0.478349C90.6876 0.478349 92.0083 0.478349 93.3255 0.478349C93.5648 0.478349 93.8042 0.508857 94.0436 0.525285L94.3411 0.437278C94.3634 0.796935 94.3833 1.12198 94.4039 1.4476C94.4185 1.62773 94.4332 1.80785 94.449 1.99912L94.8181 1.94045C94.9425 2.44796 94.7858 2.98245 95.068 3.45711C95.1309 3.38058 95.1794 3.29332 95.2112 3.19954C95.2446 3.1262 95.2904 3.05873 95.3285 2.98891C95.3579 3.29048 95.3874 3.59166 95.4171 3.89245V4.3982L95.7756 4.36593C95.8219 4.89398 95.8665 5.40266 95.9111 5.91252L95.9985 5.86734H96.3623C96.3623 5.94127 96.3623 6.01461 96.3623 6.08795C96.3494 6.33143 96.3365 6.57492 96.323 6.84012L96.7143 6.81137C96.773 7.30245 96.8317 7.77769 96.898 8.32451L97.1503 8.11153C97.1303 8.00475 97.1145 7.92319 97.0951 7.82228L97.3069 7.79998C97.3069 7.91733 97.311 8.03174 97.3134 8.14732C97.3228 8.18956 97.3316 8.23122 97.341 8.27346C97.3545 8.42484 97.3685 8.5768 97.382 8.72876C97.382 8.91123 97.2735 9.11892 97.4829 9.26267L97.7211 9.08666C97.764 9.37649 97.805 9.66633 97.8496 9.95617C97.8608 10.0313 97.8807 10.1046 97.8966 10.1785C97.7241 10.3545 97.7792 10.5306 97.8819 10.7306L98.2093 10.6027C98.2093 10.7406 98.194 10.8462 98.2146 10.9442C98.2281 11.0099 98.292 11.0651 98.3319 11.1243C98.3352 11.1245 98.3385 11.1253 98.3415 11.1267C98.3445 11.1282 98.3471 11.1303 98.3493 11.1328C98.3514 11.1353 98.353 11.1383 98.354 11.1415C98.3549 11.1447 98.3552 11.148 98.3548 11.1513C98.3043 11.335 98.2228 11.5245 98.4411 11.6794L98.7362 11.5456ZM96.7161 16.5667L96.668 16.5591C96.6627 16.5943 96.658 16.6301 96.6527 16.6653L96.7003 16.6723L96.7161 16.5667Z" fill="#1D212C"/>
<path d="M41.0801 14.0093C41.1265 14.3115 41.1734 14.6136 41.2292 14.9733C41.0931 14.995 40.956 15.0099 40.8185 15.0179C39.3098 15.0214 37.8018 15.0226 36.2943 15.0214H35.7973C35.8067 15.2021 35.8149 15.3511 35.8232 15.5001L35.7645 16.4835L35.3726 16.3456V16.5668L35.3321 16.9957C35.1825 17.0725 35.1813 17.1523 35.328 17.2339V17.3448L34.8122 17.4105V18.4079L34.7653 18.6168L34.8199 18.7558C34.7542 18.7981 34.689 18.8773 34.6233 18.8773C33.4346 18.8855 32.2459 18.8837 31.0573 18.8826C30.9995 18.8774 30.9423 18.8668 30.8865 18.8509L30.8343 18.7711L30.7516 18.855H30.4676C30.4172 18.5522 30.4899 18.3492 30.6812 18.1867C30.8724 18.0242 30.954 17.8042 30.9299 17.5413C30.9188 17.4187 30.9534 17.2914 30.9669 17.1664L30.9739 17.0332C30.9707 17.0263 30.9703 17.0184 30.9728 17.0111C30.9753 17.0039 30.9806 16.9979 30.9874 16.9945L31.1635 17.0532C31.1482 17.1664 31.1365 17.2568 31.1189 17.3923L31.4351 17.3606V16.4395C31.3852 16.0517 31.5354 15.7513 31.8517 15.5142C31.8605 15.3476 31.8693 15.1775 31.8781 15.0067H32.3709C32.4053 14.5643 32.4425 14.0916 32.4824 13.5886L32.7042 13.6626C32.6602 13.7646 32.6273 13.8386 32.5786 13.9518L32.8233 13.9882C32.8573 13.8016 32.9037 13.6514 32.9066 13.5C32.9095 13.3487 32.8649 13.2067 32.8415 13.0623L32.9048 12.5273L33.3507 12.5977C33.3883 12.0907 33.4235 11.6196 33.4581 11.1479H33.5754C33.5854 11.2723 33.5954 11.3967 33.6089 11.5674L33.809 11.5492C33.8594 11.0517 33.9046 10.604 33.9498 10.1534L34.3446 10.178C34.3188 9.85006 34.2953 9.55319 34.2713 9.2569C34.2936 9.02221 34.3135 8.78752 34.3382 8.55284C34.3511 8.42669 34.371 8.30113 34.3968 8.1304L34.5823 8.24774C34.5823 8.41085 34.4743 8.59977 34.7377 8.76171V8.25302C34.7635 8.00719 34.7876 7.76136 34.8158 7.51552C34.8252 7.43221 34.8439 7.35007 34.8592 7.26734L35.3286 7.31193C35.2611 7.20221 35.2388 7.16642 35.254 7.19048C35.1954 7.13181 35.1807 7.12535 35.1819 7.12125C35.2294 6.99041 35.2781 6.86016 35.3262 6.72991L35.3192 6.33446L35.5462 6.36262C35.5814 6.54802 35.6084 6.69294 35.636 6.83845L35.761 6.82906C35.8001 6.3151 35.838 5.80133 35.8748 5.28776L35.9957 5.28482C36.0097 5.42622 36.0238 5.56703 36.042 5.7542L36.2344 5.76358C36.2931 5.12348 36.3465 4.52327 36.4011 3.92364L36.5231 3.91777L36.6199 4.36368H36.6944C36.7261 4.11257 36.7684 3.86145 36.7854 3.60916C36.7859 3.45995 36.7753 3.3109 36.7537 3.16326C36.7643 3.06351 36.7748 2.96377 36.7848 2.86403L37.1708 2.96084C37.2064 2.89325 37.2329 2.82124 37.2495 2.74669C37.2776 2.44922 37.3005 2.15117 37.3081 1.85312C37.3081 1.7833 37.2495 1.71172 37.2166 1.64131C37.2272 1.57971 37.2377 1.5181 37.2489 1.4565L37.6989 1.50637C37.7405 1.15434 37.7799 0.824605 37.8203 0.481963C38.3349 0.481963 38.8113 0.481963 39.2871 0.481963C40.5388 0.474531 41.7893 0.465535 43.0386 0.454974L43.0867 0.513646C43.0075 0.8381 43.0539 1.1473 43.1454 1.45239L43.251 1.44946C43.2639 1.30923 43.2768 1.16901 43.2915 1.00649L43.5344 1.06516C43.5344 1.12383 43.5344 1.17839 43.5344 1.23472L43.4399 1.34443L43.542 1.41425C43.5608 1.73754 43.5801 2.05964 43.6007 2.39466H43.8354C43.8271 2.27321 43.8201 2.17171 43.8119 2.05201L44.0032 2.00332C44.0274 2.31154 44.0517 2.61996 44.0759 2.92857V3.46072L44.4367 3.30172C44.4759 3.64867 44.515 3.99503 44.5541 4.3408C44.5336 4.52503 44.513 4.70984 44.4895 4.92223L44.9002 4.87412C44.9513 5.36696 45 5.84338 45.0493 6.32038L45.186 6.34091C45.2159 6.24997 45.2394 6.15668 45.2775 6.06926C45.3156 5.98184 45.3696 5.89677 45.4166 5.81111C45.4447 6.04579 45.4752 6.27696 45.5005 6.51048C45.5122 6.61432 45.5204 6.71876 45.5298 6.82261C45.4474 7.13333 45.4582 7.46143 45.5609 7.76605H45.6665C45.673 7.6446 45.6794 7.52315 45.6876 7.37002L45.8689 7.3307C45.9094 7.82237 45.947 8.28295 45.9863 8.77755L46.4011 8.73824C46.4357 9.20468 46.4122 9.67698 46.5654 10.1123L46.6651 10.0959V9.76734L46.9115 9.71453C46.9115 9.96565 46.9101 10.217 46.9074 10.4685C46.9279 10.7032 46.9485 10.9378 46.9696 11.1813L47.3216 11.1367C47.3738 11.6061 47.4243 12.0614 47.4806 12.5619L47.6566 12.5478C47.6748 12.3782 47.6872 12.258 47.7001 12.1371L47.7892 12.1418L47.8872 12.37C47.8872 12.4082 47.8872 12.4469 47.8872 12.4874C47.8643 12.9943 47.8767 13.4971 47.9969 13.9888L48.0732 13.9847V13.6485L48.2885 13.5247C48.3243 14.0287 48.3572 14.4881 48.393 14.9915L48.8805 14.9498C48.9005 15.1258 48.921 15.3018 48.9392 15.4779C48.9228 15.6609 48.9064 15.8434 48.8917 16.0059H49.3405C49.3464 16.1561 49.3523 16.3069 49.3575 16.4571C49.3634 16.7862 49.3687 17.116 49.374 17.4545L49.7747 17.3988C49.8134 17.7508 49.8498 18.0887 49.8862 18.4296C49.805 18.4466 49.7229 18.459 49.6403 18.4666C48.6541 18.4666 47.6678 18.4695 46.6815 18.4631C46.5706 18.4631 46.4597 18.4126 46.3049 18.3751L46.0479 18.4056C46.0291 18.1298 46.0062 17.8775 45.9951 17.6241C45.9739 17.16 45.9294 17.0321 45.7604 16.9787C45.7213 17.1351 45.6804 17.2935 45.6378 17.4539L45.5456 17.4345C45.4964 16.8087 45.4469 16.1846 45.3972 15.5623L45.2904 15.5676C45.2904 15.6427 45.3098 15.7249 45.2851 15.7912C45.2605 15.8575 45.1924 15.9085 45.0898 16.0258C45.0422 15.4491 45.0035 14.9698 44.9683 14.5409L44.4743 14.4769V14.2968C44.5066 14.2686 44.5676 14.2381 44.5664 14.2117C44.5576 14.0087 44.5435 13.8057 44.5171 13.6039C44.4919 13.4144 44.4496 13.2266 44.415 13.0377L44.2977 13.0424C44.2906 13.1797 44.2842 13.317 44.2754 13.4977L44.0648 13.5417L44.026 13.0465C44.0219 12.9561 44.0184 12.8658 44.0143 12.776L44.0108 12.6587C44.134 12.3201 44.0073 12.0092 43.9005 11.6906C43.8559 11.8191 43.8113 11.947 43.7673 12.0755L43.6658 12.0579C43.6243 11.5959 43.5831 11.1344 43.542 10.6732C43.3226 10.6146 43.2821 10.6322 43.0803 10.8803L43.0163 10.1393V9.6629L42.6285 9.72157C42.5894 9.38519 42.5516 9.04861 42.5152 8.71184C42.5235 8.55049 42.5323 8.38973 42.5411 8.21899L42.0922 8.25948C42.0734 7.94187 42.0539 7.62465 42.0336 7.30782C42.0429 7.1277 42.0523 6.94758 42.06 6.79386H41.624C41.6158 6.64014 41.6082 6.48642 41.6 6.3327C41.5947 5.98067 41.5929 5.62864 41.583 5.27661C41.5788 5.14871 41.5542 5.0208 41.5395 4.8929H41.4386C41.4275 5.00144 41.4169 5.10998 41.4034 5.23906L41.2315 5.28013C41.201 4.82249 41.1728 4.38773 41.1382 3.89724L40.6859 3.83505C40.6688 3.68191 40.6495 3.5059 40.6225 3.25713L40.0569 3.43725V3.85324L39.6128 3.83035C39.6433 4.02456 39.6679 4.18238 39.6931 4.34373L39.6603 4.86121C39.5212 4.94042 39.5177 5.02197 39.6603 5.10529L39.6198 5.33645L39.4162 5.27074C39.3986 5.08769 39.3863 4.96096 39.374 4.83423L39.2302 4.84244V5.86567C39.222 6.02213 39.2136 6.17702 39.205 6.33035L38.7356 6.30454C38.6957 6.80149 38.6588 7.26499 38.6183 7.74141L38.2211 7.70034V8.69071L38.1477 9.66936C38.103 9.59016 38.0625 9.50869 38.0263 9.42528C37.9905 9.33317 37.9676 9.23519 37.9406 9.14014L37.8186 9.15246C37.71 9.49059 37.686 9.8502 37.7488 10.1998C37.7429 10.3347 37.7376 10.4702 37.7323 10.6052L37.2137 10.6492L37.3005 11.1449L37.2723 11.8983L37.1802 12.008L37.2946 12.0473L37.2835 12.0608L37.297 12.0503L37.3838 12.1729L37.5012 12.0661L37.6772 12.0819C37.7576 12.1148 37.8362 12.1735 37.9171 12.1758C38.2281 12.1864 38.5402 12.1858 38.8512 12.1758C39.0104 12.1632 39.1688 12.1424 39.3259 12.1136L39.8756 12.1001L40.1103 12.1101L40.1954 12.1459C40.1754 12.258 40.1555 12.37 40.1367 12.495C40.1877 12.5484 40.2388 12.6018 40.2382 12.6018H40.6137C40.6266 12.8576 40.6342 13.1146 40.6559 13.3698C40.672 13.4694 40.6963 13.5675 40.7287 13.6631C40.7111 13.8092 40.6941 13.9565 40.6753 14.1131L41.0801 14.0093ZM34.5517 18.5775C34.5517 18.5452 34.5517 18.5129 34.5517 18.4813H31.448C31.448 18.5129 31.448 18.5452 31.448 18.5775H34.5517Z" fill="#1D212C"/>
<path d="M60.6312 18.4511L59.9994 18.3766C60.0087 18.237 60.0181 18.0967 60.0293 17.9336H59.4373L59.0172 17.8926C59.0336 17.7606 59.05 17.6291 59.0759 17.4467L58.566 17.4056L58.5766 16.945L58.9761 17.0096C59.195 16.7109 59.0348 16.3014 59.1381 15.957L59.5276 15.9787C59.5493 15.6478 59.5687 15.3544 59.5922 15.0018L60.4664 15.0781C60.4212 15.1896 60.3925 15.2623 60.3608 15.3409L60.0803 15.1796V15.4266L61.4198 15.6179L61.4321 15.69L61.032 15.8285C61.0425 15.8596 61.0525 15.8907 61.0631 15.9218C61.5911 15.9629 62.1239 16.0074 62.6542 16.0391C62.7352 16.0444 62.8191 16.0051 62.9013 15.9869L63.84 15.9992C63.7813 16.0614 63.7279 16.167 63.6605 16.1752C63.4891 16.2016 63.3084 16.1752 63.1359 16.1899C62.9259 16.2075 62.717 16.2486 62.5082 16.2767C62.5416 16.3577 62.5715 16.3865 62.6032 16.3888C63.1541 16.4299 63.7056 16.4991 64.2566 16.5009C65.3461 16.5009 66.4362 16.4715 67.5252 16.4457C67.6073 16.4457 67.6883 16.3818 67.7698 16.3477C67.7646 16.3196 67.7599 16.2891 67.7552 16.2633C67.7022 16.2312 67.6443 16.208 67.5838 16.1946C67.3926 16.184 67.1984 16.2028 67.0106 16.1764C66.9437 16.1676 66.8933 16.0591 66.8346 15.9969H67.6801L67.8197 15.9241C68.0022 16.038 68.1717 16.0198 68.336 15.8901C68.3172 15.7552 68.2996 15.6331 68.2826 15.5117L68.4651 15.4782L68.8465 15.558L68.8617 15.4812L69.2061 15.5099C69.2173 15.2793 69.2266 15.0816 69.2354 14.8839L69.2249 14.7665V14.5905C69.2045 14.068 69.185 13.5456 69.1662 13.0234V12.6156L68.7672 12.5716C68.7813 12.4402 68.7942 12.3211 68.8089 12.1821L68.671 12.0377L68.3096 12.0741C68.2902 11.9081 68.2756 11.7807 68.2597 11.6423L67.2917 11.5249C67.3098 11.4005 67.3233 11.309 67.3433 11.1758L66.2097 11.0515L66.3447 10.7117L64.8726 10.5357C64.902 10.4465 64.9213 10.3885 64.9313 10.3521L65.2681 10.3057C65.2645 10.2629 65.261 10.2201 65.2581 10.1772H63.8564L63.4193 10.1479C63.4422 10.064 63.4651 9.98011 63.478 9.9273L63.9186 9.90207C63.9186 9.85807 63.9186 9.81406 63.9186 9.77006L62.4319 9.59405C62.4424 9.4679 62.4518 9.35936 62.4624 9.23674L61.4022 9.10707L61.5518 8.76912L60.5544 8.65178C60.5104 8.44584 60.4793 8.30268 60.4488 8.1607L60.0639 8.2135C60.0351 8.03749 60.0093 7.87262 59.9812 7.69543L59.5376 7.7541C59.5071 7.56518 59.7336 7.33401 59.4971 7.20846H59.033L59.0412 6.98257C59.1392 6.77605 59.0817 6.39585 58.9309 6.24683L58.5877 6.29435L58.5813 3.87943L58.8787 3.9158V4.87333H58.9444L58.9972 3.99912H59.0489L59.0682 2.86147C59.2343 2.84857 59.4203 3.03045 59.52 2.87966C59.5728 2.66962 59.6063 2.53702 59.6374 2.41029L59.9982 2.44725V1.91627L60.0011 1.91334L60.4153 1.97905L60.5567 1.86171L60.4306 1.52845L61.049 1.41932V1.0538L62.057 0.962272C62.0429 0.769829 62.0317 0.629016 62.0212 0.488204L62.9189 0.439507C63.0949 0.469429 63.2879 0.55685 63.4715 0.302215L62.9893 0.173724L63.3753 0.056381C63.9098 0.0381928 64.4443 0.00474969 64.9788 0.00474969C66.1875 0.00474969 67.3967 0.0200045 68.6059 0.0305654C68.6345 0.0351754 68.6623 0.0436628 68.6886 0.0557937C68.7133 0.117399 68.7385 0.179005 68.7631 0.240024L68.7262 0.28344L68.6458 0.360887L68.745 0.419559L70.1032 0.488791C70.0997 0.56037 70.0967 0.631363 70.0926 0.71761L69.733 0.675366C69.7383 0.782736 69.7424 0.872504 69.7453 0.931176L71.1857 1.07551C71.1393 1.20283 71.1077 1.28849 71.0625 1.41346L71.6991 1.50616C71.6521 1.98257 71.6087 2.42144 71.5635 2.88142L71.1681 2.83683V3.87473L70.64 3.92519L69.662 3.8718C69.6761 3.68288 69.6849 3.56612 69.6925 3.4611L68.7068 3.33378C68.7209 3.21644 68.7356 3.09909 68.7567 2.91956L68.2738 2.94479L64.8662 2.90724L64.601 2.91486H63.4557C63.4428 3.12667 63.4346 3.26689 63.427 3.40301C63.2468 3.42883 63.0286 3.30444 62.8954 3.51742L63.0074 3.85361C62.7141 3.93282 62.9142 4.18334 62.8379 4.33824L62.4706 4.29717C62.3849 4.80057 62.4372 5.28931 62.4835 5.79506L62.8355 5.73638C62.8713 5.92413 62.9036 6.0978 62.9417 6.30081H63.4557C63.4623 6.29913 63.4693 6.29986 63.4754 6.30287C63.4816 6.30588 63.4864 6.31097 63.4891 6.31723C63.4557 6.44279 63.4228 6.56835 63.3806 6.72794L64.4332 6.89046C64.3909 7.02071 64.3639 7.10519 64.3158 7.26185H65.3619L65.8032 7.28649L65.7492 7.47835L65.3267 7.56753C65.3267 7.60918 65.3267 7.65084 65.3297 7.6925L66.861 7.82392L66.702 8.17595L68.2404 8.34317C68.2316 8.46872 68.2251 8.56905 68.2146 8.7304L69.212 8.68346L69.5218 8.70986L69.7124 8.77206C69.6849 8.83659 69.6538 8.90172 69.6285 8.96626C69.6133 8.94514 69.5975 8.9246 69.5816 8.90348L69.2296 9.01026C69.2349 9.05955 69.2401 9.10825 69.246 9.15753L70.6289 9.29071L70.6735 9.68381L71.1822 9.70963L71.6298 9.73662C71.6527 9.89092 71.675 10.0452 71.6961 10.186L72.0869 10.1385C72.0953 10.1425 72.102 10.1494 72.1056 10.1579C72.1093 10.1665 72.1097 10.176 72.1068 10.1849V11.0867H72.5498C72.5733 11.2814 72.5967 11.4751 72.6237 11.6957L73.0028 11.6605C73.0221 11.6892 73.0415 11.7051 73.0421 11.7191C73.0491 12.8374 73.0526 13.9557 73.0626 15.074C73.0626 15.2435 73.0925 15.4125 73.109 15.5815C73.1037 15.6988 73.099 15.8127 73.0937 15.9282C72.9904 15.9136 72.8831 15.8772 72.7839 15.8924C72.7252 15.9018 72.6812 15.994 72.6302 16.0491V16.1664C72.5911 16.2591 72.552 16.352 72.5128 16.4451L72.1444 16.4052V16.9773C72.1453 16.9843 72.1434 16.9913 72.1393 16.997C72.1351 17.0026 72.129 17.0065 72.1221 17.0078C71.9502 17.033 71.753 16.8265 71.594 17.0665L71.6991 17.3528L71.0584 17.4467C71.0795 17.6162 71.0906 17.706 71.0977 17.7617C70.9803 17.9207 70.7157 17.6209 70.7069 17.9489C70.7071 17.9558 70.7045 17.9625 70.6998 17.9675C70.6951 17.9726 70.6886 17.9756 70.6817 17.9759L70.1648 17.9295C70.1894 18.1255 70.2059 18.2563 70.2235 18.3872L69.7124 18.4106L68.715 18.4617L68.7103 18.5855C68.8118 18.5936 68.912 18.6133 69.009 18.6441C69.094 18.6823 69.1615 18.7615 69.2366 18.8202L67.3321 18.9023C67.2285 18.8823 67.1236 18.869 67.0182 18.8624C65.9105 18.8589 64.8028 18.8589 63.6951 18.8624C63.5903 18.8704 63.4864 18.8865 63.3841 18.9105C62.9869 18.9569 62.5897 19.0026 62.2107 18.8237L62.0886 18.8342L61.4433 18.8243L61.2549 18.8161L61.0202 18.812C61.0901 18.7586 61.1534 18.6735 61.2309 18.6565C61.4462 18.6101 61.6674 18.5919 61.8862 18.5632C61.8862 18.5274 61.8827 18.4922 61.8804 18.4564H60.6981L60.6312 18.4511ZM64.8703 2.60977C65.6406 2.73666 66.4272 2.72713 67.1943 2.58161C66.4339 2.41557 65.1143 2.4232 64.8703 2.61212V2.60977ZM69.5476 14.4403H69.6121V13.5773H69.5476V14.4403Z" fill="#1D212C"/>
<path d="M113.357 18.9134L112.633 18.884L112.511 18.8952L112.107 18.8365L111.923 18.6969L112.386 18.5754L112.366 18.4381L111.142 18.3795L111.105 18.5901L110.982 18.4727L110.879 18.2627V17.923L109.961 17.8573C109.93 17.6766 109.902 17.5258 109.884 17.4108H109.396C109.392 17.4097 109.389 17.4079 109.387 17.4056C109.384 17.4032 109.382 17.4003 109.381 17.3971C109.379 17.3939 109.379 17.3904 109.379 17.3869C109.379 17.3834 109.379 17.3799 109.381 17.3768C109.423 17.2277 109.465 17.0787 109.507 16.9273L109.878 16.986C109.907 16.81 109.937 16.6434 109.961 16.4808L110.449 16.4222C110.436 16.2855 110.426 16.1834 110.412 16.0373L110.56 15.8865L110.804 15.9798C110.815 15.8202 110.825 15.6905 110.84 15.4869C111.016 15.5022 111.188 15.5268 111.36 15.5274C111.449 15.5274 111.536 15.4852 111.628 15.4623L111.887 15.5098C111.868 15.6407 111.85 15.7715 111.822 15.971H112.841L115.681 16.0003L115.807 15.9716L116.208 15.9399L116.731 16.0015C116.719 15.8208 116.711 15.7081 116.702 15.5667H117.199V15.0006C117.366 14.9472 117.587 15.186 117.723 14.8832L117.665 14.4807C117.671 14.345 117.676 14.2099 117.682 14.0753L117.866 13.6007C117.963 13.9973 117.963 13.9973 118.15 14.0513V0.462313H121.556C121.551 0.481538 121.548 0.501172 121.546 0.520985C121.546 4.90689 121.546 9.2924 121.546 13.6775C121.555 13.7703 121.572 13.8621 121.599 13.9515L121.535 15.0029L121.098 15.0352V15.9111C121.079 16.0191 121.057 16.1271 121.042 16.2356C121.028 16.3289 121.021 16.4228 121.009 16.5354L120.661 16.448C120.637 16.624 120.615 16.7789 120.593 16.935L120.06 16.976C120.091 17.1562 120.113 17.2753 120.134 17.3938C120.131 17.402 120.126 17.4091 120.119 17.4137C120.112 17.4183 120.103 17.4202 120.094 17.419H119.546C119.558 17.5798 119.566 17.6971 119.575 17.8297L118.567 17.916C118.584 18.0767 118.596 18.1958 118.611 18.3413L117.164 18.454L117.159 18.5883L117.634 18.6945L117.379 18.8365L116.247 18.9134C116.174 18.8927 116.099 18.8787 116.023 18.8717C115.324 18.869 114.625 18.869 113.926 18.8717C113.85 18.88 113.776 18.8965 113.704 18.921L113.608 18.9151L113.357 18.9134ZM115.789 16.3494L115.757 16.2245C114.8 16.174 113.844 16.1699 112.882 16.3107C112.898 16.3347 112.917 16.3552 112.941 16.3711C112.964 16.387 112.991 16.3978 113.019 16.4028C113.845 16.4245 114.672 16.4456 115.499 16.455C115.597 16.4533 115.693 16.3835 115.791 16.3465L115.789 16.3494Z" fill="#1D212C"/>
<path d="M4.73304 0.520996L0.75745 0.478753C0.662402 0.478753 0.567941 0.478753 0.464092 0.478753V18.437H3.74618C3.76965 18.3642 3.83478 18.2551 3.83537 18.1436C3.83537 14.6969 3.83361 11.2499 3.83008 7.80274C3.83008 7.32808 3.83008 6.85343 3.83008 6.33066L4.36752 6.35472L4.24489 6.68739L4.78115 6.77598C4.77177 6.9561 4.76121 7.14327 4.75123 7.33101L4.28186 7.27234V18.823H3.78667C3.76907 18.7456 3.75146 18.6676 3.7456 18.64H0.445318L0.433584 18.7104L0.613705 18.8782L0 18.8453V0.124375C0.655949 -0.0193704 4.41445 0.0181795 4.72835 0.183047L4.25604 0.291003L4.2666 0.376663L4.73304 0.520996Z" fill="#1D212C"/>
<path d="M21.7954 18.8321C21.7644 18.7318 21.7327 18.6314 21.7057 18.5434C21.7321 18.4003 21.7808 18.2612 21.7814 18.1216C21.7841 12.4109 21.7853 6.70017 21.7849 0.989464C21.7849 0.855106 21.8095 0.720748 21.8283 0.527718C21.7046 0.504914 21.5796 0.489437 21.454 0.481367C20.2524 0.474913 19.0484 0.47374 17.8504 0.470219C17.8592 0.36461 17.868 0.258414 17.8791 0.12523C18.0299 0.0184472 21.6846 -0.00971387 22.1886 0.121124C22.1592 0.209718 22.1299 0.297138 22.1011 0.384559L22.2138 0.545906V18.8679L21.7954 18.8321Z" fill="#1D212C"/>
<path d="M121.556 0.46265H118.15V14.0469C117.963 13.9929 117.963 13.9929 117.866 13.5963L117.682 14.071C117.682 13.0579 117.682 12.0448 117.682 11.0318C117.677 7.58969 117.673 4.14606 117.671 0.700856C117.671 0.583513 117.729 0.466171 117.774 0.298957L117.736 0.150518C117.826 -0.00965592 121.395 0.00618543 121.591 0.150518L121.556 0.46265Z" fill="#1D212C"/>
<path d="M121.599 13.9494C121.573 13.8599 121.555 13.7682 121.546 13.6754C121.546 9.28985 121.546 4.90434 121.546 0.518824C121.548 0.499012 121.551 0.479378 121.556 0.460153L121.967 0.502982C121.985 0.57744 121.996 0.653476 122 0.730041C122 4.90042 121.997 9.07061 121.992 13.2406C121.991 13.6355 121.956 14.0296 121.888 14.4187C121.729 9.85642 121.834 5.29176 121.775 0.728868L121.687 0.722415C121.679 0.827437 121.666 0.933045 121.665 1.03807C121.659 5.11027 121.653 9.18287 121.647 13.2559C121.643 13.4876 121.613 13.7188 121.599 13.9494Z" fill="#1D212C"/>
<path d="M44.4783 14.4799L44.9723 14.5438C45.0075 14.9751 45.0462 15.4521 45.0937 16.0288C45.1964 15.9115 45.2645 15.861 45.2891 15.7941C45.3138 15.7273 45.2944 15.6457 45.2944 15.5706L45.4012 15.5653C45.4505 16.1912 45.5 16.8152 45.5496 17.4375L45.6417 17.4569C45.6828 17.2977 45.7237 17.1393 45.7644 16.9817C45.931 17.0327 45.9756 17.1577 45.999 17.627C46.0102 17.8799 46.0331 18.1328 46.0519 18.4086L46.3088 18.378C46.4637 18.4156 46.5746 18.4655 46.6855 18.4661C47.6718 18.4725 48.658 18.4707 49.6443 18.4696C49.7269 18.462 49.809 18.4496 49.8902 18.4326C49.8538 18.0917 49.8174 17.7567 49.7787 17.4017L49.378 17.4575C49.3727 17.116 49.3674 16.7863 49.3615 16.4601L49.6338 16.4812L49.5229 16.6684L49.889 16.9781L49.8033 17.0327C49.9078 17.292 50.0124 17.5514 50.1172 17.8107C50.1008 18.06 50.0844 18.3094 50.0656 18.5963H46.4514C46.4414 18.696 46.4338 18.7776 46.4256 18.8586H46.2373C46.2185 18.7841 46.2003 18.7095 46.1786 18.635L46.0835 18.6614C46.0976 18.7295 46.1123 18.797 46.127 18.865C45.7978 18.865 46.002 18.6168 45.9298 18.4174L45.481 18.3733V17.8189L45.6634 17.7778V17.6863L45.4804 17.6458C45.4475 17.4023 45.4147 17.1583 45.3777 16.8831L45.072 17.0591C45.0228 16.5275 44.9752 16.0212 44.9259 15.4891L44.5487 15.5477C44.5252 15.1875 44.5047 14.8337 44.4783 14.4799Z" fill="#1D212C"/>
<path d="M17.3759 1.39601V1.97921L17.0056 1.94752C16.964 2.25203 16.9217 2.56064 16.8742 2.90387L16.5016 2.8851C16.4306 3.2072 16.3591 3.53048 16.2834 3.85435C16.2834 3.85435 16.2318 3.84555 16.1977 3.8391C16.1836 3.71237 16.1702 3.58916 16.1567 3.46536H16.054C16.0135 3.78101 15.9724 4.09725 15.9278 4.43931L15.5517 4.41349C15.5253 4.60946 15.5001 4.80131 15.4749 4.99258L15.4966 5.0049C15.4602 5.13398 15.4233 5.26306 15.3793 5.41561L15.0272 5.25543C14.9914 5.62272 14.9586 5.95949 14.9245 6.31152L14.5438 6.26986C14.5361 6.40774 14.5291 6.53154 14.5191 6.71694C14.4921 6.84074 14.4517 7.02908 14.4018 7.2579H13.9623L13.9782 7.0989L14.1665 6.98155L13.9823 6.86069C13.997 6.67529 14.0122 6.48988 14.0286 6.28688L14.3408 6.33206L14.4798 5.67787L14.5332 5.6855C14.5256 5.59103 14.5185 5.49716 14.5092 5.37629H14.9034C14.9386 5.18092 14.975 4.97615 15.0149 4.7532L15.3405 4.84825C15.3775 4.63116 15.4109 4.43051 15.445 4.22985H15.4725L15.4262 3.90892L15.8785 3.86609C15.912 3.64255 15.9472 3.40962 15.9818 3.1808L16.2799 2.96958C16.328 2.72903 16.3667 2.53131 16.406 2.333L16.4529 2.3418C16.4588 2.21976 16.4641 2.09772 16.4705 1.95515L16.8226 2.04316C16.8554 1.8425 16.8854 1.65768 16.9188 1.45057L17.3759 1.39601Z" fill="#1D212C"/>
<path d="M43.038 0.454109C41.7863 0.463496 40.5358 0.472492 39.2865 0.481097C38.8107 0.484031 38.3343 0.481097 37.8197 0.481097C37.7792 0.82374 37.7399 1.1523 37.6983 1.5055L37.2483 1.45563V0.490485L37.6003 0.529796L37.7927 0.373142C37.7704 0.293348 37.7476 0.214141 37.71 0.0833034H43.0661C43.0568 0.211794 43.048 0.333245 43.038 0.454109Z" fill="#1D212C"/>
<path d="M94.0422 0.528808C93.8028 0.51238 93.5635 0.482458 93.3241 0.481871C92.0051 0.477178 90.6839 0.481871 89.3667 0.481871C89.1179 0.481871 88.8688 0.481871 88.6192 0.481871C88.6433 0.364528 88.6667 0.247184 88.7008 0.081143H94.0281C93.9759 0.207287 93.9472 0.275348 93.9108 0.357488L94.0422 0.528808Z" fill="#1D212C"/>
<path d="M63.8587 10.1779H65.2604C65.2604 10.2207 65.2668 10.2635 65.2703 10.3064L64.9336 10.3527C64.9212 10.3891 64.9019 10.4472 64.8749 10.5364L66.347 10.7124L66.212 11.0521L67.342 11.1782C67.3221 11.3114 67.3086 11.4029 67.2904 11.5273L68.2585 11.6447C68.2743 11.7808 68.289 11.9105 68.3083 12.0765L68.6698 12.0401L68.8076 12.1844C68.793 12.3235 68.7801 12.4426 68.766 12.574L69.165 12.618V13.0258L68.8129 13.1015C68.776 12.9202 68.7384 12.733 68.6991 12.5406H68.2509C68.2773 12.4062 68.2954 12.3159 68.3224 12.1774L67.677 12.0759C67.6935 11.9374 67.7058 11.8359 67.7199 11.7145L66.2642 11.5549L66.3516 11.2293L66.1211 11.1284C66.096 11.0321 66.0706 10.9359 66.0448 10.8397L65.9339 10.8503C65.9198 10.9435 65.9057 11.0374 65.8923 11.1313L65.2357 11.0967C65.2774 10.9576 65.3032 10.8714 65.3366 10.7587L63.9226 10.5898C63.8957 10.4231 63.8775 10.3005 63.8587 10.1779Z" fill="#1D212C"/>
<path d="M62.8989 15.99C62.8167 16.0082 62.7329 16.0486 62.6519 16.0422C62.1238 16.0076 61.5911 15.963 61.0607 15.9248C61.0501 15.8937 61.0402 15.8626 61.0296 15.8316L61.4297 15.6931L61.4174 15.6209L60.078 15.4297V15.1826L60.3584 15.344C60.3901 15.2654 60.4171 15.1926 60.464 15.0811L59.5898 15.0049C59.5663 15.3569 59.547 15.6503 59.5253 15.9818L59.1357 15.96C59.0324 16.3044 59.1944 16.714 58.9738 17.0126L58.5742 16.9481C58.5938 16.6312 58.6133 16.314 58.6329 15.9964L58.7502 15.987C58.7835 16.1341 58.8171 16.2818 58.8511 16.43L58.9544 16.4253L59.1022 15.0225L59.5927 14.9456C59.5452 14.8142 59.5171 14.7367 59.4637 14.5883L60.0609 14.5619C60.0275 14.7238 60.0093 14.8142 59.9806 14.9532L61.032 15.0542C61.012 15.1762 60.9973 15.2683 60.9733 15.415L62.1708 15.5452C62.2007 15.6356 62.2294 15.716 62.2547 15.801L62.4659 15.9301L62.8989 15.99Z" fill="#1D212C"/>
<path d="M63.3841 18.9137C63.4864 18.8896 63.5904 18.8735 63.6951 18.8655C64.8028 18.8628 65.9105 18.8628 67.0183 18.8655C67.1236 18.8722 67.2285 18.8855 67.3322 18.9054C67.3803 18.9641 67.4225 19.0703 67.4777 19.0773C67.6766 19.1043 67.8807 19.092 68.0814 19.1079C68.1401 19.112 68.1888 19.1636 68.2345 19.2416C66.2984 19.4341 64.3716 19.4024 62.4161 19.3003C62.5035 18.9612 62.7206 19.1659 62.859 19.1243C63.0233 19.0768 63.2005 19.0744 63.3871 19.0509L63.3841 18.9137Z" fill="#1D212C"/>
<path d="M66.8269 16.0024C66.8856 16.0652 66.939 16.1731 67.0029 16.1819C67.1907 16.2083 67.3849 16.1895 67.5761 16.2001C67.6366 16.2135 67.6945 16.2367 67.7475 16.2688C67.7522 16.2969 67.7568 16.3274 67.7621 16.3532C67.6806 16.3873 67.5996 16.4495 67.5175 16.4512C66.4285 16.477 65.3384 16.5099 64.2489 16.5064C63.6979 16.5064 63.1464 16.4354 62.5955 16.3943C62.5638 16.3943 62.5339 16.3632 62.5004 16.2823C62.7093 16.2523 62.9182 16.213 63.1282 16.1954C63.3043 16.1802 63.4803 16.2071 63.6528 16.1807C63.7202 16.1702 63.7701 16.0634 63.8323 16.0047L66.8269 16.0024Z" fill="#1D212C"/>
<path d="M71.1697 3.87486V2.83755L71.5651 2.88214C71.6103 2.42215 71.6537 1.98329 71.7007 1.50688L71.0641 1.41417C71.1093 1.2892 71.1409 1.20354 71.1873 1.07623L69.7469 0.931892C69.7469 0.87322 69.7399 0.783454 69.7346 0.676084L70.0942 0.718328C70.0983 0.632081 70.1013 0.561088 70.1048 0.489509L70.6968 0.556981C70.6774 0.653789 70.6592 0.741796 70.6328 0.872047L72.0744 1.02694C72.2105 1.37897 72.18 2.23558 71.9846 2.54478C71.9054 2.39223 71.8432 2.27371 71.7863 2.16341C71.7277 2.69146 71.6631 3.25705 71.5927 3.87545L71.1697 3.87486Z" fill="#1D212C"/>
<path d="M39.6938 4.34527C39.6685 4.18568 39.6439 4.0261 39.6134 3.83189L40.0575 3.85477V3.43879L40.6231 3.25867C40.6501 3.50744 40.6695 3.68345 40.6865 3.83658L41.1388 3.89819C41.1717 4.38868 41.2016 4.82344 41.2321 5.28108L41.404 5.24001C41.4175 5.11093 41.4281 5.00239 41.4392 4.89385H41.5402C41.5548 5.02175 41.5795 5.14966 41.5836 5.27756C41.5935 5.62959 41.5953 5.98162 41.6006 6.33365H41.1899L41.079 6.22394L41.1617 6.1946C41.1259 5.73989 41.0901 5.28578 41.0532 4.81992L40.5838 4.89209V3.78847L40.1696 3.90582L40.0863 4.44266L39.6938 4.34527Z" fill="#1D212C"/>
<path d="M69.2114 8.69044L68.214 8.73738C68.2245 8.57603 68.231 8.4757 68.2398 8.35014L66.7014 8.18293L66.8604 7.8309L65.3291 7.69947C65.3291 7.65782 65.3291 7.61616 65.3262 7.5745L65.7486 7.48532L65.8026 7.29347L66.8857 7.35214L66.722 7.62731C67.1819 7.83325 67.6889 7.70593 68.1694 7.8661L67.9541 8.12132L68.6171 8.22048L69.2407 8.31025C69.2284 8.46279 69.2196 8.57662 69.2114 8.69044Z" fill="#1D212C"/>
<path d="M59.5388 7.75359L59.9823 7.69492C60.0105 7.87094 60.0363 8.03522 60.0651 8.21299L60.4499 8.16019C60.4805 8.30217 60.5086 8.44533 60.5556 8.65127L61.553 8.76861L61.4034 9.10656L62.4665 9.23799C62.4559 9.35885 62.4465 9.46915 62.436 9.5953L63.9227 9.77131C63.9227 9.81532 63.9227 9.85932 63.9227 9.90332L63.4821 9.92855C63.4674 9.98136 63.4445 10.0653 63.4234 10.1492H62.778L62.9318 9.78774L61.4579 9.62463C61.4943 9.51022 61.5166 9.4316 61.5629 9.29607L60.5409 9.12006C60.4934 8.73634 60.8612 9.03792 60.9481 8.8267L60.048 8.69058C60.0199 8.53451 59.9894 8.3585 59.9571 8.18776H59.5417L59.5388 7.75359Z" fill="#1D212C"/>
<path d="M36.7506 3.16369C36.7722 3.31134 36.7828 3.46038 36.7823 3.6096C36.7653 3.86188 36.7236 4.113 36.6914 4.36411H36.6169L36.52 3.91821L36.398 3.92407C36.3434 4.5237 36.2895 5.12391 36.2314 5.76402L36.0389 5.75463C36.0207 5.56864 36.0067 5.42783 35.9926 5.28526L35.8717 5.28819C35.8326 5.80215 35.7947 6.31592 35.7579 6.8295L35.6329 6.83888C35.6054 6.69338 35.5784 6.54846 35.5432 6.36306L35.3161 6.33489C35.347 5.87021 35.3783 5.40573 35.41 4.94144L35.4651 4.93792C35.4739 5.04001 35.4569 5.15559 35.5003 5.24008C35.5332 5.30403 35.6435 5.3275 35.718 5.36857L35.8418 4.37115C36.1938 4.37409 36.0108 4.62344 36.0583 4.75428L36.1375 4.75956C36.2097 4.27435 36.2818 3.78972 36.3581 3.27575L36.6562 3.3931C36.6878 3.318 36.7189 3.24114 36.7506 3.16369Z" fill="#1D212C"/>
<path d="M13.4931 8.14558V8.70472L13.1005 8.7587C13.0419 9.10369 12.992 9.40408 12.9415 9.70918L12.8242 9.72091L12.7145 9.28557H12.6482C12.5936 9.7344 12.5385 10.1832 12.481 10.6544L12.1354 10.618C12.1072 10.9043 12.0767 11.1912 12.0427 11.5685L11.6907 11.6694L11.6778 11.6225L11.551 11.7357V10.6855L11.9688 10.6667C11.9852 10.567 12.0081 10.432 12.0304 10.2971L11.9717 10.283C12.0163 10.2096 12.0603 10.1363 12.1084 10.0559V9.68864L12.4692 9.75553C12.4745 9.29261 12.61 8.88719 12.9867 8.67831C13.0202 8.46768 13.0454 8.31338 13.0659 8.17902L13.4931 8.14558Z" fill="#1D212C"/>
<path d="M73.1078 15.5922C73.0913 15.4233 73.0626 15.2543 73.0614 15.0847C73.0514 13.9664 73.0479 12.8482 73.0409 11.7299C73.0409 11.714 73.0209 11.6982 73.0016 11.6712L72.6226 11.7064C72.5956 11.4858 72.5721 11.2922 72.5486 11.0974H72.1092V10.1939L72.5639 10.2203C72.5592 10.3241 72.5551 10.4098 72.551 10.4954L72.575 10.4913C72.612 10.6855 72.649 10.8797 72.6924 11.0997H73.0597C73.2145 11.5421 73.0168 12.0631 73.3976 12.4251C73.3818 13.0811 73.3618 13.737 73.3583 14.3924C73.3583 14.4446 73.4709 14.4968 73.5343 14.5491V15.1246L73.2134 14.9668C73.1729 15.1868 73.1406 15.3898 73.1078 15.5922ZM72.5117 10.7477L72.4061 10.7395L72.3908 10.939L72.4976 10.9466L72.5117 10.7477Z" fill="#1D212C"/>
<path d="M46.9103 9.71332L46.6639 9.76612V10.0947L46.5642 10.1111C46.411 9.67518 46.4345 9.20346 46.3999 8.73702L45.9851 8.77633C45.944 8.28173 45.9065 7.82116 45.8677 7.32949L45.6864 7.3688C45.6782 7.52193 45.6718 7.64338 45.6653 7.76484H45.5597C45.4563 7.45871 45.4457 7.12884 45.5292 6.8167L45.9053 6.68352C45.9598 7.04963 46.0121 7.40107 46.069 7.78185L46.3893 7.66744C46.4269 8.00598 46.4632 8.3363 46.5067 8.71414L46.8587 8.78572C46.8734 9.08436 46.8921 9.39884 46.9103 9.71332Z" fill="#1D212C"/>
<path d="M113.705 18.9196C113.776 18.8951 113.85 18.8786 113.926 18.8703C114.624 18.8664 115.323 18.8664 116.023 18.8703C116.099 18.8773 116.174 18.8912 116.247 18.912C116.243 18.9577 116.238 19.0035 116.233 19.0463L116.82 19.1772C116.473 19.4224 113.103 19.4212 112.73 19.1807L113.725 19.0047C113.718 18.9876 113.712 18.9536 113.705 18.9196Z" fill="#1D212C"/>
<path d="M90.5442 4.83743V4.29002L90.928 4.34048V3.33895L91.6531 3.41699C91.6531 3.44515 91.6496 3.47566 91.6484 3.50148L91.9037 3.39117C91.9201 3.49619 91.9324 3.5754 91.953 3.70917L91.6332 3.59476L91.4842 3.81185L91.9706 3.89692C92.0099 4.22607 92.0492 4.55639 92.0879 4.90255L92.4452 4.81337C92.5185 5.1654 92.5485 5.50277 92.4652 5.84423L92.0503 5.79964C92.004 5.33027 91.9541 4.83332 91.9019 4.31056L91.5687 4.41206C91.5575 4.25541 91.5475 4.1187 91.5317 3.9022L91.0001 3.87463C91.0512 4.03832 91.0764 4.11753 91.084 4.14217C91.0342 4.43025 90.9937 4.66669 90.9503 4.92074L90.5442 4.83743Z" fill="#1D212C"/>
<path d="M83.2456 14.536C83.3441 14.8845 83.3042 15.2219 83.2409 15.5334H82.768V16.4722L82.4195 16.4417C82.2986 16.9257 82.4306 17.4655 82.176 18.0135L81.8662 17.4103V16.8893L82.2341 17.0366C82.2581 16.6998 82.2804 16.3912 82.3027 16.0873H82.2787C82.3191 15.8767 82.3602 15.666 82.3995 15.4613L82.7474 15.507C82.7926 15.155 82.8343 14.8294 82.8718 14.5378L83.2456 14.536Z" fill="#1D212C"/>
<path d="M96.3817 17.0582L96.7572 16.8722C96.8094 17.382 96.8593 17.8696 96.9121 18.3789H97.2301C97.2301 18.4006 97.2301 18.4229 97.2272 18.4446H100.869V18.5895C99.7002 18.6699 98.5262 18.6312 97.3246 18.6059L97.3833 18.8635L96.813 18.9251C96.7778 18.5291 96.749 18.2081 96.7179 17.8608L96.4451 17.9782C96.36 17.6707 96.3178 17.3703 96.3817 17.0582Z" fill="#1D212C"/>
<path d="M117.378 18.8335L117.634 18.6916L117.159 18.5854L117.164 18.451L118.611 18.3384C118.596 18.1929 118.584 18.0737 118.567 17.913L119.575 17.8303C119.566 17.6947 119.557 17.5774 119.546 17.4196H120.092C120.083 17.5492 120.074 17.6795 120.063 17.8455H119.672L119.535 17.9928V18.3108L118.495 18.4692C118.554 18.5865 118.589 18.6552 118.671 18.8212L117.378 18.8335Z" fill="#1D212C"/>
<path d="M111.625 15.4609C111.536 15.4837 111.449 15.526 111.358 15.526C111.186 15.526 111.014 15.5008 110.838 15.4855C110.823 15.6891 110.813 15.8188 110.801 15.9783L110.56 15.8921L110.412 16.0429C110.425 16.189 110.435 16.2911 110.448 16.4278L109.961 16.4864C109.934 16.649 109.907 16.8132 109.877 16.9916L109.507 16.9329C109.464 17.0843 109.422 17.2333 109.38 17.3824L109 17.4369C108.991 17.2844 108.984 17.1494 108.975 16.9863L109.352 17.0116L109.434 16.5187L109.894 16.392C109.912 16.1966 109.924 16.0716 109.935 15.9473H110.323C110.378 15.7243 110.426 15.5283 110.473 15.3324L110.532 15.3429C110.513 15.262 110.494 15.1816 110.464 15.0566L111.468 15.0026C111.43 15.1787 111.409 15.269 111.388 15.377L111.625 15.4609ZM110.595 15.5307L110.482 15.621L110.677 15.8452L110.777 15.7607L110.595 15.5307Z" fill="#1D212C"/>
<path d="M38.2174 8.69241V7.70204L38.6146 7.74311C38.6533 7.26669 38.6903 6.80436 38.7319 6.30624L39.2013 6.33205C39.1796 6.7938 39.1579 7.25613 39.1344 7.75073L38.7982 7.63339C38.7395 8.03412 38.6844 8.41607 38.6281 8.80096L38.2174 8.69241Z" fill="#1D212C"/>
<path d="M34.2736 9.258C34.2977 9.55429 34.3212 9.85117 34.347 10.1791L33.9521 10.1545C33.9069 10.6051 33.8618 11.0528 33.8113 11.5503L33.6112 11.5685C33.5977 11.3978 33.5878 11.2751 33.5778 11.149H33.4605C33.4258 11.6184 33.3906 12.0918 33.3531 12.5988L32.9072 12.5284C32.916 12.2115 32.9248 11.8941 32.9348 11.5309L33.3032 11.7005C33.3443 11.3062 33.3824 10.9436 33.4206 10.5535L33.7597 10.6767C33.7884 10.3775 33.8142 10.1023 33.8518 9.70801L34.2736 9.258ZM33.0744 12.208L33.0087 12.2168L33.0398 12.299L33.0785 12.2896C33.0773 12.2626 33.0756 12.235 33.0744 12.208Z" fill="#1D212C"/>
<path d="M17.9764 18.4479V9.12849H18.0726C18.0949 12.1876 18.1145 15.2466 18.1313 18.3053C18.1342 18.3394 18.0603 18.374 17.9764 18.4479Z" fill="#1D212C"/>
<path d="M46.4234 18.8551C46.4316 18.7741 46.4392 18.6925 46.4492 18.5928H50.0634C50.0822 18.3059 50.0986 18.0565 50.115 17.8072C50.1737 17.8576 50.2846 17.9034 50.291 17.9603C50.3245 18.2607 50.3321 18.5646 50.3497 18.8738C49.8046 18.8738 49.3288 18.8738 48.8524 18.8738C48.0427 18.8686 47.2331 18.8609 46.4234 18.8551Z" fill="#1D212C"/>
<path d="M48.8804 14.9465L48.3929 14.9882C48.3571 14.4854 48.3242 14.026 48.2884 13.5214L48.0731 13.6452V13.9849L47.9968 13.989C47.8795 13.4973 47.8642 12.9945 47.8871 12.4876C47.9241 12.5416 47.9605 12.5956 48.0092 12.6636L48.2697 12.4489C48.3383 12.991 48.4052 13.5185 48.4756 14.0706L48.8241 13.9268C48.8464 14.2812 48.8622 14.6139 48.8804 14.9465Z" fill="#1D212C"/>
<path d="M44.0131 12.7789C44.0172 12.8687 44.0207 12.9591 44.0248 13.0494C43.9978 13.0089 43.9702 12.969 43.9738 12.9743L43.5707 13.033C43.532 12.5049 43.4979 12.0473 43.4604 11.5427L43.0996 11.7334C43.0919 11.4236 43.0855 11.1531 43.079 10.8833C43.2809 10.6357 43.3213 10.6175 43.5408 10.6767C43.5799 11.1387 43.6211 11.6002 43.6646 12.0614L43.7661 12.079C43.8101 11.9505 43.8547 11.8226 43.8993 11.6941C44.006 12.0127 44.1339 12.3236 44.0096 12.6622C43.8335 12.6487 43.8335 12.6487 43.8922 12.8488L44.0131 12.7789ZM43.2099 10.9877L43.2239 10.9982V10.9824L43.2099 10.9877Z" fill="#1D212C"/>
<path d="M93.9169 10.1439L94.3088 10.1157C94.628 10.395 94.28 10.8667 94.5294 11.1994L94.8638 11.1513V12.1076H94.3281C94.3475 11.7832 94.3669 11.4581 94.3868 11.0809L93.9761 11.2164C93.9585 10.8415 93.938 10.4924 93.9169 10.1439ZM94.0459 10.51L94.1005 10.5053C94.0929 10.4742 94.0858 10.4437 94.0788 10.4126L94.0459 10.4173V10.51Z" fill="#1D212C"/>
<path d="M88.1113 1.99516C88.1113 2.27972 88.1189 2.56545 88.1049 2.84942C88.0916 3.01308 88.0463 3.17255 87.9717 3.31879C87.9259 3.18443 87.8801 3.05066 87.8338 2.9163L87.7358 2.93919L87.6185 4.44646L87.2623 4.31973C87.258 4.42754 87.2452 4.53484 87.2242 4.64066C87.1937 4.71716 87.1543 4.78982 87.1068 4.85716C87.1379 4.36139 87.1696 3.86503 87.2007 3.37746H87.585C87.6003 3.08411 87.6132 2.8236 87.629 2.50678L87.7599 2.34132L88.0221 2.47333C88.0544 2.30025 88.0831 2.14771 88.1113 1.99516Z" fill="#1D212C"/>
<path d="M88.1247 12.135V11.0912L88.4856 11.1288C88.5501 10.5192 88.6152 9.90608 88.6798 9.29296L88.7783 9.30235V9.62152L89.0987 9.66729C89.076 9.99702 89.0533 10.3268 89.0306 10.6565L88.8998 10.6647L88.8012 10.2147L88.7285 10.2247C88.6557 10.8354 88.5824 11.4468 88.5085 12.0664C88.133 12.1127 88.4815 11.7096 88.228 11.6809C88.1951 11.8241 88.1599 11.9795 88.1247 12.135Z" fill="#1D212C"/>
<path d="M92.978 7.74193L93.4092 7.68326C93.4556 8.06111 93.4984 8.41666 93.5447 8.79802L93.8845 8.68831C93.929 9.14829 93.9731 9.58423 94.0106 10.0202C94.0106 10.0378 93.9519 10.0606 93.922 10.0788C93.8944 9.94916 93.8669 9.81891 93.8387 9.68925L93.746 9.67869C93.7225 9.79603 93.6985 9.91337 93.665 10.0788L93.5577 10.1152C93.4937 9.59596 93.4321 9.10077 93.3711 8.60558L93.3259 8.61321L93.34 8.29638L93.2285 8.29228C93.2363 8.36824 93.2349 8.44487 93.2244 8.52051C93.1982 8.5886 93.1631 8.65291 93.12 8.71178L93.0097 8.69359L92.978 7.74193ZM93.682 8.923L93.5788 8.93004C93.5835 8.99692 93.5876 9.06381 93.5917 9.13011L93.6967 9.12307C93.6891 9.05677 93.6838 8.98988 93.6791 8.923H93.682Z" fill="#1D212C"/>
<path d="M85.2188 9.61067C85.2552 9.97502 85.2704 10.3364 85.1519 10.7178L84.865 10.614C84.8362 10.6673 84.7911 10.7155 84.7869 10.7665C84.7535 11.1303 84.733 11.4952 84.6978 11.8584C84.6907 11.9335 84.6391 12.0045 84.5969 12.1042C84.3985 11.9094 84.6332 11.5727 84.273 11.5568C84.273 11.4735 84.2695 11.3902 84.2671 11.3069L84.412 11.3409C84.4226 11.3192 84.4326 11.2975 84.4431 11.2764L84.2859 11.1831L84.3246 10.658L84.4167 10.6486C84.4514 10.7994 84.4866 10.9501 84.5212 11.1009H84.6268C84.6802 10.6404 84.7336 10.1792 84.7916 9.68342L85.0956 9.72684L85.2188 9.61067Z" fill="#1D212C"/>
<path d="M32.8438 13.0647C32.8673 13.2108 32.9107 13.3581 32.909 13.5024C32.9072 13.6468 32.8597 13.804 32.8257 13.9906L32.581 13.9542C32.6297 13.8416 32.6625 13.767 32.7065 13.665L32.4848 13.591C32.4457 14.094 32.4085 14.5667 32.3733 15.0091H31.8805L31.9949 13.9853L32.2947 14.1261C32.3445 13.7406 32.3915 13.3786 32.4384 13.0114L32.8438 13.0647Z" fill="#1D212C"/>
<path d="M63.4557 6.30391H62.9447C62.9066 6.10091 62.8743 5.92724 62.8385 5.73949L62.4865 5.79816C62.4401 5.29241 62.3879 4.80368 62.4736 4.30028L62.8408 4.34135C62.8483 4.68516 62.8557 5.02898 62.8631 5.37279C62.6777 5.42442 62.6777 5.42443 62.7652 5.62684L62.8684 5.37866C62.9048 5.50715 62.9412 5.63623 62.9858 5.78408H63.3812C63.4035 5.95716 63.4305 6.13024 63.4557 6.30391Z" fill="#1D212C"/>
<path d="M62.023 0.490796C62.0336 0.631608 62.0447 0.772419 62.0588 0.964862L61.0502 1.05404V1.41957L60.4318 1.5287L60.558 1.86195L60.4166 1.9793L60.0024 1.91358V1.49467L60.5562 1.40255C60.521 1.27172 60.4976 1.18136 60.4577 1.03703L61.4715 0.878029C61.4522 0.768313 61.4363 0.677372 61.4076 0.516612L62.023 0.490796Z" fill="#1D212C"/>
<path d="M89.1353 9.14877C89.113 9.0901 89.0684 9.02615 89.0713 8.96689C89.0924 8.57379 89.1235 8.18069 89.1517 7.78759L89.2244 7.7829C89.2309 7.8844 89.2373 7.9859 89.2473 8.13493L89.3928 8.27104L89.4838 8.26342C89.516 7.97358 89.5483 7.68315 89.5894 7.31294C89.5812 7.32232 89.631 7.26659 89.6721 7.21965L90.0353 7.26189V7.76588L89.6651 7.71132C89.6234 8.16309 89.5823 8.60488 89.5366 9.10183L89.4357 9.26436L89.1353 9.14877Z" fill="#1D212C"/>
<path d="M86.6532 5.80563C86.6456 6.13889 86.6438 6.47332 86.6268 6.80657C86.6204 6.92391 86.5781 7.04419 86.5441 7.20026C86.4854 7.04067 86.4397 6.91511 86.3939 6.78956L86.2906 6.80246C86.2478 7.09582 86.2044 7.38918 86.1516 7.74825L85.7203 7.68665V7.21727L86.0894 7.29179C86.1481 6.79073 86.2114 6.30317 86.2754 5.78392L86.5406 5.93119L86.6532 5.80563Z" fill="#1D212C"/>
<path d="M65.3609 7.26726H64.3148C64.3652 7.11061 64.3922 7.02612 64.4321 6.89587L63.3795 6.73335C63.4218 6.57141 63.4546 6.44586 63.4881 6.32265H64.3371L64.3552 6.47343L63.9252 6.5808L63.9305 6.67116L64.7624 6.77148V6.78557L65.3004 6.84952C65.3233 6.99737 65.3421 7.13232 65.3609 7.26726ZM63.6717 6.41652C63.6717 6.44351 63.6752 6.4705 63.6764 6.49749L63.8225 6.47285L63.8172 6.41417L63.6717 6.41652Z" fill="#1D212C"/>
<path d="M109.396 17.4126H109.883C109.903 17.53 109.928 17.6784 109.96 17.8591L110.878 17.9243V18.264L110.98 18.474L109.968 18.3309C109.947 18.1942 109.926 18.0557 109.91 17.9501L109.353 17.8632C109.372 17.6761 109.385 17.5447 109.396 17.4126Z" fill="#1D212C"/>
<path d="M10.0693 10.1896C9.99931 10.3042 9.92929 10.4182 9.85928 10.5316L9.91795 10.5962L9.68326 10.6683L9.5225 9.58465L9.1382 9.73603C9.13175 9.35877 9.1253 9.01671 9.11943 8.67524L9.57414 8.78613C9.59878 9.04488 9.58235 9.32181 9.66214 9.56705C9.72082 9.75363 9.90739 9.89913 10.0318 10.0669C10.0511 10.1054 10.0638 10.1469 10.0693 10.1896ZM9.52602 9.2913L9.40516 9.27135L9.37935 9.48726L9.48202 9.50369L9.52602 9.2913Z" fill="#1D212C"/>
<path d="M7.65295 5.80263L7.27217 5.99918C7.21056 5.76449 7.1472 5.52453 7.08442 5.28515L6.72065 5.32622V4.38747H7.11199C7.15541 4.70723 7.19883 5.03286 7.244 5.37081L7.65471 5.28221L7.65295 5.80263Z" fill="#1D212C"/>
<path d="M47.8884 12.3694L47.7904 12.1412L47.7012 12.1365C47.6883 12.2567 47.676 12.377 47.6578 12.5472L47.4818 12.5613C47.4231 12.0608 47.375 11.6061 47.3228 11.1361L46.9708 11.1807C46.9496 10.9355 46.9291 10.7014 46.9086 10.4678L47.0963 10.5553L47.3662 10.4667C47.4249 10.8774 47.4836 11.2623 47.5422 11.6689L47.8714 11.4447C47.8755 11.8015 47.8819 12.0854 47.8884 12.3694Z" fill="#1D212C"/>
<path d="M12.9898 16.0056V14.9583H13.5149C13.5301 14.7764 13.5413 14.6462 13.5548 14.489L13.9191 14.594V15.0804L13.5636 14.9525V15.3344L13.5472 15.3285C13.5108 15.5192 13.4738 15.7099 13.4374 15.9012L12.9898 16.0056Z" fill="#1D212C"/>
<path d="M84.2055 12.3624C84.2178 12.6024 84.2301 12.843 84.2448 13.1334L83.8752 12.9932C83.8007 13.4889 83.7285 13.9701 83.6569 14.4517H83.5895C83.5771 14.4013 83.5619 14.352 83.5531 14.301C83.5443 14.2499 83.5425 14.2059 83.5343 14.1249L83.2773 14.0504V13.4772L83.6645 13.5388C83.7109 13.09 83.7555 12.6587 83.8065 12.1636H84.0999C84.0893 12.3161 84.0829 12.4129 84.0764 12.5097L84.1304 12.5232L84.2055 12.3624ZM83.9286 12.7673H83.9767C83.9767 12.7438 83.9808 12.7203 83.9825 12.6969L83.9133 12.701C83.918 12.7221 83.9233 12.7444 83.9286 12.7673Z" fill="#1D212C"/>
<path d="M97.3093 7.80288L97.0975 7.82518C97.1168 7.9261 97.1327 8.00765 97.1526 8.11443L96.9003 8.32741C96.8341 7.78059 96.776 7.30535 96.7167 6.81427L96.3254 6.84302C96.3389 6.57782 96.3518 6.33433 96.3647 6.09085C96.3964 6.18061 96.4286 6.27038 96.4644 6.37188L96.7408 6.16477C96.7994 6.58251 96.847 6.95684 96.898 7.3382L97.2823 7.27953C97.2923 7.46846 97.3005 7.63567 97.3093 7.80288Z" fill="#1D212C"/>
<path d="M96.3634 5.87029H95.9997L95.9122 5.91547C95.8676 5.40561 95.8231 4.89634 95.7767 4.36888L95.4182 4.40115V3.89364H95.8424C95.8729 4.24567 95.9011 4.549 95.9181 4.75963C96.1059 5.02072 96.2414 5.20906 96.3622 5.37803L96.3634 5.87029Z" fill="#1D212C"/>
<path d="M45.4148 5.80695C45.3679 5.89261 45.3151 5.97593 45.2757 6.06511C45.2364 6.15429 45.2171 6.24582 45.1842 6.33676L45.0475 6.31622C44.9982 5.83922 44.9495 5.36281 44.8985 4.86997L44.4878 4.91808C44.5112 4.70568 44.5318 4.52087 44.5523 4.33664L44.9489 4.29381C44.9847 4.59656 45.0199 4.89226 45.0551 5.18738L45.0029 5.20205L45.142 5.38686L45.3227 5.23784L45.4136 5.24312L45.4148 5.80695Z" fill="#1D212C"/>
<path d="M95.3297 2.99163C95.2893 3.06145 95.2435 3.12892 95.2124 3.20226C95.1806 3.29604 95.1321 3.3833 95.0692 3.45983C94.787 2.98517 94.9437 2.45068 94.8193 1.94317L94.4503 2.00184C94.4344 1.81057 94.4197 1.63044 94.4051 1.45032L94.8686 1.42451C94.9079 1.76422 94.9478 2.10979 94.99 2.47356H95.2247L95.2194 2.46828L95.3116 2.54866C95.3145 2.69885 95.3221 2.84554 95.3297 2.99163Z" fill="#1D212C"/>
<path d="M91.9291 12.1359L92.0276 12.5096C92.0065 12.553 91.9649 12.6381 91.9267 12.7173V13.0353L91.8405 13.0506L91.712 12.5425L91.5993 12.5519V13.4202L91.4098 13.6508L91.0502 13.5997L91.1018 13.0077L91.4239 13.1896C91.4345 12.9673 91.4362 12.7719 91.455 12.5777C91.472 12.4017 91.5084 12.2321 91.5395 12.0397L91.9291 12.1359Z" fill="#1D212C"/>
<path d="M71.1845 9.71857L70.6758 9.69275L70.6312 9.29965L69.2483 9.16647C69.2425 9.11718 69.2372 9.06848 69.2319 9.0192L69.5839 8.91242C69.5998 8.93354 69.6156 8.95407 69.6309 8.9752C69.659 8.91066 69.6895 8.84553 69.7148 8.78099H70.3015L70.1255 9.06731L70.8841 9.20284L71.1358 9.17409C71.1487 9.36302 71.1663 9.54079 71.1845 9.71857Z" fill="#1D212C"/>
<path d="M59.0694 2.8598L59.05 3.99744H58.9966L58.9438 4.87165H58.8781V3.9153L58.5807 3.87893C58.3988 3.56562 58.59 3.3239 58.7479 3.09508L59.0694 2.8598ZM58.776 3.60083C58.776 3.5844 58.776 3.56797 58.776 3.55095L58.705 3.54509L58.7086 3.61725L58.776 3.60083Z" fill="#1D212C"/>
<path d="M70.7067 17.9507C70.7155 17.6227 70.9807 17.9225 71.0974 17.7635C71.0904 17.7078 71.0792 17.618 71.0581 17.4485L71.6947 17.3493L71.5897 17.063C71.7499 16.8248 71.947 17.0313 72.1177 17.0043C72.1318 17.1093 72.1465 17.2144 72.1705 17.3916L71.6179 17.5042C71.6372 17.5922 71.6583 17.6884 71.69 17.8339L71.284 17.8885L71.2752 17.8515L71.0487 17.9818L70.7067 17.9507Z" fill="#1D212C"/>
<path d="M0.613508 18.8777L0.433386 18.7099L0.44512 18.6394H3.74657C3.75244 18.667 3.77004 18.7451 3.78764 18.8225L3.5424 18.8911L2.78905 18.8577C2.73566 18.8284 2.68286 18.7761 2.62888 18.775C2.30188 18.7668 1.97508 18.7668 1.64848 18.775C1.5945 18.775 1.54169 18.8284 1.48772 18.8571L0.613508 18.8777Z" fill="#1D212C"/>
<path d="M11.5249 12.1347C11.5419 12.2949 11.5584 12.4556 11.5777 12.6387L10.6026 12.58C10.5803 12.2415 10.5586 11.9176 10.5375 11.5938C10.5961 11.7481 10.6548 11.9024 10.7422 12.1347H11.5249Z" fill="#1D212C"/>
<path d="M100.733 16.9939L100.257 16.9417C100.247 16.8132 100.238 16.6437 100.22 16.4723C100.196 16.2623 100.161 16.054 100.144 15.8434C100.14 15.7982 100.202 15.7483 100.238 15.7002C100.258 15.8005 100.277 15.9003 100.297 16.0129L100.664 15.9484C100.69 16.3098 100.712 16.6519 100.733 16.9939Z" fill="#1D212C"/>
<path d="M6.74942 11.6541L7.139 11.5955C7.18183 11.8049 7.21703 11.9739 7.25634 12.157L7.64064 12.0983C7.6864 12.3042 7.73099 12.509 7.78204 12.7366L7.66469 12.7871L7.59018 12.624L7.33203 12.7096L7.16188 12.5031V12.1599L6.72712 12.1165C6.7324 11.9563 6.74062 11.8049 6.74942 11.6541Z" fill="#1D212C"/>
<path d="M17.42 7.3058C17.4106 7.11864 17.4012 6.93089 17.3906 6.71908L17.779 6.74255C17.7949 6.60291 17.8095 6.47501 17.8295 6.29723L18.4074 6.26438C18.3658 6.45682 18.3341 6.60057 18.3024 6.7449L17.9099 6.8112V7.25828L17.42 7.3058Z" fill="#1D212C"/>
<path d="M87.1767 14.7715C87.1479 14.7509 87.0928 14.7292 87.0939 14.7128C87.1104 14.3473 87.1344 13.9818 87.1585 13.584L87.6443 13.5423V14.5984L87.2588 14.5315C87.2301 14.6137 87.2031 14.6929 87.1767 14.7715Z" fill="#1D212C"/>
<path d="M111.105 18.5889L111.142 18.3783L112.365 18.437L112.385 18.5742L111.923 18.6957L112.107 18.8353C111.953 18.8869 111.79 18.9067 111.628 18.8936C111.465 18.8805 111.308 18.8347 111.164 18.7591C111.126 18.7374 111.123 18.6464 111.105 18.5889Z" fill="#1D212C"/>
<path d="M117.199 14.9987V15.5649H116.701C116.711 15.7087 116.718 15.819 116.73 15.9997L116.207 15.9381C116.193 15.8342 116.178 15.7304 116.154 15.5638L116.447 15.501L116.774 15.4323C116.757 15.2874 116.747 15.1935 116.732 15.0633L117.199 14.9987Z" fill="#1D212C"/>
<path d="M34.8074 18.4102V17.4128L35.3231 17.347C35.3043 17.6821 35.285 18.0171 35.2645 18.375L34.8074 18.4102Z" fill="#1D212C"/>
<path d="M88.5907 0.508508C88.7755 0.822988 88.6165 1.14275 88.6024 1.45899C88.5856 1.62043 88.5589 1.78071 88.5226 1.93892L88.1378 1.82745L88.1342 1.69661L88.3543 1.6485L88.3472 1.55345L88.1301 1.53174C88.1419 1.33284 88.1536 1.13395 88.1677 0.902196L88.4851 1.01484L88.5907 0.508508Z" fill="#1D212C"/>
<path d="M63.4277 3.40493C63.4353 3.26705 63.4435 3.12859 63.4564 2.91678H64.4779L64.2866 3.08048L64.8375 3.1855V3.28583L63.8284 3.33159C63.8178 3.26295 63.8079 3.19371 63.792 3.08928L63.616 3.20662L63.7204 3.35917L63.4277 3.40493Z" fill="#1D212C"/>
<path d="M86.1926 17.469C86.2072 17.1011 86.2166 16.7326 86.2413 16.3659C86.2477 16.2615 86.2999 16.1606 86.3316 16.0585L86.4343 16.0949L86.3451 16.3695L86.6496 16.4704V17.4977L86.3416 17.334C86.3574 17.2202 86.3709 17.1293 86.3839 17.0407H86.2958C86.3117 17.1275 86.3269 17.2167 86.3545 17.3493L86.1926 17.469Z" fill="#1D212C"/>
<path d="M73.5297 14.5491C73.471 14.4968 73.3537 14.4446 73.3537 14.3924C73.3572 13.7371 73.3772 13.0811 73.393 12.4252C73.4458 12.5108 73.545 12.5965 73.5455 12.6827C73.5532 13.3046 73.5385 13.9266 73.5297 14.5491Z" fill="#1D212C"/>
<path d="M59.9999 1.91686V2.44783L59.6391 2.41087C59.6074 2.53526 59.574 2.66785 59.5217 2.88025C59.4238 3.03103 59.236 2.84915 59.07 2.86206V2.40911H59.4807C59.5118 2.22958 59.5394 2.06353 59.5699 1.89632L59.9999 1.91686Z" fill="#1D212C"/>
<path d="M99.7211 14.1289L99.4911 14.146C99.5122 14.2633 99.5268 14.3437 99.5497 14.4622L99.2611 14.5514C99.2505 14.0093 99.2411 13.5246 99.2311 13.0394C99.2675 13.2154 99.3039 13.3955 99.3432 13.5868L99.7228 13.5135L99.7211 14.1289Z" fill="#1D212C"/>
<path d="M112.84 15.9693H111.822C111.849 15.7698 111.867 15.639 111.886 15.5081L112.842 15.5668C112.787 15.6941 112.755 15.7692 112.719 15.8531L112.84 15.9693Z" fill="#1D212C"/>
<path d="M37.2172 1.6412C37.2495 1.71161 37.3111 1.78319 37.3087 1.85301C37.3005 2.15106 37.2776 2.44911 37.25 2.74658C37.2332 2.82116 37.2066 2.89317 37.1708 2.96073L36.7818 2.86451C36.7908 2.54651 36.7994 2.22831 36.8077 1.90992L36.9573 1.89642L37.0934 2.39631C37.1392 2.11879 37.1779 1.87999 37.2172 1.6412Z" fill="#1D212C"/>
<path d="M87.659 13.088C87.659 12.807 87.659 12.5259 87.6678 12.2455C87.6678 12.1868 87.7323 12.1323 87.7675 12.0759L87.8455 12.0953C87.8596 12.2314 87.8731 12.3669 87.8913 12.5406H88.1078C88.0837 12.8621 88.0603 13.1831 88.0327 13.5545C87.8045 13.4078 88.0691 12.9906 87.659 13.088Z" fill="#1D212C"/>
<path d="M121.095 15.9091V15.0332L121.533 15.0009C121.511 15.3271 121.488 15.6539 121.466 15.9772L121.095 15.9091Z" fill="#1D212C"/>
<path d="M16.8644 8.74177L16.9231 7.70269L17.0117 7.73789H17.3837C17.3649 8.04944 17.3461 8.36099 17.325 8.70539L17.0844 8.6385C17.0932 8.52116 17.1003 8.42435 17.1079 8.33106C17.0217 8.47481 16.943 8.60799 16.8644 8.74177ZM17.1636 8.01013V8.05824L17.2335 8.06411C17.2335 8.04064 17.2335 8.01776 17.2294 7.99429L17.1636 8.01013Z" fill="#1D212C"/>
<path d="M44.0634 13.5443L44.2741 13.5003C44.2829 13.3196 44.2893 13.1823 44.2964 13.045L44.4137 13.0403C44.4483 13.2292 44.4906 13.417 44.5158 13.6065C44.5422 13.8083 44.5563 14.0113 44.5651 14.2143C44.5651 14.2413 44.5064 14.273 44.473 14.2994C44.4466 14.209 44.4196 14.1193 44.3844 14.0025L44.0846 14.2008C44.0775 13.9421 44.0705 13.7432 44.0634 13.5443Z" fill="#1D212C"/>
<path d="M37.7452 10.2015C37.6828 9.85184 37.7072 9.49223 37.8162 9.1542L37.9382 9.14188C37.9664 9.23692 37.9881 9.33491 38.0239 9.42702C38.0601 9.51043 38.1006 9.5919 38.1453 9.67109V10.3347L37.8731 10.1L37.7452 10.2015Z" fill="#1D212C"/>
<path d="M70.6401 3.92468L71.1681 3.87423C71.157 4.02208 71.1458 4.17052 71.1306 4.38232L70.2218 4.27613C70.2218 4.2333 70.2182 4.19105 70.2159 4.14822C70.2992 4.12658 70.3839 4.11031 70.4694 4.09953C70.5885 4.0919 70.7011 4.09542 70.6401 3.92468Z" fill="#1D212C"/>
<path d="M85.6282 8.7277C85.6509 8.88211 85.6656 9.03761 85.6722 9.19355C85.6683 9.34979 85.6324 9.50358 85.5665 9.64532C85.5155 9.49806 85.4645 9.35197 85.387 9.12901L85.2233 9.5004C85.1576 9.19825 85.2315 8.91369 85.282 8.59451C85.4357 8.65377 85.5319 8.69074 85.6282 8.7277Z" fill="#1D212C"/>
<path d="M100.193 15.0636H99.838L99.7289 14.9521V14.5361L100.003 14.6458C100.053 14.4651 100.094 14.3132 100.115 14.2351C100.136 14.4546 100.165 14.7591 100.193 15.0636Z" fill="#1D212C"/>
<path d="M31.4374 16.4418V17.363L31.1211 17.3947C31.1387 17.2591 31.1505 17.1688 31.1657 17.0555L30.9897 16.9969V16.4612L31.2831 16.5539L31.4374 16.4418Z" fill="#1D212C"/>
<path d="M69.2354 14.8891C69.2266 15.0868 69.2172 15.2846 69.2061 15.5151L68.8617 15.4864L68.8464 15.5632L68.465 15.4835L68.6698 15.4365C68.6985 15.2564 68.7238 15.0974 68.7396 14.9959L69.2354 14.8891Z" fill="#1D212C"/>
<path d="M44.0042 1.99889L43.813 2.04759C43.8212 2.16493 43.8282 2.26878 43.8364 2.39023H43.6017C43.5818 2.0558 43.5624 1.73311 43.5431 1.40983L43.7009 1.54067L43.9761 1.46263C43.986 1.65508 43.9948 1.82698 44.0042 1.99889Z" fill="#1D212C"/>
<path d="M43.536 1.06084L43.2931 1.00217C43.2785 1.16469 43.2656 1.30491 43.2526 1.44514L43.147 1.44807C43.0543 1.14415 43.008 0.834953 43.0884 0.509325L43.4891 0.450653C43.5073 0.669499 43.5208 0.864875 43.536 1.06084Z" fill="#1D212C"/>
<path d="M39.2272 5.86743V4.84419L39.371 4.83598C39.3833 4.96271 39.3956 5.08944 39.4132 5.2725L39.6168 5.33821V5.86625L39.2272 5.86743Z" fill="#1D212C"/>
<path d="M16.4013 9.2798V8.70071L16.8648 8.7406V9.62655H16.6007V9.30151L16.4013 9.2798Z" fill="#1D212C"/>
<path d="M99.1972 12.6164L98.793 12.6751V12.1312H99.1034V11.744H99.1186C99.1452 12.0342 99.1714 12.325 99.1972 12.6164Z" fill="#1D212C"/>
<path d="M68.2739 2.94676L68.7567 2.92153C68.7356 3.09755 68.721 3.21489 68.7069 3.33575L67.723 3.31698C67.7183 3.26946 67.7142 3.22193 67.71 3.17441C67.818 3.16129 67.9245 3.13891 68.0286 3.10752C68.1159 3.06296 68.1982 3.00905 68.2739 2.94676Z" fill="#1D212C"/>
<path d="M98.3358 11.1283C98.2942 11.0696 98.2302 11.0139 98.2185 10.9482C98.198 10.8502 98.2132 10.7446 98.2132 10.6067L97.8858 10.7346C97.7855 10.534 97.728 10.3597 97.9005 10.1825L98.1939 10.0294C98.3085 10.3838 98.3566 10.7564 98.3358 11.1283Z" fill="#1D212C"/>
<path d="M86.7198 15.9248C86.7245 15.8696 86.7297 15.8145 86.7344 15.7593L86.8418 15.6572L86.7614 15.5505C86.5748 15.348 86.6511 15.1574 86.7432 14.9673L86.8494 14.9508C86.8876 15.0858 86.9263 15.2207 86.9738 15.3891L87.1275 15.4196V16.0239L86.7198 15.9248Z" fill="#1D212C"/>
<path d="M5.70103 9.21138C5.7644 9.35219 5.82835 9.493 5.90404 9.66021L6.20561 9.62794V10.18H5.77613C5.75267 9.87436 5.72685 9.54287 5.70103 9.21138Z" fill="#1D212C"/>
<path d="M69.2365 18.8249C69.1614 18.7663 69.0939 18.6871 69.0089 18.6489C68.9119 18.6181 68.8117 18.5984 68.7102 18.5903L68.7149 18.4665L69.7123 18.4154C69.7252 18.5245 69.7387 18.6343 69.7546 18.7674C69.6161 18.9393 69.419 18.8337 69.2365 18.8249Z" fill="#1D212C"/>
<path d="M5.25341 1.46524C5.08385 1.46524 4.89375 1.63128 4.7987 1.47698C4.74942 1.22234 4.70718 1.04926 4.68664 0.873246C4.68077 0.819268 4.73417 0.755903 4.76057 0.700165L4.8738 1.02403L5.21703 0.937197L5.25341 1.46524Z" fill="#1D212C"/>
<path d="M8.68733 15.0194L9.11094 14.9642C9.1303 15.3163 9.14966 15.6612 9.16961 16.0086L8.83225 15.5551L8.77358 15.5375C8.74014 15.3427 8.71491 15.1807 8.68733 15.0194Z" fill="#1D212C"/>
<path d="M60.9703 18.4589H61.8803C61.8803 18.4947 61.8844 18.5299 61.8861 18.5657C61.6673 18.5944 61.4461 18.6126 61.2308 18.6589C61.1533 18.676 61.09 18.761 61.0201 18.8144H60.4252L60.6311 18.4512L60.6951 18.4595C60.7866 18.6067 60.8787 18.6337 60.9703 18.4589Z" fill="#1D212C"/>
<path d="M6.25056 10.6075L6.54098 10.5805V10.2366L6.64542 10.2331V11.0821L6.29339 11.1994C6.2752 10.9812 6.26229 10.794 6.25056 10.6075Z" fill="#1D212C"/>
<path d="M72.139 16.9776V16.419L72.5074 16.4589C72.5465 16.3654 72.5856 16.2725 72.6248 16.1802C72.6529 16.2154 72.7104 16.2571 72.7046 16.2852C72.6541 16.5123 72.5925 16.737 72.535 16.9588L72.139 16.9776Z" fill="#1D212C"/>
<path d="M8.13263 13.8319L8.31803 14.0526L8.67006 14.0121C8.65481 14.2121 8.6419 14.3882 8.62899 14.5636H8.17957C8.16255 14.3095 8.1473 14.0707 8.13263 13.8319Z" fill="#1D212C"/>
<path d="M15.0022 12.1025V11.5428L15.3102 11.6549L15.4657 11.3697V12.1665L15.0022 12.1025Z" fill="#1D212C"/>
<path d="M49.3422 16.0047H48.8934C48.9081 15.8392 48.9245 15.6568 48.9409 15.4767L49.2284 15.3229C49.4255 15.5107 49.3557 15.7641 49.3422 16.0047Z" fill="#1D212C"/>
<path d="M59.0343 7.208H59.4984C59.7331 7.33356 59.5084 7.56473 59.5395 7.75424L58.988 7.69967L59.1088 7.46909L59.0343 7.208Z" fill="#1D212C"/>
<path d="M58.5889 6.29376L58.9321 6.24624C59.0829 6.39292 59.1404 6.77428 59.0424 6.98198C59.009 6.90571 58.9761 6.82885 58.9362 6.73615L58.6288 6.85349L58.5889 6.29376Z" fill="#1D212C"/>
<path d="M117.665 14.4761L117.723 14.8786C117.587 15.1843 117.366 14.9455 117.199 14.9959L117.155 14.6322L117.281 14.4561L117.474 14.5887L117.665 14.4761Z" fill="#1D212C"/>
<path d="M101.185 17.881L100.833 17.9649C100.715 17.81 100.651 17.3336 100.738 17.2374L100.837 17.4234L101.189 17.3412L101.185 17.881Z" fill="#1D212C"/>
<path d="M37.2969 11.1467L37.2101 10.651L37.7287 10.607C37.717 10.8123 37.7053 11.0177 37.6906 11.2705L37.2969 11.1467Z" fill="#1D212C"/>
<path d="M85.7188 18.4645V17.8573L85.9958 17.9646L86.1788 17.8743C86.1712 18.0896 86.2874 18.3313 86.0615 18.5009L85.7188 18.4645Z" fill="#1D212C"/>
<path d="M8.65641 7.73382H8.14948C8.16708 7.51204 8.17882 7.36066 8.19055 7.20929L8.65641 7.25212V7.73382Z" fill="#1D212C"/>
<path d="M35.8215 15.5C35.8133 15.3509 35.8051 15.2019 35.7957 15.0212H36.2909C36.2727 15.1908 36.2539 15.3603 36.2363 15.5252L35.8215 15.5Z" fill="#1D212C"/>
<path d="M4.81321 7.76124L5.27436 7.67851C5.23681 7.86568 5.20748 8.01412 5.17814 8.16255L4.92292 8.34268C4.71405 8.16431 4.74339 7.96659 4.81321 7.76124Z" fill="#1D212C"/>
<path d="M8.18219 6.85763H7.72514V6.31023L8.11413 6.25918L8.18219 6.85763Z" fill="#1D212C"/>
<path d="M68.2828 15.5172C68.2998 15.6386 68.3174 15.7607 68.3361 15.8956C68.173 16.0253 68.0023 16.0435 67.8198 15.9296C67.7993 15.8205 67.7788 15.7108 67.7483 15.55L68.2828 15.5172Z" fill="#1D212C"/>
<path d="M59.4373 17.9337H60.0293C60.0182 18.0968 60.0088 18.237 59.9994 18.3766H59.53C59.4884 18.183 59.4626 18.0581 59.4373 17.9337Z" fill="#1D212C"/>
<path d="M58.5636 17.4057L59.0734 17.4468C59.05 17.6293 59.0335 17.7607 59.0148 17.8927H58.5213L58.5636 17.4057Z" fill="#1D212C"/>
<path d="M13.9236 7.31419C13.9388 7.46497 13.9535 7.61576 13.9723 7.80058L13.6302 7.7419C13.5851 7.82052 13.5411 7.89914 13.4965 7.97659C13.3639 7.71726 13.544 7.52658 13.6167 7.29952L13.9236 7.31419Z" fill="#1D212C"/>
<path d="M40.6108 12.6028H40.2353C40.2353 12.6028 40.1848 12.5494 40.1338 12.496C40.1555 12.371 40.1754 12.2613 40.1924 12.1469L40.6078 12.0988L40.6108 12.6028ZM40.5316 12.2684C40.5251 12.2519 40.5233 12.2296 40.5122 12.2232C40.501 12.2167 40.4823 12.2279 40.4664 12.2314C40.4746 12.2513 40.4823 12.2707 40.4899 12.2901L40.5316 12.2684Z" fill="#1D212C"/>
<path d="M14.0059 14.036V13.535H14.4407V14.036H14.0059Z" fill="#1D212C"/>
<path d="M120.132 17.3914C120.111 17.2741 120.09 17.1568 120.058 16.9737L120.592 16.9326C120.581 17.0787 120.57 17.226 120.558 17.3914H120.132Z" fill="#1D212C"/>
<path d="M41.6239 6.79532H42.0598C42.0522 6.94904 42.0428 7.12916 42.0334 7.30928L41.6485 7.35387C41.6409 7.17375 41.6327 6.98424 41.6239 6.79532ZM41.7682 7.07107L41.726 7.07694C41.7307 7.10921 41.7359 7.14207 41.7406 7.17434L41.7823 7.16847L41.7682 7.07107Z" fill="#1D212C"/>
<path d="M15.9903 10.1592L15.9316 9.61887L16.401 9.73621V10.2854L15.9903 10.1592Z" fill="#1D212C"/>
<path d="M15.4625 11.1987C15.456 11.0537 15.4496 10.9088 15.4408 10.7076L15.9172 10.6683V11.157L15.4625 11.1987Z" fill="#1D212C"/>
<path d="M90.9955 14.438C90.9955 14.6203 90.9955 14.8028 90.9955 14.9854L90.4551 14.9702C90.5226 14.7572 90.5648 14.6246 90.59 14.5454L90.9955 14.438Z" fill="#1D212C"/>
<path d="M70.2227 18.3891C70.2057 18.2583 70.1893 18.1275 70.1641 17.9315L70.681 17.9779C70.7003 18.0794 70.7197 18.1815 70.7549 18.3686L70.2227 18.3891Z" fill="#1D212C"/>
<path d="M81.7841 18.522C81.7971 18.6271 81.8105 18.7327 81.824 18.8377H81.3506C81.3799 18.5349 81.4092 18.2592 81.4345 17.984L81.5401 17.9699C81.5843 18.1655 81.6285 18.3621 81.6727 18.5596L81.7841 18.522Z" fill="#1D212C"/>
<path d="M10.5367 11.593L10.1296 11.6986V11.1172L10.4745 11.0714C10.6511 11.1935 10.5027 11.4123 10.5367 11.593Z" fill="#1D212C"/>
<path d="M9.16839 16.0076C9.3444 16.0123 9.55268 15.8316 9.67472 16.088C9.63952 16.2054 9.60842 16.318 9.57674 16.4271L9.16604 16.4893L9.16839 16.0076Z" fill="#1D212C"/>
<path d="M87.0858 4.89092C87.1263 5.05813 87.2718 5.23767 87.0372 5.3732L86.6851 5.32333V4.77123L87.0858 4.89092Z" fill="#1D212C"/>
<path d="M6.2132 3.32282L5.80249 3.40144V2.89628L6.2132 2.84641V3.32282Z" fill="#1D212C"/>
<path d="M42.0909 8.26118L42.5398 8.2207C42.531 8.39143 42.5222 8.55219 42.514 8.71354L42.108 8.78277C42.1021 8.59502 42.0991 8.42781 42.0909 8.26118Z" fill="#1D212C"/>
<path d="M14.5328 13.0411L14.4648 12.7025C14.5868 12.4432 14.7775 12.6439 14.9242 12.6028V13.105L14.5328 13.0411Z" fill="#1D212C"/>
<path d="M39.3234 12.1146C39.1664 12.1434 39.0079 12.1642 38.8488 12.1768C38.5378 12.1874 38.2257 12.1879 37.9147 12.1768C37.8337 12.1768 37.7551 12.1181 37.6748 12.0829C38.1312 12.0829 38.5877 12.0753 39.0436 12.077C39.1376 12.0832 39.2311 12.0958 39.3234 12.1146Z" fill="#1D212C"/>
<path d="M42.6273 9.72329L43.0151 9.66462V10.141L42.6889 10.1886C42.51 10.0783 42.6455 9.88522 42.6273 9.72329Z" fill="#1D212C"/>
<path d="M35.3232 6.72971C35.2751 6.85996 35.2264 6.99021 35.1789 7.12105C35.1789 7.12516 35.1918 7.13396 35.251 7.19028C35.2358 7.16623 35.2581 7.20202 35.3255 7.31173L34.8562 7.26714V6.78486L35.1302 6.84353L35.3232 6.72971Z" fill="#1D212C"/>
<path d="M92.524 6.38711L92.876 6.28854C93.0262 6.43933 92.9347 6.62649 92.8995 6.80544L92.5844 6.95622L92.517 6.68223L92.7 6.6435C92.7 6.61358 92.7 6.58483 92.7 6.55491L92.5193 6.5109L92.524 6.38711Z" fill="#1D212C"/>
<path d="M9.10009 8.27166L8.92407 8.30628C8.8877 8.46058 8.86247 8.56913 8.83724 8.67767L8.70933 8.65772V8.14786H8.92583L8.86188 7.82928L9.06899 7.76356L9.10009 8.27166Z" fill="#1D212C"/>
<path d="M98.7362 11.5457L98.4429 11.6807C98.2246 11.5287 98.3061 11.3392 98.3566 11.1526L98.7339 11.0822L98.7362 11.5457Z" fill="#1D212C"/>
<path d="M63.3771 0.0582679L62.991 0.175611L63.4733 0.304102C63.2897 0.558737 63.0996 0.471316 62.9206 0.441394C62.8889 0.341065 62.8567 0.24015 62.7992 0.060028L63.3771 0.0582679Z" fill="#1D212C"/>
<path d="M72.0892 10.1472L71.6985 10.1948C71.6774 10.054 71.6551 9.90141 71.6322 9.74535L72.0892 9.79287V10.1472Z" fill="#1D212C"/>
<path d="M41.0799 14.009L40.6692 14.114C40.688 13.9568 40.705 13.8101 40.7226 13.664L40.9139 13.4991C41.219 13.6059 41.0799 13.8289 41.0799 14.009Z" fill="#1D212C"/>
<path d="M95.8307 15.0608C95.853 15.2254 95.8757 15.3903 95.8988 15.5554L95.7227 15.3887L95.454 15.4474L95.4288 15.0156L95.5831 15.0197C95.6019 15.1054 95.6212 15.1916 95.6418 15.2773L95.7468 15.2632L95.8307 15.0608Z" fill="#1D212C"/>
<path d="M63.0086 3.85524L62.8965 3.51905C63.0297 3.30607 63.2485 3.43046 63.4281 3.40464C63.4116 3.49852 63.3958 3.59239 63.3794 3.68627L63.167 3.71619C63.157 3.76254 63.1476 3.80772 63.1376 3.85231L63.0086 3.85524Z" fill="#1D212C"/>
<path d="M44.4379 3.29766L44.077 3.45666V2.92451L44.4079 2.86584C44.4167 2.89987 44.4297 2.95091 44.4431 3.00196L44.2777 3.08116L44.4314 3.15626C44.4338 3.20379 44.4355 3.24838 44.4379 3.29766Z" fill="#1D212C"/>
<path d="M96.272 15.9998C96.4744 16.1171 96.374 16.2673 96.3201 16.4105L95.9252 16.485C95.9352 16.3196 95.9452 16.1652 95.9551 16.0115L96.1552 16.001L96.201 16.1958L96.2473 16.1893L96.272 15.9998Z" fill="#1D212C"/>
<path d="M1.48665 18.8551C1.54063 18.8264 1.59344 18.7741 1.64741 18.773C1.97402 18.7647 2.30082 18.7647 2.62782 18.773C2.68179 18.773 2.7346 18.8264 2.78799 18.8557L1.48665 18.8551Z" fill="#1D212C"/>
<path d="M5.70467 2.41045H5.37082V2.09891L5.58674 1.90236L5.70408 1.93228L5.70467 2.41045Z" fill="#1D212C"/>
<path d="M68.7649 0.241872C68.7402 0.1832 68.715 0.119247 68.6904 0.0576417C68.8875 0.0312395 69.1058 -0.0984244 69.263 0.147997C69.1169 0.400871 68.9297 0.251259 68.7649 0.241872Z" fill="#1D212C"/>
<path d="M35.3696 16.5666V16.3443L35.7616 16.4821V17.036L35.4911 16.8846L35.5128 16.579L35.3696 16.5666Z" fill="#1D212C"/>
<path d="M97.7236 9.09055L97.4854 9.26656C97.276 9.12282 97.3863 8.91454 97.3845 8.73265H97.6145L97.5963 8.90163L97.7242 8.96675C97.7242 9.00724 97.7236 9.04889 97.7236 9.09055Z" fill="#1D212C"/>
<path d="M34.7372 8.25313V8.76357C34.4737 8.60223 34.5829 8.41154 34.5817 8.24961L34.7372 8.25313Z" fill="#1D212C"/>
<path d="M72.6289 16.06C72.68 16.0048 72.7245 15.9127 72.7826 15.9033C72.8818 15.8881 72.9892 15.9244 73.0924 15.9391C73.0349 15.9807 72.9719 16.014 72.9053 16.0383C72.8139 16.0532 72.7215 16.0605 72.6289 16.06Z" fill="#1D212C"/>
<path d="M65.8903 11.1325C65.9038 11.0386 65.9179 10.9448 65.932 10.8515L66.0429 10.8409C66.0687 10.9371 66.0941 11.0334 66.1192 11.1296L65.8903 11.1325Z" fill="#1D212C"/>
<path d="M5.52147 8.92345L5.80133 8.94927L5.66814 9.14816L5.52147 9.08186V8.92345Z" fill="#1D212C"/>
<path d="M86.0242 18.4836C86.0829 18.601 86.1186 18.6684 86.1797 18.7893H85.7508L86.0242 18.4836Z" fill="#1D212C"/>
<path d="M47.3871 10.2301C47.3643 10.3116 47.3408 10.3926 47.3179 10.4742L47.207 10.5422C47.1618 10.4695 47.1172 10.3961 47.0439 10.277L47.3161 10.1632L47.3871 10.2301Z" fill="#1D212C"/>
<path d="M63.7207 3.35674L63.6163 3.2042L63.7923 3.08685C63.8082 3.19129 63.8181 3.26287 63.8287 3.32917L63.7207 3.35674Z" fill="#1D212C"/>
<path d="M38.5994 8.92836L38.5871 9.13312H38.4909C38.4873 9.06155 38.4844 8.99055 38.4809 8.91956L38.5994 8.92836Z" fill="#1D212C"/>
<path d="M13.9833 6.85878L14.1675 6.97964L13.9792 7.09699C13.9803 7.01719 13.9821 6.93799 13.9833 6.85878Z" fill="#1D212C"/>
<path d="M63.1376 3.85249C63.1476 3.8079 63.157 3.76272 63.1669 3.71637L63.3793 3.68645C63.4374 3.94284 63.2655 3.86598 63.1376 3.85249Z" fill="#1D212C"/>
<path d="M88.1301 1.53156L88.3472 1.55327L88.3543 1.64832L88.1342 1.69643L88.1301 1.53156Z" fill="#1D212C"/>
<path d="M46.1277 18.863C46.1131 18.7949 46.0984 18.7274 46.0843 18.6594L46.1794 18.633C46.1981 18.7075 46.2163 18.782 46.238 18.8565L46.1277 18.863Z" fill="#1D212C"/>
<path d="M92.5223 6.51086L92.703 6.55486C92.703 6.5842 92.703 6.61353 92.703 6.64345L92.52 6.68218L92.5223 6.51086Z" fill="#1D212C"/>
<path d="M45.481 17.6436L45.6641 17.6841V17.7756L45.4816 17.8167C45.4816 17.7592 45.481 17.7011 45.481 17.6436Z" fill="#1D212C"/>
<path d="M97.7241 8.9659L97.5962 8.90077L97.6144 8.73179L97.7317 8.79516L97.7241 8.9659Z" fill="#1D212C"/>
<path d="M49.2525 15.0221C49.2589 15.1077 49.2654 15.1934 49.2712 15.279L49.1539 15.2896C49.1451 15.2039 49.1369 15.1189 49.1287 15.0332L49.2525 15.0221Z" fill="#1D212C"/>
<path d="M44.4313 3.15655L44.2776 3.08145L44.443 3.00225C44.4389 3.05388 44.4354 3.10492 44.4313 3.15655Z" fill="#1D212C"/>
<path d="M39.6572 5.10682C39.5176 5.02351 39.5211 4.94195 39.6572 4.86275C39.6596 4.9443 39.6584 5.02527 39.6572 5.10682Z" fill="#1D212C"/>
<path d="M35.325 17.2352C35.1783 17.1536 35.1795 17.0738 35.3291 16.997C35.328 17.0762 35.3268 17.1536 35.325 17.2352Z" fill="#1D212C"/>
<path d="M37.4988 12.0676L37.3815 12.1744L37.2947 12.0517L37.4988 12.0676Z" fill="#1D212C"/>
<path d="M62.6342 0.149257H62.4934L62.4881 0.117576L62.6248 0.0858927L62.6342 0.149257Z" fill="#1D212C"/>
<path d="M84.2842 11.1828L84.4414 11.2761C84.4309 11.2972 84.4209 11.3189 84.4103 11.3406L84.2654 11.3066C84.2736 11.2655 84.2801 11.2274 84.2842 11.1828Z" fill="#1D212C"/>
<path d="M37.2912 12.0488L37.1768 12.0095L37.2689 11.8998C37.2766 11.9497 37.2836 11.9995 37.2912 12.0488Z" fill="#1D212C"/>
<path d="M43.5424 1.41021L43.4403 1.34039L43.5348 1.23067L43.5424 1.41021Z" fill="#1D212C"/>
<path d="M85.6735 18.8412C85.6958 18.7726 85.7181 18.7033 85.7398 18.6347L85.8255 18.7438L85.6735 18.8412Z" fill="#1D212C"/>
<path d="M113.357 18.9136H113.608C113.523 19.0462 113.439 19.0567 113.357 18.9136Z" fill="#1D212C"/>
<path d="M97.7293 8.79487L97.6119 8.73151C97.6301 8.70217 97.6489 8.67284 97.7035 8.58717L97.7293 8.79487Z" fill="#1D212C"/>
<path d="M97.3432 8.27647C97.3338 8.23423 97.325 8.19257 97.3156 8.15033C97.325 8.19257 97.3338 8.2354 97.3432 8.27647Z" fill="#1D212C"/>
<path d="M43.2096 12.0116L43.1848 12.021C43.1848 12.0128 43.1741 12.0021 43.1765 11.9962C43.1789 11.9903 43.1919 11.9897 43.2002 11.9861L43.2096 12.0116Z" fill="#1D212C"/>
<path d="M68.7468 0.419721L68.6476 0.361049L68.728 0.283602C68.7362 0.329953 68.7403 0.37337 68.7468 0.419721Z" fill="#1D212C"/>
<path d="M30.7514 18.8547L30.8295 18.7737L30.8817 18.8535L30.7514 18.8547Z" fill="#1D212C"/>
<path d="M62.0867 18.8369L62.2087 18.8264L62.1213 18.912L62.0867 18.8369Z" fill="#1D212C"/>
<path d="M49.7234 16.454L49.7159 16.4353L49.7359 16.4385L49.7234 16.454Z" fill="#1D212C"/>
<path d="M95.2203 2.47632V2.45101C95.2176 2.45741 95.2153 2.46396 95.2134 2.47063L95.2203 2.47632Z" fill="#1D212C"/>
<path d="M18.6645 18.491H21.388C20.4816 18.7374 19.5692 18.5608 18.6645 18.5737V18.491Z" fill="#1D212C"/>
<path d="M4.40955 0.688506C4.44886 0.751284 4.48817 0.813476 4.52689 0.875668L4.43654 0.939035L4.30159 0.76302L4.40955 0.688506Z" fill="#1D212C"/>
<path d="M95.8309 15.0608L95.7464 15.2656L95.6414 15.2796C95.6226 15.194 95.6032 15.1077 95.5827 15.0221L95.8309 15.0608Z" fill="#010101"/>
<path d="M86.7611 15.5504L86.8415 15.6572L86.7341 15.7593C86.7429 15.6901 86.7523 15.6203 86.7611 15.5504Z" fill="#010101"/>
<path d="M96.2718 15.9998L96.2472 16.1922L96.2008 16.1987L96.1551 16.0039L96.2718 15.9998Z" fill="#010101"/>
<path d="M96.7159 16.5669L96.7001 16.6725L96.6526 16.6654C96.6578 16.6302 96.6625 16.5944 96.6678 16.5592L96.7159 16.5669Z" fill="#1D212C"/>
<path d="M34.5519 18.5773H31.4481C31.4481 18.545 31.4481 18.5127 31.4481 18.481H34.5519C34.5513 18.5127 34.5519 18.545 34.5519 18.5773Z" fill="#1D212C"/>
<path d="M44.0129 12.7789L43.8909 12.8481C43.8322 12.648 43.8322 12.648 44.0082 12.6615L44.0129 12.7789Z" fill="#010101"/>
<path d="M64.8701 2.61236C65.1142 2.42344 66.4337 2.41581 67.1941 2.5842C66.4271 2.72972 65.6404 2.73925 64.8701 2.61236Z" fill="#1D212C"/>
<path d="M69.5474 14.443V13.5781H69.612V14.443H69.5474Z" fill="#1D212C"/>
<path d="M60.9704 18.459C60.8789 18.635 60.7867 18.6069 60.6952 18.459H60.9704Z" fill="#010101"/>
<path d="M115.791 16.3467C115.695 16.3837 115.598 16.4535 115.503 16.4523C114.676 16.443 113.849 16.4218 113.023 16.4001C112.995 16.3951 112.968 16.3843 112.945 16.3684C112.921 16.3526 112.902 16.332 112.887 16.308C113.845 16.1672 114.802 16.1713 115.761 16.2218L115.791 16.3467Z" fill="#1D212C"/>
<path d="M70.3409 0.789092C70.3597 0.801649 70.3785 0.814835 70.3409 0.789092V0.789092Z" fill="#010101"/>
<path d="M72.5117 10.7477L72.4976 10.9466L72.3908 10.939L72.4061 10.7395L72.5117 10.7477Z" fill="#1D212C"/>
<path d="M110.597 15.5306L110.778 15.7606L110.679 15.8451L110.484 15.6209L110.597 15.5306Z" fill="#1D212C"/>
<path d="M33.0743 12.208C33.0743 12.235 33.0773 12.2626 33.0784 12.2896L33.0397 12.299L33.0086 12.2168L33.0743 12.208Z" fill="#1D212C"/>
<path d="M43.21 10.9878L43.2279 10.9821L43.2254 10.9993L43.21 10.9878Z" fill="#1D212C"/>
<path d="M94.0459 10.5101V10.4174L94.0788 10.4127C94.0858 10.4438 94.0929 10.4743 94.1005 10.5054L94.0459 10.5101Z" fill="#1D212C"/>
<path d="M93.6791 8.92302C93.6838 8.98991 93.6891 9.05621 93.6938 9.12309L93.5888 9.13013C93.5846 9.06384 93.5805 8.99695 93.5758 8.93006L93.6791 8.92302Z" fill="#1D212C"/>
<path d="M62.8689 5.37755L62.7656 5.62573C62.6782 5.42331 62.6782 5.42331 62.8636 5.37168L62.8689 5.37755Z" fill="#1D212C"/>
<path d="M63.6716 6.41632H63.8171L63.8224 6.47499L63.6763 6.49964C63.6751 6.46971 63.6733 6.44272 63.6716 6.41632Z" fill="#1D212C"/>
<path d="M9.52596 9.29132L9.48196 9.50371L9.37928 9.48729L9.4051 9.27137L9.52596 9.29132Z" fill="#1D212C"/>
<path d="M83.9285 12.7675C83.9232 12.7444 83.9179 12.722 83.9132 12.6995L83.9829 12.6954C83.9829 12.719 83.9788 12.7427 83.977 12.7663L83.9285 12.7675Z" fill="#1D212C"/>
<path d="M58.7777 3.60061L58.7085 3.61717L58.705 3.54443L58.7766 3.55035C58.7771 3.56809 58.7771 3.58464 58.7777 3.60061Z" fill="#1D212C"/>
<path d="M17.1636 8.01003L17.231 7.99406C17.231 8.01771 17.231 8.04078 17.2351 8.06443L17.1648 8.05852L17.1636 8.01003Z" fill="#1D212C"/>
<path d="M40.532 12.269L40.49 12.2914C40.4823 12.2713 40.4746 12.2518 40.4664 12.2323C40.4823 12.2287 40.5024 12.2181 40.5125 12.224C40.5225 12.2299 40.5255 12.2524 40.532 12.269Z" fill="#1D212C"/>
<path d="M41.7682 7.07117L41.7823 7.16856L41.7406 7.17443C41.7359 7.14216 41.7307 7.1093 41.726 7.07703L41.7682 7.07117Z" fill="#1D212C"/>
</svg>
