<svg width="40" height="17" viewBox="0 0 40 17" fill="none" xmlns="http://www.w3.org/2000/svg">
<path d="M7.30881 2.11745C6.84001 2.6722 6.08992 3.10976 5.33982 3.04725C5.24606 2.29716 5.61329 1.50018 6.04303 1.00794C6.51184 0.437554 7.33226 0.0312538 7.9964 0C8.07453 0.781346 7.76981 1.54707 7.30881 2.11745ZM7.98859 3.19571C6.90251 3.1332 5.97271 3.81297 5.45703 3.81297C4.93352 3.81297 4.14436 3.22696 3.28488 3.24259C2.16756 3.25821 1.12837 3.8911 0.557986 4.89904C-0.614033 6.91491 0.253261 9.89965 1.38621 11.5405C1.94097 12.3531 2.60511 13.2438 3.48022 13.2126C4.30845 13.1813 4.63661 12.6734 5.63673 12.6734C6.64467 12.6734 6.93377 13.2126 7.80888 13.1969C8.71524 13.1813 9.28562 12.3843 9.84038 11.5717C10.4733 10.6497 10.7311 9.7512 10.7467 9.70432C10.7311 9.68869 8.99652 9.02455 8.9809 7.0243C8.96527 5.35222 10.3483 4.55525 10.4108 4.50837C9.62941 3.35197 8.41051 3.22696 7.98859 3.19571ZM14.2628 0.929802V13.111H16.1537V8.94641H18.7712C21.1621 8.94641 22.842 7.30559 22.842 4.93029C22.842 2.555 21.1933 0.929802 18.8337 0.929802H14.2628ZM16.1537 2.52375H18.3336C19.9744 2.52375 20.912 3.39886 20.912 4.93811C20.912 6.47736 19.9744 7.36028 18.3258 7.36028H16.1537V2.52375ZM26.2955 13.2047C27.4832 13.2047 28.5849 12.6031 29.0849 11.6499H29.124V13.111H30.8742V7.04774C30.8742 5.28971 29.4678 4.15676 27.3035 4.15676C25.2954 4.15676 23.8108 5.30534 23.7561 6.88366H25.4595C25.6001 6.13357 26.2955 5.64132 27.2488 5.64132C28.4052 5.64132 29.0537 6.18045 29.0537 7.17276V7.84471L26.694 7.98536C24.4984 8.11819 23.3108 9.01673 23.3108 10.5794C23.3108 12.1577 24.5375 13.2047 26.2955 13.2047ZM26.8034 11.7593C25.7955 11.7593 25.1548 11.2748 25.1548 10.5325C25.1548 9.76683 25.772 9.32146 26.9519 9.25114L29.0537 9.11831V9.80589C29.0537 10.9467 28.0848 11.7593 26.8034 11.7593ZM33.2104 16.4239C35.0544 16.4239 35.9217 15.7207 36.6796 13.5876L40.0003 4.27396H38.0782L35.8514 11.4702H35.8123L33.5855 4.27396H31.6087L34.8122 13.1422L34.6403 13.6814C34.3512 14.5955 33.8824 14.9472 33.0463 14.9472C32.8979 14.9472 32.6088 14.9315 32.4916 14.9159V16.377C32.601 16.4083 33.0698 16.4239 33.2104 16.4239Z" fill="#181B28"/>
</svg>
