<svg width="26" height="26" viewBox="0 0 26 26" fill="none" xmlns="http://www.w3.org/2000/svg">
<g clip-path="url(#clip0_4_576)">
<path d="M18.0035 0H18.1885C18.3369 1.83357 17.637 3.20362 16.7865 4.19576C15.9519 5.18105 14.809 6.13665 12.9606 5.99166C12.8373 4.18434 13.5383 2.91591 14.3878 1.92605C15.1755 1.00356 16.6198 0.182672 18.0035 0ZM23.599 19.0847V19.1361C23.0795 20.7093 22.3386 22.0577 21.4343 23.309C20.6089 24.445 19.5973 25.9737 17.7912 25.9737C16.2305 25.9737 15.1938 24.9702 13.5943 24.9428C11.9023 24.9154 10.9718 25.7819 9.42478 26H8.89731C7.76131 25.8356 6.84453 24.9359 6.17663 24.1253C4.20719 21.73 2.6853 18.636 2.40216 14.6766V13.5132C2.52204 10.6795 3.89893 8.37553 5.72908 7.25895C6.69496 6.66526 8.02276 6.15949 9.50127 6.38554C10.1349 6.48373 10.7823 6.70065 11.3497 6.91529C11.8874 7.12194 12.5599 7.48843 13.197 7.46902C13.6285 7.45646 14.0578 7.23155 14.4928 7.07285C15.7669 6.61274 17.016 6.08528 18.6623 6.33303C20.6409 6.63215 22.0452 7.51126 22.9129 8.86761C21.2391 9.93282 19.9159 11.538 20.1419 14.2793C20.3429 16.7693 21.7906 18.2261 23.599 19.0847Z" fill="black"/>
</g>
<defs>
<clipPath id="clip0_4_576">
<rect width="26" height="26" fill="white"/>
</clipPath>
</defs>
</svg>
