<svg width="19" height="19" viewBox="0 0 19 19" fill="none" xmlns="http://www.w3.org/2000/svg">
<path d="M1.58333 14.2503V7.91699C1.58333 7.48158 1.7385 7.1087 2.04883 6.79837C2.35916 6.48804 2.73177 6.33313 3.16666 6.33366H5.54166V4.75033C5.54166 4.31491 5.69683 3.94204 6.00716 3.6317C6.3175 3.32137 6.69011 3.16647 7.125 3.16699H11.875C12.3104 3.16699 12.6833 3.32216 12.9936 3.63249C13.304 3.94283 13.4589 4.31544 13.4583 4.75033V6.33366H15.8333C16.2687 6.33366 16.6416 6.48883 16.952 6.79916C17.2623 7.10949 17.4172 7.4821 17.4167 7.91699V14.2503C17.4167 14.6857 17.2615 15.0586 16.9512 15.369C16.6408 15.6793 16.2682 15.8342 15.8333 15.8337H3.16666C2.73125 15.8337 2.35837 15.6785 2.04804 15.3682C1.7377 15.0578 1.5828 14.6852 1.58333 14.2503ZM3.16666 14.2503H15.8333V11.8753H14.25C14.25 12.0996 14.174 12.2878 14.022 12.4398C13.87 12.5918 13.6821 12.6675 13.4583 12.667C13.234 12.667 13.0459 12.591 12.8939 12.439C12.7419 12.287 12.6661 12.0991 12.6667 11.8753H6.33333C6.33333 12.0996 6.25733 12.2878 6.10533 12.4398C5.95333 12.5918 5.76544 12.6675 5.54166 12.667C5.31736 12.667 5.1292 12.591 4.9772 12.439C4.8252 12.287 4.74947 12.0991 4.75 11.8753H3.16666V14.2503ZM3.16666 7.91699V10.292H4.75C4.75 10.0677 4.826 9.87954 4.978 9.72754C5.13 9.57554 5.31789 9.4998 5.54166 9.50033C5.76597 9.50033 5.95412 9.57633 6.10612 9.72833C6.25812 9.88033 6.33386 10.0682 6.33333 10.292H12.6667C12.6667 10.0677 12.7427 9.87954 12.8947 9.72754C13.0467 9.57554 13.2346 9.4998 13.4583 9.50033C13.6826 9.50033 13.8708 9.57633 14.0228 9.72833C14.1748 9.88033 14.2505 10.0682 14.25 10.292H15.8333V7.91699H3.16666ZM7.125 6.33366H11.875V4.75033H7.125V6.33366Z" fill="#181B28" fill-opacity="0.7"/>
</svg>
