<svg width="19" height="19" viewBox="0 0 19 19" fill="none" xmlns="http://www.w3.org/2000/svg">
<path d="M9.49998 0C7.62106 0 5.78434 0.557164 4.22208 1.60103C2.65981 2.64491 1.44218 4.1286 0.723147 5.86449C0.00411619 7.60039 -0.184015 9.51052 0.182544 11.3533C0.549102 13.1961 1.45389 14.8889 2.78248 16.2175C4.11108 17.5461 5.80381 18.4509 7.64663 18.8174C9.48944 19.184 11.3996 18.9958 13.1355 18.2768C14.8714 17.5578 16.3551 16.3401 17.3989 14.7779C18.4428 13.2156 19 11.3789 19 9.49998C19 8.25242 18.7542 7.01708 18.2768 5.86449C17.7994 4.7119 17.0996 3.66463 16.2175 2.78248C15.3353 1.90032 14.2881 1.20056 13.1355 0.723143C11.9829 0.245724 10.7475 0 9.49998 0ZM9.49998 17.1C7.48434 17.1 5.55126 16.2992 4.12598 14.874C2.70071 13.4487 1.9 11.5156 1.9 9.49998C1.8979 7.81216 2.46336 6.17265 3.5055 4.84499L14.155 15.4945C12.8273 16.5366 11.1878 17.1021 9.49998 17.1ZM15.4945 14.155L4.84499 3.50549C6.17266 2.46336 7.81216 1.8979 9.49998 1.9C11.5156 1.9 13.4487 2.70071 14.874 4.12598C16.2993 5.55125 17.1 7.48434 17.1 9.49998C17.1021 11.1878 16.5366 12.8273 15.4945 14.155Z" fill="#9A3B3B"/>
</svg>
