<svg width="16" height="16" viewBox="0 0 16 16" fill="none" xmlns="http://www.w3.org/2000/svg">
<path d="M8.94001 8.00012L13.14 3.80679C13.2655 3.68125 13.3361 3.51099 13.3361 3.33346C13.3361 3.15592 13.2655 2.98566 13.14 2.86012C13.0145 2.73459 12.8442 2.66406 12.6667 2.66406C12.4891 2.66406 12.3189 2.73459 12.1933 2.86012L8.00001 7.06012L3.80668 2.86012C3.68114 2.73459 3.51088 2.66406 3.33334 2.66406C3.15581 2.66406 2.98555 2.73459 2.86001 2.86012C2.73447 2.98566 2.66395 3.15592 2.66395 3.33346C2.66395 3.51099 2.73447 3.68125 2.86001 3.80679L7.06001 8.00012L2.86001 12.1935C2.79752 12.2554 2.74793 12.3292 2.71408 12.4104C2.68024 12.4916 2.66281 12.5788 2.66281 12.6668C2.66281 12.7548 2.68024 12.8419 2.71408 12.9232C2.74793 13.0044 2.79752 13.0781 2.86001 13.1401C2.92199 13.2026 2.99572 13.2522 3.07696 13.2861C3.1582 13.3199 3.24534 13.3373 3.33334 13.3373C3.42135 13.3373 3.50849 13.3199 3.58973 13.2861C3.67097 13.2522 3.7447 13.2026 3.80668 13.1401L8.00001 8.94012L12.1933 13.1401C12.2553 13.2026 12.3291 13.2522 12.4103 13.2861C12.4915 13.3199 12.5787 13.3373 12.6667 13.3373C12.7547 13.3373 12.8418 13.3199 12.9231 13.2861C13.0043 13.2522 13.078 13.2026 13.14 13.1401C13.2025 13.0781 13.2521 13.0044 13.2859 12.9232C13.3198 12.8419 13.3372 12.7548 13.3372 12.6668C13.3372 12.5788 13.3198 12.4916 13.2859 12.4104C13.2521 12.3292 13.2025 12.2554 13.14 12.1935L8.94001 8.00012Z" fill="#181B28" fill-opacity="0.7"/>
</svg>
