<svg width="22" height="22" viewBox="0 0 22 22" fill="none" xmlns="http://www.w3.org/2000/svg">
<path d="M19.25 9.16602C19.25 15.5827 11 21.0827 11 21.0827C11 21.0827 2.75 15.5827 2.75 9.16602C2.75 6.97798 3.61919 4.87956 5.16637 3.33238C6.71354 1.78521 8.81196 0.916016 11 0.916016C13.188 0.916016 15.2865 1.78521 16.8336 3.33238C18.3808 4.87956 19.25 6.97798 19.25 9.16602Z" stroke="#1D212C" stroke-width="1.5" stroke-linecap="round" stroke-linejoin="round"/>
<path d="M11 11.916C12.5188 11.916 13.75 10.6848 13.75 9.16602C13.75 7.64723 12.5188 6.41602 11 6.41602C9.48122 6.41602 8.25 7.64723 8.25 9.16602C8.25 10.6848 9.48122 11.916 11 11.916Z" stroke="#1D212C" stroke-width="1.5" stroke-linecap="round" stroke-linejoin="round"/>
</svg>
