<svg width="19" height="19" viewBox="0 0 19 19" fill="none" xmlns="http://www.w3.org/2000/svg">
<path d="M9.50002 9.50032C8.62919 9.50032 7.8837 9.19026 7.26356 8.57012C6.64342 7.94998 6.33335 7.20449 6.33335 6.33366C6.33335 5.46283 6.64342 4.71734 7.26356 4.0972C7.8837 3.47706 8.62919 3.16699 9.50002 3.16699C10.3709 3.16699 11.1163 3.47706 11.7365 4.0972C12.3566 4.71734 12.6667 5.46283 12.6667 6.33366C12.6667 7.20449 12.3566 7.94998 11.7365 8.57012C11.1163 9.19026 10.3709 9.50032 9.50002 9.50032ZM14.25 15.8337H4.75002C4.3146 15.8337 3.94173 15.6785 3.6314 15.3682C3.32106 15.0578 3.16616 14.6852 3.16669 14.2503V13.617C3.16669 13.1684 3.28227 12.7559 3.51344 12.3796C3.74461 12.0033 4.05124 11.7165 4.43335 11.5191C5.25141 11.11 6.08266 10.8031 6.9271 10.5984C7.77155 10.3936 8.62919 10.2915 9.50002 10.292C10.3709 10.292 11.2285 10.3944 12.0729 10.5992C12.9174 10.8039 13.7486 11.1106 14.5667 11.5191C14.9493 11.717 15.2562 12.0041 15.4874 12.3804C15.7186 12.7567 15.8339 13.1689 15.8334 13.617V14.2503C15.8334 14.6857 15.6782 15.0586 15.3679 15.3689C15.0575 15.6793 14.6849 15.8342 14.25 15.8337ZM4.75002 14.2503H14.25V13.617C14.25 13.4719 14.2136 13.3399 14.1408 13.2212C14.0679 13.1024 13.9724 13.01 13.8542 12.9441C13.1417 12.5878 12.4226 12.3208 11.6969 12.1429C10.9712 11.965 10.2389 11.8759 9.50002 11.8753C8.76113 11.8753 8.02884 11.9645 7.30315 12.1429C6.57745 12.3213 5.85835 12.5884 5.14585 12.9441C5.0271 13.01 4.93131 13.1024 4.85848 13.2212C4.78565 13.3399 4.74949 13.4719 4.75002 13.617V14.2503ZM9.50002 7.91699C9.93544 7.91699 10.3083 7.76182 10.6186 7.45149C10.929 7.14116 11.0839 6.76855 11.0834 6.33366C11.0834 5.89824 10.9282 5.52537 10.6179 5.21503C10.3075 4.9047 9.93491 4.7498 9.50002 4.75033C9.0646 4.75033 8.69173 4.90549 8.3814 5.21583C8.07106 5.52616 7.91616 5.89877 7.91669 6.33366C7.91669 6.76908 8.07186 7.14195 8.38219 7.45228C8.69252 7.76262 9.06513 7.91752 9.50002 7.91699Z" fill="#19223C" fill-opacity="0.64"/>
</svg>
