<svg width="24" height="24" viewBox="0 0 24 24" fill="none" xmlns="http://www.w3.org/2000/svg">
<path d="M13.6336 18.7001H5.18914C4.74122 18.7001 4.31164 18.5221 3.99491 18.2054C3.67818 17.8887 3.50024 17.4591 3.50024 17.0112V5.18889C3.50024 4.74097 3.67818 4.3114 3.99491 3.99467C4.31164 3.67794 4.74122 3.5 5.18914 3.5H18.7003C19.1482 3.5 19.5778 3.67794 19.8945 3.99467C20.2113 4.3114 20.3892 4.74097 20.3892 5.18889V13.6334" stroke="#181B28" stroke-opacity="0.7" stroke-width="1.2" stroke-linecap="round"/>
<path d="M3.50024 6.87822H20.3892M6.03359 5.19777L6.04203 5.18848M8.56693 5.19777L8.57537 5.18848M11.1003 5.19777L11.1087 5.18848" stroke="#181B28" stroke-opacity="0.7" stroke-width="1.2" stroke-linecap="round" stroke-linejoin="round"/>
<path d="M20.4585 16.4753C20.8757 16.732 20.8503 17.356 20.4205 17.4042L18.2537 17.6507L17.2809 19.6031C17.0883 19.9899 16.493 19.8007 16.3942 19.3211L15.3344 14.1564C15.2516 13.7511 15.6156 13.4961 15.9677 13.7131L20.4585 16.4753Z" stroke="#181B28" stroke-opacity="0.7" stroke-width="1.2"/>
</svg>
