<svg width="37" height="37" viewBox="0 0 37 37" fill="none" xmlns="http://www.w3.org/2000/svg">
<ellipse cx="18.2683" cy="10.8318" rx="7.74828" ry="7.74829" stroke="#181B28" stroke-opacity="0.4" stroke-width="2" stroke-linecap="round" stroke-linejoin="round"/>
<path fill-rule="evenodd" clip-rule="evenodd" d="M5.97805 29.3562C5.97597 28.8115 6.09779 28.2735 6.3343 27.7828C7.07647 26.2985 9.1694 25.5118 10.9061 25.1555C12.1586 24.8883 13.4284 24.7097 14.706 24.6212C17.0715 24.4134 19.4506 24.4134 21.816 24.6212C23.0936 24.7107 24.3633 24.8893 25.616 25.1555C27.3526 25.5118 29.4456 26.2243 30.1877 27.7828C30.6634 28.7831 30.6634 29.9443 30.1877 30.9445C29.4456 32.5031 27.3526 33.2155 25.616 33.5569C24.3649 33.8353 23.0947 34.0189 21.816 34.1061C19.8907 34.2694 17.9565 34.2991 16.0271 34.1952C15.5818 34.1952 15.1513 34.1952 14.706 34.1061C13.4321 34.02 12.1668 33.8363 10.9209 33.5569C9.1694 33.2155 7.09131 32.5031 6.3343 30.9445C6.099 30.4481 5.9773 29.9055 5.97805 29.3562Z" stroke="#181B28" stroke-opacity="0.4" stroke-width="2" stroke-linecap="round" stroke-linejoin="round"/>
</svg>
