<svg width="24" height="24" viewBox="0 0 24 24" fill="none" xmlns="http://www.w3.org/2000/svg">
<g clip-path="url(#clip0_763_6684)">
<path d="M24.0272 15.8424L21.2521 12.4416L23.9728 9.1087C24.1216 8.92638 24.2154 8.70541 24.2431 8.4717C24.2708 8.23799 24.2313 8.00123 24.1292 7.78916C24.0259 7.55147 23.8544 7.3497 23.6366 7.20929C23.4187 7.06888 23.1641 6.99611 22.9049 7.00016H1.81954C1.64893 6.99746 1.47946 7.0284 1.3208 7.0912C1.16215 7.15401 1.01742 7.24745 0.89489 7.36619C0.772355 7.48494 0.674413 7.62666 0.606657 7.78326C0.538901 7.93986 0.502659 8.10828 0.5 8.27889L0.5 16.611C0.507149 16.9544 0.649979 17.281 0.897255 17.5193C1.14453 17.7577 1.47613 17.8884 1.81954 17.8829H22.9798C23.2303 17.8871 23.4767 17.8196 23.69 17.6882C23.9034 17.5568 24.0747 17.3671 24.1837 17.1416C24.2815 16.932 24.3188 16.6992 24.2911 16.4696C24.2635 16.24 24.172 16.0227 24.0272 15.8424ZM1.86035 16.5226V8.36051H22.7961L19.5041 12.3939L22.8437 16.5226H1.86035Z" fill="#181B28" fill-opacity="0.7"/>
<path d="M6.88684 13.3601L4.66948 10.4014H3.90088V14.6048H4.66948V11.6529L6.88684 14.6048H7.64864V10.4014H6.88684V13.3601Z" fill="#181B28" fill-opacity="0.7"/>
<path d="M8.78491 14.6048H11.9545V13.9111H9.55351V12.816H11.7233V12.1154H9.55351V11.1019H11.9545V10.4014H8.78491V14.6048Z" fill="#181B28" fill-opacity="0.7"/>
<path d="M17.1778 13.4145L16.1847 10.4014H15.3549L14.3551 13.4145L13.4572 10.4014H12.6206L13.9537 14.6048H14.7087L15.7698 11.4828L16.8241 14.6048H17.5927L18.919 10.4014H18.0824L17.1778 13.4145Z" fill="#181B28" fill-opacity="0.7"/>
</g>
<defs>
<clipPath id="clip0_763_6684">
<rect width="24" height="24" fill="white"/>
</clipPath>
</defs>
</svg>
