<svg width="209" height="34" viewBox="0 0 209 34" fill="none" xmlns="http://www.w3.org/2000/svg">
<path d="M11.5627 19.9648C11.5023 19.6385 11.4424 19.3118 11.3827 18.9848V17.5304L11.2038 17.5365V18.1285L10.7063 18.1747L10.6309 17.443V16.4972L10.1143 16.5524C9.98462 16.266 9.87506 16.0248 9.76651 15.7835C9.74742 15.7474 9.72832 15.7112 9.71023 15.675L9.93839 15.3343L9.45895 15.29C9.03781 15.2619 9.03982 14.9332 8.99056 14.6387C8.95438 14.4206 8.91116 14.2035 8.87096 13.9864C8.92121 13.7321 8.97147 13.4778 9.03579 13.1572L8.24578 13.2989L8.23874 13.2909C8.20658 13.1451 8.17542 12.9994 8.14326 12.8536C8.14326 12.7531 8.13823 12.6606 8.13622 12.5652C8.15331 12.2435 8.1714 11.9229 8.18748 11.6143L7.26881 11.4626L7.47887 10.8927L6.55819 10.8514C6.55819 11.747 6.55819 12.5601 6.55819 13.3733C6.56288 19.2787 6.56589 25.1837 6.56723 31.0884C6.56723 31.2754 6.45466 31.4623 6.41446 31.591H0.791854V0.819407C0.972774 0.819407 1.1346 0.819407 1.29441 0.819407L8.10506 0.891775C8.11913 0.992287 8.1332 1.0928 8.14828 1.19934C8.10305 1.29985 8.01158 1.40036 8.02163 1.49585C8.05681 1.79738 8.12918 2.09892 8.21361 2.53011C8.37644 2.79445 8.7021 2.51202 8.99257 2.51001C9.05958 2.87185 9.1286 3.23369 9.19963 3.59553V4.12925H9.76953L9.85597 4.26091L9.88009 4.52124C9.90019 4.66899 9.91929 4.81674 9.93939 4.96349V5.82688L10.643 5.6922C10.6882 5.97865 10.7334 6.26511 10.7817 6.57569L11.426 6.70535C11.4631 7.05513 11.4883 7.2843 11.5124 7.50944V9.11762L12.1356 9.04727C12.2431 9.45735 12.3517 9.87045 12.4572 10.2705L13.1095 9.93378L13.2331 10.8032V11.741H14.0161L14.0252 12.344C14.0051 12.6034 13.985 12.8627 13.9548 13.2426H14.8222L14.9308 13.5562C14.9308 13.6889 14.9237 13.8216 14.9207 13.9532V14.8267L15.1398 14.8608C15.1831 14.6749 15.2263 14.489 15.2886 14.2246L15.5901 14.1653L15.6233 14.8518C15.6334 15.4368 15.6444 16.0228 15.6555 16.669L16.3138 16.4097L16.5953 18.2712L16.9973 18.1476L16.8968 18.037C17.0174 17.842 17.1373 17.6467 17.2566 17.451C17.2908 17.9804 17.3243 18.5101 17.3571 19.0401V20.0382L18.0557 19.8583C18.0919 20.4131 18.1291 20.9639 18.1673 21.5479L19.8377 21.6484C19.8046 21.3348 19.7764 21.0594 19.7473 20.785L19.7955 20.0965L20.0126 19.9025L20.0348 19.9829L20.6378 19.81C20.7001 19.1637 20.7484 18.6722 20.7966 18.1817L21.3886 18.2441C21.4892 17.44 21.5816 16.668 21.6751 15.8991H21.7887L21.9766 16.6449L22.1777 16.6248C22.2641 16.1062 22.3515 15.5875 22.45 14.9965L23.1225 14.9041V13.9502L23.1285 13.6607C23.2049 13.5271 23.2803 13.3924 23.3577 13.2587L23.9436 13.3592C23.9115 13.0426 23.8863 12.7843 23.8602 12.526L23.9276 12.4255H24.6804C24.7648 12.0335 24.8342 11.7108 24.8814 11.4987C24.8985 11.1811 24.9106 10.969 24.9236 10.7328L25.5759 10.8042C25.6342 10.2011 25.6905 9.62822 25.7518 8.995L26.3549 9.26939C26.4293 9.00907 26.4926 8.78794 26.5559 8.56581L26.5187 8.54471C26.562 8.21704 26.6052 7.88837 26.6504 7.55266L27.2947 7.59689C27.3711 7.01091 27.4414 6.46915 27.5108 5.9284H27.6867C27.7098 6.14048 27.7329 6.35155 27.757 6.56865C27.8153 6.57971 27.9038 6.5978 27.9038 6.59479C28.0334 6.04198 28.1561 5.48916 28.2777 4.93434L28.9159 4.9665C28.9974 4.37851 29.0697 3.84982 29.1411 3.32817L29.7753 3.38245V0.934995L30.5874 0.803325C32.6449 0.808351 34.7024 0.81036 36.7608 0.821416C36.976 0.835241 37.1901 0.861756 37.4021 0.900821C37.3699 1.2315 37.3277 1.46167 37.3277 1.69184C37.3277 11.475 37.3257 21.2581 37.3217 31.0412C37.3217 31.2804 37.2373 31.5186 37.192 31.7638C37.2383 31.9146 37.2926 32.0865 37.3458 32.2584C37.2217 32.3027 37.0928 32.3328 36.9619 32.3478C35.2036 32.3565 33.446 32.3592 31.689 32.3558C31.5841 32.343 31.4805 32.3208 31.3795 32.2895C31.3795 31.9518 31.3795 31.6121 31.3795 31.2723C31.3955 25.501 31.4113 19.7296 31.4267 13.9583C31.4267 13.1542 31.3855 12.3561 31.3624 11.556C31.4167 11.3088 31.4709 11.0625 31.5423 10.7328L30.5523 10.7891C30.5181 11.0907 30.493 11.3128 30.4658 11.552L29.8004 11.5118C29.8185 11.8706 29.8346 12.1923 29.8507 12.5169L29.7874 13.2567H29.1421L28.9903 13.1964L28.8898 14.9764L28.0958 14.9081V15.9001L28.0897 16.6821L27.2856 16.4811L27.3922 17.4068L27.2675 18.2792L26.4514 18.3466C26.4665 18.6913 26.4775 18.9396 26.4886 19.1879C26.4886 19.2884 26.4886 19.3829 26.4886 19.4803L26.2222 19.9688L25.6945 19.7769V20.7357L25.5589 21.5931C25.3076 21.6645 24.9809 21.3197 24.7719 21.764L24.8905 22.3439L24.8 22.4796C24.794 22.6203 24.7889 22.761 24.7829 22.9017C24.7658 23.0023 24.7497 23.0947 24.7327 23.1902H23.9879V24.0486C23.9376 24.3662 23.888 24.6838 23.8391 25.0014L23.2149 24.8215C23.1918 25.0939 23.1727 25.317 23.1466 25.6256H22.247V27.4197C22.2339 27.6841 22.2209 27.9484 22.2058 28.2469C20.3966 28.2469 18.6879 28.2469 16.9792 28.2469C16.7847 28.2301 16.592 28.1965 16.4033 28.1464L16.5711 27.5655C16.3621 27.1262 16.0032 27.4358 15.7037 27.4278C15.6705 26.8328 15.6374 26.2377 15.6032 25.6387L14.8775 25.7332L14.777 24.9522C14.7991 24.6507 14.8212 24.3491 14.8474 24.0074L14.2443 24.0767L13.9267 23.6988C13.8995 23.5078 13.8734 23.3179 13.8352 23.0435L13.2693 23.4355C13.213 22.8605 13.1688 22.3811 13.1196 21.9017L13.3206 21.8152C13.2331 21.4222 13.1568 21.0745 13.0784 20.7217L12.42 20.8222C12.3557 20.5086 12.2954 20.2191 12.219 19.8603L11.5627 19.9648ZM31.9745 31.6774V31.8191C33.5294 31.797 35.0903 32.0995 36.6402 31.6774H31.9745ZM7.55024 1.17924L7.36731 1.3099L7.59848 1.61144L7.75327 1.50288C7.69296 1.39333 7.6216 1.28678 7.55426 1.17924H7.55024Z" fill="#F9F9F9"/>
<path d="M169.146 19.7788C169.18 20.1115 169.212 20.4452 169.247 20.7779V21.7096L169.939 21.6091C169.957 21.8514 169.977 22.0926 169.995 22.3338C170.012 23.165 170.028 23.9953 170.046 24.924L170.54 24.7712C170.504 24.5702 170.479 24.4265 170.44 24.2294L170.834 24.2003C170.834 24.4335 170.843 24.6657 170.847 24.8978V25.6105L171.034 25.8014H171.642V26.103L171.651 26.4045L171.719 26.896C171.662 26.9784 171.552 27.0639 171.558 27.1413C171.584 27.5021 171.648 27.8589 171.688 28.2187C171.719 28.5082 171.735 28.7987 171.753 29.0228L172.568 29.1123V29.5294C172.419 29.6942 172.527 30.5104 172.73 30.7758L173.333 30.632C173.385 31.1708 173.433 31.7085 173.495 32.3156H166.826L166.725 31.8743C168.784 31.9176 170.795 31.9839 172.797 31.8462V31.5969H166.561C166.561 31.5597 166.561 31.5215 166.566 31.4844H166.021C165.931 30.6079 165.846 29.7757 165.756 28.9032L165.113 29.2218C165.098 29.1384 165.082 29.056 165.066 28.9726L165.051 28.6238C165.035 28.4549 165.021 28.2861 165.007 28.1212C165.1 27.871 165.272 27.6117 164.925 27.4177L164.724 27.4247L164.381 27.4428L164.281 26.6558C164.241 26.3737 164.202 26.0913 164.164 25.8085L163.742 25.7421L163.478 25.7351C161.144 25.7351 158.81 25.7351 156.476 25.7351C156.275 25.7351 156.081 25.7009 155.883 25.6828C155.883 25.3706 155.883 25.058 155.883 24.7451L155.976 23.3088L156.592 23.3962L156.917 23.0012V21.5136L157.11 21.4975L157.33 22.368L157.478 22.3418V21.7971C157.543 21.6614 157.615 21.5156 157.651 21.4413L157.482 20.801L157.675 20.7578H158.19H161.592H162.51V19.1034L161.937 19.1858C161.509 18.6159 162.106 17.8078 161.559 17.3293L160.887 17.3776L160.896 17.2771C160.95 17.2419 161.051 17.2027 161.048 17.1766C160.984 16.4298 160.908 15.683 160.832 14.895L160.25 15.0829C160.171 14.4306 160.097 13.8215 160.018 13.1732L159.279 13.2737C159.235 12.7377 159.191 12.2016 159.147 11.6655C159.204 11.359 159.365 11.0383 159.107 10.78L158.504 10.9489C158.472 10.6393 158.441 10.3287 158.404 10.0192C158.546 9.43418 158.495 8.86026 158.37 8.25317L157.757 8.40595C157.686 7.81293 157.619 7.24705 157.556 6.68318L156.723 6.53744L156.978 6.16555L157.526 6.36154C157.491 6.13238 157.47 5.99669 157.442 5.81678L157.005 6.00574C157.005 5.95749 157.005 5.90523 157.013 5.861L155.77 5.72732V7.44305L155.113 7.35661V8.29438C155.093 9.14471 155.073 9.99503 155.052 10.8996L154.511 10.7639L154.359 10.9248C154.315 11.4987 154.278 11.9751 154.241 12.4515L153.618 12.3792C153.548 12.4596 153.463 12.5551 153.477 12.539C153.406 13.1732 153.351 13.6707 153.296 14.1673L153.14 14.1803L152.891 13.9471C152.874 13.6878 152.863 13.5139 152.851 13.3441L152.727 13.3521C152.679 14.0255 152.626 14.699 152.589 15.3724C152.589 15.4729 152.66 15.5804 152.699 15.684C152.678 15.9805 152.656 16.276 152.636 16.5725L152.088 16.4941V15.9473L151.919 15.9312C151.808 16.9816 151.697 18.0319 151.586 19.0762L150.968 19.0119V20.8C150.958 21.0318 150.949 21.2634 150.939 21.4945H150.568C150.537 21.193 150.514 20.9648 150.489 20.7317L150.356 20.6985C150.295 20.799 150.189 20.8895 150.185 20.989C150.165 21.4694 150.172 21.9509 150.17 22.4323C150.161 22.6903 150.153 22.9479 150.145 23.2052L149.312 23.2766C149.271 23.9581 149.23 24.5833 149.202 25.2104C149.202 25.2436 149.294 25.2808 149.344 25.311L149.259 26.4216L148.996 26.3693C148.914 26.0809 148.848 25.8497 148.783 25.6185L148.601 25.6467C148.443 25.9723 148.312 26.299 148.632 26.6457C148.617 26.7653 148.601 26.885 148.586 27.0036C148.578 27.098 148.569 27.1925 148.561 27.287C148.5 27.3815 148.44 27.476 148.409 27.5262L148.441 28.2218L147.919 28.0489L148.072 27.5785L147.896 27.5162C147.842 27.6911 147.753 27.8639 147.741 28.0429C147.699 28.671 147.683 29.3023 147.658 29.9325L147.634 30.63L147.32 30.7848L146.846 30.6009V31.6381L146.882 31.9296C146.845 32.0472 146.807 32.1658 146.769 32.2834C146.526 32.3045 146.284 32.3407 146.041 32.3427C144.193 32.3548 142.345 32.3615 140.497 32.3628C140.386 32.3486 140.277 32.3198 140.174 32.2774C140.151 32.0975 140.128 31.9166 140.106 31.7366L140.151 30.8471L140.226 29.8872C140.224 29.8768 140.224 29.8658 140.228 29.8556C140.231 29.8454 140.238 29.8365 140.246 29.8299L140.777 30.8632C141.213 29.9244 140.987 28.9997 141.194 28.1705L141.791 28.2228V26.6146H142.601C142.711 26.0829 142.778 25.509 142.609 24.9059L142.664 24.0676L143.104 24.1953C143.118 24.336 143.121 24.4184 143.136 24.4968C143.151 24.5752 143.177 24.6687 143.198 24.7551H143.314C143.437 23.9299 143.56 23.1057 143.688 22.2564L144.321 22.4966C144.296 21.9941 144.275 21.587 144.254 21.1759C144.293 20.7156 144.331 20.2556 144.369 19.7959C144.986 19.823 144.584 20.399 144.924 20.7337C144.996 20.5628 145.085 20.4412 145.097 20.3125C145.157 19.6904 145.198 19.0652 145.25 18.442C145.257 18.3546 145.334 18.2721 145.383 18.1807L145.875 18.3586C146.076 17.7053 146.052 17.0861 145.99 16.4619C145.99 16.3986 145.996 16.3363 145.998 16.273L146.278 15.6367C146.411 16.0167 146.498 16.2689 146.586 16.5212C146.698 16.2784 146.76 16.015 146.766 15.7473C146.755 15.4801 146.73 15.2138 146.691 14.9492C146.706 14.5361 146.712 14.122 146.74 13.7099C146.765 13.5265 146.801 13.3449 146.849 13.1662L147.588 13.2717C147.678 12.6576 147.753 12.155 147.826 11.6515L148.003 11.6293C148.081 11.8444 148.16 12.0595 148.26 12.3329C148.318 12.0656 148.391 11.8635 148.402 11.6585C148.431 11.0876 148.434 10.5147 148.447 9.94377C148.466 9.6677 148.485 9.39129 148.505 9.11455L149.108 9.19999C149.51 8.96781 149.261 8.66024 149.192 8.37378C149.19 8.36815 149.19 8.36227 149.191 8.35653C149.192 8.35079 149.194 8.34532 149.197 8.34048C149.201 8.33564 149.205 8.33153 149.21 8.32844C149.215 8.32534 149.22 8.32333 149.226 8.32252C149.307 8.20716 149.375 8.08268 149.427 7.95164C149.463 7.77034 149.485 7.58652 149.492 7.40184L150.102 7.61894L150.303 5.03681L150.471 4.9976C150.551 5.22778 150.629 5.45694 150.708 5.68711C150.835 5.43658 150.913 5.16339 150.936 4.88302C150.96 4.39655 150.946 3.90706 150.947 3.41958L150.992 3.13211L151.651 3.32309C151.714 3.05205 151.759 2.77748 151.788 2.5009C151.812 1.95915 152.09 1.41136 151.768 0.872622C151.768 0.85923 151.773 0.84638 151.782 0.836546C151.791 0.826712 151.804 0.820589 151.817 0.819351C152.245 0.819351 152.672 0.819351 153.098 0.819351C155.358 0.819351 157.621 0.819351 159.877 0.819351C160.287 0.819351 160.697 0.871615 161.107 0.899758L161.617 0.748991C161.655 1.36513 161.689 1.92196 161.725 2.4798C161.75 2.78837 161.775 3.09694 161.802 3.4246L162.434 3.32409C162.647 4.19351 162.379 5.10917 162.862 5.92231C162.97 5.79122 163.053 5.64173 163.108 5.48107C163.165 5.35543 163.243 5.23984 163.309 5.12023C163.359 5.63686 163.409 6.15282 163.46 6.66811V7.53451L164.075 7.47923C164.154 8.38383 164.23 9.25527 164.307 10.1287L164.456 10.0513H165.08C165.08 10.178 165.08 10.3036 165.08 10.4292C165.058 10.8464 165.035 11.2635 165.012 11.7178L165.683 11.6685C165.783 12.5098 165.884 13.324 165.997 14.2607L166.43 13.8959C166.395 13.7129 166.368 13.5732 166.335 13.4004L166.698 13.3622C166.698 13.5632 166.705 13.7592 166.709 13.9572C166.725 14.0296 166.74 14.1009 166.756 14.1733C166.779 14.4326 166.803 14.6929 166.827 14.9533C166.827 15.2658 166.641 15.6217 166.999 15.8679L167.408 15.5664C167.481 16.0629 167.551 16.5594 167.628 17.056C167.647 17.1846 167.681 17.3102 167.708 17.4369C167.413 17.7384 167.507 18.04 167.683 18.3827L168.244 18.1636C168.244 18.3998 168.218 18.5807 168.253 18.7486C168.276 18.8611 168.385 18.9556 168.454 19.0571C168.46 19.0574 168.465 19.0588 168.47 19.0613C168.475 19.0638 168.48 19.0673 168.484 19.0717C168.487 19.076 168.49 19.0811 168.492 19.0865C168.493 19.092 168.494 19.0977 168.493 19.1034C168.407 19.418 168.267 19.7426 168.641 20.008L169.146 19.7788ZM165.686 28.3806L165.603 28.3675C165.594 28.4278 165.586 28.4891 165.577 28.5494L165.659 28.5615L165.686 28.3806Z" fill="#F9F9F9"/>
<path d="M70.3751 23.9993C70.4545 24.5169 70.5349 25.0346 70.6304 25.6507C70.3973 25.6879 70.1624 25.7134 69.9268 25.7271C67.3423 25.7331 64.7588 25.7351 62.1764 25.7331H61.325C61.3411 26.0427 61.3552 26.298 61.3693 26.5533L61.2687 28.2379L60.5973 28.0017V28.3806L60.528 29.1153C60.2717 29.247 60.2697 29.3837 60.5209 29.5234V29.7134L59.6374 29.826V31.5346L59.557 31.8925L59.6505 32.1307C59.5379 32.203 59.4264 32.3387 59.3138 32.3387C57.2774 32.3528 55.2411 32.3498 53.2047 32.3478C53.1057 32.339 53.0078 32.3208 52.9122 32.2935L52.8228 32.1568L52.6811 32.3005H52.1946C52.1081 31.7819 52.2328 31.4341 52.5604 31.1557C52.8881 30.8773 53.0278 30.5004 52.9866 30.0501C52.9675 29.84 53.0268 29.6219 53.0499 29.4078L53.062 29.1797C53.0564 29.1678 53.0557 29.1542 53.06 29.1418C53.0643 29.1294 53.0733 29.1192 53.0851 29.1133L53.3866 29.2138C53.3605 29.4078 53.3404 29.5626 53.3102 29.7948L53.852 29.7405V28.1625C53.7666 27.4981 54.0239 26.9835 54.5656 26.5774C54.5807 26.292 54.5958 26.0005 54.6109 25.708H55.4552C55.5141 24.9501 55.5778 24.1404 55.6461 23.2786L56.0261 23.4053C55.9507 23.5802 55.8944 23.7068 55.811 23.9008L56.2301 23.9631C56.2884 23.6435 56.3678 23.3862 56.3728 23.1269C56.3779 22.8676 56.3015 22.6243 56.2613 22.3771L56.3698 21.4604L57.1337 21.581C57.198 20.7126 57.2583 19.9055 57.3176 19.0974H57.5187C57.5357 19.3105 57.5528 19.5235 57.5759 19.816L57.9187 19.7849C58.0051 18.9325 58.0825 18.1656 58.1599 17.3937L58.8364 17.4359C58.7921 16.8741 58.7519 16.3655 58.7107 15.8579C58.7489 15.4558 58.7831 15.0538 58.8253 14.6518C58.8474 14.4357 58.8816 14.2206 58.9258 13.9281L59.2434 14.1291C59.2434 14.4085 59.0585 14.7322 59.5098 15.0096V14.1381C59.554 13.717 59.5952 13.2959 59.6435 12.8747C59.6595 12.732 59.6917 12.5913 59.7178 12.4495L60.5219 12.5259C60.4063 12.338 60.3682 12.2767 60.3943 12.3179C60.2938 12.2174 60.2686 12.2063 60.2707 12.1993C60.3521 11.9751 60.4355 11.752 60.5179 11.5289L60.5059 10.8514L60.8948 10.8997C60.9551 11.2173 61.0014 11.4655 61.0486 11.7148L61.2627 11.6987C61.3297 10.8182 61.3947 9.93811 61.4577 9.0583L61.6647 9.05327C61.6889 9.2955 61.713 9.53673 61.7442 9.85736L62.0738 9.87344C62.1743 8.77686 62.2658 7.74863 62.3593 6.72141L62.5684 6.71136L62.7342 7.47524H62.8618C62.9161 7.04505 62.9885 6.61486 63.0176 6.18267C63.0185 5.92704 63.0003 5.67171 62.9634 5.41878C62.9815 5.24791 62.9995 5.07704 63.0166 4.90617L63.678 5.07202C63.7389 4.95623 63.7842 4.83286 63.8127 4.70515C63.8609 4.19556 63.9001 3.68496 63.9132 3.17436C63.9132 3.05475 63.8127 2.93213 63.7564 2.81151C63.7745 2.70598 63.7926 2.60044 63.8117 2.4949L64.5826 2.58034C64.654 1.97727 64.7213 1.4124 64.7907 0.825411C65.6721 0.825411 66.4883 0.825411 67.3034 0.825411C69.4477 0.81268 71.5899 0.797269 73.7301 0.779177L73.8126 0.879688C73.6769 1.43552 73.7563 1.96521 73.9131 2.48787L74.094 2.48284C74.1161 2.24262 74.1382 2.0024 74.1633 1.72398L74.5795 1.82449C74.5795 1.92501 74.5795 2.01848 74.5795 2.11497L74.4176 2.30293L74.5925 2.42253C74.6247 2.97635 74.6579 3.52816 74.693 4.10208H75.0951C75.081 3.89402 75.0689 3.72014 75.0549 3.51509L75.3825 3.43167C75.4241 3.95969 75.4656 4.48804 75.5072 5.01673V5.92837L76.1253 5.65599C76.1923 6.25034 76.2593 6.84369 76.3263 7.43604C76.2912 7.75165 76.256 8.06826 76.2158 8.43211L76.9194 8.34969C77.0068 9.19399 77.0902 10.0101 77.1747 10.8273L77.4088 10.8625C77.4601 10.7067 77.5003 10.5469 77.5656 10.3971C77.631 10.2473 77.7234 10.1016 77.8039 9.95486C77.8521 10.3569 77.9044 10.7529 77.9476 11.153C77.9677 11.3309 77.9818 11.5098 77.9978 11.6877C77.8567 12.22 77.8752 12.782 78.0511 13.3039H78.232C78.2431 13.0958 78.2541 12.8878 78.2682 12.6254L78.5788 12.5581C78.6482 13.4004 78.7125 14.1894 78.7798 15.0367L79.4904 14.9694C79.5497 15.7684 79.5095 16.5775 79.7719 17.3233L79.9427 17.2952V16.7323L80.3649 16.6419C80.3649 17.0721 80.3625 17.5026 80.3578 17.9334C80.393 18.3355 80.4282 18.7375 80.4644 19.1547L81.0675 19.0783C81.1569 19.8824 81.2434 20.6623 81.3398 21.5197L81.6414 21.4956C81.6725 21.2051 81.6936 20.999 81.7158 20.792L81.8685 20.8L82.0364 21.191C82.0364 21.2564 82.0364 21.3227 82.0364 21.392C81.9972 22.2605 82.0183 23.1218 82.2244 23.9641L82.355 23.9571V23.3812L82.7239 23.1691C82.7852 24.0325 82.8415 24.8195 82.9028 25.6819L83.738 25.6105C83.7722 25.912 83.8074 26.2136 83.8386 26.5151C83.8104 26.8287 83.7823 27.1413 83.7571 27.4197H84.5261C84.5361 27.677 84.5462 27.9353 84.5552 28.1926C84.5653 28.7565 84.5743 29.3214 84.5833 29.9013L85.2698 29.8058C85.3362 30.4089 85.3985 30.9879 85.4608 31.5718C85.3218 31.601 85.1811 31.6221 85.0397 31.6352C83.3501 31.6352 81.6605 31.6402 79.9709 31.6291C79.7809 31.6291 79.591 31.5427 79.3256 31.4784L78.8854 31.5306C78.8532 31.0582 78.814 30.626 78.7949 30.1918C78.7587 29.3968 78.6823 29.1777 78.3929 29.0862C78.3259 29.3542 78.2558 29.6256 78.1828 29.9003L78.025 29.8672C77.9406 28.795 77.8558 27.7259 77.7707 26.6598L77.5878 26.6689C77.5878 26.7975 77.6209 26.9383 77.5787 27.0518C77.5365 27.1654 77.4199 27.2529 77.244 27.4539C77.1626 26.4659 77.0963 25.6447 77.036 24.9099L76.1896 24.8004V24.4918C76.2449 24.4436 76.3495 24.3913 76.3474 24.3461C76.3324 23.9983 76.3083 23.6505 76.263 23.3048C76.2198 22.9801 76.1474 22.6585 76.0881 22.3348L75.8871 22.3429C75.875 22.5781 75.864 22.8133 75.8489 23.1229L75.4881 23.1982L75.4217 22.3499C75.4147 22.1951 75.4087 22.0403 75.4016 21.8866L75.3956 21.6855C75.6067 21.1056 75.3896 20.5729 75.2066 20.0271C75.1303 20.2472 75.0539 20.4663 74.9785 20.6865L74.8046 20.6563C74.7336 19.8649 74.6629 19.0743 74.5925 18.2842C74.2166 18.1837 74.1473 18.2139 73.8015 18.639L73.6919 17.3696V16.5534L73.0276 16.6539C72.9606 16.0777 72.8959 15.5011 72.8336 14.9241C72.8476 14.6477 72.8627 14.3723 72.8778 14.0798L72.1089 14.1492C72.0767 13.6051 72.0432 13.0617 72.0084 12.5189C72.0245 12.2103 72.0405 11.9018 72.0536 11.6384H71.3068C71.2927 11.3751 71.2797 11.1117 71.2656 10.8484C71.2565 10.2453 71.2535 9.64227 71.2364 9.0392C71.2294 8.82008 71.1872 8.60097 71.1621 8.38185H70.9892C70.9701 8.5678 70.952 8.75375 70.9289 8.97487L70.6344 9.04523C70.5821 8.26124 70.5339 7.51645 70.4746 6.67618L69.6996 6.56963C69.6705 6.3073 69.6373 6.00576 69.5911 5.5796L68.6221 5.88817V6.60079L67.8613 6.56159C67.9135 6.89429 67.9558 7.16466 67.999 7.44107L67.9427 8.32758C67.7045 8.46327 67.6984 8.60298 67.9427 8.7457L67.8733 9.14172L67.5246 9.02915C67.4944 8.71555 67.4733 8.49845 67.4522 8.28134L67.2059 8.29542V10.0483C67.1919 10.3164 67.1775 10.5817 67.1627 10.8444L66.3586 10.8002C66.2903 11.6515 66.227 12.4455 66.1576 13.2617L65.4771 13.1913V14.888L65.3515 16.5645C65.275 16.4288 65.2055 16.2892 65.1435 16.1464C65.0821 15.9886 65.0429 15.8207 64.9967 15.6579L64.7876 15.679C64.6016 16.2582 64.5605 16.8743 64.668 17.4731C64.658 17.7043 64.6489 17.9365 64.6399 18.1676L63.7514 18.243L63.9001 19.0923L63.8519 20.3829L63.6941 20.5709L63.8901 20.6382L63.871 20.6613L63.8941 20.6432L64.0429 20.8533L64.2439 20.6704L64.5454 20.6975C64.6831 20.7538 64.8178 20.8543 64.9565 20.8583C65.4892 20.8764 66.0239 20.8754 66.5566 20.8583C66.8293 20.8367 67.1007 20.8012 67.3698 20.7518L68.3116 20.7287L68.7136 20.7458L68.8594 20.8071C68.8252 20.999 68.791 21.191 68.7588 21.4051C68.8463 21.4966 68.9337 21.588 68.9327 21.588H69.576C69.5981 22.0263 69.6112 22.4665 69.6484 22.9037C69.6759 23.0744 69.7176 23.2425 69.773 23.4063C69.7428 23.6566 69.7137 23.9088 69.6815 24.1772L70.3751 23.9993ZM59.1912 31.8251C59.1912 31.7698 59.1912 31.7146 59.1912 31.6603H53.8741C53.8741 31.7146 53.8741 31.7698 53.8741 31.8251H59.1912Z" fill="#F9F9F9"/>
<path d="M103.868 31.6091L102.786 31.4814C102.802 31.2422 102.818 31.002 102.837 30.7226H101.823L101.103 30.6522C101.131 30.4261 101.16 30.2009 101.204 29.8883L100.33 29.818L100.348 29.029L101.033 29.1395C101.408 28.6279 101.133 27.9264 101.31 27.3364L101.978 27.3735C102.015 26.8067 102.048 26.3041 102.088 25.7L103.586 25.8307C103.509 26.0217 103.459 26.1463 103.405 26.281L102.925 26.0046V26.4277L105.219 26.7554L105.24 26.879L104.555 27.1162C104.573 27.1695 104.59 27.2228 104.608 27.2761C105.513 27.3464 106.425 27.4228 107.334 27.4771C107.473 27.4861 107.616 27.4188 107.757 27.3876L109.365 27.4087C109.265 27.5153 109.173 27.6962 109.058 27.7103C108.764 27.7555 108.455 27.7103 108.159 27.7354C107.799 27.7655 107.442 27.8359 107.084 27.8841C107.141 28.0229 107.192 28.0721 107.247 28.0761C108.19 28.1465 109.135 28.2651 110.079 28.2681C111.945 28.2681 113.813 28.2178 115.678 28.1736C115.819 28.1736 115.958 28.0641 116.098 28.0058C116.089 27.9575 116.08 27.9053 116.072 27.861C115.982 27.8061 115.883 27.7664 115.779 27.7434C115.451 27.7253 115.119 27.7575 114.797 27.7123C114.682 27.6972 114.596 27.5112 114.495 27.4047H115.944L116.183 27.2801C116.496 27.4751 116.786 27.4439 117.068 27.2218C117.035 26.9906 117.005 26.7815 116.976 26.5735L117.289 26.5162L117.942 26.6529L117.968 26.5212L118.558 26.5705C118.577 26.1755 118.593 25.8367 118.608 25.498L118.59 25.297V24.9955C118.555 24.1002 118.522 23.2053 118.49 22.3108V21.6122L117.806 21.5369C117.83 21.3117 117.852 21.1077 117.878 20.8695L117.641 20.6222L117.022 20.6845C116.989 20.4001 116.964 20.182 116.937 19.9448L115.278 19.7437C115.31 19.5306 115.333 19.3738 115.367 19.1457L113.425 18.9326L113.656 18.3506L111.134 18.0491C111.185 17.8963 111.218 17.7968 111.235 17.7345L111.812 17.6551C111.806 17.5817 111.8 17.5084 111.795 17.435H109.393L108.645 17.3847C108.684 17.241 108.723 17.0973 108.745 17.0068L109.5 16.9636C109.5 16.8882 109.5 16.8128 109.5 16.7374L106.953 16.4359C106.971 16.2198 106.987 16.0339 107.005 15.8238L105.189 15.6017L105.445 15.0227L103.737 14.8217C103.661 14.4689 103.608 14.2236 103.556 13.9804L102.896 14.0709C102.847 13.7693 102.803 13.4869 102.755 13.1834L101.995 13.2839C101.943 12.9602 102.331 12.5642 101.925 12.3491H101.13L101.144 11.9621C101.312 11.6083 101.214 10.957 100.956 10.7017L100.368 10.7831L100.356 6.6461L100.866 6.70841V8.34876H100.979L101.069 6.85114H101.158L101.191 4.90222C101.475 4.88011 101.794 5.1917 101.965 4.93338C102.055 4.57355 102.112 4.3464 102.166 4.12929L102.784 4.19262V3.28299L102.789 3.27796L103.498 3.39053L103.741 3.18951L103.525 2.61861L104.584 2.43165V1.80547L106.311 1.64867C106.287 1.319 106.268 1.07777 106.249 0.836539L107.787 0.753116C108.089 0.804377 108.42 0.954139 108.734 0.51792L107.908 0.2978L108.569 0.0967772C109.485 0.0656187 110.401 0.00832671 111.316 0.00832671C113.387 0.00832671 115.458 0.0344599 117.53 0.0525519C117.579 0.0604495 117.627 0.0749893 117.672 0.0957711C117.714 0.201308 117.757 0.306846 117.799 0.411378L117.736 0.485756L117.598 0.618431L117.768 0.718943L120.095 0.837545C120.089 0.960169 120.084 1.08179 120.077 1.22954L119.461 1.15717C119.47 1.34111 119.477 1.49489 119.482 1.5954L121.949 1.84266C121.87 2.06077 121.816 2.20752 121.738 2.42161L122.829 2.58041C122.748 3.39656 122.674 4.14839 122.597 4.9364L121.919 4.86001V6.63805L121.015 6.7245L119.339 6.63303C119.363 6.30938 119.378 6.10937 119.391 5.92945L117.703 5.71134C117.727 5.51032 117.752 5.30929 117.788 5.00173L116.961 5.04495L111.123 4.98062L110.669 4.99369H108.707C108.685 5.35654 108.671 5.59676 108.658 5.82995C108.349 5.87417 107.975 5.66108 107.747 6.02594L107.939 6.60187C107.437 6.73756 107.779 7.16674 107.649 7.43209L107.019 7.36174C106.873 8.22413 106.962 9.06138 107.042 9.92779L107.645 9.82728C107.706 10.1489 107.761 10.4464 107.826 10.7942H108.707C108.718 10.7913 108.73 10.7926 108.741 10.7977C108.751 10.8029 108.76 10.8116 108.764 10.8223C108.707 11.0374 108.651 11.2525 108.578 11.5259L110.381 11.8043C110.309 12.0275 110.263 12.1722 110.18 12.4406H111.973L112.728 12.4828L112.636 12.8115L111.912 12.9642C111.912 13.0356 111.912 13.107 111.917 13.1783L114.541 13.4035L114.268 14.0065L116.904 14.293C116.889 14.5081 116.878 14.68 116.859 14.9564L118.568 14.876L119.099 14.9212L119.426 15.0277C119.378 15.1383 119.325 15.2499 119.282 15.3604C119.256 15.3242 119.229 15.2891 119.201 15.2529L118.598 15.4358C118.607 15.5202 118.616 15.6037 118.626 15.6881L120.995 15.9163L121.072 16.5897L121.943 16.6339L122.71 16.6801C122.749 16.9445 122.788 17.2088 122.824 17.4501L123.493 17.3686C123.508 17.3754 123.519 17.3873 123.525 17.4019C123.532 17.4165 123.532 17.4329 123.527 17.4481V18.9929H124.286C124.326 19.3266 124.367 19.6583 124.413 20.0362L125.062 19.9759C125.095 20.0252 125.129 20.0523 125.13 20.0764C125.142 21.9922 125.148 23.9079 125.165 25.8237C125.165 26.1141 125.216 26.4036 125.244 26.6931C125.235 26.8941 125.227 27.0891 125.218 27.2871C125.041 27.262 124.857 27.1997 124.687 27.2258C124.587 27.2419 124.511 27.3997 124.424 27.4942V27.6952C124.357 27.854 124.29 28.0131 124.223 28.1726L123.592 28.1043V29.0843C123.593 29.0962 123.59 29.1082 123.583 29.118C123.576 29.1277 123.565 29.1343 123.553 29.1365C123.259 29.1797 122.921 28.8259 122.649 29.237L122.829 29.7275L121.731 29.8883C121.767 30.1788 121.787 30.3326 121.799 30.4281C121.598 30.7005 121.144 30.1869 121.129 30.7487C121.129 30.7605 121.125 30.772 121.117 30.7807C121.109 30.7893 121.098 30.7944 121.086 30.795L120.2 30.7155C120.243 31.0513 120.271 31.2754 120.301 31.4995L119.426 31.5397L117.717 31.6272L117.709 31.8393C117.883 31.8533 118.054 31.887 118.22 31.9398C118.366 32.0051 118.482 32.1408 118.61 32.2413L115.348 32.382C115.17 32.3478 114.991 32.325 114.81 32.3137C112.912 32.3077 111.015 32.3077 109.117 32.3137C108.938 32.3274 108.76 32.3549 108.584 32.3961C107.904 32.4755 107.223 32.5539 106.574 32.2473L106.365 32.2654L105.259 32.2483L104.937 32.2343L104.535 32.2272C104.654 32.1358 104.763 31.99 104.896 31.9609C105.264 31.8815 105.643 31.8503 106.018 31.8011C106.018 31.7398 106.012 31.6795 106.008 31.6181H103.983L103.868 31.6091ZM111.13 4.47103C112.45 4.68841 113.798 4.67208 115.112 4.42279C113.809 4.13834 111.548 4.15141 111.13 4.47505V4.47103ZM119.143 24.7381H119.254V23.2596H119.143V24.7381Z" fill="#F9F9F9"/>
<path d="M194.193 32.4011L192.953 32.3508L192.745 32.3699L192.052 32.2694L191.737 32.0302L192.53 31.8222L192.495 31.587L190.399 31.4864L190.335 31.8473L190.124 31.6463L189.948 31.2864V30.7045L188.375 30.5919C188.322 30.2823 188.275 30.024 188.244 29.827H187.407C187.402 29.8252 187.397 29.8221 187.392 29.8181C187.388 29.814 187.384 29.8091 187.382 29.8035C187.379 29.798 187.378 29.7921 187.378 29.7861C187.378 29.78 187.38 29.7741 187.382 29.7687C187.454 29.5134 187.526 29.2581 187.598 28.9988L188.234 29.0993C188.284 28.7978 188.334 28.5123 188.376 28.2339L189.212 28.1334C189.19 27.8992 189.172 27.7243 189.149 27.474L189.403 27.2157L189.82 27.3755C189.84 27.1021 189.856 26.88 189.882 26.5312C190.184 26.5574 190.478 26.5996 190.773 26.6006C190.925 26.6006 191.074 26.5282 191.231 26.489L191.675 26.5704C191.643 26.7946 191.612 27.0187 191.565 27.3604H193.31L198.174 27.4107L198.39 27.3615L199.078 27.3072L199.973 27.4127C199.953 27.1031 199.94 26.9102 199.924 26.6679H200.775V25.698C201.062 25.6065 201.44 26.0156 201.674 25.497L201.574 24.8075C201.584 24.5749 201.593 24.3434 201.603 24.1129L201.918 23.2998C202.085 23.9793 202.085 23.9793 202.405 24.0717V0.792289H208.239C208.231 0.825224 208.225 0.858858 208.222 0.8928C208.222 8.40636 208.222 15.9192 208.222 23.4315C208.237 23.5905 208.268 23.7476 208.313 23.9009L208.204 25.702L207.454 25.7573V27.2579C207.422 27.4429 207.385 27.6278 207.359 27.8138C207.336 27.9736 207.324 28.1344 207.303 28.3274L206.706 28.1776C206.664 28.4791 206.627 28.7445 206.59 29.0119L205.676 29.0822C205.731 29.3908 205.767 29.5948 205.803 29.7979C205.799 29.8119 205.79 29.824 205.777 29.832C205.765 29.8399 205.75 29.8431 205.736 29.8411H204.796C204.816 30.1165 204.83 30.3175 204.846 30.5447L203.118 30.6924C203.148 30.9678 203.169 31.1718 203.194 31.4211L200.716 31.6141L200.707 31.8443L201.521 32.0262L201.083 32.2694L199.145 32.4011C199.019 32.3656 198.89 32.3417 198.76 32.3297C197.563 32.325 196.366 32.325 195.168 32.3297C195.039 32.3439 194.912 32.3722 194.789 32.4142L194.623 32.4041L194.193 32.4011ZM198.36 28.0087L198.306 27.7947C196.666 27.7082 195.027 27.7012 193.381 27.9424C193.407 27.9835 193.441 28.0187 193.481 28.0459C193.521 28.0731 193.566 28.0916 193.614 28.1002C195.03 28.1374 196.446 28.1736 197.863 28.1897C198.031 28.1867 198.196 28.067 198.363 28.0037L198.36 28.0087Z" fill="#F9F9F9"/>
<path d="M8.10825 0.891775L1.2976 0.819406C1.13477 0.819406 0.972949 0.819406 0.795044 0.819406V31.5839H6.41765C6.45785 31.4593 6.56942 31.2723 6.57042 31.0814C6.57042 25.1767 6.56741 19.2716 6.56138 13.3662C6.56138 12.5531 6.56138 11.74 6.56138 10.8444L7.48206 10.8856L7.27199 11.4555L8.19067 11.6073C8.17459 11.9159 8.15649 12.2365 8.13941 12.5581L7.33532 12.4576V32.2453H6.487C6.45685 32.1126 6.42669 31.9789 6.41664 31.9317H0.762881L0.742779 32.0523L1.05135 32.3398L0 32.2835V0.212317C1.12372 -0.0339359 7.56247 0.0303914 8.10021 0.312828L7.29109 0.497769L7.30918 0.644515L8.10825 0.891775Z" fill="#B6B6B6"/>
<path d="M37.338 32.2614C37.2847 32.0895 37.2304 31.9176 37.1842 31.7668C37.2294 31.5216 37.3128 31.2834 37.3138 31.0442C37.3185 21.2611 37.3205 11.478 37.3199 1.69485C37.3199 1.46468 37.3621 1.23451 37.3942 0.903831C37.1822 0.864766 36.9681 0.838251 36.753 0.824426C34.6945 0.81337 32.632 0.81136 30.5796 0.805329C30.5947 0.624409 30.6097 0.442482 30.6288 0.214322C30.8871 0.0313911 37.148 -0.016852 38.0114 0.207288C37.9611 0.35906 37.9109 0.508821 37.8616 0.658583L38.0546 0.934989V32.3227L37.338 32.2614Z" fill="#B6B6B6"/>
<path d="M208.239 0.792299H202.404V24.0637C202.085 23.9712 202.085 23.9712 201.918 23.2918L201.602 24.1049C201.602 22.3694 201.602 20.6339 201.602 18.8984C201.594 13.0017 201.588 7.1024 201.583 1.20037C201.583 0.999352 201.684 0.798332 201.761 0.511874L201.695 0.257581C201.85 -0.0168153 207.964 0.0103227 208.299 0.257581L208.239 0.792299Z" fill="#B6B6B6"/>
<path d="M208.313 23.8969C208.268 23.7437 208.238 23.5865 208.223 23.4275C208.223 15.9146 208.223 8.40173 208.223 0.888847C208.226 0.854905 208.231 0.82127 208.24 0.788335L208.944 0.861707C208.975 0.989262 208.994 1.11952 209 1.25069C209 8.39503 208.996 15.539 208.987 22.6827C208.984 23.3593 208.924 24.0344 208.808 24.701C208.536 16.8852 208.716 9.06544 208.615 1.24868L208.463 1.23762C208.45 1.41754 208.427 1.59845 208.426 1.77837C208.416 8.75453 208.406 15.7314 208.395 22.7089C208.389 23.1059 208.337 23.5019 208.313 23.8969Z" fill="#B6B6B6"/>
<path d="M76.1965 24.8054L77.0428 24.915C77.1031 25.6537 77.1694 26.4709 77.2509 27.4589C77.4268 27.2579 77.5433 27.1714 77.5856 27.0569C77.6278 26.9423 77.5946 26.8026 77.5946 26.6739L77.7775 26.6649C77.862 27.737 77.9467 28.8061 78.0318 29.8722L78.1896 29.9053C78.26 29.6326 78.33 29.3612 78.3997 29.0912C78.6852 29.1787 78.7615 29.3927 78.8017 30.1968C78.8208 30.63 78.86 31.0632 78.8922 31.5356L79.3324 31.4834C79.5978 31.5477 79.7878 31.6331 79.9777 31.6341C81.6673 31.6452 83.3569 31.6422 85.0465 31.6402C85.188 31.6271 85.3286 31.606 85.4677 31.5769C85.4053 30.9929 85.343 30.419 85.2767 29.8109L84.5902 29.9064C84.5812 29.3214 84.5721 28.7565 84.5621 28.1977L85.0284 28.2338L84.8385 28.5545L85.4657 29.0852L85.3189 29.1787C85.4978 29.6229 85.6771 30.0672 85.8566 30.5114C85.8285 30.9386 85.8004 31.3658 85.7682 31.8573H79.5767C79.5596 32.0282 79.5465 32.1679 79.5325 32.3066H79.2098C79.1777 32.1789 79.1465 32.0513 79.1093 31.9236L78.9465 31.9688C78.9706 32.0854 78.9957 32.201 79.0209 32.3176C78.457 32.3176 78.8068 31.8925 78.6831 31.5507L77.9142 31.4753V30.5255L78.2268 30.4551V30.2984L77.9132 30.229C77.8569 29.8119 77.8007 29.3937 77.7373 28.9224L77.2137 29.2239C77.1292 28.3133 77.0478 27.4458 76.9634 26.5342L76.3171 26.6347C76.2769 26.0176 76.2417 25.4115 76.1965 24.8054Z" fill="#B6B6B6"/>
<path d="M29.7672 2.39144V3.39053L29.133 3.33625C29.0616 3.8579 28.9892 4.3866 28.9078 4.97459L28.2696 4.94242C28.1479 5.49423 28.0253 6.04805 27.8957 6.60287C27.8957 6.60287 27.8072 6.58779 27.7489 6.57674C27.7248 6.35963 27.7017 6.14856 27.6786 5.93648H27.5027C27.4333 6.47723 27.3629 7.01899 27.2866 7.60497L26.6423 7.56074C26.5971 7.89645 26.5538 8.22512 26.5106 8.55279L26.5478 8.5739C26.4855 8.79502 26.4222 9.01615 26.3468 9.27748L25.7437 9.00308C25.6824 9.63228 25.6261 10.2092 25.5678 10.8123L24.9155 10.7409C24.9024 10.9771 24.8904 11.1892 24.8733 11.5068C24.827 11.7189 24.7577 12.0415 24.6723 12.4335H23.9194L23.9466 12.1611L24.2692 11.9601L23.9536 11.7531C23.9787 11.4355 24.0049 11.1178 24.033 10.7701L24.5677 10.8475L24.8059 9.72676L24.8974 9.73983C24.8843 9.57801 24.8723 9.41719 24.8562 9.21013H25.5316C25.5919 8.87543 25.6543 8.52465 25.7226 8.1427L26.2804 8.30553C26.3438 7.93364 26.4011 7.58989 26.4594 7.24614H26.5066L26.4272 6.69635L27.2021 6.62297C27.2594 6.24002 27.3197 5.84099 27.379 5.449L27.8896 5.08716C27.972 4.67506 28.0384 4.33634 28.1057 3.99661L28.1861 4.01169C28.1962 3.80262 28.2052 3.59356 28.2163 3.34932L28.8194 3.50008C28.8756 3.15634 28.9269 2.83972 28.9842 2.48492L29.7672 2.39144Z" fill="#B6B6B6"/>
<path d="M73.7289 0.778244C71.5847 0.794326 69.4424 0.809737 67.3022 0.824479C66.4871 0.829504 65.6709 0.824479 64.7894 0.824479C64.7201 1.41146 64.6527 1.97433 64.5814 2.57941L63.8104 2.49397V0.840561L64.4135 0.907905L64.7432 0.639538C64.705 0.502843 64.6658 0.367152 64.6015 0.143012H73.7771C73.7611 0.363132 73.746 0.571191 73.7289 0.778244Z" fill="#B6B6B6"/>
<path d="M161.105 0.90596C160.695 0.877817 160.285 0.826558 159.875 0.825553C157.616 0.817512 155.352 0.825553 153.096 0.825553C152.669 0.825553 152.243 0.825553 151.815 0.825553C151.856 0.62453 151.897 0.423505 151.955 0.139058H161.081C160.992 0.355158 160.943 0.471753 160.88 0.612469L161.105 0.90596Z" fill="#B6B6B6"/>
<path d="M109.397 17.436H111.799C111.799 17.5094 111.81 17.5828 111.816 17.6561L111.239 17.7355C111.218 17.7979 111.184 17.8974 111.138 18.0502L113.66 18.3517L113.429 18.9336L115.365 19.1497C115.331 19.3779 115.307 19.5347 115.276 19.7478L116.935 19.9488C116.962 20.182 116.987 20.4041 117.02 20.6886L117.639 20.6263L117.876 20.8735C117.85 21.1117 117.828 21.3158 117.804 21.5409L118.488 21.6163V22.3148L117.885 22.4445C117.821 22.1339 117.757 21.8133 117.69 21.4836H116.922C116.967 21.2534 116.998 21.0987 117.044 20.8615L115.939 20.6876C115.967 20.4504 115.988 20.2765 116.012 20.0684L113.518 19.795L113.668 19.2372L113.273 19.0643C113.23 18.8995 113.187 18.7346 113.142 18.5698L112.952 18.5879C112.928 18.7477 112.904 18.9085 112.881 19.0693L111.756 19.01C111.828 18.7718 111.872 18.6241 111.929 18.4311L109.507 18.1416C109.461 17.8562 109.43 17.6461 109.397 17.436Z" fill="#B6B6B6"/>
<path d="M107.753 27.3926C107.612 27.4237 107.469 27.4931 107.33 27.482C106.425 27.4227 105.513 27.3464 104.604 27.281C104.586 27.2278 104.569 27.1745 104.551 27.1212L105.236 26.884L105.215 26.7604L102.921 26.4327V26.0096L103.401 26.286C103.455 26.1513 103.502 26.0266 103.582 25.8357L102.084 25.705C102.044 26.3081 102.011 26.8106 101.974 27.3785L101.306 27.3413C101.13 27.9313 101.407 28.6329 101.029 29.1445L100.345 29.0339C100.378 28.4912 100.412 27.9477 100.445 27.4036L100.646 27.3876C100.703 27.6395 100.761 27.8925 100.819 28.1464L100.996 28.1384L101.249 25.7352L102.089 25.6035C102.008 25.3783 101.96 25.2457 101.868 24.9914L102.891 24.9461C102.834 25.2236 102.803 25.3783 102.754 25.6166L104.555 25.7894C104.521 25.9985 104.496 26.1563 104.454 26.4076L106.506 26.6307C106.557 26.7855 106.606 26.9232 106.65 27.0689L107.011 27.2901L107.753 27.3926Z" fill="#B6B6B6"/>
<path d="M108.584 32.401C108.76 32.3599 108.938 32.3323 109.117 32.3186C111.015 32.3139 112.912 32.3139 114.81 32.3186C114.991 32.3299 115.17 32.3528 115.348 32.387C115.43 32.4875 115.503 32.6694 115.597 32.6815C115.938 32.7277 116.288 32.7066 116.631 32.7337C116.732 32.7408 116.815 32.8292 116.894 32.9629C113.577 33.2926 110.276 33.2383 106.926 33.0634C107.076 32.4825 107.448 32.8332 107.685 32.7619C107.966 32.6805 108.27 32.6764 108.589 32.6362L108.584 32.401Z" fill="#B6B6B6"/>
<path d="M114.482 27.4138C114.583 27.5213 114.674 27.7063 114.784 27.7213C115.105 27.7666 115.438 27.7344 115.766 27.7525C115.869 27.7755 115.968 27.8152 116.059 27.8701C116.067 27.9183 116.075 27.9706 116.084 28.0148C115.945 28.0731 115.806 28.1797 115.665 28.1827C113.8 28.2269 111.932 28.2832 110.066 28.2772C109.122 28.2772 108.177 28.1556 107.233 28.0852C107.179 28.0852 107.128 28.0319 107.07 27.8932C107.428 27.842 107.786 27.7746 108.146 27.7445C108.447 27.7183 108.749 27.7646 109.044 27.7193C109.16 27.7012 109.245 27.5183 109.352 27.4178L114.482 27.4138Z" fill="#B6B6B6"/>
<path d="M121.922 6.638V4.86096L122.6 4.93735C122.677 4.14935 122.751 3.39752 122.832 2.58137L121.741 2.42256C121.819 2.20847 121.873 2.06172 121.952 1.84362L119.485 1.59636C119.485 1.49584 119.473 1.34206 119.464 1.15813L120.08 1.2305C120.087 1.08274 120.092 0.961125 120.098 0.838502L121.112 0.954089C121.079 1.11993 121.048 1.2707 121.002 1.49383L123.472 1.75919C123.705 2.36225 123.653 3.82972 123.318 4.35941C123.182 4.09808 123.076 3.89505 122.978 3.70609C122.878 4.61069 122.767 5.57962 122.647 6.63901L121.922 6.638Z" fill="#B6B6B6"/>
<path d="M67.9999 7.44415C67.9567 7.17076 67.9145 6.89737 67.8622 6.56468L68.6231 6.60387V5.89125L69.592 5.58268C69.6383 6.00885 69.6714 6.31038 69.7006 6.57272L70.4755 6.67825C70.5318 7.51853 70.5831 8.26332 70.6353 9.04731L70.9298 8.97695C70.9529 8.75582 70.971 8.56988 70.9901 8.38393H71.163C71.1881 8.60304 71.2304 8.82216 71.2374 9.04127C71.2545 9.64434 71.2575 10.2474 71.2665 10.8505H70.563L70.373 10.6625L70.5147 10.6123C70.4534 9.8333 70.3921 9.05535 70.3288 8.25729L69.5247 8.38091V6.4903L68.8151 6.69132L68.6723 7.611L67.9999 7.44415Z" fill="#B6B6B6"/>
<path d="M118.567 14.8881L116.858 14.9685C116.876 14.6921 116.888 14.5202 116.903 14.3051L114.267 14.0187L114.54 13.4156L111.916 13.1905C111.916 13.1191 111.916 13.0477 111.911 12.9764L112.635 12.8236L112.727 12.4949L114.583 12.5954L114.302 13.0668C115.09 13.4196 115.959 13.2015 116.782 13.4759L116.413 13.9131L117.549 14.083L118.617 14.2368C118.596 14.4981 118.581 14.6931 118.567 14.8881Z" fill="#B6B6B6"/>
<path d="M101.997 13.2828L102.757 13.1823C102.805 13.4838 102.849 13.7653 102.899 14.0698L103.558 13.9794C103.61 14.2226 103.658 14.4678 103.739 14.8206L105.447 15.0217L105.191 15.6006L107.012 15.8257C106.994 16.0328 106.978 16.2218 106.96 16.4379L109.507 16.7394C109.507 16.8148 109.507 16.8902 109.507 16.9655L108.752 17.0088C108.727 17.0992 108.688 17.243 108.652 17.3867H107.546L107.809 16.7675L105.285 16.4881C105.347 16.2921 105.385 16.1574 105.465 15.9253L103.714 15.6237C103.632 14.9664 104.262 15.483 104.411 15.1212L102.869 14.888C102.821 14.6206 102.769 14.3191 102.714 14.0266H102.002L101.997 13.2828Z" fill="#B6B6B6"/>
<path d="M62.9581 5.41988C62.995 5.67282 63.0132 5.92815 63.0124 6.18377C62.9832 6.61597 62.9119 7.04616 62.8566 7.47635H62.7289L62.5631 6.71246L62.354 6.72251C62.2605 7.74974 62.1681 8.77797 62.0686 9.87455L61.7389 9.85847C61.7077 9.53984 61.6836 9.29862 61.6595 9.05437L61.4524 9.0594C61.3854 9.93988 61.3204 10.82 61.2574 11.6998L61.0433 11.7159C60.9961 11.4666 60.9499 11.2184 60.8896 10.9008L60.5006 10.8525C60.5535 10.0565 60.6071 9.26076 60.6614 8.46538L60.7559 8.45935C60.771 8.63424 60.7418 8.83225 60.8162 8.97698C60.8725 9.08654 61.0614 9.12674 61.1891 9.1971L61.4012 7.48841C62.0042 7.49344 61.6906 7.92061 61.772 8.14475L61.9077 8.15379C62.0314 7.32257 62.155 6.49234 62.2857 5.61186L62.7963 5.81288C62.8505 5.68423 62.9038 5.55256 62.9581 5.41988Z" fill="#B6B6B6"/>
<path d="M23.1155 13.9542V14.9121L22.443 15.0045C22.3425 15.5955 22.2571 16.1102 22.1706 16.6328L21.9696 16.6529L21.7817 15.9071H21.6681C21.5746 16.676 21.4801 17.4449 21.3816 18.2521L20.7896 18.1897C20.7414 18.6802 20.6891 19.1717 20.6308 19.818L20.0277 19.9909L20.0056 19.9105L19.7885 20.1045V18.3053L20.5042 18.2732C20.5323 18.1023 20.5715 17.8711 20.6097 17.6399L20.5092 17.6158C20.5856 17.4902 20.661 17.3645 20.7434 17.2268V16.5976L21.3615 16.7122C21.3706 15.9192 21.6028 15.2246 22.248 14.8668C22.3053 14.506 22.3486 14.2416 22.3837 14.0115L23.1155 13.9542Z" fill="#B6B6B6"/>
<path d="M125.242 26.7111C125.214 26.4217 125.165 26.1322 125.163 25.8417C125.145 23.926 125.139 22.0102 125.127 20.0945C125.127 20.0673 125.093 20.0402 125.06 19.994L124.411 20.0543C124.364 19.6763 124.324 19.3447 124.284 19.011H123.531V17.4631L124.31 17.5083C124.302 17.6862 124.295 17.833 124.288 17.9797L124.329 17.9727C124.393 18.3054 124.456 18.6381 124.53 19.015H125.159C125.425 19.7728 125.086 20.6654 125.738 21.2855C125.711 22.4092 125.677 23.533 125.671 24.6557C125.671 24.7451 125.864 24.8346 125.973 24.924V25.9101L125.423 25.6397C125.353 26.0166 125.298 26.3644 125.242 26.7111ZM124.221 18.4119L124.04 18.3978L124.014 18.7396L124.197 18.7526L124.221 18.4119Z" fill="#B6B6B6"/>
<path d="M80.3629 16.6399L79.9407 16.7304V17.2932L79.7698 17.3214C79.5075 16.5746 79.5477 15.7665 79.4884 14.9674L78.7778 15.0347C78.7074 14.1874 78.6431 13.3984 78.5768 12.5561L78.2662 12.6235C78.2521 12.8858 78.2411 13.0939 78.23 13.3019H78.0491C77.8719 12.7775 77.8537 12.2124 77.9968 11.6777L78.6411 11.4495C78.7346 12.0767 78.824 12.6788 78.9215 13.3311L79.4703 13.1351C79.5346 13.715 79.597 14.2809 79.6713 14.9282L80.2744 15.0508C80.2995 15.5624 80.3317 16.1012 80.3629 16.6399Z" fill="#B6B6B6"/>
<path d="M194.789 32.4112C194.912 32.3693 195.039 32.341 195.168 32.3268C196.365 32.3201 197.562 32.3201 198.76 32.3268C198.89 32.3388 199.019 32.3627 199.145 32.3982C199.137 32.4766 199.129 32.555 199.121 32.6283L200.126 32.8525C199.532 33.2726 193.758 33.2706 193.12 32.8585L194.823 32.557C194.812 32.5278 194.801 32.4695 194.789 32.4112Z" fill="#B6B6B6"/>
<path d="M155.113 8.28733V7.34956L155.77 7.436V5.72027L157.013 5.85395C157.013 5.9022 157.007 5.95447 157.005 5.99869L157.442 5.80973C157.47 5.98964 157.491 6.12533 157.526 6.3545L156.978 6.1585L156.723 6.53039L157.556 6.67614C157.624 7.24 157.691 7.80588 157.757 8.3989L158.369 8.24612C158.495 8.84919 158.546 9.42713 158.404 10.0121L157.693 9.93572C157.614 9.13163 157.528 8.2803 157.439 7.38474L156.868 7.55863C156.849 7.29026 156.832 7.05607 156.805 6.68518L155.894 6.63794C155.981 6.91837 156.025 7.05406 156.038 7.09627C155.952 7.58978 155.883 7.99485 155.808 8.43006L155.113 8.28733Z" fill="#B6B6B6"/>
<path d="M142.609 24.902C142.778 25.499 142.71 26.077 142.601 26.6107H141.791V28.2189L141.194 28.1666C140.987 28.9958 141.213 29.9205 140.777 30.8593L140.246 29.826V28.9335L140.877 29.1858C140.918 28.6089 140.956 28.0802 140.994 27.5595H140.953C141.022 27.1987 141.093 26.8378 141.16 26.4871L141.756 26.5655C141.833 25.9624 141.905 25.4046 141.969 24.905L142.609 24.902Z" fill="#B6B6B6"/>
<path d="M165.113 29.2229L165.756 28.9043C165.846 29.7777 165.931 30.6129 166.022 31.4854H166.566C166.566 31.5226 166.566 31.5608 166.561 31.598H172.8V31.8462C170.798 31.9839 168.787 31.9176 166.728 31.8744L166.829 32.3156L165.852 32.4211C165.791 31.7427 165.742 31.1929 165.689 30.5979L165.222 30.7989C165.076 30.2722 165.003 29.7576 165.113 29.2229Z" fill="#B6B6B6"/>
<path d="M201.083 32.2644L201.521 32.0211L200.707 31.8392L200.716 31.6091L203.194 31.4161C203.168 31.1668 203.147 30.9628 203.118 30.6874L204.846 30.5456C204.83 30.3135 204.816 30.1124 204.796 29.8421H205.731C205.716 30.0642 205.7 30.2873 205.681 30.5718H205.013L204.778 30.8241V31.3688L202.996 31.6402C203.096 31.8412 203.156 31.9588 203.297 32.2433L201.083 32.2644Z" fill="#B6B6B6"/>
<path d="M191.227 26.486C191.074 26.5252 190.925 26.5975 190.768 26.5975C190.474 26.5975 190.181 26.5543 189.878 26.5282C189.852 26.8769 189.836 27.0991 189.816 27.3725L189.402 27.2247L189.148 27.483C189.171 27.7333 189.188 27.9082 189.211 28.1424L188.375 28.2429C188.329 28.5213 188.283 28.8027 188.233 29.1083L187.597 29.0078C187.525 29.2671 187.453 29.5224 187.381 29.7777L186.729 29.8712C186.715 29.6098 186.702 29.3787 186.687 29.0993L187.332 29.1425L187.473 28.2982L188.261 28.0811C188.292 27.7464 188.312 27.5323 188.332 27.3192H188.996C189.09 26.9373 189.172 26.6015 189.254 26.2658L189.354 26.2839C189.321 26.1452 189.289 26.0075 189.238 25.7934L190.957 25.701C190.893 26.0025 190.857 26.1573 190.821 26.3422L191.227 26.486ZM189.463 26.6056L189.269 26.7604L189.603 27.1443L189.773 26.9996L189.463 26.6056Z" fill="#B6B6B6"/>
<path d="M65.4708 14.8909V13.1943L66.1512 13.2647C66.2176 12.4485 66.2809 11.6565 66.3523 10.8031L67.1564 10.8474C67.1192 11.6384 67.082 12.4304 67.0418 13.2777L66.4658 13.0767C66.3653 13.7632 66.2709 14.4175 66.1744 15.0769L65.4708 14.8909Z" fill="#B6B6B6"/>
<path d="M58.7147 15.86C58.756 16.3676 58.7962 16.8761 58.8404 17.438L58.1639 17.3958C58.0865 18.1677 58.0092 18.9346 57.9227 19.787L57.58 19.8181C57.5569 19.5256 57.5398 19.3156 57.5227 19.0995H57.3217C57.2624 19.9035 57.202 20.7147 57.1377 21.5831L56.3738 21.4625C56.3889 20.9197 56.404 20.3759 56.4211 19.7538L57.0523 20.0443C57.1226 19.3688 57.188 18.7477 57.2533 18.0793L57.8343 18.2903C57.8835 17.7777 57.9277 17.3063 57.9921 16.6309L58.7147 15.86ZM56.6603 20.9137L56.5477 20.9288L56.601 21.0695L56.6673 21.0534C56.6653 21.0072 56.6623 20.9599 56.6603 20.9137Z" fill="#B6B6B6"/>
<path d="M30.7957 31.6031V15.6379H30.9605C30.9987 20.8785 31.0322 26.1188 31.061 31.3588C31.066 31.4171 30.9394 31.4764 30.7957 31.6031Z" fill="#B6B6B6"/>
<path d="M79.5285 32.3006C79.5425 32.1619 79.5556 32.0222 79.5727 31.8513H85.7642C85.7964 31.3598 85.8245 30.9327 85.8526 30.5055C85.9531 30.5919 86.1431 30.6703 86.1542 30.7678C86.2115 31.2824 86.2245 31.8031 86.2547 32.3328C85.3209 32.3328 84.5058 32.3328 83.6896 32.3328C82.3026 32.3237 80.9155 32.3107 79.5285 32.3006Z" fill="#F9F9F9"/>
<path d="M83.7377 25.6055L82.9025 25.6768C82.8412 24.8154 82.7849 24.0284 82.7236 23.1641L82.3547 23.3761V23.9581L82.224 23.9651C82.023 23.1228 81.9969 22.2615 82.0361 21.393C82.0994 21.4855 82.1617 21.578 82.2451 21.6946L82.6914 21.3267C82.809 22.2554 82.9236 23.159 83.0442 24.1048L83.6412 23.8586C83.6794 24.4657 83.7066 25.0356 83.7377 25.6055Z" fill="#B6B6B6"/>
<path d="M75.3993 21.8917C75.4064 22.0455 75.4124 22.2003 75.4194 22.3551C75.3732 22.2857 75.326 22.2174 75.332 22.2264L74.6415 22.3269C74.5751 21.4223 74.5168 20.6383 74.4525 19.7739L73.8344 20.1006C73.8213 19.5699 73.8103 19.1065 73.7992 18.6442C74.145 18.22 74.2143 18.1889 74.5902 18.2904C74.6572 19.0817 74.7279 19.8724 74.8023 20.6624L74.9762 20.6926C75.0516 20.4725 75.128 20.2534 75.2043 20.0332C75.3873 20.579 75.6064 21.1117 75.3933 21.6917C75.0918 21.6686 75.0918 21.6686 75.1923 22.0113L75.3993 21.8917ZM74.0233 18.8231L74.0475 18.8412V18.814L74.0233 18.8231Z" fill="#B6B6B6"/>
<path d="M160.89 17.3777L161.562 17.3294C162.109 17.8079 161.513 18.616 161.94 19.1859L162.513 19.1035V20.7418H161.595C161.628 20.186 161.661 19.6291 161.696 18.9829L160.992 19.215C160.962 18.5728 160.927 17.9747 160.89 17.3777ZM161.112 18.0049L161.205 17.9968C161.192 17.9436 161.18 17.8913 161.168 17.838L161.112 17.8461V18.0049Z" fill="#B6B6B6"/>
<path d="M150.945 3.41772C150.945 3.9052 150.958 4.39469 150.934 4.88116C150.911 5.16154 150.834 5.43472 150.706 5.68526C150.627 5.45508 150.549 5.22592 150.47 4.99575L150.302 5.03495L150.101 7.61708L149.491 7.39998C149.483 7.58466 149.461 7.76849 149.425 7.94978C149.373 8.08082 149.305 8.2053 149.224 8.32066C149.278 7.47134 149.332 6.62102 149.385 5.78577H150.043C150.07 5.28321 150.092 4.83694 150.119 4.29418L150.343 4.01074L150.792 4.23689C150.847 3.94038 150.897 3.67905 150.945 3.41772Z" fill="#B6B6B6"/>
<path d="M150.968 20.7889V19.0008L151.586 19.0651C151.697 18.0208 151.808 16.9705 151.919 15.9201L152.088 15.9362V16.483L152.636 16.5614C152.598 17.1263 152.559 17.6911 152.52 18.256L152.296 18.2701L152.127 17.4992L152.002 17.5163C151.878 18.5626 151.752 19.6099 151.625 20.6713C150.982 20.7507 151.579 20.0602 151.145 20.0109C151.089 20.2562 151.028 20.5226 150.968 20.7889Z" fill="#B6B6B6"/>
<path d="M159.282 13.2626L160.021 13.1621C160.1 13.8094 160.174 14.4185 160.253 15.0718L160.835 14.8839C160.911 15.6719 160.987 16.4187 161.051 17.1655C161.051 17.1956 160.951 17.2348 160.899 17.266C160.852 17.0439 160.805 16.8207 160.757 16.5986L160.598 16.5805C160.558 16.7815 160.516 16.9825 160.459 17.266L160.275 17.3283C160.166 16.4388 160.06 15.5905 159.956 14.7421L159.878 14.7552L159.902 14.2124L159.711 14.2054C159.725 14.3356 159.722 14.4668 159.704 14.5964C159.659 14.713 159.599 14.8232 159.525 14.9241L159.336 14.8929L159.282 13.2626ZM160.488 15.2859L160.311 15.298C160.319 15.4126 160.326 15.5271 160.334 15.6407L160.513 15.6287C160.5 15.5151 160.491 15.4005 160.483 15.2859H160.488Z" fill="#B6B6B6"/>
<path d="M145.99 16.4641C146.052 17.0883 146.078 17.7074 145.875 18.3607L145.384 18.1828C145.334 18.2743 145.257 18.3567 145.25 18.4442C145.193 19.0673 145.157 19.6925 145.097 20.3147C145.085 20.4433 144.997 20.5649 144.924 20.7358C144.585 20.4021 144.987 19.8252 144.369 19.798C144.369 19.6553 144.363 19.5126 144.359 19.3699L144.608 19.4282C144.626 19.391 144.643 19.3538 144.661 19.3176L144.392 19.1578L144.458 18.2582L144.616 18.2421C144.675 18.5004 144.735 18.7588 144.795 19.0171H144.975C145.067 18.2281 145.158 17.438 145.258 16.5887L145.779 16.6631L145.99 16.4641Z" fill="#B6B6B6"/>
<path d="M56.2652 22.3812C56.3054 22.6314 56.3797 22.8837 56.3767 23.131C56.3737 23.3782 56.2923 23.6476 56.234 23.9672L55.8149 23.9049C55.8983 23.7119 55.9546 23.5843 56.03 23.4094L55.65 23.2827C55.583 24.1445 55.5194 24.9542 55.4591 25.7121H54.6148L54.8108 23.9582L55.3244 24.1994C55.4098 23.539 55.4902 22.9189 55.5706 22.2897L56.2652 22.3812Z" fill="#B6B6B6"/>
<path d="M108.707 10.7991H107.832C107.766 10.4514 107.711 10.1539 107.65 9.83223L107.047 9.93274C106.967 9.06633 106.878 8.22907 107.025 7.36669L107.654 7.43704C107.666 8.02604 107.679 8.61504 107.692 9.20403C107.374 9.29248 107.374 9.29248 107.524 9.63925L107.701 9.21408C107.763 9.4342 107.826 9.65533 107.902 9.90862H108.579C108.618 10.2051 108.664 10.5016 108.707 10.7991Z" fill="#B6B6B6"/>
<path d="M106.253 0.840585C106.271 1.08181 106.29 1.32304 106.314 1.65272L104.586 1.80549V2.43168L103.527 2.61863L103.743 3.18953L103.501 3.39056L102.791 3.27799V2.56033L103.74 2.40253C103.679 2.17839 103.639 2.0236 103.571 1.77635L105.308 1.50396C105.275 1.316 105.247 1.16021 105.198 0.88481L106.253 0.840585Z" fill="#B6B6B6"/>
<path d="M152.699 15.673C152.661 15.5725 152.584 15.4629 152.589 15.3614C152.626 14.688 152.679 14.0145 152.727 13.3411L152.852 13.3331C152.863 13.5069 152.874 13.6808 152.891 13.9361L153.14 14.1693L153.296 14.1562C153.351 13.6597 153.407 13.1622 153.477 12.528C153.463 12.544 153.548 12.4486 153.619 12.3682L154.241 12.4405V13.3039L153.607 13.2104C153.535 13.9844 153.465 14.7412 153.386 15.5926L153.214 15.871L152.699 15.673Z" fill="#B6B6B6"/>
<path d="M148.447 9.94582C148.434 10.5167 148.431 11.0896 148.402 11.6605C148.391 11.8616 148.319 12.0676 148.26 12.335C148.16 12.0616 148.081 11.8465 148.003 11.6314L147.826 11.6535C147.753 12.1561 147.678 12.6586 147.588 13.2737L146.849 13.1682V12.3641L147.481 12.4918C147.582 11.6334 147.69 10.7982 147.8 9.90863L148.254 10.1609L148.447 9.94582Z" fill="#B6B6B6"/>
<path d="M111.971 12.4497H110.179C110.265 12.1813 110.311 12.0366 110.38 11.8134L108.576 11.535C108.649 11.2576 108.705 11.0425 108.762 10.8315H110.217L110.248 11.0898L109.511 11.2737L109.52 11.4285L110.945 11.6004V11.6245L111.867 11.734C111.906 11.9873 111.938 12.2185 111.971 12.4497ZM109.077 10.9923C109.077 11.0385 109.083 11.0847 109.085 11.131L109.335 11.0888L109.326 10.9882L109.077 10.9923Z" fill="#B6B6B6"/>
<path d="M187.408 29.83H188.242C188.276 30.031 188.32 30.2853 188.373 30.5949L189.946 30.7064V31.2884L190.122 31.6482L188.389 31.403C188.352 31.1688 188.315 30.9316 188.288 30.7507L187.334 30.6019C187.366 30.2813 187.388 30.0561 187.408 29.83Z" fill="#B6B6B6"/>
<path d="M17.2496 17.456C17.1296 17.6523 17.0097 17.8477 16.8897 18.042L16.9902 18.1525L16.5882 18.2762L16.3128 16.4197L15.6544 16.679C15.6434 16.0328 15.6323 15.4468 15.6223 14.8618L16.4012 15.0518C16.4435 15.495 16.4153 15.9694 16.552 16.3896C16.6525 16.7092 16.9721 16.9585 17.1852 17.2459C17.2183 17.3118 17.2401 17.3829 17.2496 17.456ZM16.3188 15.9172L16.1118 15.883L16.0675 16.2529L16.2434 16.281L16.3188 15.9172Z" fill="#B6B6B6"/>
<path d="M13.1105 9.9409L12.4582 10.2776C12.3527 9.87557 12.2441 9.46447 12.1366 9.05439L11.5134 9.12475V7.51657H12.1838C12.2582 8.06435 12.3326 8.62219 12.41 9.20113L13.1136 9.04936L13.1105 9.9409Z" fill="#B6B6B6"/>
<path d="M82.0384 21.19L81.8706 20.799L81.7178 20.791C81.6957 20.997 81.6746 21.2031 81.6434 21.4946L81.3419 21.5187C81.2414 20.6613 81.1589 19.8824 81.0695 19.0773L80.4664 19.1537C80.4302 18.7335 80.3951 18.3325 80.3599 17.9324L80.6815 18.0822L81.1439 17.9304C81.2444 18.634 81.3449 19.2934 81.4454 19.9899L82.0093 19.606C82.0163 20.2171 82.0274 20.7035 82.0384 21.19Z" fill="#B6B6B6"/>
<path d="M22.2532 27.4197V25.6255H23.1528C23.1789 25.3139 23.198 25.0908 23.2212 24.8214L23.8453 25.0013V25.8346L23.2362 25.6155V26.2698L23.2081 26.2598C23.1458 26.5864 23.0825 26.9131 23.0201 27.2407L22.2532 27.4197Z" fill="#B6B6B6"/>
<path d="M144.254 21.178C144.275 21.5891 144.296 22.0012 144.321 22.4987L143.688 22.2585C143.56 23.1078 143.437 23.932 143.314 24.7572H143.198C143.177 24.6708 143.151 24.5864 143.136 24.4989C143.121 24.4115 143.118 24.3361 143.104 24.1974L142.664 24.0697V23.0877L143.327 23.1933C143.406 22.4244 143.483 21.6856 143.57 20.8373H144.073C144.055 21.0986 144.044 21.2645 144.033 21.4303L144.125 21.4534L144.254 21.178ZM143.779 21.8716H143.862C143.862 21.8314 143.869 21.7911 143.872 21.7509L143.753 21.758C143.761 21.7942 143.77 21.8324 143.779 21.8716Z" fill="#B6B6B6"/>
<path d="M166.702 13.3674L166.339 13.4056C166.372 13.5785 166.399 13.7182 166.434 13.9011L166.001 14.266C165.888 13.3292 165.788 12.5151 165.687 11.6738L165.016 11.723C165.039 11.2687 165.062 10.8516 165.084 10.4345C165.138 10.5883 165.193 10.742 165.255 10.9159L165.728 10.5611C165.829 11.2768 165.91 11.918 165.997 12.5713L166.656 12.4708C166.673 12.7945 166.687 13.0809 166.702 13.3674Z" fill="#B6B6B6"/>
<path d="M165.082 10.0564H164.459L164.309 10.1338C164.232 9.26033 164.156 8.38789 164.077 7.48429L163.463 7.53957V6.67015H164.189C164.242 7.27322 164.29 7.79286 164.319 8.1537C164.641 8.60097 164.873 8.92361 165.08 9.21309L165.082 10.0564Z" fill="#B6B6B6"/>
<path d="M77.8008 9.94783C77.7204 10.0946 77.6299 10.2373 77.5626 10.3901C77.4953 10.5429 77.4621 10.6997 77.4058 10.8555L77.1716 10.8203C77.0872 10.0031 77.0038 9.18697 76.9163 8.34267L76.2127 8.42509C76.2529 8.06124 76.2881 7.74463 76.3233 7.42902L77.0028 7.35565C77.0641 7.87429 77.1244 8.38086 77.1847 8.88644L77.0952 8.91156L77.3334 9.22818L77.643 8.97288L77.7988 8.98192L77.8008 9.94783Z" fill="#B6B6B6"/>
<path d="M163.311 5.12523C163.242 5.24484 163.163 5.36043 163.11 5.48606C163.055 5.64673 162.972 5.79621 162.865 5.92731C162.381 5.11417 162.65 4.19852 162.437 3.32909L161.804 3.4296C161.777 3.10194 161.752 2.79336 161.727 2.48479L162.521 2.44057C162.588 3.02253 162.657 3.61454 162.729 4.23771H163.131L163.122 4.22867L163.28 4.36637C163.285 4.62368 163.298 4.87496 163.311 5.12523Z" fill="#B6B6B6"/>
<path d="M157.485 20.79L157.654 21.4303C157.618 21.5046 157.546 21.6504 157.481 21.7861V22.3308L157.333 22.357L157.113 21.4866L156.92 21.5026V22.9902L156.595 23.3852L155.979 23.2978L156.068 22.2836L156.62 22.5952C156.638 22.2143 156.641 21.8796 156.673 21.5469C156.702 21.2453 156.764 20.9548 156.818 20.6252L157.485 20.79Z" fill="#B6B6B6"/>
<path d="M121.947 16.6489L121.076 16.6047L120.999 15.9312L118.63 15.7031C118.62 15.6186 118.611 15.5352 118.602 15.4508L119.205 15.2679C119.232 15.304 119.26 15.3392 119.286 15.3754C119.334 15.2648 119.386 15.1533 119.429 15.0427H120.434L120.133 15.5332L121.433 15.7654L121.864 15.7161C121.886 16.0398 121.916 16.3443 121.947 16.6489Z" fill="#B6B6B6"/>
<path d="M101.193 4.89926L101.16 6.84817H101.068L100.978 8.34579H100.865V6.70745L100.356 6.64514C100.044 6.10841 100.372 5.6943 100.642 5.30231L101.193 4.89926ZM100.69 6.16871C100.69 6.14057 100.69 6.11243 100.69 6.08328L100.569 6.07323L100.575 6.19686L100.69 6.16871Z" fill="#B6B6B6"/>
<path d="M121.129 30.7518C121.144 30.1899 121.598 30.7035 121.798 30.4311C121.786 30.3356 121.767 30.1819 121.731 29.8914L122.822 29.7215L122.642 29.231C122.916 28.8229 123.254 29.1767 123.546 29.1305C123.57 29.3104 123.595 29.4903 123.637 29.7939L122.69 29.9869C122.723 30.1376 122.759 30.3025 122.813 30.5517L122.118 30.6452L122.103 30.5819L121.715 30.805L121.129 30.7518Z" fill="#B6B6B6"/>
<path d="M1.05133 32.3397L0.742764 32.0523L0.762866 31.9317H6.41864C6.42869 31.9789 6.45884 32.1126 6.489 32.2453L6.06886 32.3629L4.77829 32.3056C4.68683 32.2553 4.59637 32.1659 4.5039 32.1638C3.94371 32.1498 3.38387 32.1498 2.82435 32.1638C2.73188 32.1638 2.64142 32.2553 2.54895 32.3046L1.05133 32.3397Z" fill="#F9F9F9"/>
<path d="M19.7432 20.7881C19.7723 21.0625 19.8005 21.3379 19.8336 21.6515L18.1631 21.551C18.1249 20.971 18.0878 20.4162 18.0516 19.8614C18.1521 20.1257 18.2526 20.3901 18.4024 20.7881H19.7432Z" fill="#B6B6B6"/>
<path d="M172.568 29.1123L171.753 29.0229C171.735 28.8028 171.72 28.5123 171.688 28.2188C171.648 27.859 171.588 27.5021 171.558 27.1413C171.552 27.0639 171.658 26.9785 171.72 26.8961C171.754 27.0679 171.787 27.2388 171.82 27.4318L172.449 27.3212C172.493 27.9404 172.532 28.5264 172.568 29.1123Z" fill="#B6B6B6"/>
<path d="M11.5628 19.9648L12.2302 19.8643C12.3036 20.2231 12.3639 20.5126 12.4313 20.8262L13.0896 20.7257C13.168 21.0785 13.2444 21.4293 13.3318 21.8193L13.1308 21.9057L13.0032 21.6263L12.5609 21.773L12.2694 21.4192V20.8312L11.5247 20.7569C11.5337 20.4825 11.5478 20.2231 11.5628 19.9648Z" fill="#B6B6B6"/>
<path d="M29.8426 12.516C29.8265 12.1954 29.8104 11.8738 29.7923 11.5109L30.4577 11.5511C30.4848 11.3119 30.5099 11.0928 30.5441 10.7882L31.5342 10.7319C31.4628 11.0616 31.4085 11.3079 31.3542 11.5551L30.6818 11.6687V12.4346L29.8426 12.516Z" fill="#B6B6B6"/>
<path d="M149.344 25.3051C149.294 25.2699 149.2 25.2327 149.202 25.2046C149.23 24.5784 149.271 23.9522 149.312 23.2707L150.145 23.1994V25.0086L149.484 24.894C149.435 25.0347 149.389 25.1704 149.344 25.3051Z" fill="#B6B6B6"/>
<path d="M190.335 31.8453L190.398 31.4845L192.495 31.585L192.529 31.8202L191.736 32.0283L192.052 32.2675C191.788 32.3558 191.508 32.3898 191.231 32.3673C190.953 32.3449 190.683 32.2665 190.437 32.1368C190.371 32.0996 190.367 31.9438 190.335 31.8453Z" fill="#B6B6B6"/>
<path d="M200.775 25.6949V26.6649H199.923C199.939 26.9111 199.952 27.1001 199.972 27.4096L199.077 27.3041C199.052 27.1262 199.027 26.9483 198.985 26.6628L199.488 26.5553L200.047 26.4377C200.019 26.1894 200.001 26.0286 199.975 25.8055L200.775 25.6949Z" fill="#B6B6B6"/>
<path d="M59.6292 31.5386V29.8299L60.5127 29.7174C60.4805 30.2913 60.4473 30.8652 60.4122 31.4783L59.6292 31.5386Z" fill="#B6B6B6"/>
<path d="M151.766 0.87077C152.083 1.40951 151.81 1.9573 151.786 2.49906C151.757 2.77563 151.712 3.0502 151.649 3.32124L150.99 3.13027L150.984 2.90613L151.361 2.82371L151.349 2.66088L150.977 2.62369C150.997 2.28296 151.017 1.94222 151.041 1.5452L151.585 1.73818L151.766 0.87077Z" fill="#B6B6B6"/>
<path d="M108.659 5.83294C108.672 5.59673 108.686 5.35953 108.708 4.99668H110.458L110.13 5.27711L111.074 5.45702V5.6289L109.345 5.7073C109.327 5.5897 109.31 5.47109 109.283 5.29218L108.981 5.49321L109.16 5.75454L108.659 5.83294Z" fill="#B6B6B6"/>
<path d="M147.658 29.9264C147.683 29.2962 147.699 28.665 147.741 28.0368C147.752 27.8579 147.842 27.685 147.896 27.5102L148.072 27.5725L147.919 28.0429L148.441 28.2157V29.9757L147.913 29.6953C147.94 29.5003 147.964 29.3445 147.986 29.1927H147.835C147.862 29.3415 147.888 29.4943 147.935 29.7214L147.658 29.9264Z" fill="#B6B6B6"/>
<path d="M125.965 24.924C125.864 24.8345 125.663 24.7451 125.663 24.6556C125.669 23.5329 125.703 22.4092 125.731 21.2855C125.821 21.4322 125.991 21.579 125.992 21.7267C126.005 22.7921 125.98 23.8576 125.965 24.924Z" fill="#F9F9F9"/>
<path d="M102.787 3.28386V4.19349L102.169 4.13017C102.115 4.34325 102.057 4.57041 101.968 4.93426C101.8 5.19257 101.478 4.88099 101.194 4.9031V4.12715H101.897C101.951 3.81959 101.998 3.53514 102.05 3.24868L102.787 3.28386Z" fill="#B6B6B6"/>
<path d="M170.834 24.2045L170.44 24.2336C170.476 24.4346 170.501 24.5723 170.54 24.7754L170.046 24.9282C170.028 23.9994 170.012 23.1692 169.995 22.338C170.057 22.6395 170.119 22.9481 170.186 23.2758L170.837 23.1501L170.834 24.2045Z" fill="#B6B6B6"/>
<path d="M193.308 27.3574H191.563C191.611 27.0156 191.642 26.7915 191.674 26.5674L193.311 26.6679C193.217 26.886 193.162 27.0146 193.1 27.1584L193.308 27.3574Z" fill="#B6B6B6"/>
<path d="M63.7573 2.81153C63.8126 2.93214 63.9181 3.05477 63.9141 3.17437C63.9 3.68497 63.8608 4.19557 63.8136 4.70516C63.7848 4.83293 63.7392 4.95629 63.6779 5.07203L63.0115 4.90719C63.0269 4.36242 63.0417 3.81731 63.0557 3.27187L63.312 3.24875L63.5452 4.10511C63.6236 3.62969 63.69 3.22061 63.7573 2.81153Z" fill="#B6B6B6"/>
<path d="M150.17 22.4212C150.17 21.9398 150.17 21.4583 150.185 20.9779C150.185 20.8774 150.295 20.7839 150.356 20.6874L150.489 20.7206C150.514 20.9538 150.537 21.186 150.568 21.4835H150.939C150.897 22.0343 150.857 22.5841 150.81 23.2203C150.419 22.969 150.872 22.2544 150.17 22.4212Z" fill="#B6B6B6"/>
<path d="M207.45 27.2539V25.7533L208.2 25.698C208.162 26.2569 208.123 26.8167 208.085 27.3705L207.45 27.2539Z" fill="#B6B6B6"/>
<path d="M28.8909 14.9755L28.9914 13.1954L29.1432 13.2557H29.7804C29.7483 13.7894 29.7161 14.3231 29.6799 14.9131L29.2678 14.7986C29.2829 14.5975 29.295 14.4317 29.308 14.2719C29.1603 14.5181 29.0256 14.7463 28.8909 14.9755ZM29.4035 13.7221V13.8045L29.5231 13.8146C29.5231 13.7744 29.5231 13.7352 29.5161 13.695L29.4035 13.7221Z" fill="#B6B6B6"/>
<path d="M75.4858 23.2033L75.8466 23.1279C75.8617 22.8183 75.8728 22.5831 75.8848 22.3479L76.0858 22.3399C76.1451 22.6635 76.2175 22.9851 76.2607 23.3098C76.306 23.6556 76.3301 24.0033 76.3452 24.3511C76.3452 24.3973 76.2447 24.4516 76.1874 24.4968C76.1421 24.342 76.0959 24.1883 76.0356 23.9882L75.522 24.328C75.5099 23.8847 75.4978 23.544 75.4858 23.2033Z" fill="#B6B6B6"/>
<path d="M64.6618 17.4762C64.555 16.8772 64.5967 16.2612 64.7834 15.6821L64.9925 15.661C65.0407 15.8238 65.0779 15.9917 65.1392 16.1495C65.2013 16.2923 65.2707 16.4319 65.3473 16.5676V17.7044L64.8809 17.3023L64.6618 17.4762Z" fill="#B6B6B6"/>
<path d="M121.015 6.72349L121.919 6.63705C121.9 6.89034 121.881 7.14463 121.855 7.50747L120.298 7.32555C120.298 7.25218 120.292 7.17981 120.288 7.10644C120.431 7.06935 120.576 7.04149 120.722 7.02301C120.926 7.00995 121.119 7.01598 121.015 6.72349Z" fill="#B6B6B6"/>
<path d="M146.691 14.9513C146.73 15.2159 146.755 15.4822 146.766 15.7494C146.76 16.0171 146.698 16.2805 146.585 16.5233C146.498 16.271 146.411 16.0208 146.278 15.6388L145.998 16.2751C145.885 15.7574 146.012 15.2699 146.098 14.7232C146.361 14.8247 146.526 14.888 146.691 14.9513Z" fill="#B6B6B6"/>
<path d="M171.642 25.8056H171.034L170.847 25.6146V24.902L171.318 25.0899C171.402 24.7804 171.473 24.52 171.51 24.3864C171.545 24.7623 171.594 25.2839 171.642 25.8056Z" fill="#B6B6B6"/>
<path d="M53.8558 28.1665V29.7445L53.314 29.7988C53.3442 29.5666 53.3643 29.4118 53.3904 29.2179L53.0889 29.1173V28.1997L53.5914 28.3585L53.8558 28.1665Z" fill="#B6B6B6"/>
<path d="M118.608 25.5069C118.593 25.8457 118.577 26.1844 118.558 26.5794L117.968 26.5301L117.942 26.6618L117.289 26.5251L117.639 26.4447C117.689 26.1361 117.732 25.8638 117.759 25.6899L118.608 25.5069Z" fill="#B6B6B6"/>
<path d="M75.3844 3.42472L75.0568 3.50815C75.0708 3.70917 75.0829 3.88708 75.097 4.09514H74.6949C74.6607 3.52222 74.6276 2.96941 74.5944 2.41559L74.8648 2.63973L75.3362 2.50605C75.3533 2.83573 75.3683 3.13023 75.3844 3.42472Z" fill="#B6B6B6"/>
<path d="M74.5823 1.81742L74.1662 1.71691C74.1411 1.99532 74.1189 2.23554 74.0968 2.47577L73.9159 2.48079C73.7571 1.96015 73.6777 1.43045 73.8154 0.872613L74.5019 0.772102C74.5331 1.14701 74.5562 1.48171 74.5823 1.81742Z" fill="#B6B6B6"/>
<path d="M67.2007 10.0515V8.29857L67.4469 8.2845C67.468 8.50161 67.4891 8.71871 67.5193 9.03231L67.8681 9.14488V10.0495L67.2007 10.0515Z" fill="#B6B6B6"/>
<path d="M28.097 15.8972V14.9051L28.891 14.9735V16.4912H28.4387V15.9343L28.097 15.8972Z" fill="#B6B6B6"/>
<path d="M169.936 21.6131L169.244 21.7136V20.7819H169.776V20.1185H169.802C169.847 20.6157 169.892 21.1139 169.936 21.6131Z" fill="#B6B6B6"/>
<path d="M116.961 5.04802L117.788 5.0048C117.752 5.30634 117.727 5.50736 117.703 5.71441L116.017 5.68225C116.009 5.60084 116.002 5.51942 115.995 5.438C116.18 5.41554 116.363 5.3772 116.541 5.32342C116.69 5.24707 116.831 5.15473 116.961 5.04802Z" fill="#B6B6B6"/>
<path d="M168.461 19.0642C168.389 18.9637 168.28 18.8682 168.26 18.7556C168.225 18.5878 168.251 18.4069 168.251 18.1707L167.69 18.3898C167.518 18.046 167.419 17.7475 167.715 17.444L168.218 17.1816C168.414 17.7888 168.496 18.4271 168.461 19.0642Z" fill="#B6B6B6"/>
<path d="M148.561 27.281C148.569 27.1865 148.578 27.092 148.586 26.9975L148.77 26.8226L148.632 26.6397C148.313 26.293 148.443 25.9663 148.601 25.6406L148.783 25.6125C148.848 25.8437 148.915 26.0748 148.996 26.3633L149.259 26.4156V27.4508L148.561 27.281Z" fill="#B6B6B6"/>
<path d="M9.76644 15.7805C9.87499 16.0217 9.98455 16.2629 10.1142 16.5494L10.6308 16.4941V17.4399H9.8951C9.85489 16.9162 9.81067 16.3483 9.76644 15.7805Z" fill="#B6B6B6"/>
<path d="M118.61 32.2494C118.482 32.1488 118.366 32.0132 118.22 31.9478C118.054 31.895 117.882 31.8613 117.709 31.8473L117.717 31.6352L119.425 31.5478C119.448 31.7347 119.471 31.9227 119.498 32.1509C119.261 32.4454 118.923 32.2644 118.61 32.2494Z" fill="#B6B6B6"/>
<path d="M8.99954 2.50993C8.70906 2.50993 8.3834 2.79437 8.22057 2.53003C8.13614 2.09381 8.06377 1.7973 8.0286 1.49577C8.01854 1.4033 8.11001 1.29475 8.15524 1.19926L8.34923 1.75408L8.93722 1.60532L8.99954 2.50993Z" fill="#B6B6B6"/>
<path d="M14.8824 25.7301L15.6081 25.6356C15.6413 26.2387 15.6745 26.8297 15.7086 27.4247L15.1307 26.6477L15.0302 26.6176C14.9729 26.2839 14.9297 26.0065 14.8824 25.7301Z" fill="#B6B6B6"/>
<path d="M104.449 31.6221H106.008C106.008 31.6834 106.015 31.7437 106.018 31.805C105.643 31.8543 105.264 31.8854 104.895 31.9648C104.763 31.994 104.654 32.1397 104.535 32.2312H103.515L103.868 31.609L103.978 31.6231C104.135 31.8754 104.292 31.9216 104.449 31.6221Z" fill="#B6B6B6"/>
<path d="M10.7082 18.1716L11.2057 18.1253V17.5364L11.3846 17.5303V18.9847L10.7816 19.1857C10.7504 18.8118 10.7283 18.4912 10.7082 18.1716Z" fill="#B6B6B6"/>
<path d="M123.582 29.0843V28.1274L124.214 28.1957C124.281 28.0356 124.348 27.8765 124.415 27.7183C124.463 27.7786 124.561 27.85 124.551 27.8982C124.465 28.2872 124.359 28.6722 124.261 29.0521L123.582 29.0843Z" fill="#B6B6B6"/>
<path d="M13.9319 23.6959L14.2495 24.0738L14.8526 24.0044C14.8265 24.3472 14.8043 24.6487 14.7822 24.9492H14.0123C13.9832 24.514 13.957 24.1049 13.9319 23.6959Z" fill="#B6B6B6"/>
<path d="M25.7005 20.7327V19.7738L26.2282 19.9658L26.4946 19.4773V20.8423L25.7005 20.7327Z" fill="#B6B6B6"/>
<path d="M84.529 27.4176H83.7601C83.7852 27.1342 83.8134 26.8216 83.8415 26.513L84.334 26.2497C84.6717 26.5713 84.5521 27.0055 84.529 27.4176Z" fill="#B6B6B6"/>
<path d="M101.133 12.3482H101.928C102.33 12.5633 101.945 12.9593 101.998 13.2839L101.053 13.1904L101.26 12.7954L101.133 12.3482Z" fill="#B6B6B6"/>
<path d="M100.369 10.7821L100.957 10.7007C101.216 10.952 101.314 11.6053 101.146 11.9611C101.089 11.8305 101.033 11.6988 100.965 11.54L100.438 11.741L100.369 10.7821Z" fill="#B6B6B6"/>
<path d="M201.573 24.7994L201.674 25.4889C201.44 26.0126 201.062 25.6035 200.775 25.6899L200.7 25.0668L200.916 24.7652L201.247 24.9924L201.573 24.7994Z" fill="#B6B6B6"/>
<path d="M173.341 30.6322L172.738 30.7759C172.537 30.5106 172.427 29.6944 172.576 29.5296L172.746 29.8482L173.349 29.7075L173.341 30.6322Z" fill="#B6B6B6"/>
<path d="M63.8938 19.0954L63.7451 18.246L64.6336 18.1707C64.6135 18.5224 64.5934 18.8742 64.5682 19.3074L63.8938 19.0954Z" fill="#B6B6B6"/>
<path d="M146.846 31.6322V30.5919L147.321 30.7758L147.634 30.621C147.621 30.9899 147.82 31.404 147.433 31.6945L146.846 31.6322Z" fill="#B6B6B6"/>
<path d="M14.8295 13.2486H13.9611C13.9912 12.8687 14.0113 12.6094 14.0314 12.35L14.8295 12.4234V13.2486Z" fill="#B6B6B6"/>
<path d="M61.3662 26.5534C61.3521 26.2981 61.3381 26.0428 61.322 25.7332H62.1703C62.1391 26.0237 62.107 26.3142 62.0768 26.5966L61.3662 26.5534Z" fill="#B6B6B6"/>
<path d="M8.24583 13.2959L9.03584 13.1542C8.97152 13.4748 8.92126 13.7291 8.87101 13.9834L8.43378 14.292C8.07596 13.9864 8.12622 13.6477 8.24583 13.2959Z" fill="#B6B6B6"/>
<path d="M14.0171 11.748H13.2341V10.8102L13.9005 10.7228L14.0171 11.748Z" fill="#B6B6B6"/>
<path d="M116.976 26.5825C117.005 26.7906 117.035 26.9997 117.068 27.2308C116.788 27.453 116.496 27.4841 116.183 27.2891C116.148 27.1022 116.113 26.9142 116.06 26.6388L116.976 26.5825Z" fill="#B6B6B6"/>
<path d="M101.823 30.7226H102.837C102.818 31.002 102.802 31.2423 102.786 31.4815H101.982C101.91 31.1498 101.866 30.9357 101.823 30.7226Z" fill="#B6B6B6"/>
<path d="M100.326 29.8179L101.2 29.8883C101.159 30.2009 101.131 30.426 101.099 30.6522H100.254L100.326 29.8179Z" fill="#B6B6B6"/>
<path d="M23.8531 12.53C23.8792 12.7884 23.9043 13.0467 23.9365 13.3633L23.3505 13.2628C23.2731 13.3975 23.1977 13.5321 23.1213 13.6648C22.8942 13.2206 23.2028 12.8939 23.3274 12.5049L23.8531 12.53Z" fill="#B6B6B6"/>
<path d="M69.5708 21.5901H68.9275C68.9275 21.5901 68.841 21.4987 68.7536 21.4072C68.7908 21.1931 68.825 21.0052 68.8541 20.8092L69.5657 20.7268L69.5708 21.5901ZM69.4351 21.0172C69.424 20.9891 69.421 20.9509 69.4019 20.9398C69.3828 20.9288 69.3506 20.9479 69.3235 20.9539C69.3376 20.9881 69.3506 21.0212 69.3637 21.0544L69.4351 21.0172Z" fill="#B6B6B6"/>
<path d="M23.994 24.0457V23.1873H24.7388V24.0457H23.994Z" fill="#B6B6B6"/>
<path d="M205.801 29.7939C205.765 29.5929 205.729 29.3919 205.674 29.0783L206.588 29.0079C206.57 29.2582 206.551 29.5105 206.53 29.7939H205.801Z" fill="#B6B6B6"/>
<path d="M71.3066 11.6414H72.0534C72.0403 11.9048 72.0242 12.2133 72.0082 12.5219L71.3488 12.5983C71.3357 12.2897 71.3217 11.9651 71.3066 11.6414ZM71.5538 12.1138L71.4815 12.1239C71.4895 12.1792 71.4986 12.2355 71.5066 12.2907L71.578 12.2807L71.5538 12.1138Z" fill="#B6B6B6"/>
<path d="M27.3931 17.4037L27.2926 16.478L28.0967 16.679V17.6198L27.3931 17.4037Z" fill="#B6B6B6"/>
<path d="M26.4888 19.1848C26.4777 18.9366 26.4667 18.6883 26.4516 18.3435L27.2678 18.2762V19.1135L26.4888 19.1848Z" fill="#B6B6B6"/>
<path d="M155.886 24.734C155.886 25.0463 155.886 25.3589 155.886 25.6718L154.96 25.6456C155.076 25.2808 155.148 25.0536 155.191 24.9179L155.886 24.734Z" fill="#B6B6B6"/>
<path d="M120.3 31.5024C120.271 31.2783 120.242 31.0542 120.199 30.7184L121.085 30.7979C121.118 30.9717 121.151 31.1466 121.211 31.4673L120.3 31.5024Z" fill="#B6B6B6"/>
<path d="M140.106 31.7307C140.128 31.9106 140.151 32.0915 140.174 32.2714H139.363C139.413 31.7528 139.463 31.2804 139.507 30.809L139.687 30.7848C139.763 31.1199 139.839 31.4566 139.915 31.795L140.106 31.7307Z" fill="#B6B6B6"/>
<path d="M18.0505 19.8602L17.3529 20.0412V19.0451L17.944 18.9667C18.2465 19.1758 17.9922 19.5507 18.0505 19.8602Z" fill="#B6B6B6"/>
<path d="M15.7066 27.4227C16.0082 27.4308 16.365 27.1212 16.5741 27.5604C16.5138 27.7615 16.4605 27.9544 16.4062 28.1414L15.7026 28.2479L15.7066 27.4227Z" fill="#B6B6B6"/>
<path d="M149.188 8.3788C149.257 8.66526 149.507 8.97282 149.105 9.20501L148.501 9.11957V8.17376L149.188 8.3788Z" fill="#B6B6B6"/>
<path d="M10.644 5.6923L9.94045 5.82699V4.96159L10.644 4.87615V5.6923Z" fill="#B6B6B6"/>
<path d="M72.1068 14.1522L72.8757 14.0828C72.8606 14.3753 72.8456 14.6507 72.8315 14.9271L72.136 15.0457C72.1259 14.7241 72.1209 14.4376 72.1068 14.1522Z" fill="#B6B6B6"/>
<path d="M24.8966 22.3409L24.78 21.7609C24.9891 21.3167 25.3158 21.6604 25.567 21.5901V22.4504L24.8966 22.3409Z" fill="#B6B6B6"/>
<path d="M67.3655 20.7539C67.0964 20.8032 66.825 20.8388 66.5523 20.8604C66.0196 20.8785 65.4849 20.8795 64.9522 20.8604C64.8135 20.8604 64.6788 20.7599 64.5411 20.6996C65.3231 20.6996 66.1051 20.6865 66.886 20.6895C67.0471 20.7001 67.2073 20.7216 67.3655 20.7539Z" fill="#B6B6B6"/>
<path d="M73.0254 16.657L73.6898 16.5565V17.3727L73.1309 17.4541C72.8244 17.2651 73.0566 16.9344 73.0254 16.657Z" fill="#B6B6B6"/>
<path d="M60.5129 11.5288C60.4305 11.752 60.347 11.9751 60.2656 12.1992C60.2656 12.2063 60.2877 12.2213 60.3893 12.3178C60.3631 12.2766 60.4013 12.3379 60.5169 12.5259L59.7128 12.4495V11.6233L60.1822 11.7238L60.5129 11.5288Z" fill="#B6B6B6"/>
<path d="M158.504 10.9418L159.108 10.7729C159.365 11.0313 159.208 11.3519 159.148 11.6585L158.608 11.9168L158.492 11.4474L158.806 11.381C158.806 11.3298 158.806 11.2805 158.806 11.2293L158.496 11.1539L158.504 10.9418Z" fill="#B6B6B6"/>
<path d="M15.5893 14.1703L15.2877 14.2296C15.2254 14.494 15.1822 14.6799 15.139 14.8659L14.9199 14.8317V13.9583H15.2908L15.1812 13.4125L15.536 13.2999L15.5893 14.1703Z" fill="#B6B6B6"/>
<path d="M169.146 19.7788L168.644 20.01C168.27 19.7497 168.41 19.425 168.496 19.1054L169.142 18.9848L169.146 19.7788Z" fill="#B6B6B6"/>
<path d="M108.572 0.0997144L107.911 0.300737L108.737 0.520857C108.422 0.957076 108.097 0.807314 107.79 0.756053C107.736 0.584179 107.681 0.411299 107.582 0.10273L108.572 0.0997144Z" fill="#B6B6B6"/>
<path d="M123.497 17.3836L122.828 17.4651C122.792 17.2238 122.754 16.9625 122.714 16.6951L123.497 16.7766V17.3836Z" fill="#B6B6B6"/>
<path d="M70.3748 23.9993L69.6712 24.1793C69.7034 23.9099 69.7325 23.6586 69.7627 23.4083L70.0904 23.1259C70.613 23.3088 70.3748 23.6908 70.3748 23.9993Z" fill="#B6B6B6"/>
<path d="M164.169 25.8006C164.207 26.0827 164.246 26.3652 164.286 26.6479L163.984 26.3625L163.524 26.463L163.481 25.7232L163.745 25.7303C163.777 25.877 163.81 26.0248 163.845 26.1715L164.025 26.1474L164.169 25.8006Z" fill="#B6B6B6"/>
<path d="M107.941 6.60487L107.749 6.02894C107.977 5.66408 108.352 5.87717 108.66 5.83294C108.632 5.99376 108.604 6.15458 108.576 6.3154L108.212 6.36666C108.195 6.44606 108.179 6.52345 108.162 6.59984L107.941 6.60487Z" fill="#B6B6B6"/>
<path d="M76.1273 5.64901L75.5091 5.92139V5.00976L76.076 4.90925C76.0911 4.96754 76.1132 5.05499 76.1363 5.14243L75.8529 5.27812L76.1162 5.40678C76.1202 5.48819 76.1232 5.56458 76.1273 5.64901Z" fill="#B6B6B6"/>
<path d="M164.925 27.4096C165.272 27.6106 165.1 27.8679 165.007 28.1132L164.331 28.2408C164.348 27.9574 164.365 27.693 164.382 27.4297L164.725 27.4116L164.803 27.7453L164.883 27.7343L164.925 27.4096Z" fill="#B6B6B6"/>
<path d="M2.54677 32.3007C2.63924 32.2514 2.7297 32.162 2.82217 32.16C3.38168 32.1459 3.94153 32.1459 4.50171 32.16C4.59418 32.16 4.68464 32.2514 4.77611 32.3017L2.54677 32.3007Z" fill="#B6B6B6"/>
<path d="M9.77253 4.12932H9.20062V3.5956L9.5705 3.25889L9.77153 3.31015L9.77253 4.12932Z" fill="#B6B6B6"/>
<path d="M117.802 0.414354C117.76 0.313843 117.717 0.204284 117.675 0.098747C118.012 0.0535169 118.386 -0.168612 118.656 0.253535C118.405 0.686739 118.085 0.430436 117.802 0.414354Z" fill="#B6B6B6"/>
<path d="M60.5922 28.3807V27.9998L61.2636 28.236V29.1848L60.8002 28.9255L60.8374 28.4018L60.5922 28.3807Z" fill="#B6B6B6"/>
<path d="M167.412 15.5734L167.004 15.8749C166.645 15.6287 166.834 15.2719 166.831 14.9603H167.225L167.194 15.2497L167.413 15.3613C167.413 15.4307 167.412 15.502 167.412 15.5734Z" fill="#B6B6B6"/>
<path d="M59.5088 14.1382V15.0126C59.0575 14.7362 59.2444 14.4096 59.2424 14.1322L59.5088 14.1382Z" fill="#B6B6B6"/>
<path d="M124.422 27.5123C124.509 27.4178 124.586 27.26 124.685 27.2439C124.855 27.2178 125.039 27.2801 125.216 27.3052C125.117 27.3764 125.009 27.4336 124.895 27.4751C124.739 27.5007 124.58 27.5132 124.422 27.5123Z" fill="#B6B6B6"/>
<path d="M112.878 19.0713C112.901 18.9105 112.925 18.7497 112.949 18.5899L113.139 18.5718C113.184 18.7366 113.227 18.9015 113.27 19.0663L112.878 19.0713Z" fill="#F9F9F9"/>
<path d="M9.4592 15.2871L9.93864 15.3313L9.71048 15.6721L9.4592 15.5585V15.2871Z" fill="#B6B6B6"/>
<path d="M147.37 31.6644C147.47 31.8654 147.531 31.981 147.636 32.188H146.901L147.37 31.6644Z" fill="#B6B6B6"/>
<path d="M81.1798 17.5254C81.1406 17.6651 81.1004 17.8038 81.0612 17.9435L80.8712 18.0601C80.7938 17.9355 80.7174 17.8099 80.5918 17.6058L81.0581 17.4108L81.1798 17.5254Z" fill="#B6B6B6"/>
<path d="M109.161 5.75047L108.982 5.48914L109.284 5.28812C109.311 5.46703 109.328 5.58965 109.346 5.70323L109.161 5.75047Z" fill="#F9F9F9"/>
<path d="M66.1251 15.2951L66.104 15.6459H65.9392C65.9332 15.5233 65.9281 15.4016 65.9221 15.28L66.1251 15.2951Z" fill="#B6B6B6"/>
<path d="M23.9548 11.7501L24.2704 11.9572L23.9478 12.1582C23.9498 12.0215 23.9528 11.8858 23.9548 11.7501Z" fill="#F9F9F9"/>
<path d="M108.162 6.59987C108.179 6.52349 108.195 6.44609 108.212 6.36669L108.576 6.31543C108.676 6.75466 108.381 6.62299 108.162 6.59987Z" fill="#F9F9F9"/>
<path d="M150.977 2.62355L151.349 2.66074L151.361 2.82357L150.984 2.90599L150.977 2.62355Z" fill="#F9F9F9"/>
<path d="M79.0221 32.3146C78.9969 32.198 78.9718 32.0824 78.9477 31.9659L79.1105 31.9206C79.1427 32.0483 79.1738 32.1759 79.211 32.3036L79.0221 32.3146Z" fill="#F9F9F9"/>
<path d="M158.501 11.1539L158.811 11.2293C158.811 11.2795 158.811 11.3298 158.811 11.3811L158.497 11.4474L158.501 11.1539Z" fill="#F9F9F9"/>
<path d="M77.9143 30.2259L78.2279 30.2953V30.4521L77.9153 30.5224C77.9153 30.4239 77.9143 30.3244 77.9143 30.2259Z" fill="#F9F9F9"/>
<path d="M167.413 15.3594L167.193 15.2479L167.225 14.9584L167.426 15.067L167.413 15.3594Z" fill="#F9F9F9"/>
<path d="M84.3752 25.7343C84.3863 25.881 84.3973 26.0278 84.4074 26.1745L84.2064 26.1926C84.1913 26.0459 84.1772 25.9001 84.1631 25.7534L84.3752 25.7343Z" fill="#B6B6B6"/>
<path d="M76.116 5.40778L75.8526 5.27913L76.1361 5.14344C76.129 5.23189 76.123 5.31933 76.116 5.40778Z" fill="#F9F9F9"/>
<path d="M67.9374 8.74884C67.6982 8.60611 67.7042 8.4664 67.9374 8.33071C67.9414 8.47042 67.9394 8.60913 67.9374 8.74884Z" fill="#B6B6B6"/>
<path d="M60.5159 29.5255C60.2646 29.3858 60.2666 29.2491 60.5229 29.1174C60.5209 29.2531 60.5189 29.3858 60.5159 29.5255Z" fill="#B6B6B6"/>
<path d="M64.2397 20.6733L64.0387 20.8563L63.8899 20.6462L64.2397 20.6733Z" fill="#B6B6B6"/>
<path d="M107.3 0.255516H107.059L107.05 0.201242L107.284 0.146965L107.3 0.255516Z" fill="#B6B6B6"/>
<path d="M144.389 19.1578L144.658 19.3176C144.64 19.3538 144.623 19.391 144.605 19.4282L144.356 19.3699C144.37 19.2995 144.382 19.2342 144.389 19.1578Z" fill="#F9F9F9"/>
<path d="M63.884 20.6413L63.688 20.5739L63.8458 20.386C63.8589 20.4714 63.871 20.5568 63.884 20.6413Z" fill="#B6B6B6"/>
<path d="M74.5932 2.41548L74.4183 2.29587L74.5801 2.10792L74.5932 2.41548Z" fill="#B6B6B6"/>
<path d="M146.769 32.2776C146.807 32.16 146.845 32.0414 146.882 31.9238L147.029 32.1107L146.769 32.2776Z" fill="#B6B6B6"/>
<path d="M194.193 32.4011H194.623C194.477 32.6282 194.334 32.6463 194.193 32.4011Z" fill="#B6B6B6"/>
<path d="M167.421 15.0669L167.22 14.9583C167.252 14.9081 167.284 14.8578 167.377 14.7111L167.421 15.0669Z" fill="#B6B6B6"/>
<path d="M166.76 14.1784C166.744 14.106 166.729 14.0347 166.713 13.9623C166.729 14.0347 166.744 14.1081 166.76 14.1784Z" fill="#B6B6B6"/>
<path d="M74.0226 20.577L73.9804 20.5931C73.9804 20.579 73.9623 20.5609 73.9663 20.5509C73.9704 20.5408 73.9925 20.5398 74.0066 20.5338L74.0226 20.577Z" fill="#B6B6B6"/>
<path d="M117.771 0.718845L117.601 0.618334L117.739 0.485658C117.753 0.565062 117.76 0.639442 117.771 0.718845Z" fill="#B6B6B6"/>
<path d="M52.6809 32.3006L52.8146 32.1619L52.904 32.2986L52.6809 32.3006Z" fill="#B6B6B6"/>
<path d="M106.362 32.2695L106.571 32.2514L106.421 32.3981L106.362 32.2695Z" fill="#B6B6B6"/>
<path d="M85.1812 28.1859L85.169 28.1555L85.2014 28.1605L85.1812 28.1859Z" fill="#B6B6B6"/>
<path d="M163.123 4.23908V4.19856C163.118 4.2088 163.115 4.21929 163.112 4.22996L163.123 4.23908Z" fill="#B6B6B6"/>
<path d="M31.9747 31.6775H36.6405C35.0876 32.0996 33.5246 31.7971 31.9747 31.8192V31.6775Z" fill="#B6B6B6"/>
<path d="M7.55414 1.17928C7.62149 1.28683 7.68883 1.39337 7.75517 1.49991L7.60038 1.60846L7.3692 1.30693L7.55414 1.17928Z" fill="#B6B6B6"/>
<path d="M164.169 25.8006L164.024 26.1514L163.845 26.1755C163.812 26.0288 163.779 25.881 163.744 25.7343L164.169 25.8006Z" fill="#010101"/>
<path d="M148.632 26.6398L148.77 26.8227L148.586 26.9976C148.601 26.879 148.617 26.7594 148.632 26.6398Z" fill="#010101"/>
<path d="M164.925 27.4096L164.883 27.7393L164.803 27.7503L164.725 27.4166L164.925 27.4096Z" fill="#010101"/>
<path d="M165.686 28.3807L165.659 28.5616L165.577 28.5495C165.586 28.4892 165.594 28.4279 165.603 28.3676L165.686 28.3807Z" fill="#B6B6B6"/>
<path d="M59.1912 31.8253H53.8741C53.8741 31.77 53.8741 31.7147 53.8741 31.6604H59.1912C59.1902 31.7147 59.1912 31.77 59.1912 31.8253Z" fill="#B6B6B6"/>
<path d="M75.3994 21.8916L75.1904 22.0102C75.0899 21.6675 75.0899 21.6675 75.3914 21.6906L75.3994 21.8916Z" fill="#010101"/>
<path d="M111.13 4.47507C111.548 4.15143 113.809 4.13836 115.111 4.42683C113.797 4.67612 112.45 4.69245 111.13 4.47507Z" fill="#B6B6B6"/>
<path d="M119.143 24.7421V23.2606H119.254V24.7421H119.143Z" fill="#B6B6B6"/>
<path d="M104.449 31.6221C104.292 31.9236 104.135 31.8754 103.978 31.6221H104.449Z" fill="#010101"/>
<path d="M198.363 28.0037C198.199 28.0671 198.033 28.1867 197.869 28.1847C196.453 28.1686 195.037 28.1324 193.621 28.0952C193.573 28.0865 193.528 28.068 193.488 28.0409C193.447 28.0137 193.413 27.9785 193.388 27.9374C195.03 27.6962 196.668 27.7032 198.313 27.7896L198.363 28.0037Z" fill="#B6B6B6"/>
<path d="M120.502 1.35206C120.532 1.37232 120.563 1.39359 120.502 1.35206V1.35206Z" fill="#010101"/>
<path d="M124.221 18.412L124.197 18.7528L124.014 18.7397L124.04 18.398L124.221 18.412Z" fill="#F9F9F9"/>
<path d="M189.466 26.6057L189.776 26.9997L189.606 27.1444L189.272 26.7604L189.466 26.6057Z" fill="#F9F9F9"/>
<path d="M56.66 20.9137C56.66 20.9599 56.665 21.0072 56.667 21.0534L56.6007 21.0695L56.5474 20.9288L56.66 20.9137Z" fill="#F9F9F9"/>
<path d="M74.0236 18.8233L74.0528 18.8139L74.0486 18.842L74.0236 18.8233Z" fill="#F9F9F9"/>
<path d="M161.111 18.0048V17.846L161.168 17.838C161.18 17.8913 161.192 17.9435 161.205 17.9968L161.111 18.0048Z" fill="#F9F9F9"/>
<path d="M160.483 15.2861C160.491 15.4006 160.5 15.5142 160.508 15.6288L160.328 15.6409C160.321 15.5273 160.314 15.4127 160.306 15.2981L160.483 15.2861Z" fill="#F9F9F9"/>
<path d="M107.702 9.21216L107.525 9.63732C107.375 9.29056 107.375 9.29056 107.693 9.20211L107.702 9.21216Z" fill="#F9F9F9"/>
<path d="M109.077 10.9922H109.326L109.335 11.0927L109.085 11.1349C109.083 11.0836 109.08 11.0374 109.077 10.9922Z" fill="#F9F9F9"/>
<path d="M16.319 15.9173L16.2436 16.2811L16.0678 16.253L16.112 15.8831L16.319 15.9173Z" fill="#F9F9F9"/>
<path d="M143.779 21.8725C143.77 21.833 143.761 21.7945 143.753 21.756L143.873 21.7489C143.873 21.7894 143.866 21.8299 143.863 21.8704L143.779 21.8725Z" fill="#F9F9F9"/>
<path d="M100.693 6.16832L100.575 6.19669L100.568 6.07208L100.691 6.08222C100.692 6.11261 100.692 6.14097 100.693 6.16832Z" fill="#F9F9F9"/>
<path d="M29.4034 13.7224L29.5189 13.695C29.5189 13.7355 29.5189 13.775 29.526 13.8156L29.4055 13.8054L29.4034 13.7224Z" fill="#F9F9F9"/>
<path d="M69.436 21.0178L69.3641 21.0563C69.3509 21.0219 69.3377 20.9885 69.3236 20.955C69.3509 20.949 69.3854 20.9307 69.4026 20.9408C69.4198 20.951 69.4249 20.9895 69.436 21.0178Z" fill="#F9F9F9"/>
<path d="M71.5538 12.114L71.5779 12.2808L71.5066 12.2909C71.4985 12.2356 71.4895 12.1793 71.4815 12.124L71.5538 12.114Z" fill="#F9F9F9"/>
</svg>
