<svg width="24" height="24" viewBox="0 0 24 24" fill="none" xmlns="http://www.w3.org/2000/svg">
<path d="M10 7C10 7.3 9.90001 7.5 9.70001 7.7L4.70001 12.7C4.30001 13.1 3.70001 13.1 3.30001 12.7C2.90001 12.3 2.90001 11.7 3.30001 11.3L8.30001 6.3C8.70001 5.9 9.30001 5.9 9.70001 6.3C9.90001 6.5 10 6.7 10 7Z" fill="#1D212C"/>
<path d="M10 17C10 17.3 9.90001 17.5 9.70001 17.7C9.30001 18.1 8.70001 18.1 8.30001 17.7L3.30001 12.7C2.90001 12.3 2.90001 11.7 3.30001 11.3C3.70001 10.9 4.30001 10.9 4.70001 11.3L9.70001 16.3C9.90001 16.5 10 16.7 10 17Z" fill="#1D212C"/>
<path d="M21 12C21 12.6 20.6 13 20 13L4.00001 13C3.40001 13 3.00001 12.6 3.00001 12C3.00001 11.4 3.40001 11 4.00001 11L20 11C20.6 11 21 11.4 21 12Z" fill="#1D212C"/>
</svg>
