<svg width="18" height="18" viewBox="0 0 18 18" fill="none" xmlns="http://www.w3.org/2000/svg">
<path fill-rule="evenodd" clip-rule="evenodd" d="M15.3782 2.616C13.6856 0.93 11.4353 0.00075 9.03806 0C4.09814 0 0.0776219 4.0005 0.0753611 8.919C0.0746075 10.491 0.487586 12.0255 1.2721 13.3785L0 18L4.75076 16.7595C6.05979 17.4705 7.53385 17.8448 9.03353 17.8455H9.0373C13.9765 17.8455 17.9977 13.8442 18 8.92575C18.0015 6.543 17.07 4.30125 15.3782 2.616ZM9.03806 16.3387H9.03504C7.69814 16.3387 6.38761 15.981 5.24362 15.3053L4.97157 15.1448L2.15231 15.8805L2.90517 13.1445L2.72807 12.864C1.982 11.6835 1.58861 10.3193 1.58937 8.919C1.59087 4.8315 4.93314 1.506 9.04182 1.506C11.0314 1.506 12.9018 2.2785 14.3081 3.6795C15.7143 5.08125 16.4883 6.9435 16.4875 8.92425C16.4852 13.0133 13.1437 16.3387 9.03806 16.3387ZM13.1241 10.7865C12.9003 10.6748 11.7993 10.1355 11.5936 10.0612C11.3886 9.987 11.2394 9.9495 11.0894 10.1722C10.9394 10.395 10.5114 10.8975 10.3802 11.0468C10.2499 11.1953 10.1187 11.214 9.89491 11.1023C9.67109 10.9905 8.94913 10.7557 8.09378 9.996C7.42834 9.405 6.97844 8.67525 6.84806 8.45175C6.71769 8.22825 6.8345 8.10825 6.94603 7.99725C7.04702 7.8975 7.16985 7.737 7.28214 7.6065C7.39518 7.4775 7.43211 7.3845 7.50747 7.23525C7.58208 7.08675 7.54515 6.95625 7.48863 6.8445C7.43211 6.7335 6.98447 5.63625 6.79832 5.19C6.6167 4.755 6.43207 4.81425 6.29416 4.8075C6.16378 4.80075 6.01457 4.8 5.8646 4.8C5.71539 4.8 5.47272 4.8555 5.26774 5.079C5.06276 5.3025 4.48398 5.84175 4.48398 6.93825C4.48398 8.0355 5.28658 9.09525 5.39812 9.24375C5.50965 9.39225 6.97693 11.6438 9.22344 12.609C9.75775 12.8385 10.1753 12.9757 10.5001 13.0785C11.0366 13.248 11.525 13.224 11.9108 13.167C12.3411 13.1032 13.2357 12.6277 13.4226 12.1073C13.6095 11.5868 13.6095 11.1397 13.5529 11.0475C13.4972 10.9537 13.348 10.8982 13.1241 10.7865Z" fill="#1B8A4E"/>
</svg>
