<svg width="18" height="18" viewBox="0 0 18 18" fill="none" xmlns="http://www.w3.org/2000/svg">
<path fill-rule="evenodd" clip-rule="evenodd" d="M3.80926 3.80177C6.65551 0.959266 11.283 0.989266 14.1465 3.85352C17.0115 6.71852 17.0415 11.3483 14.1945 14.1945C11.3483 17.0408 6.71851 17.0115 3.85351 14.1465C3.04764 13.344 2.43875 12.3655 2.07465 11.2881C1.71054 10.2106 1.60114 9.06339 1.75501 7.93652C1.7752 7.78863 1.85332 7.65481 1.97217 7.56451C2.09102 7.47421 2.24087 7.43483 2.38876 7.45502C2.53666 7.47521 2.67047 7.55332 2.76077 7.67217C2.85107 7.79102 2.89045 7.94088 2.87026 8.08877C2.73964 9.04375 2.83225 10.016 3.14079 10.9292C3.44934 11.8423 3.96543 12.6715 4.64851 13.3515C7.08226 15.7845 10.9995 15.7988 13.3995 13.3995C15.7988 10.9995 15.7845 7.08227 13.3515 4.64852C10.9193 2.21702 7.00426 2.20127 4.60426 4.59752L5.16526 4.59977C5.23913 4.60011 5.31221 4.615 5.38032 4.64359C5.44844 4.67218 5.51025 4.7139 5.56224 4.76638C5.61423 4.81885 5.65538 4.88105 5.68333 4.94943C5.71128 5.01781 5.72548 5.09102 5.72514 5.16489C5.72479 5.23876 5.7099 5.31184 5.68132 5.37995C5.65273 5.44806 5.61101 5.50988 5.55853 5.56187C5.50605 5.61386 5.44385 5.655 5.37547 5.68295C5.3071 5.7109 5.23388 5.72511 5.16001 5.72477L3.25051 5.71577C3.10224 5.71498 2.96027 5.65567 2.8555 5.55076C2.75072 5.44584 2.69161 5.30379 2.69101 5.15552L2.68126 3.24752C2.68087 3.17365 2.69503 3.10043 2.72293 3.03203C2.75084 2.96363 2.79194 2.9014 2.8439 2.84889C2.89585 2.79638 2.95764 2.75461 3.02573 2.72598C3.09383 2.69735 3.1669 2.68241 3.24076 2.68202C3.31463 2.68162 3.38786 2.69578 3.45625 2.72369C3.52465 2.75159 3.58688 2.79269 3.63939 2.84465C3.6919 2.8966 3.73367 2.95839 3.7623 3.02648C3.79093 3.09458 3.80587 3.16765 3.80626 3.24152L3.80926 3.80252V3.80177ZM8.99926 5.43677C9.14845 5.43677 9.29152 5.49603 9.39701 5.60152C9.5025 5.70701 9.56176 5.85008 9.56176 5.99927V8.76677L11.2725 10.4768C11.3263 10.5286 11.3691 10.5907 11.3987 10.6593C11.4282 10.7279 11.4437 10.8017 11.4444 10.8764C11.4451 10.9511 11.4309 11.0252 11.4026 11.0943C11.3744 11.1634 11.3327 11.2263 11.2799 11.2791C11.2271 11.3319 11.1643 11.3737 11.0952 11.4021C11.0261 11.4304 10.952 11.4446 10.8773 11.444C10.8026 11.4434 10.7288 11.4279 10.6602 11.3985C10.5915 11.369 10.5294 11.3262 10.4775 11.2725L8.43751 9.23252V6.00002C8.43751 5.85083 8.49678 5.70776 8.60227 5.60227C8.70776 5.49678 8.85083 5.43752 9.00001 5.43752L8.99926 5.43677Z" fill="#181B28" fill-opacity="0.4"/>
</svg>
