<svg width="20" height="20" viewBox="0 0 20 20" fill="none" xmlns="http://www.w3.org/2000/svg">
<ellipse cx="9.64917" cy="6.06507" rx="3.98169" ry="3.98169" stroke="#807A7A" stroke-width="1.5" stroke-linecap="round" stroke-linejoin="round"/>
<path fill-rule="evenodd" clip-rule="evenodd" d="M3.33339 15.5845C3.33232 15.3046 3.39492 15.0281 3.51645 14.776C3.89784 14.0132 4.97336 13.6089 5.86581 13.4258C6.50944 13.2885 7.16196 13.1967 7.81851 13.1512C9.03407 13.0445 10.2567 13.0445 11.4722 13.1512C12.1287 13.1973 12.7812 13.289 13.4249 13.4258C14.3174 13.6089 15.3929 13.975 15.7743 14.776C16.0187 15.29 16.0187 15.8867 15.7743 16.4007C15.3929 17.2016 14.3174 17.5677 13.4249 17.7432C12.782 17.8862 12.1293 17.9805 11.4722 18.0254C10.4828 18.1093 9.48886 18.1246 8.49738 18.0712C8.26855 18.0712 8.04735 18.0712 7.81851 18.0254C7.1639 17.9811 6.51364 17.8867 5.87343 17.7432C4.97336 17.5677 3.90547 17.2016 3.51645 16.4007C3.39554 16.1456 3.333 15.8668 3.33339 15.5845Z" stroke="#807A7A" stroke-width="1.5" stroke-linecap="round" stroke-linejoin="round"/>
</svg>
