<svg width="20" height="20" viewBox="0 0 20 20" fill="none" xmlns="http://www.w3.org/2000/svg">
<path d="M10 1.66602C14.6025 1.66602 18.3334 5.39685 18.3334 9.99935C18.3334 14.6018 14.6025 18.3327 10 18.3327C8.67002 18.3345 7.35904 18.0167 6.17753 17.406L2.98919 18.2952C2.81131 18.3448 2.62343 18.3463 2.4448 18.2994C2.26617 18.2525 2.10321 18.159 1.97262 18.0284C1.84203 17.8978 1.74851 17.7349 1.70163 17.5562C1.65476 17.3776 1.65622 17.1897 1.70586 17.0118L2.59586 13.826C1.98365 12.6435 1.66496 11.331 1.66669 9.99935C1.66669 5.39685 5.39753 1.66602 10 1.66602ZM10 2.91602C8.12141 2.91602 6.31974 3.66229 4.99135 4.99068C3.66297 6.31906 2.91669 8.12073 2.91669 9.99935C2.91669 11.2243 3.22753 12.4018 3.81086 13.4468L3.93586 13.6718L3.00919 16.9918L6.33169 16.0652L6.55669 16.1902C7.50201 16.7158 8.55514 17.0179 9.63532 17.0734C10.7155 17.1288 11.794 16.9362 12.7882 16.5103C13.7824 16.0843 14.6659 15.4363 15.3708 14.616C16.0758 13.7957 16.5835 12.8249 16.8551 11.7779C17.1267 10.731 17.1549 9.63572 16.9376 8.57617C16.7202 7.51663 16.2632 6.52092 15.6014 5.6654C14.9396 4.80989 14.0907 4.11728 13.1198 3.6407C12.1488 3.16412 11.0816 2.91622 10 2.91602ZM7.29169 10.8327H11.04C11.1984 10.8327 11.3508 10.8929 11.4665 11.001C11.5822 11.1091 11.6526 11.2571 11.6634 11.4151C11.6742 11.5731 11.6246 11.7293 11.5247 11.8521C11.4247 11.9749 11.2819 12.0553 11.125 12.0768L11.04 12.0827H7.29169C7.13334 12.0826 6.98091 12.0225 6.8652 11.9144C6.74949 11.8063 6.67913 11.6583 6.66834 11.5003C6.65755 11.3423 6.70712 11.1861 6.80705 11.0633C6.90698 10.9404 7.04982 10.8601 7.20669 10.8385L7.29169 10.8327ZM7.29169 7.91601H12.7125C12.8708 7.91627 13.0231 7.97658 13.1386 8.08475C13.2542 8.19292 13.3244 8.34091 13.3351 8.49883C13.3458 8.65675 13.2961 8.81284 13.1962 8.93559C13.0963 9.05834 12.9535 9.13861 12.7967 9.16018L12.7125 9.16601H7.29169C7.13334 9.16597 6.98091 9.10581 6.8652 8.9977C6.74949 8.8896 6.67913 8.7416 6.66834 8.58361C6.65755 8.42563 6.70712 8.26944 6.80705 8.1466C6.90698 8.02376 7.04982 7.94343 7.20669 7.92185L7.29169 7.91601Z" fill="white"/>
</svg>
