<svg width="14" height="14" viewBox="0 0 14 14" fill="none" xmlns="http://www.w3.org/2000/svg">
<path d="M13.9611 5.02602C13.9171 4.89644 13.8361 4.78258 13.7281 4.6985C13.6202 4.61442 13.49 4.5638 13.3536 4.55288L9.36339 4.23582L7.63671 0.413623C7.58172 0.290518 7.49228 0.185958 7.37918 0.112563C7.26608 0.0391677 7.13415 7.41055e-05 6.99932 1.05251e-07C6.8645 -7.3895e-05 6.73253 0.0388749 6.61935 0.112146C6.50616 0.185417 6.41661 0.289878 6.36148 0.412923L4.63481 4.23582L0.644634 4.55288C0.51057 4.5635 0.382405 4.61252 0.275471 4.69407C0.168537 4.77562 0.087362 4.88626 0.0416581 5.01274C-0.00404573 5.13922 -0.0123435 5.27619 0.0177575 5.40726C0.0478585 5.53833 0.115084 5.65795 0.211391 5.75182L3.1601 8.62634L2.11724 13.1421C2.08557 13.2788 2.09572 13.4219 2.14637 13.5527C2.19702 13.6836 2.28582 13.7962 2.40126 13.876C2.51671 13.9557 2.65345 13.9989 2.79376 14C2.93407 14.0011 3.07146 13.9599 3.1881 13.882L6.9991 11.3413L10.8101 13.882C10.9293 13.9611 11.0699 14.0019 11.213 13.9987C11.3561 13.9956 11.4947 13.9487 11.6104 13.8644C11.726 13.7801 11.813 13.6624 11.8598 13.5271C11.9065 13.3919 11.9108 13.2456 11.8719 13.1079L10.5917 8.62844L13.7665 5.77142C13.9744 5.58384 14.0507 5.29128 13.9611 5.02602Z" fill="#FFBA49"/>
</svg>
