<svg width="20" height="20" viewBox="0 0 20 20" fill="none" xmlns="http://www.w3.org/2000/svg">
<g clip-path="url(#clip0_128_1638)">
<path d="M14.2288 12.6541C14.6519 12.5338 15.2358 12.3756 15.8158 12.2431C16.4456 12.0992 17.0806 11.9833 17.5 11.9833C18.2503 11.9833 18.8961 12.1578 19.3575 12.4654C19.8209 12.7743 20.1 13.2198 20.1 13.75V13.75C20.1 13.8503 20.0708 13.9485 20.016 14.0325C19.9611 14.1165 19.8831 14.1828 19.7913 14.2232L19.7911 14.2233C19.4924 14.3541 19.0338 14.5795 18.4751 14.854L18.4393 14.8717C18.4393 14.8717 18.4393 14.8717 18.4393 14.8717C17.3391 15.4126 15.9541 16.0935 14.6416 16.6392C13.9852 16.912 13.3454 17.1517 12.7672 17.3234C12.1903 17.4946 11.6684 17.6 11.25 17.6C10.7772 17.6 10.1528 17.4711 9.47395 17.2753C8.79307 17.0789 8.04961 16.8128 7.33581 16.5333C5.99271 16.0074 4.74975 15.4324 4.21775 15.1805C3.99605 15.6234 3.5492 15.9334 3.02734 15.9334H0.416746H0.41668V15.8334C0.36195 15.8334 0.307751 15.8226 0.257181 15.8017C0.206611 15.7808 0.160662 15.7501 0.121963 15.7114L0.0512513 15.7821C0.00325907 15.7341 -0.0348024 15.6771 -0.0607559 15.6144C-0.0867044 15.5517 -0.10004 15.4845 -0.0999999 15.4167V8.75V8.74989C-0.0999154 8.67355 -0.0829685 8.59817 -0.0503704 8.52915C-0.0177724 8.46012 0.0296719 8.39914 0.0885718 8.35058L0.0890179 8.35021C0.208809 8.2526 0.366892 8.21311 0.517656 8.24343L14.2288 12.6541ZM14.2288 12.6541C14.1269 12.0722 13.6978 11.6781 13.1264 11.3944C12.5182 11.0924 11.7274 10.9041 10.9363 10.7434L10.9362 10.7434C10.2271 10.5997 9.69923 10.3457 9.17926 10.0946L9.17922 10.0946L9.17197 10.0911C8.53459 9.78374 7.91156 9.48328 7.08336 9.48328C6.20553 9.48328 5.40231 9.65168 4.91105 9.78132C4.75421 9.3545 4.388 9.01715 3.91121 8.92206C3.91119 8.92205 3.91118 8.92205 3.91116 8.92205L0.517786 8.24345L14.2288 12.6541ZM3.96026 10.2906L3.96029 10.2904C3.98434 10.1244 3.8739 9.96848 3.70922 9.93529L3.96026 10.2906ZM3.96026 10.2906L3.34098 14.6281L3.96026 10.2906ZM0.93332 14.9V9.38018L3.7091 9.93526L0.93332 14.9ZM0.93332 14.9H3.02734C3.18345 14.9 3.3187 14.7828 3.34096 14.6282L0.93332 14.9ZM17.9832 13.9443L17.9833 13.9442C18.0251 13.9237 18.0664 13.9035 18.1072 13.8835C18.4272 13.7265 18.7142 13.5858 18.9561 13.4705C18.8512 13.3474 18.6748 13.2418 18.4459 13.1628C18.1681 13.067 17.8307 13.0167 17.5 13.0167C17.1126 13.0167 16.4017 13.1604 15.6853 13.3363C14.9731 13.5112 14.269 13.7144 13.9023 13.8272L13.9022 13.8272C13.8771 13.835 13.8542 13.8367 13.8384 13.8374C13.8379 13.8375 13.8375 13.8375 13.8371 13.8375C13.8348 13.8398 13.8324 13.8423 13.8297 13.8449L17.9832 13.9443ZM17.9832 13.9443C16.9814 14.4368 15.6453 15.0937 14.3822 15.6275C13.7506 15.8944 13.139 16.1298 12.5977 16.2983C12.0544 16.4675 11.59 16.5667 11.25 16.5667C10.8862 16.5667 10.3648 16.4593 9.75803 16.2827C9.15367 16.1068 8.47312 15.8647 7.79452 15.6008C6.47565 15.0878 5.16931 14.4941 4.45353 14.1482L4.92436 10.8506C5.27377 10.7453 6.14026 10.5167 7.08332 10.5167C7.67225 10.5167 8.12667 10.7345 8.73095 11.0255C9.2708 11.2861 9.89263 11.5862 10.7304 11.7565L10.7304 11.7565C11.6343 11.9397 12.2696 12.1236 12.677 12.3221C13.0888 12.5227 13.2333 12.7202 13.2333 12.9166C13.2333 12.9574 13.2271 12.9822 13.2183 13.0002C13.2095 13.018 13.1943 13.037 13.1636 13.0599L13.1635 13.06C13.0588 13.1384 12.7622 13.2716 11.993 13.2357C11.2265 13.2 10.0043 12.9971 8.06388 12.4212L8.06323 12.421C7.78873 12.3416 7.503 12.4961 7.42122 12.7696L7.42112 12.7699C7.34045 13.0432 7.49571 13.3308 7.76934 13.4121L7.7694 13.4121C9.69145 13.9816 11.17 14.2687 12.2249 14.2687C12.911 14.2687 13.4343 14.1474 13.7813 13.8878L17.9832 13.9443ZM16.8383 6.83826L16.838 6.83862L13.6969 9.94992C13.6969 9.94995 13.6969 9.94998 13.6968 9.95001C13.6491 9.99767 13.5924 10.0354 13.53 10.0612C13.4676 10.0869 13.4007 10.1001 13.3331 10.1L13.3333 10M16.8383 6.83826L12.97 9.95018C13.0177 9.99776 13.0744 10.0355 13.1367 10.0612C13.1991 10.0869 13.266 10.1001 13.3335 10.1L13.3333 10M16.8383 6.83826C17.329 6.34714 17.6 5.69431 17.6 5C17.6 3.56618 16.4338 2.4 15 2.4C14.3803 2.4 13.7965 2.61781 13.3333 3.01065C12.8702 2.61781 12.2863 2.4 11.6667 2.4C10.2329 2.4 9.06668 3.56618 9.06668 5C9.06668 5.69435 9.33768 6.34718 9.83003 6.8395L9.83036 6.83983L12.9697 9.94993L16.8383 6.83826ZM13.3333 10C13.2789 10.0001 13.2251 9.98947 13.1748 9.96874C13.1245 9.948 13.0788 9.91755 13.0404 9.87914H13.6263C13.5878 9.91755 13.5421 9.948 13.4918 9.96874C13.4416 9.98948 13.3877 10.0001 13.3333 10ZM12.9187 4.07013L12.9188 4.07034C13.0198 4.20509 13.1797 4.26848 13.3333 4.26848C13.487 4.26848 13.6469 4.20509 13.7478 4.07034L13.748 4.07012C14.0502 3.66436 14.5058 3.43332 15 3.43332C15.8636 3.43332 16.5667 4.13603 16.5667 5C16.5667 5.41855 16.4039 5.8113 16.1095 6.10622C16.1095 6.10631 16.1094 6.1064 16.1093 6.10649L13.3334 8.85623L10.559 6.10769C10.5589 6.10763 10.5589 6.10757 10.5588 6.10752C10.2627 5.81131 10.1 5.41853 10.1 5C10.1 4.13606 10.8031 3.43332 11.6667 3.43332C12.1609 3.43332 12.6165 3.6644 12.9187 4.07013Z" fill="#1D212C" stroke="#1D212C" stroke-width="0.2"/>
</g>
<defs>
<clipPath id="clip0_128_1638">
<rect width="20" height="20" fill="white"/>
</clipPath>
</defs>
</svg>
