<svg width="16" height="16" viewBox="0 0 16 16" fill="none" xmlns="http://www.w3.org/2000/svg">
<mask id="path-1-inside-1_759_14806" fill="white">
<path d="M16.0001 8.00005C16.0001 12.4184 12.4184 16.0001 8.00005 16.0001C3.58175 16.0001 0 12.4184 0 8.00005C0 3.58175 3.58175 0 8.00005 0C12.4184 0 16.0001 3.58175 16.0001 8.00005Z"/>
</mask>
<path d="M15.121 8.00005C15.121 11.9328 11.9328 15.121 8.00005 15.121V16.8792C12.9039 16.8792 16.8792 12.9039 16.8792 8.00005H15.121ZM8.00005 15.121C4.06727 15.121 0.879127 11.9328 0.879127 8.00005H-0.879127C-0.879127 12.9039 3.09622 16.8792 8.00005 16.8792V15.121ZM0.879127 8.00005C0.879127 4.06727 4.06727 0.879127 8.00005 0.879127V-0.879127C3.09622 -0.879127 -0.879127 3.09622 -0.879127 8.00005H0.879127ZM8.00005 0.879127C11.9328 0.879127 15.121 4.06727 15.121 8.00005H16.8792C16.8792 3.09622 12.9039 -0.879127 8.00005 -0.879127V0.879127Z" fill="#181B28" fill-opacity="0.4" mask="url(#path-1-inside-1_759_14806)"/>
</svg>
