<svg width="71" height="14" viewBox="0 0 71 14" fill="none" xmlns="http://www.w3.org/2000/svg">
<path d="M12.4326 5.19982C12.397 5.09495 12.3314 5.00279 12.2441 4.93474C12.1567 4.86669 12.0513 4.82571 11.9409 4.81688L8.71132 4.56026L7.31379 1.46666C7.26929 1.36702 7.19689 1.28239 7.10535 1.22299C7.01381 1.16358 6.90703 1.13194 6.7979 1.13188C6.68878 1.13182 6.58196 1.16335 6.49036 1.22265C6.39875 1.28195 6.32627 1.3665 6.28165 1.46609L4.88412 4.56026L1.65456 4.81688C1.54606 4.82547 1.44232 4.86515 1.35577 4.93115C1.26922 4.99716 1.20352 5.08671 1.16653 5.18908C1.12954 5.29145 1.12282 5.40231 1.14719 5.50839C1.17155 5.61448 1.22596 5.7113 1.30391 5.78727L3.69053 8.11384L2.84646 11.7688C2.82083 11.8795 2.82904 11.9953 2.87003 12.1012C2.91103 12.2071 2.9829 12.2982 3.07634 12.3628C3.16978 12.4273 3.28046 12.4623 3.39402 12.4632C3.50758 12.464 3.61878 12.4307 3.71319 12.3676L6.79772 10.3113L9.88226 12.3676C9.97875 12.4317 10.0925 12.4647 10.2083 12.4621C10.3241 12.4596 10.4364 12.4216 10.53 12.3534C10.6236 12.2852 10.694 12.1899 10.7319 12.0804C10.7697 11.971 10.7731 11.8525 10.7416 11.7411L9.70551 8.11554L12.2751 5.80313C12.4434 5.65132 12.5051 5.41452 12.4326 5.19982Z" fill="#FFBA49"/>
<path d="M26.7842 5.19978C26.7485 5.0949 26.683 5.00275 26.5956 4.93469C26.5082 4.86664 26.4028 4.82567 26.2924 4.81683L23.0629 4.56021L21.6654 1.46661C21.6208 1.36697 21.5485 1.28235 21.4569 1.22294C21.3654 1.16354 21.2586 1.1319 21.1495 1.13184C21.0403 1.13178 20.9335 1.1633 20.8419 1.2226C20.7503 1.28191 20.6778 1.36646 20.6332 1.46605L19.2357 4.56021L16.0061 4.81683C15.8976 4.82543 15.7939 4.8651 15.7073 4.93111C15.6208 4.99712 15.5551 5.08666 15.5181 5.18903C15.4811 5.2914 15.4744 5.40226 15.4987 5.50835C15.5231 5.61443 15.5775 5.71125 15.6555 5.78723L18.0421 8.1138L17.198 11.7688C17.1724 11.8794 17.1806 11.9952 17.2216 12.1011C17.2626 12.207 17.3345 12.2982 17.4279 12.3627C17.5213 12.4273 17.632 12.4622 17.7456 12.4631C17.8591 12.464 17.9703 12.4307 18.0647 12.3676L21.1493 10.3112L24.2338 12.3676C24.3303 12.4316 24.4441 12.4646 24.5599 12.4621C24.6757 12.4595 24.7879 12.4216 24.8815 12.3534C24.9751 12.2851 25.0456 12.1899 25.0834 12.0804C25.1213 11.9709 25.1247 11.8525 25.0932 11.741L24.0571 8.1155L26.6267 5.80309C26.7949 5.65127 26.8567 5.41448 26.7842 5.19978Z" fill="#FFBA49"/>
<path d="M41.1338 5.19978C41.0982 5.0949 41.0326 5.00275 40.9452 4.93469C40.8579 4.86664 40.7525 4.82567 40.642 4.81683L37.4125 4.56021L36.015 1.46661C35.9705 1.36697 35.8981 1.28235 35.8065 1.22294C35.715 1.16354 35.6082 1.1319 35.4991 1.13184C35.3899 1.13178 35.2831 1.1633 35.1915 1.2226C35.0999 1.28191 35.0274 1.36646 34.9828 1.46605L33.5853 4.56021L30.3557 4.81683C30.2472 4.82543 30.1435 4.8651 30.0569 4.93111C29.9704 4.99712 29.9047 5.08666 29.8677 5.18903C29.8307 5.2914 29.824 5.40226 29.8484 5.50835C29.8727 5.61443 29.9271 5.71125 30.0051 5.78723L32.3917 8.1138L31.5476 11.7688C31.522 11.8794 31.5302 11.9952 31.5712 12.1011C31.6122 12.207 31.6841 12.2982 31.7775 12.3627C31.8709 12.4273 31.9816 12.4622 32.0952 12.4631C32.2088 12.464 32.3199 12.4307 32.4144 12.3676L35.4989 10.3112L38.5834 12.3676C38.6799 12.4316 38.7937 12.4646 38.9095 12.4621C39.0253 12.4595 39.1376 12.4216 39.2311 12.3534C39.3247 12.2851 39.3952 12.1899 39.433 12.0804C39.4709 11.9709 39.4743 11.8525 39.4428 11.741L38.4067 8.1155L40.9763 5.80309C41.1445 5.65127 41.2063 5.41448 41.1338 5.19978Z" fill="#FFBA49"/>
<path d="M55.4853 5.19978C55.4497 5.0949 55.3842 5.00275 55.2968 4.93469C55.2094 4.86664 55.104 4.82567 54.9936 4.81683L51.7641 4.56021L50.3665 1.46661C50.322 1.36697 50.2496 1.28235 50.1581 1.22294C50.0665 1.16354 49.9598 1.1319 49.8506 1.13184C49.7415 1.13178 49.6347 1.1633 49.5431 1.2226C49.4515 1.28191 49.379 1.36646 49.3344 1.46605L47.9369 4.56021L44.7073 4.81683C44.5988 4.82543 44.4951 4.8651 44.4085 4.93111C44.322 4.99712 44.2563 5.08666 44.2193 5.18903C44.1823 5.2914 44.1756 5.40226 44.1999 5.50835C44.2243 5.61443 44.2787 5.71125 44.3566 5.78723L46.7433 8.1138L45.8992 11.7688C45.8736 11.8794 45.8818 11.9952 45.9228 12.1011C45.9638 12.207 46.0356 12.2982 46.1291 12.3627C46.2225 12.4273 46.3332 12.4622 46.4468 12.4631C46.5603 12.464 46.6715 12.4307 46.7659 12.3676L49.8505 10.3112L52.935 12.3676C53.0315 12.4316 53.1453 12.4646 53.2611 12.4621C53.3769 12.4595 53.4891 12.4216 53.5827 12.3534C53.6763 12.2851 53.7468 12.1899 53.7846 12.0804C53.8224 11.9709 53.8258 11.8525 53.7944 11.741L52.7582 8.1155L55.3278 5.80309C55.4961 5.65127 55.5578 5.41448 55.4853 5.19978Z" fill="#FFBA49"/>
<path d="M69.8369 5.19978C69.8013 5.0949 69.7357 5.00275 69.6484 4.93469C69.561 4.86664 69.4556 4.82567 69.3452 4.81683L66.1156 4.56021L64.7181 1.46661C64.6736 1.36697 64.6012 1.28235 64.5096 1.22294C64.4181 1.16354 64.3113 1.1319 64.2022 1.13184C64.0931 1.13178 63.9863 1.1633 63.8947 1.2226C63.803 1.28191 63.7306 1.36646 63.6859 1.46605L62.2884 4.56021L59.0589 4.81683C58.9504 4.82543 58.8466 4.8651 58.7601 4.93111C58.6735 4.99712 58.6078 5.08666 58.5708 5.18903C58.5338 5.2914 58.5271 5.40226 58.5515 5.50835C58.5758 5.61443 58.6303 5.71125 58.7082 5.78723L61.0948 8.1138L60.2508 11.7688C60.2251 11.8794 60.2333 11.9952 60.2743 12.1011C60.3153 12.207 60.3872 12.2982 60.4806 12.3627C60.5741 12.4273 60.6848 12.4622 60.7983 12.4631C60.9119 12.464 61.0231 12.4307 61.1175 12.3676L64.202 10.3112L67.2866 12.3676C67.383 12.4316 67.4968 12.4646 67.6126 12.4621C67.7284 12.4595 67.8407 12.4216 67.9343 12.3534C68.0279 12.2851 68.0983 12.1899 68.1362 12.0804C68.174 11.9709 68.1774 11.8525 68.1459 11.741L67.1098 8.1155L69.6794 5.80309C69.8477 5.65127 69.9094 5.41448 69.8369 5.19978Z" fill="#FFBA49"/>
</svg>
