<svg width="20" height="20" viewBox="0 0 20 20" fill="none" xmlns="http://www.w3.org/2000/svg">
<path d="M13.3333 3.33398H15C15.442 3.33398 15.8659 3.50958 16.1785 3.82214C16.4911 4.1347 16.6666 4.55862 16.6666 5.00065V16.6673C16.6666 17.1093 16.4911 17.5333 16.1785 17.8458C15.8659 18.1584 15.442 18.334 15 18.334H4.99998C4.55795 18.334 4.13403 18.1584 3.82147 17.8458C3.50891 17.5333 3.33331 17.1093 3.33331 16.6673V5.00065C3.33331 4.55862 3.50891 4.1347 3.82147 3.82214C4.13403 3.50958 4.55795 3.33398 4.99998 3.33398H6.66665" stroke="#1D212C" stroke-width="1.5" stroke-linecap="round" stroke-linejoin="round"/>
<path d="M12.5 1.66602H7.50002C7.03978 1.66602 6.66669 2.03911 6.66669 2.49935V4.16602C6.66669 4.62625 7.03978 4.99935 7.50002 4.99935H12.5C12.9603 4.99935 13.3334 4.62625 13.3334 4.16602V2.49935C13.3334 2.03911 12.9603 1.66602 12.5 1.66602Z" stroke="#1D212C" stroke-width="1.5" stroke-linecap="round" stroke-linejoin="round"/>
</svg>
