<svg width="18" height="18" viewBox="0 0 18 18" fill="none" xmlns="http://www.w3.org/2000/svg">
<g clip-path="url(#clip0_182_5294)">
<path d="M12.6252 8.4377C12.6252 9.28306 12.2894 10.0938 11.6917 10.6916C11.0939 11.2893 10.2832 11.6251 9.4378 11.6251C8.59244 11.6251 7.78171 11.2893 7.18395 10.6916C6.58619 10.0938 6.25037 9.28306 6.25037 8.4377C6.25037 7.59234 6.58619 6.7816 7.18395 6.18384C7.78171 5.58608 8.59244 5.25027 9.4378 5.25027C10.2832 5.25027 11.0939 5.58608 11.6917 6.18384C12.2894 6.7816 12.6252 7.59234 12.6252 8.4377ZM11.5628 8.4377C11.5628 7.87412 11.3389 7.33363 10.9404 6.93513C10.5419 6.53662 10.0014 6.31274 9.4378 6.31274C8.87423 6.31274 8.33374 6.53662 7.93524 6.93513C7.53673 7.33363 7.31285 7.87412 7.31285 8.4377C7.31285 9.00127 7.53673 9.54176 7.93524 9.94027C8.33374 10.3388 8.87423 10.5627 9.4378 10.5627C10.0014 10.5627 10.5419 10.3388 10.9404 9.94027C11.3389 9.54176 11.5628 9.00127 11.5628 8.4377ZM14.6971 13.7023C16.092 12.3066 16.8756 10.4141 16.8756 8.44089C16.8756 6.46764 16.092 4.57515 14.6971 3.1795C14.0066 2.48854 13.1867 1.94042 12.2843 1.56645C11.3819 1.19248 10.4146 1 9.4378 1C8.46098 1 7.49372 1.19248 6.59131 1.56645C5.6889 1.94042 4.86903 2.48854 4.17854 3.1795C2.78361 4.57515 2 6.46764 2 8.44089C2 10.4141 2.78361 12.3066 4.17854 13.7023L5.79457 15.2949L7.96521 17.4039L8.10652 17.5293C8.92994 18.1966 10.1359 18.1541 10.9115 17.4039L13.4986 14.8859L14.6971 13.7023ZM4.92759 3.92854C5.51978 3.33608 6.2229 2.8661 6.99678 2.54545C7.77066 2.2248 8.60013 2.05976 9.4378 2.05976C10.2755 2.05976 11.105 2.2248 11.8788 2.54545C12.6527 2.8661 13.3558 3.33608 13.948 3.92854C15.1111 5.09244 15.7799 6.66051 15.8147 8.30558C15.8496 9.95065 15.2478 11.5456 14.135 12.7577L13.948 12.9532L12.5445 14.3387L10.1752 16.6421L10.0753 16.7271C9.89159 16.8656 9.66782 16.9404 9.4378 16.9404C9.20779 16.9404 8.98402 16.8656 8.80032 16.7271L8.70151 16.6421L5.53532 13.5557L4.92759 12.9532L4.74059 12.7588C3.6278 11.5467 3.02605 9.95172 3.06089 8.30664C3.09573 6.66157 3.76448 5.09244 4.92759 3.92854Z" fill="#8C8C8C" stroke="#8C8C8C" stroke-width="0.09"/>
</g>
<defs>
<clipPath id="clip0_182_5294">
<rect width="18" height="18" fill="white"/>
</clipPath>
</defs>
</svg>
