<svg width="20" height="20" viewBox="0 0 20 20" fill="none" xmlns="http://www.w3.org/2000/svg">
<path d="M13.4019 11.1163L13.4019 11.1163L17.2857 12.8543C17.2861 12.8544 17.2865 12.8546 17.2868 12.8547C17.521 12.9568 17.716 13.1316 17.8429 13.3533C17.9701 13.5753 18.0221 13.8324 17.9913 14.0863L17.9911 14.0884C17.8482 15.1722 17.3157 16.1669 16.493 16.8867C15.6703 17.6065 14.6137 18.0023 13.5206 18M13.4019 11.1163L6.65695 9.51889M13.4019 11.1163L13.3996 11.1153C13.2185 11.0369 13.0206 11.0049 12.824 11.0222C12.628 11.0394 12.4394 11.1051 12.275 11.2133C12.2568 11.2249 12.2393 11.2379 12.2228 11.2519L12.2227 11.252L10.1968 12.9789C10.1822 12.986 10.1664 12.9901 10.1502 12.991C10.1303 12.9921 10.1104 12.9884 10.0923 12.9802C8.79675 12.3542 7.44761 11.015 6.82237 9.73584M13.4019 11.1163L6.64214 9.82255M13.5206 18L13.521 17.8V18C13.5208 18 13.5207 18 13.5206 18ZM13.5206 18C7.0573 17.9998 1.80001 12.7423 1.80001 6.27903M1.80001 6.27903H2.00001L1.80001 6.27944C1.80001 6.2793 1.80001 6.27917 1.80001 6.27903ZM1.80001 6.27903C1.79784 5.18603 2.19357 4.12961 2.91331 3.30703C3.63314 2.48435 4.62783 1.95183 5.7116 1.80894L5.7136 1.80867L5.7136 1.80868C5.96873 1.77766 6.22703 1.83025 6.44972 1.95855C6.67188 2.08654 6.84664 2.28299 6.94789 2.5185M6.94789 2.5185L6.9472 2.51697L6.76475 2.5989L6.94861 2.5202C6.94837 2.51963 6.94813 2.51907 6.94789 2.5185ZM6.94789 2.5185L8.68933 6.39624L8.69054 6.39893L8.69052 6.39894C8.76857 6.57983 8.80039 6.77729 8.78311 6.97354C8.76584 7.16978 8.70001 7.35865 8.59156 7.52312L8.58908 7.52689L8.58903 7.52686L8.58791 7.52848C8.58115 7.53825 8.56929 7.55541 8.5552 7.57233L8.55462 7.57302L6.82259 9.63266M6.82259 9.63266C6.8243 9.62905 6.8262 9.62552 6.82827 9.62209L6.65695 9.51889M6.82259 9.63266L6.81002 9.64761L6.65695 9.51889M6.82259 9.63266C6.81578 9.64702 6.81185 9.66263 6.81107 9.6786C6.8101 9.69832 6.81399 9.71797 6.82237 9.73584M6.65695 9.51889C6.62957 9.56433 6.61389 9.61586 6.6113 9.66885C6.60872 9.72184 6.61931 9.77465 6.64214 9.82255M6.82237 9.73584C6.82219 9.73548 6.82202 9.73512 6.82184 9.73477L6.64214 9.82255M6.82237 9.73584C6.82247 9.73607 6.82258 9.73629 6.82268 9.73651L6.64214 9.82255M13.5217 16.9417H13.521C7.64217 16.9417 2.85835 12.1578 2.85835 6.27903L2.85835 6.27834C2.85545 5.44226 3.15717 4.63375 3.70708 4.00396C4.25512 3.37633 5.01227 2.96903 5.83781 2.85756C5.84092 2.85751 5.84403 2.85758 5.84713 2.85777L5.84711 2.85805L5.85783 2.85815C5.88331 2.85836 5.90816 2.86611 5.92925 2.88042C5.95034 2.89473 5.96672 2.91496 5.97634 2.93855L5.97623 2.9386L5.97901 2.9448L7.71536 6.82217C7.72295 6.84044 7.72624 6.86021 7.72498 6.87996C7.72397 6.89583 7.72003 6.91133 7.71342 6.92571L5.98296 8.98364L5.98282 8.98352L5.97751 8.99042C5.97722 8.99079 5.97669 8.99147 5.97595 8.9924C5.97094 8.99874 5.95643 9.01708 5.94478 9.035C5.83307 9.20583 5.76727 9.40259 5.75375 9.60626C5.74023 9.80994 5.77944 10.0137 5.86759 10.1978L5.86828 10.1992C6.60327 11.7038 8.1108 13.2001 9.63124 13.9346L9.63279 13.9353C9.81815 14.0229 10.023 14.061 10.2275 14.0459C10.432 14.0308 10.629 13.9631 10.7995 13.8492L10.7997 13.8495L10.8092 13.8424L10.8396 13.8193L10.8398 13.8196L10.8485 13.8122L12.877 12.0868C12.8909 12.08 12.906 12.0759 12.9215 12.0748C12.9404 12.0733 12.9594 12.0763 12.9769 12.0833L16.8593 13.8234L16.8592 13.8235L16.8642 13.8256C16.8899 13.8363 16.9115 13.855 16.9257 13.879C16.9396 13.9024 16.9457 13.9296 16.9432 13.9567C16.8328 14.7844 16.4251 15.5437 15.796 16.0929C15.1663 16.6428 14.3577 16.9445 13.5217 16.9417Z" fill="#1D212C" stroke="#1D212C" stroke-width="0.4"/>
</svg>
