<svg width="20" height="20" viewBox="0 0 20 20" fill="none" xmlns="http://www.w3.org/2000/svg">
<path d="M11.6666 1.66602H4.99998C4.55795 1.66602 4.13403 1.84161 3.82147 2.15417C3.50891 2.46673 3.33331 2.89065 3.33331 3.33268V16.666C3.33331 17.108 3.50891 17.532 3.82147 17.8445C4.13403 18.1571 4.55795 18.3327 4.99998 18.3327H15C15.442 18.3327 15.8659 18.1571 16.1785 17.8445C16.4911 17.532 16.6666 17.108 16.6666 16.666V6.66602L11.6666 1.66602Z" stroke="#1D212C" stroke-width="1.5" stroke-linecap="round" stroke-linejoin="round"/>
<path d="M11.6667 1.66602V6.66602H16.6667" stroke="#1D212C" stroke-width="1.5" stroke-linecap="round" stroke-linejoin="round"/>
<path d="M13.3334 10.832H6.66669" stroke="#1D212C" stroke-width="1.5" stroke-linecap="round" stroke-linejoin="round"/>
<path d="M13.3334 14.166H6.66669" stroke="#1D212C" stroke-width="1.5" stroke-linecap="round" stroke-linejoin="round"/>
<path d="M8.33335 7.5H7.50002H6.66669" stroke="#1D212C" stroke-width="1.5" stroke-linecap="round" stroke-linejoin="round"/>
</svg>
