<svg width="19" height="19" viewBox="0 0 19 19" fill="none" xmlns="http://www.w3.org/2000/svg">
<path d="M15.7982 7.89909C15.7982 12.4873 9.89909 16.42 9.89909 16.42C9.89909 16.42 4 12.4873 4 7.89909C4 6.33455 4.62151 4.8341 5.7278 3.7278C6.8341 2.62151 8.33455 2 9.89909 2C11.4636 2 12.9641 2.62151 14.0704 3.7278C15.1767 4.8341 15.7982 6.33455 15.7982 7.89909Z" stroke="#181B28" stroke-opacity="0.7" stroke-width="1.26316" stroke-linecap="round" stroke-linejoin="round"/>
<path d="M9.89908 9.86632C10.9851 9.86632 11.8654 8.98595 11.8654 7.89996C11.8654 6.81396 10.9851 5.93359 9.89908 5.93359C8.81309 5.93359 7.93272 6.81396 7.93272 7.89996C7.93272 8.98595 8.81309 9.86632 9.89908 9.86632Z" stroke="#181B28" stroke-opacity="0.7" stroke-width="1.26316" stroke-linecap="round" stroke-linejoin="round"/>
</svg>
