<svg width="9" height="6" viewBox="0 0 9 6" fill="none" xmlns="http://www.w3.org/2000/svg">
<path d="M3.25684 2.01946L3.07494 2.57906H2.48658L2.96266 2.92472L2.78076 3.48427L3.25684 3.13861L3.73261 3.48427L3.55076 2.92472L4.02684 2.57906H3.43843L3.25684 2.01946ZM3.43843 4.59843L3.25684 4.03888L3.07494 4.59843H2.48658L2.96266 4.94414L2.78076 5.50369L3.25684 5.15798L3.73261 5.50369L3.55076 4.94414L4.02684 4.59843H3.43843ZM0.951892 4.59843L0.770258 4.03888L0.588359 4.59843H0L0.476079 4.94414L0.29418 5.50369L0.770258 5.15798L1.24607 5.50369L1.06422 4.94414L1.54021 4.59843H0.951892ZM0.770258 2.01946L0.588359 2.57906H0L0.476079 2.92472L0.29418 3.48427L0.770258 3.13861L1.24607 3.48427L1.06422 2.92472L1.54021 2.57906H0.951892L0.770258 2.01946ZM3.25684 0L3.07494 0.559638H2.48658L2.96266 0.905348L2.78076 1.4649L3.25684 1.11919L3.73261 1.4649L3.55076 0.905348L4.02684 0.559638H3.43843L3.25684 0ZM0.770258 0L0.588359 0.559638H0L0.476079 0.905348L0.29418 1.4649L0.770258 1.11919L1.24607 1.4649L1.06422 0.905348L1.54021 0.559638H0.951892L0.770258 0ZM5.74338 2.01946L5.56153 2.57906H4.97317L5.4492 2.92472L5.26739 3.48427L5.74338 3.13861L6.21924 3.48427L6.03734 2.92472L6.51342 2.57906H5.92506L5.74338 2.01946ZM5.92506 4.59843L5.74338 4.03888L5.56153 4.59843H4.97317L5.4492 4.94414L5.26739 5.50369L5.74338 5.15798L6.21924 5.50369L6.03734 4.94414L6.51342 4.59843H5.92506ZM8.41165 4.59843L8.23001 4.03888L8.04811 4.59843H7.4598L7.93579 4.94414L7.75393 5.50369L8.23001 5.15798L8.70583 5.50369L8.52393 4.94414L9 4.59843H8.41165ZM8.23001 2.01946L8.04811 2.57906H7.4598L7.93579 2.92472L7.75393 3.48427L8.23001 3.13861L8.70583 3.48427L8.52393 2.92472L9 2.57906H8.41165L8.23001 2.01946ZM5.74338 0L5.56153 0.559638H4.97317L5.4492 0.905348L5.26739 1.4649L5.74338 1.11919L6.21924 1.4649L6.03734 0.905348L6.51342 0.559638H5.92506L5.74338 0ZM8.23001 0L8.04811 0.559638H7.4598L7.93579 0.905348L7.75393 1.4649L8.23001 1.11919L8.70583 1.4649L8.52393 0.905348L9 0.559638H8.41165L8.23001 0Z" fill="#F0F0F0"/>
</svg>
