<svg width="20" height="20" viewBox="0 0 20 20" fill="none" xmlns="http://www.w3.org/2000/svg">
<path d="M7.5 12.5L12.5 7.5" stroke="#181B28" stroke-opacity="0.7" stroke-width="1.5" stroke-linecap="round" stroke-linejoin="round"/>
<path d="M7.91667 8.33333C8.14679 8.33333 8.33333 8.14679 8.33333 7.91667C8.33333 7.68655 8.14679 7.5 7.91667 7.5C7.68655 7.5 7.5 7.68655 7.5 7.91667C7.5 8.14679 7.68655 8.33333 7.91667 8.33333Z" fill="#181B28" fill-opacity="0.7" stroke="#181B28" stroke-opacity="0.7" stroke-width="1.5" stroke-linecap="round" stroke-linejoin="round"/>
<path d="M12.0846 12.5C12.3148 12.5 12.5013 12.3135 12.5013 12.0833C12.5013 11.8532 12.3148 11.6667 12.0846 11.6667C11.8545 11.6667 11.668 11.8532 11.668 12.0833C11.668 12.3135 11.8545 12.5 12.0846 12.5Z" fill="#181B28" fill-opacity="0.7" stroke="#181B28" stroke-opacity="0.7" stroke-width="1.5" stroke-linecap="round" stroke-linejoin="round"/>
<path d="M4.16705 6C4.16705 5.51377 4.36021 5.04746 4.70402 4.70364C5.04784 4.35982 5.51415 4.16667 6.00038 4.16667H6.83372C7.3178 4.16639 7.78213 3.97467 8.12538 3.63334L8.70872 3.05C8.87909 2.87867 9.08165 2.7427 9.30475 2.64993C9.52785 2.55715 9.76709 2.50938 10.0087 2.50938C10.2503 2.50938 10.4896 2.55715 10.7127 2.64993C10.9358 2.7427 11.1383 2.87867 11.3087 3.05L11.8921 3.63334C12.2353 3.97467 12.6996 4.16639 13.1837 4.16667H14.0171C14.5033 4.16667 14.9696 4.35982 15.3134 4.70364C15.6572 5.04746 15.8504 5.51377 15.8504 6V6.83334C15.8507 7.31742 16.0424 7.78174 16.3837 8.125L16.9671 8.70834C17.1384 8.87871 17.2743 9.08127 17.3671 9.30437C17.4599 9.52747 17.5077 9.76671 17.5077 10.0083C17.5077 10.25 17.4599 10.4892 17.3671 10.7123C17.2743 10.9354 17.1384 11.138 16.9671 11.3083L16.3837 11.8917C16.0424 12.2349 15.8507 12.6993 15.8504 13.1833V14.0167C15.8504 14.5029 15.6572 14.9692 15.3134 15.313C14.9696 15.6568 14.5033 15.85 14.0171 15.85H13.1837C12.6996 15.8503 12.2353 16.042 11.8921 16.3833L11.3087 16.9667C11.1383 17.138 10.9358 17.274 10.7127 17.3667C10.4896 17.4595 10.2503 17.5073 10.0087 17.5073C9.76709 17.5073 9.52785 17.4595 9.30475 17.3667C9.08165 17.274 8.87909 17.138 8.70872 16.9667L8.12538 16.3833C7.78213 16.042 7.3178 15.8503 6.83372 15.85H6.00038C5.51415 15.85 5.04784 15.6568 4.70402 15.313C4.36021 14.9692 4.16705 14.5029 4.16705 14.0167V13.1833C4.16677 12.6993 3.97505 12.2349 3.63372 11.8917L3.05038 11.3083C2.87905 11.138 2.74309 10.9354 2.65031 10.7123C2.55753 10.4892 2.50977 10.25 2.50977 10.0083C2.50977 9.76671 2.55753 9.52747 2.65031 9.30437C2.74309 9.08127 2.87905 8.87871 3.05038 8.70834L3.63372 8.125C3.97505 7.78174 4.16677 7.31742 4.16705 6.83334V6" stroke="#181B28" stroke-opacity="0.7" stroke-width="1.5" stroke-linecap="round" stroke-linejoin="round"/>
</svg>
