<svg width="24" height="24" viewBox="0 0 24 24" fill="none" xmlns="http://www.w3.org/2000/svg">
<path d="M11.8769 2.00001C6.41419 2.00743 2 6.42656 2 11.8893C2 15.0546 3.48871 17.8738 5.80337 19.684L4.87602 20.871C4.77463 21.002 4.8686 21.1924 5.03182 21.19L9.16162 21.1702C9.29021 21.1702 9.38418 21.049 9.35203 20.9254L8.37522 16.9118C8.3664 16.8756 8.34755 16.8427 8.32083 16.8167C8.29411 16.7908 8.26061 16.7729 8.22419 16.7652C8.18777 16.7574 8.14989 16.7601 8.11493 16.7729C8.07996 16.7857 8.04933 16.8082 8.02654 16.8376L7.02006 18.126C6.76782 17.9282 6.52547 17.713 6.29549 17.483C5.57245 16.7625 4.9963 15.9084 4.59905 14.9681C4.18607 13.9937 3.97835 12.9576 3.97835 11.8893C3.97835 10.821 4.18607 9.7848 4.59905 8.81047C4.9972 7.86828 5.56844 7.02254 6.29549 6.2955C7.02253 5.56845 7.86827 4.99721 8.81046 4.59906C9.78727 4.18608 10.8234 3.97836 11.8917 3.97836C12.96 3.97836 13.9962 4.18608 14.9705 4.59906C15.9127 4.99721 16.7585 5.56845 17.4855 6.2955C18.2126 7.02254 18.7838 7.86828 19.1819 8.81047C19.5949 9.7848 19.8027 10.821 19.8027 11.8893C19.8027 12.9576 19.5949 13.9937 19.1819 14.9681C18.7847 15.9084 18.2085 16.7625 17.4855 17.483C17.3 17.6685 17.1072 17.8416 16.9068 18.0073C16.8667 18.0399 16.8411 18.087 16.8355 18.1385C16.83 18.1899 16.8449 18.2414 16.8772 18.2818L17.8515 19.5306C17.9207 19.6172 18.0469 19.632 18.1334 19.5628C20.3615 17.7477 21.7835 14.9854 21.7835 11.8893C21.7835 6.42162 17.347 1.99259 11.8769 2.00001Z" fill="#1D212C"/>
</svg>
