<svg width="375" height="1082" viewBox="0 0 375 1082" fill="none" xmlns="http://www.w3.org/2000/svg">
    <rect width="375" height="1082" fill="#31225D" />
    <mask id="mask0_0_1" style="mask-type:alpha" maskUnits="userSpaceOnUse" x="0" y="0" width="375"
        height="274">
        <rect width="375" height="274" fill="#D9D9D9" />
    </mask>
    <g mask="url(#mask0_0_1)">
        <path
            d="M411.893 111.34L414.383 110.76C408.423 93.97 397.483 80.44 381.583 70.17V70.25C362.313 57.99 341.603 54.26 319.453 59.07C297.253 63.93 279.973 75.97 267.593 95.19C263.723 101.21 260.743 107.34 258.643 113.58C258.313 114.57 257.983 115.51 257.653 116.4L257.733 116.48C253.813 129.57 253.403 143.18 256.493 157.32C256.493 157.54 256.523 157.76 256.573 157.98C258.453 157.87 260.323 157.9 262.203 158.06C262.203 157.73 262.143 157.43 262.033 157.15C262.143 157.2 262.253 157.29 262.363 157.4C261.923 155.96 261.673 155.27 261.613 155.33C258.963 142.52 259.353 130.29 262.773 118.63L291.103 127.91C289.393 134.37 289.203 141.11 290.523 148.12C290.473 149.5 290.743 150.69 291.353 151.68C291.793 153.61 292.403 155.49 293.173 157.31C294.053 156.87 295.023 156.48 296.073 156.15C295.413 154.49 294.833 152.75 294.333 150.93C294.333 149.77 294.083 148.55 293.583 147.28C292.423 140.93 292.613 134.83 294.163 128.97L304.433 132.37C303.553 136.24 303.383 140.1 303.933 143.97C305.093 148.83 305.973 152.01 306.583 153.5C307.303 153.45 308.043 153.42 308.823 153.42C308.103 151.76 307.253 148.81 306.253 144.56C305.593 140.7 305.673 136.91 306.503 133.21L327.383 140C328.593 140.55 329.703 141.08 330.693 141.57C335.723 143.83 339.913 142.67 343.283 138.09C343.613 137.48 343.973 136.88 344.363 136.27L361.513 120.12C364.163 123.38 366.043 127.11 367.143 131.3C367.423 132.35 367.693 133.34 367.973 134.28H370.373C369.983 132.46 369.653 131.32 369.383 130.88C368.063 126.24 365.963 122.15 363.093 118.62L371.043 111.16C375.243 116.07 378.193 121.87 379.903 128.56C379.963 129.11 380.043 129.66 380.153 130.22H383.553C383.333 129.45 383.113 128.65 382.893 127.82C381.123 120.64 377.893 114.37 373.203 109.02L394.993 88.48C401.123 95.33 405.843 103.2 409.163 112.09C410.103 111.81 411.013 111.57 411.893 111.35M317.953 65.04L324.333 94.28C317.763 96.05 311.993 98.95 307.023 102.98L287.883 80.2V80.03C296.443 72.85 306.463 67.85 317.953 65.04ZM327.813 93.45L321.433 64.29C334.133 61.58 346.363 61.91 358.133 65.28L358.053 65.36L349.773 94.02C342.813 92.09 335.493 91.89 327.823 93.44M378.773 74.8L378.693 74.88C383.833 78.14 388.413 81.81 392.443 85.9L370.823 106.28C368.453 103.96 365.743 101.86 362.703 99.98H362.623C359.533 97.94 356.353 96.36 353.093 95.26L361.543 66.43C367.343 68.42 373.083 71.21 378.773 74.8ZM328.403 96.42C335.583 94.98 342.403 95.2 348.863 97.08L345.793 107.52C340.993 106.2 335.963 106 330.713 106.94L328.393 96.42M306.353 107.77L313.473 116.05C311.873 117.76 310.353 119.67 308.913 121.77C307.473 124.15 306.373 126.57 305.603 129.06L295.163 125.58C296.273 122.27 297.813 119.01 299.803 115.81V115.73C301.793 112.75 303.973 110.1 306.343 107.78M307.583 129.73C308.353 127.41 309.403 125.17 310.733 123.02L310.903 122.94C312.063 121.06 313.413 119.35 314.963 117.8L331.613 137.76L307.593 129.73M297.233 114.16C295.083 117.53 293.363 121.01 292.093 124.6L263.843 115.16C265.833 109.31 268.593 103.59 272.123 98.01H272.203C275.963 92.1 280.263 86.94 285.123 82.52L304.343 105.47C301.693 107.9 299.313 110.8 297.223 114.17M360.923 102.49V102.57C363.743 104.34 366.253 106.3 368.463 108.45L360.593 115.91C358.993 114.42 357.193 113.01 355.213 111.69C353.283 110.42 351.293 109.4 349.253 108.62L352.323 98.27C355.253 99.26 358.123 100.67 360.933 102.49M348.593 110.77C350.473 111.54 352.293 112.45 354.063 113.5V113.58C355.883 114.74 357.543 116.06 359.033 117.56L342.133 133.63L348.593 110.77ZM327.303 107.87C323.053 109.2 319.353 111.13 316.203 113.67L308.993 105.47C313.633 101.6 318.963 98.9 324.983 97.35L327.303 107.87ZM317.613 115.41C320.543 113.03 323.913 111.24 327.723 110.02L332.943 133.55L317.623 115.41M337.423 137.11L331.293 109.19C336.153 108.25 340.793 108.39 345.213 109.6L337.423 137.1"
            fill="#DF2A57" />
        <path
            d="M428.003 97.82C428.003 97.82 292.863 101.1 253.293 157.57L265.613 167.34L423.343 122.72L428.013 97.82H428.003Z"
            fill="#31225D" />
        <path
            d="M251.083 93.66C250.743 92.19 249.923 91.06 248.633 90.25C247.343 89.45 245.963 89.21 244.503 89.55C243.033 89.89 241.903 90.71 241.093 92C240.293 93.29 240.053 94.67 240.393 96.13C240.733 97.6 241.553 98.73 242.843 99.54C244.133 100.34 245.513 100.58 246.983 100.24C248.453 99.9 249.583 99.08 250.393 97.79C251.193 96.5 251.433 95.12 251.093 93.65"
            fill="#FB8636" />
        <path
            d="M251.494 56.88L255.344 66.05L248.104 72.83L257.614 71.29L262.053 81.85L264.314 70.46L275.324 68.83L265.583 63.94L267.414 54.71L260.384 61.24L251.494 56.88Z"
            fill="#FB8636" />
        <path
            d="M284.023 44.96L286.673 51.23L281.673 55.97L288.233 54.84L291.323 62.14L292.873 54.3L300.443 53.2L293.753 49.79L294.983 43.41L290.143 47.91L284.023 44.96Z"
            fill="#FB8636" />
        <path
            d="M325.863 124.63H324.113C323.773 125.18 323.393 125.76 322.983 126.38C322.843 126.86 322.713 127.34 322.573 127.82C322.503 127.82 322.473 127.85 322.473 127.92C322.403 128.06 322.333 128.19 322.263 128.33C322.263 128.47 322.233 128.61 322.163 128.74V129.15C322.093 129.29 322.063 129.42 322.063 129.56V181.85C321.993 182.06 321.923 182.26 321.853 182.47V210.47C319.113 209.51 315.813 208.38 311.973 207.07C304.013 204.12 296.433 200.41 289.223 195.95C255.463 174.33 255.013 154.47 287.883 136.35C312.113 124.89 337.433 116.48 363.853 111.13C391.643 105.43 419.543 103.27 447.543 104.65C454.613 104.93 458.903 103.38 460.413 100.02C447.713 99.33 438.283 98.92 432.103 98.79C405.403 98.31 379.603 100.71 354.693 106C328.483 111.63 304.153 120.24 281.713 131.84C278.693 133.42 275.643 135.2 272.553 137.19C269.533 139.11 265.823 142.03 261.433 145.94C257.113 149.78 254.403 153.66 253.303 157.57C252.273 161.48 252.373 165.39 253.613 169.3C254.873 173.01 256.193 176.94 258.753 179.96C262.023 183.81 265.923 187.07 269.793 190.3C277.423 196.67 285.103 203.08 293.713 208.11C302.623 213.31 312.223 217.55 321.853 221.19C321.853 221.26 327.723 223.8 327.723 223.66V223.45C331.973 225.1 337.393 228.32 343.983 233.13C350.713 237.93 355.613 243.94 358.703 251.14C361.863 258.28 364.333 261.43 366.113 260.61C366.133 260.63 369.473 257.44 365.903 246.1C364.183 240.4 361.823 235.74 358.803 232.1C355.783 228.39 351.153 224.69 344.903 220.98C338.723 217.2 332.993 214.39 327.713 212.54V129.37C327.643 129.16 327.573 128.99 327.503 128.85V128.44C327.503 128.3 327.473 128.17 327.403 128.03C327.333 127.89 327.303 127.75 327.303 127.62C327.163 127.55 327.063 127.48 326.993 127.41V126.38L326.373 125.14L325.863 124.63ZM363.953 117.84C363.613 117.91 363.233 118.01 362.823 118.15C362.613 118.29 362.373 118.42 362.103 118.56C362.033 118.7 361.933 118.83 361.793 118.97C361.723 119.11 361.653 119.25 361.583 119.38C361.513 119.52 361.443 119.65 361.373 119.79C361.373 119.93 361.343 120.06 361.273 120.2C361.273 120.34 361.273 120.51 361.273 120.72C361.203 120.86 361.133 121 361.063 121.13V174.25C361.063 174.39 361.023 174.52 360.963 174.66V223.97C361.033 224.11 361.063 224.24 361.063 224.38V224.79C361.133 224.93 361.203 225.07 361.273 225.2C361.343 225.34 361.373 225.48 361.373 225.61C361.513 225.75 361.613 225.92 361.683 226.12C361.753 226.26 361.853 226.39 361.993 226.53C362.203 226.67 362.373 226.81 362.513 226.94C362.723 227.01 362.923 227.11 363.133 227.25C363.403 227.25 363.683 227.28 363.953 227.35C364.363 227.28 364.743 227.18 365.083 227.04C365.293 226.9 365.533 226.77 365.803 226.63C365.943 226.49 366.073 226.36 366.213 226.22C366.283 226.08 366.383 225.94 366.523 225.81C366.593 225.67 366.693 225.53 366.833 225.4V224.99C366.833 224.78 366.863 224.61 366.933 224.48V174.35C366.863 174.21 366.833 174.07 366.833 173.94V120.83C366.763 120.69 366.693 120.56 366.623 120.42V120.01C366.553 119.87 366.523 119.73 366.523 119.6C366.453 119.39 366.383 119.22 366.313 119.09C366.173 118.95 366.043 118.82 365.903 118.68C365.763 118.54 365.593 118.41 365.383 118.27C365.173 118.2 364.973 118.1 364.763 117.96H363.943V117.86L363.953 117.84Z"
            fill="#239DD2" />
    </g>
</svg>
    