<svg width="24" height="25" viewBox="0 0 24 25" fill="none" xmlns="http://www.w3.org/2000/svg">
<path d="M2.15 4.81759C1.99866 4.81778 1.84733 4.81878 1.696 4.82059C1.546 4.82559 1.393 4.83359 1.244 4.86059C1.01882 4.89618 0.805306 4.98472 0.621024 5.11893C0.436743 5.25314 0.286961 5.42919 0.184 5.63259C0.114 5.77059 0.07 5.91059 0.044 6.06259C0.016 6.21059 0.007 6.36259 0.004 6.51259C0.00195281 6.58224 0.000619407 6.65191 0 6.72159L0 18.2786C0 18.3486 0.002 18.4166 0.003 18.4856C0.007 18.6356 0.016 18.7886 0.043 18.9376C0.07 19.0876 0.115 19.2286 0.185 19.3666C0.322895 19.6381 0.543517 19.8587 0.815 19.9966C0.953 20.0666 1.093 20.1116 1.245 20.1386C1.393 20.1656 1.545 20.1746 1.695 20.1786L1.903 20.1816H22.097L22.304 20.1786C22.454 20.1746 22.607 20.1656 22.756 20.1386C22.906 20.1116 23.047 20.0676 23.184 19.9976C23.4562 19.8598 23.6772 19.6388 23.815 19.3666C23.885 19.2286 23.93 19.0886 23.956 18.9366C23.983 18.7886 23.992 18.6366 23.996 18.4866C23.998 18.4166 23.999 18.3486 23.999 18.2786L24 18.0326V6.72059C24 6.65059 23.998 6.58259 23.996 6.51359C23.9941 6.36213 23.9807 6.21103 23.956 6.06159C23.9082 5.76045 23.7663 5.48214 23.5508 5.26644C23.3353 5.05074 23.0571 4.90869 22.756 4.86059C22.6065 4.83595 22.4555 4.82258 22.304 4.82059C22.153 4.81632 22.002 4.81532 21.851 4.81759H2.15Z" fill="#EBEBEB"/>
<path d="M7.54534 17.4205V16.7587C7.54534 16.5049 7.37723 16.3395 7.08908 16.3395C6.94504 16.3395 6.78896 16.3836 6.68089 16.527C6.59689 16.4056 6.47686 16.3395 6.29677 16.3395C6.17668 16.3395 6.05669 16.3725 5.96061 16.4939V16.3615H5.7085V17.4205H5.96061V16.8359C5.96061 16.6484 6.06867 16.5601 6.23678 16.5601C6.40478 16.5601 6.48889 16.6594 6.48889 16.8359V17.4205H6.741V16.8359C6.741 16.6484 6.86098 16.5601 7.01706 16.5601C7.18517 16.5601 7.26917 16.6594 7.26917 16.8359V17.4205H7.54534ZM11.2789 16.3615H10.8708V16.0416H10.6187V16.3615H10.3906V16.5711H10.6186V17.0565C10.6186 17.2992 10.7267 17.4426 11.0148 17.4426C11.1229 17.4426 11.2429 17.4095 11.327 17.3654L11.2549 17.1668C11.1829 17.2109 11.0989 17.222 11.0388 17.222C10.9188 17.222 10.8708 17.1558 10.8708 17.0454V16.5711H11.2789V16.3615ZM13.4159 16.3394C13.2718 16.3394 13.1758 16.4056 13.1158 16.4939V16.3615H12.8636V17.4205H13.1158V16.8248C13.1158 16.6484 13.1998 16.5491 13.3558 16.5491C13.4038 16.5491 13.4639 16.5601 13.5119 16.5711L13.5839 16.3505C13.5359 16.3395 13.4639 16.3394 13.4159 16.3394ZM10.1865 16.4498C10.0664 16.3726 9.89832 16.3395 9.71824 16.3395C9.43014 16.3395 9.23808 16.4719 9.23808 16.6815C9.23808 16.858 9.38213 16.9573 9.63424 16.9904L9.75428 17.0014C9.88635 17.0234 9.95837 17.0566 9.95837 17.1117C9.95837 17.1889 9.86234 17.2441 9.69423 17.2441C9.52618 17.2441 9.39411 17.1889 9.31005 17.1338L9.19001 17.3103C9.32208 17.3985 9.50217 17.4426 9.6822 17.4426C10.0184 17.4426 10.2105 17.2993 10.2105 17.1007C10.2105 16.9131 10.0544 16.8138 9.81427 16.7808L9.69423 16.7697C9.58617 16.7587 9.50217 16.7367 9.50217 16.6705C9.50217 16.5932 9.58617 16.5491 9.71824 16.5491C9.86234 16.5491 10.0064 16.6042 10.0784 16.6374L10.1865 16.4498ZM16.8854 16.3395C16.7413 16.3395 16.6453 16.4057 16.5852 16.4939V16.3616H16.3331V17.4206H16.5852V16.8249C16.5852 16.6484 16.6693 16.5491 16.8253 16.5491C16.8734 16.5491 16.9334 16.5602 16.9814 16.5712L17.0535 16.3506C17.0055 16.3395 16.9334 16.3395 16.8854 16.3395ZM13.668 16.8911C13.668 17.211 13.9081 17.4426 14.2803 17.4426C14.4483 17.4426 14.5684 17.4096 14.6884 17.3213L14.5684 17.1338C14.4723 17.2 14.3763 17.233 14.2682 17.233C14.0641 17.233 13.9201 17.1007 13.9201 16.8911C13.9201 16.6925 14.0641 16.5601 14.2682 16.5491C14.3763 16.5491 14.4723 16.5822 14.5684 16.6484L14.6884 16.4609C14.5684 16.3726 14.4483 16.3395 14.2803 16.3395C13.9081 16.3395 13.668 16.5712 13.668 16.8911ZM15.997 16.8911V16.3616H15.7449V16.4939C15.6609 16.3947 15.5408 16.3395 15.3847 16.3395C15.0606 16.3395 14.8085 16.5712 14.8085 16.8911C14.8085 17.211 15.0606 17.4426 15.3847 17.4426C15.5528 17.4426 15.6729 17.3875 15.7449 17.2882V17.4206H15.997V16.8911ZM15.0726 16.8911C15.0726 16.7035 15.2047 16.5491 15.4207 16.5491C15.6248 16.5491 15.7689 16.6925 15.7689 16.8911C15.7689 17.0786 15.6248 17.233 15.4207 17.233C15.2047 17.222 15.0726 17.0786 15.0726 16.8911ZM12.0593 16.3395C11.7231 16.3395 11.483 16.5601 11.483 16.8911C11.483 17.222 11.7231 17.4426 12.0713 17.4426C12.2393 17.4426 12.4074 17.3985 12.5395 17.2993L12.4194 17.1338C12.3234 17.2 12.2033 17.2441 12.0833 17.2441C11.9272 17.2441 11.7712 17.1779 11.7351 16.9903H12.5875V16.9021C12.5996 16.5601 12.3835 16.3395 12.0593 16.3395ZM12.0592 16.5381C12.2153 16.5381 12.3234 16.6264 12.3473 16.7918H11.7471C11.7711 16.6484 11.8792 16.5381 12.0592 16.5381ZM18.314 16.8911V15.9424H18.0619V16.4939C17.9778 16.3947 17.8578 16.3395 17.7017 16.3395C17.3776 16.3395 17.1254 16.5712 17.1254 16.8911C17.1254 17.211 17.3776 17.4426 17.7017 17.4426C17.8698 17.4426 17.9898 17.3875 18.0619 17.2882V17.4206H18.314V16.8911ZM17.3896 16.8911C17.3896 16.7035 17.5216 16.5491 17.7377 16.5491C17.9418 16.5491 18.0859 16.6925 18.0859 16.8911C18.0859 17.0786 17.9418 17.233 17.7377 17.233C17.5216 17.222 17.3896 17.0786 17.3896 16.8911ZM8.96186 16.8911V16.3616H8.70975V16.4939C8.62569 16.3947 8.50565 16.3395 8.34957 16.3395C8.02544 16.3395 7.77333 16.5712 7.77333 16.8911C7.77333 17.211 8.02544 17.4426 8.34957 17.4426C8.51768 17.4426 8.63772 17.3875 8.70975 17.2882V17.4206H8.96186V16.8911ZM8.02544 16.8911C8.02544 16.7035 8.15751 16.5491 8.37358 16.5491C8.57768 16.5491 8.72178 16.6925 8.72178 16.8911C8.72178 17.0786 8.57768 17.233 8.37358 17.233C8.15751 17.222 8.02544 17.0786 8.02544 16.8911Z" fill="#575757"/>
<path d="M9.98682 7.84961H13.7685V14.0934H9.98682V7.84961Z" fill="#FF5F00"/>
<path d="M10.3424 10.9713C10.3424 9.70271 10.9906 8.57749 11.987 7.8494C11.2548 7.3199 10.3304 7 9.32195 7C6.93282 7 5 8.77603 5 10.9713C5 13.1665 6.93282 14.9426 9.3219 14.9426C10.3303 14.9426 11.2547 14.6227 11.987 14.0932C10.9906 13.3761 10.3424 12.2399 10.3424 10.9713Z" fill="#EB001B"/>
<path d="M18.7556 10.9713C18.7556 13.1665 16.8228 14.9426 14.4337 14.9426C13.4253 14.9426 12.5009 14.6227 11.7686 14.0932C12.777 13.3651 13.4133 12.2399 13.4133 10.9713C13.4133 9.70271 12.765 8.57749 11.7686 7.8494C12.5008 7.3199 13.4253 7 14.4337 7C16.8228 7 18.7556 8.78709 18.7556 10.9713Z" fill="#F79E1B"/>
</svg>
