<svg width="24" height="11" viewBox="0 0 24 11" fill="none" xmlns="http://www.w3.org/2000/svg">
  <defs>
    <linearGradient id="grad1" x1="0%" y1="50%" x2="100%" y2="50%">
      <stop offset="0" style="stop-color:#CCA3B7"/>
      <stop offset="0.9667" style="stop-color:#EDA674"/>
    </linearGradient>
  </defs>
<path d="M23.5272 8.84243L20.7521 5.44156L23.4728 2.1087C23.6216 1.92638 23.7154 1.70541 23.7431 1.4717C23.7708 1.23799 23.7313 1.00123 23.6292 0.789165C23.5259 0.55147 23.3544 0.349701 23.1366 0.209291C22.9187 0.0688803 22.6641 -0.00388669 22.4049 0.000162758H1.31954C1.14893 -0.00253803 0.979457 0.0283973 0.820804 0.0912015C0.662151 0.154006 0.517424 0.247449 0.39489 0.366194C0.272355 0.484939 0.174413 0.626659 0.106657 0.783261C0.0389009 0.939863 0.0026587 1.10828 0 1.27889L0 9.61102C0.00714913 9.9544 0.149979 10.281 0.397255 10.5193C0.644531 10.7577 0.976131 10.8884 1.31954 10.8829H22.4798C22.7303 10.8871 22.9767 10.8196 23.19 10.6882C23.4034 10.5568 23.5747 10.3671 23.6837 10.1416C23.7815 9.93202 23.8188 9.69925 23.7911 9.46963C23.7635 9.24002 23.672 9.02274 23.5272 8.84243ZM1.36035 9.5226V1.36051H22.2961L19.0041 5.39394L22.3437 9.5226H1.36035Z" fill="#181B28" fill-opacity="0.7"/>
<path d="M6.38684 6.36012L4.16948 3.40137H3.40088V7.60484H4.16948V4.65289L6.38684 7.60484H7.14864V3.40137H6.38684V6.36012Z" fill="#181B28" fill-opacity="0.7"/>
<path d="M8.28491 7.60484H11.4545V6.91107H9.05351V5.81598H11.2233V5.11541H9.05351V4.10195H11.4545V3.40137H8.28491V7.60484Z" fill="#181B28" fill-opacity="0.7"/>
<path d="M16.6778 6.41454L15.6847 3.40137H14.8549L13.8551 6.41454L12.9572 3.40137H12.1206L13.4537 7.60484H14.2087L15.2698 4.48284L16.3241 7.60484H17.0927L18.419 3.40137H17.5824L16.6778 6.41454Z" fill="#181B28" fill-opacity="0.7"/>
</svg>
