<svg width="286" height="216" viewBox="0 0 286 216" fill="none" xmlns="http://www.w3.org/2000/svg">
<g clip-path="url(#clip0_1_2022)">
<path opacity="0.24" d="M272.259 163.931C272.127 165.329 271.879 166.712 271.517 168.069C270.685 171.202 269.427 174.207 267.779 176.999C258.235 193.644 239.546 203.283 220.738 207.216C201.93 211.148 182.514 210.293 163.325 211.172C137.408 212.347 111.557 216.693 85.6395 215.271C73.3527 214.589 61.1719 212.616 49.2981 209.384C-7.94371 209.384 20.0423 121.969 23.3331 88.8279C24.7598 74.5614 26.4147 59.5864 34.5608 47.7738C44.2002 33.8069 61.2676 26.8497 77.9641 23.8062C94.6607 20.7626 111.842 20.9529 128.448 17.4481C155.555 11.7415 181.8 -3.60447 209.168 0.770581C236.013 5.05052 257.798 30.6208 257.783 57.8079C257.783 76.8916 249.124 95.8518 254.093 114.874C258.416 131.37 273.923 145.979 272.259 163.931Z" fill="#AFD8ED"/>
<path opacity="0.24" d="M271.517 168.069C270.685 171.202 269.427 174.207 267.779 176.999C258.235 193.644 239.546 203.283 220.738 207.216C201.93 211.149 182.513 210.293 163.325 211.172C137.408 212.347 111.557 216.693 85.6394 215.272C73.3526 214.589 61.1718 212.616 49.298 209.384C41.342 207.216 24.9023 204.391 20.0898 197.02C17.0795 192.421 16.585 183.805 16.4851 176.543C18.2874 176.828 20.0755 177.256 21.6448 177.404C26.971 177.917 32.3637 177.951 37.7041 178.117C49.0158 178.478 60.3354 178.721 71.663 178.845C116.751 179.323 161.806 177.84 206.828 174.393C228.428 172.732 249.991 170.624 271.517 168.069Z" fill="#AFD8ED"/>
<path d="M158.332 112.933H145.606V191.413H158.332V112.933Z" fill="#AFD8ED"/>
<path d="M158.332 112.933H145.606V191.413H158.332V112.933Z" fill="url(#paint0_linear_1_2022)"/>
<path d="M188.248 88.8326V119.934H101.057V88.8326C101.067 84.5368 102.782 80.4208 105.825 77.389C108.869 74.3572 112.991 72.6577 117.287 72.664H172.023C176.317 72.6627 180.436 74.364 183.477 77.3948C186.519 80.4257 188.235 84.5388 188.248 88.8326Z" fill="#AFD8ED"/>
<path d="M117.354 75.3462C119.199 75.3456 121.027 75.7088 122.732 76.4152C124.437 77.1216 125.986 78.1573 127.29 79.4629C128.594 80.7686 129.628 82.3186 130.333 84.0243C131.038 85.73 131.399 87.5579 131.396 89.4034V119.791H103.339V89.4034C103.334 85.6811 104.808 82.1091 107.436 79.473C110.064 76.8369 113.631 75.3525 117.354 75.3462Z" fill="url(#paint1_linear_1_2022)"/>
<path d="M188.253 88.8324V119.933H134.516V87.0205C132.914 78.4179 126.86 74.4661 121.881 72.6447H172.027C176.325 72.6422 180.448 74.3456 183.49 77.3809C186.532 80.4161 188.246 84.5349 188.253 88.8324Z" fill="url(#paint2_linear_1_2022)"/>
<path d="M132.3 115.478H75.296C74.0642 115.478 73.0657 116.476 73.0657 117.708V117.713C73.0657 118.944 74.0642 119.943 75.296 119.943H132.3C133.532 119.943 134.53 118.944 134.53 117.713V117.708C134.53 116.476 133.532 115.478 132.3 115.478Z" fill="#AFD8ED"/>
<path d="M132.3 115.478H75.296C74.0642 115.478 73.0657 116.476 73.0657 117.708V117.713C73.0657 118.944 74.0642 119.943 75.296 119.943H132.3C133.532 119.943 134.53 118.944 134.53 117.713V117.708C134.53 116.476 133.532 115.478 132.3 115.478Z" fill="url(#paint3_linear_1_2022)"/>
<path opacity="0.24" d="M118.257 184.532C110.853 185.854 103.515 187.571 96.0159 188.294C91.1558 188.769 85.7916 189.012 82.2631 192.393C81.4248 193.109 80.87 194.1 80.6985 195.189C80.494 197.529 82.9431 199.16 85.1259 200.021C91.503 202.541 98.4412 203.264 105.28 203.702C116.431 204.41 127.63 204.42 138.782 204.429L172.07 204.462C181.895 204.462 192.804 204.063 199.842 197.206C201.236 195.85 202.463 194.176 202.696 192.246C203.086 189.116 200.713 186.178 197.845 184.87C192.88 182.601 185.452 183.072 180.041 182.492C173.007 181.712 165.931 181.284 158.855 181.199C145.248 181.033 131.655 182.149 118.257 184.532Z" fill="#AFD8ED"/>
<path d="M164.809 93.6165C164.69 94.0113 164.333 95.2239 164.233 95.6567L163.044 100.06C162.993 100.254 162.965 100.454 162.964 100.655C162.963 100.721 162.977 100.786 163.003 100.847C163.03 100.908 163.069 100.962 163.118 101.007C163.167 101.052 163.224 101.086 163.287 101.107C163.35 101.128 163.416 101.136 163.482 101.13C163.943 101.094 164.381 100.913 164.733 100.612C165.684 99.8605 166.335 98.3911 166.335 96.8645C166.357 96.012 166.159 95.1683 165.76 94.4146C165.361 93.6608 164.774 93.0225 164.057 92.5608C162.968 91.9747 161.742 91.6876 160.505 91.7286C156.32 91.7286 153.372 94.5011 153.372 98.4291C153.372 102.233 156.006 104.74 159.996 104.74C161.023 104.74 162.045 104.593 163.03 104.302C163.816 104.058 164.564 103.705 165.251 103.251L166.464 104.996C165.698 105.501 164.861 105.889 163.981 106.147C162.62 106.569 161.203 106.784 159.777 106.784C156.981 106.784 154.798 105.99 153.229 104.407C152.483 103.633 151.897 102.72 151.504 101.72C151.112 100.719 150.921 99.651 150.942 98.5765C150.913 97.4371 151.111 96.3034 151.526 95.2418C151.941 94.1802 152.564 93.2121 153.358 92.3944C155.184 90.5683 157.585 89.6743 160.657 89.6743C165.28 89.6743 168.575 92.6512 168.575 96.8075C168.588 97.6901 168.427 98.5667 168.101 99.3869C167.774 100.207 167.289 100.955 166.673 101.587C165.698 102.595 164.366 103.18 162.964 103.213C162.637 103.238 162.31 103.18 162.012 103.046C161.713 102.911 161.454 102.704 161.256 102.443C161.151 102.253 161.089 102.041 161.076 101.825C160.764 102.229 160.36 102.553 159.898 102.771C159.435 102.988 158.928 103.093 158.417 103.075C156.453 103.075 155.203 101.606 155.203 99.3469C155.203 96.0181 157.409 93.2171 160.044 93.2171C161.157 93.2171 161.713 93.4929 162.246 94.3299L162.445 93.6356L164.809 93.6165ZM160.724 99.5086C161.206 98.5586 161.477 97.5155 161.518 96.4508C161.518 95.6376 161.042 95.0812 160.367 95.0812C159.692 95.0812 158.917 95.5806 158.422 96.5079C157.936 97.4259 157.665 98.4421 157.628 99.4801C157.628 100.531 158.027 101.087 158.779 101.087C159.53 101.087 160.205 100.517 160.724 99.5086Z" fill="#AFD8ED"/>
<path d="M107.453 93.4168C99.1451 93.4168 91.094 90.8964 84.8406 86.2503C83.2141 85.0619 81.7497 83.6663 80.4845 82.0988C78.1062 81.8327 75.8155 81.0469 73.7745 79.7971C70.8244 78.0406 68.3682 75.5643 66.6359 72.5999C64.9036 69.6356 63.9518 66.2801 63.8696 62.8477C63.7874 59.4152 64.5775 56.0181 66.1659 52.9742C67.7544 49.9303 70.0892 47.3392 72.9518 45.4435L73.8649 46.8226C71.2355 48.5631 69.0909 50.9425 67.6318 53.7379C66.1728 56.5332 65.447 59.6532 65.5226 62.8055C65.5982 65.9579 66.4725 69.0395 68.0638 71.7618C69.6551 74.4841 71.9113 76.7579 74.621 78.3705C76.0425 79.2309 77.5938 79.8556 79.2148 80.2204C78.2577 78.6118 77.694 76.7999 77.5694 74.9323C77.5266 73.5481 77.7919 72.1717 78.3463 70.9027C78.9006 69.6337 79.73 68.5037 80.7746 67.5946C81.472 66.9202 82.3133 66.4128 83.2351 66.1105C84.157 65.8083 85.1354 65.719 86.0967 65.8495C87.058 65.9799 87.9772 66.3267 88.7851 66.8637C89.5931 67.4008 90.2687 68.114 90.7611 68.9499C91.8926 70.6733 92.296 72.7744 91.8834 74.7944C91.1178 78.2801 88.003 81.1477 84.1272 81.9276C83.6561 82.0218 83.1797 82.0869 82.7006 82.1226C83.6604 83.1491 84.7126 84.0851 85.844 84.9188C92.9011 90.1498 102.374 92.5656 111.823 91.5147L112.004 93.1601C110.493 93.3314 108.974 93.4171 107.453 93.4168ZM81.3548 80.5009C82.1693 80.5245 82.9839 80.4607 83.7848 80.3107C86.9758 79.6687 89.6293 77.2625 90.2475 74.452C90.5594 72.8627 90.2387 71.2145 89.3535 69.8582C88.9906 69.2222 88.4856 68.6787 87.8781 68.27C87.2706 67.8612 86.5769 67.5983 85.8511 67.5016C85.1253 67.405 84.387 67.4772 83.6937 67.7128C83.0004 67.9483 82.3708 68.3407 81.8541 68.8595C80.9974 69.5988 80.3164 70.5198 79.8606 71.5555C79.4049 72.5913 79.1859 73.7156 79.2196 74.8467C79.381 76.8957 80.1215 78.8567 81.3548 80.5009Z" fill="white"/>
<path d="M79.9328 42.0433C80.6551 39.7158 82.1824 37.7215 84.2413 36.4176C86.8378 34.815 90.024 34.5724 93.0675 34.368C92.2567 35.0221 91.7302 35.9644 91.598 36.9977C91.4126 38.0154 91.4316 39.0616 91.2746 40.084C90.894 42.1916 89.7974 44.1031 88.1702 45.4955C86.543 46.8879 84.4849 47.6759 82.3438 47.7261C81.9396 45.5433 83.4899 43.5318 84.9451 41.8531C84.107 42.0995 83.353 42.572 82.7658 43.2188C82.1785 43.8656 81.7808 44.6616 81.6163 45.5196C81.5574 46.238 81.4574 46.9525 81.3167 47.6595C81.1835 48.1018 80.5891 49.1718 79.9804 48.9435C79.5381 48.7771 79.5048 47.1602 79.4525 46.756C79.2949 45.1688 79.4582 43.5661 79.9328 42.0433Z" fill="#AFD8ED"/>
<path d="M56.3694 51.8584C56.4129 53.0316 56.5722 54.1976 56.8449 55.3394C57.1207 56.4858 57.7296 57.5249 58.595 58.3259C59.2004 58.751 59.7815 59.2098 60.3355 59.7002C60.3666 59.7452 60.4117 59.7787 60.4639 59.7953C61.0107 59.938 61.5434 57.7647 61.5338 57.389C61.4252 56.5635 61.1309 55.7733 60.6731 55.0779C60.2359 54.2583 59.6237 53.545 58.8799 52.9886C58.1362 52.4323 57.279 52.0464 56.3694 51.8584Z" fill="#AFD8ED"/>
</g>
<defs>
<linearGradient id="paint0_linear_1_2022" x1="152.302" y1="181.146" x2="151.346" y2="97.4681" gradientUnits="userSpaceOnUse">
<stop stop-color="#010101" stop-opacity="0"/>
<stop offset="0.95" stop-color="#010101"/>
</linearGradient>
<linearGradient id="paint1_linear_1_2022" x1="103.315" y1="97.5591" x2="131.396" y2="97.5591" gradientUnits="userSpaceOnUse">
<stop stop-color="#010101" stop-opacity="0"/>
<stop offset="0.95" stop-color="#010101"/>
</linearGradient>
<linearGradient id="paint2_linear_1_2022" x1="156.506" y1="71.9457" x2="151.417" y2="158.462" gradientUnits="userSpaceOnUse">
<stop stop-color="#010101" stop-opacity="0"/>
<stop offset="0.95" stop-color="#010101"/>
</linearGradient>
<linearGradient id="paint3_linear_1_2022" x1="103.482" y1="112.363" x2="104.119" y2="123.181" gradientUnits="userSpaceOnUse">
<stop stop-color="#010101" stop-opacity="0"/>
<stop offset="0.95" stop-color="#010101"/>
</linearGradient>
<clipPath id="clip0_1_2022">
<rect width="286" height="215.557" fill="white"/>
</clipPath>
</defs>
</svg>
