<svg width="41" height="40" viewBox="0 0 41 40" fill="none" xmlns="http://www.w3.org/2000/svg">
<rect x="0.5" width="40" height="40" rx="20" fill="#EDA674" fill-opacity="0.2"/>
<path d="M16.1869 14.5091C16.068 14.5091 15.9516 14.4751 15.8514 14.4112C15.7511 14.3473 15.6712 14.2561 15.6209 14.1484C15.5707 14.0406 15.5522 13.9208 15.5676 13.8029C15.5831 13.6851 15.6318 13.574 15.7081 13.4829C15.7822 13.3941 15.8591 13.3073 15.9384 13.2229C15.9946 13.163 16.062 13.1148 16.1367 13.081C16.2115 13.0471 16.2922 13.0284 16.3743 13.0257C16.4563 13.0231 16.5381 13.0366 16.6149 13.0656C16.6917 13.0945 16.762 13.1383 16.8219 13.1945C16.8818 13.2506 16.93 13.318 16.9638 13.3928C16.9976 13.4675 17.0164 13.5483 17.0191 13.6303C17.0217 13.7123 17.0082 13.7941 16.9792 13.8709C16.9503 13.9477 16.9065 14.018 16.8503 14.0779C16.7869 14.1454 16.7259 14.2148 16.6663 14.2854C16.6077 14.3556 16.5344 14.4121 16.4515 14.4508C16.3687 14.4894 16.2783 14.5094 16.1869 14.5091Z" fill="url(#paint0_linear_144_1962)"/>
<path d="M26.1247 18.1202C25.9589 18.1202 25.8 18.0544 25.6828 17.9372C25.5655 17.82 25.4997 17.661 25.4997 17.4952C25.4989 16.6919 25.305 15.9006 24.9343 15.1879C24.5636 14.4752 24.027 13.8621 23.3697 13.4002C21.8534 12.3356 19.8125 12.2065 18.1697 13.0715C18.0234 13.1453 17.8539 13.1588 17.6978 13.1089C17.5417 13.0589 17.4114 12.9497 17.335 12.8047C17.2587 12.6596 17.2424 12.4904 17.2896 12.3335C17.3368 12.1765 17.4438 12.0444 17.5875 11.9656C19.6403 10.884 22.1922 11.0462 24.0881 12.3774C24.9096 12.9546 25.5802 13.7209 26.0435 14.6116C26.5068 15.5023 26.7491 16.4913 26.75 17.4952C26.75 17.5774 26.7338 17.6586 26.7024 17.7345C26.671 17.8103 26.6249 17.8793 26.5668 17.9373C26.5088 17.9953 26.4398 18.0414 26.364 18.0728C26.2881 18.1042 26.2068 18.1203 26.1247 18.1202ZM14.8747 18.1202C14.7089 18.1202 14.55 18.0544 14.4328 17.9372C14.3155 17.82 14.2497 17.661 14.2497 17.4952C14.2497 16.7331 14.3872 15.9846 14.6588 15.2715C14.6869 15.1934 14.7303 15.1216 14.7864 15.0605C14.8426 14.9993 14.9103 14.9499 14.9858 14.9152C15.0612 14.8805 15.1428 14.8612 15.2258 14.8584C15.3088 14.8556 15.3915 14.8694 15.4691 14.8989C15.5467 14.9284 15.6176 14.9731 15.6778 15.0304C15.7379 15.0876 15.786 15.1563 15.8194 15.2323C15.8527 15.3084 15.8705 15.3903 15.8718 15.4734C15.8731 15.5564 15.8578 15.6388 15.8269 15.7159C15.6104 16.2841 15.4995 16.8871 15.4997 17.4952C15.4997 17.661 15.4338 17.82 15.3166 17.9372C15.1994 18.0544 15.0405 18.1202 14.8747 18.1202ZM26.1247 25.6202C25.9589 25.6202 25.8 25.5544 25.6828 25.4372C25.5655 25.32 25.4997 25.161 25.4997 24.9952C25.4997 24.8295 25.5655 24.6705 25.6828 24.5533C25.8 24.4361 25.9589 24.3702 26.1247 24.3702C26.7397 24.3702 27.1197 23.9493 27.27 23.5556C27.4197 23.1637 27.4166 22.5987 26.9581 22.1887C26.897 22.134 26.8472 22.0678 26.8116 21.9938C26.776 21.9199 26.7554 21.8396 26.7508 21.7577C26.7462 21.6758 26.7578 21.5937 26.785 21.5163C26.8121 21.4389 26.8542 21.3675 26.9089 21.3063C26.9636 21.2452 27.0298 21.1954 27.1038 21.1598C27.1777 21.1242 27.258 21.1036 27.3399 21.099C27.4218 21.0944 27.5039 21.106 27.5813 21.1332C27.6587 21.1603 27.7301 21.2024 27.7913 21.2571C28.5588 21.9434 28.8125 23.0209 28.4375 24.0015C28.0619 24.9849 27.1541 25.6202 26.1247 25.6202Z" fill="#1D212C"/>
<path d="M26.1247 19.5536C25.9589 19.5536 25.8 19.4877 25.6828 19.3705C25.5655 19.2533 25.4997 19.0944 25.4997 18.9286V17.4961C25.4997 17.3303 25.5655 17.1714 25.6828 17.0542C25.8 16.9369 25.9589 16.8711 26.1247 16.8711C26.2905 16.8711 26.4494 16.9369 26.5666 17.0542C26.6838 17.1714 26.7497 17.3303 26.7497 17.4961V18.9286C26.7497 19.0944 26.6838 19.2533 26.5666 19.3705C26.4494 19.4877 26.2905 19.5536 26.1247 19.5536Z" fill="#1D212C"/>
<path d="M27.3744 22.3489C27.2259 22.3489 27.0772 22.2964 26.9581 22.1895C26.4995 21.779 26.1326 21.2764 25.8813 20.7145C25.63 20.1526 25.5 19.5441 25.4997 18.9286C25.4997 18.7628 25.5655 18.6039 25.6828 18.4867C25.8 18.3694 25.9589 18.3036 26.1247 18.3036C26.2905 18.3036 26.4494 18.3694 26.5666 18.4867C26.6838 18.6039 26.7497 18.7628 26.7497 18.9286C26.7499 19.3682 26.8428 19.8028 27.0222 20.2041C27.2017 20.6054 27.4637 20.9644 27.7913 21.2577C28.0484 21.4877 28.0709 21.883 27.8403 22.1402C27.7818 22.2059 27.7101 22.2585 27.6297 22.2945C27.5494 22.3305 27.4624 22.349 27.3744 22.3489ZM14.8747 19.5536C14.7089 19.5536 14.55 19.4877 14.4328 19.3705C14.3155 19.2533 14.2497 19.0944 14.2497 18.9286V17.4961C14.2497 17.3303 14.3155 17.1714 14.4328 17.0542C14.55 16.9369 14.7089 16.8711 14.8747 16.8711C15.0405 16.8711 15.1994 16.9369 15.3166 17.0542C15.4338 17.1714 15.4997 17.3303 15.4997 17.4961V18.9286C15.4997 19.0944 15.4338 19.2533 15.3166 19.3705C15.1994 19.4877 15.0405 19.5536 14.8747 19.5536Z" fill="#1D212C"/>
<path d="M13.625 22.3477C13.4984 22.3478 13.3747 22.3094 13.2704 22.2376C13.1661 22.1659 13.0861 22.0641 13.0409 21.9458C12.9957 21.8276 12.9875 21.6983 13.0173 21.5753C13.0472 21.4523 13.1137 21.3412 13.2081 21.2568C13.5356 20.9635 13.7976 20.6046 13.9771 20.2033C14.1566 19.802 14.2494 19.3673 14.2497 18.9277C14.2497 18.762 14.3155 18.603 14.4327 18.4858C14.55 18.3686 14.7089 18.3027 14.8747 18.3027C15.0405 18.3027 15.1994 18.3686 15.3166 18.4858C15.4338 18.603 15.4997 18.762 15.4997 18.9277C15.4997 20.1712 14.9681 21.3596 14.0413 22.1887C13.9269 22.2913 13.7786 22.348 13.625 22.3477ZM20.4997 28.7449C18.4669 28.7449 16.7497 27.0277 16.7497 24.9949C16.7497 24.8292 16.8155 24.6702 16.9328 24.553C17.05 24.4358 17.2089 24.3699 17.3747 24.3699C17.5405 24.3699 17.6994 24.4358 17.8166 24.553C17.9338 24.6702 17.9997 24.8292 17.9997 24.9949C17.9997 26.3502 19.1444 27.4949 20.4997 27.4949C21.855 27.4949 22.9997 26.3502 22.9997 24.9949C22.9997 24.8292 23.0655 24.6702 23.1827 24.553C23.3 24.4358 23.4589 24.3699 23.6247 24.3699C23.7905 24.3699 23.9494 24.4358 24.0666 24.553C24.1838 24.6702 24.2497 24.8292 24.2497 24.9949C24.2497 27.0277 22.5325 28.7449 20.4997 28.7449Z" fill="#1D212C"/>
<path d="M14.8747 25.6206C13.8453 25.6206 12.9381 24.9866 12.5635 24.0053C12.1878 23.0222 12.441 21.9431 13.2081 21.2572C13.269 21.2006 13.3405 21.1567 13.4185 21.1281C13.4966 21.0995 13.5795 21.0867 13.6625 21.0905C13.7455 21.0943 13.827 21.1147 13.902 21.1503C13.9771 21.186 14.0443 21.2363 14.0997 21.2982C14.1551 21.3601 14.1976 21.4325 14.2246 21.5111C14.2517 21.5896 14.2629 21.6728 14.2575 21.7557C14.252 21.8387 14.2301 21.9197 14.193 21.994C14.1559 22.0684 14.1043 22.1346 14.0413 22.1887C13.5831 22.5987 13.5806 23.1653 13.731 23.5591C13.8806 23.9516 14.26 24.3706 14.8747 24.3706C15.0405 24.3706 15.1994 24.4365 15.3167 24.5537C15.4339 24.6709 15.4997 24.8299 15.4997 24.9956C15.4997 25.1614 15.4339 25.3204 15.3167 25.4376C15.1994 25.5548 15.0405 25.6206 14.8747 25.6206Z" fill="#1D212C"/>
<path d="M26.1247 25.6211H14.8747C14.7089 25.6211 14.55 25.5552 14.4328 25.438C14.3155 25.3208 14.2497 25.1619 14.2497 24.9961C14.2497 24.8303 14.3155 24.6714 14.4328 24.5542C14.55 24.4369 14.7089 24.3711 14.8747 24.3711H26.1247C26.2905 24.3711 26.4494 24.4369 26.5666 24.5542C26.6838 24.6714 26.7497 24.8303 26.7497 24.9961C26.7497 25.1619 26.6838 25.3208 26.5666 25.438C26.4494 25.5552 26.2905 25.6211 26.1247 25.6211Z" fill="#1D212C"/>
<defs>
<linearGradient id="paint0_linear_144_1962" x1="15.5623" y1="13.7673" x2="17.0194" y2="13.7673" gradientUnits="userSpaceOnUse">
<stop stop-color="#CCA3B7"/>
<stop offset="0.966667" stop-color="#EDA674"/>
</linearGradient>
</defs>
</svg>
