<svg width="18" height="18" viewBox="0 0 18 18" fill="none" xmlns="http://www.w3.org/2000/svg">
<path d="M16.6275 1.3627L15.84 0.680412C14.9325 -0.226804 13.4625 -0.226804 12.555 0.680412C12.5325 0.702905 11.145 2.50984 11.145 2.50984C10.29 3.40956 10.29 4.82662 11.145 5.71884L12.015 6.8135C10.92 9.29522 9.21749 11.0047 6.81749 12.0244L5.72249 11.1471C4.82999 10.2849 3.40499 10.2849 2.51249 11.1471C2.51249 11.1471 0.704988 12.5342 0.682488 12.5567C-0.225013 13.4639 -0.225012 14.9335 0.644988 15.8032L1.39499 16.6654C2.25749 17.5276 3.41999 18 4.67999 18C10.41 18 18 10.4049 18 4.68416C18 3.43205 17.5275 2.26242 16.6275 1.3702V1.3627ZM4.67999 16.493C3.82499 16.493 3.03749 16.1781 2.49749 15.6307L1.74749 14.7685C1.43999 14.4611 1.42499 13.9588 1.71749 13.6364C1.71749 13.6364 3.50999 12.2568 3.53249 12.2343C3.83999 11.9269 4.37999 11.9269 4.69499 12.2343C4.71749 12.2568 6.22499 13.4639 6.22499 13.4639C6.43499 13.6289 6.71249 13.6739 6.95999 13.5764C10.065 12.3918 12.2925 10.1724 13.575 6.97095C13.6725 6.72352 13.635 6.43861 13.4625 6.22118C13.4625 6.22118 12.255 4.70665 12.24 4.69166C11.9175 4.36926 11.9175 3.85192 12.24 3.52952C12.2625 3.50703 13.6425 1.71509 13.6425 1.71509C13.965 1.42268 14.4675 1.43018 14.8125 1.77507L15.6 2.45736C16.1775 3.03468 16.5 3.82193 16.5 4.67666C16.5 9.89503 9.17249 16.493 4.67999 16.493Z" fill="#19223C"/>
</svg>
