<svg width="19" height="19" viewBox="0 0 19 19" fill="none" xmlns="http://www.w3.org/2000/svg">
<path d="M11.1336 16.7001H2.68914C2.24122 16.7001 1.81164 16.5221 1.49491 16.2054C1.17818 15.8887 1.00024 15.4591 1.00024 15.0112V3.18889C1.00024 2.74097 1.17818 2.3114 1.49491 1.99467C1.81164 1.67794 2.24122 1.5 2.68914 1.5H16.2003C16.6482 1.5 17.0778 1.67794 17.3945 1.99467C17.7113 2.3114 17.8892 2.74097 17.8892 3.18889V11.6334" stroke="url(#paint0_linear_763_7003)" stroke-width="1.2" stroke-linecap="round"/>
<path d="M1.00024 4.87822H17.8892M3.53359 3.19777L3.54203 3.18848M6.06693 3.19777L6.07537 3.18848M8.60027 3.19777L8.60872 3.18848" stroke="url(#paint1_linear_763_7003)" stroke-width="1.2" stroke-linecap="round" stroke-linejoin="round"/>
<path d="M17.9585 14.4753C18.3757 14.732 18.3503 15.356 17.9205 15.4042L15.7537 15.6507L14.7809 17.6031C14.5883 17.9899 13.993 17.8007 13.8942 17.3211L12.8344 12.1564C12.7516 11.7511 13.1156 11.4961 13.4677 11.7131L17.9585 14.4753Z" stroke="url(#paint2_linear_763_7003)" stroke-width="1.2"/>
<defs>
<linearGradient id="paint0_linear_763_7003" x1="1.00024" y1="9.10003" x2="17.8892" y2="9.10003" gradientUnits="userSpaceOnUse">
<stop stop-color="#CCA3B7"/>
<stop offset="0.966667" stop-color="#EDA674"/>
</linearGradient>
<linearGradient id="paint1_linear_763_7003" x1="1.00024" y1="4.03335" x2="17.8892" y2="4.03335" gradientUnits="userSpaceOnUse">
<stop stop-color="#CCA3B7"/>
<stop offset="0.966667" stop-color="#EDA674"/>
</linearGradient>
<linearGradient id="paint2_linear_763_7003" x1="12.8225" y1="14.7221" x2="18.2576" y2="14.7221" gradientUnits="userSpaceOnUse">
<stop stop-color="#CCA3B7"/>
<stop offset="0.966667" stop-color="#EDA674"/>
</linearGradient>
</defs>
</svg>
