<svg xmlns="http://www.w3.org/2000/svg" width="16.771" height="21" viewBox="0 0 16.771 21">
    <g id="Group_2158" data-name="Group 2158" transform="translate(-35.865 -524.88)">
        <path id="Path_5350" data-name="Path 5350"
            d="M49.486,544.478c-.585,0-1.665-.878-1.763-3.75l1.763-.893,1.74.87c-.1,2.925-1.17,3.743-1.74,3.773m2.76-4.823-2.452-1.223a.7.7,0,0,0-.623,0l-2.445,1.223a.7.7,0,0,0-.284.256.708.708,0,0,0-.106.366c0,5.536,3,5.6,3.15,5.6s3.15-.06,3.15-5.6a.708.708,0,0,0-.106-.366.7.7,0,0,0-.284-.256"
            fill="#fff" />
        <path id="Path_5351" data-name="Path 5351"
            d="M38.235,529.08l1.8-1.815v1.815Zm12.3-4.2h-9.8a.689.689,0,0,0-.269.052.7.7,0,0,0-.083.06.785.785,0,0,0-.143.09l-4.2,4.2v.046a.63.63,0,0,0-.173.449v14a2.1,2.1,0,0,0,2.07,2.1h7a.705.705,0,0,0,.269-.053.7.7,0,0,0,.379-.38.695.695,0,0,0,0-.537.7.7,0,0,0-.379-.379.7.7,0,0,0-.269-.053h-7a.7.7,0,0,1-.7-.7v-13.3h3.5a.7.7,0,0,0,.7-.7v-3.5h9.1a.7.7,0,0,1,.7.7v10.5a.7.7,0,1,0,1.4,0v-10.5a2.1,2.1,0,0,0-2.1-2.1"
            fill="#fff" />
        <path id="Path_5352" data-name="Path 5352"
            d="M42.795,533.28a1.4,1.4,0,1,1,.411.992,1.4,1.4,0,0,1-.411-.992m4.2,0a2.8,2.8,0,1,0-.822,1.976,2.8,2.8,0,0,0,.822-1.976"
            fill="#fff" />
        <path id="Path_5353" data-name="Path 5353"
            d="M47.033,538.185a.7.7,0,0,0-.7-.7H41.348a.7.7,0,0,0-.5,1.2.716.716,0,0,0,.228.152.7.7,0,0,0,.268.053h4.987a.687.687,0,0,0,.269-.054.673.673,0,0,0,.227-.153.7.7,0,0,0,.151-.229.688.688,0,0,0,.051-.269"
            fill="#fff" />
        <path id="Path_5354" data-name="Path 5354"
            d="M41.348,540.285a.7.7,0,0,0,0,1.4h2.888a.7.7,0,0,0,0-1.4Z" fill="#fff" />
    </g>
</svg>
  