<svg width="50" height="53" viewBox="0 0 50 53" fill="none" xmlns="http://www.w3.org/2000/svg">
<g filter="url(#filter0_d_742_28021)">
<path d="M45.1669 15.467L25.5106 4.23486C25.2224 4.07015 24.8704 4.07015 24.5821 4.23486L4.92585 15.467C4.63382 15.6336 4.4541 15.9444 4.4541 16.2795V36.8718C4.4541 37.2069 4.63382 37.5176 4.92585 37.6843L24.5821 48.9164C24.7263 48.9988 24.8854 49.04 25.0464 49.04C25.2075 49.04 25.3665 48.9988 25.5107 48.9164L45.167 37.6843C45.459 37.5176 45.6388 37.2069 45.6388 36.8718V16.2795C45.6387 15.9444 45.459 15.6336 45.1669 15.467Z" fill="#D9D9D9"/>
<path d="M44.7713 16.1594L44.7717 16.1596C44.8144 16.184 44.8413 16.2301 44.8413 16.2797V36.8718C44.8413 36.9212 44.8145 36.9672 44.7718 36.9916L44.7714 36.9919L25.1151 48.224L25.115 48.224C25.0926 48.2368 25.0701 48.2425 25.0464 48.2425C25.0228 48.2425 25.0003 48.2368 24.9779 48.224L24.9778 48.224L5.32151 36.9919L5.32109 36.9916C5.27834 36.9672 5.25157 36.9212 5.25157 36.8718V16.2795C5.25157 16.23 5.27835 16.184 5.32108 16.1596L5.32151 16.1594L24.9778 4.92727C24.9778 4.92727 24.9778 4.92727 24.9778 4.92726C25.0209 4.90265 25.0719 4.90265 25.115 4.92726C25.115 4.92727 25.115 4.92727 25.115 4.92727L44.7713 16.1594Z" stroke="white" stroke-width="1.59495"/>
</g>
<path d="M23.1318 32.6696C23.0755 32.6696 23.0203 32.6549 22.9714 32.6269C22.9226 32.599 22.882 32.5587 22.8535 32.5102C21.6473 30.4552 18.433 26.0816 18.4007 26.0377C18.3547 25.9753 18.3328 25.8984 18.3389 25.8211C18.345 25.7439 18.3786 25.6714 18.4338 25.6169L19.4218 24.6406C19.4755 24.5875 19.5461 24.555 19.6213 24.5486C19.6965 24.5422 19.7715 24.5623 19.8334 24.6055L23.0645 26.8617C25.2127 24.1021 27.209 22.1976 28.5211 21.0755C29.9918 19.8175 30.9269 19.2522 30.9659 19.2286C31.0161 19.1985 31.0735 19.1826 31.132 19.1826H32.7304C32.7958 19.1826 32.8597 19.2025 32.9136 19.2396C32.9675 19.2767 33.0088 19.3294 33.032 19.3905C33.0553 19.4516 33.0595 19.5184 33.0439 19.582C33.0284 19.6455 32.9939 19.7028 32.945 19.7463C30.5754 21.8568 28.1118 25.2101 26.4623 27.6515C24.6693 30.3052 23.4246 32.4849 23.4122 32.5066C23.3842 32.5558 23.3437 32.5967 23.2949 32.6253C23.246 32.6539 23.1905 32.6692 23.1339 32.6695L23.1318 32.6696Z" fill="#88898E" fill-opacity="0.4"/>
<defs>
<filter id="filter0_d_742_28021" x="0.633065" y="0.290292" width="48.8266" height="52.5708" filterUnits="userSpaceOnUse" color-interpolation-filters="sRGB">
<feFlood flood-opacity="0" result="BackgroundImageFix"/>
<feColorMatrix in="SourceAlpha" type="matrix" values="0 0 0 0 0 0 0 0 0 0 0 0 0 0 0 0 0 0 127 0" result="hardAlpha"/>
<feOffset/>
<feGaussianBlur stdDeviation="1.91052"/>
<feComposite in2="hardAlpha" operator="out"/>
<feColorMatrix type="matrix" values="0 0 0 0 0 0 0 0 0 0 0 0 0 0 0 0 0 0 0.33 0"/>
<feBlend mode="normal" in2="BackgroundImageFix" result="effect1_dropShadow_742_28021"/>
<feBlend mode="normal" in="SourceGraphic" in2="effect1_dropShadow_742_28021" result="shape"/>
</filter>
</defs>
</svg>
