<svg width="36" height="36" viewBox="0 0 36 36" fill="none" xmlns="http://www.w3.org/2000/svg">
    <path fill-rule="evenodd" clip-rule="evenodd"
        d="M17.1562 4.5C16.2243 4.5 15.4688 5.25552 15.4688 6.1875L15.2661 7.60557C15.0847 8.87526 13.6092 9.48646 12.5831 8.71692L11.4372 7.85743C10.7782 7.19843 9.7097 7.19843 9.05068 7.85743L7.85743 9.05069C7.19842 9.7097 7.19842 10.7782 7.85743 11.4372L8.71691 12.5831C9.48647 13.6092 8.87526 15.0848 7.60556 15.2661L6.1875 15.4688C5.25552 15.4688 4.5 16.2243 4.5 17.1563V18.8438C4.5 19.7757 5.25552 20.5313 6.1875 20.5313L7.60557 20.7339C8.87528 20.9153 9.48648 22.3908 8.71692 23.4168L7.85743 24.5628C7.19842 25.2219 7.19842 26.2904 7.85743 26.9493L9.05068 28.1426C9.7097 28.8017 10.7782 28.8017 11.4372 28.1426L12.5831 27.2831C13.6092 26.5136 15.0847 27.1248 15.2661 28.3944L15.4688 29.8125C15.4688 30.7445 16.2243 31.5 17.1562 31.5H18.8438C19.7757 31.5 20.5312 30.7445 20.5312 29.8125L20.7339 28.3944C20.9153 27.1248 22.3908 26.5136 23.4168 27.2831L24.5628 28.1426C25.2219 28.8017 26.2903 28.8017 26.9493 28.1426L28.1425 26.9493C28.8015 26.2904 28.8015 25.2219 28.1425 24.5628L27.2831 23.4168C26.5135 22.3908 27.1248 20.9153 28.3944 20.7339L29.8125 20.5313C30.7444 20.5313 31.5 19.7757 31.5 18.8438V17.1563C31.5 16.2243 30.7444 15.4688 29.8125 15.4688L28.3944 15.2661C27.1248 15.0848 26.5135 13.6092 27.2831 12.5831L28.1425 11.4372C28.8015 10.7782 28.8015 9.7097 28.1425 9.05069L26.9493 7.85743C26.2903 7.19843 25.2219 7.19843 24.5628 7.85743L23.4168 8.71692C22.3908 9.48646 20.9153 8.87526 20.7339 7.60557L20.5312 6.1875C20.5312 5.25552 19.7757 4.5 18.8438 4.5H17.1562ZM18 21.375C19.8639 21.375 21.375 19.8639 21.375 18C21.375 16.1361 19.8639 14.625 18 14.625C16.1361 14.625 14.625 16.1361 14.625 18C14.625 19.8639 16.1361 21.375 18 21.375Z"
        fill="white" />
</svg>
    