<svg width="25" height="24" viewBox="0 0 25 24" fill="none" xmlns="http://www.w3.org/2000/svg">
<path fill-rule="evenodd" clip-rule="evenodd" d="M22.0112 7.11809L21.2989 5.8819C20.6962 4.8359 19.3606 4.47505 18.3132 5.07524C17.8146 5.36895 17.2197 5.45228 16.6596 5.30686C16.0994 5.16142 15.6202 4.79918 15.3274 4.3C15.1392 3.98271 15.038 3.62132 15.0341 3.25238C15.0512 2.66087 14.828 2.08767 14.4155 1.66336C14.003 1.23905 13.4363 0.999748 12.8446 1H11.4094C10.8297 0.999989 10.2738 1.231 9.86486 1.64192C9.45589 2.05285 9.22754 2.60979 9.23032 3.18952C9.21315 4.38647 8.23787 5.34774 7.0408 5.34762C6.67187 5.34378 6.31047 5.24259 5.99319 5.05429C4.94575 4.4541 3.61015 4.81494 3.00746 5.86096L2.2427 7.11809C1.64075 8.16279 1.99669 9.49756 3.03889 10.1038C3.71635 10.4949 4.13368 11.2178 4.13368 12C4.13368 12.7823 3.71635 13.505 3.03889 13.8962C1.99802 14.4984 1.64169 15.8299 2.2427 16.8714L2.96556 18.1181C3.24794 18.6277 3.72173 19.0037 4.28207 19.1629C4.84242 19.3222 5.44313 19.2516 5.95128 18.9667C6.45081 18.6752 7.04609 18.5953 7.60479 18.7449C8.1635 18.8944 8.63933 19.2608 8.92652 19.7628C9.11483 20.0802 9.21602 20.4415 9.21985 20.8105C9.21985 22.0197 10.2001 23 11.4094 23H12.8446C14.0498 23 15.0284 22.0261 15.0341 20.8209C15.0314 20.2394 15.2612 19.6809 15.6723 19.2696C16.0835 18.8584 16.6422 18.6286 17.2237 18.6315C17.5918 18.6413 17.9516 18.742 18.2713 18.9248C19.316 19.5267 20.6507 19.1708 21.257 18.1286L22.0112 16.8714C22.3032 16.3703 22.3834 15.7735 22.234 15.213C22.0845 14.6526 21.7178 14.1749 21.2151 13.8857C20.7123 13.5965 20.3457 13.1187 20.1963 12.5584C20.0468 11.998 20.1269 11.4012 20.4189 10.9C20.6087 10.5685 20.8837 10.2937 21.2151 10.1038C22.251 9.49788 22.6062 8.17092 22.0112 7.12858V7.11809Z" stroke="#8C8C8C" stroke-width="1.5" stroke-linecap="round" stroke-linejoin="round"/>
<path d="M12.1323 15.0177C13.7986 15.0177 15.1494 13.6669 15.1494 12.0005C15.1494 10.3342 13.7986 8.9834 12.1323 8.9834C10.4659 8.9834 9.11511 10.3342 9.11511 12.0005C9.11511 13.6669 10.4659 15.0177 12.1323 15.0177Z" stroke="#8C8C8C" stroke-width="1.5" stroke-linecap="round" stroke-linejoin="round"/>
</svg>
