<svg width="15" height="14" viewBox="0 0 15 14" fill="none" xmlns="http://www.w3.org/2000/svg">
<path d="M13.4194 5.89284L9.04438 1.51784C8.99849 1.47201 8.94005 1.4408 8.87644 1.42816C8.81283 1.41553 8.7469 1.42202 8.68698 1.44684C8.62706 1.47165 8.57583 1.51366 8.53977 1.56757C8.50371 1.62147 8.48444 1.68486 8.48438 1.74971V4.05752C5.50501 4.25385 1.90055 7.06534 1.48821 10.6561C1.47482 10.7705 1.49785 10.8861 1.55403 10.9866C1.6102 11.0871 1.69665 11.1673 1.80107 11.2157C1.90548 11.2642 2.02253 11.2785 2.13555 11.2566C2.24856 11.2347 2.35177 11.1776 2.43048 11.0936C3.04626 10.4368 5.25782 8.34502 8.48438 8.20995V10.4997C8.48444 10.5646 8.50371 10.6279 8.53977 10.6819C8.57583 10.7358 8.62706 10.7778 8.68698 10.8026C8.7469 10.8274 8.81283 10.8339 8.87644 10.8213C8.94005 10.8086 8.99849 10.7774 9.04438 10.7316L13.4194 6.35659C13.4808 6.29506 13.5153 6.21166 13.5153 6.12471C13.5153 6.03776 13.4808 5.95436 13.4194 5.89284ZM9.14063 9.70784V7.87471C9.14063 7.78769 9.10606 7.70423 9.04453 7.64269C8.98299 7.58116 8.89953 7.54659 8.81251 7.54659C7.29602 7.54659 5.81782 7.94307 4.42001 8.7251C3.60529 9.18277 2.85482 9.7464 2.18821 10.4013C2.44524 8.94877 3.29071 7.55752 4.59446 6.44901C5.88509 5.3558 7.46118 4.70284 8.81251 4.70284C8.89953 4.70284 8.98299 4.66827 9.04453 4.60673C9.10606 4.54519 9.14063 4.46174 9.14063 4.37471V2.54213L12.7232 6.12471L9.14063 9.70784Z" fill="#181B28" fill-opacity="0.7" stroke="#181B28" stroke-opacity="0.7" stroke-width="0.3"/>
</svg>
