<svg width="375" height="303" viewBox="0 0 375 303" fill="none"
    xmlns="http://www.w3.org/2000/svg">
    <mask id="mask0_2_699" style="mask-type:alpha" maskUnits="userSpaceOnUse" x="0" y="0" width="375" height="303">
        <rect width="375" height="303" fill="#D9D9D9"/>
    </mask>
    <g mask="url(#mask0_2_699)">
        <path d="M260.48 164.51C258.77 162.82 256.7 161.99 254.27 162C251.84 162.02 249.78 162.88 248.09 164.6C246.4 166.31 245.57 168.38 245.58 170.81C245.6 173.24 246.46 175.3 248.18 176.99C249.89 178.68 251.96 179.51 254.39 179.5C256.82 179.48 258.88 178.62 260.57 176.9C262.26 175.19 263.09 173.12 263.08 170.69C263.06 168.26 262.2 166.2 260.48 164.51" fill="#DF2A57"/>
        <path d="M229.57 114.51L242.61 123.6L238.64 138.94L250.16 128.72L265.17 139.18L258.49 121.88L271.96 110.27L254.63 112L249.2 97.97L245.3 112.8L229.57 114.51Z" fill="#DF2A57"/>
        <path d="M263.29 70.61L272.22 76.81L269.53 87.47L277.43 80.34L287.83 87.56L283.22 75.64L292.49 67.7L280.55 68.81L276.76 59.14L274.07 69.36L263.29 70.61Z" fill="#DF2A57"/>
        <path d="M377.63 49.95L377.55 46.07C350.7 49.64 327.12 61.63 306.82 82.04L306.94 82.07C282.62 106.86 270.53 136.49 270.68 170.94C270.89 205.49 283.34 235.01 308.01 259.47C315.74 267.12 323.92 273.49 332.53 278.58C333.9 279.39 335.2 280.18 336.41 280.95L336.56 280.85C354.79 290.82 374.9 295.73 396.91 295.6C397.24 295.67 397.58 295.7 397.92 295.69C398.35 292.86 398.98 290.08 399.82 287.34C399.33 287.23 398.86 287.22 398.41 287.3C398.53 287.15 398.68 287.02 398.88 286.89C396.61 287.09 395.5 287.25 395.56 287.34C375.67 287.24 357.6 282.8 341.35 274.02L364.1 234.81C373.17 239.4 383.13 241.81 393.98 242.06C396.02 242.58 397.87 242.54 399.54 241.95C402.55 241.9 405.54 241.59 408.49 241.02C408.11 239.57 407.84 238.01 407.68 236.34C405.01 236.8 402.24 237.11 399.37 237.28C397.64 236.91 395.76 236.9 393.71 237.24C383.9 236.96 374.88 234.74 366.67 230.59L374.97 216.38C380.44 218.92 386.14 220.38 392.06 220.78C399.65 220.59 404.66 220.28 407.07 219.85C407.21 218.77 407.41 217.65 407.65 216.5C404.96 217.04 400.29 217.38 393.66 217.52C387.7 217.28 382.1 215.97 376.86 213.56L393.56 184.66C394.76 183.03 395.89 181.55 396.95 180.23C401.9 173.47 401.51 166.86 395.75 160.4C394.95 159.72 394.16 158.99 393.38 158.22L374.77 127.61C380.45 124.7 386.59 123.08 393.18 122.77C394.83 122.69 396.39 122.59 397.88 122.48L398.64 118.91C395.81 118.91 394.02 119.05 393.28 119.32C385.96 119.83 379.22 121.66 373.06 124.81L364.48 110.63C373.12 105.94 382.67 103.38 393.15 102.94C393.99 103.03 394.84 103.08 395.69 103.09L396.76 98.04C395.54 98.12 394.28 98.2 392.98 98.27C381.74 98.63 371.4 101.46 361.95 106.74L338.28 67.85C350.4 60.9 363.6 56.36 377.87 54.24C377.76 52.76 377.67 51.32 377.63 49.94M279.08 175.03L324.59 174.78C325.14 185.11 327.63 194.61 332.06 203.28L292.13 224.54L291.88 224.49C283.91 209.49 279.64 193.01 279.08 175.03M324.45 169.34L279.07 169.62C279.06 149.87 283.42 131.79 292.14 115.35L292.24 115.5L332.25 136.88C327.18 146.62 324.58 157.44 324.45 169.34ZM312.82 87.68L312.92 87.83C319.39 81.22 326.3 75.56 333.65 70.86L357.13 109.45C352.93 112.25 348.95 115.61 345.2 119.54L345.17 119.66C341.15 123.61 337.81 127.84 335.14 132.34L294.93 110.67C299.72 102.67 305.68 95.01 312.82 87.69M329.07 169.43C329.2 158.3 331.68 148.22 336.52 139.21L351.08 147.07C347.59 153.8 345.72 161.21 345.46 169.31L329.08 169.44M339 205.8L353.57 197.82C355.61 200.74 357.97 203.6 360.63 206.4C363.71 209.29 366.97 211.7 370.43 213.63L361.96 228.05C357.38 225.36 353.02 222.03 348.89 218.06L348.77 218.03C344.96 214.13 341.71 210.05 339.01 205.78M372.05 210.87C368.84 208.99 365.85 206.72 363.07 204.07L363 203.8C360.57 201.48 358.46 198.93 356.64 196.14L391.59 177.68L372.05 210.87M345.62 221.35C349.95 225.62 354.58 229.26 359.52 232.29L336.55 271.32C328.47 266.51 320.84 260.6 313.66 253.58L313.69 253.46C306.09 246.01 299.77 237.97 294.73 229.35L334.93 208.02C337.71 212.73 341.27 217.18 345.62 221.36M348.37 122.93L348.49 122.96C352.01 119.33 355.72 116.21 359.62 113.61L368.22 127.67C365.5 129.58 362.83 131.81 360.24 134.34C357.74 136.81 355.59 139.45 353.8 142.24L339.37 134.41C341.77 130.37 344.77 126.55 348.38 122.93M356.8 143.9C358.54 141.35 360.47 138.93 362.59 136.63L362.71 136.66C365.01 134.32 367.5 132.27 370.19 130.52L388.75 160.73L356.79 143.9M345.75 174.65C346.38 181.39 348.08 187.51 350.87 192.99L336.4 201.12C332.12 193 329.78 184.22 329.38 174.78L345.76 174.65M353.91 191.45C351.3 186.35 349.7 180.77 349.1 174.72L385.74 174.39L353.92 191.45M392.45 168.86L348.99 169.16C349.13 161.63 350.8 154.78 354 148.59L392.44 168.86" fill="#239DD2"/>
        <path d="M95.1201 150.89C96.5101 154.6 99 157.27 102.59 158.9C106.15 160.46 109.78 160.55 113.49 159.15C117.14 157.78 119.82 155.32 121.53 151.78C123.15 148.2 123.27 144.55 121.88 140.84C120.49 137.13 118 134.46 114.42 132.83C110.77 131.23 107.13 131.11 103.48 132.48C99.7701 133.87 97.1001 136.36 95.4701 139.95C93.8501 143.53 93.7301 147.18 95.1201 150.89ZM99.2201 149.35C98.2701 146.81 98.3601 144.29 99.5001 141.78C100.64 139.27 102.48 137.54 105.02 136.59C107.63 135.61 110.15 135.7 112.59 136.87C115.1 138.01 116.83 139.85 117.78 142.39C118.73 144.93 118.64 147.45 117.5 149.96C116.4 152.38 114.55 154.08 111.94 155.05C109.4 156 106.89 155.94 104.4 154.87C101.89 153.73 100.16 151.89 99.2101 149.35" fill="#FB8636"/>
        <path d="M79.5199 121.2C80.3799 123.48 80.2899 125.74 79.2799 127.98C78.2599 130.22 76.6199 131.77 74.3399 132.62C72.0599 133.48 69.7999 133.39 67.5599 132.38C65.3199 131.36 63.7699 129.72 62.9199 127.44C62.0599 125.16 62.1399 122.9 63.1599 120.66C64.1799 118.42 65.8199 116.87 68.0999 116.02C70.3799 115.16 72.6399 115.24 74.8799 116.26C77.1199 117.28 78.6699 118.92 79.5199 121.2" fill="#FB8636"/>
    </g>
</svg>
