<svg width="8" height="9" viewBox="0 0 8 9" fill="none" xmlns="http://www.w3.org/2000/svg">
<path d="M7.9883 3.36942C7.9631 3.29519 7.91671 3.22997 7.85486 3.1818C7.79302 3.13364 7.71842 3.10464 7.64028 3.09838L5.35448 2.91675L4.36534 0.727181C4.33384 0.656659 4.2826 0.596762 4.21781 0.554717C4.15302 0.512672 4.07745 0.490277 4.00021 0.490234C3.92297 0.490192 3.84737 0.512504 3.78254 0.554478C3.7177 0.596452 3.6664 0.656293 3.63482 0.72678L2.64568 2.91675L0.359883 3.09838C0.283084 3.10447 0.209664 3.13255 0.148406 3.17926C0.0871479 3.22598 0.0406465 3.28936 0.0144647 3.36181C-0.011717 3.43427 -0.0164705 3.51273 0.00077309 3.58782C0.0180167 3.6629 0.0565271 3.73143 0.111697 3.7852L1.80089 5.43189L1.20348 8.0188C1.18534 8.09711 1.19115 8.17905 1.22016 8.25401C1.24918 8.32897 1.30005 8.39348 1.36618 8.43917C1.43231 8.48486 1.51065 8.50961 1.59102 8.51022C1.6714 8.51084 1.7501 8.48728 1.81692 8.4426L4.00008 6.98716L6.18324 8.4426C6.25153 8.48795 6.33207 8.51129 6.41403 8.50949C6.49599 8.5077 6.57543 8.48084 6.64168 8.43255C6.70792 8.38425 6.75778 8.31683 6.78456 8.23935C6.81134 8.16187 6.81375 8.07805 6.79147 7.99916L6.05814 5.43309L7.87684 3.79643C7.99592 3.68898 8.03962 3.52138 7.9883 3.36942Z" fill="#FFBA49"/>
</svg>
