<svg width="85" height="85" viewBox="0 0 85 85" fill="none" xmlns="http://www.w3.org/2000/svg">
<path d="M76.2107 19.499C77.1143 19.499 77.8477 20.2324 77.8477 21.136C77.8477 22.0396 77.1143 22.773 76.2107 22.773C75.3071 22.773 74.5737 22.0396 74.5737 21.136C74.5737 20.2324 75.3071 19.499 76.2107 19.499Z" fill="#CCA3B7"/>
<path d="M76.2107 62.0605C77.1143 62.0605 77.8477 62.7939 77.8477 63.6975C77.8477 64.6012 77.1143 65.3345 76.2107 65.3345C75.3071 65.3345 74.5737 64.6012 74.5737 63.6975C74.5737 62.7939 75.3071 62.0605 76.2107 62.0605Z" fill="#CCA3B7"/>
<path d="M68.0259 71.8828C69.8348 71.8828 71.2999 73.3479 71.2999 75.1568C71.2999 76.9657 69.8348 78.4308 68.0259 78.4308C66.2171 78.4308 64.752 76.9657 64.752 75.1568C64.752 73.3479 66.2171 71.8828 68.0259 71.8828Z" fill="#EDA674"/>
<path d="M64.7517 4.7666C65.6553 4.7666 66.3887 5.49997 66.3887 6.40359C66.3887 7.30721 65.6553 8.04058 64.7517 8.04058C63.8481 8.04058 63.1147 7.30721 63.1147 6.40359C63.1147 5.49997 63.8481 4.7666 64.7517 4.7666Z" fill="#CCA3B7"/>
<rect x="10.8143" y="11.4944" width="61.368" height="61.368" rx="30.684" stroke="url(#paint0_linear_225_5651)" stroke-width="4.08847"/>
<path d="M41.8341 66.9719C28.2733 66.9719 17.2793 55.9779 17.2793 42.4171C17.2793 28.8563 28.2733 17.8623 41.8341 17.8623C55.3949 17.8623 66.3889 28.8563 66.3889 42.4171C66.3889 55.9779 55.3949 66.9719 41.8341 66.9719Z" fill="white"/>
<path d="M54.0045 34.678C55.2832 35.9565 55.2832 38.0289 54.0045 39.3074L42.4294 50.8842L37.8 55.5136L33.169 50.8842L29.6969 47.4105C29.0586 46.7721 28.7378 45.9339 28.7378 45.0958C28.7378 44.2577 29.0586 43.4195 29.6969 42.7809C30.9756 41.5025 33.048 41.5025 34.3263 42.7809L37.8 46.253L49.3753 34.678C50.0154 34.0396 50.8519 33.7188 51.69 33.7188C52.5281 33.7188 53.3646 34.0396 54.0045 34.678Z" fill="url(#paint1_linear_225_5651)"/>
<path d="M17.2791 75.1572C18.1827 75.1572 18.9161 75.8906 18.9161 76.7942C18.9161 77.6978 18.1827 78.4312 17.2791 78.4312C16.3753 78.4312 15.6421 77.6978 15.6421 76.7942C15.6421 75.8906 16.3753 75.1572 17.2791 75.1572Z" fill="#CCA3B7"/>
<path d="M13.1867 8.04004C15.4474 8.04004 17.2792 9.87183 17.2792 12.1325C17.2792 14.3932 15.4474 16.225 13.1867 16.225C10.9259 16.225 9.09424 14.3932 9.09424 12.1325C9.09424 9.87183 10.9259 8.04004 13.1867 8.04004Z" fill="#EDA674"/>
<path d="M7.4573 21.1367C8.36092 21.1367 9.09429 21.8701 9.09429 22.7737C9.09429 23.6773 8.36092 24.4107 7.4573 24.4107C6.55352 24.4107 5.82031 23.6773 5.82031 22.7737C5.82031 21.8701 6.55352 21.1367 7.4573 21.1367Z" fill="#CCA3B7"/>
<path d="M7.4573 62.0605C8.36092 62.0605 9.09429 62.7939 9.09429 63.6975C9.09429 64.6012 8.36092 65.3345 7.4573 65.3345C6.55352 65.3345 5.82031 64.6012 5.82031 63.6975C5.82031 62.7939 6.55352 62.0605 7.4573 62.0605Z" fill="#CCA3B7"/>
<defs>
<linearGradient id="paint0_linear_225_5651" x1="8.77002" y1="42.1784" x2="74.2265" y2="42.1784" gradientUnits="userSpaceOnUse">
<stop stop-color="#CCA3B7"/>
<stop offset="0.966667" stop-color="#EDA674"/>
</linearGradient>
<linearGradient id="paint1_linear_225_5651" x1="28.7378" y1="44.6162" x2="54.9635" y2="44.6162" gradientUnits="userSpaceOnUse">
<stop stop-color="#CCA3B7"/>
<stop offset="0.966667" stop-color="#EDA674"/>
</linearGradient>
</defs>
</svg>
