<svg width="50" height="53" viewBox="0 0 50 53" fill="none" xmlns="http://www.w3.org/2000/svg">
<g filter="url(#filter0_d_742_28014)">
<path d="M45.2128 15.3537L25.5565 4.12158C25.2683 3.95687 24.9163 3.95687 24.628 4.12158L4.97175 15.3537C4.67971 15.5204 4.5 15.8311 4.5 16.1662V36.7585C4.5 37.0936 4.67971 37.4043 4.97175 37.571L24.628 48.8031C24.7722 48.8855 24.9313 48.9267 25.0923 48.9267C25.2534 48.9267 25.4124 48.8855 25.5566 48.8031L45.2129 37.571C45.5049 37.4043 45.6847 37.0936 45.6847 36.7585V16.1662C45.6846 15.8311 45.5049 15.5204 45.2128 15.3537Z" fill="url(#paint0_linear_742_28014)"/>
<path d="M44.8172 16.0461L44.8176 16.0464C44.8603 16.0707 44.8872 16.1168 44.8872 16.1664V36.7585C44.8872 36.8079 44.8604 36.8539 44.8177 36.8783L44.8172 36.8786L25.161 48.1107L25.1609 48.1107C25.1385 48.1236 25.116 48.1292 25.0923 48.1292C25.0687 48.1292 25.0462 48.1236 25.0238 48.1107L25.0237 48.1107L5.36741 36.8786L5.36699 36.8783C5.32424 36.8539 5.29747 36.8079 5.29747 36.7585V16.1662C5.29747 16.1168 5.32424 16.0708 5.36698 16.0464L5.36741 16.0461L25.0237 4.81399C25.0237 4.81399 25.0237 4.81398 25.0237 4.81398C25.0668 4.78937 25.1178 4.78937 25.1609 4.81398C25.1609 4.81398 25.1609 4.81399 25.1609 4.81399L44.8172 16.0461Z" stroke="white" stroke-width="1.59495"/>
</g>
<path d="M23.1777 32.5563C23.1214 32.5563 23.0662 32.5416 23.0173 32.5136C22.9685 32.4857 22.9279 32.4454 22.8994 32.3969C21.6932 30.3419 18.4789 25.9684 18.4466 25.9244C18.4006 25.862 18.3787 25.7851 18.3848 25.7079C18.3909 25.6306 18.4245 25.5581 18.4797 25.5036L19.4677 24.5273C19.5214 24.4743 19.592 24.4417 19.6672 24.4353C19.7424 24.4289 19.8174 24.449 19.8793 24.4922L23.1104 26.7485C25.2586 23.9888 27.2549 22.0843 28.567 20.9622C30.0377 19.7042 30.9728 19.1389 31.0118 19.1154C31.062 19.0852 31.1194 19.0693 31.1779 19.0693H32.7763C32.8417 19.0693 32.9056 19.0892 32.9595 19.1263C33.0133 19.1635 33.0547 19.2161 33.0779 19.2772C33.1012 19.3384 33.1054 19.4051 33.0898 19.4687C33.0743 19.5322 33.0398 19.5896 32.9909 19.6331C30.6213 21.7435 28.1577 25.0968 26.5082 27.5382C24.7152 30.1919 23.4705 32.3716 23.4581 32.3933C23.4301 32.4425 23.3896 32.4834 23.3408 32.512C23.2919 32.5406 23.2364 32.5559 23.1798 32.5563L23.1777 32.5563Z" fill="white"/>
<defs>
<filter id="filter0_d_742_28014" x="0.678963" y="0.17701" width="48.8266" height="52.5708" filterUnits="userSpaceOnUse" color-interpolation-filters="sRGB">
<feFlood flood-opacity="0" result="BackgroundImageFix"/>
<feColorMatrix in="SourceAlpha" type="matrix" values="0 0 0 0 0 0 0 0 0 0 0 0 0 0 0 0 0 0 127 0" result="hardAlpha"/>
<feOffset/>
<feGaussianBlur stdDeviation="1.91052"/>
<feComposite in2="hardAlpha" operator="out"/>
<feColorMatrix type="matrix" values="0 0 0 0 0 0 0 0 0 0 0 0 0 0 0 0 0 0 0.33 0"/>
<feBlend mode="normal" in2="BackgroundImageFix" result="effect1_dropShadow_742_28014"/>
<feBlend mode="normal" in="SourceGraphic" in2="effect1_dropShadow_742_28014" result="shape"/>
</filter>
<linearGradient id="paint0_linear_742_28014" x1="4.5" y1="26.4624" x2="45.6847" y2="26.4624" gradientUnits="userSpaceOnUse">
<stop stop-color="#CCA3B7"/>
<stop offset="0.966667" stop-color="#EDA674"/>
<stop offset="1" stop-color="#EFB287"/>
</linearGradient>
</defs>
</svg>
