<svg width="27" height="28" viewBox="0 0 27 28" fill="none" xmlns="http://www.w3.org/2000/svg">
    <path
        d="M5.24533 20.3393C2.97349 20.3393 1.12549 18.2603 1.12549 15.7038C1.12549 13.1474 2.97349 11.0684 5.24533 11.0684C6.38589 11.0684 7.31299 12.0738 7.31299 13.3093V18.0994C7.31299 19.3349 6.38589 20.3393 5.24533 20.3393ZM21.7556 20.3393C20.6161 20.3393 19.688 19.3338 19.688 18.0984V13.3082C19.688 12.0738 20.6151 11.0684 21.7556 11.0684C24.0275 11.0684 25.8755 13.1484 25.8755 15.7038C25.8755 18.2593 24.0275 20.3393 21.7556 20.3393ZM14.5317 26.5371C13.9625 26.5371 13.5005 26.0761 13.5005 25.5059C13.5005 24.9356 13.9625 24.4746 14.5317 24.4746C18.6856 24.4746 21.2235 22.674 21.6762 19.405C21.7536 18.8409 22.2733 18.4377 22.8385 18.5243C23.4025 18.6016 23.7975 19.1224 23.7191 19.6865C23.1169 24.0405 19.7684 26.5371 14.5317 26.5371ZM14.5317 26.5371C12.826 26.5371 11.438 25.149 11.438 23.4434C11.438 21.7377 12.826 20.3496 14.5317 20.3496C16.2374 20.3496 17.6255 21.7377 17.6255 23.4434C17.6255 25.149 16.2374 26.5371 14.5317 26.5371ZM22.7817 13.1309C22.2115 13.1309 21.7505 12.6689 21.7505 12.0996C21.7505 8.11073 19.5828 3.84961 13.5005 3.84961C7.41818 3.84961 5.25049 8.11073 5.25049 12.0996C5.25049 12.6689 4.78849 13.1309 4.21924 13.1309C3.64999 13.1309 3.18799 12.6689 3.18799 12.0996C3.18799 5.83477 7.23564 1.78711 13.5005 1.78711C19.7653 1.78711 23.813 5.83477 23.813 12.0996C23.813 12.6689 23.352 13.1309 22.7817 13.1309Z"
        fill="white" />
</svg>
    