<svg width="123" height="20" viewBox="0 0 123 20" fill="none" xmlns="http://www.w3.org/2000/svg">
<path d="M7.47191 11.917C7.43685 11.7273 7.40199 11.5374 7.36732 11.3473V10.5018L7.26331 10.5053V10.8495L6.97408 10.8764L6.93025 10.451V9.90115L6.62992 9.93329C6.55454 9.76676 6.49085 9.62652 6.42774 9.48629C6.41664 9.46525 6.40554 9.44422 6.39502 9.42318L6.52766 9.2251L6.24894 9.19939C6.00412 9.18303 6.00529 8.99196 5.97666 8.82076C5.95562 8.69396 5.93049 8.56775 5.90712 8.44154C5.93634 8.29371 5.96555 8.14587 6.00295 7.95948L5.54368 8.04187L5.53959 8.03719C5.52089 7.95247 5.50278 7.86774 5.48408 7.78302C5.48408 7.72458 5.48116 7.67083 5.47999 7.61532C5.48992 7.42834 5.50044 7.24194 5.50979 7.06256L4.97573 6.97433L5.09785 6.64302L4.56262 6.61907C4.56262 7.13969 4.56262 7.6124 4.56262 8.08511C4.56535 11.5181 4.5671 14.951 4.56788 18.3836C4.56788 18.4923 4.50243 18.601 4.47906 18.6758H1.21042V0.787044C1.31559 0.787044 1.40967 0.787044 1.50257 0.787044L5.46188 0.829114C5.47006 0.887546 5.47824 0.945977 5.487 1.00791C5.46071 1.06635 5.40753 1.12478 5.41338 1.18029C5.43383 1.35558 5.4759 1.53087 5.52498 1.78154C5.61964 1.93522 5.80896 1.77102 5.97782 1.76986C6.01678 1.98021 6.0569 2.19056 6.09819 2.40091V2.71118H6.4295L6.47975 2.78773L6.49377 2.93907C6.50546 3.02496 6.51656 3.11085 6.52825 3.19616V3.69809L6.93726 3.61979C6.96356 3.78632 6.98985 3.95285 7.0179 4.1334L7.39244 4.20878C7.41406 4.41212 7.42867 4.54534 7.44269 4.67623V5.61113L7.80497 5.57022C7.86749 5.80862 7.9306 6.04878 7.99195 6.28133L8.37117 6.08559L8.44304 6.59102V7.13618H8.89822L8.90348 7.48677C8.89179 7.63752 8.8801 7.78828 8.86257 8.00915H9.36683L9.42994 8.19145C9.42994 8.26858 9.42585 8.34571 9.4241 8.42225V8.93002L9.55148 8.94989C9.5766 8.84179 9.60173 8.73369 9.63796 8.58002L9.81325 8.54554L9.83253 8.94463C9.83838 9.2847 9.8448 9.62535 9.85123 10.0011L10.234 9.85031L10.3976 10.9325L10.6313 10.8606L10.5729 10.7963C10.643 10.683 10.7127 10.5694 10.782 10.4557C10.8019 10.7634 10.8214 11.0713 10.8405 11.3795V11.9597L11.2466 11.8551C11.2676 12.1776 11.2892 12.4978 11.3114 12.8373L12.2826 12.8957C12.2633 12.7134 12.2469 12.5533 12.23 12.3938L12.258 11.9936L12.3842 11.8808L12.3971 11.9275L12.7477 11.827C12.7839 11.4513 12.8119 11.1656 12.84 10.8805L13.1841 10.9167C13.2426 10.4492 13.2963 10.0005 13.3507 9.55348H13.4167L13.526 9.98704L13.6428 9.97536C13.6931 9.67385 13.7439 9.37235 13.8012 9.02877L14.1921 8.97501V8.4205L14.1956 8.25222C14.24 8.1745 14.2838 8.09621 14.3288 8.01849L14.6695 8.07692C14.6508 7.89287 14.6362 7.7427 14.621 7.59253L14.6601 7.5341H15.0978C15.1469 7.30622 15.1872 7.11865 15.2146 6.99536C15.2246 6.81072 15.2316 6.68743 15.2392 6.55012L15.6184 6.5916C15.6523 6.24102 15.685 5.90796 15.7206 5.53984L16.0712 5.69936C16.1145 5.54802 16.1513 5.41947 16.1881 5.29034L16.1665 5.27807C16.1916 5.08758 16.2167 4.89651 16.243 4.70135L16.6176 4.72706C16.662 4.38641 16.7029 4.07146 16.7432 3.7571H16.8454C16.8589 3.88039 16.8723 4.0031 16.8864 4.12931C16.9202 4.13574 16.9717 4.14626 16.9717 4.1445C17.047 3.82313 17.1183 3.50176 17.189 3.17922L17.5601 3.19792C17.6074 2.85609 17.6495 2.54875 17.691 2.24549L18.0597 2.27704V0.854239L18.5318 0.777695C19.7279 0.780616 20.924 0.781784 22.1206 0.788212C22.2457 0.796249 22.3702 0.811663 22.4934 0.834373C22.4747 1.02661 22.4502 1.16042 22.4502 1.29423C22.4502 6.98153 22.449 12.6688 22.4467 18.3561C22.4467 18.4952 22.3976 18.6337 22.3713 18.7763C22.3982 18.8639 22.4297 18.9638 22.4607 19.0638C22.3885 19.0896 22.3136 19.107 22.2375 19.1158C21.2153 19.1208 20.1936 19.1224 19.1722 19.1204C19.1112 19.113 19.0509 19.1001 18.9922 19.0819C18.9922 18.8855 18.9922 18.688 18.9922 18.4905C19.0016 15.1354 19.0107 11.7803 19.0197 8.42518C19.0197 7.95773 18.9957 7.49378 18.9823 7.02867C19.0138 6.88493 19.0454 6.74177 19.0869 6.55012L18.5113 6.58284C18.4915 6.75813 18.4769 6.88727 18.4611 7.02633L18.0743 7.00296C18.0848 7.21156 18.0941 7.39854 18.1035 7.58727L18.0667 8.01733H17.6915L17.6033 7.98227L17.5449 9.01709L17.0833 8.97735V9.55407L17.0798 10.0087L16.6123 9.8918L16.6742 10.43L16.6018 10.9371L16.1273 10.9763C16.1361 11.1767 16.1425 11.321 16.1489 11.4654C16.1489 11.5238 16.1489 11.5787 16.1489 11.6354L15.9941 11.9194L15.6873 11.8078V12.3652L15.6085 12.8636C15.4624 12.9051 15.2725 12.7047 15.1509 12.9629L15.2199 13.3001L15.1673 13.379C15.1638 13.4608 15.1609 13.5426 15.1574 13.6244C15.1474 13.6828 15.1381 13.7366 15.1282 13.7921H14.6952V14.2911C14.666 14.4757 14.6371 14.6604 14.6087 14.845L14.2458 14.7404C14.2324 14.8988 14.2213 15.0285 14.2061 15.2079H13.6832V16.2509C13.6756 16.4045 13.668 16.5582 13.6592 16.7318C12.6074 16.7318 11.6141 16.7318 10.6208 16.7318C10.5077 16.722 10.3957 16.7024 10.286 16.6733L10.3835 16.3356C10.262 16.0803 10.0534 16.2602 9.87928 16.2555C9.86 15.9096 9.84071 15.5637 9.82085 15.2155L9.39897 15.2704L9.34054 14.8164C9.3534 14.6411 9.36625 14.4658 9.38144 14.2671L9.03086 14.3074L8.84621 14.0877C8.83044 13.9767 8.81524 13.8663 8.79304 13.7068L8.46407 13.9347C8.43135 13.6004 8.40564 13.3217 8.37701 13.043L8.49387 12.9927C8.44304 12.7643 8.39863 12.5621 8.35305 12.357L7.97033 12.4154C7.93293 12.2331 7.89787 12.0649 7.85347 11.8563L7.47191 11.917ZM19.3381 18.726V18.8084C20.2421 18.7956 21.1495 18.9714 22.0505 18.726H19.3381ZM5.13933 0.996227L5.03299 1.07219L5.16738 1.24748L5.25737 1.18438C5.22231 1.12069 5.18082 1.05875 5.14167 0.996227H5.13933Z" fill="#1D212C"/>
<path d="M99.0816 11.8091C99.1009 12.0025 99.1195 12.1965 99.14 12.3899V12.9316L99.5426 12.8731C99.5531 13.0139 99.5642 13.1542 99.5747 13.2944C99.5847 13.7776 99.594 14.2603 99.6045 14.8002L99.892 14.7114C99.871 14.5945 99.8564 14.511 99.8336 14.3964L100.063 14.3795C100.063 14.515 100.068 14.65 100.07 14.785V15.1993L100.179 15.3103H100.532V15.4856L100.538 15.6609L100.577 15.9466C100.544 15.9945 100.48 16.0442 100.483 16.0892C100.499 16.299 100.536 16.5064 100.559 16.7156C100.577 16.8838 100.586 17.0527 100.597 17.183L101.071 17.235V17.4775C100.984 17.5733 101.047 18.0478 101.165 18.2021L101.515 18.1185C101.546 18.4317 101.574 18.7443 101.61 19.0972H97.7324L97.674 18.8407C98.8706 18.8658 100.04 18.9044 101.204 18.8243V18.6794H97.5787C97.5787 18.6578 97.5787 18.6356 97.5816 18.614H97.2649C97.2124 18.1045 97.1627 17.6207 97.1107 17.1135L96.7367 17.2987C96.728 17.2502 96.7186 17.2023 96.7093 17.1538L96.7005 16.951C96.6917 16.8529 96.6836 16.7547 96.6754 16.6589C96.7291 16.5134 96.829 16.3626 96.6275 16.2499L96.5106 16.254L96.3113 16.2645L96.2529 15.807C96.2299 15.643 96.2073 15.4788 96.1851 15.3144L95.9397 15.2758L95.7861 15.2717C94.4293 15.2717 93.0725 15.2717 91.7157 15.2717C91.5989 15.2717 91.4861 15.2519 91.371 15.2413C91.371 15.0598 91.371 14.8781 91.371 14.6962L91.4253 13.8612L91.7835 13.912L91.9722 13.6824V12.8176L92.0844 12.8083L92.2124 13.3143L92.2983 13.2991V12.9824C92.3363 12.9035 92.3778 12.8188 92.3988 12.7755L92.3006 12.4033L92.4128 12.3782H92.712H94.6899H95.2234V11.4164L94.8903 11.4643C94.642 11.133 94.9885 10.6633 94.6706 10.3851L94.2803 10.4132L94.2855 10.3547C94.3165 10.3343 94.3755 10.3115 94.3738 10.2963C94.3364 9.86217 94.2925 9.42802 94.2481 8.96992L93.9098 9.07919C93.8637 8.69997 93.821 8.34588 93.7748 7.96899L93.3454 8.02743C93.3197 7.71579 93.2942 7.40416 93.2688 7.09253C93.3016 6.91431 93.395 6.72791 93.2455 6.57775L92.8949 6.67591C92.8762 6.49594 92.8581 6.31539 92.8364 6.13542C92.9194 5.79535 92.8896 5.46171 92.8166 5.10878L92.4607 5.1976C92.4192 4.85285 92.3801 4.52389 92.3439 4.19609L91.8595 4.11136L92.0079 3.89517L92.3263 4.00911C92.3059 3.87588 92.2936 3.797 92.2773 3.69241L92.0231 3.80226C92.0231 3.77422 92.0231 3.74383 92.0278 3.71812L91.3055 3.64041V4.63783L90.9234 4.58758V5.13274C90.9117 5.62707 90.9 6.1214 90.8878 6.64728L90.5734 6.5684L90.4852 6.66189C90.4595 6.99553 90.4378 7.27249 90.4162 7.54946L90.0545 7.50739C90.0136 7.55413 89.964 7.60964 89.9721 7.60029C89.9312 7.96899 89.8991 8.25823 89.867 8.54688L89.7764 8.55447L89.6315 8.41891C89.6216 8.26816 89.6151 8.16708 89.6087 8.06833L89.5362 8.073C89.5082 8.46449 89.4778 8.85598 89.4562 9.24747C89.4562 9.3059 89.4977 9.36842 89.5199 9.42861C89.5076 9.60098 89.4953 9.77277 89.4837 9.94514L89.1646 9.89956V9.58169L89.0665 9.57235C89.0022 10.183 88.9373 10.7936 88.873 11.4007L88.5137 11.3633V12.4028C88.5082 12.5375 88.5026 12.6721 88.4968 12.8065H88.2811C88.263 12.6312 88.2496 12.4986 88.2356 12.363L88.1579 12.3437C88.1228 12.4022 88.0609 12.4548 88.0585 12.5126C88.0468 12.7919 88.0509 13.0718 88.0498 13.3517C88.0447 13.5017 88.0398 13.6514 88.0351 13.801L87.5513 13.8425C87.5274 14.2387 87.5034 14.6021 87.4871 14.9667C87.4871 14.986 87.5408 15.0076 87.5695 15.0252L87.5204 15.6708L87.3673 15.6404C87.3199 15.4727 87.2814 15.3383 87.2434 15.204L87.1376 15.2203C87.0459 15.4096 86.9699 15.5995 87.1558 15.8011C87.147 15.8706 87.1376 15.9402 87.1289 16.0091C87.1242 16.0641 87.1189 16.119 87.1143 16.1739C87.0792 16.2288 87.0442 16.2838 87.026 16.313L87.0447 16.7173L86.7415 16.6168L86.8303 16.3434L86.728 16.3071C86.6965 16.4088 86.6445 16.5093 86.6381 16.6133C86.6135 16.9785 86.6042 17.3455 86.5896 17.7118L86.5755 18.1173L86.3932 18.2073L86.1174 18.1004V18.7034L86.1385 18.8728C86.1169 18.9412 86.0946 19.0102 86.0724 19.0785C85.9316 19.0908 85.7908 19.1118 85.6494 19.113C84.5754 19.12 83.5011 19.1239 82.4263 19.1247C82.3619 19.1164 82.2988 19.0997 82.2388 19.075C82.2253 18.9704 82.2119 18.8653 82.199 18.7607L82.2253 18.2435L82.2692 17.6855C82.2676 17.6794 82.2679 17.673 82.27 17.6671C82.2721 17.6612 82.2759 17.656 82.2808 17.6522L82.5894 18.2529C82.8429 17.7071 82.7115 17.1696 82.8318 16.6875L83.1789 16.7179V15.783H83.6499C83.7136 15.4739 83.7527 15.1403 83.6546 14.7897L83.6861 14.3024L83.942 14.3766C83.9502 14.4584 83.952 14.5063 83.9607 14.5519C83.9695 14.5974 83.9847 14.6518 83.997 14.702H84.0642C84.1354 14.2223 84.2073 13.7432 84.2815 13.2494L84.6496 13.3891C84.635 13.0969 84.6228 12.8603 84.6105 12.6213C84.6331 12.3537 84.6555 12.0863 84.6777 11.819C85.0365 11.8348 84.8027 12.1696 85.0002 12.3642C85.0423 12.2649 85.0937 12.1942 85.1007 12.1194C85.1358 11.7577 85.1592 11.3942 85.1895 11.032C85.1936 10.9811 85.2386 10.9332 85.2673 10.88L85.553 10.9835C85.6699 10.6037 85.6558 10.2437 85.6196 9.88086C85.6196 9.84405 85.6231 9.80783 85.6243 9.77101L85.7873 9.40114C85.8644 9.62201 85.9153 9.76868 85.9661 9.91534C86.0317 9.77418 86.0675 9.62102 86.0713 9.46542C86.0648 9.31011 86.0501 9.15525 86.0275 9.00147C86.0362 8.76132 86.0397 8.52058 86.0561 8.28102C86.0702 8.17439 86.0913 8.06879 86.1192 7.9649L86.5487 8.02626C86.6012 7.66924 86.6445 7.37708 86.6871 7.08434L86.79 7.07149C86.8356 7.19653 86.8811 7.32158 86.9396 7.48051C86.9735 7.32508 87.0155 7.20763 87.022 7.08843C87.0389 6.75655 87.0406 6.42349 87.0482 6.0916C87.0592 5.93111 87.0704 5.77042 87.0821 5.60954L87.4327 5.65921C87.6664 5.52423 87.5215 5.34543 87.4812 5.1789C87.4804 5.17563 87.4802 5.17221 87.4808 5.16887C87.4813 5.16554 87.4826 5.16236 87.4845 5.15954C87.4863 5.15673 87.4888 5.15434 87.4917 5.15254C87.4945 5.15074 87.4977 5.14957 87.5011 5.1491C87.5483 5.08203 87.5875 5.00967 87.6179 4.93349C87.6389 4.8281 87.6516 4.72124 87.6559 4.61387L88.0106 4.74008L88.1275 3.23898L88.225 3.2162C88.2712 3.35 88.3168 3.48323 88.3624 3.61703C88.4367 3.47139 88.4818 3.31258 88.495 3.14958C88.509 2.86678 88.5008 2.58222 88.5014 2.29883L88.5277 2.13171L88.911 2.24273C88.9472 2.08516 88.9737 1.92555 88.9905 1.76476C89.0045 1.44982 89.1658 1.13137 88.9788 0.818178C88.9789 0.810394 88.9819 0.802923 88.9872 0.797206C88.9925 0.79149 88.9997 0.78793 89.0074 0.78721C89.256 0.78721 89.5041 0.78721 89.7519 0.78721C91.066 0.78721 92.3813 0.78721 93.693 0.78721C93.9314 0.78721 94.1698 0.817593 94.4082 0.833954L94.7045 0.746307C94.7267 1.10449 94.7466 1.4282 94.767 1.75249C94.7816 1.93188 94.7962 2.11126 94.812 2.30175L95.1795 2.24332C95.3034 2.74875 95.1474 3.28105 95.4285 3.75376C95.4911 3.67755 95.5394 3.59065 95.571 3.49725C95.6043 3.42421 95.6499 3.35701 95.6879 3.28748C95.7171 3.58782 95.7465 3.88777 95.7761 4.18732V4.691L96.1331 4.65886C96.1793 5.18474 96.2237 5.69134 96.2681 6.19911L96.3552 6.15412H96.7174C96.7174 6.22774 96.7174 6.30078 96.7174 6.37382C96.7046 6.61631 96.6917 6.8588 96.6783 7.12291L97.068 7.09428C97.1265 7.58335 97.1849 8.05664 97.2509 8.60122L97.5022 8.38911C97.4823 8.28277 97.4665 8.20155 97.4472 8.10105L97.6582 8.07884C97.6582 8.19571 97.6623 8.30965 97.6646 8.42476C97.674 8.46683 97.6827 8.50831 97.6921 8.55038C97.7055 8.70114 97.7195 8.85247 97.733 9.00381C97.733 9.18553 97.6249 9.39238 97.8335 9.53554L98.0707 9.36024C98.1134 9.64889 98.1543 9.93754 98.1987 10.2262C98.2098 10.301 98.2296 10.374 98.2454 10.4476C98.0736 10.6229 98.1286 10.7982 98.2308 10.9975L98.5569 10.8701C98.5569 11.0074 98.5417 11.1126 98.5621 11.2102C98.5756 11.2756 98.6393 11.3305 98.679 11.3896C98.6823 11.3897 98.6855 11.3905 98.6885 11.392C98.6915 11.3934 98.6941 11.3955 98.6963 11.398C98.6984 11.4005 98.7 11.4035 98.701 11.4066C98.7019 11.4098 98.7022 11.4132 98.7018 11.4164C98.6515 11.5993 98.5703 11.7881 98.7877 11.9423L99.0816 11.8091ZM97.0698 16.8096L97.0219 16.802C97.0166 16.8371 97.0119 16.8727 97.0067 16.9078L97.054 16.9148L97.0698 16.8096Z" fill="#1D212C"/>
<path d="M41.6618 14.2627C41.708 14.5636 41.7547 14.8646 41.8102 15.2227C41.6747 15.2444 41.5382 15.2592 41.4012 15.2671C39.8987 15.2707 38.3969 15.2718 36.8956 15.2707H36.4007C36.41 15.4506 36.4182 15.599 36.4264 15.7475L36.3679 16.7268L35.9776 16.5894V16.8097L35.9373 17.2369C35.7883 17.3134 35.7871 17.3929 35.9332 17.4741V17.5845L35.4196 17.65V18.6433L35.3728 18.8513L35.4272 18.9898C35.3617 19.0319 35.2969 19.1108 35.2314 19.1108C34.0476 19.1189 32.8638 19.1172 31.68 19.116C31.6224 19.1109 31.5655 19.1003 31.51 19.0845L31.458 19.005L31.3756 19.0886H31.0928C31.0425 18.787 31.115 18.5849 31.3055 18.423C31.4959 18.2612 31.5772 18.042 31.5532 17.7803C31.5421 17.6582 31.5766 17.5314 31.59 17.4069L31.597 17.2743C31.5938 17.2674 31.5934 17.2594 31.5959 17.2522C31.5984 17.245 31.6036 17.2391 31.6105 17.2357L31.7858 17.2941C31.7706 17.4069 31.7589 17.4969 31.7413 17.6319L32.0563 17.6003V16.6829C32.0066 16.2967 32.1562 15.9975 32.4712 15.7615C32.4799 15.5955 32.4887 15.4261 32.4974 15.256H32.9883C33.0225 14.8155 33.0596 14.3447 33.0993 13.8438L33.3202 13.9174C33.2763 14.0191 33.2436 14.0927 33.1951 14.2055L33.4388 14.2417C33.4727 14.0559 33.5188 13.9063 33.5217 13.7555C33.5247 13.6048 33.4803 13.4634 33.4569 13.3196L33.52 12.7867L33.9641 12.8569C34.0015 12.352 34.0365 11.8828 34.071 11.413H34.1879C34.1978 11.5369 34.2077 11.6608 34.2212 11.8308L34.4204 11.8127C34.4707 11.3172 34.5157 10.8714 34.5607 10.4226L34.9539 10.4472C34.9282 10.1205 34.9048 9.82486 34.8809 9.52979C34.9031 9.29606 34.9229 9.06234 34.9475 8.82861C34.9603 8.70298 34.9802 8.57794 35.0059 8.4079L35.1905 8.52477C35.1905 8.68721 35.083 8.87535 35.3454 9.03662V8.53003C35.3711 8.2852 35.3951 8.04037 35.4231 7.79555C35.4324 7.71257 35.4511 7.63077 35.4663 7.54838L35.9338 7.59279C35.8666 7.48352 35.8444 7.44788 35.8596 7.47184C35.8012 7.41341 35.7865 7.40698 35.7877 7.40289C35.835 7.27259 35.8835 7.14287 35.9315 7.01315L35.9244 6.61933L36.1506 6.64737C36.1856 6.83201 36.2125 6.97634 36.24 7.12125L36.3644 7.1119C36.4034 6.60004 36.4412 6.08838 36.4778 5.57691L36.5981 5.57399C36.6122 5.71481 36.6262 5.85504 36.6443 6.04144L36.836 6.05079C36.8944 5.4133 36.9476 4.81555 37.0019 4.21839L37.1234 4.21254L37.2199 4.65662H37.2941C37.3256 4.40653 37.3677 4.15645 37.3846 3.90519C37.3851 3.75659 37.3746 3.60816 37.3531 3.46112C37.3636 3.36178 37.3741 3.26245 37.3841 3.16312L37.7685 3.25953C37.804 3.19222 37.8303 3.1205 37.8468 3.04626C37.8749 2.75001 37.8977 2.45318 37.9053 2.15635C37.9053 2.08681 37.8468 2.01553 37.8141 1.94541C37.8246 1.88406 37.8351 1.8227 37.8462 1.76135L38.2944 1.81102C38.3359 1.46043 38.375 1.13205 38.4154 0.790809C38.9278 0.790809 39.4023 0.790809 39.8761 0.790809C41.1227 0.783408 42.368 0.774449 43.6122 0.763931L43.6602 0.822363C43.5813 1.14549 43.6274 1.45342 43.7186 1.75726L43.8238 1.75434C43.8366 1.61469 43.8495 1.47504 43.8641 1.31318L44.106 1.37162C44.106 1.43005 44.106 1.48439 44.106 1.54048L44.0119 1.64975L44.1136 1.71928C44.1323 2.04124 44.1516 2.36203 44.172 2.69567H44.4057C44.3976 2.57472 44.3905 2.47363 44.3824 2.35443L44.5728 2.30593C44.597 2.61289 44.6212 2.92004 44.6453 3.22739V3.75736L45.0047 3.59901C45.0436 3.94454 45.0826 4.28948 45.1215 4.63383C45.1011 4.81731 45.0806 5.00136 45.0572 5.21288L45.4663 5.16497C45.5171 5.65579 45.5656 6.13025 45.6147 6.6053L45.7508 6.62575C45.7806 6.53518 45.804 6.44228 45.842 6.35521C45.88 6.26815 45.9337 6.18343 45.9805 6.09812C46.0085 6.33184 46.0389 6.56206 46.064 6.79462C46.0757 6.89804 46.0839 7.00205 46.0932 7.10547C46.0112 7.41492 46.0219 7.74167 46.1242 8.04505H46.2294C46.2358 7.92409 46.2422 7.80314 46.2504 7.65064L46.431 7.61149C46.4713 8.10114 46.5087 8.55983 46.5478 9.0524L46.9609 9.01325C46.9954 9.47778 46.972 9.94815 47.1245 10.3817L47.2239 10.3654V10.0381L47.4693 9.98555C47.4693 10.2356 47.4679 10.4859 47.4652 10.7364C47.4856 10.9701 47.5061 11.2038 47.5271 11.4463L47.8777 11.4019C47.9297 11.8694 47.98 12.3228 48.0361 12.8212L48.2114 12.8072C48.2295 12.6383 48.2417 12.5185 48.2546 12.3982L48.3434 12.4028L48.441 12.6301C48.441 12.6681 48.441 12.7067 48.441 12.747C48.4182 13.2519 48.4305 13.7526 48.5503 14.2423L48.6262 14.2382V13.9034L48.8407 13.7801C48.8763 14.282 48.909 14.7395 48.9447 15.2409L49.4302 15.1994C49.4501 15.3747 49.4706 15.55 49.4887 15.7252C49.4723 15.9076 49.4559 16.0893 49.4413 16.2511H49.8883C49.8942 16.4007 49.9 16.5509 49.9053 16.7005C49.9111 17.0283 49.9164 17.3566 49.9216 17.6938L50.3207 17.6383C50.3593 17.9889 50.3955 18.3254 50.4317 18.6649C50.3509 18.6819 50.2692 18.6942 50.1869 18.7017C49.2047 18.7017 48.2225 18.7047 47.2402 18.6982C47.1298 18.6982 47.0194 18.648 46.8651 18.6106L46.6092 18.641C46.5905 18.3663 46.5677 18.1151 46.5566 17.8627C46.5356 17.4005 46.4911 17.2731 46.3229 17.2199C46.2839 17.3757 46.2432 17.5335 46.2007 17.6932L46.109 17.6739C46.0599 17.0507 46.0106 16.4292 45.9612 15.8094L45.8548 15.8146C45.8548 15.8894 45.8741 15.9712 45.8496 16.0373C45.825 16.1033 45.7572 16.1541 45.655 16.271C45.6077 15.6966 45.5691 15.2192 45.534 14.7921L45.042 14.7284V14.549C45.0742 14.521 45.135 14.4906 45.1338 14.4643C45.125 14.2621 45.111 14.06 45.0847 13.859C45.0596 13.6702 45.0175 13.4832 44.983 13.2951L44.8662 13.2998C44.8592 13.4365 44.8527 13.5732 44.844 13.7532L44.6342 13.797L44.5956 13.3039C44.5915 13.2139 44.588 13.1239 44.584 13.0345L44.5804 12.9176C44.7031 12.5805 44.5769 12.2708 44.4706 11.9535C44.4262 12.0815 44.3818 12.2089 44.338 12.3368L44.2369 12.3193C44.1956 11.8592 44.1545 11.3996 44.1136 10.9403C43.895 10.8819 43.8547 10.8994 43.6537 11.1466L43.59 10.4086V9.93413L43.2038 9.99256C43.1649 9.65755 43.1273 9.32235 43.091 8.98696C43.0992 8.82627 43.108 8.66617 43.1167 8.49614L42.6697 8.53645C42.651 8.22015 42.6316 7.90423 42.6113 7.5887C42.6207 7.40932 42.63 7.22993 42.6376 7.07684H42.2035C42.1953 6.92375 42.1877 6.77066 42.1795 6.61757C42.1742 6.26698 42.1725 5.9164 42.1626 5.56581C42.1585 5.43843 42.1339 5.31105 42.1193 5.18367H42.0188C42.0077 5.29177 41.9972 5.39986 41.9838 5.52841L41.8126 5.56932C41.7822 5.11355 41.7541 4.68058 41.7196 4.19209L41.2691 4.13015C41.2522 3.97765 41.2329 3.80235 41.206 3.55461L40.6428 3.73399V4.14827L40.2004 4.12548C40.2308 4.31889 40.2554 4.47607 40.2805 4.63675L40.2478 5.15212C40.1093 5.231 40.1058 5.31222 40.2478 5.39519L40.2074 5.62541L40.0047 5.55997C39.9872 5.37766 39.9749 5.25145 39.9626 5.12524L39.8195 5.13342V6.15246C39.8113 6.30827 39.8029 6.46253 39.7943 6.61523L39.3269 6.58952C39.2872 7.08444 39.2503 7.54604 39.21 8.0205L38.8144 7.9796V8.96592L38.7414 9.94056C38.6969 9.86168 38.6565 9.78055 38.6205 9.69748C38.5848 9.60575 38.562 9.50817 38.5351 9.41351L38.4136 9.42578C38.3055 9.76252 38.2816 10.1207 38.3441 10.4688C38.3382 10.6032 38.333 10.7381 38.3277 10.8725L37.8112 10.9164L37.8977 11.4101L37.8696 12.1604L37.7779 12.2696L37.8918 12.3088L37.8807 12.3222L37.8942 12.3117L37.9806 12.4338L38.0975 12.3275L38.2728 12.3432C38.3528 12.376 38.4311 12.4344 38.5118 12.4367C38.8215 12.4473 39.1323 12.4467 39.442 12.4367C39.6005 12.4242 39.7583 12.4035 39.9147 12.3748L40.4622 12.3614L40.6959 12.3713L40.7807 12.4069C40.7608 12.5185 40.7409 12.6301 40.7222 12.7546C40.7731 12.8078 40.8239 12.861 40.8233 12.861H41.1973C41.2101 13.1157 41.2177 13.3716 41.2393 13.6258C41.2554 13.725 41.2796 13.8228 41.3118 13.918C41.2943 14.0635 41.2773 14.2101 41.2586 14.3661L41.6618 14.2627ZM35.1602 18.8122C35.1602 18.78 35.1602 18.7479 35.1602 18.7163H32.0691C32.0691 18.7479 32.0691 18.78 32.0691 18.8122H35.1602Z" fill="#1D212C"/>
<path d="M61.1328 18.6863L60.5035 18.6121C60.5128 18.4731 60.5222 18.3334 60.5333 18.171H59.9437L59.5254 18.1301C59.5417 17.9986 59.5581 17.8677 59.5838 17.686L59.076 17.6451L59.0865 17.1864L59.4845 17.2507C59.7024 16.9533 59.5429 16.5454 59.6457 16.2024L60.0337 16.224C60.0553 15.8945 60.0746 15.6023 60.098 15.2512L60.9686 15.3271C60.9236 15.4381 60.895 15.5106 60.8634 15.5889L60.5841 15.4282V15.6742L61.9181 15.8647L61.9304 15.9366L61.5319 16.0745C61.5424 16.1054 61.5523 16.1364 61.5628 16.1674C62.0887 16.2083 62.6193 16.2527 63.1475 16.2842C63.2281 16.2895 63.3117 16.2503 63.3935 16.2322L64.3284 16.2445C64.27 16.3064 64.2168 16.4116 64.1496 16.4198C63.979 16.4461 63.799 16.4198 63.6272 16.4344C63.418 16.4519 63.21 16.4928 63.002 16.5209C63.0353 16.6015 63.0651 16.6301 63.0967 16.6325C63.6453 16.6734 64.1946 16.7423 64.7433 16.7441C65.8283 16.7441 66.914 16.7149 67.9985 16.6892C68.0803 16.6892 68.1609 16.6255 68.2421 16.5916C68.2369 16.5635 68.2322 16.5331 68.2275 16.5074C68.1747 16.4755 68.1171 16.4524 68.0569 16.4391C67.8664 16.4285 67.673 16.4472 67.486 16.421C67.4194 16.4122 67.3692 16.3041 67.3107 16.2422H68.1527L68.2918 16.1697C68.4735 16.2831 68.6424 16.2649 68.806 16.1358C68.7873 16.0014 68.7698 15.8799 68.7528 15.7589L68.9345 15.7256L69.3143 15.8051L69.3295 15.7285L69.6725 15.7572C69.6836 15.5275 69.693 15.3306 69.7017 15.1337L69.6912 15.0169V14.8416C69.671 14.3211 69.6515 13.8009 69.6328 13.2809V12.8748L69.2355 12.8309C69.2495 12.7001 69.2623 12.5814 69.2769 12.443L69.1396 12.2992L68.7797 12.3354C68.7604 12.1701 68.7458 12.0433 68.73 11.9054L67.7659 11.7885C67.784 11.6647 67.7975 11.5735 67.8173 11.4409L66.6884 11.317L66.8228 10.9787L65.3568 10.8034C65.386 10.7146 65.4053 10.6567 65.4152 10.6205L65.7506 10.5743C65.7471 10.5317 65.7436 10.489 65.7407 10.4464H64.3448L63.9094 10.4171C63.9322 10.3336 63.955 10.25 63.9679 10.1974L64.4067 10.1723C64.4067 10.1285 64.4067 10.0847 64.4067 10.0408L62.9261 9.86555C62.9366 9.73993 62.9459 9.63183 62.9564 9.50971L61.9006 9.38057L62.0496 9.04401L61.0563 8.92715C61.0124 8.72205 60.9815 8.57948 60.9511 8.43808L60.5678 8.49067C60.5391 8.31537 60.5134 8.15118 60.4854 7.97472L60.0436 8.03315C60.0133 7.845 60.2388 7.61478 60.0033 7.48974H59.5411L59.5493 7.26478C59.6469 7.0591 59.5896 6.68047 59.4395 6.53205L59.0976 6.57938L59.0912 4.17435L59.3875 4.21058V5.16418H59.4529L59.5055 4.29355H59.5569L59.5762 3.16057C59.7415 3.14771 59.9268 3.32885 60.0261 3.17868C60.0787 2.9695 60.112 2.83744 60.143 2.71123L60.5023 2.74804V2.21924L60.5052 2.21632L60.9178 2.28176L61.0586 2.1649L60.933 1.83301L61.5488 1.72433V1.3603L62.5527 1.26915C62.5387 1.0775 62.5276 0.93726 62.517 0.797025L63.411 0.748527C63.5863 0.778327 63.7786 0.86539 63.9615 0.611799L63.4812 0.483834L63.8656 0.366972C64.3979 0.348858 64.9302 0.315552 65.4625 0.315552C66.6662 0.315552 67.8705 0.330744 69.0748 0.341262C69.1032 0.345853 69.131 0.354305 69.1572 0.366387C69.1817 0.427739 69.2068 0.489093 69.2314 0.549862L69.1946 0.5931L69.1145 0.67023L69.2133 0.728661L70.5659 0.79761C70.5624 0.868896 70.5595 0.939597 70.5554 1.02549L70.1972 0.98342C70.2025 1.09035 70.2066 1.17975 70.2095 1.23818L71.644 1.38192C71.5978 1.50872 71.5663 1.59403 71.5213 1.71849L72.1553 1.81081C72.1085 2.28527 72.0653 2.72233 72.0203 3.18044L71.6265 3.13603V4.16968L71.1006 4.21993L70.1265 4.16676C70.1406 3.97861 70.1493 3.86233 70.1569 3.75774L69.1753 3.63094C69.1893 3.51408 69.2039 3.39722 69.2249 3.21842L68.7441 3.24354L65.3504 3.20615L65.0863 3.21374H63.9457C63.9328 3.42468 63.9246 3.56433 63.917 3.69989C63.7377 3.7256 63.5203 3.60172 63.3877 3.81383L63.4993 4.14864C63.2071 4.22752 63.4064 4.47702 63.3304 4.63128L62.9646 4.59038C62.8793 5.09172 62.9313 5.57845 62.9775 6.08213L63.3281 6.0237C63.3637 6.21068 63.3958 6.38364 63.4338 6.58581H63.9457C63.9523 6.58414 63.9592 6.58486 63.9653 6.58786C63.9714 6.59086 63.9763 6.59593 63.979 6.60217C63.9457 6.72721 63.913 6.85225 63.8709 7.01119L64.9191 7.17304C64.8771 7.30276 64.8502 7.3869 64.8023 7.54291H65.8441L66.2835 7.56745L66.2298 7.75852L65.809 7.84734C65.809 7.88882 65.809 7.93031 65.812 7.9718L67.337 8.10268L67.1787 8.45327L68.7107 8.6198C68.702 8.74484 68.6956 8.84476 68.685 9.00545L69.6784 8.9587L69.9869 8.98499L70.1768 9.04693C70.1493 9.11121 70.1184 9.17606 70.0932 9.24034C70.078 9.2193 70.0623 9.19885 70.0465 9.17782L69.6959 9.28416C69.7012 9.33324 69.7064 9.38174 69.7123 9.43083L71.0895 9.56346L71.1339 9.95495L71.6405 9.98066L72.0863 10.0075C72.1091 10.1612 72.1313 10.3149 72.1523 10.4551L72.5415 10.4078C72.5499 10.4117 72.5565 10.4186 72.5602 10.4271C72.5638 10.4356 72.5642 10.4452 72.5614 10.454V11.352H73.0025C73.0259 11.546 73.0493 11.7389 73.0761 11.9586L73.4536 11.9235C73.4729 11.9521 73.4922 11.9679 73.4928 11.9819C73.4998 13.0956 73.5033 14.2093 73.5132 15.323C73.5132 15.4919 73.543 15.6602 73.5594 15.8285C73.5541 15.9453 73.5494 16.0587 73.5442 16.1738C73.4413 16.1592 73.3344 16.123 73.2357 16.1381C73.1772 16.1475 73.1334 16.2392 73.0826 16.2942V16.411C73.0436 16.5033 73.0047 16.5959 72.9657 16.6886L72.5988 16.6488V17.2185C72.5996 17.2255 72.5978 17.2325 72.5937 17.2381C72.5896 17.2438 72.5834 17.2476 72.5766 17.2489C72.4053 17.2741 72.209 17.0684 72.0507 17.3074L72.1553 17.5925L71.5172 17.686C71.5382 17.8549 71.5493 17.9443 71.5563 17.9998C71.4395 18.1581 71.176 17.8595 71.1672 18.1862C71.1674 18.193 71.1648 18.1997 71.1601 18.2047C71.1554 18.2098 71.1489 18.2127 71.1421 18.213L70.6273 18.1669C70.6518 18.362 70.6682 18.4923 70.6857 18.6226L70.1768 18.646L69.1835 18.6969L69.1788 18.8201C69.2798 18.8283 69.3796 18.8479 69.4762 18.8786C69.5609 18.9166 69.6281 18.9954 69.7029 19.0539L67.8062 19.1357C67.703 19.1158 67.5986 19.1025 67.4936 19.0959C66.3904 19.0924 65.2873 19.0924 64.1841 19.0959C64.0798 19.1039 63.9762 19.1199 63.8744 19.1439C63.4788 19.19 63.0832 19.2356 62.7058 19.0574L62.5842 19.0679L61.9415 19.058L61.7539 19.0498L61.5202 19.0457C61.5897 18.9925 61.6528 18.9078 61.73 18.8908C61.9444 18.8447 62.1647 18.8266 62.3826 18.7979C62.3826 18.7623 62.3791 18.7272 62.3768 18.6916H61.1994L61.1328 18.6863ZM65.3545 2.9099C66.1216 3.03627 66.905 3.02678 67.6689 2.88185C66.9116 2.71649 65.5975 2.72409 65.3545 2.91224V2.9099ZM70.0126 14.692H70.0769V13.8324H70.0126V14.692Z" fill="#1D212C"/>
<path d="M113.642 19.1467L112.921 19.1175L112.8 19.1286L112.397 19.0702L112.214 18.9311L112.675 18.8101L112.655 18.6734L111.436 18.615L111.399 18.8247L111.277 18.7079L111.175 18.4987V18.1604L110.26 18.0949C110.229 17.915 110.202 17.7648 110.184 17.6503H109.697C109.694 17.6492 109.691 17.6474 109.688 17.6451C109.686 17.6427 109.684 17.6398 109.682 17.6366C109.681 17.6334 109.68 17.63 109.68 17.6265C109.68 17.623 109.681 17.6195 109.683 17.6164C109.724 17.468 109.766 17.3196 109.808 17.1688L110.178 17.2272C110.207 17.0519 110.236 16.886 110.261 16.7241L110.746 16.6657C110.733 16.5296 110.723 16.4279 110.71 16.2824L110.857 16.1322L111.1 16.2251C111.111 16.0662 111.121 15.9371 111.136 15.7343C111.311 15.7495 111.482 15.774 111.654 15.7746C111.742 15.7746 111.829 15.7326 111.92 15.7098L112.178 15.7571C112.16 15.8874 112.142 16.0177 112.114 16.2164H113.128L115.957 16.2456L116.082 16.217L116.482 16.1854L117.002 16.2468C116.991 16.0668 116.983 15.9546 116.974 15.8138H117.469V15.2499C117.635 15.1967 117.855 15.4346 117.991 15.1331L117.933 14.7322C117.939 14.597 117.944 14.4625 117.95 14.3285L118.133 13.8557C118.23 14.2507 118.23 14.2507 118.416 14.3045V0.77124H121.808C121.803 0.790387 121.799 0.80994 121.798 0.829671C121.798 5.1976 121.798 9.56514 121.798 13.9323C121.807 14.0247 121.824 14.1161 121.85 14.2052L121.787 15.2523L121.351 15.2844V16.1568C121.333 16.2643 121.311 16.3718 121.296 16.4799C121.283 16.5728 121.276 16.6663 121.263 16.7785L120.916 16.6914C120.892 16.8667 120.871 17.021 120.849 17.1764L120.318 17.2173C120.349 17.3967 120.37 17.5153 120.391 17.6333C120.389 17.6415 120.384 17.6485 120.377 17.6532C120.369 17.6578 120.361 17.6596 120.352 17.6585H119.806C119.818 17.8186 119.826 17.9354 119.835 18.0675L118.831 18.1534C118.848 18.3135 118.86 18.4321 118.875 18.577L117.434 18.6892L117.429 18.823L117.902 18.9287L117.648 19.0702L116.521 19.1467C116.448 19.1261 116.373 19.1122 116.297 19.1052C115.601 19.1025 114.905 19.1025 114.209 19.1052C114.134 19.1134 114.06 19.1299 113.989 19.1543L113.892 19.1484L113.642 19.1467ZM116.065 16.5932L116.033 16.4688C115.079 16.4185 114.127 16.4145 113.17 16.5547C113.185 16.5786 113.205 16.599 113.228 16.6148C113.251 16.6306 113.278 16.6414 113.305 16.6464C114.129 16.668 114.952 16.6891 115.775 16.6984C115.873 16.6967 115.969 16.6271 116.066 16.5903L116.065 16.5932Z" fill="#1D212C"/>
<path d="M5.46365 0.829683L1.50435 0.787612C1.40969 0.787612 1.31561 0.787612 1.21219 0.787612V18.6722H4.48083C4.50421 18.5998 4.56906 18.4911 4.56965 18.3801C4.56965 14.9474 4.5679 11.5146 4.56439 8.08158C4.56439 7.60887 4.56439 7.13617 4.56439 6.61554L5.09962 6.6395L4.9775 6.97081L5.51156 7.05904C5.50221 7.23842 5.49169 7.42482 5.48176 7.6118L5.01431 7.55336V19.0567H4.52115C4.50362 18.9796 4.48609 18.9019 4.48025 18.8744H1.19349L1.18181 18.9445L1.36119 19.1117L0.75 19.0789V0.434687C1.40326 0.291531 5.14637 0.328927 5.45897 0.493118L4.9886 0.600632L4.99912 0.685941L5.46365 0.829683Z" fill="#1D212C"/>
<path d="M22.4561 19.0658C22.4252 18.9658 22.3936 18.8659 22.3667 18.7783C22.393 18.6357 22.4415 18.4972 22.4421 18.3582C22.4448 12.6708 22.446 6.98354 22.4456 1.29623C22.4456 1.16242 22.4702 1.02862 22.4889 0.836377C22.3656 0.813667 22.2411 0.798253 22.1161 0.790216C20.9194 0.783789 19.7204 0.78262 18.5272 0.779114C18.536 0.673938 18.5448 0.568177 18.5559 0.435538C18.706 0.329193 22.3457 0.301147 22.8476 0.431449C22.8184 0.51968 22.7892 0.606742 22.7606 0.693805L22.8728 0.854491V19.1014L22.4561 19.0658Z" fill="#1D212C"/>
<path d="M121.808 0.771575H118.416V14.3002C118.23 14.2464 118.23 14.2464 118.133 13.8514L117.949 14.3241C117.949 13.3152 117.949 12.3063 117.949 11.2974C117.945 7.86941 117.941 4.43989 117.938 1.00881C117.938 0.891944 117.997 0.775082 118.042 0.608553L118.003 0.460722C118.093 0.301205 121.648 0.316982 121.843 0.460722L121.808 0.771575Z" fill="#1D212C"/>
<path d="M121.851 14.203C121.825 14.114 121.807 14.0226 121.798 13.9301C121.798 9.5626 121.798 5.19506 121.798 0.82752C121.8 0.807788 121.803 0.788235 121.808 0.769089L122.217 0.811742C122.235 0.885896 122.246 0.96162 122.25 1.03787C122.25 5.19116 122.248 9.34426 122.242 13.4972C122.241 13.8905 122.206 14.283 122.138 14.6705C121.98 10.1269 122.085 5.5809 122.026 1.0367L121.938 1.03028C121.93 1.13487 121.917 1.24004 121.916 1.34464C121.911 5.40015 121.905 9.45606 121.898 13.5124C121.895 13.7432 121.864 13.9734 121.851 14.203Z" fill="#1D212C"/>
<path d="M45.046 14.7314L45.538 14.7951C45.5731 15.2245 45.6116 15.6996 45.659 16.274C45.7612 16.1571 45.829 16.1069 45.8535 16.0402C45.8781 15.9736 45.8588 15.8924 45.8588 15.8176L45.9651 15.8124C46.0142 16.4356 46.0635 17.0571 46.113 17.6769L46.2047 17.6962C46.2456 17.5376 46.2863 17.3799 46.3268 17.2229C46.4928 17.2737 46.5372 17.3982 46.5606 17.8656C46.5717 18.1175 46.5944 18.3693 46.6131 18.6439L46.8691 18.6136C47.0233 18.651 47.1338 18.7006 47.2442 18.7012C48.2264 18.7076 49.2087 18.7059 50.1909 18.7047C50.2731 18.6971 50.3549 18.6848 50.4357 18.6679C50.3995 18.3284 50.3633 17.9948 50.3247 17.6413L49.9256 17.6968C49.9204 17.3567 49.9151 17.0283 49.9093 16.7034L50.1804 16.7245L50.0699 16.9109L50.4346 17.2194L50.3492 17.2737C50.4533 17.532 50.5575 17.7903 50.6618 18.0485C50.6455 18.2969 50.6291 18.5452 50.6104 18.8309H47.0111C47.0011 18.9303 46.9935 19.0115 46.9854 19.0921H46.7978C46.7791 19.0179 46.761 18.9437 46.7394 18.8695L46.6447 18.8958C46.6587 18.9636 46.6733 19.0308 46.6879 19.0985C46.3601 19.0985 46.5635 18.8514 46.4916 18.6527L46.0446 18.6089V18.0567L46.2263 18.0158V17.9247L46.044 17.8843C46.0113 17.6418 45.9786 17.3988 45.9418 17.1247L45.6373 17.3C45.5883 16.7706 45.5409 16.2664 45.4919 15.7364L45.1161 15.7948C45.0928 15.4361 45.0723 15.0837 45.046 14.7314Z" fill="#1D212C"/>
<path d="M18.0546 1.70111V2.28192L17.6859 2.25036C17.6445 2.55362 17.6024 2.86097 17.5551 3.20279L17.184 3.1841C17.1133 3.50488 17.042 3.82684 16.9667 4.14938C16.9667 4.14938 16.9152 4.14062 16.8813 4.13419C16.8673 4.00798 16.8539 3.88527 16.8405 3.76198H16.7382C16.6979 4.07634 16.657 4.39128 16.6126 4.73194L16.238 4.70623C16.2117 4.90139 16.1866 5.09246 16.1615 5.28295L16.1831 5.29522C16.1469 5.42377 16.1101 5.55231 16.0662 5.70424L15.7156 5.54472C15.68 5.9105 15.6473 6.24589 15.6134 6.59648L15.2342 6.55499C15.2266 6.69231 15.2196 6.8156 15.2096 7.00024C15.1828 7.12353 15.1424 7.31109 15.0928 7.53898H14.6551L14.6709 7.38063L14.8585 7.26376L14.675 7.1434C14.6896 6.95875 14.7048 6.77411 14.7211 6.57194L15.032 6.61693L15.1705 5.96542L15.2237 5.97302C15.2161 5.87894 15.209 5.78545 15.1997 5.66509H15.5924C15.6274 5.47051 15.6636 5.26658 15.7034 5.04455L16.0277 5.1392C16.0645 4.92301 16.0978 4.72318 16.1317 4.52334H16.1591L16.113 4.20372L16.5635 4.16107C16.5968 3.93844 16.6318 3.70647 16.6663 3.47859L16.9632 3.26824C17.0111 3.02867 17.0496 2.83176 17.0888 2.63426L17.1355 2.64302C17.1414 2.52149 17.1466 2.39995 17.1531 2.25796L17.5036 2.34561C17.5364 2.14577 17.5662 1.96171 17.5995 1.75545L18.0546 1.70111Z" fill="#1D212C"/>
<path d="M43.6116 0.763069C42.3651 0.772418 41.1197 0.781377 39.8755 0.789947C39.4017 0.792869 38.9272 0.789947 38.4147 0.789947C38.3744 1.13119 38.3353 1.4584 38.2938 1.81016L37.8456 1.76049V0.799297L38.1962 0.838446L38.3879 0.682434C38.3657 0.602968 38.3429 0.524085 38.3055 0.393784H43.6397C43.6303 0.521748 43.6216 0.642701 43.6116 0.763069Z" fill="#1D212C"/>
<path d="M94.4069 0.837463C94.1685 0.821102 93.9301 0.791303 93.6917 0.790718C92.3781 0.786044 91.0623 0.790718 89.7505 0.790718C89.5027 0.790718 89.2546 0.790718 89.0061 0.790718C89.03 0.673856 89.0534 0.556992 89.0873 0.391632H94.3928C94.3408 0.517259 94.3122 0.585041 94.276 0.666844L94.4069 0.837463Z" fill="#1D212C"/>
<path d="M64.347 10.447H65.7429C65.7429 10.4896 65.7494 10.5323 65.7529 10.575L65.4175 10.6211C65.4052 10.6573 65.3859 10.7152 65.359 10.804L66.8251 10.9793L66.6907 11.3176L67.8161 11.4432C67.7962 11.5759 67.7828 11.667 67.7647 11.7909L68.7288 11.9078C68.7445 12.0433 68.7592 12.1725 68.7784 12.3378L69.1384 12.3016L69.2757 12.4453C69.2611 12.5838 69.2482 12.7024 69.2342 12.8333L69.6315 12.8771V13.2832L69.281 13.3586C69.2441 13.1781 69.2067 12.9917 69.1676 12.8H68.7212C68.7475 12.6662 68.7656 12.5762 68.7925 12.4383L68.1497 12.3372C68.1661 12.1993 68.1784 12.0983 68.1924 11.9773L66.7427 11.8184L66.8298 11.4941L66.6001 11.3936C66.5752 11.2978 66.5499 11.2019 66.5242 11.1061L66.4137 11.1166C66.3997 11.2095 66.3857 11.303 66.3722 11.3965L65.7184 11.362C65.7599 11.2235 65.7856 11.1376 65.8189 11.0255L64.4107 10.8572C64.3838 10.6912 64.3657 10.5691 64.347 10.447Z" fill="#1D212C"/>
<path d="M63.3911 16.2353C63.3093 16.2534 63.2258 16.2937 63.1452 16.2873C62.6193 16.2528 62.0887 16.2084 61.5605 16.1704C61.55 16.1394 61.54 16.1085 61.5295 16.0775L61.928 15.9396L61.9158 15.8677L60.5818 15.6772V15.4313L60.8611 15.5919C60.8926 15.5136 60.9195 15.4412 60.9663 15.3302L60.0956 15.2542C60.0723 15.6048 60.053 15.897 60.0314 16.2271L59.6434 16.2055C59.5405 16.5485 59.7018 16.9563 59.4821 17.2537L59.0842 17.1894C59.1037 16.8739 59.1231 16.558 59.1426 16.2417L59.2595 16.2323C59.2926 16.3788 59.3261 16.5259 59.36 16.6735L59.4628 16.6688L59.6101 15.2717L60.0985 15.1952C60.0512 15.0643 60.0232 14.9872 59.97 14.8393L60.5648 14.813C60.5315 14.9743 60.5134 15.0643 60.4848 15.2028L61.5319 15.3033C61.512 15.4248 61.4974 15.5166 61.4734 15.6626L62.666 15.7924C62.6958 15.8823 62.7244 15.9624 62.7496 16.0471L62.9599 16.1757L63.3911 16.2353Z" fill="#1D212C"/>
<path d="M63.8744 19.147C63.9762 19.123 64.0798 19.107 64.1841 19.0991C65.2873 19.0963 66.3905 19.0963 67.4936 19.0991C67.5986 19.1056 67.703 19.1189 67.8062 19.1388C67.8542 19.1972 67.8962 19.303 67.9512 19.31C68.1492 19.3369 68.3526 19.3246 68.5524 19.3404C68.6108 19.3445 68.6593 19.3959 68.7049 19.4736C66.7767 19.6653 64.8578 19.6337 62.9103 19.532C62.9974 19.1943 63.2135 19.3982 63.3514 19.3567C63.5151 19.3094 63.6915 19.3071 63.8773 19.2837L63.8744 19.147Z" fill="#1D212C"/>
<path d="M67.3031 16.2476C67.3615 16.3102 67.4147 16.4177 67.4784 16.4264C67.6653 16.4527 67.8587 16.434 68.0492 16.4445C68.1094 16.4579 68.1671 16.481 68.2198 16.5129C68.2245 16.541 68.2292 16.5713 68.2345 16.5971C68.1532 16.6309 68.0726 16.6929 67.9908 16.6946C66.9063 16.7203 65.8207 16.7531 64.7356 16.7496C64.1869 16.7496 63.6377 16.6789 63.089 16.638C63.0574 16.638 63.0276 16.607 62.9943 16.5264C63.2024 16.4966 63.4104 16.4574 63.6196 16.4399C63.7949 16.4247 63.9701 16.4516 64.1419 16.4253C64.2091 16.4147 64.2588 16.3084 64.3207 16.25L67.3031 16.2476Z" fill="#1D212C"/>
<path d="M71.628 4.16981V3.13674L72.0219 3.18115C72.0669 2.72305 72.1101 2.28598 72.1569 1.81152L71.5229 1.7192C71.5679 1.59474 71.5994 1.50943 71.6456 1.38264L70.2111 1.23889C70.2111 1.18046 70.2041 1.09106 70.1988 0.984135L70.557 1.02621C70.5611 0.940312 70.564 0.869611 70.5675 0.798325L71.1571 0.86552C71.1378 0.961932 71.1197 1.04958 71.0934 1.1793L72.5291 1.33355C72.6646 1.68414 72.6342 2.53724 72.4397 2.84517C72.3608 2.69325 72.2988 2.57522 72.2422 2.46537C72.1837 2.99125 72.1195 3.55453 72.0493 4.17039L71.628 4.16981Z" fill="#1D212C"/>
<path d="M40.2811 4.63828C40.256 4.47935 40.2314 4.32042 40.201 4.12701L40.6434 4.1498V3.73552L41.2067 3.55614C41.2335 3.80389 41.2528 3.97918 41.2698 4.13169L41.7203 4.19304C41.753 4.68152 41.7828 5.1145 41.8132 5.57026L41.9844 5.52936C41.9978 5.40081 42.0083 5.29271 42.0194 5.18462H42.1199C42.1345 5.312 42.1591 5.43938 42.1632 5.56676C42.1731 5.91734 42.1749 6.26793 42.1801 6.61852H41.7711L41.6607 6.50925L41.7431 6.48004C41.7074 6.02719 41.6718 5.57494 41.635 5.11099L41.1675 5.18286V4.08377L40.755 4.20063L40.672 4.73528L40.2811 4.63828Z" fill="#1D212C"/>
<path d="M69.6778 8.96565L68.6845 9.01239C68.695 8.85171 68.7014 8.75179 68.7102 8.62675L67.1781 8.46022L67.3365 8.10963L65.8114 7.97875C65.8114 7.93726 65.8114 7.89577 65.8085 7.85429L66.2292 7.76547L66.2829 7.5744L67.3616 7.63283L67.1986 7.90688C67.6567 8.11197 68.1615 7.98517 68.64 8.14469L68.4256 8.39887L69.0859 8.49761L69.707 8.58701C69.6947 8.73894 69.686 8.85229 69.6778 8.96565Z" fill="#1D212C"/>
<path d="M60.0448 8.03264L60.4865 7.97421C60.5146 8.14951 60.5403 8.31311 60.5689 8.49016L60.9522 8.43757C60.9826 8.57898 61.0107 8.72155 61.0574 8.92664L62.0507 9.0435L61.9017 9.38007L62.9605 9.51095C62.95 9.63132 62.9407 9.74117 62.9301 9.8668L64.4108 10.0421C64.4108 10.0859 64.4108 10.1297 64.4108 10.1736L63.972 10.1987C63.9574 10.2513 63.9346 10.3348 63.9135 10.4184H63.2708L63.4239 10.0585L61.9561 9.89602C61.9923 9.78207 62.0145 9.70378 62.0607 9.5688L61.0428 9.39351C60.9955 9.01137 61.3618 9.3117 61.4483 9.10135L60.552 8.96579C60.5239 8.81036 60.4936 8.63507 60.4614 8.46503H60.0477L60.0448 8.03264Z" fill="#1D212C"/>
<path d="M37.35 3.46155C37.3715 3.60859 37.3821 3.75702 37.3816 3.90563C37.3646 4.15688 37.3232 4.40696 37.291 4.65705H37.2168L37.1204 4.21297L36.9989 4.21882C36.9445 4.81598 36.8908 5.41374 36.8329 6.05122L36.6413 6.04187C36.6231 5.85664 36.6091 5.71641 36.5951 5.57442L36.4747 5.57734C36.4358 6.0892 36.398 6.60086 36.3614 7.11233L36.2369 7.12168C36.2095 6.97677 36.1826 6.83245 36.1475 6.6478L35.9214 6.61976C35.9522 6.15698 35.9833 5.6944 36.0149 5.23201L36.0698 5.22851C36.0786 5.33018 36.0616 5.44529 36.1049 5.52943C36.1376 5.59312 36.2474 5.61649 36.3216 5.65739L36.4449 4.66406C36.7955 4.66699 36.6132 4.91532 36.6605 5.04562L36.7394 5.05088C36.8113 4.56765 36.8832 4.08501 36.9591 3.57315L37.256 3.69001C37.2875 3.61522 37.3185 3.53868 37.35 3.46155Z" fill="#1D212C"/>
<path d="M14.1878 8.42302V8.97987L13.7969 9.03363C13.7384 9.3772 13.6888 9.67637 13.6385 9.98021L13.5217 9.9919L13.4124 9.55834H13.3464C13.292 10.0053 13.2371 10.4523 13.1798 10.9215L12.8357 10.8853C12.8076 11.1705 12.7772 11.4562 12.7433 11.8319L12.3928 11.9324L12.3799 11.8857L12.2537 11.9984V10.9525L12.6697 10.9338C12.6861 10.8345 12.7089 10.7001 12.7311 10.5657L12.6726 10.5517C12.7171 10.4786 12.7609 10.4056 12.8088 10.3255V9.95976L13.1681 10.0264C13.1734 9.56535 13.3084 9.16159 13.6835 8.95357C13.7168 8.74381 13.7419 8.59013 13.7624 8.45633L14.1878 8.42302Z" fill="#1D212C"/>
<path d="M73.5582 15.8392C73.5418 15.6709 73.5132 15.5026 73.512 15.3337C73.5021 14.22 73.4986 13.1063 73.4916 11.9926C73.4916 11.9769 73.4717 11.9611 73.4524 11.9342L73.075 11.9693C73.0481 11.7496 73.0247 11.5567 73.0013 11.3627H72.5637V10.4629L73.0165 10.4892C73.0119 10.5926 73.0078 10.6779 73.0037 10.7632L73.0276 10.7592C73.0644 10.9526 73.1013 11.146 73.1445 11.3651H73.5103C73.6645 11.8057 73.4676 12.3245 73.8468 12.685C73.8311 13.3383 73.8112 13.9916 73.8077 14.6442C73.8077 14.6962 73.9199 14.7483 73.983 14.8003V15.3735L73.6634 15.2163C73.6231 15.4354 73.5909 15.6376 73.5582 15.8392ZM72.9645 11.0145L72.8594 11.0063L72.8442 11.205L72.9505 11.2126L72.9645 11.0145Z" fill="#1D212C"/>
<path d="M47.4681 9.98434L47.2227 10.0369V10.3641L47.1234 10.3805C46.9708 9.94636 46.9942 9.47657 46.9598 9.01204L46.5466 9.05119C46.5057 8.55862 46.4683 8.09993 46.4298 7.61028L46.2492 7.64943C46.241 7.80193 46.2346 7.92289 46.2282 8.04384H46.123C46.02 7.73897 46.0094 7.41045 46.0926 7.09959L46.4672 6.96695C46.5215 7.33156 46.5735 7.68156 46.6302 8.06078L46.9492 7.94684C46.9866 8.28399 47.0229 8.61296 47.0661 8.98926L47.4167 9.06054C47.4313 9.35796 47.45 9.67115 47.4681 9.98434Z" fill="#1D212C"/>
<path d="M113.989 19.1529C114.06 19.1285 114.134 19.112 114.209 19.1038C114.905 19.0999 115.601 19.0999 116.297 19.1038C116.373 19.1108 116.448 19.1246 116.521 19.1453C116.516 19.1909 116.512 19.2364 116.507 19.2791L117.091 19.4094C116.746 19.6536 113.389 19.6525 113.018 19.4129L114.009 19.2376C114.002 19.2207 113.996 19.1868 113.989 19.1529Z" fill="#1D212C"/>
<path d="M90.9232 5.12843V4.58326L91.3054 4.63351V3.63609L92.0276 3.71381C92.0276 3.74185 92.0241 3.77224 92.0229 3.79795L92.2771 3.6881C92.2934 3.79269 92.3057 3.87157 92.3262 4.00479L92.0077 3.89085L91.8593 4.10705L92.3437 4.19177C92.3828 4.51957 92.422 4.84854 92.4605 5.19329L92.8164 5.10447C92.8894 5.45506 92.9192 5.79104 92.8363 6.13111L92.4232 6.0867C92.377 5.61925 92.3273 5.12434 92.2753 4.60371L91.9434 4.7048C91.9323 4.54879 91.9224 4.41264 91.9066 4.19703L91.3772 4.16957C91.4281 4.33259 91.4532 4.41148 91.4608 4.43602C91.4111 4.72291 91.3708 4.95839 91.3276 5.2114L90.9232 5.12843Z" fill="#1D212C"/>
<path d="M83.6545 14.7873C83.7526 15.1343 83.7129 15.4703 83.6498 15.7806H83.1788V16.7155L82.8317 16.6851C82.7114 17.1672 82.8428 17.7047 82.5892 18.2505L82.2807 17.6498V17.1309L82.6471 17.2776C82.6711 16.9422 82.6933 16.6349 82.7155 16.3322H82.6915C82.7318 16.1224 82.7727 15.9126 82.8119 15.7087L83.1584 15.7543C83.2034 15.4037 83.2448 15.0794 83.2822 14.789L83.6545 14.7873Z" fill="#1D212C"/>
<path d="M96.7368 17.2991L97.1107 17.1139C97.1627 17.6216 97.2124 18.1072 97.265 18.6144H97.5817C97.5817 18.636 97.5817 18.6582 97.5788 18.6798H101.206V18.8242C100.042 18.9042 98.8724 18.8656 97.6758 18.8405L97.7342 19.097L97.1663 19.1584C97.1312 18.764 97.1026 18.4444 97.0716 18.0984L96.7999 18.2153C96.7152 17.9091 96.6731 17.61 96.7368 17.2991Z" fill="#1D212C"/>
<path d="M117.647 19.0672L117.902 18.9258L117.429 18.82L117.434 18.6862L118.874 18.574C118.86 18.4291 118.848 18.3105 118.831 18.1504L119.835 18.068C119.826 17.933 119.818 17.8162 119.806 17.659H120.35C120.341 17.7881 120.332 17.9178 120.321 18.0832H119.932L119.795 18.2299V18.5466L118.759 18.7043C118.818 18.8212 118.853 18.8896 118.935 19.0549L117.647 19.0672Z" fill="#1D212C"/>
<path d="M111.918 15.7083C111.829 15.7311 111.742 15.7732 111.651 15.7732C111.48 15.7732 111.309 15.7481 111.134 15.7329C111.118 15.9356 111.109 16.0648 111.097 16.2237L110.857 16.1378L110.709 16.288C110.723 16.4335 110.733 16.5351 110.746 16.6713L110.26 16.7297C110.233 16.8916 110.206 17.0552 110.177 17.2328L109.808 17.1744C109.766 17.3251 109.724 17.4735 109.682 17.622L109.303 17.6763C109.295 17.5244 109.287 17.39 109.278 17.2275L109.654 17.2527L109.735 16.7618L110.193 16.6356C110.212 16.4411 110.223 16.3166 110.235 16.1927H110.621C110.676 15.9707 110.723 15.7755 110.771 15.5804L110.829 15.5909C110.81 15.5102 110.791 15.4302 110.761 15.3057L111.761 15.252C111.724 15.4273 111.703 15.5173 111.682 15.6248L111.918 15.7083ZM110.892 15.7779L110.78 15.8678L110.974 16.0911L111.073 16.0069L110.892 15.7779Z" fill="#1D212C"/>
<path d="M38.8108 8.96762V7.9813L39.2063 8.0222C39.2449 7.54774 39.2817 7.0873 39.3232 6.59122L39.7907 6.61693C39.769 7.07678 39.7474 7.53722 39.724 8.02979L39.3892 7.91293C39.3308 8.31202 39.2759 8.69241 39.2198 9.07571L38.8108 8.96762Z" fill="#1D212C"/>
<path d="M34.8832 9.53088C34.9072 9.82596 34.9305 10.1216 34.9562 10.4483L34.563 10.4237C34.518 10.8725 34.473 11.3183 34.4228 11.8138L34.2235 11.8319C34.2101 11.6619 34.2001 11.5398 34.1902 11.4141H34.0733C34.0389 11.8816 34.0038 12.3531 33.9664 12.858L33.5223 12.7878C33.5311 12.4723 33.5399 12.1562 33.5498 11.7945L33.9167 11.9634C33.9577 11.5707 33.9956 11.2096 34.0336 10.821L34.3713 10.9438C34.4 10.6458 34.4257 10.3717 34.4631 9.97905L34.8832 9.53088ZM33.6889 12.4688L33.6234 12.4776L33.6544 12.5594L33.693 12.55C33.6918 12.5231 33.69 12.4957 33.6889 12.4688Z" fill="#1D212C"/>
<path d="M18.6527 18.6831V9.4019H18.7486C18.7708 12.4485 18.7902 15.4949 18.807 18.5411C18.8099 18.575 18.7363 18.6095 18.6527 18.6831Z" fill="#1D212C"/>
<path d="M46.9832 19.0886C46.9913 19.008 46.9989 18.9268 47.0089 18.8274H50.6082C50.6269 18.5417 50.6433 18.2934 50.6597 18.045C50.7181 18.0953 50.8285 18.1409 50.8349 18.1975C50.8682 18.4967 50.8758 18.7994 50.8934 19.1073C50.3505 19.1073 49.8767 19.1073 49.4022 19.1073C48.5959 19.1021 47.7895 19.0945 46.9832 19.0886Z" fill="#1D212C"/>
<path d="M49.4301 15.1961L48.9446 15.2376C48.9089 14.7368 48.8762 14.2793 48.8406 13.7768L48.6261 13.9001V14.2384L48.5502 14.2425C48.4333 13.7529 48.4181 13.2521 48.4409 12.7473C48.4777 12.801 48.5139 12.8548 48.5624 12.9226L48.8219 12.7087C48.8902 13.2486 48.9568 13.7739 49.027 14.3237L49.374 14.1806C49.3962 14.5335 49.412 14.8648 49.4301 15.1961Z" fill="#1D212C"/>
<path d="M44.5827 13.0374C44.5868 13.1268 44.5903 13.2168 44.5944 13.3068C44.5675 13.2664 44.5401 13.2267 44.5436 13.232L44.1422 13.2904C44.1036 12.7645 44.0697 12.3088 44.0323 11.8062L43.6729 11.9961C43.6653 11.6876 43.6589 11.4183 43.6525 11.1495C43.8535 10.9029 43.8938 10.8848 44.1123 10.9438C44.1513 11.4038 44.1924 11.8635 44.2356 12.3228L44.3367 12.3403C44.3805 12.2123 44.425 12.085 44.4694 11.957C44.5757 12.2743 44.7031 12.584 44.5792 12.9211C44.4039 12.9077 44.4039 12.9077 44.4624 13.1069L44.5827 13.0374ZM43.7828 11.2535L43.7968 11.264V11.2482L43.7828 11.2535Z" fill="#1D212C"/>
<path d="M94.282 10.4131L94.6723 10.3851C94.9902 10.6632 94.6437 11.133 94.892 11.4643L95.2251 11.4164V12.3688H94.6916C94.7109 12.0457 94.7302 11.722 94.75 11.3463L94.341 11.4813C94.3235 11.1079 94.303 10.7602 94.282 10.4131ZM94.4106 10.7777L94.4649 10.7731C94.4573 10.7421 94.4503 10.7117 94.4433 10.6807L94.4106 10.6854V10.7777Z" fill="#1D212C"/>
<path d="M88.5003 2.29781C88.5003 2.5812 88.5078 2.86576 88.4938 3.14856C88.4806 3.31156 88.4355 3.47037 88.3612 3.61601C88.3156 3.48221 88.27 3.34898 88.2239 3.21518L88.1263 3.23796L88.0094 4.73906L87.6548 4.61285C87.6504 4.72022 87.6377 4.82708 87.6168 4.93247C87.5864 5.00865 87.5471 5.08101 87.4999 5.14808C87.5309 4.65434 87.5624 4.16001 87.5934 3.67445H87.9761C87.9913 3.38229 88.0042 3.12285 88.0199 2.80732L88.1502 2.64255L88.4114 2.77402C88.4436 2.60165 88.4722 2.44973 88.5003 2.29781Z" fill="#1D212C"/>
<path d="M88.5136 12.3961V11.3566L88.873 11.394C88.9373 10.7869 89.0021 10.1763 89.0664 9.5657L89.1646 9.57505V9.89292L89.4836 9.9385C89.461 10.2669 89.4384 10.5953 89.4158 10.9236L89.2855 10.9318L89.1873 10.4837L89.1149 10.4936C89.0424 11.1019 88.9694 11.7107 88.8958 12.3277C88.5218 12.3739 88.8689 11.9725 88.6165 11.9439C88.5837 12.0864 88.5487 12.2413 88.5136 12.3961Z" fill="#1D212C"/>
<path d="M93.347 8.02103L93.7765 7.9626C93.8226 8.3389 93.8653 8.69299 93.9114 9.07279L94.2497 8.96353C94.2942 9.42163 94.338 9.85577 94.3754 10.2899C94.3754 10.3074 94.3169 10.3302 94.2871 10.3483C94.2597 10.2192 94.2322 10.0895 94.2042 9.96037L94.1118 9.94985C94.0885 10.0667 94.0645 10.1836 94.0312 10.3483L93.9243 10.3846C93.8606 9.86746 93.7992 9.3743 93.7385 8.88114L93.6935 8.88874L93.7075 8.57321L93.5965 8.56912C93.6042 8.64477 93.6028 8.72108 93.5924 8.79641C93.5663 8.86422 93.5313 8.92828 93.4884 8.9869L93.3785 8.96879L93.347 8.02103ZM94.0482 9.19725L93.9453 9.20426C93.95 9.27088 93.9541 9.33749 93.9582 9.40352L94.0628 9.3965C94.0552 9.33048 94.0499 9.26386 94.0452 9.19725H94.0482Z" fill="#1D212C"/>
<path d="M85.6196 9.88211C85.6558 10.245 85.671 10.6049 85.553 10.9847L85.2672 10.8813C85.2386 10.9345 85.1936 10.9824 85.1895 11.0332C85.1562 11.3955 85.1358 11.7589 85.1007 12.1206C85.0937 12.1954 85.0423 12.2661 85.0002 12.3654C84.8027 12.1714 85.0364 11.8361 84.6777 11.8203C84.6777 11.7373 84.6742 11.6543 84.6718 11.5714L84.8161 11.6052C84.8267 11.5836 84.8366 11.562 84.8471 11.541L84.6905 11.4481L84.7291 10.9251L84.8208 10.9158C84.8553 11.0659 84.8904 11.2161 84.9248 11.3663H85.03C85.0832 10.9076 85.1363 10.4483 85.1942 9.95456L85.4969 9.99781L85.6196 9.88211Z" fill="#1D212C"/>
<path d="M33.4593 13.322C33.4826 13.4675 33.5259 13.6142 33.5241 13.7579C33.5224 13.9017 33.475 14.0583 33.4411 14.2441L33.1975 14.2079C33.246 14.0957 33.2787 14.0215 33.3225 13.9198L33.1017 13.8462C33.0627 14.3471 33.0257 14.8179 32.9906 15.2584H32.4998L32.6138 14.2388L32.9123 14.3791C32.962 13.9952 33.0088 13.6346 33.0555 13.2689L33.4593 13.322Z" fill="#1D212C"/>
<path d="M63.9457 6.5889H63.4368C63.3988 6.38673 63.3666 6.21377 63.331 6.02679L62.9804 6.08522C62.9342 5.58155 62.8822 5.09482 62.9676 4.59348L63.3333 4.63438C63.3407 4.97679 63.3481 5.31919 63.3555 5.6616C63.1709 5.71302 63.1709 5.71302 63.258 5.91461L63.3608 5.66744C63.397 5.79541 63.4332 5.92396 63.4777 6.0712H63.8715C63.8937 6.24357 63.9206 6.41595 63.9457 6.5889Z" fill="#1D212C"/>
<path d="M62.5189 0.799606C62.5294 0.939841 62.5405 1.08008 62.5545 1.27173L61.5501 1.36055V1.72457L60.9342 1.83326L61.0598 2.16514L60.919 2.28201L60.5065 2.21656V1.79936L61.0581 1.70763C61.023 1.57733 60.9997 1.48734 60.9599 1.3436L61.9696 1.18525C61.9503 1.07599 61.9346 0.985418 61.9059 0.825316L62.5189 0.799606Z" fill="#1D212C"/>
<path d="M89.52 9.4221C89.4978 9.36367 89.4534 9.29998 89.4563 9.24097C89.4773 8.84948 89.5083 8.45799 89.5364 8.0665L89.6088 8.06183C89.6152 8.16291 89.6217 8.264 89.6316 8.41241L89.7765 8.54797L89.8671 8.54038C89.8992 8.25173 89.9314 7.96249 89.9723 7.59379C89.9641 7.60314 90.0137 7.54763 90.0546 7.50089L90.4163 7.54296V8.04488L90.0476 7.99054C90.0062 8.44046 89.9653 8.88045 89.9197 9.37536L89.8192 9.53721L89.52 9.4221Z" fill="#1D212C"/>
<path d="M87.0481 6.09266C87.0405 6.42455 87.0388 6.75761 87.0218 7.0895C87.0154 7.20636 86.9733 7.32615 86.9395 7.48157C86.881 7.32264 86.8354 7.1976 86.7899 7.07256L86.687 7.08541C86.6444 7.37757 86.6011 7.66972 86.5485 8.02732L86.1191 7.96597V7.49852L86.4866 7.57273C86.545 7.07373 86.6081 6.58816 86.6718 6.07104L86.9359 6.21771L87.0481 6.09266Z" fill="#1D212C"/>
<path d="M65.8431 7.5483H64.8012C64.8515 7.39229 64.8784 7.30815 64.9181 7.17843L63.8698 7.01658C63.9119 6.85531 63.9446 6.73026 63.9779 6.60756H64.8234L64.8415 6.75773L64.4132 6.86466L64.4185 6.95464L65.2471 7.05456V7.06858L65.7829 7.13227C65.8057 7.27952 65.8244 7.41391 65.8431 7.5483ZM64.1608 6.70105C64.1608 6.72793 64.1643 6.75481 64.1655 6.78168L64.311 6.75714L64.3057 6.69871L64.1608 6.70105Z" fill="#1D212C"/>
<path d="M109.697 17.6521H110.182C110.202 17.769 110.228 17.9168 110.259 18.0968L111.173 18.1616V18.5L111.276 18.7091L110.268 18.5666C110.247 18.4304 110.225 18.2925 110.209 18.1873L109.655 18.1009C109.674 17.9145 109.686 17.7836 109.697 17.6521Z" fill="#1D212C"/>
<path d="M10.7781 10.4586C10.7083 10.5728 10.6386 10.6863 10.5689 10.7993L10.6273 10.8636L10.3936 10.9354L10.2335 9.8562L9.85076 10.007C9.84433 9.63124 9.8379 9.29059 9.83206 8.95052L10.2849 9.06095C10.3094 9.31863 10.2931 9.59443 10.3726 9.83867C10.431 10.0245 10.6168 10.1694 10.7407 10.3365C10.7599 10.3748 10.7726 10.4161 10.7781 10.4586ZM10.237 9.56404L10.1166 9.54418L10.0909 9.7592L10.1932 9.77556L10.237 9.56404Z" fill="#1D212C"/>
<path d="M8.37159 6.08967L7.99237 6.28542C7.93102 6.05169 7.86791 5.81271 7.80539 5.57431L7.44312 5.61521V4.68031H7.83285C7.87609 4.99876 7.91933 5.32306 7.96432 5.65962L8.37334 5.57139L8.37159 6.08967Z" fill="#1D212C"/>
<path d="M48.4422 12.6295L48.3446 12.4022L48.2558 12.3976C48.2429 12.5173 48.2306 12.6371 48.2125 12.8066L48.0372 12.8206C47.9788 12.3222 47.9309 11.8693 47.8789 11.4013L47.5283 11.4457C47.5073 11.2015 47.4868 10.9683 47.4664 10.7358L47.6533 10.8228L47.9221 10.7346C47.9806 11.1436 48.039 11.5269 48.0974 11.9319L48.4252 11.7087C48.4293 12.0639 48.4357 12.3467 48.4422 12.6295Z" fill="#1D212C"/>
<path d="M13.6866 16.2509V15.2079H14.2095C14.2247 15.0267 14.2358 14.897 14.2492 14.7404L14.6121 14.845V15.3294L14.258 15.202V15.5824L14.2417 15.5766C14.2054 15.7665 14.1686 15.9564 14.1324 16.1468L13.6866 16.2509Z" fill="#1D212C"/>
<path d="M84.6105 12.6226C84.6227 12.8616 84.635 13.1012 84.6496 13.3904L84.2815 13.2507C84.2073 13.7445 84.1354 14.2236 84.0641 14.7033H83.9969C83.9847 14.6531 83.9695 14.604 83.9607 14.5532C83.9519 14.5023 83.9502 14.4585 83.942 14.3779L83.6861 14.3037V13.7328L84.0717 13.7942C84.1179 13.3472 84.1623 12.9177 84.2131 12.4245H84.5053C84.4948 12.5765 84.4883 12.6729 84.4819 12.7693L84.5357 12.7827L84.6105 12.6226ZM84.3347 13.0258H84.3826C84.3826 13.0024 84.3867 12.979 84.3884 12.9557L84.3195 12.9598C84.3241 12.9808 84.3294 13.003 84.3347 13.0258Z" fill="#1D212C"/>
<path d="M97.6605 8.08173L97.4496 8.10394C97.4689 8.20444 97.4847 8.28566 97.5045 8.392L97.2533 8.60411C97.1873 8.05953 97.1294 7.58623 97.0704 7.09717L96.6806 7.1258C96.6941 6.86169 96.7069 6.6192 96.7198 6.37671C96.7514 6.46611 96.7835 6.55551 96.8191 6.65659L97.0943 6.45033C97.1528 6.86636 97.2001 7.23915 97.2509 7.61896L97.6337 7.56052C97.6436 7.74867 97.6518 7.9152 97.6605 8.08173Z" fill="#1D212C"/>
<path d="M96.7185 6.15706H96.3563L96.2692 6.20205C96.2248 5.69428 96.1804 5.1871 96.1342 4.6618L95.7772 4.69394V4.18851H96.1997C96.2301 4.53909 96.2581 4.84118 96.2751 5.05095C96.462 5.31097 96.597 5.49853 96.7174 5.66682L96.7185 6.15706Z" fill="#1D212C"/>
<path d="M45.9787 6.09398C45.9319 6.17929 45.8794 6.26226 45.8402 6.35108C45.8011 6.43989 45.7818 6.53104 45.7491 6.62161L45.6129 6.60116C45.5638 6.12611 45.5153 5.65165 45.4645 5.16083L45.0555 5.20874C45.0789 4.99722 45.0993 4.81316 45.1198 4.62969L45.5147 4.58704C45.5504 4.88854 45.5855 5.18303 45.6205 5.47694L45.5685 5.49155L45.707 5.67561L45.887 5.52719L45.9775 5.53245L45.9787 6.09398Z" fill="#1D212C"/>
<path d="M95.6891 3.29019C95.6488 3.35972 95.6032 3.42692 95.5722 3.49996C95.5406 3.59336 95.4923 3.68026 95.4297 3.75647C95.1486 3.28376 95.3046 2.75145 95.1808 2.24602L94.8132 2.30446C94.7975 2.11397 94.7828 1.93458 94.7682 1.7552L95.2298 1.72949C95.269 2.06781 95.3087 2.41197 95.3508 2.77424H95.5845L95.5793 2.76898L95.671 2.84903C95.6739 2.99862 95.6815 3.1447 95.6891 3.29019Z" fill="#1D212C"/>
<path d="M92.3024 12.397L92.4005 12.7692C92.3795 12.8124 92.338 12.8971 92.3 12.976V13.2927L92.2141 13.3079L92.0862 12.8019L91.974 12.8113V13.676L91.7852 13.9057L91.4271 13.8548L91.4785 13.2653L91.7993 13.4464C91.8098 13.2249 91.8115 13.0304 91.8302 12.837C91.8472 12.6617 91.8834 12.4928 91.9144 12.3011L92.3024 12.397Z" fill="#1D212C"/>
<path d="M71.6428 9.98956L71.1362 9.96385L71.0918 9.57237L69.7146 9.43973C69.7087 9.39064 69.7035 9.34214 69.6982 9.29306L70.0488 9.18672C70.0646 9.20775 70.0803 9.2282 70.0955 9.24924C70.1236 9.18496 70.154 9.12011 70.1791 9.05583H70.7634L70.5881 9.34098L71.3436 9.47595L71.5943 9.44732C71.6071 9.63547 71.6247 9.81252 71.6428 9.98956Z" fill="#1D212C"/>
<path d="M59.5773 3.15891L59.5581 4.29189H59.5049L59.4523 5.16251H59.3869V4.21008L59.0906 4.17386C58.9095 3.86183 59.1 3.6211 59.2571 3.39321L59.5773 3.15891ZM59.2852 3.89689C59.2852 3.88053 59.2852 3.86417 59.2852 3.84722L59.2145 3.84138L59.218 3.91325L59.2852 3.89689Z" fill="#1D212C"/>
<path d="M71.1669 18.188C71.1757 17.8613 71.4398 18.1599 71.5561 18.0016C71.5491 17.9461 71.538 17.8567 71.5169 17.6878L72.1509 17.589L72.0463 17.3039C72.2059 17.0667 72.4022 17.2723 72.5722 17.2455C72.5862 17.3501 72.6009 17.4547 72.6248 17.6311L72.0744 17.7433C72.0937 17.8309 72.1147 17.9268 72.1463 18.0717L71.7419 18.126L71.7331 18.0892L71.5076 18.2189L71.1669 18.188Z" fill="#1D212C"/>
<path d="M1.36099 19.1111L1.18161 18.944L1.1933 18.8739H4.48122C4.48707 18.9013 4.50459 18.9791 4.52212 19.0562L4.27788 19.1246L3.52762 19.0912C3.47445 19.062 3.42186 19.01 3.36811 19.0089C3.04245 19.0007 2.71699 19.0007 2.39172 19.0089C2.33796 19.0089 2.28538 19.062 2.23162 19.0907L1.36099 19.1111Z" fill="#1D212C"/>
<path d="M12.2277 12.3958C12.2446 12.5553 12.261 12.7154 12.2803 12.8977L11.3092 12.8393C11.2869 12.5022 11.2653 12.1796 11.2443 11.8571C11.3027 12.0107 11.3612 12.1644 11.4482 12.3958H12.2277Z" fill="#1D212C"/>
<path d="M101.07 17.2351L100.597 17.1831C100.586 17.0551 100.577 16.8863 100.559 16.7157C100.536 16.5065 100.501 16.299 100.483 16.0893C100.48 16.0443 100.542 15.9946 100.577 15.9467C100.597 16.0466 100.616 16.146 100.636 16.2581L101.002 16.1939C101.027 16.5538 101.049 16.8945 101.07 17.2351Z" fill="#1D212C"/>
<path d="M7.47176 11.9172L7.85974 11.8588C7.9024 12.0674 7.93746 12.2357 7.97661 12.418L8.35933 12.3595C8.40491 12.5646 8.44931 12.7686 8.50015 12.9953L8.38329 13.0455L8.30908 12.8831L8.05198 12.9684L7.88253 12.7627V12.4209L7.44955 12.3776C7.45481 12.2181 7.46299 12.0674 7.47176 11.9172Z" fill="#1D212C"/>
<path d="M18.0986 7.58668C18.0892 7.40029 18.0799 7.21331 18.0694 7.00237L18.4562 7.02574C18.472 6.88668 18.4866 6.7593 18.5064 6.58225L19.082 6.54953C19.0405 6.74118 19.0089 6.88434 18.9774 7.02808L18.5865 7.09411V7.53936L18.0986 7.58668Z" fill="#1D212C"/>
<path d="M87.5694 15.0218C87.5408 15.0013 87.4859 14.9797 87.487 14.9633C87.5034 14.5993 87.5274 14.2353 87.5513 13.8391L88.0351 13.7976V14.8494L87.6512 14.7828C87.6226 14.8646 87.5957 14.9435 87.5694 15.0218Z" fill="#1D212C"/>
<path d="M111.399 18.8236L111.436 18.6138L112.655 18.6722L112.675 18.809L112.214 18.9299L112.397 19.069C112.244 19.1203 112.081 19.1401 111.92 19.127C111.759 19.114 111.602 19.0684 111.458 18.993C111.42 18.9714 111.418 18.8808 111.399 18.8236Z" fill="#1D212C"/>
<path d="M117.469 15.2481V15.812H116.973C116.983 15.9551 116.99 16.065 117.002 16.2449L116.481 16.1836C116.467 16.0802 116.452 15.9767 116.428 15.8108L116.72 15.7483L117.045 15.6799C117.029 15.5356 117.018 15.4421 117.004 15.3124L117.469 15.2481Z" fill="#1D212C"/>
<path d="M35.4148 18.6456V17.6522L35.9284 17.5868C35.9097 17.9204 35.8904 18.2541 35.8699 18.6105L35.4148 18.6456Z" fill="#1D212C"/>
<path d="M88.9777 0.817245C89.1617 1.13044 89.0034 1.44889 88.9894 1.76383C88.9726 1.92462 88.946 2.08423 88.9099 2.2418L88.5266 2.13078L88.5231 2.00048L88.7422 1.95257L88.7352 1.85791L88.519 1.83629C88.5307 1.6382 88.5424 1.44012 88.5564 1.20932L88.8725 1.32151L88.9777 0.817245Z" fill="#1D212C"/>
<path d="M63.9178 3.7018C63.9254 3.56449 63.9335 3.42659 63.9464 3.21565H64.9637L64.7732 3.37868L65.3219 3.48327V3.58319L64.3168 3.62876C64.3063 3.5604 64.2964 3.49145 64.2806 3.38744L64.1053 3.5043L64.2093 3.65622L63.9178 3.7018Z" fill="#1D212C"/>
<path d="M86.5894 17.7082C86.604 17.3418 86.6133 16.9749 86.6379 16.6097C86.6443 16.5057 86.6963 16.4052 86.7279 16.3035L86.8301 16.3398L86.7413 16.6132L87.0446 16.7137V17.7368L86.7378 17.5738C86.7536 17.4605 86.767 17.3699 86.7799 17.2817H86.6922C86.708 17.3681 86.7232 17.457 86.7507 17.589L86.5894 17.7082Z" fill="#1D212C"/>
<path d="M73.9784 14.8003C73.92 14.7483 73.8031 14.6963 73.8031 14.6443C73.8066 13.9916 73.8265 13.3383 73.8423 12.6851C73.8948 12.7704 73.9936 12.8557 73.9942 12.9416C74.0018 13.5609 73.9872 14.1803 73.9784 14.8003Z" fill="#1D212C"/>
<path d="M60.5041 2.21982V2.74862L60.1447 2.71181C60.1132 2.83569 60.0798 2.96774 60.0278 3.17926C59.9303 3.32943 59.7433 3.1483 59.5779 3.16115V2.71006H59.9869C60.0179 2.53126 60.0454 2.3659 60.0758 2.19937L60.5041 2.21982Z" fill="#1D212C"/>
<path d="M100.062 14.3819L99.8334 14.3988C99.8544 14.5157 99.869 14.5957 99.8918 14.7138L99.6043 14.8026C99.5938 14.2627 99.5845 13.78 99.5745 13.2968C99.6108 13.4721 99.647 13.6515 99.6861 13.842L100.064 13.7689L100.062 14.3819Z" fill="#1D212C"/>
<path d="M113.128 16.2147H112.113C112.141 16.016 112.159 15.8857 112.178 15.7554L113.13 15.8138C113.075 15.9406 113.043 16.0154 113.007 16.099L113.128 16.2147Z" fill="#1D212C"/>
<path d="M37.8147 1.9453C37.8468 2.01541 37.9082 2.0867 37.9058 2.15623C37.8976 2.45307 37.8749 2.7499 37.8474 3.04614C37.8307 3.12042 37.8041 3.19214 37.7685 3.25942L37.3811 3.16359C37.3901 2.84689 37.3986 2.53 37.4068 2.21291L37.5558 2.19947L37.6914 2.69731C37.737 2.42093 37.7755 2.18311 37.8147 1.9453Z" fill="#1D212C"/>
<path d="M88.0498 13.3452C88.0498 13.0653 88.0498 12.7854 88.0585 12.5061C88.0585 12.4477 88.1228 12.3934 88.1579 12.3373L88.2356 12.3565C88.2496 12.4921 88.263 12.6271 88.2811 12.8H88.4968C88.4728 13.1202 88.4494 13.4399 88.422 13.8097C88.1947 13.6637 88.4582 13.2482 88.0498 13.3452Z" fill="#1D212C"/>
<path d="M121.349 16.1548V15.2824L121.785 15.2503C121.763 15.5751 121.74 15.9006 121.718 16.2226L121.349 16.1548Z" fill="#1D212C"/>
<path d="M17.5453 9.01677L17.6037 7.98195L17.692 8.01701H18.0624C18.0437 8.32728 18.025 8.63755 18.004 8.98054L17.7644 8.91393C17.7732 8.79706 17.7802 8.70065 17.7878 8.60775C17.7019 8.7509 17.6236 8.88354 17.5453 9.01677ZM17.8433 8.28813V8.33604L17.9128 8.34188C17.9128 8.31851 17.9128 8.29572 17.9088 8.27235L17.8433 8.28813Z" fill="#1D212C"/>
<path d="M44.6329 13.7996L44.8427 13.7558C44.8514 13.5758 44.8579 13.4391 44.8649 13.3023L44.9817 13.2977C45.0162 13.4858 45.0583 13.6728 45.0834 13.8615C45.1097 14.0625 45.1237 14.2647 45.1325 14.4669C45.1325 14.4938 45.074 14.5253 45.0407 14.5516C45.0144 14.4616 44.9876 14.3722 44.9525 14.2559L44.6539 14.4534C44.6469 14.1958 44.6399 13.9977 44.6329 13.7996Z" fill="#1D212C"/>
<path d="M38.3405 10.4705C38.2784 10.1223 38.3027 9.76416 38.4112 9.42751L38.5327 9.41524C38.5608 9.5099 38.5824 9.60748 38.6181 9.69921C38.6541 9.78228 38.6945 9.86341 38.739 9.94229V10.6031L38.4679 10.3694L38.3405 10.4705Z" fill="#1D212C"/>
<path d="M71.1006 4.21942L71.6265 4.16917C71.6154 4.31642 71.6043 4.46425 71.5891 4.67519L70.684 4.56943C70.684 4.52677 70.6805 4.4847 70.6782 4.44205C70.7612 4.42049 70.8455 4.40429 70.9306 4.39355C71.0492 4.38595 71.1614 4.38946 71.1006 4.21942Z" fill="#1D212C"/>
<path d="M86.0273 9.00276C86.05 9.15654 86.0646 9.31139 86.0711 9.4667C86.0673 9.6223 86.0315 9.77546 85.9659 9.91662C85.9151 9.76996 85.8643 9.62447 85.7871 9.40243L85.6241 9.7723C85.5587 9.47137 85.6323 9.18798 85.6825 8.87012C85.8356 8.92913 85.9314 8.96595 86.0273 9.00276Z" fill="#1D212C"/>
<path d="M100.532 15.3127H100.179L100.07 15.2017V14.7874L100.344 14.8966C100.393 14.7167 100.434 14.5653 100.455 14.4876C100.476 14.7062 100.504 15.0094 100.532 15.3127Z" fill="#1D212C"/>
<path d="M32.0586 16.6853V17.6026L31.7436 17.6342C31.7611 17.4992 31.7728 17.4092 31.788 17.2965L31.6127 17.238V16.7046L31.9049 16.7969L32.0586 16.6853Z" fill="#1D212C"/>
<path d="M69.7017 15.1389C69.6929 15.3358 69.6836 15.5327 69.6725 15.7624L69.3295 15.7337L69.3143 15.8103L68.9345 15.7308L69.1384 15.6841C69.167 15.5047 69.1922 15.3463 69.2079 15.2453L69.7017 15.1389Z" fill="#1D212C"/>
<path d="M44.5739 2.30152L44.3834 2.35002C44.3916 2.46688 44.3986 2.57031 44.4068 2.69126H44.1731C44.1532 2.3582 44.1339 2.03683 44.1146 1.71487L44.2718 1.84517L44.5459 1.76746C44.5558 1.95912 44.5646 2.13032 44.5739 2.30152Z" fill="#1D212C"/>
<path d="M44.1076 1.36731L43.8657 1.30888C43.8511 1.47074 43.8383 1.61039 43.8254 1.75004L43.7202 1.75296C43.6279 1.45029 43.5818 1.14235 43.6618 0.81806L44.0609 0.759628C44.079 0.977577 44.0924 1.17215 44.1076 1.36731Z" fill="#1D212C"/>
<path d="M39.8165 6.15421V5.13516L39.9597 5.12698C39.9719 5.2532 39.9842 5.37941 40.0017 5.56171L40.2045 5.62715V6.15304L39.8165 6.15421Z" fill="#1D212C"/>
<path d="M17.084 9.55259V8.97588L17.5457 9.01561V9.89792H17.2827V9.57421L17.084 9.55259Z" fill="#1D212C"/>
<path d="M99.5408 12.8755L99.1382 12.934V12.3923H99.4473V12.0067H99.4625C99.4889 12.2957 99.5151 12.5853 99.5408 12.8755Z" fill="#1D212C"/>
<path d="M68.7441 3.24551L69.225 3.22038C69.204 3.39568 69.1894 3.51254 69.1753 3.63291L68.1954 3.61421C68.1908 3.56688 68.1867 3.51955 68.1826 3.47222C68.2901 3.45916 68.3962 3.43687 68.4999 3.40561C68.5868 3.36123 68.6687 3.30754 68.7441 3.24551Z" fill="#1D212C"/>
<path d="M98.6829 11.3935C98.6414 11.3351 98.5777 11.2796 98.566 11.2141C98.5456 11.1166 98.5608 11.0114 98.5608 10.8741L98.2347 11.0014C98.1348 10.8016 98.0775 10.6281 98.2493 10.4516L98.5415 10.2991C98.6556 10.6521 98.7036 11.0231 98.6829 11.3935Z" fill="#1D212C"/>
<path d="M87.1144 16.1704C87.1191 16.1154 87.1243 16.0605 87.129 16.0056L87.2359 15.9039L87.1559 15.7976C86.9701 15.596 87.046 15.4061 87.1378 15.2168L87.2435 15.2004C87.2815 15.3348 87.3201 15.4692 87.3674 15.6369L87.5205 15.6673V16.2691L87.1144 16.1704Z" fill="#1D212C"/>
<path d="M6.42767 9.48445C6.49078 9.62469 6.55447 9.76492 6.62984 9.93145L6.93018 9.89931V10.4491H6.50247C6.47909 10.1447 6.45338 9.81459 6.42767 9.48445Z" fill="#1D212C"/>
<path d="M69.7028 19.0586C69.628 19.0002 69.5608 18.9213 69.4761 18.8833C69.3795 18.8526 69.2797 18.833 69.1787 18.8249L69.1833 18.7016L70.1767 18.6508C70.1895 18.7595 70.203 18.8687 70.2187 19.0014C70.0808 19.1726 69.8845 19.0674 69.7028 19.0586Z" fill="#1D212C"/>
<path d="M5.98188 1.77006C5.81302 1.77006 5.6237 1.93542 5.52904 1.78175C5.47996 1.52816 5.43789 1.35578 5.41744 1.18049C5.41159 1.12673 5.46477 1.06363 5.49106 1.00812L5.60383 1.33066L5.94566 1.24418L5.98188 1.77006Z" fill="#1D212C"/>
<path d="M9.40173 15.2687L9.82361 15.2137C9.84289 15.5643 9.86217 15.9079 9.88204 16.2538L9.54606 15.8021L9.48763 15.7846C9.45432 15.5906 9.4292 15.4293 9.40173 15.2687Z" fill="#1D212C"/>
<path d="M61.4704 18.6941H62.3767C62.3767 18.7297 62.3808 18.7648 62.3825 18.8004C62.1646 18.829 61.9443 18.8471 61.7299 18.8933C61.6527 18.9103 61.5896 18.995 61.5201 19.0482H60.9276L61.1327 18.6865L61.1964 18.6946C61.2875 18.8413 61.3793 18.8682 61.4704 18.6941Z" fill="#1D212C"/>
<path d="M6.97495 10.8748L7.26418 10.8479V10.5055L7.36819 10.502V11.3475L7.0176 11.4644C6.99949 11.247 6.98663 11.0606 6.97495 10.8748Z" fill="#1D212C"/>
<path d="M72.5934 17.2188V16.6626L72.9603 16.7023C72.9993 16.6092 73.0382 16.5167 73.0772 16.4247C73.1052 16.4598 73.1625 16.5013 73.1566 16.5293C73.1064 16.7555 73.045 16.9793 72.9878 17.2001L72.5934 17.2188Z" fill="#1D212C"/>
<path d="M8.8493 14.0861L9.03395 14.3058L9.38453 14.2655C9.36934 14.4647 9.35649 14.64 9.34363 14.8147H8.89605C8.8791 14.5617 8.86391 14.3239 8.8493 14.0861Z" fill="#1D212C"/>
<path d="M15.6907 12.3637V11.8063L15.9975 11.9179L16.1523 11.6339V12.4274L15.6907 12.3637Z" fill="#1D212C"/>
<path d="M49.89 16.2499H49.443C49.4576 16.0852 49.474 15.9034 49.4904 15.7241L49.7767 15.571C49.973 15.7579 49.9035 16.0104 49.89 16.2499Z" fill="#1D212C"/>
<path d="M59.5424 7.48929H60.0046C60.2383 7.61433 60.0145 7.84455 60.0455 8.03328L59.4962 7.97894L59.6166 7.74931L59.5424 7.48929Z" fill="#1D212C"/>
<path d="M59.0988 6.57879L59.4406 6.53146C59.5908 6.67754 59.6481 7.05735 59.5505 7.26419C59.5172 7.18823 59.4844 7.11169 59.4447 7.01936L59.1385 7.13623L59.0988 6.57879Z" fill="#1D212C"/>
<path d="M117.933 14.7276L117.991 15.1284C117.855 15.4329 117.635 15.195 117.469 15.2453L117.425 14.883L117.55 14.7077L117.743 14.8398L117.933 14.7276Z" fill="#1D212C"/>
<path d="M101.52 18.1186L101.169 18.2021C101.053 18.0479 100.989 17.5734 101.075 17.4776L101.174 17.6628L101.525 17.581L101.52 18.1186Z" fill="#1D212C"/>
<path d="M37.8941 11.4119L37.8076 10.9181L38.3241 10.8743C38.3124 11.0788 38.3007 11.2833 38.2861 11.5352L37.8941 11.4119Z" fill="#1D212C"/>
<path d="M86.1176 18.6997V18.0949L86.3934 18.2018L86.5757 18.1119C86.5681 18.3263 86.6838 18.567 86.4588 18.7359L86.1176 18.6997Z" fill="#1D212C"/>
<path d="M9.37094 8.01295H8.86609C8.88362 7.79208 8.89531 7.64132 8.90699 7.49057L9.37094 7.53322V8.01295Z" fill="#1D212C"/>
<path d="M36.4247 15.7473C36.4165 15.5989 36.4084 15.4504 36.399 15.2705H36.8922C36.8741 15.4393 36.8554 15.6082 36.8378 15.7724L36.4247 15.7473Z" fill="#1D212C"/>
<path d="M5.54348 8.04026L6.00275 7.95787C5.96536 8.14427 5.93614 8.2921 5.90693 8.43993L5.65275 8.61931C5.44473 8.44168 5.47395 8.24477 5.54348 8.04026Z" fill="#1D212C"/>
<path d="M8.89866 7.14035H8.44348V6.59519L8.83088 6.54436L8.89866 7.14035Z" fill="#1D212C"/>
<path d="M68.7529 15.7644C68.7699 15.8854 68.7874 16.0069 68.8061 16.1413C68.6437 16.2704 68.4736 16.2885 68.2919 16.1752C68.2715 16.0665 68.251 15.9572 68.2206 15.7971L68.7529 15.7644Z" fill="#1D212C"/>
<path d="M59.9438 18.171H60.5333C60.5222 18.3334 60.5129 18.4731 60.5035 18.6122H60.0361C59.9946 18.4193 59.9689 18.2949 59.9438 18.171Z" fill="#1D212C"/>
<path d="M59.0736 17.6452L59.5814 17.6861C59.558 17.8679 59.5416 17.9987 59.5229 18.1302H59.0315L59.0736 17.6452Z" fill="#1D212C"/>
<path d="M14.6165 7.59504C14.6317 7.74521 14.6463 7.89537 14.665 8.07943L14.3244 8.021C14.2794 8.0993 14.2356 8.1776 14.1912 8.25473C14.0591 7.99646 14.2385 7.80656 14.3109 7.58043L14.6165 7.59504Z" fill="#1D212C"/>
<path d="M41.1943 12.862H40.8204C40.8204 12.862 40.7701 12.8088 40.7193 12.7556C40.7409 12.6312 40.7608 12.5219 40.7777 12.408L41.1914 12.36L41.1943 12.862ZM41.1155 12.5289C41.109 12.5126 41.1073 12.4903 41.0962 12.4839C41.0851 12.4775 41.0664 12.4886 41.0506 12.4921C41.0588 12.512 41.0664 12.5312 41.074 12.5505L41.1155 12.5289Z" fill="#1D212C"/>
<path d="M14.6985 14.2893V13.7903H15.1315V14.2893H14.6985Z" fill="#1D212C"/>
<path d="M120.39 17.631C120.369 17.5141 120.348 17.3973 120.317 17.215L120.848 17.1741C120.837 17.3196 120.826 17.4662 120.814 17.631H120.39Z" fill="#1D212C"/>
<path d="M42.2033 7.07829H42.6375C42.6299 7.23138 42.6205 7.41077 42.6112 7.59015L42.2278 7.63456C42.2203 7.45518 42.2121 7.26644 42.2033 7.07829ZM42.347 7.35292L42.305 7.35876C42.3097 7.3909 42.3149 7.42362 42.3196 7.45576L42.3611 7.44992L42.347 7.35292Z" fill="#1D212C"/>
<path d="M16.6747 10.4284L16.6163 9.89027L17.0838 10.0071V10.5541L16.6747 10.4284Z" fill="#1D212C"/>
<path d="M16.1491 11.4636C16.1427 11.3193 16.1363 11.1749 16.1275 10.9745L16.602 10.9354V11.4221L16.1491 11.4636Z" fill="#1D212C"/>
<path d="M91.3726 14.6897C91.3726 14.8712 91.3726 15.0529 91.3726 15.2348L90.8344 15.2197C90.9016 15.0075 90.9437 14.8755 90.9688 14.7966L91.3726 14.6897Z" fill="#1D212C"/>
<path d="M70.685 18.6246C70.668 18.4943 70.6517 18.364 70.6266 18.1689L71.1413 18.215C71.1606 18.3161 71.1799 18.4178 71.215 18.6042L70.685 18.6246Z" fill="#1D212C"/>
<path d="M82.199 18.757C82.2119 18.8616 82.2253 18.9667 82.2387 19.0713H81.7672C81.7964 18.7698 81.8256 18.4952 81.8508 18.2211L81.9559 18.2071C82 18.4019 82.044 18.5976 82.088 18.7944L82.199 18.757Z" fill="#1D212C"/>
<path d="M11.2436 11.8563L10.838 11.9615V11.3825L11.1816 11.3369C11.3575 11.4584 11.2097 11.6764 11.2436 11.8563Z" fill="#1D212C"/>
<path d="M9.88082 16.2529C10.0561 16.2575 10.2635 16.0776 10.3851 16.3329C10.35 16.4498 10.3191 16.562 10.2875 16.6707L9.87848 16.7326L9.88082 16.2529Z" fill="#1D212C"/>
<path d="M87.479 5.1817C87.5193 5.34823 87.6642 5.52703 87.4305 5.66201L87.0799 5.61234V5.0625L87.479 5.1817Z" fill="#1D212C"/>
<path d="M6.93774 3.62003L6.52872 3.69833V3.19524L6.93774 3.14557V3.62003Z" fill="#1D212C"/>
<path d="M42.6685 8.53815L43.1155 8.49783C43.1067 8.66787 43.0979 8.82797 43.0897 8.98866L42.6854 9.0576C42.6796 8.87062 42.6766 8.7041 42.6685 8.53815Z" fill="#1D212C"/>
<path d="M15.2233 13.2985L15.1555 12.9613C15.2771 12.703 15.467 12.9029 15.613 12.862V13.3621L15.2233 13.2985Z" fill="#1D212C"/>
<path d="M39.9123 12.3758C39.7559 12.4045 39.5981 12.4252 39.4396 12.4377C39.1299 12.4482 38.819 12.4488 38.5094 12.4377C38.4287 12.4377 38.3504 12.3793 38.2704 12.3442C38.725 12.3442 39.1796 12.3366 39.6336 12.3384C39.7272 12.3445 39.8203 12.357 39.9123 12.3758Z" fill="#1D212C"/>
<path d="M43.2026 9.99427L43.5889 9.93584V10.4103L43.264 10.4576C43.0858 10.3478 43.2207 10.1555 43.2026 9.99427Z" fill="#1D212C"/>
<path d="M35.9284 7.01295C35.8805 7.14267 35.832 7.27239 35.7847 7.40269C35.7847 7.40678 35.7976 7.41555 35.8566 7.47164C35.8414 7.44768 35.8636 7.48333 35.9308 7.59259L35.4633 7.54819V7.06788L35.7362 7.12631L35.9284 7.01295Z" fill="#1D212C"/>
<path d="M92.8949 6.67176L93.2454 6.57359C93.395 6.72376 93.3039 6.91016 93.2688 7.08837L92.955 7.23854L92.8878 6.96567L93.0702 6.9271C93.0702 6.8973 93.0702 6.86867 93.0702 6.83887L92.8902 6.79505L92.8949 6.67176Z" fill="#1D212C"/>
<path d="M9.8128 8.54859L9.6375 8.58306C9.60128 8.73674 9.57615 8.84483 9.55102 8.95293L9.42365 8.93307V8.4253H9.63926L9.57557 8.10801L9.78183 8.04257L9.8128 8.54859Z" fill="#1D212C"/>
<path d="M99.0816 11.8092L98.7895 11.9436C98.5721 11.7923 98.6533 11.6036 98.7036 11.4178L99.0793 11.3476L99.0816 11.8092Z" fill="#1D212C"/>
<path d="M63.8674 0.368851L63.4829 0.485713L63.9632 0.613678C63.7803 0.867269 63.591 0.780207 63.4128 0.750407C63.3812 0.650489 63.3491 0.549987 63.2918 0.370604L63.8674 0.368851Z" fill="#1D212C"/>
<path d="M72.5438 10.4165L72.1547 10.4638C72.1336 10.3236 72.1114 10.1717 72.0887 10.0162L72.5438 10.0636V10.4165Z" fill="#1D212C"/>
<path d="M41.6616 14.2624L41.2526 14.367C41.2713 14.2104 41.2882 14.0643 41.3057 13.9188L41.4962 13.7546C41.8001 13.861 41.6616 14.083 41.6616 14.2624Z" fill="#1D212C"/>
<path d="M96.188 15.3099C96.2102 15.4739 96.2328 15.6381 96.2558 15.8024L96.0805 15.6365L95.8129 15.6949L95.7878 15.2649L95.9414 15.269C95.9601 15.3543 95.9794 15.4402 95.9999 15.5255L96.1045 15.5115L96.188 15.3099Z" fill="#1D212C"/>
<path d="M63.5004 4.15027L63.3888 3.81545C63.5214 3.60335 63.7394 3.72722 63.9182 3.70151C63.9018 3.795 63.886 3.88849 63.8697 3.98198L63.6581 4.01178C63.6482 4.05795 63.6388 4.10294 63.6289 4.14734L63.5004 4.15027Z" fill="#1D212C"/>
<path d="M45.0058 3.59497L44.6464 3.75332V3.22335L44.976 3.16492C44.9847 3.19881 44.9976 3.24964 45.011 3.30048L44.8463 3.37936L44.9993 3.45415C45.0017 3.50148 45.0034 3.54589 45.0058 3.59497Z" fill="#1D212C"/>
<path d="M96.6275 16.2451C96.829 16.3619 96.7291 16.5115 96.6754 16.6541L96.2821 16.7283C96.2921 16.5635 96.302 16.4098 96.3119 16.2567L96.5112 16.2462L96.5568 16.4402L96.6029 16.4338L96.6275 16.2451Z" fill="#1D212C"/>
<path d="M2.23056 19.0887C2.28432 19.06 2.33691 19.008 2.39066 19.0069C2.71593 18.9987 3.04139 18.9987 3.36705 19.0069C3.42081 19.0069 3.47339 19.06 3.52657 19.0892L2.23056 19.0887Z" fill="#1D212C"/>
<path d="M6.43129 2.7114H6.09882V2.40113L6.31384 2.20538L6.4307 2.23518L6.43129 2.7114Z" fill="#1D212C"/>
<path d="M69.2331 0.551702C69.2086 0.493271 69.1834 0.42958 69.1589 0.368227C69.3552 0.341933 69.5726 0.2128 69.7292 0.458212C69.5837 0.71005 69.3973 0.561051 69.2331 0.551702Z" fill="#1D212C"/>
<path d="M35.9747 16.8096V16.5881L36.365 16.7254V17.277L36.0957 17.1263L36.1173 16.8218L35.9747 16.8096Z" fill="#1D212C"/>
<path d="M98.0732 9.36412L97.836 9.53941C97.6274 9.39626 97.7372 9.18883 97.7355 9.00769H97.9645L97.9464 9.17597L98.0738 9.24083C98.0738 9.28115 98.0732 9.32263 98.0732 9.36412Z" fill="#1D212C"/>
<path d="M35.3448 8.53013V9.03848C35.0825 8.8778 35.1911 8.6879 35.19 8.52663L35.3448 8.53013Z" fill="#1D212C"/>
<path d="M73.0813 16.305C73.1321 16.2501 73.1765 16.1583 73.2344 16.149C73.3331 16.1338 73.4401 16.17 73.5429 16.1846C73.4856 16.226 73.4229 16.2592 73.3565 16.2834C73.2655 16.2983 73.1735 16.3055 73.0813 16.305Z" fill="#1D212C"/>
<path d="M66.3703 11.3977C66.3838 11.3042 66.3978 11.2107 66.4118 11.1178L66.5223 11.1073C66.548 11.2031 66.5733 11.299 66.5982 11.3948L66.3703 11.3977Z" fill="#1D212C"/>
<path d="M6.24884 9.19771L6.52756 9.22342L6.39492 9.4215L6.24884 9.35547V9.19771Z" fill="#1D212C"/>
<path d="M86.4217 18.7187C86.4801 18.8356 86.5158 18.9027 86.5765 19.0231H86.1494L86.4217 18.7187Z" fill="#1D212C"/>
<path d="M47.943 10.499C47.9202 10.5802 47.8968 10.6608 47.874 10.7421L47.7636 10.8098C47.7186 10.7374 47.6742 10.6643 47.6011 10.5457L47.8723 10.4324L47.943 10.499Z" fill="#1D212C"/>
<path d="M64.2096 3.65381L64.1056 3.50189L64.2809 3.38503C64.2967 3.48903 64.3066 3.56032 64.3171 3.62635L64.2096 3.65381Z" fill="#1D212C"/>
<path d="M39.1912 9.2026L39.179 9.40652H39.0831C39.0796 9.33524 39.0767 9.26453 39.0732 9.19383L39.1912 9.2026Z" fill="#1D212C"/>
<path d="M14.676 7.14149L14.8594 7.26186L14.6719 7.37873C14.673 7.29926 14.6748 7.22038 14.676 7.14149Z" fill="#1D212C"/>
<path d="M63.6289 4.14752C63.6388 4.10311 63.6482 4.05812 63.6581 4.01196L63.8696 3.98216C63.9275 4.23751 63.7563 4.16096 63.6289 4.14752Z" fill="#1D212C"/>
<path d="M88.519 1.83611L88.7352 1.85772L88.7422 1.95238L88.5231 2.0003L88.519 1.83611Z" fill="#1D212C"/>
<path d="M46.6887 19.0965C46.6741 19.0287 46.6595 18.9615 46.6455 18.8937L46.7401 18.8674C46.7588 18.9417 46.7769 19.0159 46.7986 19.0901L46.6887 19.0965Z" fill="#1D212C"/>
<path d="M92.8932 6.795L93.0732 6.83882C93.0732 6.86804 93.0732 6.89725 93.0732 6.92705L92.8909 6.96562L92.8932 6.795Z" fill="#1D212C"/>
<path d="M46.0447 17.8821L46.227 17.9224V18.0136L46.0453 18.0545C46.0453 17.9972 46.0447 17.9394 46.0447 17.8821Z" fill="#1D212C"/>
<path d="M98.0736 9.23998L97.9463 9.17512L97.9644 9.00684L98.0812 9.06994L98.0736 9.23998Z" fill="#1D212C"/>
<path d="M49.8006 15.2713C49.8071 15.3566 49.8135 15.442 49.8193 15.5273L49.7025 15.5378C49.6937 15.4525 49.6855 15.3677 49.6773 15.2824L49.8006 15.2713Z" fill="#1D212C"/>
<path d="M44.9992 3.45444L44.8461 3.37965L45.0109 3.30077C45.0068 3.35219 45.0033 3.40302 44.9992 3.45444Z" fill="#1D212C"/>
<path d="M40.2447 5.39671C40.1056 5.31374 40.1092 5.23252 40.2447 5.15364C40.2471 5.23486 40.2459 5.3155 40.2447 5.39671Z" fill="#1D212C"/>
<path d="M35.9303 17.4754C35.7842 17.3941 35.7854 17.3147 35.9344 17.2381C35.9332 17.317 35.932 17.3941 35.9303 17.4754Z" fill="#1D212C"/>
<path d="M38.0952 12.329L37.9783 12.4353L37.8918 12.3132L38.0952 12.329Z" fill="#1D212C"/>
<path d="M63.1276 0.459467H62.9873L62.9821 0.427916L63.1182 0.396362L63.1276 0.459467Z" fill="#1D212C"/>
<path d="M84.6888 11.4478L84.8454 11.5407C84.8349 11.5617 84.8249 11.5834 84.8144 11.605L84.6701 11.5711C84.6783 11.5302 84.6847 11.4922 84.6888 11.4478Z" fill="#1D212C"/>
<path d="M37.8884 12.3103L37.7745 12.2711L37.8662 12.1619C37.8738 12.2115 37.8808 12.2612 37.8884 12.3103Z" fill="#1D212C"/>
<path d="M44.114 1.71525L44.0123 1.64572L44.1064 1.53645L44.114 1.71525Z" fill="#1D212C"/>
<path d="M86.0724 19.0748C86.0946 19.0065 86.1168 18.9375 86.1385 18.8692L86.2238 18.9778L86.0724 19.0748Z" fill="#1D212C"/>
<path d="M113.642 19.1469H113.892C113.807 19.2789 113.724 19.2895 113.642 19.1469Z" fill="#1D212C"/>
<path d="M98.0788 9.06966L97.962 9.00655C97.9801 8.97733 97.9988 8.94812 98.0531 8.86281L98.0788 9.06966Z" fill="#1D212C"/>
<path d="M97.6943 8.55338C97.685 8.51131 97.6762 8.46982 97.6668 8.42775C97.6762 8.46982 97.685 8.51248 97.6943 8.55338Z" fill="#1D212C"/>
<path d="M43.7826 12.2732L43.7578 12.2826C43.7578 12.2744 43.7472 12.2638 43.7496 12.2579C43.7519 12.252 43.7649 12.2514 43.7731 12.2478L43.7826 12.2732Z" fill="#1D212C"/>
<path d="M69.2151 0.728823L69.1163 0.670391L69.1964 0.593262C69.2046 0.639422 69.2087 0.682662 69.2151 0.728823Z" fill="#1D212C"/>
<path d="M31.3754 19.0882L31.4531 19.0076L31.5051 19.087L31.3754 19.0882Z" fill="#1D212C"/>
<path d="M62.5823 19.0706L62.7038 19.06L62.6167 19.1454L62.5823 19.0706Z" fill="#1D212C"/>
<path d="M50.2697 16.6974L50.2622 16.6788L50.2821 16.6819L50.2697 16.6974Z" fill="#1D212C"/>
<path d="M95.5802 2.777V2.75179C95.5775 2.75816 95.5752 2.76468 95.5732 2.77133L95.5802 2.777Z" fill="#1D212C"/>
<path d="M19.338 18.726H22.0504C21.1476 18.9714 20.239 18.7955 19.338 18.8084V18.726Z" fill="#1D212C"/>
<path d="M5.14148 0.996506C5.18063 1.05903 5.21978 1.12096 5.25834 1.1829L5.16836 1.24601L5.03397 1.07071L5.14148 0.996506Z" fill="#1D212C"/>
<path d="M96.1882 15.3099L96.104 15.5138L95.9994 15.5278C95.9807 15.4425 95.9615 15.3566 95.941 15.2713L96.1882 15.3099Z" fill="#010101"/>
<path d="M87.1556 15.7975L87.2356 15.9039L87.1287 16.0055C87.1375 15.9366 87.1468 15.8671 87.1556 15.7975Z" fill="#010101"/>
<path d="M96.6273 16.2451L96.6028 16.4367L96.5566 16.4431L96.511 16.2491L96.6273 16.2451Z" fill="#010101"/>
<path d="M97.0696 16.8098L97.0538 16.915L97.0065 16.908C97.0118 16.8729 97.0164 16.8373 97.0217 16.8022L97.0696 16.8098Z" fill="#1D212C"/>
<path d="M35.1603 18.812H32.0693C32.0693 18.7798 32.0693 18.7477 32.0693 18.7161H35.1603C35.1597 18.7477 35.1603 18.7798 35.1603 18.812Z" fill="#1D212C"/>
<path d="M44.5826 13.0373L44.461 13.1063C44.4026 12.907 44.4026 12.907 44.5779 12.9205L44.5826 13.0373Z" fill="#010101"/>
<path d="M65.3543 2.91248C65.5974 2.72433 66.9115 2.71673 67.6687 2.88443C66.9049 3.02935 66.1214 3.03885 65.3543 2.91248Z" fill="#1D212C"/>
<path d="M70.0125 14.6946V13.8333H70.0767V14.6946H70.0125Z" fill="#1D212C"/>
<path d="M61.4705 18.6942C61.3794 18.8695 61.2877 18.8414 61.1965 18.6942H61.4705Z" fill="#010101"/>
<path d="M116.066 16.5906C115.971 16.6274 115.875 16.6969 115.779 16.6957C114.956 16.6864 114.133 16.6654 113.31 16.6437C113.282 16.6387 113.255 16.628 113.232 16.6122C113.209 16.5964 113.189 16.5759 113.174 16.552C114.129 16.4118 115.081 16.4159 116.037 16.4661L116.066 16.5906Z" fill="#1D212C"/>
<path d="M70.8026 1.09668C70.8214 1.10919 70.8401 1.12232 70.8026 1.09668V1.09668Z" fill="#010101"/>
<path d="M72.9646 11.0145L72.9505 11.2125L72.8442 11.205L72.8594 11.0063L72.9646 11.0145Z" fill="#1D212C"/>
<path d="M110.894 15.7778L111.074 16.0068L110.975 16.0909L110.781 15.8677L110.894 15.7778Z" fill="#1D212C"/>
<path d="M33.6888 12.4688C33.6888 12.4957 33.6917 12.5232 33.6929 12.55L33.6543 12.5594L33.6234 12.4776L33.6888 12.4688Z" fill="#1D212C"/>
<path d="M43.783 11.2536L43.8008 11.2479L43.7983 11.2651L43.783 11.2536Z" fill="#1D212C"/>
<path d="M94.4106 10.7779V10.6855L94.4433 10.6809C94.4503 10.7118 94.4573 10.7422 94.4649 10.7732L94.4106 10.7779Z" fill="#1D212C"/>
<path d="M94.0452 9.19728C94.0499 9.26389 94.0552 9.32992 94.0598 9.39653L93.9553 9.40354C93.9512 9.33752 93.9471 9.2709 93.9424 9.20429L94.0452 9.19728Z" fill="#1D212C"/>
<path d="M63.3613 5.66634L63.2584 5.9135C63.1714 5.71191 63.1714 5.71191 63.356 5.66049L63.3613 5.66634Z" fill="#1D212C"/>
<path d="M64.1607 6.70085H64.3056L64.3108 6.75928L64.1653 6.78382C64.1642 6.75402 64.1624 6.72715 64.1607 6.70085Z" fill="#1D212C"/>
<path d="M10.2369 9.56407L10.1931 9.77559L10.0909 9.75923L10.1166 9.5442L10.2369 9.56407Z" fill="#1D212C"/>
<path d="M84.3346 13.026C84.3293 13.003 84.324 12.9807 84.3193 12.9583L84.3888 12.9542C84.3888 12.9777 84.3847 13.0013 84.3829 13.0248L84.3346 13.026Z" fill="#1D212C"/>
<path d="M59.2869 3.89668L59.218 3.91317L59.2144 3.84073L59.2857 3.84662C59.2863 3.86429 59.2863 3.88078 59.2869 3.89668Z" fill="#1D212C"/>
<path d="M17.8433 8.28803L17.9104 8.27213C17.9104 8.29568 17.9104 8.31865 17.9145 8.3422L17.8444 8.33632L17.8433 8.28803Z" fill="#1D212C"/>
<path d="M41.1159 12.5295L41.0741 12.5519C41.0664 12.5319 41.0588 12.5124 41.0505 12.493C41.0664 12.4895 41.0865 12.4789 41.0965 12.4847C41.1065 12.4906 41.1094 12.513 41.1159 12.5295Z" fill="#1D212C"/>
<path d="M42.347 7.35301L42.3611 7.45001L42.3196 7.45585C42.3149 7.42371 42.3097 7.39099 42.305 7.35886L42.347 7.35301Z" fill="#1D212C"/>
</svg>
