<svg width="19" height="19" viewBox="0 0 19 19" fill="none" xmlns="http://www.w3.org/2000/svg">
<path d="M14.0161 9.04049C15.3355 9.04049 16.6009 9.56461 17.5338 10.4976C18.4668 11.4305 18.9909 12.6959 18.9909 14.0152C18.9909 15.3346 18.4668 16.6 17.5338 17.5329C16.6009 18.4659 15.3355 18.99 14.0161 18.99C12.6968 18.99 11.4314 18.4659 10.4985 17.5329C9.56552 16.6 9.04139 15.3346 9.04139 14.0152C9.04139 12.6959 9.56552 11.4305 10.4985 10.4976C11.4314 9.56461 12.6968 9.04049 14.0161 9.04049ZM11.6228 13.696C11.5811 13.6528 11.5312 13.6183 11.476 13.5946C11.4209 13.5709 11.3615 13.5584 11.3015 13.5579C11.2414 13.5574 11.1819 13.5688 11.1263 13.5916C11.0707 13.6143 11.0202 13.6479 10.9778 13.6903C10.9353 13.7328 10.9017 13.7833 10.879 13.8389C10.8562 13.8945 10.8448 13.954 10.8453 14.0141C10.8458 14.0741 10.8583 14.1335 10.882 14.1886C10.9057 14.2438 10.9402 14.2937 10.9834 14.3354L12.7924 16.1444C12.8772 16.2292 12.9922 16.2769 13.1121 16.2769C13.232 16.2769 13.347 16.2292 13.4318 16.1444L17.0498 12.5264C17.093 12.4847 17.1275 12.4348 17.1512 12.3796C17.1749 12.3245 17.1874 12.2651 17.1879 12.2051C17.1884 12.145 17.177 12.0855 17.1542 12.0299C17.1315 11.9743 17.0979 11.9238 17.0555 11.8813C17.013 11.8389 16.9625 11.8053 16.9069 11.7826C16.8513 11.7598 16.7918 11.7484 16.7317 11.7489C16.6717 11.7494 16.6123 11.7619 16.5572 11.7856C16.502 11.8093 16.4521 11.8438 16.4104 11.887L13.1116 15.1848L11.6228 13.696ZM9.0622 10.8495C8.79109 11.2723 8.57556 11.7283 8.42091 12.2062H2.03422C1.9451 12.2061 1.85684 12.2236 1.77448 12.2576C1.69212 12.2917 1.61729 12.3417 1.55427 12.4047C1.49126 12.4677 1.44129 12.5425 1.40724 12.6249C1.37319 12.7072 1.35573 12.7955 1.35585 12.8846V13.4065C1.35585 13.8904 1.52951 14.359 1.84428 14.7271C2.97762 16.0558 4.75677 16.7297 7.23239 16.7297C7.77238 16.7297 8.2789 16.698 8.75195 16.6338C8.97446 17.0815 9.25214 17.4967 9.57686 17.8702C8.85778 18.0149 8.07539 18.0873 7.23239 18.0873C4.38683 18.0873 2.22869 17.2678 0.812242 15.609C0.28798 14.9949 -2.78077e-05 14.2139 2.01378e-09 13.4065V12.8837C2.01378e-09 12.3442 0.214319 11.8268 0.59581 11.4453C0.977301 11.0638 1.49471 10.8495 2.03422 10.8495H9.0622ZM7.23239 0C7.8263 -8.84986e-09 8.41438 0.116978 8.96308 0.344255C9.51178 0.571532 10.0103 0.904657 10.4303 1.32461C10.8502 1.74456 11.1834 2.24312 11.4106 2.79182C11.6379 3.34051 11.7549 3.9286 11.7549 4.52251C11.7549 5.11641 11.6379 5.7045 11.4106 6.25319C11.1834 6.80189 10.8502 7.30045 10.4303 7.7204C10.0103 8.14035 9.51178 8.47348 8.96308 8.70076C8.41438 8.92803 7.8263 9.04501 7.23239 9.04501C6.03295 9.04501 4.88263 8.56853 4.0345 7.7204C3.18636 6.87227 2.70989 5.72195 2.70989 4.52251C2.70989 3.32306 3.18636 2.17275 4.0345 1.32461C4.88263 0.476477 6.03295 0 7.23239 0ZM7.23239 1.35675C6.81666 1.35675 6.405 1.43864 6.02091 1.59773C5.63682 1.75682 5.28783 1.99001 4.99387 2.28398C4.6999 2.57795 4.46671 2.92694 4.30762 3.31102C4.14852 3.69511 4.06664 4.10677 4.06664 4.52251C4.06664 4.93824 4.14852 5.3499 4.30762 5.73399C4.46671 6.11807 4.6999 6.46706 4.99387 6.76103C5.28783 7.055 5.63682 7.28819 6.02091 7.44728C6.405 7.60637 6.81666 7.68826 7.23239 7.68826C8.072 7.68826 8.87722 7.35472 9.47092 6.76103C10.0646 6.16734 10.3981 5.36212 10.3981 4.52251C10.3981 3.6829 10.0646 2.87767 9.47092 2.28398C8.87722 1.69029 8.072 1.35675 7.23239 1.35675Z" fill="url(#paint0_linear_763_6708)"/>
<defs>
<linearGradient id="paint0_linear_763_6708" x1="0" y1="9.495" x2="18.9909" y2="9.495" gradientUnits="userSpaceOnUse">
<stop stop-color="#CCA3B7"/>
<stop offset="0.966667" stop-color="#EDA674"/>
</linearGradient>
</defs>
</svg>
