<svg width="96" height="97" viewBox="0 0 96 97" fill="none" xmlns="http://www.w3.org/2000/svg">
<rect y="0.5" width="96" height="96" rx="12" fill="#F6F6F6"/>
<ellipse cx="48.2684" cy="40.8318" rx="7.74828" ry="7.74829" stroke="#181B28" stroke-opacity="0.4" stroke-width="2" stroke-linecap="round" stroke-linejoin="round"/>
<path fill-rule="evenodd" clip-rule="evenodd" d="M35.9781 59.3562C35.976 58.8115 36.0978 58.2735 36.3343 57.7828C37.0765 56.2985 39.1694 55.5118 40.9061 55.1555C42.1586 54.8883 43.4284 54.7097 44.706 54.6212C47.0715 54.4134 49.4506 54.4134 51.816 54.6212C53.0936 54.7107 54.3633 54.8893 55.616 55.1555C57.3526 55.5118 59.4456 56.2243 60.1877 57.7828C60.6634 58.7831 60.6634 59.9443 60.1877 60.9445C59.4456 62.5031 57.3526 63.2155 55.616 63.5569C54.3649 63.8353 53.0947 64.0189 51.816 64.1061C49.8907 64.2694 47.9565 64.2991 46.0271 64.1952C45.5818 64.1952 45.1513 64.1952 44.706 64.1061C43.4321 64.02 42.1668 63.8363 40.9209 63.5569C39.1694 63.2155 37.0913 62.5031 36.3343 60.9445C36.099 60.4481 35.9773 59.9055 35.9781 59.3562Z" stroke="#181B28" stroke-opacity="0.4" stroke-width="2" stroke-linecap="round" stroke-linejoin="round"/>
</svg>
