<svg width="19" height="20" viewBox="0 0 19 20" fill="none" xmlns="http://www.w3.org/2000/svg">
<path d="M9.16667 0.833008C7.35367 0.833008 5.58139 1.37062 4.07394 2.37787C2.56649 3.38512 1.39158 4.81675 0.697775 6.49174C0.00397177 8.16673 -0.177559 10.0098 0.176139 11.788C0.529837 13.5662 1.40288 15.1995 2.68486 16.4815C3.96684 17.7635 5.60018 18.6365 7.37834 18.9902C9.1565 19.3439 10.9996 19.1624 12.6746 18.4686C14.3496 17.7748 15.7812 16.5998 16.7885 15.0924C17.7957 13.5849 18.3333 11.8127 18.3333 9.99967C18.3333 8.79589 18.0962 7.60389 17.6356 6.49174C17.1749 5.37959 16.4997 4.36907 15.6485 3.51786C14.7973 2.66666 13.7868 1.99145 12.6746 1.53078C11.5624 1.07011 10.3705 0.833008 9.16667 0.833008ZM9.16667 17.333C7.22175 17.333 5.35649 16.5604 3.98122 15.1851C2.60595 13.8099 1.83334 11.9446 1.83334 9.99967C1.83131 8.37107 2.37693 6.78909 3.3825 5.50801L13.6583 15.7838C12.3773 16.7894 10.7953 17.335 9.16667 17.333ZM14.9508 14.4913L4.675 4.21551C5.95609 3.20994 7.53807 2.66432 9.16667 2.66634C11.1116 2.66634 12.9769 3.43896 14.3521 4.81422C15.7274 6.18949 16.5 8.05475 16.5 9.99967C16.502 11.6283 15.9564 13.2103 14.9508 14.4913Z" fill="#9A3B3B"/>
</svg>
