<svg width="24" height="25" viewBox="0 0 24 25" fill="none" xmlns="http://www.w3.org/2000/svg">
<path d="M0.96 4.96387C0.429912 4.96387 0 5.39366 0 5.92387V19.0759C0 19.6061 0.430128 20.0359 0.96 20.0359H23.04C23.5701 20.0359 24 19.6061 24 19.0759V5.92387C24 5.39368 23.5699 4.96387 23.04 4.96387H0.96ZM14.334 9.45561C14.9181 9.45561 15.3862 9.58464 15.6847 9.70461L15.4807 10.9879L15.3457 10.9196C15.0677 10.7996 14.7105 10.6842 14.2177 10.6924C13.6279 10.6924 13.3553 10.9555 13.3553 11.2016C13.3518 11.479 13.6739 11.6619 14.2005 11.9359C15.0697 12.3585 15.4714 12.871 15.4658 13.5446C15.4541 14.7738 14.426 15.5681 12.8423 15.5681C12.1666 15.5607 11.5156 15.4176 11.1637 15.2524L11.3753 13.9264L11.5695 14.0209C12.0643 14.242 12.3847 14.3314 12.9877 14.3314C13.4208 14.3314 13.8856 14.1501 13.8893 13.7531C13.8921 13.4939 13.695 13.3091 13.1085 13.0189C12.537 12.7356 11.7794 12.261 11.7878 11.4101C11.7967 10.2591 12.8453 9.45561 14.334 9.45561ZM2.12249 9.64387H4.55474C4.88227 9.65625 5.1467 9.76171 5.238 10.1171L5.76226 12.8231C5.76233 12.8234 5.76216 12.8243 5.76226 12.8246L5.91974 13.6354L7.39649 9.64387H8.994L6.61949 15.4864L5.02349 15.4879L3.753 10.7734C4.50895 11.1738 5.15254 11.6372 5.52526 12.2749C5.42916 12.0731 5.30254 11.8453 5.14051 11.6209C4.95182 11.3595 4.54433 11.0219 4.374 10.8784C3.78048 10.378 2.97444 9.97394 2.10374 9.76012L2.12249 9.64387ZM9.62926 9.65061H11.1915L10.2142 15.4841H8.652L9.62926 9.65061ZM18.453 9.65061H19.6365L20.8755 15.4841H19.455C19.455 15.4841 19.3141 14.8139 19.2683 14.6096C19.045 14.6096 17.4834 14.6074 17.3077 14.6074C17.2483 14.7653 16.9853 15.4841 16.9853 15.4841H15.378L17.6513 10.1351C17.8122 9.75501 18.0865 9.65061 18.453 9.65061ZM18.5693 11.2196C18.4924 11.4366 18.3585 11.787 18.3675 11.7716C18.3675 11.7716 17.8866 13.0542 17.7608 13.3871L19.0245 13.3864C18.9071 12.8301 18.7896 12.2739 18.672 11.7177L18.5693 11.2196Z" fill="url(#paint0_linear_2679_5245)"/>
<defs>
<linearGradient id="paint0_linear_2679_5245" x1="1103.38" y1="-25.2706" x2="1188.03" y2="1519.24" gradientUnits="userSpaceOnUse">
<stop stop-color="#222357"/>
<stop offset="0.456" stop-color="#254AA5"/>
</linearGradient>
</defs>
</svg>
