<svg width="18" height="18" viewBox="0 0 18 18" fill="none" xmlns="http://www.w3.org/2000/svg">
<path fill-rule="evenodd" clip-rule="evenodd" d="M15.3753 2.616C13.6827 0.93 11.4324 0.00075 9.03516 0C4.09524 0 0.0747228 4.0005 0.0724619 8.919C0.0717083 10.491 0.484687 12.0255 1.2692 13.3785L-0.00289917 18L4.74786 16.7595C6.05689 17.4705 7.53095 17.8448 9.03063 17.8455H9.0344C13.9736 17.8455 17.9948 13.8442 17.9971 8.92575C17.9986 6.543 17.0671 4.30125 15.3753 2.616ZM9.03516 16.3387H9.03214C7.69524 16.3387 6.38471 15.981 5.24073 15.3053L4.96867 15.1448L2.14941 15.8805L2.90227 13.1445L2.72517 12.864C1.9791 11.6835 1.58571 10.3193 1.58647 8.919C1.58797 4.8315 4.93024 1.506 9.03893 1.506C11.0285 1.506 12.8989 2.2785 14.3052 3.6795C15.7114 5.08125 16.4854 6.9435 16.4846 8.92425C16.4823 13.0133 13.1408 16.3387 9.03516 16.3387ZM13.1212 10.7865C12.8974 10.6748 11.7964 10.1355 11.5907 10.0612C11.3857 9.987 11.2365 9.9495 11.0865 10.1722C10.9365 10.395 10.5085 10.8975 10.3773 11.0468C10.247 11.1953 10.1158 11.214 9.89201 11.1023C9.66819 10.9905 8.94623 10.7557 8.09088 9.996C7.42544 9.405 6.97554 8.67525 6.84516 8.45175C6.71479 8.22825 6.8316 8.10825 6.94313 7.99725C7.04412 7.8975 7.16696 7.737 7.27924 7.6065C7.39229 7.4775 7.42921 7.3845 7.50457 7.23525C7.57918 7.08675 7.54225 6.95625 7.48573 6.8445C7.42921 6.7335 6.98157 5.63625 6.79543 5.19C6.61381 4.755 6.42917 4.81425 6.29126 4.8075C6.16089 4.80075 6.01167 4.8 5.8617 4.8C5.71249 4.8 5.46982 4.8555 5.26484 5.079C5.05986 5.3025 4.48109 5.84175 4.48109 6.93825C4.48109 8.0355 5.28368 9.09525 5.39522 9.24375C5.50675 9.39225 6.97403 11.6438 9.22054 12.609C9.75486 12.8385 10.1724 12.9757 10.4972 13.0785C11.0337 13.248 11.5221 13.224 11.9079 13.167C12.3382 13.1032 13.2328 12.6277 13.4197 12.1073C13.6066 11.5868 13.6066 11.1397 13.55 11.0475C13.4943 10.9537 13.3451 10.8982 13.1212 10.7865Z" fill="#1B8A4E"/>
</svg>
