<svg width="393" height="852" viewBox="0 0 393 852" fill="none" xmlns="http://www.w3.org/2000/svg">
<g clip-path="url(#clip0_1_53)">
<rect width="393" height="852" fill="black"/>
<g opacity="0.1">
<mask id="mask0_1_53" style="mask-type:alpha" maskUnits="userSpaceOnUse" x="110" y="549" width="283" height="303">
<path d="M392.957 851.764H110V549H392.957V851.764Z" fill="#81E700"/>
</mask>
<g mask="url(#mask0_1_53)">
<path d="M219.833 800.858C205.932 800.858 194.663 812.127 194.663 826.028C194.663 839.929 205.932 851.198 219.833 851.198C233.734 851.198 245.003 839.929 245.003 826.028C245.003 812.127 233.734 800.858 219.833 800.858Z" fill="#81E700"/>
<path d="M304.495 800.858C290.594 800.858 279.325 812.127 279.325 826.028C279.325 839.929 290.594 851.198 304.495 851.198C318.396 851.198 329.665 839.929 329.665 826.028C329.665 812.127 318.396 800.858 304.495 800.858Z" fill="#81E700"/>
<path d="M388.95 800.858C375.049 800.858 363.78 812.127 363.78 826.028C363.78 839.929 375.049 851.198 388.95 851.198C402.851 851.198 414.12 839.929 414.12 826.028C414.12 812.127 402.851 800.858 388.95 800.858Z" fill="#81E700"/>
<path d="M135.17 716.819C121.269 716.819 110 728.088 110 741.989C110 755.89 121.269 767.159 135.17 767.159C149.071 767.159 160.34 755.89 160.34 741.989C160.34 728.088 149.071 716.819 135.17 716.819Z" fill="#81E700"/>
<path d="M219.833 716.819C205.932 716.819 194.663 728.088 194.663 741.989C194.663 755.89 205.932 767.159 219.833 767.159C233.734 767.159 245.003 755.89 245.003 741.989C245.003 728.088 233.734 716.819 219.833 716.819Z" fill="#81E700"/>
<path d="M304.495 716.819C290.594 716.819 279.325 728.088 279.325 741.989C279.325 755.89 290.594 767.159 304.495 767.159C318.396 767.159 329.665 755.89 329.665 741.989C329.665 728.088 318.396 716.819 304.495 716.819Z" fill="#81E700"/>
<path d="M135.17 632.781C121.269 632.781 110 644.05 110 657.951C110 671.852 121.269 683.121 135.17 683.121C149.071 683.121 160.34 671.852 160.34 657.951C160.34 644.05 149.071 632.781 135.17 632.781Z" fill="#81E700"/>
<path d="M219.833 632.781C205.932 632.781 194.663 644.05 194.663 657.951C194.663 671.852 205.932 683.121 219.833 683.121C233.734 683.121 245.003 671.852 245.003 657.951C245.003 644.05 233.734 632.781 219.833 632.781Z" fill="#81E700"/>
<path d="M219.833 548.742C205.932 548.742 194.663 560.011 194.663 573.912C194.663 587.813 205.932 599.082 219.833 599.082C233.734 599.082 245.003 587.813 245.003 573.912C245.003 560.011 233.734 548.742 219.833 548.742Z" fill="#81E700"/>
<path d="M304.495 632.781C290.594 632.781 279.325 644.05 279.325 657.951C279.325 671.852 290.594 683.121 304.495 683.121C318.396 683.121 329.665 671.852 329.665 657.951C329.665 644.05 318.396 632.781 304.495 632.781Z" fill="#81E700"/>
<path d="M388.95 716.819C375.049 716.819 363.78 728.088 363.78 741.989C363.78 755.89 375.049 767.159 388.95 767.159C402.851 767.159 414.12 755.89 414.12 741.989C414.12 728.088 402.851 716.819 388.95 716.819Z" fill="#81E700"/>
</g>
</g>
<g opacity="0.1">
<mask id="mask1_1_53" style="mask-type:alpha" maskUnits="userSpaceOnUse" x="0" y="0" width="283" height="303">
<path d="M0.0432129 0H283V302.764H0.0432129V0Z" fill="#81E700"/>
</mask>
<g mask="url(#mask1_1_53)">
<path d="M173.167 50.9059C187.068 50.9059 198.337 39.6369 198.337 25.7359C198.337 11.8349 187.068 0.565918 173.167 0.565918C159.266 0.565918 147.997 11.8349 147.997 25.7359C147.997 39.6369 159.266 50.9059 173.167 50.9059Z" fill="#81E700"/>
<path d="M88.5046 50.9059C102.406 50.9059 113.675 39.6369 113.675 25.7359C113.675 11.8349 102.406 0.565918 88.5046 0.565918C74.6036 0.565918 63.3347 11.8349 63.3347 25.7359C63.3347 39.6369 74.6036 50.9059 88.5046 50.9059Z" fill="#81E700"/>
<path d="M4.05008 50.9059C17.9511 50.9059 29.2201 39.6369 29.2201 25.7359C29.2201 11.8349 17.9511 0.565918 4.05008 0.565918C-9.85092 0.565918 -21.1199 11.8349 -21.1199 25.7359C-21.1199 39.6369 -9.85092 50.9059 4.05008 50.9059Z" fill="#81E700"/>
<path d="M257.83 134.945C271.731 134.945 283 123.676 283 109.775C283 95.8735 271.731 84.6046 257.83 84.6046C243.929 84.6046 232.66 95.8735 232.66 109.775C232.66 123.676 243.929 134.945 257.83 134.945Z" fill="#81E700"/>
<path d="M173.167 134.945C187.068 134.945 198.337 123.676 198.337 109.775C198.337 95.8735 187.068 84.6046 173.167 84.6046C159.266 84.6046 147.997 95.8735 147.997 109.775C147.997 123.676 159.266 134.945 173.167 134.945Z" fill="#81E700"/>
<path d="M88.5046 134.945C102.406 134.945 113.675 123.676 113.675 109.775C113.675 95.8735 102.406 84.6046 88.5046 84.6046C74.6036 84.6046 63.3347 95.8735 63.3347 109.775C63.3347 123.676 74.6036 134.945 88.5046 134.945Z" fill="#81E700"/>
<path d="M257.83 218.983C271.731 218.983 283 207.714 283 193.813C283 179.912 271.731 168.643 257.83 168.643C243.929 168.643 232.66 179.912 232.66 193.813C232.66 207.714 243.929 218.983 257.83 218.983Z" fill="#81E700"/>
<path d="M173.167 218.983C187.068 218.983 198.337 207.714 198.337 193.813C198.337 179.912 187.068 168.643 173.167 168.643C159.266 168.643 147.997 179.912 147.997 193.813C147.997 207.714 159.266 218.983 173.167 218.983Z" fill="#81E700"/>
<path d="M173.167 303.022C187.068 303.022 198.337 291.753 198.337 277.852C198.337 263.951 187.068 252.682 173.167 252.682C159.266 252.682 147.997 263.951 147.997 277.852C147.997 291.753 159.266 303.022 173.167 303.022Z" fill="#81E700"/>
<path d="M88.5046 218.983C102.406 218.983 113.675 207.714 113.675 193.813C113.675 179.912 102.406 168.643 88.5046 168.643C74.6036 168.643 63.3347 179.912 63.3347 193.813C63.3347 207.714 74.6036 218.983 88.5046 218.983Z" fill="#81E700"/>
<path d="M4.05008 134.945C17.9511 134.945 29.2201 123.676 29.2201 109.775C29.2201 95.8735 17.9511 84.6046 4.05008 84.6046C-9.85092 84.6046 -21.1199 95.8735 -21.1199 109.775C-21.1199 123.676 -9.85092 134.945 4.05008 134.945Z" fill="#81E700"/>
</g>
</g>
</g>
<defs>
<clipPath id="clip0_1_53">
<rect width="393" height="852" fill="white"/>
</clipPath>
</defs>
</svg>
