<svg width="25" height="24" viewBox="0 0 25 24" fill="none" xmlns="http://www.w3.org/2000/svg">
    <path opacity="0.5"
        d="M17.5834 3.56V2C17.5834 1.59 17.2434 1.25 16.8334 1.25C16.4234 1.25 16.0834 1.59 16.0834 2V3.5H9.58336V2C9.58336 1.59 9.24336 1.25 8.83336 1.25C8.42336 1.25 8.08336 1.59 8.08336 2V3.56C5.38336 3.81 4.07336 5.42 3.87336 7.81C3.85336 8.1 4.09336 8.34 4.37336 8.34H21.2934C21.5834 8.34 21.8234 8.09 21.7934 7.81C21.5934 5.42 20.2834 3.81 17.5834 3.56Z"
        fill="#A4A4BE" />
    <path
        d="M20.8334 9.84009H4.83337C4.28337 9.84009 3.83337 10.2901 3.83337 10.8401V17.0001C3.83337 20.0001 5.33337 22.0001 8.83337 22.0001H16.8334C20.3334 22.0001 21.8334 20.0001 21.8334 17.0001V10.8401C21.8334 10.2901 21.3834 9.84009 20.8334 9.84009ZM10.0434 18.2101C9.94337 18.3001 9.83337 18.3701 9.71337 18.4201C9.59337 18.4701 9.46337 18.5001 9.33337 18.5001C9.20337 18.5001 9.07337 18.4701 8.95337 18.4201C8.83337 18.3701 8.72337 18.3001 8.62337 18.2101C8.44337 18.0201 8.33337 17.7601 8.33337 17.5001C8.33337 17.2401 8.44337 16.9801 8.62337 16.7901C8.72337 16.7001 8.83337 16.6301 8.95337 16.5801C9.19337 16.4801 9.47337 16.4801 9.71337 16.5801C9.83337 16.6301 9.94337 16.7001 10.0434 16.7901C10.2234 16.9801 10.3334 17.2401 10.3334 17.5001C10.3334 17.7601 10.2234 18.0201 10.0434 18.2101ZM10.2534 14.3801C10.2034 14.5001 10.1334 14.6101 10.0434 14.7101C9.94337 14.8001 9.83337 14.8701 9.71337 14.9201C9.59337 14.9701 9.46337 15.0001 9.33337 15.0001C9.20337 15.0001 9.07337 14.9701 8.95337 14.9201C8.83337 14.8701 8.72337 14.8001 8.62337 14.7101C8.53337 14.6101 8.46337 14.5001 8.41337 14.3801C8.36337 14.2601 8.33337 14.1301 8.33337 14.0001C8.33337 13.8701 8.36337 13.7401 8.41337 13.6201C8.46337 13.5001 8.53337 13.3901 8.62337 13.2901C8.72337 13.2001 8.83337 13.1301 8.95337 13.0801C9.19337 12.9801 9.47337 12.9801 9.71337 13.0801C9.83337 13.1301 9.94337 13.2001 10.0434 13.2901C10.1334 13.3901 10.2034 13.5001 10.2534 13.6201C10.3034 13.7401 10.3334 13.8701 10.3334 14.0001C10.3334 14.1301 10.3034 14.2601 10.2534 14.3801ZM13.5434 14.7101C13.4434 14.8001 13.3334 14.8701 13.2134 14.9201C13.0934 14.9701 12.9634 15.0001 12.8334 15.0001C12.7034 15.0001 12.5734 14.9701 12.4534 14.9201C12.3334 14.8701 12.2234 14.8001 12.1234 14.7101C11.9434 14.5201 11.8334 14.2601 11.8334 14.0001C11.8334 13.7401 11.9434 13.4801 12.1234 13.2901C12.2234 13.2001 12.3334 13.1301 12.4534 13.0801C12.6934 12.9701 12.9734 12.9701 13.2134 13.0801C13.3334 13.1301 13.4434 13.2001 13.5434 13.2901C13.7234 13.4801 13.8334 13.7401 13.8334 14.0001C13.8334 14.2601 13.7234 14.5201 13.5434 14.7101Z"
        fill="#A4A4BE" />
</svg>
    