<svg width="32" height="30" viewBox="0 0 32 30" fill="none" xmlns="http://www.w3.org/2000/svg">
    <path
        d="M7.77461 12.9375C7.18961 12.9375 6.6958 13.5819 6.6958 14.3438C6.6958 15.1063 7.18955 15.7506 7.77461 15.7506C8.35961 15.7506 8.85399 15.1063 8.85399 14.3438C8.85399 13.5819 8.35961 12.9375 7.77461 12.9375Z"
        fill="white" />
    <path
        d="M17.2351 20.3745C16.6501 20.3745 16.1562 21.0189 16.1562 21.7814C16.1562 22.5433 16.65 23.1876 17.2351 23.1876C17.8201 23.1876 18.3145 22.5433 18.3145 21.7814C18.3145 21.0189 17.8201 20.3745 17.2351 20.3745Z"
        fill="white" />
    <path
        d="M23.3657 8.9813C13.8605 0.235174 14.3467 0.569237 13.591 0.275674C12.5171 -0.150326 11.2392 0.0724245 10.3565 0.884425L1.55694 8.9813C0.5675 9.8913 0 11.1863 0 12.535V26.8732C0 28.5625 1.36756 29.9375 3.04819 29.9375H21.8738C23.5544 29.9375 24.9219 28.5625 24.9219 26.8732V12.535C24.922 11.1863 24.3544 9.8913 23.3657 8.9813ZM11.5541 5.90755C11.6109 5.36267 12.1106 4.97574 12.6698 5.08067C13.2045 5.19217 13.5057 5.7053 13.406 6.18317C13.3001 6.6923 12.8211 7.01661 12.3035 6.91942C11.8091 6.8163 11.5074 6.36717 11.5541 5.90755ZM4.82075 14.3438C4.82075 12.5344 6.14581 11.0625 7.77462 11.0625C9.40406 11.0625 10.7291 12.5344 10.7291 14.3438C10.7291 16.1532 9.404 17.6257 7.77462 17.6257C6.14581 17.6257 4.82075 16.1532 4.82075 14.3438ZM10.1953 24.3225C9.53281 24.3225 9.07044 23.6433 9.33156 23.0219L13.8954 12.1444C14.0961 11.6669 14.6454 11.4419 15.1229 11.6425C15.6004 11.8425 15.8248 12.3925 15.6248 12.87L11.0603 23.7475C10.9097 24.1063 10.5622 24.3225 10.1953 24.3225ZM17.2349 25.0625C15.6061 25.0625 14.2811 23.5907 14.2811 21.7813C14.2811 19.9719 15.6061 18.4994 17.2349 18.4994C18.8637 18.4994 20.1893 19.9719 20.1893 21.7813C20.1893 23.5907 18.8637 25.0625 17.2349 25.0625Z"
        fill="white" />
    <path
        d="M31.7647 19.2775C28.7122 10.3916 27.0168 5.45112 26.9927 5.39499C26.4621 4.16624 25.4308 3.21062 24.1645 2.77374C24.0918 2.74905 24.5206 2.85318 17.7212 1.23999L24.6345 7.60124C26.0089 8.86499 26.7971 10.6631 26.7971 12.535V24.685L30.1697 23.2412C31.6953 22.5812 32.4047 20.8094 31.7647 19.2775Z"
        fill="white" />
</svg>
    