<svg width="29" height="27" viewBox="0 0 29 27" fill="none" xmlns="http://www.w3.org/2000/svg">
    <path
        d="M20.9767 0C18.0987 0 15.8914 1.61792 14.4215 4.02561C12.9514 1.61748 10.7438 0 7.86628 0C5.63654 0 3.60205 0.941157 2.13779 2.65006C0.75927 4.25906 0 6.40778 0 8.70054C0 11.1935 0.935038 13.4983 2.94251 15.9538C4.70263 18.1067 7.22946 20.3214 10.1554 22.886C11.2371 23.8341 12.3556 24.8145 13.5444 25.8844C13.7938 26.1088 14.1076 26.2209 14.4215 26.2209C14.7354 26.2209 15.0492 26.1088 15.2986 25.8843C16.4874 24.8144 17.6059 23.834 18.6876 22.8859C21.6136 20.3214 24.1404 18.1066 25.9005 15.9537C27.908 13.4984 28.843 11.1935 28.843 8.70054C28.843 4.0125 25.6311 0 20.9767 0Z"
        fill="white" />
</svg>
    