<svg width="362" height="322" viewBox="0 0 362 322" fill="none" xmlns="http://www.w3.org/2000/svg">
    <path
        d="M97.3244 278.16C133.144 279.44 154.674 280.2 161.914 280.43C179.174 281.25 194.214 279.94 207.054 276.51C245.164 266.31 277.754 236.06 304.824 185.73C318.044 160.94 328.434 135.6 335.994 109.71C341.444 90.88 347.424 62.83 353.924 25.56C347.594 56.88 335.964 87.63 319.044 117.81C301.264 148.94 285.474 172.34 271.684 188C257.854 203.53 238.994 219.41 215.084 235.64C191.044 251.91 165.164 259.26 137.424 257.7C109.424 256.21 81.6744 258.38 54.1744 264.22C26.6344 269.92 0.62439 281.88 -23.8556 300.1C-48.4656 318.35 -67.5956 339.09 -81.2456 362.32C-75.4756 360.29 -67.8156 355.2 -58.2656 347.05C-48.7556 338.77 -29.3856 324.93 -0.175613 305.54C29.0044 286.01 61.5044 276.89 97.3244 278.17"
        fill="#FB8636" />
    <path
        d="M346.424 -66.5C347.614 -74.85 346.834 -80.69 344.084 -84L330.054 -23.73C325.834 -5.53 322.454 7.59 319.904 15.62C310.664 44.09 295.974 70.91 275.824 96.08C256.824 119.81 234.144 140.69 207.784 158.73C161.914 190.08 105.074 213.1 37.2544 227.77C11.0544 233.24 -2.36564 236.07 -3.02564 236.25C-18.3556 239.82 -31.4556 243.82 -42.3156 248.25C-61.3456 256.22 -80.7556 268.39 -100.546 284.74C-108.466 291.17 -114.326 297.66 -118.136 304.2C-123.146 312.49 -124.286 320.27 -121.556 327.53C-98.4556 297.31 -61.4356 273.84 -10.5056 257.12C2.40436 252.96 23.8643 247.12 53.8544 239.61C81.7243 232.55 103.104 226.45 117.994 221.32C161.634 206.21 200.524 184.18 234.684 155.25C270.414 124.89 297.364 89.8 315.544 49.98C329.734 18.58 340.024 -20.24 346.424 -66.49"
        fill="#FB8636" />
    <path
        d="M361.844 185.44C361.844 182.02 360.624 179.1 358.184 176.66C355.744 174.22 352.814 173 349.394 173C345.974 173 343.044 174.22 340.604 176.66C338.164 179.1 336.944 182.03 336.944 185.44C336.944 188.85 338.164 191.79 340.604 194.23C343.044 196.67 345.974 197.89 349.394 197.89C352.814 197.89 355.734 196.67 358.184 194.23C360.624 191.79 361.844 188.86 361.844 185.44Z"
        fill="#FB8636" />
    <path
        d="M319.534 273C323.664 268.66 325.734 263.59 325.734 257.81C325.734 252.03 323.664 246.96 319.534 242.61C315.194 238.47 310.124 236.41 304.334 236.41C298.544 236.41 293.274 238.48 289.134 242.61C284.994 246.95 282.934 252.02 282.934 257.81C282.934 263.6 285.004 268.66 289.134 273C293.274 277.14 298.334 279.2 304.334 279.2C310.334 279.2 315.184 277.13 319.534 273Z"
        fill="#FB8636" />
    <path
        d="M-52.1257 178.98C-51.1457 176.34 -51.0057 174.34 -51.6857 172.97C-52.4657 171.5 -49.5357 170.53 -42.8857 170.04C-36.1457 169.36 -29.3957 168.52 -22.6557 167.55C12.3343 162.96 41.6143 153.47 65.1643 139.11C88.7243 124.74 108.324 112.72 123.954 103.04L154.454 86.03C151.914 86.03 149.324 85.98 146.684 85.88C137.394 84.9 125.084 84.37 109.734 84.27L109.144 84.71C101.424 87.84 93.7943 91.94 86.2743 97.03C33.8843 131.83 -15.2857 153.58 -61.2257 162.28C-66.3057 163.06 -71.2957 163.8 -76.1857 164.48C-81.1657 166.83 -82.7357 170.2 -80.8757 174.6C-71.2957 174.6 -66.3657 176.75 -66.0657 181.05C-65.7757 185.16 -68.3657 188.87 -73.8357 192.19C-79.3057 195.32 -83.6057 201.13 -86.7357 209.64C-89.9657 218.14 -90.2557 223.81 -87.6157 226.65C-84.9757 229.48 -53.6457 227.48 6.36432 220.64C66.2843 213.7 112.904 200.41 146.234 180.76C179.664 161.21 203.224 124.46 216.904 70.5C212.994 72.36 208.594 74.41 203.704 76.66C198.134 79.2 192.854 81.69 187.874 84.14C173.604 92.06 158.744 101.54 143.304 112.58C143.154 112.73 143.014 112.87 142.864 113.02C130.354 121.82 117.594 131.69 104.594 142.64C71.9443 169.03 37.3943 184.08 0.934311 187.8C-35.5257 191.32 -55.5157 191.86 -59.0357 189.41C-55.3257 185.01 -53.0257 181.54 -52.1457 179M75.2643 175.77C76.3443 173.81 77.8543 172.3 79.8143 171.22C81.9643 170.05 84.0643 169.56 86.1143 169.75C88.0743 170.04 89.5843 170.87 90.6543 172.24C91.4343 173.71 91.4343 175.42 90.6543 177.37C89.5843 179.33 88.0643 180.94 86.1143 182.21C84.0643 183.29 81.9643 183.72 79.8143 183.53C77.8543 183.33 76.3443 182.5 75.2643 181.04C74.4843 179.57 74.4843 177.82 75.2643 175.76M135.524 131.92C138.454 130.16 141.294 129.43 144.024 129.72C147.154 130.11 149.304 131.33 150.474 133.39C151.644 135.44 151.644 137.79 150.474 140.43C149.304 143.26 147.244 145.56 144.314 147.32C141.384 148.88 138.454 149.47 135.514 149.08C132.584 148.79 130.524 147.56 129.354 145.41C128.084 143.45 127.984 141.11 129.064 138.37C130.434 135.63 132.584 133.48 135.514 131.92M108.974 155.38C111.614 153.82 114.204 153.18 116.744 153.47C117.724 153.57 118.654 153.81 119.534 154.2C120.704 154.79 121.684 155.62 122.464 156.69C123.534 158.55 123.534 160.65 122.464 162.99C121.294 165.53 119.434 167.58 116.894 169.15C114.254 170.52 111.614 171.06 108.974 170.76C107.014 170.47 105.404 169.73 104.134 168.56C103.944 168.36 103.694 168.02 103.404 167.53C102.334 165.67 102.334 163.52 103.404 161.08C104.574 158.64 106.434 156.73 108.974 155.36M-73.2757 149.49C-71.9057 149.2 -70.2957 148.9 -68.4357 148.61C-51.4257 145.68 -36.3757 142.35 -23.2757 138.64C4.19431 130.92 35.0343 117.58 69.2443 98.61C77.3543 93.92 83.4643 90.74 87.5743 89.08C92.8543 86.83 97.7843 85.22 102.384 84.24H95.7843C73.5943 84.14 41.0443 93.04 -1.86568 110.92C-45.0657 128.71 -73.7057 140.29 -87.7857 145.67C-85.4357 148.6 -82.7057 150.07 -79.5757 150.07C-76.7457 149.87 -74.6357 149.68 -73.2657 149.48"
        fill="#239DD2" />
</svg>
    