<svg xmlns="http://www.w3.org/2000/svg" width="17.855" height="17.855" viewBox="0 0 17.855 17.855">
    <path id="Path_5361" data-name="Path 5361"
        d="M47.385,693.86a3.2,3.2,0,0,1-.568.765q-.329.321-1.181,1.083a5.1,5.1,0,0,0-.377.377,1.539,1.539,0,0,0-.211.3,1.443,1.443,0,0,0-.107.27c-.025.09-.063.248-.115.474a.77.77,0,0,1-.823.72.842.842,0,0,1-.606-.235.924.924,0,0,1-.245-.7,2.579,2.579,0,0,1,.18-1.008,2.53,2.53,0,0,1,.477-.747,10.88,10.88,0,0,1,.8-.765q.444-.389.641-.585a2,2,0,0,0,.332-.44,1.058,1.058,0,0,0,.134-.526,1.22,1.22,0,0,0-.411-.934,1.5,1.5,0,0,0-1.063-.381,1.471,1.471,0,0,0-1.122.384,3.087,3.087,0,0,0-.608,1.132q-.237.783-.893.782a.88.88,0,0,1-.655-.273.837.837,0,0,1-.266-.592,2.506,2.506,0,0,1,.422-1.332,3.254,3.254,0,0,1,1.233-1.118,3.875,3.875,0,0,1,1.889-.443,4.032,4.032,0,0,1,1.772.37,2.873,2.873,0,0,1,1.187,1.008,2.468,2.468,0,0,1,.419,1.384,2.135,2.135,0,0,1-.238,1.031M44.8,700.269a1.048,1.048,0,0,1-.72.278,1.092,1.092,0,0,1-.737-.274.958.958,0,0,1-.315-.765.987.987,0,0,1,.305-.734,1.029,1.029,0,0,1,.747-.3,1.016,1.016,0,0,1,1.032,1.031.964.964,0,0,1-.312.761m-.636-13.89A8.927,8.927,0,1,0,53.09,695.3a8.926,8.926,0,0,0-8.927-8.923"
        transform="translate(-35.235 -686.379)" fill="#fff" />
</svg>
  