<svg width="327" height="141" viewBox="0 0 327 141" fill="none" xmlns="http://www.w3.org/2000/svg">
<rect width="327" height="140.222" rx="20" fill="url(#paint0_linear_2112_12787)"/>
<mask id="mask0_2112_12787" style="mask-type:alpha" maskUnits="userSpaceOnUse" x="0" y="0" width="327" height="141">
<rect width="327" height="140.222" rx="20" fill="white" fill-opacity="0.03"/>
</mask>
<g mask="url(#mask0_2112_12787)">
<path fill-rule="evenodd" clip-rule="evenodd" d="M84.3079 -2.23624C101.114 47.6825 117.261 95.6429 191.442 93.0662C259.51 90.7018 302.683 99.441 327.259 114.552V173.384C327.259 184.43 318.305 193.384 307.259 193.384H-57.3809C-68.4266 193.384 -77.3809 184.43 -77.3809 173.384V-71.2246C-77.3809 -82.2703 -68.4266 -91.2246 -57.3809 -91.2246H31.0787C61.2558 -70.7061 72.9328 -36.0226 84.3079 -2.23624Z" fill="white" fill-opacity="0.06"/>
<path fill-rule="evenodd" clip-rule="evenodd" d="M-61.9693 -90.6958C-70.8035 -88.622 -77.3809 -80.6914 -77.3809 -71.2247V173.384C-77.3809 184.43 -68.4266 193.384 -57.3809 193.384H307.259C312.656 193.384 317.555 191.246 321.153 187.77C339.413 140.459 308.248 97.8441 170.838 102.617C100.005 105.078 84.586 59.2812 68.5379 11.6148C50.8432 -40.9424 32.3831 -95.7729 -61.9693 -90.6958Z" fill="white" fill-opacity="0.06"/>
</g>
<g style="mix-blend-mode:luminosity" filter="url(#filter0_d_2112_12787)">
<path d="M193.78 60.4941L193.361 66.3704L192.311 83.999C192.101 86.9371 190.213 89.6654 187.484 90.7147C165.868 99.1093 166.498 99.1093 165.658 99.3192C164.609 99.529 163.35 99.529 162.091 99.3192C161.041 99.1093 161.881 99.3192 140.265 90.7147C137.536 89.6654 135.648 86.9371 135.438 83.999L134.388 66.3704L133.969 60.4941L163.77 69.9381L193.78 60.4941Z" fill="#F0A671"/>
<path d="M165.449 73.7148V99.1085C164.399 99.3184 163.14 99.3184 161.881 99.1085V73.7148C163.14 74.3444 164.399 74.3444 165.449 73.7148Z" fill="#F9BD94"/>
<path d="M133.759 60.4941L134.179 66.3704L162.091 78.3327C163.14 78.7524 164.399 78.7524 165.658 78.3327L193.57 66.3704L193.99 60.4941L163.769 69.9381L133.759 60.4941Z" fill="#C4875C"/>
<g opacity="0.5">
<path d="M162.09 73.7148V78.122C163.139 78.5417 164.398 78.5417 165.658 78.122V73.7148C164.398 74.3444 163.139 74.3444 162.09 73.7148Z" fill="#965425"/>
</g>
<path d="M195.25 61.5443L165.659 74.1362C165.239 74.346 164.61 74.5559 163.98 74.5559C163.35 74.5559 162.931 74.346 162.301 74.1362L132.29 61.5443C130.192 60.7048 129.772 54.6187 130.611 50.6313C130.821 49.7918 131.031 49.1622 131.241 48.5326C131.661 47.903 131.871 47.4833 132.29 47.2734H195.25C195.67 47.4833 195.879 47.6932 196.089 48.1129C196.509 48.7425 196.719 49.582 196.929 50.4214C197.768 54.6187 197.139 60.7048 195.25 61.5443Z" fill="#F0A671"/>
<path d="M196.929 50.6298C196.509 49.3706 194.62 50.0002 194.62 50.0002L166.918 61.7526C166.078 62.1723 165.449 63.0118 165.449 64.0611V74.1347C165.029 74.3445 164.4 74.5544 163.77 74.5544C163.14 74.5544 162.721 74.3445 162.091 74.1347V63.8513C162.091 62.8019 161.461 61.9625 160.622 61.5428L132.71 49.7903C132.08 49.5804 130.821 49.3706 130.401 50.4199C130.611 49.5804 130.821 48.9509 131.031 48.3213C131.451 47.9015 131.87 47.4818 132.29 47.2719L161.881 34.68C162.93 34.2603 164.19 34.2603 165.449 34.68L195.04 47.2719C195.46 47.4818 195.669 47.6917 195.879 48.1114C196.509 48.741 196.719 49.5804 196.929 50.6298Z" fill="#F9BD94"/>
<path d="M164.609 60.4941L192.311 48.9515C192.731 48.7417 192.731 48.1121 192.311 47.9022L164.609 36.5695C163.979 36.3596 163.35 36.3596 162.72 36.5695L135.228 47.9022C134.808 48.1121 134.808 48.7417 135.228 48.9515L162.72 60.2843C163.35 60.704 164.189 60.704 164.609 60.4941Z" fill="#F0A671"/>
<path d="M178.46 56.7171L175.941 57.7664C175.522 57.3467 175.102 57.1368 173.843 56.5072L176.781 55.248C177.41 55.8776 178.04 56.2974 178.46 56.7171Z" fill="#F9BD94"/>
<path d="M151.597 57.9763L149.079 56.7171C149.499 56.0875 150.128 55.6678 150.758 55.248L153.696 56.5072C152.647 57.1368 152.017 57.5566 151.597 57.9763Z" fill="#F9BD94"/>
<path d="M163.769 48.3223C166.708 49.7913 173.004 53.1492 176.781 55.4577L173.843 56.7169C170.905 55.0379 166.917 53.1492 163.769 51.89C159.992 53.5689 156.634 55.0379 153.696 56.7169L150.758 55.4577C154.116 53.359 160.202 50.0012 163.769 48.3223Z" fill="#C4875C"/>
<g filter="url(#filter1_d_2112_12787)">
<path d="M154.23 43.0781C149.621 45.5967 145.221 47.9053 141.241 50.214C138.936 51.6831 137.47 54.2017 137.679 56.9301L140.193 89.8809C140.403 91.5599 141.241 93.239 142.498 94.0785C145.64 96.3871 150.878 99.5353 153.392 97.4365L150.669 95.5476L150.04 56.0906L164.287 48.1152V43.0781H154.23Z" fill="#DE6D72"/>
<g opacity="0.5">
<path d="M151.295 61.7558L151.505 94.077L150.038 91.5585C148.781 60.9163 147.943 59.2373 149.619 56.7188L152.133 57.7681C151.295 58.8175 151.295 60.2867 151.295 61.7558Z" fill="#965425"/>
</g>
<path d="M147.736 60.4975L149.202 95.3373C149.202 97.0163 150.878 98.4854 152.554 98.0657C153.392 97.8558 154.23 97.2262 154.859 96.3867L152.135 95.1274C151.716 94.9175 151.507 94.4978 151.507 94.078L150.459 60.0778C150.459 58.3988 151.297 56.5099 152.764 55.6703C156.326 53.5716 159.887 51.8925 164.077 50.0036V46.8555C160.097 48.7444 154.859 51.6827 151.088 53.9913C148.993 55.2506 147.526 57.7691 147.736 60.4975Z" fill="#B15C60"/>
<path d="M174.343 43.0781C178.952 45.3868 183.351 47.9053 187.332 50.214C189.637 51.6831 191.103 54.2017 190.894 56.9301L188.38 89.8809C188.17 91.5599 187.332 93.239 186.075 94.0785C182.932 96.3871 177.695 99.5353 175.181 97.4365L177.904 95.5476L178.533 56.0906L164.286 48.1152V43.0781H174.343Z" fill="#DE6D72"/>
<g opacity="0.5">
<path d="M177.277 61.7549L177.067 94.286L178.743 91.5576C179.581 60.9154 180.629 59.4463 178.953 56.9277L176.438 57.9771C177.277 58.8166 177.277 60.2858 177.277 61.7549Z" fill="#965425"/>
</g>
<path d="M180.838 60.4975L179.371 95.3373C179.371 97.0163 177.695 98.4854 176.019 98.0657C175.181 97.8558 174.343 97.2262 173.714 96.3867L176.438 95.3373C176.857 95.1274 177.067 94.9175 177.067 94.4978L178.114 60.4975C178.114 58.8185 177.276 56.9296 175.81 56.0901C174.762 55.4605 173.505 54.8308 172.457 54.2012C170.153 52.9419 167.639 51.8925 165.334 50.8431C164.915 50.6333 164.706 50.6333 164.496 50.4234V46.8555C165.544 47.4851 166.591 47.9049 167.639 48.5345C170.991 50.2135 173.924 51.8925 177.486 53.9913C177.695 54.2012 177.905 54.4111 178.114 54.4111C179.79 55.8802 181.047 58.1889 180.838 60.4975Z" fill="#B15C60"/>
<path d="M160.934 44.1252C160.934 44.335 160.724 44.7548 160.724 44.9647C159.677 48.1128 158.21 49.7919 154.858 48.9523C152.763 48.3227 144.383 50.2116 143.754 50.0017C141.869 49.1622 141.24 47.0634 141.45 44.7548C141.45 41.8165 142.707 38.4584 143.754 36.3597C144.802 34.2609 146.478 32.5819 148.363 32.1621H149.201C152.135 32.1621 157.163 36.9893 158.839 39.0881C160.515 41.1869 159.048 39.298 159.048 39.298C160.096 40.5572 160.724 41.8165 160.934 42.8659V44.1252Z" fill="#DE6D72"/>
<path d="M160.934 44.1252C160.934 44.335 160.725 44.7548 160.725 44.9647C160.306 43.7054 159.049 41.8165 158.63 41.3967C156.744 39.0881 151.926 34.4708 148.992 34.4708C144.802 34.4708 142.079 40.5572 141.45 44.7548C141.45 41.8165 142.707 38.4584 143.755 36.3597C144.593 34.4708 146.688 32.5819 148.364 32.1621H149.202C152.135 32.1621 157.163 36.9893 158.839 39.0881C160.515 41.1869 159.049 39.298 159.049 39.298C160.306 40.977 160.725 42.0264 160.934 42.8659V44.1252Z" fill="#DE6D72"/>
<g opacity="0.5">
<path d="M163.24 50.6308C162.611 50.8406 161.773 51.2604 161.145 51.4703C158.631 51.2604 158.212 51.2604 157.583 50.8406C157.793 50.8406 158.002 50.6308 158.002 50.4209C158.84 49.5814 158.421 48.7419 157.793 47.9023H160.516L160.935 48.3221L163.24 50.6308Z" fill="#A3565A"/>
</g>
<path d="M141.45 46.6452C141.45 47.9045 141.45 51.8922 146.059 52.5218C147.735 52.7317 151.088 52.7317 152.973 52.7317C155.697 52.5218 159.677 52.102 159.677 49.3736C159.677 48.9539 159.468 48.3242 159.258 47.9045C158.839 47.065 157.373 45.8057 157.163 45.8057C153.811 43.2872 148.573 41.1884 146.269 40.9785C143.336 40.9785 141.45 43.7069 141.45 46.6452Z" fill="#C66C71"/>
<path d="M150.878 51.8905C168.896 51.8905 151.087 42.0263 146.269 41.8164C143.964 41.8164 142.288 43.9152 142.288 46.6436C142.288 52.1004 145.431 51.8905 150.878 51.8905Z" fill="#B15C60"/>
<path d="M158.211 50.632C158.42 50.4229 158.42 50.632 158.211 50.632V50.632Z" fill="#B15C60"/>
<path d="M142.288 46.6436C142.288 47.693 142.498 49.1621 143.126 50.0016C143.336 47.693 145.012 45.5942 147.107 45.5942C149.202 45.5942 154.649 47.693 158.001 50.6313C161.353 53.5696 158.001 50.6313 158.211 50.4214C160.934 47.693 150.04 42.0263 146.059 41.8164C143.964 42.0263 142.288 43.9152 142.288 46.6436Z" fill="#A3565A"/>
<path d="M167.637 44.1253C168.475 47.4834 170.151 50.0019 173.713 48.7427C175.808 48.113 184.188 50.0019 184.817 49.7921C186.284 49.1624 186.912 47.6933 187.122 46.0142C187.541 41.3969 184.188 30.903 178.113 32.3722C176.018 33.0018 172.037 36.15 169.523 39.2982C167.009 42.4463 169.313 39.508 169.313 39.508C168.056 41.1871 167.218 42.8661 167.637 44.1253Z" fill="#DE6D72"/>
<path d="M187.122 44.7558C186.284 39.9286 183.141 33.4224 178.323 34.4718C175.18 35.5212 168.685 41.3978 167.847 44.7558C167.428 43.4965 167.009 42.2373 169.314 39.299L169.523 39.0891C172.037 35.9409 176.018 33.0026 178.113 32.1631C183.979 30.9039 187.122 40.5582 187.122 44.7558Z" fill="#DE6D72"/>
<g opacity="0.5">
<path d="M187.961 50.6308C186.285 54.1987 182.305 54.4086 178.115 54.4086C177.067 54.4086 176.229 54.4086 175.181 54.4086C173.505 54.4086 172.877 54.1987 172.248 53.9888C169.944 52.7295 167.43 51.6801 165.125 50.6308L167.22 48.3221L167.639 47.9023H183.143C184.609 48.7419 187.333 50.211 187.961 50.6308Z" fill="#A3565A"/>
</g>
<path d="M168.895 49.5826C168.895 52.311 172.875 52.7308 175.599 52.9407C182.513 53.1505 187.122 53.3604 187.122 46.8542C187.122 43.9159 185.236 41.1875 182.303 41.1875C178.741 41.1875 168.895 45.8048 168.895 49.5826Z" fill="#C66C71"/>
<path d="M177.694 51.8905C159.676 51.8905 177.694 42.0263 182.303 41.8164C184.608 41.8164 186.284 43.9152 186.284 46.6436C186.284 52.1004 182.931 51.8905 177.694 51.8905Z" fill="#B15C60"/>
<path d="M186.284 46.6436C186.284 47.693 186.075 48.9523 185.446 50.0016C185.237 47.4831 183.56 45.5942 181.465 45.5942C179.37 45.5942 173.923 47.693 170.571 50.6313C167.219 53.5696 170.571 50.6313 170.361 50.4214C167.638 47.693 178.532 42.0263 182.513 41.8164C184.608 42.0263 186.284 43.9152 186.284 46.6436Z" fill="#A3565A"/>
<g opacity="0.1">
<path d="M171.619 46.8546C170.99 47.2744 170.152 48.3238 169.943 49.1633C169.943 49.583 169.943 50.0028 170.362 50.4225C170.362 50.4225 170.362 50.6324 170.571 50.6324C170.781 50.8423 170.781 50.8423 170.99 51.0522C170.571 51.4719 169.943 51.4719 167.429 51.6818C166.381 51.0522 165.333 50.6324 164.286 50.2127C163.867 50.4225 163.657 50.4225 163.448 50.6324C162.819 50.8423 161.981 51.262 161.353 51.4719C158.839 51.262 158.42 51.262 157.791 50.8423C158.629 50.4225 159.258 49.3731 158.001 47.904C157.582 47.4842 157.372 47.0645 156.953 46.8546C156.953 46.4349 158.001 40.7681 158.001 40.5583C158.21 39.9286 158.42 39.5089 158.839 39.299C159.258 39.0891 159.048 39.5089 159.048 39.5089C160.305 41.1879 161.143 42.8669 160.724 44.1262C160.305 45.5953 159.886 47.0645 158.839 47.904C159.048 48.3238 159.258 48.7435 159.258 49.1633C159.677 48.9534 160.305 48.5336 160.934 48.3238C162.191 47.904 163.238 47.2744 164.286 46.8546C165.962 47.6941 167.429 48.5336 169.105 49.3731C169.105 48.9534 169.314 48.5336 169.524 48.1139C168.686 47.0645 168.057 45.8052 167.638 44.3361C167.219 43.0768 168.057 41.3978 169.524 39.7188C169.524 39.7188 169.524 39.5089 169.733 39.5089C170.152 39.5089 170.362 39.9286 170.571 40.5583C170.571 40.978 171.619 46.6447 171.619 46.8546Z" fill="#111D33"/>
</g>
<path d="M157.582 48.7437C157.373 49.5832 158.001 50.2128 158.63 50.2128C163.448 50.8425 164.705 50.8425 169.734 50.2128C170.572 50.2128 170.991 49.3733 170.781 48.7437L169.734 43.7066C169.734 43.077 169.105 42.8671 168.477 42.8671C165.753 43.4967 162.191 43.4967 159.468 42.8671C158.839 42.6572 158.42 43.077 158.211 43.7066L157.582 48.7437Z" fill="#DE6D72"/>
<path d="M158.21 45.3848C158.001 46.0144 158.629 46.854 159.258 46.854C163.448 47.4836 165.124 47.4836 169.314 46.854C169.942 46.854 170.571 46.2243 170.362 45.3848L169.523 40.7675C169.523 40.3477 168.895 39.928 168.476 40.1379C166.171 40.7675 162.61 40.7675 160.305 40.1379C159.886 39.928 159.258 40.3477 159.258 40.7675L158.21 45.3848Z" fill="#DE6D72"/>
</g>
</g>
<defs>
<filter id="filter0_d_2112_12787" x="126.206" y="31.0508" width="75.0879" height="75.4258" filterUnits="userSpaceOnUse" color-interpolation-filters="sRGB">
<feFlood flood-opacity="0" result="BackgroundImageFix"/>
<feColorMatrix in="SourceAlpha" type="matrix" values="0 0 0 0 0 0 0 0 0 0 0 0 0 0 0 0 0 0 127 0" result="hardAlpha"/>
<feOffset dy="3"/>
<feGaussianBlur stdDeviation="2"/>
<feComposite in2="hardAlpha" operator="out"/>
<feColorMatrix type="matrix" values="0 0 0 0 0 0 0 0 0 0 0 0 0 0 0 0 0 0 0.25 0"/>
<feBlend mode="normal" in2="BackgroundImageFix" result="effect1_dropShadow_2112_12787"/>
<feBlend mode="normal" in="SourceGraphic" in2="effect1_dropShadow_2112_12787" result="shape"/>
</filter>
<filter id="filter1_d_2112_12787" x="133.659" y="31.0508" width="61.2539" height="74.0879" filterUnits="userSpaceOnUse" color-interpolation-filters="sRGB">
<feFlood flood-opacity="0" result="BackgroundImageFix"/>
<feColorMatrix in="SourceAlpha" type="matrix" values="0 0 0 0 0 0 0 0 0 0 0 0 0 0 0 0 0 0 127 0" result="hardAlpha"/>
<feOffset dy="3"/>
<feGaussianBlur stdDeviation="2"/>
<feComposite in2="hardAlpha" operator="out"/>
<feColorMatrix type="matrix" values="0 0 0 0 0 0 0 0 0 0 0 0 0 0 0 0 0 0 0.25 0"/>
<feBlend mode="normal" in2="BackgroundImageFix" result="effect1_dropShadow_2112_12787"/>
<feBlend mode="normal" in="SourceGraphic" in2="effect1_dropShadow_2112_12787" result="shape"/>
</filter>
<linearGradient id="paint0_linear_2112_12787" x1="0" y1="70.1108" x2="327" y2="70.1108" gradientUnits="userSpaceOnUse">
<stop stop-color="#D39F7A"/>
<stop offset="1" stop-color="#E0AD89"/>
</linearGradient>
</defs>
</svg>
