<svg width="24" height="24" viewBox="0 0 24 24" fill="none" xmlns="http://www.w3.org/2000/svg">
<path fill-rule="evenodd" clip-rule="evenodd" d="M21.5115 7.11809L20.7991 5.8819C20.1964 4.8359 18.8609 4.47505 17.8134 5.07524C17.3149 5.36895 16.7199 5.45228 16.1598 5.30686C15.5997 5.16142 15.1205 4.79918 14.8277 4.3C14.6394 3.98271 14.5382 3.62132 14.5344 3.25238C14.5514 2.66087 14.3282 2.08767 13.9157 1.66336C13.5032 1.23905 12.9366 0.999748 12.3449 1H10.9096C10.3299 0.999989 9.77404 1.231 9.3651 1.64192C8.95613 2.05285 8.72779 2.60979 8.73057 3.18952C8.71339 4.38647 7.73812 5.34774 6.54105 5.34762C6.17211 5.34378 5.81071 5.24259 5.49343 5.05429C4.44599 4.4541 3.11039 4.81494 2.50771 5.86096L1.74295 7.11809C1.141 8.16279 1.49693 9.49756 2.53914 10.1038C3.21659 10.4949 3.63392 11.2178 3.63392 12C3.63392 12.7823 3.21659 13.505 2.53914 13.8962C1.49826 14.4984 1.14193 15.8299 1.74295 16.8714L2.46581 18.1181C2.74818 18.6277 3.22197 19.0037 3.78232 19.1629C4.34267 19.3222 4.94337 19.2516 5.45153 18.9667C5.95106 18.6752 6.54634 18.5953 7.10503 18.7449C7.66375 18.8944 8.13957 19.2608 8.42677 19.7628C8.61508 20.0802 8.71626 20.4415 8.7201 20.8105C8.7201 22.0197 9.70034 23 10.9096 23H12.3449C13.5501 23 14.5286 22.0261 14.5344 20.8209C14.5316 20.2394 14.7614 19.6809 15.1725 19.2696C15.5838 18.8584 16.1424 18.6286 16.7239 18.6315C17.092 18.6413 17.4519 18.742 17.7715 18.9248C18.8162 19.5267 20.151 19.1708 20.7572 18.1286L21.5115 16.8714C21.8035 16.3703 21.8837 15.7735 21.7342 15.213C21.5847 14.6526 21.218 14.1749 20.7154 13.8857C20.2126 13.5965 19.846 13.1187 19.6965 12.5584C19.547 11.998 19.6271 11.4012 19.9191 10.9C20.109 10.5685 20.3839 10.2937 20.7154 10.1038C21.7513 9.49788 22.1064 8.17092 21.5115 7.12858V7.11809Z" stroke="#8C8C8C" stroke-width="1.5" stroke-linecap="round" stroke-linejoin="round"/>
<path d="M11.6324 15.0175C13.2987 15.0175 14.6495 13.6667 14.6495 12.0004C14.6495 10.334 13.2987 8.98322 11.6324 8.98322C9.96606 8.98322 8.61523 10.334 8.61523 12.0004C8.61523 13.6667 9.96606 15.0175 11.6324 15.0175Z" stroke="#8C8C8C" stroke-width="1.5" stroke-linecap="round" stroke-linejoin="round"/>
</svg>
