<svg width="16" height="16" viewBox="0 0 16 16" fill="none" xmlns="http://www.w3.org/2000/svg">
<path fill-rule="evenodd" clip-rule="evenodd" d="M5.06525 2.99133C5.24325 2.118 6.02058 1.5 6.91058 1.5H9.08925C9.97925 1.5 10.7559 2.118 10.9346 2.99133C10.9543 3.0875 11.0058 3.17425 11.0807 3.23761C11.1557 3.30098 11.2498 3.33728 11.3479 3.34067H11.3699C12.3052 3.382 13.0239 3.49667 13.6239 3.89067C14.0019 4.13867 14.3272 4.45733 14.5806 4.83C14.8959 5.29267 15.0346 5.82467 15.1012 6.46733C15.1666 7.096 15.1666 7.88333 15.1666 8.88067V8.93733C15.1666 9.93467 15.1666 10.7227 15.1012 11.3507C15.0346 11.9933 14.8959 12.5253 14.5806 12.9887C14.3265 13.3615 14.0014 13.6807 13.6239 13.928C13.1552 14.2353 12.6172 14.3713 11.9652 14.436C11.3266 14.5 10.5259 14.5 9.50858 14.5H6.49125C5.47392 14.5 4.67325 14.5 4.03458 14.436C3.38258 14.3713 2.84458 14.236 2.37592 13.928C1.99839 13.6805 1.67331 13.3611 1.41925 12.988C1.10392 12.5253 0.965252 11.9933 0.898585 11.3507C0.833252 10.7227 0.833252 9.93467 0.833252 8.93733V8.88067C0.833252 7.88333 0.833252 7.096 0.898585 6.46733C0.965252 5.82467 1.10392 5.29267 1.41925 4.83C1.67331 4.45688 1.99839 4.13746 2.37592 3.89C2.97592 3.49667 3.69458 3.382 4.62992 3.34133L4.64125 3.34067H4.65192C4.75002 3.33728 4.84413 3.30098 4.91911 3.23761C4.99408 3.17425 5.04556 3.0875 5.06525 2.99133ZM6.91058 2.5C6.48392 2.5 6.12592 2.79533 6.04525 3.19067C5.91525 3.83067 5.34725 4.33467 4.66392 4.34067C3.76525 4.38067 3.28392 4.49067 2.92392 4.72667C2.6565 4.90215 2.42615 5.12843 2.24592 5.39267C2.06192 5.66267 1.95125 6.00867 1.89259 6.57067C1.83392 7.14133 1.83325 7.87733 1.83325 8.90933C1.83325 9.94133 1.83325 10.6767 1.89325 11.2473C1.95125 11.8093 2.06192 12.1553 2.24658 12.426C2.42525 12.6887 2.65525 12.9153 2.92458 13.0913C3.20258 13.274 3.55858 13.384 4.13392 13.4413C4.71658 13.4993 5.46725 13.5 6.51858 13.5H9.48125C10.5319 13.5 11.2826 13.5 11.8659 13.4413C12.4412 13.384 12.7972 13.2747 13.0752 13.092C13.3446 12.9153 13.5752 12.6887 13.7539 12.4253C13.9379 12.1553 14.0486 11.8093 14.1072 11.2473C14.1659 10.6767 14.1666 9.94067 14.1666 8.90933C14.1666 7.87733 14.1666 7.14133 14.1066 6.57067C14.0486 6.00867 13.9379 5.66267 13.7532 5.39267C13.5732 5.12808 13.3428 4.90154 13.0752 4.726C12.7166 4.49067 12.2352 4.38067 11.3352 4.34067C10.6526 4.334 10.0846 3.83133 9.95458 3.19067C9.91192 2.99351 9.80252 2.81713 9.64486 2.69129C9.48721 2.56546 9.29095 2.49789 9.08925 2.5H6.91058ZM7.99992 7.16667C7.60209 7.16667 7.22056 7.3247 6.93926 7.60601C6.65795 7.88731 6.49992 8.26884 6.49992 8.66667C6.49992 9.06449 6.65795 9.44602 6.93926 9.72733C7.22056 10.0086 7.60209 10.1667 7.99992 10.1667C8.39774 10.1667 8.77927 10.0086 9.06058 9.72733C9.34188 9.44602 9.49992 9.06449 9.49992 8.66667C9.49992 8.26884 9.34188 7.88731 9.06058 7.60601C8.77927 7.3247 8.39774 7.16667 7.99992 7.16667ZM5.49992 8.66667C5.49992 8.00363 5.76331 7.36774 6.23215 6.8989C6.70099 6.43006 7.33688 6.16667 7.99992 6.16667C8.66296 6.16667 9.29884 6.43006 9.76768 6.8989C10.2365 7.36774 10.4999 8.00363 10.4999 8.66667C10.4999 9.32971 10.2365 9.96559 9.76768 10.4344C9.29884 10.9033 8.66296 11.1667 7.99992 11.1667C7.33688 11.1667 6.70099 10.9033 6.23215 10.4344C5.76331 9.96559 5.49992 9.32971 5.49992 8.66667ZM11.4999 6.66667C11.4999 6.53406 11.5526 6.40688 11.6464 6.31311C11.7401 6.21935 11.8673 6.16667 11.9999 6.16667H12.6666C12.7992 6.16667 12.9264 6.21935 13.0201 6.31311C13.1139 6.40688 13.1666 6.53406 13.1666 6.66667C13.1666 6.79927 13.1139 6.92645 13.0201 7.02022C12.9264 7.11399 12.7992 7.16667 12.6666 7.16667H11.9999C11.8673 7.16667 11.7401 7.11399 11.6464 7.02022C11.5526 6.92645 11.4999 6.79927 11.4999 6.66667Z" fill="#1D212C"/>
</svg>
