<svg width="20" height="20" viewBox="0 0 20 20" fill="none" xmlns="http://www.w3.org/2000/svg">
<path d="M20 7.81612H0V3.79312C1.03579e-05 3.70167 0.0363453 3.61396 0.101014 3.54929C0.165682 3.48463 0.253388 3.44829 0.344843 3.44828H19.6552C19.7466 3.44829 19.8343 3.48463 19.899 3.54929C19.9637 3.61396 20 3.70167 20 3.79312L20 7.81612Z" fill="#FF4B55"/>
<path d="M19.6551 16.5517H0.344843C0.253388 16.5517 0.165682 16.5154 0.101014 16.4507C0.0363453 16.386 1.03579e-05 16.2983 0 16.2069L0 12.1839H20V16.2069C20 16.2983 19.9636 16.3861 19.899 16.4507C19.8343 16.5154 19.7466 16.5517 19.6551 16.5517Z" fill="#464655"/>
<path d="M0 7.81604H20V12.1836H0V7.81604Z" fill="#F5F5F5"/>
<path d="M11.101 9.31916C11.101 9.14819 10.9335 9.0274 10.7713 9.08151L10.4664 9.18311L10.3924 8.73608C10.3713 8.60732 10.3051 8.49028 10.2056 8.40595C10.106 8.32162 9.97967 8.27552 9.8492 8.27592H9.56408L9.26588 8.64295H9.66076L9.55025 9.18873L9.22865 9.08154C9.06643 9.02744 8.89893 9.14822 8.89893 9.3192V11.1737L9.34279 10.7298L9.13365 11.3572H8.89896V11.7242H11.101V11.3572H10.8663L10.6572 10.7298L11.1011 11.1737V9.31916H11.101ZM9.8165 11.3571H9.52064L9.72408 10.8138L9.8165 10.9318V11.3571ZM10.1835 11.3571V10.9318L10.2759 10.8138L10.4793 11.3571H10.1835ZM9.99998 10.6919C9.99998 10.6919 9.43225 10.3077 9.45521 9.59092C9.45521 9.59092 9.80506 9.53358 9.99998 9.22389C10.1949 9.53354 10.5448 9.59092 10.5448 9.59092C10.5677 10.3078 9.99998 10.6919 9.99998 10.6919Z" fill="#F0C727"/>
</svg>
