<svg width="24" height="24" viewBox="0 0 24 24" fill="none" xmlns="http://www.w3.org/2000/svg">
<path fill-rule="evenodd" clip-rule="evenodd" d="M21.5112 7.11809L20.7989 5.8819C20.1962 4.8359 18.8606 4.47505 17.8132 5.07524C17.3146 5.36895 16.7197 5.45228 16.1596 5.30686C15.5994 5.16142 15.1202 4.79918 14.8274 4.3C14.6392 3.98271 14.538 3.62132 14.5341 3.25238C14.5512 2.66087 14.328 2.08767 13.9155 1.66336C13.503 1.23905 12.9363 0.999748 12.3446 1H10.9094C10.3297 0.999989 9.7738 1.231 9.36486 1.64192C8.95589 2.05285 8.72754 2.60979 8.73032 3.18952C8.71315 4.38647 7.73787 5.34774 6.5408 5.34762C6.17187 5.34378 5.81047 5.24259 5.49319 5.05429C4.44575 4.4541 3.11015 4.81494 2.50746 5.86096L1.7427 7.11809C1.14075 8.16279 1.49669 9.49756 2.53889 10.1038C3.21635 10.4949 3.63368 11.2178 3.63368 12C3.63368 12.7823 3.21635 13.505 2.53889 13.8962C1.49802 14.4984 1.14169 15.8299 1.7427 16.8714L2.46556 18.1181C2.74794 18.6277 3.22173 19.0037 3.78207 19.1629C4.34242 19.3222 4.94313 19.2516 5.45128 18.9667C5.95081 18.6752 6.54609 18.5953 7.10479 18.7449C7.6635 18.8944 8.13933 19.2608 8.42652 19.7628C8.61483 20.0802 8.71602 20.4415 8.71985 20.8105C8.71985 22.0197 9.70009 23 10.9094 23H12.3446C13.5498 23 14.5284 22.0261 14.5341 20.8209C14.5314 20.2394 14.7612 19.6809 15.1723 19.2696C15.5835 18.8584 16.1422 18.6286 16.7237 18.6315C17.0918 18.6413 17.4516 18.742 17.7713 18.9248C18.816 19.5267 20.1507 19.1708 20.757 18.1286L21.5112 16.8714C21.8032 16.3703 21.8834 15.7735 21.734 15.213C21.5845 14.6526 21.2178 14.1749 20.7151 13.8857C20.2123 13.5965 19.8457 13.1187 19.6963 12.5584C19.5468 11.998 19.6269 11.4012 19.9189 10.9C20.1087 10.5685 20.3837 10.2937 20.7151 10.1038C21.751 9.49788 22.1062 8.17092 21.5112 7.12858V7.11809Z" stroke="#1D212C" stroke-width="1.5" stroke-linecap="round" stroke-linejoin="round"/>
<path d="M11.6323 15.0167C13.2986 15.0167 14.6494 13.6659 14.6494 11.9996C14.6494 10.3332 13.2986 8.98242 11.6323 8.98242C9.96594 8.98242 8.61511 10.3332 8.61511 11.9996C8.61511 13.6659 9.96594 15.0167 11.6323 15.0167Z" stroke="#1D212C" stroke-width="1.5" stroke-linecap="round" stroke-linejoin="round"/>
</svg>
