<svg width="24" height="24" viewBox="0 0 24 24" fill="none" xmlns="http://www.w3.org/2000/svg">
<g clip-path="url(#clip0_1782_7968)">
<path d="M10.525 5.025C10.525 4.22272 10.2063 3.4533 9.639 2.886C9.0717 2.3187 8.30228 2 7.5 2C6.69772 2 5.9283 2.3187 5.361 2.886C4.7937 3.4533 4.475 4.22272 4.475 5.025C4.475 5.82728 4.7937 6.5967 5.361 7.164C5.9283 7.7313 6.69772 8.05 7.5 8.05C8.30228 8.05 9.0717 7.7313 9.639 7.164C10.2063 6.5967 10.525 5.82728 10.525 5.025ZM5.575 5.025C5.575 4.77221 5.62479 4.52189 5.72153 4.28833C5.81827 4.05478 5.96007 3.84257 6.13882 3.66382C6.31757 3.48507 6.52978 3.34327 6.76333 3.24653C6.99689 3.14979 7.2472 3.1 7.5 3.1C7.75279 3.1 8.00311 3.14979 8.23666 3.24653C8.47022 3.34327 8.68243 3.48507 8.86118 3.66382C9.03993 3.84257 9.18173 4.05478 9.27847 4.28833C9.37521 4.52189 9.425 4.77221 9.425 5.025C9.425 5.53554 9.22219 6.02517 8.86118 6.38618C8.50017 6.74719 8.01054 6.95 7.5 6.95C6.98946 6.95 6.49983 6.74719 6.13882 6.38618C5.77781 6.02517 5.575 5.53554 5.575 5.025ZM3.65 9.15H8.2513C8.0709 9.491 7.9367 9.8606 7.8575 10.25H3.65C3.50413 10.25 3.36424 10.3079 3.26109 10.4111C3.15795 10.5142 3.1 10.6541 3.1 10.8V11.35C3.1 12.736 4.3089 14.2254 6.5056 14.573C6.1514 14.815 5.8566 15.1373 5.6465 15.5124C3.3255 14.8843 2 13.0957 2 11.35V10.8C2 10.3624 2.17384 9.94271 2.48327 9.63327C2.79271 9.32384 3.21239 9.15 3.65 9.15ZM9.5669 9.15C10.1213 8.479 10.9606 8.05 11.9 8.05C12.5588 8.04885 13.1998 8.26324 13.7253 8.66046C14.2508 9.05768 14.632 9.61592 14.8106 10.25C14.9698 10.8159 14.9608 11.416 14.7848 11.9769C14.6087 12.5379 14.2732 13.0354 13.8191 13.4089C13.3651 13.7823 12.8121 14.0156 12.2278 14.0801C11.6434 14.1446 11.0529 14.0376 10.5283 13.7722C10.1244 13.5666 9.77184 13.2729 9.49669 12.9128C9.22154 12.5527 9.03083 12.1353 8.93864 11.6916C8.84645 11.2479 8.85514 10.7891 8.96408 10.3492C9.07301 9.90926 9.2783 9.49944 9.5669 9.15ZM10.1609 10.25C10.0526 10.4785 9.99029 10.7262 9.97765 10.9787C9.96501 11.2313 10.0022 11.4839 10.0872 11.7221C10.1722 11.9603 10.3033 12.1795 10.473 12.367C10.6426 12.5546 10.8476 12.7069 11.0761 12.8152C11.3046 12.9235 11.5523 12.9858 11.8048 12.9984C12.0574 13.0111 12.31 12.9739 12.5482 12.8889C12.7864 12.8039 13.0056 12.6728 13.1931 12.5031C13.3807 12.3335 13.533 12.1285 13.6413 11.9C13.8601 11.4383 13.8865 10.9086 13.7148 10.4275C13.5431 9.9463 13.1872 9.55305 12.7255 9.33425C12.2639 9.11545 11.7342 9.089 11.253 9.26074C10.7718 9.43248 10.3797 9.78832 10.1609 10.25ZM18.1535 15.5124C17.944 15.1371 17.6498 14.8158 17.2944 14.5741C19.49 14.2254 20.7 12.7349 20.7 11.35V10.8C20.7 10.6541 20.6421 10.5142 20.5389 10.4111C20.4358 10.3079 20.2959 10.25 20.15 10.25H15.9425C15.8648 9.86647 15.7325 9.49604 15.5498 9.15H20.15C20.5876 9.15 21.0073 9.32384 21.3167 9.63327C21.6262 9.94271 21.8 10.3624 21.8 10.8V11.35C21.8 13.0957 20.4734 14.8832 18.1535 15.5124ZM16.8357 15.6081C16.5355 15.3445 16.1495 15.1995 15.75 15.2H8.05C7.83316 15.1994 7.61834 15.2417 7.41789 15.3244C7.21744 15.4071 7.03531 15.5286 6.88198 15.682C6.72865 15.8353 6.60713 16.0174 6.52442 16.2179C6.4417 16.4183 6.39942 16.6332 6.4 16.85V17.4C6.4 19.5681 8.446 21.8 11.9 21.8C15.354 21.8 17.4 19.5681 17.4 17.4V16.85C17.4 16.355 17.1822 15.9106 16.8357 15.607V15.6081ZM7.5 16.85C7.5 16.7041 7.55795 16.5642 7.66109 16.4611C7.76424 16.3579 7.90413 16.3 8.05 16.3H15.75C15.8959 16.3 16.0358 16.3579 16.1389 16.4611C16.2421 16.5642 16.3 16.7041 16.3 16.85V17.4C16.3 18.9818 14.7248 20.7 11.9 20.7C9.0752 20.7 7.5 18.9818 7.5 17.4V16.85ZM16.3 2C17.1023 2 17.8717 2.3187 18.439 2.886C19.0063 3.4533 19.325 4.22272 19.325 5.025C19.325 5.82728 19.0063 6.5967 18.439 7.164C17.8717 7.7313 17.1023 8.05 16.3 8.05C15.4977 8.05 14.7283 7.7313 14.161 7.164C13.5937 6.5967 13.275 5.82728 13.275 5.025C13.275 4.22272 13.5937 3.4533 14.161 2.886C14.7283 2.3187 15.4977 2 16.3 2ZM16.3 3.1C15.7895 3.1 15.2998 3.30281 14.9388 3.66382C14.5778 4.02483 14.375 4.51446 14.375 5.025C14.375 5.53554 14.5778 6.02517 14.9388 6.38618C15.2998 6.74719 15.7895 6.95 16.3 6.95C16.8105 6.95 17.3002 6.74719 17.6612 6.38618C18.0222 6.02517 18.225 5.53554 18.225 5.025C18.225 4.51446 18.0222 4.02483 17.6612 3.66382C17.3002 3.30281 16.8105 3.1 16.3 3.1Z" fill="#1D212C" stroke="#1D212C" stroke-width="0.1"/>
</g>
<defs>
<clipPath id="clip0_1782_7968">
<rect width="20" height="20" fill="white" transform="translate(2 2)"/>
</clipPath>
</defs>
</svg>
