<svg width="20" height="20" viewBox="0 0 20 20" fill="none" xmlns="http://www.w3.org/2000/svg">
<g filter="url(#filter0_d_124_1514)">
<path d="M14.1666 17.5V15.8333C14.1666 14.9493 13.8155 14.1014 13.1903 13.4763C12.5652 12.8512 11.7174 12.5 10.8333 12.5H4.16665C3.28259 12.5 2.43474 12.8512 1.80962 13.4763C1.1845 14.1014 0.833313 14.9493 0.833313 15.8333V17.5" stroke="#1D212C" stroke-width="1.5" stroke-linecap="round" stroke-linejoin="round"/>
<path d="M7.50002 9.16667C9.34097 9.16667 10.8334 7.67428 10.8334 5.83333C10.8334 3.99238 9.34097 2.5 7.50002 2.5C5.65907 2.5 4.16669 3.99238 4.16669 5.83333C4.16669 7.67428 5.65907 9.16667 7.50002 9.16667Z" stroke="#1D212C" stroke-width="1.5" stroke-linecap="round" stroke-linejoin="round"/>
<path d="M19.1667 17.501V15.8344C19.1661 15.0958 18.9203 14.3784 18.4678 13.7946C18.0153 13.2109 17.3818 12.794 16.6667 12.6094" stroke="#1D212C" stroke-width="1.5" stroke-linecap="round" stroke-linejoin="round"/>
<path d="M13.3333 2.60938C14.0503 2.79296 14.6858 3.20996 15.1397 3.79463C15.5935 4.37931 15.8398 5.0984 15.8398 5.83854C15.8398 6.57868 15.5935 7.29778 15.1397 7.88245C14.6858 8.46712 14.0503 8.88412 13.3333 9.06771" stroke="#1D212C" stroke-width="1.5" stroke-linecap="round" stroke-linejoin="round"/>
</g>
<defs>
<filter id="filter0_d_124_1514" x="-4" y="0" width="28" height="28" filterUnits="userSpaceOnUse" color-interpolation-filters="sRGB">
<feFlood flood-opacity="0" result="BackgroundImageFix"/>
<feColorMatrix in="SourceAlpha" type="matrix" values="0 0 0 0 0 0 0 0 0 0 0 0 0 0 0 0 0 0 127 0" result="hardAlpha"/>
<feOffset dy="4"/>
<feGaussianBlur stdDeviation="2"/>
<feComposite in2="hardAlpha" operator="out"/>
<feColorMatrix type="matrix" values="0 0 0 0 0 0 0 0 0 0 0 0 0 0 0 0 0 0 0.25 0"/>
<feBlend mode="normal" in2="BackgroundImageFix" result="effect1_dropShadow_124_1514"/>
<feBlend mode="normal" in="SourceGraphic" in2="effect1_dropShadow_124_1514" result="shape"/>
</filter>
</defs>
</svg>
