<svg width="396" height="74" viewBox="0 0 396 74" fill="none" xmlns="http://www.w3.org/2000/svg">
<path d="M9.44145 19.8943V17.1342C9.44143 16.4321 10.0138 15.8617 10.7229 15.857H13.3203C14.0328 15.857 14.6104 16.4288 14.6104 17.1342V19.9028C14.6102 20.4989 15.0908 20.9861 15.6927 21H17.4243C19.1505 21 20.55 19.6146 20.55 17.9056V10.0541C20.5408 9.38175 20.2219 8.75041 19.6842 8.33973L13.7619 3.61677C12.7244 2.79441 11.2495 2.79441 10.212 3.61677L4.31578 8.3483C3.77599 8.75732 3.4566 9.3897 3.44995 10.0626V17.9056C3.44995 19.6146 4.84934 21 6.57557 21H8.30722C8.92407 21 9.42412 20.5049 9.42412 19.8943" stroke="#8C8C8C" stroke-width="1.5" stroke-linecap="round" stroke-linejoin="round"/>
<g clip-path="url(#clip0_2060_8157)">
<path d="M139.499 1.35718V5.35687M131.5 1.35718V5.35687M126.5 9.35461H144.499M128.5 3.35855H142.499C143.603 3.35855 144.499 4.25391 144.499 5.35839V19.3573C144.499 20.4618 143.603 21.3572 142.499 21.3572H128.5C127.395 21.3572 126.5 20.4618 126.5 19.3573V5.35839C126.5 4.25391 127.395 3.35855 128.5 3.35855Z" stroke="#8C8C8C" stroke-width="1.5" stroke-linecap="round" stroke-linejoin="round"/>
</g>
<path d="M253.475 1C253.378 1.00004 253.282 1.02142 253.194 1.06263C253.106 1.10385 253.028 1.16389 252.966 1.2385L249.654 5.2135C249.554 5.33251 249.5 5.48254 249.5 5.6375V7.625C249.5 8.8016 250.011 9.86028 250.825 10.5877V21.5375C250.825 21.7132 250.895 21.8817 251.019 22.006C251.143 22.1302 251.312 22.2 251.488 22.2H268.713C268.888 22.2 269.057 22.1302 269.181 22.006C269.305 21.8817 269.375 21.7132 269.375 21.5375V10.5877C270.189 9.85895 270.7 8.8016 270.7 7.625V5.61365C270.7 5.4944 270.7 5.399 270.546 5.2135L267.234 1.2385C267.172 1.16389 267.094 1.10385 267.006 1.06263C266.918 1.02142 266.822 1.00004 266.725 1H253.475ZM253.475 10.275C252.772 10.275 252.098 9.9958 251.601 9.49883C251.104 9.00186 250.825 8.32782 250.825 7.625V6.3H256.125V7.625C256.125 8.32782 255.846 9.00186 255.349 9.49883C254.852 9.9958 254.178 10.275 253.475 10.275ZM260.1 10.275C259.397 10.275 258.723 9.9958 258.226 9.49883C257.729 9.00186 257.45 8.32782 257.45 7.625V6.3H262.75V7.625C262.75 8.32782 262.471 9.00186 261.974 9.49883C261.477 9.9958 260.803 10.275 260.1 10.275ZM266.725 10.275C266.022 10.275 265.348 9.9958 264.851 9.49883C264.354 9.00186 264.075 8.32782 264.075 7.625V6.3H269.375V7.625C269.375 8.32782 269.096 9.00186 268.599 9.49883C268.102 9.9958 267.428 10.275 266.725 10.275ZM256.788 20.875H252.15V11.3748C252.985 11.6708 253.895 11.679 254.736 11.3981C255.576 11.1171 256.298 10.5632 256.788 9.8245C257.15 10.371 257.642 10.8191 258.22 11.1289C258.798 11.4388 259.444 11.6006 260.1 11.6C260.756 11.6005 261.402 11.4384 261.98 11.1284C262.558 10.8183 263.05 10.3699 263.413 9.82318C263.902 10.5619 264.624 11.1158 265.464 11.3967C266.305 11.6777 267.215 11.6694 268.05 11.3734V20.875H263.413V13.5875C263.413 13.4118 263.338 13.2433 263.214 13.119C263.09 12.9948 262.926 12.925 262.75 12.925H257.45C257.274 12.925 257.11 12.9948 256.986 13.119C256.862 13.2433 256.788 13.4118 256.788 13.5875V17.2313V20.875ZM256.311 4.975H251.578L253.785 2.325H257.193L256.311 4.975ZM262.493 4.975H257.707L258.589 2.325H261.611L262.493 4.975ZM263.889 4.975L263.007 2.325H266.415L268.624 4.975H263.889ZM258.113 20.875V17.5625V14.25H262.088V17.5625V20.875H258.113Z" fill="#8C8C8C"/>
<path fill-rule="evenodd" clip-rule="evenodd" d="M393.511 7.11809L392.799 5.8819C392.196 4.8359 390.861 4.47505 389.813 5.07524C389.315 5.36895 388.72 5.45228 388.16 5.30686C387.599 5.16142 387.12 4.79918 386.827 4.3C386.639 3.98271 386.538 3.62132 386.534 3.25238C386.551 2.66087 386.328 2.08767 385.915 1.66336C385.503 1.23905 384.936 0.999748 384.345 1H382.909C382.33 0.999989 381.774 1.231 381.365 1.64192C380.956 2.05285 380.728 2.60979 380.73 3.18952C380.713 4.38647 379.738 5.34774 378.541 5.34762C378.172 5.34378 377.81 5.24259 377.493 5.05429C376.446 4.4541 375.11 4.81494 374.507 5.86096L373.743 7.11809C373.141 8.16279 373.497 9.49756 374.539 10.1038C375.216 10.4949 375.634 11.2178 375.634 12C375.634 12.7823 375.216 13.505 374.539 13.8962C373.498 14.4984 373.142 15.8299 373.743 16.8714L374.466 18.1181C374.748 18.6277 375.222 19.0037 375.782 19.1629C376.342 19.3222 376.943 19.2516 377.451 18.9667C377.951 18.6752 378.546 18.5953 379.105 18.7449C379.664 18.8944 380.139 19.2608 380.427 19.7628C380.615 20.0802 380.716 20.4415 380.72 20.8105C380.72 22.0197 381.7 23 382.909 23H384.345C385.55 23 386.528 22.0261 386.534 20.8209C386.531 20.2394 386.761 19.6809 387.172 19.2696C387.584 18.8584 388.142 18.6286 388.724 18.6315C389.092 18.6413 389.452 18.742 389.771 18.9248C390.816 19.5267 392.151 19.1708 392.757 18.1286L393.511 16.8714C393.803 16.3703 393.883 15.7735 393.734 15.213C393.584 14.6526 393.218 14.1749 392.715 13.8857C392.212 13.5965 391.846 13.1187 391.696 12.5584C391.547 11.998 391.627 11.4012 391.919 10.9C392.109 10.5685 392.384 10.2937 392.715 10.1038C393.751 9.49788 394.106 8.17092 393.511 7.12858V7.11809Z" stroke="#8C8C8C" stroke-width="1.5" stroke-linecap="round" stroke-linejoin="round"/>
<path d="M383.632 15.0175C385.299 15.0175 386.649 13.6666 386.649 12.0003C386.649 10.334 385.299 8.98315 383.632 8.98315C381.966 8.98315 380.615 10.334 380.615 12.0003C380.615 13.6666 381.966 15.0175 383.632 15.0175Z" stroke="#8C8C8C" stroke-width="1.5" stroke-linecap="round" stroke-linejoin="round"/>
<path d="M9.44145 69.8943V67.1342C9.44143 66.4321 10.0138 65.8617 10.7229 65.857H13.3203C14.0328 65.857 14.6104 66.4288 14.6104 67.1342V69.9028C14.6102 70.4989 15.0908 70.9861 15.6927 71H17.4243C19.1505 71 20.55 69.6146 20.55 67.9056V60.0541C20.5408 59.3817 20.2219 58.7504 19.6842 58.3397L13.7619 53.6168C12.7244 52.7944 11.2495 52.7944 10.212 53.6168L4.31578 58.3483C3.77599 58.7573 3.4566 59.3897 3.44995 60.0626V67.9056C3.44995 69.6146 4.84934 71 6.57557 71H8.30722C8.92407 71 9.42412 70.5049 9.42412 69.8943" stroke="#1D212C" stroke-width="1.5" stroke-linecap="round" stroke-linejoin="round"/>
<g clip-path="url(#clip1_2060_8157)">
<path d="M139.499 51.3572V55.3569M131.5 51.3572V55.3569M126.5 59.3546H144.499M128.5 53.3585H142.499C143.603 53.3585 144.499 54.2539 144.499 55.3584V69.3573C144.499 70.4618 143.603 71.3572 142.499 71.3572H128.5C127.395 71.3572 126.5 70.4618 126.5 69.3573V55.3584C126.5 54.2539 127.395 53.3585 128.5 53.3585Z" stroke="#1D212C" stroke-width="1.5" stroke-linecap="round" stroke-linejoin="round"/>
</g>
<path d="M253.475 51C253.378 51 253.282 51.0214 253.194 51.0626C253.106 51.1038 253.028 51.1639 252.966 51.2385L249.654 55.2135C249.554 55.3325 249.5 55.4825 249.5 55.6375V57.625C249.5 58.8016 250.011 59.8603 250.825 60.5877V71.5375C250.825 71.7132 250.895 71.8817 251.019 72.006C251.143 72.1302 251.312 72.2 251.488 72.2H268.713C268.888 72.2 269.057 72.1302 269.181 72.006C269.305 71.8817 269.375 71.7132 269.375 71.5375V60.5877C270.189 59.859 270.7 58.8016 270.7 57.625V55.6136C270.7 55.4944 270.7 55.399 270.546 55.2135L267.234 51.2385C267.172 51.1639 267.094 51.1038 267.006 51.0626C266.918 51.0214 266.822 51 266.725 51H253.475ZM253.475 60.275C252.772 60.275 252.098 59.9958 251.601 59.4988C251.104 59.0019 250.825 58.3278 250.825 57.625V56.3H256.125V57.625C256.125 58.3278 255.846 59.0019 255.349 59.4988C254.852 59.9958 254.178 60.275 253.475 60.275ZM260.1 60.275C259.397 60.275 258.723 59.9958 258.226 59.4988C257.729 59.0019 257.45 58.3278 257.45 57.625V56.3H262.75V57.625C262.75 58.3278 262.471 59.0019 261.974 59.4988C261.477 59.9958 260.803 60.275 260.1 60.275ZM266.725 60.275C266.022 60.275 265.348 59.9958 264.851 59.4988C264.354 59.0019 264.075 58.3278 264.075 57.625V56.3H269.375V57.625C269.375 58.3278 269.096 59.0019 268.599 59.4988C268.102 59.9958 267.428 60.275 266.725 60.275ZM256.788 70.875H252.15V61.3748C252.985 61.6708 253.895 61.679 254.736 61.3981C255.576 61.1171 256.298 60.5632 256.788 59.8245C257.15 60.371 257.642 60.8191 258.22 61.1289C258.798 61.4388 259.444 61.6006 260.1 61.6C260.756 61.6005 261.402 61.4384 261.98 61.1284C262.558 60.8183 263.05 60.3699 263.413 59.8232C263.902 60.5619 264.624 61.1158 265.464 61.3967C266.305 61.6777 267.215 61.6694 268.05 61.3734V70.875H263.413V63.5875C263.413 63.4118 263.338 63.2433 263.214 63.119C263.09 62.9948 262.926 62.925 262.75 62.925H257.45C257.274 62.925 257.11 62.9948 256.986 63.119C256.862 63.2433 256.788 63.4118 256.788 63.5875V67.2313V70.875ZM256.311 54.975H251.578L253.785 52.325H257.193L256.311 54.975ZM262.493 54.975H257.707L258.589 52.325H261.611L262.493 54.975ZM263.889 54.975L263.007 52.325H266.415L268.624 54.975H263.889ZM258.113 70.875V67.5625V64.25H262.088V67.5625V70.875H258.113Z" fill="#1D212C"/>
<path fill-rule="evenodd" clip-rule="evenodd" d="M393.511 57.1181L392.799 55.8819C392.196 54.8359 390.861 54.4751 389.813 55.0752C389.315 55.3689 388.72 55.4523 388.16 55.3069C387.599 55.1614 387.12 54.7992 386.827 54.3C386.639 53.9827 386.538 53.6213 386.534 53.2524C386.551 52.6609 386.328 52.0877 385.915 51.6634C385.503 51.239 384.936 50.9997 384.345 51H382.909C382.33 51 381.774 51.231 381.365 51.6419C380.956 52.0528 380.728 52.6098 380.73 53.1895C380.713 54.3865 379.738 55.3477 378.541 55.3476C378.172 55.3438 377.81 55.2426 377.493 55.0543C376.446 54.4541 375.11 54.8149 374.507 55.861L373.743 57.1181C373.141 58.1628 373.497 59.4976 374.539 60.1038C375.216 60.4949 375.634 61.2178 375.634 62C375.634 62.7823 375.216 63.505 374.539 63.8962C373.498 64.4984 373.142 65.8299 373.743 66.8714L374.466 68.1181C374.748 68.6277 375.222 69.0037 375.782 69.1629C376.342 69.3222 376.943 69.2516 377.451 68.9667C377.951 68.6752 378.546 68.5953 379.105 68.7449C379.664 68.8944 380.139 69.2608 380.427 69.7628C380.615 70.0802 380.716 70.4415 380.72 70.8105C380.72 72.0197 381.7 73 382.909 73H384.345C385.55 73 386.528 72.0261 386.534 70.8209C386.531 70.2394 386.761 69.6809 387.172 69.2696C387.584 68.8584 388.142 68.6286 388.724 68.6315C389.092 68.6413 389.452 68.742 389.771 68.9248C390.816 69.5267 392.151 69.1708 392.757 68.1286L393.511 66.8714C393.803 66.3703 393.883 65.7735 393.734 65.213C393.584 64.6526 393.218 64.1749 392.715 63.8857C392.212 63.5965 391.846 63.1187 391.696 62.5584C391.547 61.998 391.627 61.4012 391.919 60.9C392.109 60.5685 392.384 60.2937 392.715 60.1038C393.751 59.4979 394.106 58.1709 393.511 57.1286V57.1181Z" stroke="#1D212C" stroke-width="1.5" stroke-linecap="round" stroke-linejoin="round"/>
<path d="M383.632 65.0175C385.299 65.0175 386.649 63.6666 386.649 62.0003C386.649 60.334 385.299 58.9832 383.632 58.9832C381.966 58.9832 380.615 60.334 380.615 62.0003C380.615 63.6666 381.966 65.0175 383.632 65.0175Z" stroke="#1D212C" stroke-width="1.5" stroke-linecap="round" stroke-linejoin="round"/>
<defs>
<clipPath id="clip0_2060_8157">
<rect width="24" height="24" fill="white" transform="translate(124)"/>
</clipPath>
<clipPath id="clip1_2060_8157">
<rect width="24" height="24" fill="white" transform="translate(124 50)"/>
</clipPath>
</defs>
</svg>
