<svg width="19" height="19" viewBox="0 0 19 19" fill="none" xmlns="http://www.w3.org/2000/svg">
<path d="M12.0833 5.54102H16.8333M14.4583 3.16602V7.91602M4.16666 3.95768C4.16666 3.74772 4.25006 3.54636 4.39853 3.39789C4.547 3.24942 4.74836 3.16602 4.95832 3.16602H8.12499C8.33495 3.16602 8.53632 3.24942 8.68478 3.39789C8.83325 3.54636 8.91666 3.74772 8.91666 3.95768V7.12435C8.91666 7.33431 8.83325 7.53568 8.68478 7.68414C8.53632 7.83261 8.33495 7.91602 8.12499 7.91602H4.95832C4.74836 7.91602 4.547 7.83261 4.39853 7.68414C4.25006 7.53568 4.16666 7.33431 4.16666 7.12435V3.95768ZM4.16666 11.8743C4.16666 11.6644 4.25006 11.463 4.39853 11.3146C4.547 11.1661 4.74836 11.0827 4.95832 11.0827H8.12499C8.33495 11.0827 8.53632 11.1661 8.68478 11.3146C8.83325 11.463 8.91666 11.6644 8.91666 11.8743V15.041C8.91666 15.251 8.83325 15.4523 8.68478 15.6008C8.53632 15.7493 8.33495 15.8327 8.12499 15.8327H4.95832C4.74836 15.8327 4.547 15.7493 4.39853 15.6008C4.25006 15.4523 4.16666 15.251 4.16666 15.041V11.8743ZM12.0833 11.8743C12.0833 11.6644 12.1667 11.463 12.3152 11.3146C12.4637 11.1661 12.665 11.0827 12.875 11.0827H16.0417C16.2516 11.0827 16.453 11.1661 16.6015 11.3146C16.7499 11.463 16.8333 11.6644 16.8333 11.8743V15.041C16.8333 15.251 16.7499 15.4523 16.6015 15.6008C16.453 15.7493 16.2516 15.8327 16.0417 15.8327H12.875C12.665 15.8327 12.4637 15.7493 12.3152 15.6008C12.1667 15.4523 12.0833 15.251 12.0833 15.041V11.8743Z" stroke="#181B28" stroke-opacity="0.7" stroke-width="1.4" stroke-linecap="round" stroke-linejoin="round"/>
</svg>
