<svg width="19" height="19" viewBox="0 0 19 19" fill="none" xmlns="http://www.w3.org/2000/svg">
<path d="M9.5 9.50032C8.62917 9.50032 7.88368 9.19026 7.26354 8.57012C6.6434 7.94998 6.33333 7.20449 6.33333 6.33366C6.33333 5.46283 6.6434 4.71734 7.26354 4.0972C7.88368 3.47706 8.62917 3.16699 9.5 3.16699C10.3708 3.16699 11.1163 3.47706 11.7365 4.0972C12.3566 4.71734 12.6667 5.46283 12.6667 6.33366C12.6667 7.20449 12.3566 7.94998 11.7365 8.57012C11.1163 9.19026 10.3708 9.50032 9.5 9.50032ZM14.25 15.8337H4.75C4.31458 15.8337 3.94171 15.6785 3.63137 15.3682C3.32104 15.0578 3.16614 14.6852 3.16667 14.2503V13.617C3.16667 13.1684 3.28225 12.7559 3.51342 12.3796C3.74458 12.0033 4.05122 11.7165 4.43333 11.5191C5.25139 11.11 6.08264 10.8031 6.92708 10.5984C7.77153 10.3936 8.62917 10.2915 9.5 10.292C10.3708 10.292 11.2285 10.3944 12.0729 10.5992C12.9174 10.8039 13.7486 11.1106 14.5667 11.5191C14.9493 11.717 15.2562 12.0041 15.4874 12.3804C15.7185 12.7567 15.8339 13.1689 15.8333 13.617V14.2503C15.8333 14.6857 15.6782 15.0586 15.3678 15.3689C15.0575 15.6793 14.6849 15.8342 14.25 15.8337ZM4.75 14.2503H14.25V13.617C14.25 13.4719 14.2136 13.3399 14.1407 13.2212C14.0679 13.1024 13.9724 13.01 13.8542 12.9441C13.1417 12.5878 12.4226 12.3208 11.6969 12.1429C10.9712 11.965 10.2389 11.8759 9.5 11.8753C8.76111 11.8753 8.02882 11.9645 7.30312 12.1429C6.57743 12.3213 5.85833 12.5884 5.14583 12.9441C5.02708 13.01 4.93129 13.1024 4.85846 13.2212C4.78562 13.3399 4.74947 13.4719 4.75 13.617V14.2503ZM9.5 7.91699C9.93542 7.91699 10.3083 7.76182 10.6186 7.45149C10.929 7.14116 11.0839 6.76855 11.0833 6.33366C11.0833 5.89824 10.9282 5.52537 10.6178 5.21503C10.3075 4.9047 9.93489 4.7498 9.5 4.75033C9.06458 4.75033 8.69171 4.90549 8.38137 5.21583C8.07104 5.52616 7.91614 5.89877 7.91667 6.33366C7.91667 6.76908 8.07183 7.14195 8.38217 7.45228C8.6925 7.76262 9.06511 7.91752 9.5 7.91699Z" fill="#181B28" fill-opacity="0.7"/>
</svg>
