<svg width="22" height="22" viewBox="0 0 22 22" fill="none" xmlns="http://www.w3.org/2000/svg">
<path d="M11.917 2.75C9.72896 2.75 7.63054 3.61919 6.08336 5.16637C4.53619 6.71354 3.66699 8.81196 3.66699 11H0.916992L4.48283 14.5658L4.54699 14.6942L8.25033 11H5.50033C5.50033 7.4525 8.36949 4.58333 11.917 4.58333C15.4645 4.58333 18.3337 7.4525 18.3337 11C18.3337 14.5475 15.4645 17.4167 11.917 17.4167C10.1478 17.4167 8.54366 16.6925 7.38866 15.5283L6.08699 16.83C6.85096 17.5982 7.75944 18.2075 8.76005 18.6229C9.76066 19.0382 10.8336 19.2514 11.917 19.25C14.105 19.25 16.2034 18.3808 17.7506 16.8336C19.2978 15.2865 20.167 13.188 20.167 11C20.167 8.81196 19.2978 6.71354 17.7506 5.16637C16.2034 3.61919 14.105 2.75 11.917 2.75ZM11.0003 7.33333V11.9167L14.8962 14.2267L15.602 13.0442L12.3753 11.1283V7.33333H11.0003Z" fill="#1D212C"/>
</svg>
