<svg width="20" height="20" viewBox="0 0 20 20" fill="none" xmlns="http://www.w3.org/2000/svg">
<g clip-path="url(#clip0_128_1626)">
<path d="M16.6666 10V18.3333H3.33331V10" stroke="#1D212C" stroke-width="1.5" stroke-linecap="round" stroke-linejoin="round"/>
<path d="M18.3334 5.83203H1.66669V9.9987H18.3334V5.83203Z" stroke="#1D212C" stroke-width="1.5" stroke-linecap="round" stroke-linejoin="round"/>
<path d="M10 18.332V5.83203" stroke="#1D212C" stroke-width="1.5" stroke-linecap="round" stroke-linejoin="round"/>
<path d="M10 5.83268H6.25002C5.69749 5.83268 5.16758 5.61319 4.77688 5.22249C4.38618 4.83179 4.16669 4.30188 4.16669 3.74935C4.16669 3.19681 4.38618 2.66691 4.77688 2.27621C5.16758 1.88551 5.69749 1.66602 6.25002 1.66602C9.16669 1.66602 10 5.83268 10 5.83268Z" stroke="#1D212C" stroke-width="1.5" stroke-linecap="round" stroke-linejoin="round"/>
<path d="M10 5.83268H13.75C14.3025 5.83268 14.8324 5.61319 15.2231 5.22249C15.6138 4.83179 15.8333 4.30188 15.8333 3.74935C15.8333 3.19681 15.6138 2.66691 15.2231 2.27621C14.8324 1.88551 14.3025 1.66602 13.75 1.66602C10.8333 1.66602 10 5.83268 10 5.83268Z" stroke="#1D212C" stroke-width="1.5" stroke-linecap="round" stroke-linejoin="round"/>
</g>
<defs>
<clipPath id="clip0_128_1626">
<rect width="20" height="20" fill="white"/>
</clipPath>
</defs>
</svg>
