<svg width="24" height="24" viewBox="0 0 24 24" fill="none" xmlns="http://www.w3.org/2000/svg">
<path d="M3.38555 4.3915L4.27231 3.61559C5.07989 2.808 6.44962 2.76841 7.32054 3.65517L8.80111 5.59496C9.63245 6.42629 9.63245 7.78019 8.80111 8.60361L7.62141 9.81498C8.90404 12.8236 11.2714 15.1989 14.185 16.3865L15.3964 15.2068C15.8002 14.803 16.3306 14.5813 16.9007 14.5813C17.4708 14.5813 18.0012 14.803 18.3654 15.1751L20.3765 16.727C21.2078 17.5583 21.2078 18.9122 20.3923 19.7198L19.5847 20.6461C18.7138 21.517 17.542 22 16.2673 22C10.1313 22 1.99999 13.8608 1.99999 7.73268C1.99999 6.46588 2.48295 5.28618 3.36971 4.39942L3.38555 4.3915ZM16.2831 21.2003C17.3441 21.2003 18.3179 20.8045 19.0226 20.0998L19.8302 19.1655C20.3527 18.643 20.3527 17.7958 19.8698 17.3049L17.8587 15.7531C17.6054 15.4997 17.2728 15.3572 16.9086 15.3572C16.5444 15.3572 16.2119 15.4997 15.9585 15.7531L14.5571 17.1228C14.4463 17.2337 14.2879 17.2653 14.1375 17.2099C10.8359 15.951 8.15188 13.267 6.78215 9.86249C6.72673 9.71997 6.7584 9.5537 6.86924 9.43494L8.23897 8.03355C8.76153 7.51099 8.76153 6.66382 8.2073 6.10168L6.72673 4.16189C6.20418 3.63934 5.357 3.63934 4.8107 4.17773L3.92394 4.95364C3.20345 5.67413 2.80757 6.64798 2.80757 7.70893C2.80757 13.3779 10.6142 21.1845 16.2831 21.1845V21.2003Z" fill="#1D212C" stroke="#1D212C" stroke-width="0.5"/>
</svg>
