<svg width="20" height="20" viewBox="0 0 20 20" fill="none" xmlns="http://www.w3.org/2000/svg">
<ellipse cx="9.87482" cy="5.85428" rx="4.18826" ry="4.18826" stroke="#1D212C" stroke-width="1.5" stroke-linecap="round" stroke-linejoin="round"/>
<path fill-rule="evenodd" clip-rule="evenodd" d="M3.23137 15.8683C3.23024 15.5739 3.29609 15.2831 3.42393 15.0179C3.82511 14.2155 4.95642 13.7903 5.89517 13.5977C6.57219 13.4532 7.25857 13.3567 7.94918 13.3088C9.2278 13.1965 10.5138 13.1965 11.7924 13.3088C12.483 13.3572 13.1693 13.4538 13.8464 13.5977C14.7852 13.7903 15.9165 14.1754 16.3177 15.0179C16.5748 15.5585 16.5748 16.1862 16.3177 16.7269C15.9165 17.5693 14.7852 17.9544 13.8464 18.139C13.1702 18.2895 12.4836 18.3887 11.7924 18.4359C10.7517 18.5241 9.70619 18.5402 8.66327 18.484C8.42257 18.484 8.18989 18.484 7.94918 18.4359C7.26061 18.3893 6.57661 18.29 5.90319 18.139C4.95642 17.9544 3.83313 17.5693 3.42393 16.7269C3.29674 16.4585 3.23096 16.1653 3.23137 15.8683Z" stroke="#1D212C" stroke-width="1.5" stroke-linecap="round" stroke-linejoin="round"/>
</svg>
