<svg width="327" height="140" viewBox="0 0 327 140" fill="none" xmlns="http://www.w3.org/2000/svg">
<mask id="mask0_23_5239" style="mask-type:alpha" maskUnits="userSpaceOnUse" x="0" y="0" width="327" height="140">
<rect width="327" height="140" rx="20" fill="white" fill-opacity="0.03"/>
</mask>
<g mask="url(#mask0_23_5239)">
<path fill-rule="evenodd" clip-rule="evenodd" d="M84.3074 -2.23247C101.114 47.6073 117.261 95.492 191.442 92.9193C259.509 90.5586 302.682 99.284 327.259 114.371V173.079C327.259 184.124 318.304 193.079 307.259 193.079H-57.3813C-68.427 193.079 -77.3813 184.124 -77.3813 173.079V-71.0801C-77.3813 -82.1258 -68.427 -91.0801 -57.3813 -91.0801H31.0783C61.2553 -70.594 72.9324 -35.9654 84.3074 -2.23247Z" fill="white" fill-opacity="0.06"/>
<path fill-rule="evenodd" clip-rule="evenodd" d="M-61.9646 -90.5521C-70.8014 -88.4802 -77.3813 -80.5484 -77.3813 -71.0798V173.079C-77.3813 184.125 -68.427 193.079 -57.3813 193.079H307.259C312.659 193.079 317.559 190.939 321.158 187.46C339.406 140.229 308.234 97.6905 170.838 102.456C100.004 104.912 84.5855 59.188 68.5374 11.597C50.843 -40.8761 32.3833 -95.6189 -61.9646 -90.5521Z" fill="white" fill-opacity="0.06"/>
</g>
<mask id="path-4-inside-1_23_5239" fill="white">
<path d="M310.967 25.1083C310.967 30.5529 306.553 34.9667 301.108 34.9667C295.664 34.9667 291.25 30.5529 291.25 25.1083C291.25 19.6637 295.664 15.25 301.108 15.25C306.553 15.25 310.967 19.6637 310.967 25.1083Z"/>
</mask>
<path d="M309.883 25.1083C309.883 29.9546 305.955 33.8833 301.108 33.8833V36.05C307.151 36.05 312.05 31.1512 312.05 25.1083H309.883ZM301.108 33.8833C296.262 33.8833 292.333 29.9546 292.333 25.1083H290.167C290.167 31.1512 295.065 36.05 301.108 36.05V33.8833ZM292.333 25.1083C292.333 20.262 296.262 16.3333 301.108 16.3333V14.1667C295.065 14.1667 290.167 19.0654 290.167 25.1083H292.333ZM301.108 16.3333C305.955 16.3333 309.883 20.262 309.883 25.1083H312.05C312.05 19.0654 307.151 14.1667 301.108 14.1667V16.3333Z" fill="#D9D9D9" mask="url(#path-4-inside-1_23_5239)"/>
</svg>
