<svg width="19" height="18" viewBox="0 0 19 18" fill="none" xmlns="http://www.w3.org/2000/svg">
<path d="M16.6304 1.3627L15.8429 0.680412C14.9354 -0.226804 13.4654 -0.226804 12.5579 0.680412C12.5354 0.702905 11.1479 2.50984 11.1479 2.50984C10.2929 3.40956 10.2929 4.82662 11.1479 5.71884L12.0179 6.8135C10.9229 9.29522 9.22039 11.0047 6.82039 12.0244L5.72539 11.1471C4.83289 10.2849 3.40789 10.2849 2.51539 11.1471C2.51539 11.1471 0.707887 12.5342 0.685387 12.5567C-0.222113 13.4639 -0.222113 14.9335 0.647887 15.8032L1.39789 16.6654C2.26039 17.5276 3.42289 18 4.68289 18C10.4129 18 18.0029 10.4049 18.0029 4.68416C18.0029 3.43205 17.5304 2.26242 16.6304 1.3702V1.3627ZM4.68289 16.493C3.82789 16.493 3.04039 16.1781 2.50039 15.6307L1.75039 14.7685C1.44289 14.4611 1.42789 13.9588 1.72039 13.6364C1.72039 13.6364 3.51289 12.2568 3.53539 12.2343C3.84289 11.9269 4.38289 11.9269 4.69789 12.2343C4.72039 12.2568 6.22789 13.4639 6.22789 13.4639C6.43789 13.6289 6.71539 13.6739 6.96289 13.5764C10.0679 12.3918 12.2954 10.1724 13.5779 6.97095C13.6754 6.72352 13.6379 6.43861 13.4654 6.22118C13.4654 6.22118 12.2579 4.70665 12.2429 4.69166C11.9204 4.36926 11.9204 3.85192 12.2429 3.52952C12.2654 3.50703 13.6454 1.71509 13.6454 1.71509C13.9679 1.42268 14.4704 1.43018 14.8154 1.77507L15.6029 2.45736C16.1804 3.03468 16.5029 3.82193 16.5029 4.67666C16.5029 9.89503 9.17539 16.493 4.68289 16.493Z" fill="#19223C"/>
</svg>
