<svg width="20" height="20" viewBox="0 0 20 20" fill="none" xmlns="http://www.w3.org/2000/svg">
<path d="M2 9.42951C2 6.48039 2 5.00544 2.91656 4.08966C3.83235 3.1731 5.30729 3.1731 8.25641 3.1731H11.3846C14.3337 3.1731 15.8087 3.1731 16.7245 4.08966C17.641 5.00544 17.641 6.48039 17.641 9.42951V10.9936C17.641 13.9427 17.641 15.4177 16.7245 16.3335C15.8087 17.25 14.3337 17.25 11.3846 17.25H8.25641C5.30729 17.25 3.83235 17.25 2.91656 16.3335C2 15.4177 2 13.9427 2 10.9936V9.42951Z" stroke="#8C8C8C" stroke-width="1.3"/>
<path d="M5.91028 3.17308V2M13.7308 3.17308V2" stroke="#8C8C8C" stroke-width="1.3" stroke-linecap="round"/>
<path d="M2.39099 7.08325H17.25" stroke="#8C8C8C" stroke-width="1.3" stroke-linecap="round"/>
</svg>
