<svg width="76" height="76" viewBox="0 0 76 76" fill="none" xmlns="http://www.w3.org/2000/svg">
<g style="mix-blend-mode:luminosity" filter="url(#filter0_d_23_5399)">
<path d="M68.0887 29.6675L67.6657 35.5885L66.6084 53.3513C66.397 56.3118 64.4938 59.0608 61.7448 60.1181C39.9641 68.5767 40.5985 68.5767 39.7527 68.7881C38.6953 68.9996 37.4266 68.9996 36.1578 68.7881C35.1005 68.5767 35.9463 68.7881 14.1657 60.1181C11.4167 59.0608 9.51349 56.3118 9.30203 53.3513L8.24472 35.5885L7.82179 29.6675L37.8495 39.1833L68.0887 29.6675Z" fill="#E2B0C7"/>
<path d="M39.5413 42.9889V68.5759C38.4839 68.7873 37.2152 68.7873 35.9464 68.5759V42.9889C37.2152 43.6233 38.4839 43.6233 39.5413 42.9889Z" fill="#ECC0D4"/>
<path d="M7.61023 29.6675L8.03316 35.5885L36.1577 47.6418C37.215 48.0648 38.4838 48.0648 39.7526 47.6418L67.8771 35.5885L68.3 29.6675L37.8494 39.1833L7.61023 29.6675Z" fill="#BC99A9"/>
<g opacity="0.5">
<path d="M36.157 42.9889V47.4296C37.2143 47.8525 38.4831 47.8525 39.7518 47.4296V42.9889C38.4831 43.6233 37.2143 43.6233 36.157 42.9889Z" fill="#D685AA"/>
</g>
<path d="M69.5694 30.7256L39.7532 43.4134C39.3302 43.6249 38.6959 43.8363 38.0615 43.8363C37.4271 43.8363 37.0042 43.6249 36.3698 43.4134L6.13059 30.7256C4.01596 29.8798 3.59304 23.7474 4.43889 19.7296C4.65035 18.8837 4.86182 18.2493 5.07328 17.6149C5.4962 16.9805 5.70767 16.5576 6.13059 16.3462H69.5694C69.9923 16.5576 70.2038 16.7691 70.4153 17.192C70.8382 17.8264 71.0497 18.6722 71.2611 19.5181C72.107 23.7474 71.4726 29.8798 69.5694 30.7256Z" fill="#E2B0C7"/>
<path d="M71.2609 19.728C70.838 18.4593 68.9348 19.0937 68.9348 19.0937L41.0218 30.9356C40.1759 31.3585 39.5415 32.2043 39.5415 33.2617V43.4119C39.1186 43.6233 38.4842 43.8348 37.8498 43.8348C37.2154 43.8348 36.7925 43.6233 36.1581 43.4119V33.0502C36.1581 31.9929 35.5237 31.147 34.6779 30.7241L6.55334 18.8822C5.91895 18.6707 4.65018 18.4593 4.22725 19.5166C4.43871 18.6707 4.65018 18.0363 4.86164 17.402C5.28457 16.979 5.70749 16.5561 6.13042 16.3446L35.9467 3.65688C37.004 3.23395 38.2727 3.23395 39.5415 3.65688L69.3578 16.3446C69.7807 16.5561 69.9922 16.7676 70.2036 17.1905C70.838 17.8249 71.0495 18.6707 71.2609 19.728Z" fill="#ECC0D4"/>
<path d="M38.6953 29.6675L66.6084 18.037C67.0313 17.8256 67.0313 17.1912 66.6084 16.9797L38.6953 5.56074C38.0609 5.34928 37.4265 5.34928 36.7921 5.56074L9.09051 16.9797C8.66759 17.1912 8.66759 17.8256 9.09051 18.037L36.7921 29.456C37.4265 29.879 38.2724 29.879 38.6953 29.6675Z" fill="#E2B0C7"/>
<path d="M52.6516 25.8617L50.114 26.919C49.6911 26.4961 49.2682 26.2846 47.9994 25.6503L50.9599 24.3815C51.5942 25.0159 52.2286 25.4388 52.6516 25.8617Z" fill="#ECC0D4"/>
<path d="M25.5847 27.1305L23.0472 25.8617C23.4701 25.2273 24.1045 24.8044 24.7389 24.3815L27.6994 25.6503C26.642 26.2846 26.0077 26.7076 25.5847 27.1305Z" fill="#ECC0D4"/>
<path d="M37.8494 17.403C40.8098 18.8832 47.1537 22.2666 50.9601 24.5927L47.9996 25.8615C45.0391 24.1698 41.0213 22.2666 37.8494 20.9978C34.043 22.6895 30.6596 24.1698 27.6991 25.8615L24.7387 24.5927C28.1221 22.4781 34.2545 19.0947 37.8494 17.403Z" fill="#BC99A9"/>
<g filter="url(#filter1_d_23_5399)">
<path d="M28.2375 12.1189C23.5932 14.6566 19.16 16.9829 15.1491 19.3091C12.8269 20.7894 11.3492 23.3271 11.5603 26.0763L14.0936 59.278C14.3047 60.9698 15.1491 62.6616 16.4157 63.5075C19.5822 65.8338 24.8598 69.0059 27.3931 66.8911L24.6487 64.9879L24.0154 25.2304L38.3704 17.1943V12.1189H28.2375Z" fill="#DE6D72"/>
<g opacity="0.5">
<path d="M25.2803 30.9388L25.4914 63.5061L24.0137 60.9684C22.747 30.0929 21.9026 28.4011 23.5915 25.8634L26.1247 26.9208C25.2803 27.9781 25.2803 29.4585 25.2803 30.9388Z" fill="#D685AA"/>
</g>
<path d="M21.6936 29.6709L23.1713 64.7759C23.1713 66.4677 24.8601 67.948 26.5489 67.5251C27.3934 67.3136 28.2378 66.6792 28.8711 65.8333L26.1267 64.5644C25.7045 64.353 25.4934 63.93 25.4934 63.5071L24.4379 29.248C24.4379 27.5562 25.2823 25.6529 26.7601 24.807C30.3488 22.6922 33.9376 21.0004 38.1596 19.0971V15.925C34.1487 17.8283 28.8711 20.789 25.0712 23.1152C22.9602 24.384 21.4825 26.9217 21.6936 29.6709Z" fill="#B15C60"/>
<path d="M48.5029 12.1189C53.1472 14.4451 57.5804 16.9829 61.5913 19.3091C63.9135 20.7894 65.3912 23.3271 65.1801 26.0763L62.6469 59.278C62.4357 60.9698 61.5913 62.6616 60.3247 63.5075C57.1582 65.8338 51.8806 69.0059 49.3474 66.8911L52.0917 64.9879L52.725 25.2304L38.37 17.1943V12.1189H48.5029Z" fill="#DE6D72"/>
<g opacity="0.5">
<path d="M51.4593 30.9379L51.2482 63.7166L52.937 60.9675C53.7814 30.092 54.8369 28.6117 53.1481 26.074L50.6148 27.1313C51.4593 27.9772 51.4593 29.4576 51.4593 30.9379Z" fill="#D685AA"/>
</g>
<path d="M55.0476 29.6709L53.5699 64.7759C53.5699 66.4677 51.881 67.948 50.1922 67.5251C49.3478 67.3136 48.5034 66.6792 47.8701 65.8333L50.6144 64.7759C51.0366 64.5644 51.2477 64.353 51.2477 63.93L52.3033 29.6709C52.3033 27.9791 51.4588 26.0758 49.9811 25.2299C48.9256 24.5955 47.659 23.9611 46.6035 23.3267C44.2813 22.0578 41.7481 21.0004 39.426 19.943C39.0037 19.7316 38.7926 19.7316 38.5815 19.5201V15.925C39.6371 16.5594 40.6926 16.9824 41.7481 17.6168C45.1257 19.3086 48.0812 21.0004 51.6699 23.1152C51.881 23.3267 52.0921 23.5381 52.3033 23.5381C53.9921 25.0185 55.2587 27.3447 55.0476 29.6709Z" fill="#B15C60"/>
<path d="M34.9922 13.1739C34.9922 13.3854 34.7811 13.8083 34.7811 14.0198C33.7256 17.1919 32.2479 18.8837 28.8702 18.0378C26.7592 17.4034 18.3151 19.3067 17.6818 19.0952C15.7818 18.2493 15.1485 16.1346 15.3596 13.8083C15.3596 10.8477 16.6262 7.46406 17.6818 5.3493C18.7373 3.23455 20.4261 1.54274 22.326 1.11979H23.1704C26.1259 1.11979 31.1924 5.98373 32.8812 8.09849C34.57 10.2132 33.0923 8.30996 33.0923 8.30996C34.1478 9.57882 34.7811 10.8477 34.9922 11.9051V13.1739Z" fill="#DE6D72"/>
<path d="M34.9928 13.1739C34.9928 13.3854 34.7817 13.8083 34.7817 14.0198C34.3595 12.751 33.0929 10.8477 32.6707 10.4247C30.7707 8.09849 25.9154 3.44602 22.9599 3.44602C18.7378 3.44602 15.9935 9.57882 15.3602 13.8083C15.3602 10.8477 16.6268 7.46406 17.6823 5.3493C18.5267 3.44602 20.6378 1.54274 22.3266 1.11979H23.171C26.1265 1.11979 31.1929 5.98373 32.8818 8.09849C34.5706 10.2132 33.0929 8.30996 33.0929 8.30996C34.3595 10.0018 34.7817 11.0591 34.9928 11.9051V13.1739Z" fill="#DE6D72"/>
<g opacity="0.5">
<path d="M37.3156 19.729C36.6823 19.9405 35.8379 20.3635 35.2046 20.5749C32.6713 20.3635 32.2491 20.3635 31.6158 19.9405C31.8269 19.9405 32.038 19.729 32.038 19.5176C32.8824 18.6717 32.4602 17.8258 31.8269 16.9799H34.5713L34.9935 17.4028L37.3156 19.729Z" fill="#A3565A"/>
</g>
<path d="M15.3602 15.7132C15.3602 16.982 15.3602 21.0001 20.0045 21.6345C21.6933 21.846 25.0709 21.846 26.9709 21.846C29.7152 21.6345 33.7262 21.2115 33.7262 18.4623C33.7262 18.0394 33.5151 17.405 33.304 16.982C32.8818 16.1361 31.404 14.8673 31.1929 14.8673C27.8153 12.3295 22.5377 10.2148 20.2156 10.0033C17.2601 10.0033 15.3602 12.7525 15.3602 15.7132Z" fill="#C66C71"/>
<path d="M24.8597 20.9984C43.0146 20.9984 25.0708 11.0591 20.2154 10.8476C17.8933 10.8476 16.2045 12.9623 16.2045 15.7115C16.2045 21.2099 19.371 20.9984 24.8597 20.9984Z" fill="#B15C60"/>
<path d="M32.2485 19.7303C32.4593 19.5196 32.4593 19.7303 32.2485 19.7303V19.7303Z" fill="#B15C60"/>
<path d="M16.2045 15.7115C16.2045 16.7689 16.4156 18.2492 17.0489 19.0951C17.26 16.7689 18.9488 14.6541 21.0598 14.6541C23.1709 14.6541 28.6596 16.7689 32.0372 19.7296C35.4149 22.6902 32.0372 19.7296 32.2483 19.5181C34.9926 16.7689 24.0153 11.0591 20.0043 10.8476C17.8933 11.0591 16.2045 12.9623 16.2045 15.7115Z" fill="#A3565A"/>
<path d="M41.7467 13.1741C42.5911 16.5577 44.2799 19.0954 47.8687 17.8266C49.9797 17.1921 58.4238 19.0954 59.0571 18.8839C60.5349 18.2495 61.1682 16.7692 61.3793 15.0774C61.8015 10.4249 58.4238 -0.148871 52.3018 1.33146C50.1908 1.96589 46.1798 5.13802 43.6466 8.31016C41.1134 11.4823 43.4355 8.52164 43.4355 8.52164C42.1689 10.2134 41.3245 11.9052 41.7467 13.1741Z" fill="#DE6D72"/>
<path d="M61.3797 13.8094C60.5353 8.94541 57.3688 2.38967 52.5134 3.44704C49.3468 4.50442 42.8026 10.4257 41.9582 13.8094C41.536 12.5405 41.1138 11.2716 43.4359 8.31099L43.647 8.09951C46.1803 4.92737 50.1912 1.96671 52.3023 1.12081C58.2132 -0.148044 61.3797 9.57984 61.3797 13.8094Z" fill="#DE6D72"/>
<g opacity="0.5">
<path d="M62.2255 19.729C60.5367 23.3241 56.5257 23.5356 52.3036 23.5356C51.2481 23.5356 50.4037 23.5356 49.3482 23.5356C47.6594 23.5356 47.0261 23.3241 46.3927 23.1126C44.0706 21.8438 41.5374 20.7864 39.2152 19.729L41.3263 17.4028L41.7485 16.9799H57.3701C58.8478 17.8258 61.5922 19.3061 62.2255 19.729Z" fill="#A3565A"/>
</g>
<path d="M43.0135 18.6729C43.0135 21.4221 47.0244 21.8451 49.7688 22.0565C56.7352 22.268 61.3794 22.4795 61.3794 15.9237C61.3794 12.9631 59.4795 10.2139 56.5241 10.2139C52.9353 10.2139 43.0135 14.8664 43.0135 18.6729Z" fill="#C66C71"/>
<path d="M51.8797 20.9984C33.7248 20.9984 51.8797 11.0591 56.524 10.8476C58.8461 10.8476 60.5349 12.9623 60.5349 15.7115C60.5349 21.2099 57.1573 20.9984 51.8797 20.9984Z" fill="#B15C60"/>
<path d="M60.5354 15.7115C60.5354 16.7689 60.3243 18.0378 59.691 19.0951C59.4799 16.5574 57.7911 14.6541 55.68 14.6541C53.569 14.6541 48.0803 16.7689 44.7027 19.7296C41.325 22.6902 44.7027 19.7296 44.4916 19.5181C41.7472 16.7689 52.7246 11.0591 56.7355 10.8476C58.8466 11.0591 60.5354 12.9623 60.5354 15.7115Z" fill="#A3565A"/>
<g opacity="0.1">
<path d="M45.7584 15.9241C45.1251 16.3471 44.2807 17.4045 44.0695 18.2504C44.0695 18.6733 44.0695 19.0963 44.4918 19.5192C44.4918 19.5192 44.4918 19.7307 44.7029 19.7307C44.914 19.9422 44.914 19.9422 45.1251 20.1537C44.7029 20.5766 44.0695 20.5766 41.5363 20.7881C40.4808 20.1537 39.4253 19.7307 38.3698 19.3078C37.9476 19.5192 37.7365 19.5192 37.5253 19.7307C36.892 19.9422 36.0476 20.3651 35.4143 20.5766C32.8811 20.3651 32.4589 20.3651 31.8256 19.9422C32.67 19.5192 33.3033 18.4618 32.0367 16.9815C31.6145 16.5586 31.4034 16.1356 30.9811 15.9241C30.9811 15.5012 32.0367 9.79134 32.0367 9.57987C32.2478 8.94544 32.4589 8.52249 32.8811 8.31101C33.3033 8.09954 33.0922 8.52249 33.0922 8.52249C34.3588 10.2143 35.2032 11.9061 34.781 13.175C34.3588 14.6553 33.9366 16.1356 32.8811 16.9815C33.0922 17.4045 33.3033 17.8274 33.3033 18.2504C33.7255 18.0389 34.3588 17.6159 34.9921 17.4045C36.2587 16.9815 37.3142 16.3471 38.3698 15.9241C40.0586 16.77 41.5363 17.6159 43.2251 18.4618C43.2251 18.0389 43.4362 17.6159 43.6473 17.193C42.8029 16.1356 42.1696 14.8668 41.7474 13.3864C41.3252 12.1176 42.1696 10.4258 43.6473 8.73396C43.6473 8.73396 43.6473 8.52249 43.8584 8.52249C44.2807 8.52249 44.4918 8.94544 44.7029 9.57987C44.7029 10.0028 45.7584 15.7127 45.7584 15.9241Z" fill="#111D33"/>
</g>
<path d="M31.6149 17.8276C31.4038 18.6735 32.0371 19.3079 32.6704 19.3079C37.5258 19.9424 38.7924 19.9424 43.8589 19.3079C44.7033 19.3079 45.1255 18.462 44.9144 17.8276L43.8589 12.7522C43.8589 12.1177 43.2256 11.9063 42.5923 11.9063C39.8479 12.5407 36.2592 12.5407 33.5149 11.9063C32.8815 11.6948 32.4593 12.1177 32.2482 12.7522L31.6149 17.8276Z" fill="#DE6D72"/>
<path d="M32.2476 14.4431C32.0365 15.0776 32.6698 15.9235 33.3031 15.9235C37.5252 16.5579 39.214 16.5579 43.4361 15.9235C44.0694 15.9235 44.7027 15.2891 44.4916 14.4431L43.6472 9.79068C43.6472 9.36773 43.0139 8.94478 42.5917 9.15625C40.2696 9.79068 36.6808 9.79068 34.3587 9.15625C33.9365 8.94478 33.3031 9.36773 33.3031 9.79068L32.2476 14.4431Z" fill="#DE6D72"/>
</g>
</g>
<defs>
<filter id="filter0_d_23_5399" x="0" y="0" width="75.6595" height="76" filterUnits="userSpaceOnUse" color-interpolation-filters="sRGB">
<feFlood flood-opacity="0" result="BackgroundImageFix"/>
<feColorMatrix in="SourceAlpha" type="matrix" values="0 0 0 0 0 0 0 0 0 0 0 0 0 0 0 0 0 0 127 0" result="hardAlpha"/>
<feOffset dy="3"/>
<feGaussianBlur stdDeviation="2"/>
<feComposite in2="hardAlpha" operator="out"/>
<feColorMatrix type="matrix" values="0 0 0 0 0 0 0 0 0 0 0 0 0 0 0 0 0 0 0.25 0"/>
<feBlend mode="normal" in2="BackgroundImageFix" result="effect1_dropShadow_23_5399"/>
<feBlend mode="normal" in="SourceGraphic" in2="effect1_dropShadow_23_5399" result="shape"/>
</filter>
<filter id="filter1_d_23_5399" x="7.50987" y="0" width="61.7202" height="74.6519" filterUnits="userSpaceOnUse" color-interpolation-filters="sRGB">
<feFlood flood-opacity="0" result="BackgroundImageFix"/>
<feColorMatrix in="SourceAlpha" type="matrix" values="0 0 0 0 0 0 0 0 0 0 0 0 0 0 0 0 0 0 127 0" result="hardAlpha"/>
<feOffset dy="3"/>
<feGaussianBlur stdDeviation="2"/>
<feComposite in2="hardAlpha" operator="out"/>
<feColorMatrix type="matrix" values="0 0 0 0 0 0 0 0 0 0 0 0 0 0 0 0 0 0 0.25 0"/>
<feBlend mode="normal" in2="BackgroundImageFix" result="effect1_dropShadow_23_5399"/>
<feBlend mode="normal" in="SourceGraphic" in2="effect1_dropShadow_23_5399" result="shape"/>
</filter>
</defs>
</svg>
