<svg width="327" height="141" viewBox="0 0 327 141" fill="none" xmlns="http://www.w3.org/2000/svg">
<rect width="327" height="140.222" rx="20" fill="url(#paint0_linear_23_4978)"/>
<mask id="mask0_23_4978" style="mask-type:alpha" maskUnits="userSpaceOnUse" x="0" y="0" width="327" height="141">
<rect width="327" height="140.222" rx="20" fill="white" fill-opacity="0.03"/>
</mask>
<g mask="url(#mask0_23_4978)">
<path fill-rule="evenodd" clip-rule="evenodd" d="M84.3074 -2.23624C101.114 47.6825 117.261 95.6429 191.442 93.0662C259.509 90.7018 302.682 99.441 327.258 114.552V173.384C327.258 184.43 318.304 193.384 307.258 193.384H-57.3814C-68.427 193.384 -77.3813 184.43 -77.3813 173.384V-71.2246C-77.3813 -82.2703 -68.427 -91.2246 -57.3813 -91.2246H31.0782C61.2553 -70.7061 72.9324 -36.0226 84.3074 -2.23624Z" fill="white" fill-opacity="0.06"/>
<path fill-rule="evenodd" clip-rule="evenodd" d="M-61.9698 -90.6958C-70.804 -88.622 -77.3813 -80.6914 -77.3813 -71.2247V173.384C-77.3813 184.43 -68.427 193.384 -57.3813 193.384H307.258C312.656 193.384 317.554 191.246 321.152 187.77C339.412 140.459 308.247 97.8441 170.838 102.617C100.004 105.078 84.5855 59.2812 68.5374 11.6148C50.8427 -40.9424 32.3826 -95.7729 -61.9698 -90.6958Z" fill="white" fill-opacity="0.06"/>
</g>
<g style="mix-blend-mode:luminosity" filter="url(#filter0_d_23_4978)">
<path d="M193.781 60.4941L193.361 66.3704L192.312 83.999C192.102 86.9371 190.213 89.6654 187.485 90.7147C165.869 99.1093 166.498 99.1093 165.659 99.3192C164.61 99.529 163.35 99.529 162.091 99.3192C161.042 99.1093 161.881 99.3192 140.265 90.7147C137.537 89.6654 135.648 86.9371 135.438 83.999L134.389 66.3704L133.969 60.4941L163.77 69.9381L193.781 60.4941Z" fill="#F0A671"/>
<path d="M165.449 73.7148V99.1085C164.399 99.3184 163.14 99.3184 161.881 99.1085V73.7148C163.14 74.3444 164.399 74.3444 165.449 73.7148Z" fill="#F9BD94"/>
<path d="M133.759 60.4941L134.179 66.3704L162.091 78.3327C163.14 78.7524 164.399 78.7524 165.658 78.3327L193.57 66.3704L193.99 60.4941L163.769 69.9381L133.759 60.4941Z" fill="#C4875C"/>
<g opacity="0.5">
<path d="M162.09 73.7148V78.122C163.14 78.5417 164.399 78.5417 165.658 78.122V73.7148C164.399 74.3444 163.14 74.3444 162.09 73.7148Z" fill="#965425"/>
</g>
<path d="M195.25 61.5443L165.659 74.1362C165.239 74.346 164.61 74.5559 163.98 74.5559C163.35 74.5559 162.931 74.346 162.301 74.1362L132.29 61.5443C130.192 60.7048 129.772 54.6187 130.611 50.6313C130.821 49.7918 131.031 49.1622 131.241 48.5326C131.661 47.903 131.871 47.4833 132.29 47.2734H195.25C195.67 47.4833 195.879 47.6932 196.089 48.1129C196.509 48.7425 196.719 49.582 196.929 50.4214C197.768 54.6187 197.139 60.7048 195.25 61.5443Z" fill="#F0A671"/>
<path d="M196.929 50.6298C196.509 49.3706 194.62 50.0002 194.62 50.0002L166.918 61.7526C166.078 62.1723 165.449 63.0118 165.449 64.0611V74.1347C165.029 74.3445 164.4 74.5544 163.77 74.5544C163.14 74.5544 162.721 74.3445 162.091 74.1347V63.8513C162.091 62.8019 161.461 61.9625 160.622 61.5428L132.71 49.7903C132.08 49.5804 130.821 49.3706 130.401 50.4199C130.611 49.5804 130.821 48.9509 131.031 48.3213C131.451 47.9015 131.87 47.4818 132.29 47.2719L161.881 34.68C162.93 34.2603 164.19 34.2603 165.449 34.68L195.04 47.2719C195.46 47.4818 195.669 47.6917 195.879 48.1114C196.509 48.741 196.719 49.5804 196.929 50.6298Z" fill="#F9BD94"/>
<path d="M164.609 60.4941L192.312 48.9515C192.731 48.7417 192.731 48.1121 192.312 47.9022L164.609 36.5695C163.98 36.3596 163.35 36.3596 162.721 36.5695L135.228 47.9022C134.809 48.1121 134.809 48.7417 135.228 48.9515L162.721 60.2843C163.35 60.704 164.19 60.704 164.609 60.4941Z" fill="#F0A671"/>
<path d="M178.46 56.7171L175.942 57.7664C175.522 57.3467 175.102 57.1368 173.843 56.5072L176.781 55.248C177.411 55.8776 178.041 56.2974 178.46 56.7171Z" fill="#F9BD94"/>
<path d="M151.597 57.9763L149.079 56.7171C149.499 56.0875 150.128 55.6678 150.758 55.248L153.696 56.5072C152.647 57.1368 152.017 57.5566 151.597 57.9763Z" fill="#F9BD94"/>
<path d="M163.769 48.3223C166.708 49.7913 173.004 53.1492 176.781 55.4577L173.843 56.7169C170.905 55.0379 166.917 53.1492 163.769 51.89C159.992 53.5689 156.634 55.0379 153.696 56.7169L150.758 55.4577C154.116 53.359 160.202 50.0012 163.769 48.3223Z" fill="#C4875C"/>
<g filter="url(#filter1_d_23_4978)">
<path d="M154.231 43.0781C149.621 45.5967 145.222 47.9053 141.241 50.214C138.937 51.6831 137.47 54.2017 137.68 56.9301L140.194 89.8809C140.403 91.5599 141.241 93.239 142.498 94.0785C145.641 96.3871 150.879 99.5353 153.393 97.4365L150.669 95.5476L150.041 56.0906L164.287 48.1152V43.0781H154.231Z" fill="#DE6D72"/>
<g opacity="0.5">
<path d="M151.296 61.7558L151.505 94.077L150.039 91.5585C148.782 60.9163 147.944 59.2373 149.62 56.7188L152.134 57.7681C151.296 58.8175 151.296 60.2867 151.296 61.7558Z" fill="#965425"/>
</g>
<path d="M147.736 60.4975L149.203 95.3373C149.203 97.0163 150.879 98.4854 152.555 98.0657C153.393 97.8558 154.231 97.2262 154.859 96.3867L152.136 95.1274C151.717 94.9175 151.507 94.4978 151.507 94.078L150.46 60.0778C150.46 58.3988 151.298 56.5099 152.764 55.6703C156.326 53.5716 159.888 51.8925 164.078 50.0036V46.8555C160.097 48.7444 154.859 51.6827 151.088 53.9913C148.993 55.2506 147.527 57.7691 147.736 60.4975Z" fill="#B15C60"/>
<path d="M174.344 43.0781C178.953 45.3868 183.352 47.9053 187.333 50.214C189.638 51.6831 191.104 54.2017 190.895 56.9301L188.381 89.8809C188.171 91.5599 187.333 93.239 186.076 94.0785C182.933 96.3871 177.696 99.5353 175.182 97.4365L177.905 95.5476L178.534 56.0906L164.287 48.1152V43.0781H174.344Z" fill="#DE6D72"/>
<g opacity="0.5">
<path d="M177.277 61.7549L177.067 94.286L178.743 91.5576C179.581 60.9154 180.629 59.4463 178.953 56.9277L176.438 57.9771C177.277 58.8166 177.277 60.2858 177.277 61.7549Z" fill="#965425"/>
</g>
<path d="M180.838 60.4975L179.372 95.3373C179.372 97.0163 177.696 98.4854 176.02 98.0657C175.182 97.8558 174.343 97.2262 173.715 96.3867L176.439 95.3373C176.858 95.1274 177.067 94.9175 177.067 94.4978L178.115 60.4975C178.115 58.8185 177.277 56.9296 175.81 56.0901C174.762 55.4605 173.505 54.8308 172.458 54.2012C170.153 52.9419 167.639 51.8925 165.335 50.8431C164.916 50.6333 164.706 50.6333 164.497 50.4234V46.8555C165.544 47.4851 166.592 47.9049 167.639 48.5345C170.991 50.2135 173.924 51.8925 177.486 53.9913C177.696 54.2012 177.905 54.4111 178.115 54.4111C179.791 55.8802 181.048 58.1889 180.838 60.4975Z" fill="#B15C60"/>
<path d="M160.934 44.1252C160.934 44.335 160.725 44.7548 160.725 44.9647C159.677 48.1128 158.211 49.7919 154.859 48.9523C152.764 48.3227 144.383 50.2116 143.755 50.0017C141.869 49.1622 141.241 47.0634 141.45 44.7548C141.45 41.8165 142.707 38.4584 143.755 36.3597C144.802 34.2609 146.478 32.5819 148.364 32.1621H149.202C152.135 32.1621 157.163 36.9893 158.839 39.0881C160.515 41.1869 159.049 39.298 159.049 39.298C160.096 40.5572 160.725 41.8165 160.934 42.8659V44.1252Z" fill="#DE6D72"/>
<path d="M160.935 44.1252C160.935 44.335 160.725 44.7548 160.725 44.9647C160.306 43.7054 159.049 41.8165 158.63 41.3967C156.745 39.0881 151.926 34.4708 148.993 34.4708C144.803 34.4708 142.079 40.5572 141.451 44.7548C141.451 41.8165 142.708 38.4584 143.755 36.3597C144.593 34.4708 146.688 32.5819 148.364 32.1621H149.202C152.136 32.1621 157.164 36.9893 158.84 39.0881C160.516 41.1869 159.049 39.298 159.049 39.298C160.306 40.977 160.725 42.0264 160.935 42.8659V44.1252Z" fill="#DE6D72"/>
<g opacity="0.5">
<path d="M163.24 50.6308C162.612 50.8406 161.774 51.2604 161.145 51.4703C158.631 51.2604 158.212 51.2604 157.583 50.8406C157.793 50.8406 158.003 50.6308 158.003 50.4209C158.841 49.5814 158.422 48.7419 157.793 47.9023H160.517L160.936 48.3221L163.24 50.6308Z" fill="#A3565A"/>
</g>
<path d="M141.451 46.6452C141.451 47.9045 141.451 51.8922 146.06 52.5218C147.736 52.7317 151.088 52.7317 152.974 52.7317C155.697 52.5218 159.678 52.102 159.678 49.3736C159.678 48.9539 159.468 48.3242 159.259 47.9045C158.84 47.065 157.373 45.8057 157.164 45.8057C153.812 43.2872 148.574 41.1884 146.269 40.9785C143.336 40.9785 141.451 43.7069 141.451 46.6452Z" fill="#C66C71"/>
<path d="M150.879 51.8905C168.897 51.8905 151.088 42.0263 146.27 41.8164C143.965 41.8164 142.289 43.9152 142.289 46.6436C142.289 52.1004 145.432 51.8905 150.879 51.8905Z" fill="#B15C60"/>
<path d="M158.211 50.632C158.42 50.4229 158.42 50.632 158.211 50.632V50.632Z" fill="#B15C60"/>
<path d="M142.289 46.6436C142.289 47.693 142.499 49.1621 143.127 50.0016C143.337 47.693 145.013 45.5942 147.108 45.5942C149.203 45.5942 154.65 47.693 158.002 50.6313C161.354 53.5696 158.002 50.6313 158.212 50.4214C160.935 47.693 150.041 42.0263 146.06 41.8164C143.965 42.0263 142.289 43.9152 142.289 46.6436Z" fill="#A3565A"/>
<path d="M167.638 44.1253C168.476 47.4834 170.152 50.0019 173.714 48.7427C175.809 48.113 184.189 50.0019 184.817 49.7921C186.284 49.1624 186.913 47.6933 187.122 46.0142C187.541 41.3969 184.189 30.903 178.113 32.3722C176.018 33.0018 172.037 36.15 169.523 39.2982C167.009 42.4463 169.314 39.508 169.314 39.508C168.057 41.1871 167.219 42.8661 167.638 44.1253Z" fill="#DE6D72"/>
<path d="M187.122 44.7558C186.284 39.9286 183.142 33.4224 178.323 34.4718C175.181 35.5212 168.686 41.3978 167.848 44.7558C167.429 43.4965 167.01 42.2373 169.314 39.299L169.524 39.0891C172.038 35.9409 176.019 33.0026 178.114 32.1631C183.98 30.9039 187.122 40.5582 187.122 44.7558Z" fill="#DE6D72"/>
<g opacity="0.5">
<path d="M187.962 50.6308C186.286 54.1987 182.305 54.4086 178.115 54.4086C177.067 54.4086 176.229 54.4086 175.182 54.4086C173.506 54.4086 172.877 54.1987 172.249 53.9888C169.944 52.7295 167.43 51.6801 165.125 50.6308L167.221 48.3221L167.64 47.9023H183.143C184.61 48.7419 187.333 50.211 187.962 50.6308Z" fill="#A3565A"/>
</g>
<path d="M168.896 49.5826C168.896 52.311 172.876 52.7308 175.6 52.9407C182.514 53.1505 187.123 53.3604 187.123 46.8542C187.123 43.9159 185.237 41.1875 182.304 41.1875C178.742 41.1875 168.896 45.8048 168.896 49.5826Z" fill="#C66C71"/>
<path d="M177.695 51.8905C159.677 51.8905 177.695 42.0263 182.304 41.8164C184.609 41.8164 186.285 43.9152 186.285 46.6436C186.285 52.1004 182.932 51.8905 177.695 51.8905Z" fill="#B15C60"/>
<path d="M186.285 46.6436C186.285 47.693 186.075 48.9523 185.447 50.0016C185.237 47.4831 183.561 45.5942 181.466 45.5942C179.371 45.5942 173.924 47.693 170.571 50.6313C167.219 53.5696 170.571 50.6313 170.362 50.4214C167.638 47.693 178.533 42.0263 182.513 41.8164C184.609 42.0263 186.285 43.9152 186.285 46.6436Z" fill="#A3565A"/>
<g opacity="0.1">
<path d="M171.619 46.8546C170.991 47.2744 170.153 48.3238 169.943 49.1633C169.943 49.583 169.943 50.0028 170.362 50.4225C170.362 50.4225 170.362 50.6324 170.572 50.6324C170.781 50.8423 170.781 50.8423 170.991 51.0522C170.572 51.4719 169.943 51.4719 167.429 51.6818C166.381 51.0522 165.334 50.6324 164.286 50.2127C163.867 50.4225 163.658 50.4225 163.448 50.6324C162.82 50.8423 161.982 51.262 161.353 51.4719C158.839 51.262 158.42 51.262 157.792 50.8423C158.63 50.4225 159.258 49.3731 158.001 47.904C157.582 47.4842 157.373 47.0645 156.954 46.8546C156.954 46.4349 158.001 40.7681 158.001 40.5583C158.211 39.9286 158.42 39.5089 158.839 39.299C159.258 39.0891 159.049 39.5089 159.049 39.5089C160.306 41.1879 161.144 42.8669 160.725 44.1262C160.306 45.5953 159.887 47.0645 158.839 47.904C159.049 48.3238 159.258 48.7435 159.258 49.1633C159.677 48.9534 160.306 48.5336 160.934 48.3238C162.191 47.904 163.239 47.2744 164.286 46.8546C165.962 47.6941 167.429 48.5336 169.105 49.3731C169.105 48.9534 169.315 48.5336 169.524 48.1139C168.686 47.0645 168.058 45.8052 167.639 44.3361C167.22 43.0768 168.058 41.3978 169.524 39.7188C169.524 39.7188 169.524 39.5089 169.734 39.5089C170.153 39.5089 170.362 39.9286 170.572 40.5583C170.572 40.978 171.619 46.6447 171.619 46.8546Z" fill="#111D33"/>
</g>
<path d="M157.582 48.7437C157.373 49.5832 158.001 50.2128 158.63 50.2128C163.448 50.8425 164.705 50.8425 169.734 50.2128C170.572 50.2128 170.991 49.3733 170.781 48.7437L169.734 43.7066C169.734 43.077 169.105 42.8671 168.477 42.8671C165.753 43.4967 162.191 43.4967 159.468 42.8671C158.839 42.6572 158.42 43.077 158.211 43.7066L157.582 48.7437Z" fill="#DE6D72"/>
<path d="M158.211 45.3848C158.001 46.0144 158.63 46.854 159.258 46.854C163.448 47.4836 165.124 47.4836 169.314 46.854C169.943 46.854 170.572 46.2243 170.362 45.3848L169.524 40.7675C169.524 40.3477 168.895 39.928 168.476 40.1379C166.172 40.7675 162.61 40.7675 160.306 40.1379C159.887 39.928 159.258 40.3477 159.258 40.7675L158.211 45.3848Z" fill="#DE6D72"/>
</g>
</g>
<mask id="path-37-inside-1_23_4978" fill="white">
<path fill-rule="evenodd" clip-rule="evenodd" d="M301.067 34.9667C306.512 34.9667 310.926 30.5529 310.926 25.1083C310.926 19.6637 306.512 15.25 301.067 15.25C295.623 15.25 291.209 19.6637 291.209 25.1083C291.209 30.5529 295.623 34.9667 301.067 34.9667ZM300.959 28.25C302.754 28.25 304.209 26.7949 304.209 25C304.209 23.2051 302.754 21.75 300.959 21.75C299.164 21.75 297.709 23.2051 297.709 25C297.709 26.7949 299.164 28.25 300.959 28.25Z"/>
</mask>
<path fill-rule="evenodd" clip-rule="evenodd" d="M301.067 34.9667C306.512 34.9667 310.926 30.5529 310.926 25.1083C310.926 19.6637 306.512 15.25 301.067 15.25C295.623 15.25 291.209 19.6637 291.209 25.1083C291.209 30.5529 295.623 34.9667 301.067 34.9667ZM300.959 28.25C302.754 28.25 304.209 26.7949 304.209 25C304.209 23.2051 302.754 21.75 300.959 21.75C299.164 21.75 297.709 23.2051 297.709 25C297.709 26.7949 299.164 28.25 300.959 28.25Z" fill="#F7F7F7"/>
<path d="M309.842 25.1083C309.842 29.9546 305.914 33.8833 301.067 33.8833V36.05C307.11 36.05 312.009 31.1512 312.009 25.1083H309.842ZM301.067 16.3333C305.914 16.3333 309.842 20.262 309.842 25.1083H312.009C312.009 19.0654 307.11 14.1667 301.067 14.1667V16.3333ZM292.292 25.1083C292.292 20.262 296.221 16.3333 301.067 16.3333V14.1667C295.024 14.1667 290.126 19.0654 290.126 25.1083H292.292ZM301.067 33.8833C296.221 33.8833 292.292 29.9546 292.292 25.1083H290.126C290.126 31.1512 295.024 36.05 301.067 36.05V33.8833ZM303.126 25C303.126 26.1966 302.156 27.1667 300.959 27.1667V29.3333C303.352 29.3333 305.292 27.3932 305.292 25H303.126ZM300.959 22.8333C302.156 22.8333 303.126 23.8034 303.126 25H305.292C305.292 22.6068 303.352 20.6667 300.959 20.6667V22.8333ZM298.792 25C298.792 23.8034 299.762 22.8333 300.959 22.8333V20.6667C298.566 20.6667 296.626 22.6068 296.626 25H298.792ZM300.959 27.1667C299.762 27.1667 298.792 26.1966 298.792 25H296.626C296.626 27.3932 298.566 29.3333 300.959 29.3333V27.1667Z" fill="#F7F7F7" mask="url(#path-37-inside-1_23_4978)"/>
<defs>
<filter id="filter0_d_23_4978" x="126.206" y="31.0508" width="75.0874" height="75.4258" filterUnits="userSpaceOnUse" color-interpolation-filters="sRGB">
<feFlood flood-opacity="0" result="BackgroundImageFix"/>
<feColorMatrix in="SourceAlpha" type="matrix" values="0 0 0 0 0 0 0 0 0 0 0 0 0 0 0 0 0 0 127 0" result="hardAlpha"/>
<feOffset dy="3"/>
<feGaussianBlur stdDeviation="2"/>
<feComposite in2="hardAlpha" operator="out"/>
<feColorMatrix type="matrix" values="0 0 0 0 0 0 0 0 0 0 0 0 0 0 0 0 0 0 0.25 0"/>
<feBlend mode="normal" in2="BackgroundImageFix" result="effect1_dropShadow_23_4978"/>
<feBlend mode="normal" in="SourceGraphic" in2="effect1_dropShadow_23_4978" result="shape"/>
</filter>
<filter id="filter1_d_23_4978" x="133.66" y="31.0508" width="61.2549" height="74.0879" filterUnits="userSpaceOnUse" color-interpolation-filters="sRGB">
<feFlood flood-opacity="0" result="BackgroundImageFix"/>
<feColorMatrix in="SourceAlpha" type="matrix" values="0 0 0 0 0 0 0 0 0 0 0 0 0 0 0 0 0 0 127 0" result="hardAlpha"/>
<feOffset dy="3"/>
<feGaussianBlur stdDeviation="2"/>
<feComposite in2="hardAlpha" operator="out"/>
<feColorMatrix type="matrix" values="0 0 0 0 0 0 0 0 0 0 0 0 0 0 0 0 0 0 0.25 0"/>
<feBlend mode="normal" in2="BackgroundImageFix" result="effect1_dropShadow_23_4978"/>
<feBlend mode="normal" in="SourceGraphic" in2="effect1_dropShadow_23_4978" result="shape"/>
</filter>
<linearGradient id="paint0_linear_23_4978" x1="0" y1="70.1108" x2="327" y2="70.1108" gradientUnits="userSpaceOnUse">
<stop stop-color="#D39F7A"/>
<stop offset="1" stop-color="#E0AD89"/>
</linearGradient>
</defs>
</svg>
