<svg width="27" height="27" viewBox="0 0 27 27" fill="none" xmlns="http://www.w3.org/2000/svg">
<mask id="path-1-inside-1_2112_12781" fill="white">
<path fill-rule="evenodd" clip-rule="evenodd" d="M13.5911 23.8124C19.2362 23.8124 23.8124 19.2362 23.8124 13.5911C23.8124 7.94595 19.2362 3.36968 13.5911 3.36968C7.94595 3.36968 3.36968 7.94595 3.36968 13.5911C3.36968 19.2362 7.94595 23.8124 13.5911 23.8124ZM13.4787 16.8484C15.3398 16.8484 16.8484 15.3398 16.8484 13.4787C16.8484 11.6177 15.3398 10.1091 13.4787 10.1091C11.6177 10.1091 10.1091 11.6177 10.1091 13.4787C10.1091 15.3398 11.6177 16.8484 13.4787 16.8484Z"/>
</mask>
<path fill-rule="evenodd" clip-rule="evenodd" d="M13.5911 23.8124C19.2362 23.8124 23.8124 19.2362 23.8124 13.5911C23.8124 7.94595 19.2362 3.36968 13.5911 3.36968C7.94595 3.36968 3.36968 7.94595 3.36968 13.5911C3.36968 19.2362 7.94595 23.8124 13.5911 23.8124ZM13.4787 16.8484C15.3398 16.8484 16.8484 15.3398 16.8484 13.4787C16.8484 11.6177 15.3398 10.1091 13.4787 10.1091C11.6177 10.1091 10.1091 11.6177 10.1091 13.4787C10.1091 15.3398 11.6177 16.8484 13.4787 16.8484Z" fill="#F6F6F6"/>
<path d="M22.6892 13.5911C22.6892 18.6158 18.6158 22.6892 13.5911 22.6892V24.9357C19.8565 24.9357 24.9357 19.8565 24.9357 13.5911H22.6892ZM13.5911 4.49291C18.6158 4.49291 22.6892 8.56629 22.6892 13.5911H24.9357C24.9357 7.32561 19.8565 2.24646 13.5911 2.24646V4.49291ZM4.49291 13.5911C4.49291 8.56629 8.56629 4.49291 13.5911 4.49291V2.24646C7.32561 2.24646 2.24646 7.32561 2.24646 13.5911H4.49291ZM13.5911 22.6892C8.56629 22.6892 4.49291 18.6158 4.49291 13.5911H2.24646C2.24646 19.8565 7.32561 24.9357 13.5911 24.9357V22.6892ZM15.7252 13.4787C15.7252 14.7194 14.7194 15.7252 13.4787 15.7252V17.9716C15.9601 17.9716 17.9716 15.9601 17.9716 13.4787H15.7252ZM13.4787 11.2323C14.7194 11.2323 15.7252 12.2381 15.7252 13.4787H17.9716C17.9716 10.9974 15.9601 8.98582 13.4787 8.98582V11.2323ZM11.2323 13.4787C11.2323 12.2381 12.2381 11.2323 13.4787 11.2323V8.98582C10.9974 8.98582 8.98582 10.9974 8.98582 13.4787H11.2323ZM13.4787 15.7252C12.2381 15.7252 11.2323 14.7194 11.2323 13.4787H8.98582C8.98582 15.9601 10.9974 17.9716 13.4787 17.9716V15.7252Z" fill="#F6F6F6" mask="url(#path-1-inside-1_2112_12781)"/>
</svg>
