<svg width="60" height="60" viewBox="0 0 60 60" fill="none" xmlns="http://www.w3.org/2000/svg">
<mask id="mask0_2112_11944" style="mask-type:alpha" maskUnits="userSpaceOnUse" x="0" y="0" width="60" height="60">
<rect width="60" height="60" rx="10" fill="white" fill-opacity="0.03"/>
</mask>
<g mask="url(#mask0_2112_11944)">
<path fill-rule="evenodd" clip-rule="evenodd" d="M8.33585 17.9803C15.7238 39.9242 22.8219 61.0072 55.4313 59.8745C81.2237 58.9786 98.8849 61.7094 110.188 66.7348C113.362 68.1462 115.135 71.436 115.135 74.91V87.7568C115.135 96.7128 107.875 103.973 98.9189 103.973H-46.525C-55.481 103.973 -62.7412 96.7128 -62.7412 87.7568V-4.92247C-62.7412 -13.8784 -55.481 -21.1387 -46.525 -21.1387H-18.1415C-16.1362 -21.1387 -14.154 -20.5636 -12.5881 -19.3109C-1.13393 -10.147 3.65903 4.08915 8.33585 17.9803Z" fill="white" fill-opacity="0.06"/>
<path fill-rule="evenodd" clip-rule="evenodd" d="M-47.7444 -20.9979C-48.2337 -21.0153 -48.7381 -20.997 -49.221 -20.9162C-56.8938 -19.6323 -62.7412 -12.9605 -62.7412 -4.92309V87.7562C-62.7412 96.7122 -55.481 103.972 -46.525 103.972H98.9189C105.918 103.972 111.882 99.538 114.154 93.3253C114.423 92.5871 114.546 91.8008 114.537 91.0149C114.356 74.8601 96.3501 62.3362 46.374 64.0722C15.2359 65.1538 8.45806 45.0221 1.40345 24.0683C-5.83113 2.57998 -13.3568 -19.7728 -47.7444 -20.9979Z" fill="white" fill-opacity="0.06"/>
</g>
<g style="mix-blend-mode:luminosity" filter="url(#filter0_d_2112_11944)">
<path d="M41.6834 28.3338C42.9819 27.9252 44.2837 28.9536 44.1867 30.3114L43.6815 38.7984C43.5805 40.2129 42.6712 41.5263 41.3577 42.0315C30.9511 46.0729 31.2542 46.0729 30.8501 46.1739C30.3449 46.275 29.7387 46.275 29.1325 46.1739C28.6273 46.0729 29.0314 46.1739 18.6248 42.0315C17.3113 41.5263 16.402 40.2129 16.301 38.7984L15.7958 30.3114C15.6989 28.9549 17.001 27.9284 18.2974 28.3392L27.4085 31.2265C29.0565 31.7488 30.8255 31.7506 32.4747 31.2316L41.6834 28.3338Z" fill="#E2B0C7"/>
<path d="M29.8907 34.0765C30.3031 34.0859 30.7499 34.3744 30.7499 34.7868V45.226C30.7499 45.7198 30.437 46.1495 29.9432 46.1509C29.4369 46.1524 29.0322 45.704 29.0322 45.1977V34.7082C29.0322 34.3137 29.4963 34.0675 29.8907 34.0765Z" fill="#ECC0D4"/>
<path d="M17.4058 28.0843C16.4878 27.7954 15.5675 28.5225 15.636 29.4824C15.6724 29.9915 15.99 30.4377 16.4591 30.6388L29.1329 36.0704C29.6381 36.2725 30.2443 36.2725 30.8505 36.0704L43.5231 30.6393C43.993 30.4379 44.3111 29.991 44.3475 29.4812C44.4161 28.521 43.4965 27.793 42.5777 28.0801L32.4828 31.2348C30.8281 31.7518 29.0548 31.7501 27.4012 31.2297L17.4058 28.0843Z" fill="#BC99A9"/>
<g opacity="0.5">
<path d="M29.992 34.0765C29.5796 34.0859 29.1328 34.3744 29.1328 34.7868V35.3834C29.1328 35.7385 29.3491 36.0729 29.7023 36.11C29.8677 36.1273 30.0387 36.1273 30.2127 36.1099C30.6013 36.071 30.8505 35.708 30.8505 35.3175V34.7082C30.8505 34.3137 30.3863 34.0675 29.992 34.0765Z" fill="#D685AA"/>
</g>
<path d="M45.0969 27.9995L30.8507 34.0617C30.6486 34.1628 30.3455 34.2638 30.0424 34.2638C29.7392 34.2638 29.5372 34.1628 29.234 34.0617L14.7857 27.9995C13.7753 27.5953 13.5732 24.6652 13.9774 22.7455C14.0482 22.4621 14.1191 22.2284 14.1899 22.0096C14.249 21.8271 14.3624 21.6046 14.4698 21.4457C14.6574 21.1681 14.9601 21.1289 15.2952 21.1289H44.5128C44.897 21.1289 45.3293 21.1895 45.5011 21.5331C45.7032 21.8362 45.8042 22.2403 45.9052 22.6445C46.3094 24.6652 46.0063 27.5953 45.0969 27.9995Z" fill="#E2B0C7"/>
<path d="M45.9059 22.7464C45.7926 22.4067 45.4574 22.3526 45.1844 22.3706C44.92 22.388 44.6723 22.4951 44.4284 22.5986L31.4575 28.1014C31.0533 28.3035 30.7502 28.7076 30.7502 29.2128V33.2225C30.7502 33.7374 30.4568 34.2647 29.9419 34.2647C29.4415 34.2647 29.1336 33.7251 29.1336 33.2246V29.1118C29.1336 28.6066 28.8305 28.2025 28.4264 28.0004L14.9884 22.3423C14.6853 22.2412 14.079 22.1402 13.877 22.6454C13.8993 22.5561 13.9216 22.4717 13.9439 22.3912C14.0831 21.8891 14.3202 21.3629 14.7863 21.1298L29.0326 15.0676C29.5378 14.8655 30.144 14.8655 30.7502 15.0676L44.9965 21.1298C45.3425 21.3028 45.5693 21.6635 45.7129 22.0227C45.7978 22.2351 45.8518 22.4763 45.9059 22.7464Z" fill="#ECC0D4"/>
<path d="M30.3437 27.4827L43.6807 21.9257C43.8828 21.8246 43.8828 21.5215 43.6807 21.4205L30.3437 15.9645C30.0406 15.8634 29.7375 15.8634 29.4344 15.9645L16.1984 21.4205C15.9964 21.5215 15.9964 21.8246 16.1984 21.9257L28.5551 27.0193C29.1399 27.2603 29.778 27.7656 30.3437 27.4827Z" fill="#E2B0C7"/>
<path d="M36.4862 25.2201C36.7544 25.4487 36.6567 25.819 36.3314 25.9545L36.0603 26.0675C35.9036 26.1327 35.7874 26.1475 35.6523 26.0447C35.3687 25.8286 35.2933 25.3539 35.621 25.2134L35.8974 25.0949C36.0835 25.0152 36.3321 25.0888 36.4862 25.2201Z" fill="#ECC0D4"/>
<path d="M24.2717 26.1112C24.116 26.2347 23.9646 26.2164 23.7868 26.1275L23.5265 25.9974C23.179 25.8236 23.0774 25.389 23.3919 25.1608C23.3962 25.1577 23.4005 25.1545 23.4049 25.1514C23.5739 25.0297 23.7958 25.0124 23.9872 25.0944L24.2647 25.2133C24.611 25.3617 24.5668 25.8769 24.2717 26.1112Z" fill="#ECC0D4"/>
<path d="M28.6602 22.2745C29.4642 21.8607 30.4151 21.8732 31.216 22.2929C32.3993 22.9131 33.8984 23.7255 35.1545 24.4506C35.5991 24.7072 35.5541 25.3539 35.0822 25.5562C34.9 25.6343 34.6919 25.622 34.5186 25.5257C33.8157 25.1351 33.0112 24.7275 32.2034 24.3464C30.7763 23.6731 29.1241 23.7058 27.6914 24.3672C26.8669 24.7478 26.0932 25.1251 25.3704 25.5245C25.1951 25.6213 24.9851 25.6338 24.801 25.555C24.3272 25.3519 24.2794 24.704 24.7238 24.4429C25.9185 23.7408 27.4038 22.921 28.6602 22.2745Z" fill="#BC99A9"/>
<g filter="url(#filter1_d_2112_11944)">
<path d="M26.3311 19.1035C25.6848 19.1035 25.049 19.2663 24.4809 19.5743C22.5765 20.6068 20.7583 21.5729 19.0924 22.539C17.9829 23.2463 17.2769 24.4588 17.3777 25.7724L18.5881 41.6363C18.689 42.4447 19.0924 43.253 19.6976 43.6572C20.8458 44.5007 22.5749 45.5769 23.8709 45.6053C24.4479 45.6179 24.4743 44.949 24 44.6201C23.7686 44.4597 23.6287 44.1975 23.6243 43.916L23.392 29.3337C23.3531 26.8911 24.6578 24.6242 26.7894 23.431L29.4057 21.9664C29.8886 21.696 30.1877 21.1858 30.1877 20.6323C30.1877 19.788 29.5032 19.1035 28.6589 19.1035H26.3311Z" fill="#DE6D72"/>
<g opacity="0.5">
<path d="M23.9356 28.0911L24.0279 42.3357C24.0302 42.695 23.555 42.825 23.3741 42.5145C23.3454 42.4651 23.329 42.407 23.3267 42.3499C22.7957 29.4374 22.422 27.2674 22.8897 26.1072C22.999 25.8364 23.3232 25.7472 23.5927 25.8597C23.9667 26.0158 24.0971 26.5068 24.0135 26.9034C23.9356 27.2732 23.9356 27.6822 23.9356 28.0911Z" fill="#D685AA"/>
</g>
<path d="M22.2215 27.48L22.9276 44.2533C22.9276 45.0616 23.7345 45.7689 24.5414 45.5668C25.24 45.3919 25.0353 44.4738 24.3817 44.1716L24.3397 44.1522C24.1379 44.0512 24.0371 43.8491 24.0371 43.647L23.5328 27.2779C23.5328 26.4695 23.9362 25.5601 24.6423 25.156C26.2423 24.2131 27.8424 23.4462 29.6883 22.6089C29.932 22.4984 30.089 22.2557 30.089 21.9881C30.089 21.4884 29.5693 21.1608 29.1234 21.3864C27.3802 22.2684 25.3591 23.4148 23.8354 24.3476C22.8267 24.9539 22.1206 26.1664 22.2215 27.48Z" fill="#B15C60"/>
<path d="M34.1013 19.1035C34.7101 19.1035 35.3114 19.2439 35.8522 19.5236C37.7712 20.5158 39.6033 21.5661 41.2808 22.539C42.3903 23.2463 43.0964 24.4588 42.9955 25.7724L41.7851 41.6363C41.6843 42.4447 41.2808 43.253 40.6756 43.6572C39.5274 44.5007 37.7983 45.5769 36.5023 45.6053C35.9253 45.6179 35.899 44.949 36.3732 44.6201C36.6046 44.4597 36.7445 44.1975 36.749 43.916L36.9813 29.3337C37.0202 26.8911 35.7154 24.6243 33.5838 23.431L30.9676 21.9664C30.4847 21.696 30.1855 21.1858 30.1855 20.6323C30.1855 19.788 30.87 19.1035 31.7144 19.1035H34.1013Z" fill="#DE6D72"/>
<g opacity="0.5">
<path d="M36.4425 28.0916L36.3509 42.3191C36.3483 42.7243 36.8803 42.8765 37.0924 42.5312C37.1292 42.4713 37.1497 42.3999 37.1516 42.3296C37.5093 29.328 37.9434 27.3114 37.4732 26.1763C37.3694 25.9257 37.0687 25.843 36.8184 25.9475C36.4466 26.1027 36.3157 26.6316 36.3854 27.0284C36.4425 27.3541 36.4425 27.7229 36.4425 28.0916Z" fill="#D685AA"/>
</g>
<path d="M38.1605 27.48L37.4544 44.2533C37.4544 45.0616 36.6475 45.7689 35.8406 45.5668C35.1598 45.3963 35.3875 44.5056 36.0423 44.2533C36.2441 44.1522 36.3449 44.0512 36.3449 43.8491L36.8493 27.48C36.8493 26.6716 36.4458 25.7622 35.7397 25.358C35.2354 25.0549 34.6302 24.7518 34.1259 24.4486C33.0163 23.8424 31.806 23.3372 30.6964 22.8319C30.6531 22.8103 30.6145 22.7932 30.5795 22.7789C30.3865 22.6996 30.293 22.5127 30.293 22.3041C30.293 21.6918 30.9857 21.2693 31.5244 21.5604C31.6183 21.6111 31.7121 21.6641 31.806 21.7205C33.3942 22.516 34.787 23.3115 36.4652 24.2996C36.5191 24.3314 36.5776 24.3799 36.6233 24.4227C36.754 24.5453 36.9255 24.6129 37.0518 24.7401C37.7547 25.4474 38.2527 26.4637 38.1605 27.48Z" fill="#B15C60"/>
<path d="M28.5758 19.5974C28.5758 19.8743 28.4345 20.1373 28.3328 20.3948C27.8356 21.6534 27.1187 22.2891 25.6507 21.9214C24.6421 21.6183 20.6074 22.5277 20.3048 22.4266C19.397 22.0224 19.0944 21.012 19.1953 19.9005C19.1953 18.4859 19.8005 16.8692 20.3048 15.8588C20.7368 14.9932 21.3909 14.2759 22.1402 13.961C22.3875 13.8571 22.6592 13.8379 22.9273 13.8379C24.3395 13.8379 26.7602 16.1619 27.5672 17.1723C27.5821 17.1911 28.2628 18.1501 28.2738 18.1713C28.4242 18.4602 28.5246 18.7365 28.5752 18.988C28.5756 18.9901 28.5758 18.9922 28.5758 18.9944V19.5974Z" fill="#DE6D72"/>
<path d="M28.5788 19.5974C28.5788 19.6742 28.3512 19.6851 28.3179 19.6158C28.0534 19.0645 27.6312 18.4461 27.4692 18.2838C26.5615 17.1723 24.2415 14.9494 22.8294 14.9494C22.0466 14.9494 21.3702 15.3906 20.8177 16.0487C20.5673 16.3468 20.1339 16.2071 20.3078 15.8588C20.65 15.0873 21.4279 14.3158 22.1486 13.9762C22.391 13.8619 22.6623 13.8379 22.9303 13.8379C24.3424 13.8379 26.7632 16.1619 27.5701 17.1723C27.578 17.1822 28.2559 18.1714 28.2618 18.1825C28.4338 18.5063 28.5218 18.7635 28.5783 18.9891C28.5786 18.9905 28.5788 18.9918 28.5788 18.9932V19.5974Z" fill="#DE6D72"/>
<g opacity="0.5">
<path d="M29.0051 22.0433C29.3183 22.357 29.2077 22.9315 28.7931 23.0885C28.787 23.0908 28.7809 23.0931 28.7748 23.0954C28.711 23.1192 28.6424 23.1269 28.5745 23.1213C27.7686 23.0546 27.44 23.0329 27.2095 22.9528C27.1308 22.9254 27.1437 22.7398 27.161 22.6583C27.1656 22.6365 27.1738 22.6157 27.189 22.5994C27.2499 22.5344 27.2953 22.4695 27.3276 22.4045C27.5264 22.0034 27.702 21.4121 28.1496 21.4121C28.2939 21.4121 28.4323 21.4695 28.5343 21.5716L28.5767 21.6142L29.0051 22.0433Z" fill="#A3565A"/>
</g>
<path d="M19.1982 20.818C19.1982 21.4243 19.1982 23.3441 21.4173 23.6473C22.2242 23.7483 23.8381 23.7483 24.7459 23.7483C26.0571 23.6473 27.9736 23.4452 27.9736 22.1316C27.9736 21.9295 27.8727 21.6264 27.7718 21.4243C27.3531 20.5854 26.3671 20.0919 25.5522 19.6283C24.0782 18.7898 22.3761 18.168 21.5182 18.0898C20.106 18.0898 19.1982 19.4034 19.1982 20.818Z" fill="#C66C71"/>
<path d="M23.7341 23.3345C32.4086 23.3345 23.835 18.5854 21.5151 18.4844C20.4056 18.4844 19.5986 19.4948 19.5986 20.8084C19.5986 23.4355 21.1116 23.3345 23.7341 23.3345Z" fill="#B15C60"/>
<path d="M19.5986 20.8084C19.5986 21.4033 20.2596 21.3376 20.6624 20.8998C20.9976 20.5355 21.4349 20.3032 21.9185 20.3032C22.9272 20.3032 25.5497 21.3136 27.1636 22.7282C28.7774 24.1428 27.1636 22.7282 27.2644 22.6272C28.4296 21.4599 24.4177 19.1756 22.1648 18.6103C21.6715 18.4865 21.1341 18.4637 20.6909 18.7133C20.046 19.0764 19.5986 19.8303 19.5986 20.8084Z" fill="#A3565A"/>
<path d="M31.8035 19.591C32.2069 21.2077 33.0138 22.4202 34.7286 21.8139C35.7372 21.5108 39.7719 22.4202 40.0745 22.3192C40.7805 22.016 41.0831 21.3087 41.184 20.5004C41.3857 18.2774 39.7719 13.2252 36.8467 13.9325C35.8381 14.2357 33.9216 15.7513 32.7112 17.267C32.6959 17.2862 31.8226 18.7906 31.816 18.8143C31.7378 19.0954 31.726 19.3581 31.8035 19.591Z" fill="#DE6D72"/>
<path d="M37.9511 13.8727C38.681 14.0825 37.6897 14.7911 36.9476 14.9527C36.058 15.2497 34.6104 16.3503 33.4866 17.5354C32.9111 18.1422 32.0943 17.9347 32.6104 17.2767L32.7113 17.1756C33.8999 15.6872 35.7696 14.2962 36.7916 13.8639C36.8287 13.8482 36.8676 13.8365 36.9072 13.829C37.2783 13.7587 37.6264 13.7793 37.9511 13.8727Z" fill="#DE6D72"/>
<g opacity="0.5">
<path d="M39.8493 21.7404C40.8722 22.3101 41.2292 23.6404 40.1559 24.1085C39.2356 24.51 38.0602 24.5464 36.8484 24.5464C36.3441 24.5464 35.9406 24.5464 35.4363 24.5464C34.8197 24.5464 34.4976 24.4874 34.2449 24.4145C34.0968 24.3718 33.9563 24.3068 33.8201 24.2345C33.2167 23.9146 32.5876 23.6222 31.9643 23.3416C31.2875 23.0368 31.1046 22.1658 31.6034 21.6162C31.7325 21.4868 31.9078 21.4141 32.0907 21.4141H38.6397C39.0522 21.4141 39.4889 21.5397 39.8493 21.7404Z" fill="#A3565A"/>
</g>
<path d="M32.4111 22.2234C32.4111 23.537 34.3276 23.7391 35.6388 23.8401C38.9674 23.9411 41.1865 24.0422 41.1865 20.9098C41.1865 19.4952 40.2787 18.1816 38.8665 18.1816C37.1518 18.1816 32.4111 20.4046 32.4111 22.2234Z" fill="#C66C71"/>
<path d="M36.6461 23.3345C27.9716 23.3345 36.6461 18.5854 38.8651 18.4844C39.9747 18.4844 40.7816 19.4948 40.7816 20.8084C40.7816 23.4355 39.1677 23.3345 36.6461 23.3345Z" fill="#B15C60"/>
<path d="M40.7821 20.8084C40.7821 21.3355 40.1031 21.2827 39.7469 20.8941C39.4081 20.5244 38.9597 20.3032 38.4622 20.3032C37.4535 20.3032 34.831 21.3136 33.2172 22.7282C31.6033 24.1428 33.2172 22.7282 33.1163 22.6272C31.9511 21.4599 35.963 19.1756 38.2159 18.6103C38.7093 18.4865 39.2466 18.4637 39.6899 18.7133C40.3347 19.0764 40.7821 19.8303 40.7821 20.8084Z" fill="#A3565A"/>
<g opacity="0.1">
<path d="M33.5315 19.8022C33.6542 20.5012 33.3086 21.1477 33.0041 21.7887C32.9881 21.8225 32.9734 21.8562 32.9604 21.8895C32.9237 21.983 32.9107 22.0841 32.917 22.1844C32.9252 22.3163 32.9548 22.4482 33.062 22.5801C33.0942 22.6199 33.1053 22.6441 33.1281 22.6899C33.151 22.7359 33.2369 22.761 33.2731 22.7973C33.274 22.7982 33.2748 22.799 33.2757 22.7999C33.3544 22.8787 33.3543 23.0104 33.2518 23.0542C33.0659 23.1338 32.7629 23.1597 32.1338 23.2106C31.8542 23.2332 31.5758 23.1645 31.3263 23.0363C31.0398 22.8891 30.7532 22.7665 30.4667 22.6497C30.2913 22.5783 30.0653 22.5803 29.8953 22.6638C29.803 22.7092 29.7359 22.7568 29.64 22.7939C29.4226 22.8782 29.1746 22.993 28.9546 23.0798C28.8393 23.1253 28.5473 23.1256 28.4238 23.1154C27.7254 23.0579 27.663 22.0706 27.236 21.515C27.2137 21.486 27.1899 21.4566 27.1645 21.427C26.8534 21.1153 26.6933 20.6464 26.7665 20.2123C26.8533 19.6979 26.9751 19.0129 27.0611 18.5199C27.1337 18.1031 27.1429 17.6044 27.4754 17.3428C27.5038 17.3205 27.5345 17.3009 27.5679 17.2842C27.7048 17.2156 27.7275 17.4621 27.8157 17.5872C28.3371 18.3269 28.6607 19.0524 28.4757 19.6082C28.2964 20.2369 28.1171 20.8656 27.7253 21.2814C27.6394 21.3725 27.6141 21.5142 27.6649 21.6286C27.7451 21.8092 27.9727 21.9196 28.1463 21.8252C28.282 21.7514 28.4293 21.6782 28.5766 21.629C28.9758 21.4957 29.3312 21.3184 29.6716 21.1552C29.9979 20.9987 30.3762 21.0137 30.6969 21.1814C31.1703 21.4289 31.6221 21.6764 32.0985 21.9239C32.287 22.0218 32.5402 21.8925 32.6288 21.6995C32.6752 21.5984 32.667 21.4729 32.6012 21.3832C32.2528 20.9082 31.9871 20.3502 31.8043 19.7092C31.6127 19.1334 31.967 18.3753 32.608 17.6081C32.6742 17.5289 32.7097 17.3852 32.813 17.3852C33.271 17.3852 33.2424 18.1219 33.3184 18.5736C33.3795 18.9369 33.4592 19.3905 33.5315 19.8022Z" fill="#111D33"/>
</g>
<path d="M26.9641 21.8262C26.8633 22.2304 27.1659 22.5335 27.4685 22.5335C29.7884 22.8367 30.3936 22.8367 32.8143 22.5335C33.2178 22.5335 33.4195 22.1293 33.3187 21.8262L32.8933 19.7808C32.8408 19.5284 32.8623 19.2302 32.6425 19.0955C32.3989 18.9462 32.0694 19.033 31.7879 19.0817C30.5456 19.2968 29.0468 19.2686 27.8719 18.997C27.3518 18.8233 27.2325 19.6752 27.1646 20.2194L26.9641 21.8262Z" fill="#DE6D72"/>
<path d="M27.2669 20.2092C27.2423 20.2831 27.2417 20.3629 27.2591 20.4414C27.3672 20.9269 28.0181 20.9573 28.5115 21.0206C29.7929 21.185 30.5911 21.185 31.8725 21.0206C32.3658 20.9573 33.0476 20.9514 33.1291 20.4607C33.142 20.3833 33.1394 20.2987 33.1171 20.2092L32.7711 18.3029C32.7328 18.0922 32.7287 17.8506 32.5515 17.7304C32.3565 17.5981 32.0956 17.7178 31.8644 17.764C30.8753 17.9617 29.5653 17.9593 28.5842 17.7566C28.3774 17.7139 28.1504 17.6063 27.9664 17.7099C27.7587 17.8268 27.7446 18.1036 27.6918 18.3361L27.2669 20.2092Z" fill="#DE6D72"/>
</g>
</g>
<defs>
<filter id="filter0_d_2112_11944" x="10.539" y="12.9763" width="38.7853" height="38.9494" filterUnits="userSpaceOnUse" color-interpolation-filters="sRGB">
<feFlood flood-opacity="0" result="BackgroundImageFix"/>
<feColorMatrix in="SourceAlpha" type="matrix" values="0 0 0 0 0 0 0 0 0 0 0 0 0 0 0 0 0 0 127 0" result="hardAlpha"/>
<feOffset dy="2.43243"/>
<feGaussianBlur stdDeviation="1.62162"/>
<feComposite in2="hardAlpha" operator="out"/>
<feColorMatrix type="matrix" values="0 0 0 0 0 0 0 0 0 0 0 0 0 0 0 0 0 0 0.25 0"/>
<feBlend mode="normal" in2="BackgroundImageFix" result="effect1_dropShadow_2112_11944"/>
<feBlend mode="normal" in="SourceGraphic" in2="effect1_dropShadow_2112_11944" result="shape"/>
</filter>
<filter id="filter1_d_2112_11944" x="14.1249" y="12.9763" width="32.1232" height="38.3048" filterUnits="userSpaceOnUse" color-interpolation-filters="sRGB">
<feFlood flood-opacity="0" result="BackgroundImageFix"/>
<feColorMatrix in="SourceAlpha" type="matrix" values="0 0 0 0 0 0 0 0 0 0 0 0 0 0 0 0 0 0 127 0" result="hardAlpha"/>
<feOffset dy="2.43243"/>
<feGaussianBlur stdDeviation="1.62162"/>
<feComposite in2="hardAlpha" operator="out"/>
<feColorMatrix type="matrix" values="0 0 0 0 0 0 0 0 0 0 0 0 0 0 0 0 0 0 0.25 0"/>
<feBlend mode="normal" in2="BackgroundImageFix" result="effect1_dropShadow_2112_11944"/>
<feBlend mode="normal" in="SourceGraphic" in2="effect1_dropShadow_2112_11944" result="shape"/>
</filter>
</defs>
</svg>
