<svg width="60" height="60" viewBox="0 0 60 60" fill="none" xmlns="http://www.w3.org/2000/svg">
<mask id="mask0_2112_11809" style="mask-type:alpha" maskUnits="userSpaceOnUse" x="0" y="0" width="60" height="60">
<rect width="60" height="60" rx="10" fill="white" fill-opacity="0.03"/>
</mask>
<g mask="url(#mask0_2112_11809)">
<path fill-rule="evenodd" clip-rule="evenodd" d="M8.33585 17.9803C15.7238 39.9242 22.8219 61.0072 55.4313 59.8745C81.2237 58.9786 98.8849 61.7094 110.188 66.7348C113.362 68.1462 115.135 71.436 115.135 74.91V87.7568C115.135 96.7128 107.875 103.973 98.9189 103.973H-46.525C-55.481 103.973 -62.7412 96.7128 -62.7412 87.7568V-4.92247C-62.7412 -13.8784 -55.481 -21.1387 -46.525 -21.1387H-18.1415C-16.1362 -21.1387 -14.154 -20.5636 -12.5881 -19.3109C-1.13393 -10.147 3.65903 4.08915 8.33585 17.9803Z" fill="white" fill-opacity="0.06"/>
<path fill-rule="evenodd" clip-rule="evenodd" d="M-47.7444 -20.9979C-48.2337 -21.0153 -48.7381 -20.997 -49.221 -20.9162C-56.8938 -19.6323 -62.7412 -12.9605 -62.7412 -4.92309V87.7562C-62.7412 96.7122 -55.481 103.972 -46.525 103.972H98.9189C105.918 103.972 111.882 99.538 114.154 93.3253C114.423 92.5871 114.546 91.8008 114.537 91.0149C114.356 74.8601 96.3501 62.3362 46.374 64.0722C15.2359 65.1538 8.45806 45.0221 1.40345 24.0683C-5.83113 2.57998 -13.3568 -19.7728 -47.7444 -20.9979Z" fill="white" fill-opacity="0.06"/>
</g>
<g filter="url(#filter0_d_2112_11809)">
<path d="M44.3253 27.5664L44.1251 30.3693L43.6246 38.778C43.5245 40.1794 42.6236 41.4808 41.3222 41.9813C31.0116 45.9854 31.3119 45.9854 30.9115 46.0855C30.411 46.1856 29.8104 46.1856 29.2097 46.0855C28.7092 45.9854 29.1096 46.0855 18.799 41.9813C17.4977 41.4808 16.5967 40.1794 16.4966 38.778L15.9961 30.3693L15.7959 27.5664L30.0106 32.0711L44.3253 27.5664Z" fill="#5993B4"/>
<path d="M30.8111 33.873V45.9855C30.3106 46.0856 29.71 46.0856 29.1094 45.9855V33.873C29.71 34.1734 30.3106 34.1734 30.8111 33.873Z" fill="#729FB8"/>
<path d="M15.6943 27.5664L15.8945 30.3693L29.2083 36.0752C29.7088 36.2754 30.3094 36.2754 30.91 36.0752L44.2238 30.3693L44.424 27.5664L30.0091 32.0711L15.6943 27.5664Z" fill="#4C86A8"/>
<g opacity="0.5">
<path d="M29.208 33.873V35.9752C29.7085 36.1754 30.3091 36.1754 30.9098 35.9752V33.873C30.3091 34.1734 29.7085 34.1734 29.208 33.873Z" fill="#3A6883"/>
</g>
<path d="M45.0252 28.0648L30.9106 34.071C30.7104 34.1711 30.4101 34.2712 30.1098 34.2712C29.8095 34.2712 29.6093 34.1711 29.3089 34.071L14.9942 28.0648C13.9931 27.6644 13.7929 24.7614 14.1933 22.8595C14.2935 22.4591 14.3936 22.1587 14.4937 21.8584C14.6939 21.5581 14.794 21.3579 14.9942 21.2578H45.0252C45.2254 21.3579 45.3255 21.458 45.4256 21.6582C45.6258 21.9585 45.7259 22.3589 45.826 22.7594C46.2264 24.7614 45.9261 27.6644 45.0252 28.0648Z" fill="#5993B4"/>
<path d="M45.8255 22.8596C45.6253 22.2589 44.7244 22.5593 44.7244 22.5593L31.5107 28.165C31.1103 28.3652 30.81 28.7657 30.81 29.2662V34.0711C30.6098 34.1712 30.3095 34.2713 30.0092 34.2713C29.7089 34.2713 29.5087 34.1712 29.2084 34.0711V29.1661C29.2084 28.6656 28.9081 28.2651 28.5076 28.0649L15.1939 22.4592C14.8936 22.359 14.293 22.2589 14.0928 22.7595C14.1929 22.359 14.293 22.0587 14.3931 21.7584C14.5933 21.5582 14.7935 21.358 14.9937 21.2579L29.1083 15.2517C29.6088 15.0515 30.2094 15.0515 30.81 15.2517L44.9246 21.2579C45.1248 21.358 45.2249 21.4581 45.325 21.6583C45.6253 21.9586 45.7254 22.359 45.8255 22.8596Z" fill="#729FB8"/>
<path d="M30.4107 27.5669L43.6243 22.0612C43.8245 21.9611 43.8245 21.6608 43.6243 21.5607L30.4107 16.1552C30.1104 16.0551 29.8101 16.0551 29.5098 16.1552L16.3962 21.5607C16.196 21.6608 16.196 21.9611 16.3962 22.0612L29.5098 27.4668C29.8101 27.667 30.2105 27.667 30.4107 27.5669Z" fill="#5993B4"/>
<path d="M37.0157 25.7652L35.8145 26.2657C35.6143 26.0655 35.4141 25.9654 34.8135 25.6651L36.2149 25.0645C36.5152 25.3648 36.8155 25.565 37.0157 25.7652Z" fill="#729FB8"/>
<path d="M24.2022 26.3658L23.001 25.7652C23.2012 25.4649 23.5015 25.2647 23.8018 25.0645L25.2032 25.6651C24.7027 25.9654 24.4024 26.1656 24.2022 26.3658Z" fill="#729FB8"/>
<path d="M30.0091 21.7617C31.4106 22.4624 34.4137 24.0641 36.2155 25.1652L34.8141 25.7658C33.4126 24.965 31.5107 24.0641 30.0091 23.4635C28.2073 24.2643 26.6056 24.965 25.2042 25.7658L23.8027 25.1652C25.4044 24.1642 28.3074 22.5625 30.0091 21.7617Z" fill="#4C86A8"/>
<g filter="url(#filter1_d_2112_11809)">
<path d="M25.4598 19.2598C23.2613 20.4611 21.1627 21.5623 19.264 22.6635C18.1647 23.3643 17.4652 24.5656 17.5651 25.867L18.7643 41.5842C18.8643 42.3851 19.264 43.1859 19.8636 43.5864C21.3626 44.6876 23.8609 46.1892 25.0601 45.1881L23.761 44.2871L23.4612 25.4666L30.2566 21.6624V19.2598H25.4598Z" fill="#457591"/>
<g opacity="0.5">
<path d="M24.0597 28.1702L24.1596 43.5871L23.4601 42.3857C22.8605 27.7698 22.4607 26.9689 23.2602 25.7676L24.4594 26.2681C24.0597 26.7687 24.0597 27.4694 24.0597 28.1702Z" fill="#70A9C9"/>
</g>
<path d="M22.362 27.5677L23.0616 44.1858C23.0616 44.9867 23.861 45.6875 24.6605 45.4873C25.0602 45.3871 25.46 45.0868 25.7598 44.6864L24.4606 44.0857C24.2608 43.9856 24.1608 43.7854 24.1608 43.5852L23.6612 27.3674C23.6612 26.5666 24.0609 25.6656 24.7604 25.2651C26.4593 24.264 28.1582 23.4632 30.1568 22.5622V21.0605C28.2581 21.9615 25.7598 23.3631 23.961 24.4643C22.9616 25.0649 22.2621 26.2662 22.362 27.5677Z" fill="#558CAB"/>
<path d="M35.0536 19.2598C37.2522 20.361 39.3507 21.5623 41.2495 22.6635C42.3487 23.3643 43.0483 24.5656 42.9483 25.867L41.7491 41.5842C41.6492 42.3851 41.2495 43.1859 40.6499 43.5864C39.1509 44.6876 36.6526 46.1892 35.4534 45.1881L36.7525 44.2871L37.0523 25.4666L30.2568 21.6624V19.2598H35.0536Z" fill="#457591"/>
<g opacity="0.5">
<path d="M36.4525 28.1678L36.3525 43.6847L37.152 42.3833C37.5517 27.7673 38.0514 27.0665 37.2519 25.8652L36.0527 26.3658C36.4525 26.7662 36.4525 27.467 36.4525 28.1678Z" fill="#70A9C9"/>
</g>
<path d="M38.1502 27.5677L37.4507 44.1858C37.4507 44.9867 36.6513 45.6875 35.8518 45.4873C35.4521 45.3871 35.0523 45.0868 34.7525 44.6864L36.0517 44.1858C36.2515 44.0857 36.3515 43.9856 36.3515 43.7854L36.8511 27.5677C36.8511 26.7668 36.4514 25.8658 35.7519 25.4654C35.2522 25.165 34.6526 24.8647 34.1529 24.5644C33.0537 23.9637 31.8545 23.4632 30.7552 22.9626C30.5553 22.8625 30.4554 22.8625 30.3555 22.7624V21.0605C30.8551 21.3609 31.3548 21.5611 31.8545 21.8614C33.4534 22.6623 34.8525 23.4632 36.5513 24.4643C36.6513 24.5644 36.7512 24.6645 36.8511 24.6645C37.6506 25.3653 38.2502 26.4665 38.1502 27.5677Z" fill="#558CAB"/>
<path d="M28.6559 19.7609C28.6559 19.861 28.556 20.0613 28.556 20.1614C28.0563 21.663 27.3568 22.4639 25.7578 22.0634C24.7585 21.7631 20.7612 22.6641 20.4614 22.564C19.562 22.1636 19.2622 21.1625 19.3621 20.0613C19.3621 18.6597 19.9617 17.058 20.4614 16.0569C20.961 15.0558 21.7605 14.2549 22.6599 14.0547H23.0596C24.4587 14.0547 26.8571 16.3572 27.6566 17.3583C28.456 18.3594 27.7565 17.4584 27.7565 17.4584C28.2562 18.0591 28.556 18.6597 28.6559 19.1603V19.7609Z" fill="#457591"/>
<path d="M28.6561 19.7609C28.6561 19.861 28.5561 20.0613 28.5561 20.1614C28.3563 19.5607 27.7567 18.6597 27.5568 18.4595C26.6574 17.3583 24.359 15.1559 22.9599 15.1559C20.9612 15.1559 19.6621 18.0591 19.3623 20.0613C19.3623 18.6597 19.9619 17.058 20.4616 16.0569C20.8613 15.1559 21.8606 14.2549 22.6601 14.0547H23.0598C24.4589 14.0547 26.8573 16.3572 27.6567 17.3583C28.4562 18.3594 27.7567 17.4584 27.7567 17.4584C28.3563 18.2593 28.5561 18.7598 28.6561 19.1603V19.7609Z" fill="#457591"/>
<g opacity="0.5">
<path d="M29.7558 22.862C29.456 22.9621 29.0563 23.1623 28.7565 23.2624C27.5573 23.1623 27.3574 23.1623 27.0576 22.9621C27.1576 22.9621 27.2575 22.862 27.2575 22.7619C27.6572 22.3614 27.4573 21.961 27.1575 21.5605H28.4567L28.6565 21.7608L29.7558 22.862Z" fill="#4D758C"/>
</g>
<path d="M19.3623 20.9627C19.3623 21.5634 19.3623 23.4655 21.5608 23.7658C22.3603 23.8659 23.9592 23.8659 24.8586 23.8659C26.1578 23.7658 28.0565 23.5656 28.0565 22.2641C28.0565 22.0639 27.9566 21.7636 27.8566 21.5634C27.6568 21.1629 26.9572 20.5623 26.8573 20.5623C25.2584 19.361 22.76 18.3599 21.6608 18.2598C20.2617 18.2598 19.3623 19.5612 19.3623 20.9627Z" fill="#56829B"/>
<path d="M23.8609 23.4654C32.4552 23.4654 23.9609 18.7603 21.6624 18.6602C20.5631 18.6602 19.7637 19.6613 19.7637 20.9627C19.7637 23.5655 21.2627 23.4654 23.8609 23.4654Z" fill="#5184A3"/>
<path d="M27.3574 22.8628C27.4574 22.7628 27.4574 22.8628 27.3574 22.8628V22.8628Z" fill="#558CAB"/>
<path d="M19.7637 20.9627C19.7637 21.4632 19.8636 22.164 20.1634 22.5644C20.2633 21.4632 21.0628 20.4621 22.0621 20.4621C23.0615 20.4621 25.6597 21.4632 27.2587 22.8648C28.8576 24.2663 27.2587 22.8648 27.3586 22.7646C28.6577 21.4632 23.4612 18.7603 21.5625 18.6602C20.5631 18.7603 19.7637 19.6613 19.7637 20.9627Z" fill="#4D758C"/>
<path d="M31.8547 19.7607C32.2545 21.3624 33.0539 22.5637 34.7528 21.9631C35.7521 21.6628 39.7494 22.5637 40.0492 22.4636C40.7488 22.1633 41.0486 21.4625 41.1485 20.6617C41.3484 18.4593 39.7494 13.4538 36.8514 14.1546C35.852 14.4549 33.9533 15.9565 32.7541 17.4582C31.5549 18.9598 32.6542 17.5583 32.6542 17.5583C32.0546 18.3592 31.6549 19.16 31.8547 19.7607Z" fill="#457591"/>
<path d="M41.1495 20.0602C40.7497 17.7576 39.2507 14.6542 36.9523 15.1548C35.4533 15.6553 32.3553 18.4584 31.9556 20.0602C31.7558 19.4595 31.5559 18.8588 32.6551 17.4573L32.7551 17.3572C33.9543 15.8556 35.853 14.454 36.8523 14.0536C39.6505 13.4529 41.1495 18.058 41.1495 20.0602Z" fill="#457591"/>
<g opacity="0.5">
<path d="M41.548 22.862C40.7485 24.5638 38.8498 24.6639 36.8511 24.6639C36.3515 24.6639 35.9517 24.6639 35.4521 24.6639C34.6526 24.6639 34.3528 24.5638 34.053 24.4637C32.9537 23.8631 31.7545 23.3625 30.6553 22.862L31.6546 21.7608L31.8545 21.5605H39.2495C39.949 21.961 41.2482 22.6618 41.548 22.862Z" fill="#4D758C"/>
</g>
<path d="M32.4531 22.3618C32.4531 23.6632 34.3519 23.8634 35.651 23.9636C38.9488 24.0637 41.1473 24.1638 41.1473 21.0604C41.1473 19.6588 40.2479 18.3574 38.8488 18.3574C37.15 18.3574 32.4531 20.5598 32.4531 22.3618Z" fill="#56829B"/>
<path d="M36.6512 23.4654C28.0569 23.4654 36.6512 18.7603 38.8497 18.6602C39.949 18.6602 40.7484 19.6613 40.7484 20.9627C40.7484 23.5655 39.1495 23.4654 36.6512 23.4654Z" fill="#5184A3"/>
<path d="M40.7475 20.9627C40.7475 21.4632 40.6475 22.0639 40.3477 22.5644C40.2478 21.3631 39.4483 20.4621 38.449 20.4621C37.4497 20.4621 34.8514 21.4632 33.2525 22.8648C31.6536 24.2663 33.2525 22.8648 33.1525 22.7646C31.8534 21.4632 37.0499 18.7603 38.9487 18.6602C39.948 18.7603 40.7475 19.6613 40.7475 20.9627Z" fill="#4D758C"/>
<g opacity="0.1">
<path d="M33.7531 21.0597C33.4533 21.2599 33.0536 21.7605 32.9537 22.1609C32.9537 22.3611 32.9537 22.5613 33.1535 22.7616C33.1535 22.7616 33.1535 22.8617 33.2535 22.8617C33.3534 22.9618 33.3534 22.9618 33.4533 23.0619C33.2535 23.2621 32.9537 23.2621 31.7545 23.3622C31.2548 23.0619 30.7551 22.8617 30.2555 22.6615C30.0556 22.7616 29.9557 22.7616 29.8557 22.8617C29.5559 22.9618 29.1562 23.162 28.8564 23.2621C27.6572 23.162 27.4573 23.162 27.1575 22.9618C27.5573 22.7616 27.8571 22.261 27.2575 21.5603C27.0576 21.36 26.9577 21.1598 26.7578 21.0597C26.7578 20.8595 27.2575 18.1565 27.2575 18.0564C27.3574 17.7561 27.4573 17.5559 27.6572 17.4558C27.8571 17.3557 27.7571 17.5559 27.7571 17.5559C28.3567 18.3568 28.7565 19.1576 28.5566 19.7583C28.3567 20.459 28.1569 21.1598 27.6572 21.5603C27.7571 21.7605 27.8571 21.9607 27.8571 22.1609C28.0569 22.0608 28.3567 21.8606 28.6565 21.7605C29.2561 21.5603 29.7558 21.2599 30.2555 21.0597C31.0549 21.4601 31.7545 21.8606 32.5539 22.261C32.5539 22.0608 32.6539 21.8606 32.7538 21.6604C32.3541 21.1598 32.0543 20.5592 31.8544 19.8584C31.6545 19.2577 32.0543 18.4569 32.7538 17.656C32.7538 17.656 32.7538 17.5559 32.8537 17.5559C33.0536 17.5559 33.1535 17.7561 33.2535 18.0564C33.2535 18.2566 33.7531 20.9596 33.7531 21.0597Z" fill="#111D33"/>
</g>
<path d="M27.0577 21.9619C26.9578 22.3624 27.2576 22.6627 27.5574 22.6627C29.8558 22.963 30.4554 22.963 32.8538 22.6627C33.2535 22.6627 33.4534 22.2622 33.3535 21.9619L32.8538 19.5593C32.8538 19.259 32.554 19.1589 32.2542 19.1589C30.9551 19.4592 29.2562 19.4592 27.9571 19.1589C27.6573 19.0587 27.4574 19.259 27.3575 19.5593L27.0577 21.9619Z" fill="#457591"/>
<path d="M27.3575 20.3594C27.2576 20.6598 27.5574 21.0602 27.8572 21.0602C29.8558 21.3605 30.6553 21.3605 32.6539 21.0602C32.9537 21.0602 33.2535 20.7599 33.1536 20.3594L32.7539 18.157C32.7539 17.9568 32.4541 17.7566 32.2542 17.8567C31.1549 18.157 29.4561 18.157 28.3568 17.8567C28.157 17.7566 27.8572 17.9568 27.8572 18.157L27.3575 20.3594Z" fill="#457591"/>
</g>
</g>
<defs>
<filter id="filter0_d_2112_11809" x="12.089" y="13.5223" width="35.822" height="35.9821" filterUnits="userSpaceOnUse" color-interpolation-filters="sRGB">
<feFlood flood-opacity="0" result="BackgroundImageFix"/>
<feColorMatrix in="SourceAlpha" type="matrix" values="0 0 0 0 0 0 0 0 0 0 0 0 0 0 0 0 0 0 127 0" result="hardAlpha"/>
<feOffset dy="1.43323"/>
<feGaussianBlur stdDeviation="0.955488"/>
<feComposite in2="hardAlpha" operator="out"/>
<feColorMatrix type="matrix" values="0 0 0 0 0 0 0 0 0 0 0 0 0 0 0 0 0 0 0.25 0"/>
<feBlend mode="normal" in2="BackgroundImageFix" result="effect1_dropShadow_2112_11809"/>
<feBlend mode="normal" in="SourceGraphic" in2="effect1_dropShadow_2112_11809" result="shape"/>
</filter>
<filter id="filter1_d_2112_11809" x="15.6447" y="13.5223" width="29.2243" height="35.3434" filterUnits="userSpaceOnUse" color-interpolation-filters="sRGB">
<feFlood flood-opacity="0" result="BackgroundImageFix"/>
<feColorMatrix in="SourceAlpha" type="matrix" values="0 0 0 0 0 0 0 0 0 0 0 0 0 0 0 0 0 0 127 0" result="hardAlpha"/>
<feOffset dy="1.43323"/>
<feGaussianBlur stdDeviation="0.955488"/>
<feComposite in2="hardAlpha" operator="out"/>
<feColorMatrix type="matrix" values="0 0 0 0 0 0 0 0 0 0 0 0 0 0 0 0 0 0 0.25 0"/>
<feBlend mode="normal" in2="BackgroundImageFix" result="effect1_dropShadow_2112_11809"/>
<feBlend mode="normal" in="SourceGraphic" in2="effect1_dropShadow_2112_11809" result="shape"/>
</filter>
</defs>
</svg>
