<svg width="22" height="22" viewBox="0 0 22 22" fill="none" xmlns="http://www.w3.org/2000/svg">
<path d="M13.4933 8.05815L9.56083 11.9998L8.04833 10.4873C7.96615 10.3914 7.86503 10.3134 7.7513 10.2584C7.63758 10.2034 7.51371 10.1725 7.38746 10.1676C7.26122 10.1627 7.13533 10.184 7.0177 10.2301C6.90007 10.2762 6.79324 10.3461 6.7039 10.4354C6.61457 10.5247 6.54467 10.6316 6.49858 10.7492C6.4525 10.8668 6.43122 10.9927 6.4361 11.1189C6.44098 11.2452 6.47189 11.3691 6.52692 11.4828C6.58194 11.5965 6.65987 11.6976 6.75583 11.7798L8.91 13.9431C8.99565 14.0281 9.09723 14.0953 9.20892 14.1409C9.3206 14.1866 9.44019 14.2097 9.56083 14.209C9.80131 14.208 10.0318 14.1125 10.2025 13.9431L14.7858 9.35982C14.8717 9.2746 14.9399 9.17322 14.9865 9.06151C15.033 8.94981 15.057 8.82999 15.057 8.70898C15.057 8.58797 15.033 8.46816 14.9865 8.35645C14.9399 8.24475 14.8717 8.14337 14.7858 8.05815C14.6141 7.88742 14.3818 7.79159 14.1396 7.79159C13.8974 7.79159 13.6651 7.88742 13.4933 8.05815ZM11 1.83398C9.187 1.83398 7.41472 2.3716 5.90727 3.37885C4.39982 4.38609 3.22491 5.81773 2.5311 7.49272C1.8373 9.16771 1.65577 11.0108 2.00947 12.789C2.36317 14.5671 3.23621 16.2005 4.51819 17.4825C5.80017 18.7644 7.43351 19.6375 9.21167 19.9912C10.9898 20.3449 12.8329 20.1633 14.5079 19.4695C16.1829 18.7757 17.6146 17.6008 18.6218 16.0934C19.629 14.5859 20.1667 12.8136 20.1667 11.0006C20.1667 9.79687 19.9296 8.60487 19.4689 7.49272C19.0082 6.38057 18.333 5.37004 17.4818 4.51884C16.6306 3.66763 15.6201 2.99242 14.5079 2.53176C13.3958 2.07109 12.2038 1.83398 11 1.83398ZM11 18.334C9.5496 18.334 8.13178 17.9039 6.92582 17.0981C5.71986 16.2923 4.77992 15.147 4.22488 13.807C3.66984 12.467 3.52462 10.9925 3.80757 9.56999C4.09053 8.14746 4.78896 6.84079 5.81455 5.8152C6.84013 4.78962 8.14681 4.09118 9.56934 3.80823C10.9919 3.52527 12.4664 3.67049 13.8063 4.22553C15.1463 4.78058 16.2916 5.72051 17.0974 6.92647C17.9032 8.13243 18.3333 9.55025 18.3333 11.0006C18.3333 12.9456 17.5607 14.8108 16.1854 16.1861C14.8102 17.5614 12.9449 18.334 11 18.334Z" fill="#008042"/>
</svg>
