<svg width="44" height="44" viewBox="0 0 44 44" fill="none" xmlns="http://www.w3.org/2000/svg">
<g opacity="0.7">
<path d="M20 17C20 17.3 19.9 17.5 19.7 17.7L14.7 22.7C14.3 23.1 13.7 23.1 13.3 22.7C12.9 22.3 12.9 21.7 13.3 21.3L18.3 16.3C18.7 15.9 19.3 15.9 19.7 16.3C19.9 16.5 20 16.7 20 17Z" fill="#1D212C"/>
<path d="M20 27C20 27.3 19.9 27.5 19.7 27.7C19.3 28.1 18.7 28.1 18.3 27.7L13.3 22.7C12.9 22.3 12.9 21.7 13.3 21.3C13.7 20.9 14.3 20.9 14.7 21.3L19.7 26.3C19.9 26.5 20 26.7 20 27Z" fill="#1D212C"/>
<path d="M31 22C31 22.6 30.6 23 30 23L14 23C13.4 23 13 22.6 13 22C13 21.4 13.4 21 14 21L30 21C30.6 21 31 21.4 31 22Z" fill="#1D212C"/>
</g>
</svg>
