<svg width="20" height="20" viewBox="0 0 20 20" fill="none" xmlns="http://www.w3.org/2000/svg">
<path d="M0 3.4375H20V16.5625H0V3.4375Z" fill="#3D9635"/>
<path d="M3.72493 6.28625C3.69556 6.74562 3.65806 7.55812 4.00556 7.64062C4.42493 7.68375 4.19306 6.84 4.34493 6.68687C4.37368 6.61187 4.42681 6.61187 4.43118 6.70625V7.425C4.42519 7.50129 4.44575 7.5773 4.48937 7.64017C4.53299 7.70304 4.597 7.74891 4.67056 7.77C4.78056 7.7625 4.85368 7.76625 4.89681 7.88812C4.91493 8.30062 4.93118 8.7125 4.94806 9.125C4.94806 9.125 5.20493 9.21125 5.21681 8.43C5.18924 8.12082 5.17944 7.81031 5.18743 7.5C5.18743 7.41375 5.28743 7.40562 5.35868 7.45312C5.46868 7.53937 5.51743 7.645 5.68743 7.60187C5.94743 7.51937 6.10181 7.3825 6.10618 7.15437C6.09976 6.93636 6.06036 6.72058 5.98931 6.51437C6.00118 6.475 5.93806 6.3775 5.95118 6.33812C5.99743 6.42062 6.06743 6.4125 6.08306 6.33812C6.05729 6.18627 5.97844 6.0485 5.86056 5.94937C5.76806 5.85875 5.63181 5.87875 5.58243 6.07125C5.57764 6.31757 5.65286 6.55881 5.79681 6.75875C5.84072 6.86836 5.85848 6.9867 5.84868 7.10437C5.81418 7.12579 5.77266 7.13281 5.73304 7.12392C5.69342 7.11504 5.65887 7.09097 5.63681 7.05687C5.63681 7.05687 5.42806 6.88062 5.42806 6.845C5.47815 6.66287 5.47205 6.46985 5.41056 6.29125C5.38761 6.18295 5.34086 6.08112 5.27368 5.99312C5.22243 5.92625 5.15243 5.92625 5.11931 5.99312C5.04551 6.23179 5.05121 6.48798 5.13556 6.72312C5.18181 6.88062 5.25618 6.97875 5.22243 6.97875C5.19306 7.06875 5.13493 7.045 5.09243 6.94312C5.04183 6.72304 5.0177 6.49769 5.02056 6.27187C5.00118 6.095 4.98056 5.71812 4.87743 5.62C4.81493 5.52562 4.72056 5.57312 4.68993 5.66312C4.68242 5.83338 4.68597 6.00395 4.70056 6.17375C4.76161 6.44601 4.80442 6.72204 4.82868 7C4.83743 7.38875 4.62931 7.16875 4.64118 6.9725C4.68501 6.72577 4.68162 6.47296 4.63118 6.2275C4.59681 6.125 4.55681 6.1025 4.47306 6.12125C4.40681 6.11375 4.23806 6.32187 4.19118 6.66687C4.16583 6.77844 4.14663 6.89132 4.13368 7.005C4.10931 7.18125 4.00556 7.30687 3.93306 6.9775C3.87056 6.7375 3.83056 6.14875 3.72493 6.28625Z" fill="white"/>
<path d="M4.86687 8.17062C4.49562 8.37875 4.13624 8.5675 3.77124 8.76375C3.83283 8.56716 3.94556 8.39048 4.09788 8.25177C4.2502 8.11307 4.43664 8.01734 4.63812 7.97437C4.86312 7.9825 4.80562 8.0725 4.86687 8.17062Z" fill="white"/>
<path d="M6.26246 5.57187C6.23853 5.57692 6.21525 5.58467 6.19308 5.595C6.13628 5.61457 6.08926 5.65538 6.06187 5.70886C6.03449 5.76234 6.02888 5.82434 6.04621 5.88187C6.15183 6.60437 6.21871 7.15375 6.32433 7.8725C6.34308 7.95875 6.27808 8.06875 6.19933 8.06C6.06058 7.95437 6.02621 7.73812 5.79058 7.7475C5.69069 7.76715 5.59939 7.81744 5.52939 7.89136C5.45939 7.96529 5.41415 8.05918 5.39996 8.16C5.36803 8.31525 5.36803 8.47537 5.39996 8.63062C5.44199 8.69167 5.50406 8.73609 5.5754 8.75618C5.64675 8.77627 5.72287 8.77077 5.79058 8.74062C5.89371 8.69375 5.97808 8.57625 6.01683 8.60312C6.03933 8.65062 6.01308 9.0275 5.52871 9.31437C5.22933 9.46312 4.99308 9.50187 4.86433 9.2275C4.78683 9.055 4.87058 8.40312 4.67683 8.5525C4.09996 10.225 6.02621 10.4606 6.23933 8.62312C6.25371 8.57187 6.29683 8.52125 6.32683 8.5325C6.34183 8.54062 6.35121 8.56 6.35496 8.59937C6.30996 10.26 4.86558 10.37 4.62058 9.84937C4.56089 9.66793 4.53154 9.47788 4.53371 9.28687C4.5334 9.21931 4.5115 9.15361 4.47121 9.09937C4.41308 9.0525 4.33433 9.18187 4.31683 9.40562C4.29909 9.53838 4.29323 9.67245 4.29933 9.80625C4.37621 11.1256 6.23683 10.56 6.54121 9.4725C6.59984 9.13037 6.61558 8.78227 6.58808 8.43625H6.59433L6.59871 8.4325C6.78621 8.65625 7.04371 8.46 7.09871 8.385C7.10491 8.37391 7.11364 8.36444 7.12419 8.35737C7.13474 8.35029 7.14681 8.34581 7.15942 8.34429C7.17203 8.34276 7.18483 8.34424 7.19676 8.3486C7.20869 8.35296 7.21942 8.36008 7.22808 8.36937C7.26437 8.39846 7.30726 8.41816 7.35297 8.42673C7.39868 8.4353 7.4458 8.43248 7.49016 8.41851C7.53452 8.40455 7.57475 8.37988 7.60731 8.34667C7.63987 8.31346 7.66375 8.27275 7.67683 8.22812C7.70963 8.02116 7.73049 7.81248 7.73933 7.60312C7.66611 7.61936 7.59739 7.65159 7.53808 7.6975C7.53046 7.70637 7.52548 7.71719 7.52371 7.72875C7.51621 7.78375 7.50871 7.84687 7.49996 7.90562C7.49879 7.91091 7.49733 7.91613 7.49558 7.92125C7.49145 7.92833 7.48507 7.93383 7.47746 7.93687C7.46846 7.94229 7.45824 7.94535 7.44775 7.94578C7.43726 7.9462 7.42683 7.94397 7.41742 7.9393C7.40802 7.93463 7.39994 7.92766 7.39394 7.91905C7.38794 7.91043 7.3842 7.90044 7.38308 7.89C7.33933 7.66625 7.15621 7.63062 7.04433 7.98437C6.96746 8.055 6.83308 8.06625 6.81808 7.96812C6.83746 7.72875 6.75121 7.6975 6.58058 7.8075C6.52683 7.33625 6.47058 6.88875 6.41558 6.4175C6.48808 6.4175 6.55121 6.47625 6.61746 6.38625C6.55709 6.10688 6.4549 5.83823 6.31433 5.58937C6.31009 5.58388 6.30549 5.57866 6.30058 5.57375C6.30058 5.57375 6.30058 5.57375 6.29558 5.56937H6.29058C6.28683 5.56562 6.28183 5.56562 6.28058 5.56187C6.27933 5.55812 6.26433 5.5575 6.25621 5.56187M5.73871 8.14125C5.76135 8.13923 5.78398 8.14518 5.8027 8.15808C5.82141 8.17097 5.83503 8.19 5.84121 8.21187C5.84791 8.23289 5.84947 8.25521 5.84577 8.27696C5.84208 8.2987 5.83322 8.31925 5.81996 8.33687C5.80496 8.36437 5.75746 8.3525 5.71996 8.3525C5.70133 8.35435 5.68258 8.35042 5.66626 8.34126C5.64993 8.33209 5.63682 8.31812 5.62871 8.30125C5.61558 8.25812 5.65246 8.215 5.66996 8.18L5.67621 8.16812C5.69419 8.1535 5.71578 8.144 5.73871 8.14062" fill="white"/>
<path d="M7.56248 5.5325C7.51684 5.53619 7.47251 5.54961 7.43248 5.57187C7.38529 5.62106 7.35548 5.68432 7.34758 5.75202C7.33968 5.81972 7.35413 5.88815 7.38873 5.94687C7.46186 5.98187 7.53498 6.06812 7.48561 6.11125C7.27936 6.36125 6.73998 6.775 6.71311 6.85375V6.86125H6.71748C6.85055 6.88441 6.98651 6.88568 7.11998 6.865V6.86125C7.36246 6.62915 7.58492 6.37701 7.78498 6.1075C7.75811 6.08 7.72998 6.06062 7.70186 6.03312C7.69514 6.02812 7.68967 6.02162 7.68591 6.01413C7.68215 6.00664 7.68019 5.99838 7.68019 5.99C7.68019 5.98162 7.68215 5.97336 7.68591 5.96587C7.68967 5.95838 7.69514 5.95188 7.70186 5.94687C7.75365 5.89961 7.78503 5.83404 7.78934 5.76406C7.79366 5.69407 7.77058 5.62515 7.72498 5.57187C7.67447 5.54463 7.6172 5.53249 7.55998 5.53687M7.53436 5.7525C7.56873 5.74875 7.60811 5.78812 7.62811 5.835C7.64811 5.88187 7.63811 5.9375 7.60498 5.94937C7.57186 5.96125 7.52561 5.92187 7.50311 5.87062C7.48061 5.81937 7.49373 5.76437 7.52811 5.75687C7.52811 5.75687 7.53123 5.7525 7.53436 5.7525ZM3.81248 9.35625C3.72024 9.519 3.66263 9.69905 3.64328 9.88512C3.62392 10.0712 3.64322 10.2592 3.69998 10.4375C3.72519 10.4742 3.76113 10.5022 3.80287 10.5176C3.84461 10.533 3.8901 10.5352 3.93311 10.5237C4.06123 10.4612 4.12061 10.1669 4.08748 10.0606C4.04436 9.98187 4.01061 9.97 3.96686 10.0369C3.87686 10.2412 3.83873 10.0994 3.83061 9.98187C3.81992 9.788 3.82809 9.59355 3.85498 9.40125C3.87811 9.24 3.85498 9.28687 3.80998 9.35375M12.5962 8.7675C12.3994 8.28437 12.1231 7.80937 12.0337 7.62875C11.9444 7.44812 11.2837 6.36875 11.1869 6.24312C10.9712 5.95625 11.5362 6.365 11.115 5.79187C10.9562 5.63875 10.9469 5.63062 10.8112 5.505C10.7487 5.45 10.5812 5.35562 10.5537 5.51312C10.5391 5.62687 10.544 5.74226 10.5681 5.85437C10.6105 5.95879 10.6675 6.05665 10.7375 6.145C11.4451 7.19696 12.0603 8.30819 12.5762 9.46625C12.6675 9.41937 12.6481 8.85 12.5937 8.7675" fill="white"/>
<path d="M11.7249 10.375C11.6849 10.4219 11.8206 10.6375 11.9974 10.6337C12.2918 10.5987 12.5518 10.41 12.7912 9.91937C12.8902 9.75107 12.952 9.56354 12.9724 9.36937C13.0026 8.43856 12.9362 7.50713 12.7743 6.59C12.7641 6.52599 12.7664 6.46061 12.7812 6.3975C12.8006 6.37 12.8649 6.3975 12.8993 6.335C12.9506 6.2725 12.7668 5.79687 12.6618 5.6125C12.6243 5.53 12.6112 5.475 12.5493 5.62C12.4745 5.78501 12.4392 5.9652 12.4462 6.14625C12.5868 7.23812 12.6293 8.19937 12.7231 9.29125C12.7387 9.40329 12.7143 9.51725 12.6543 9.61312C12.4043 9.93232 12.087 10.1925 11.7249 10.375ZM15.1012 11.9731C14.8881 12.1106 14.8881 12.2712 15.0606 12.275C15.2365 12.2795 15.4106 12.238 15.5657 12.1547C15.7208 12.0714 15.8515 11.9492 15.9449 11.8C16.0296 11.6063 16.0779 11.3987 16.0874 11.1875C16.1274 10.1847 16.0738 9.18036 15.9274 8.1875C15.9088 8.09446 15.899 7.99988 15.8981 7.905C15.9181 7.85375 16.0131 7.9125 16.0456 7.85C16.0981 7.795 15.7993 7.35937 15.6931 7.17437C15.6568 7.09187 15.6443 7.03687 15.5818 7.18625C15.5115 7.35088 15.4898 7.53219 15.5193 7.70875C15.677 8.83343 15.7757 9.96561 15.8149 11.1006C15.8076 11.1958 15.7876 11.2895 15.7556 11.3794C15.6752 11.5174 15.5785 11.6452 15.4674 11.76C15.3699 11.8387 15.1656 11.9175 15.0993 11.9762" fill="white"/>
<path d="M15.8631 9.30562C15.8594 9.02687 15.87 8.78687 15.8594 8.57937C15.8487 8.37187 15.7662 7.59375 15.74 7.42875C15.7137 7.26375 15.6812 7.00875 15.6412 6.80875C15.6177 6.69227 15.6054 6.57382 15.6044 6.455C15.62 6.4 15.6881 6.45875 15.7187 6.3925C15.6836 6.08656 15.5891 5.79042 15.4406 5.52062C15.4019 5.43812 15.3287 5.46562 15.2412 5.59937C15.1569 5.68562 15.1881 5.88187 15.2194 6.07062C15.4512 7.29877 15.5638 8.54644 15.5556 9.79625C15.5431 9.89437 15.8681 9.49375 15.8631 9.30562ZM14.3019 7.76625C14.1687 7.7625 13.8894 7.47562 13.8081 7.30687C13.7832 7.22436 13.7888 7.13565 13.8237 7.05687C13.8737 7.02125 13.9487 6.97812 14.0056 7.02125C14.0056 7.02125 14.0644 7.11187 14.0531 7.12312C14.1256 7.1625 14.1575 7.13875 14.165 7.10375C14.1694 7.04875 14.1425 7.01312 14.1425 6.95062C14.1731 6.77375 14.35 6.75062 14.4175 6.86C14.4651 6.95516 14.4905 7.05986 14.4919 7.16625C14.4919 7.2175 14.4194 7.15875 14.3787 7.17062C14.3381 7.1825 14.3281 7.23312 14.325 7.28062C14.3133 7.44124 14.3056 7.60212 14.3019 7.76312M11.8456 9.61562C11.8831 9.23437 11.8337 8.465 11.83 8.24062C11.8175 7.715 11.7394 6.69812 11.705 6.52875C11.6631 6.20687 11.8212 6.56437 11.7981 6.37625C11.7284 6.07488 11.5943 5.79217 11.405 5.5475C11.3456 5.45312 11.3481 5.43375 11.2544 5.57125C11.1943 5.78228 11.1986 6.00646 11.2669 6.215C11.3945 6.83118 11.4781 7.45568 11.5169 8.08375C11.557 8.74531 11.562 9.40853 11.5319 10.0706C11.6325 10.0706 11.7931 9.88312 11.8487 9.615" fill="white"/>
<path d="M16.3169 9.00688C16.0837 8.56312 15.7281 8.045 15.6344 7.86875C15.5406 7.6925 14.7387 6.3725 14.6381 6.255C14.345 5.91312 14.7725 6.2 14.5831 5.92875C14.4809 5.79217 14.3649 5.6665 14.2369 5.55375C14.1687 5.50687 14.1256 5.40875 14.1031 5.56937C14.0911 5.713 14.0876 5.85721 14.0925 6.00125C14.1081 6.09891 14.1483 6.19098 14.2094 6.26875C15.0019 7.35619 15.7054 8.50574 16.3131 9.70625C16.4025 9.65937 16.3719 9.09 16.3169 9.01125M13.4762 13.2119C13.435 13.2243 13.398 13.2481 13.3696 13.2805C13.3412 13.3129 13.3225 13.3527 13.3156 13.3952C13.3087 13.4378 13.3139 13.4814 13.3306 13.5212C13.3473 13.5609 13.3748 13.5951 13.41 13.62C11.2181 13.62 7.85499 13.5813 7.13687 13.5813C6.73187 13.5813 5.45625 13.5263 5.4325 13.5263C5.55938 13.7196 5.73787 13.8735 5.94775 13.9706C6.15763 14.0677 6.3905 14.1041 6.61999 14.0756C7.59374 14.0756 12.1025 14.0638 13.3837 14.0638C13.3515 14.1512 13.342 14.2453 13.3563 14.3374C13.3705 14.4295 13.4079 14.5164 13.465 14.59L13.4706 14.5938C13.4712 14.5952 13.4722 14.5965 13.4736 14.5973C13.475 14.5981 13.4766 14.5984 13.4781 14.5981H13.4819C13.5675 14.6213 13.6069 14.5506 13.6344 14.5037C13.9621 14.5224 14.2906 14.5211 14.6181 14.5C14.6662 14.5781 14.715 14.6531 14.8056 14.6413C14.965 14.6019 15.0906 14.5825 15.0962 14.2169C15.0962 14.2169 15.0794 13.5969 14.7162 13.6363C14.63 13.6481 14.39 13.675 14.39 13.675C14.1106 13.64 13.9044 13.6363 13.5912 13.62C13.6206 13.5813 13.6706 13.4125 13.6087 13.3531C13.5984 13.3445 13.5864 13.3381 13.5735 13.3341C13.5607 13.3301 13.5472 13.3287 13.5337 13.33H13.5275C13.5275 13.33 13.5219 13.3256 13.5206 13.3219V13.3181C13.5064 13.2836 13.4947 13.2481 13.4856 13.2119H13.4787M13.6275 14.0994C13.9456 14.115 14.2456 14.1031 14.565 14.1188C14.5847 14.1452 14.5945 14.1777 14.5929 14.2106C14.5913 14.2436 14.5784 14.2749 14.5562 14.2994C14.5562 14.3038 14.5562 14.3038 14.5519 14.3038H14.5437C14.44 14.2994 14.3806 14.2994 14.2769 14.2956C14.2769 14.2875 14.2731 14.2837 14.2731 14.2762C14.2481 14.1937 14.0706 14.2013 14.0281 14.2681V14.2875C14.0273 14.2914 14.0273 14.2955 14.0281 14.2994C13.8919 14.3082 13.7551 14.303 13.62 14.2838C13.5806 14.2288 13.585 14.1269 13.6331 14.0994M7.93187 5.90937C7.71874 6.5925 8.05687 7.34687 8.28687 7.27562C8.45562 7.35 8.56124 6.98937 8.63062 6.59625C8.67874 6.48625 8.71374 6.47125 8.73812 6.52937C8.73124 7.05562 8.77124 7.17375 8.89124 7.33062C8.92335 7.36522 8.96214 7.39295 9.00526 7.41215C9.04838 7.43134 9.09495 7.4416 9.14214 7.4423C9.18934 7.443 9.23619 7.43413 9.27986 7.41623C9.32353 7.39832 9.36312 7.37175 9.39625 7.33812C9.41375 7.3225 9.60499 7.10687 9.60499 7.10687C9.61513 7.09382 9.62798 7.08311 9.64266 7.07549C9.65733 7.06788 9.67348 7.06354 9.69 7.06276C9.70651 7.06199 9.723 7.06481 9.73832 7.07102C9.75364 7.07723 9.76743 7.08669 9.77874 7.09875C9.84124 7.16125 9.83249 7.27562 9.96624 7.34875C10.0373 7.37662 10.1151 7.38216 10.1894 7.36463C10.2637 7.3471 10.3308 7.30732 10.3819 7.25062C10.4587 7.10562 10.4756 7.05437 10.5106 7.00062C10.5662 6.91812 10.6581 6.95375 10.6581 6.98125C10.65 7.02812 10.5956 7.07125 10.6319 7.15375C10.6981 7.20875 10.7125 7.17375 10.7519 7.16187C10.8875 7.08687 10.9894 6.7575 10.9894 6.7575C10.9937 6.6325 10.9337 6.64375 10.8919 6.67125C10.85 6.69875 10.8375 6.71812 10.785 6.75375C10.7225 6.76125 10.5906 6.8125 10.5287 6.7025C10.4625 6.56875 10.4625 6.38062 10.4119 6.24687C10.4119 6.23937 10.3262 6.03875 10.4062 6.02312C10.4456 6.03125 10.5312 6.05875 10.5462 5.97625C10.5887 5.8975 10.4556 5.67 10.3644 5.56C10.3477 5.53692 10.3261 5.51792 10.301 5.50444C10.276 5.49097 10.2482 5.48337 10.2198 5.48223C10.1913 5.48108 10.163 5.48642 10.137 5.49784C10.1109 5.50925 10.0878 5.52645 10.0694 5.54812C10.0169 5.61842 9.98916 5.70415 9.99062 5.79187C9.97896 5.84871 9.97927 5.90736 9.99154 5.96407C10.0038 6.02078 10.0278 6.07431 10.0619 6.12125C10.187 6.32164 10.2445 6.55698 10.2256 6.7925C10.2043 6.83095 10.1729 6.86288 10.1348 6.88489C10.0967 6.90691 10.0534 6.91818 10.0094 6.9175C9.95312 6.90187 9.85937 6.87437 9.80937 6.46625C9.82128 6.14471 9.78484 5.82321 9.70125 5.5125C9.65812 5.3875 9.62874 5.2625 9.52499 5.48062C9.47937 5.54851 9.45 5.626 9.43916 5.70708C9.42832 5.78815 9.43631 5.87063 9.46249 5.94812C9.54233 6.18143 9.56505 6.43048 9.52875 6.67437C9.49306 6.7446 9.45123 6.81152 9.40374 6.87437C9.37348 6.91368 9.32917 6.93973 9.28012 6.94707C9.23106 6.95441 9.18106 6.94247 9.14062 6.91375C9.09615 6.88793 9.05863 6.85168 9.0313 6.80813C9.00397 6.76457 8.98765 6.71502 8.98374 6.66375C9.0038 6.39664 8.99668 6.12818 8.96249 5.8625C8.89999 5.71312 8.79249 5.76812 8.74812 5.81125C8.5393 6.07359 8.40347 6.38643 8.35437 6.71812C8.29187 6.93812 8.22937 6.875 8.18312 6.785C8.07312 6.67125 8.06499 5.76 7.93312 5.91" fill="white"/>
<path d="M8.65182 7.32688C8.65182 7.33063 8.65182 7.33063 8.64557 7.33063V7.33438C8.63182 7.3425 8.61369 7.37 8.57682 7.40125C8.54556 7.44286 8.5233 7.49052 8.51146 7.5412C8.49963 7.59188 8.49847 7.64447 8.50807 7.69563C8.50807 7.71563 8.62494 8.07063 8.72369 8.3275C8.80645 8.60358 8.83427 8.89321 8.80557 9.18C8.64691 9.54843 8.38071 9.86038 8.04182 10.075C7.99245 10.1001 7.93784 10.1132 7.88244 10.1132C7.82704 10.1132 7.77243 10.1001 7.72307 10.075V10.0713C7.6924 10.0474 7.66836 10.0161 7.65326 9.98032C7.63816 9.94454 7.6325 9.90548 7.63682 9.86688C7.97835 9.65578 8.24656 9.34458 8.40494 8.97563C8.47981 8.76864 8.48703 8.54323 8.42557 8.33188C8.40622 8.22471 8.36143 8.12375 8.29494 8.0375V8.03313C8.33807 8.01 8.44869 8.10375 8.46744 8.045C8.4356 7.87656 8.35969 7.71956 8.24744 7.59C8.23273 7.56829 8.21329 7.55019 8.19059 7.53706C8.16788 7.52392 8.1425 7.5161 8.11634 7.51418C8.09019 7.51225 8.06393 7.51628 8.03955 7.52594C8.01517 7.53561 7.9933 7.55067 7.97557 7.57C7.88432 7.62875 7.86494 7.83688 7.90744 8.02188C7.95744 8.155 8.09494 8.17875 8.18869 8.45375V8.4575C8.20687 8.5528 8.20129 8.65112 8.17244 8.74375C8.00887 8.97057 7.81522 9.1741 7.59682 9.34875L7.59307 9.3525V9.35625H7.58744V9.3525C7.58949 9.32254 7.58949 9.29247 7.58744 9.2625C7.58744 9.18375 7.61557 8.995 7.61369 8.96V8.95625C7.44994 9.0775 7.39369 9.44688 7.36369 9.55688C6.94556 9.81682 6.55445 10.1179 6.19619 10.4556C6.05307 10.7056 7.17994 10.165 7.30994 10.1025L7.31494 10.1063C7.33881 10.1874 7.37261 10.2653 7.41557 10.3381C7.48107 10.4339 7.57475 10.5069 7.68361 10.5469C7.79247 10.587 7.91111 10.5923 8.02307 10.5619C8.39322 10.3827 8.70012 10.0952 8.90307 9.7375C8.93619 9.6825 8.98994 9.63938 9.03807 9.6825C9.15471 9.91036 9.33377 10.1003 9.55433 10.2303C9.77488 10.3602 10.0278 10.4247 10.2837 10.4163C10.4243 10.2244 10.3581 10.1263 10.3006 10.0906C10.2818 10.075 9.99682 9.94938 9.95307 9.82375C9.92619 9.71 9.99244 9.6075 10.1293 9.52938C10.5203 9.48722 10.9056 9.40341 11.2787 9.27938C11.2919 9.12487 11.3343 8.97428 11.4037 8.83563C11.4173 8.80436 11.4388 8.77721 11.4662 8.75688V8.74188L11.4037 8.69875L10.1537 8.69125C10.1412 8.68611 10.1295 8.67939 10.1187 8.67125V8.64813C10.1286 8.63502 10.1424 8.62539 10.1581 8.62063C10.4587 8.5775 10.9874 8.47875 11.0212 7.90188C11.0304 7.837 11.0261 7.77094 11.0088 7.70775C10.9915 7.64457 10.9614 7.5856 10.9204 7.53449C10.8794 7.48337 10.8284 7.44119 10.7705 7.41054C10.7126 7.37988 10.649 7.36141 10.5837 7.35625C10.4585 7.3831 10.3487 7.45744 10.2772 7.56363C10.2058 7.66982 10.1783 7.79958 10.2006 7.92563C10.1899 8 10.2249 8.15313 10.1549 8.16875C9.69494 8.22 9.19369 8.54375 9.17557 8.77375H9.16932V8.7775H9.16307L9.15807 8.77375C9.1342 8.75952 9.11536 8.73822 9.10416 8.71279C9.09296 8.68737 9.08996 8.65909 9.09557 8.63188C9.07438 8.21389 8.9667 7.80485 8.77932 7.43063C8.71682 7.35625 8.68682 7.32875 8.66744 7.325H8.65994M10.4862 7.83938C10.521 7.8356 10.556 7.84546 10.5837 7.86688C10.6058 7.87791 10.6245 7.89459 10.638 7.91524C10.6515 7.93588 10.6593 7.95974 10.6606 7.98438V8C10.6606 8 10.6562 8.00375 10.6531 8.00813C10.6287 8.03563 10.5756 8.03125 10.5218 7.99625C10.501 7.98462 10.4832 7.96827 10.4699 7.94852C10.4565 7.92876 10.448 7.90615 10.4449 7.8825V7.87813C10.4449 7.87063 10.4468 7.86688 10.4506 7.86688V7.85875C10.4506 7.855 10.4506 7.855 10.4568 7.85063C10.4608 7.84684 10.4655 7.8439 10.4707 7.84197C10.4758 7.84004 10.4807 7.83916 10.4862 7.83938ZM9.32494 9.02688H9.33932C9.51161 9.06306 9.68656 9.08522 9.86244 9.09313C10.0074 9.105 10.0787 9.23063 9.94369 9.28563C9.80869 9.34063 9.68119 9.37625 9.68119 9.59813C9.69921 9.65933 9.69921 9.72442 9.68119 9.78562C9.68114 9.7873 9.68058 9.78893 9.67957 9.79027C9.67856 9.79161 9.67716 9.79261 9.67557 9.79313V9.80125H9.67244L9.66619 9.805C9.66581 9.80622 9.66507 9.80729 9.66406 9.80807C9.66306 9.80885 9.66184 9.80931 9.66057 9.80938C9.62744 9.81313 9.58119 9.77375 9.54557 9.75813C9.45 9.69228 9.36965 9.60672 9.30992 9.50721C9.2502 9.4077 9.21248 9.29656 9.19932 9.18125C9.19761 9.16262 9.19963 9.14384 9.20527 9.12601C9.2109 9.10817 9.22004 9.09164 9.23215 9.07738C9.24426 9.06312 9.25909 9.05142 9.27577 9.04296C9.29245 9.0345 9.31066 9.02946 9.32932 9.02813M5.29994 5.9175C5.44494 5.99188 5.71432 5.96063 5.70307 5.70125C5.70307 5.6775 5.69869 5.59938 5.69682 5.57625C5.66869 5.49813 5.58682 5.51375 5.57182 5.59625C5.56619 5.61938 5.58057 5.66313 5.56057 5.67875C5.54057 5.69438 5.49994 5.6875 5.49994 5.615C5.49846 5.59226 5.49019 5.57048 5.47619 5.5525C5.47216 5.54822 5.46716 5.54497 5.46162 5.54301C5.45607 5.54105 5.45014 5.54045 5.44432 5.54125C5.42494 5.545 5.42494 5.54875 5.41619 5.56813C5.40879 5.58813 5.40498 5.60929 5.40494 5.63063C5.40119 5.65813 5.39182 5.66563 5.37494 5.67C5.35807 5.67438 5.36182 5.67375 5.34557 5.66188C5.32932 5.65 5.32494 5.6425 5.32494 5.625C5.32471 5.60399 5.32241 5.58306 5.31807 5.5625C5.30936 5.55064 5.29674 5.54223 5.28244 5.53875C5.20307 5.53875 5.19744 5.64125 5.20307 5.68C5.19557 5.68813 5.19307 5.8675 5.29994 5.92" fill="white"/>
<path d="M9.52003 7.9275C9.66441 8.00187 10.0069 7.95875 9.92441 7.7075C9.92441 7.68375 9.91941 7.60562 9.91566 7.5825C9.88691 7.50437 9.80753 7.52375 9.79066 7.6025C9.78628 7.63 9.80191 7.67312 9.78128 7.68875C9.76066 7.70437 9.72253 7.68875 9.72378 7.61812C9.72231 7.59651 9.71399 7.57593 9.70003 7.55937C9.69597 7.55493 9.69089 7.55153 9.68523 7.54946C9.67958 7.54739 9.6735 7.54672 9.66753 7.5475C9.64878 7.55125 9.64878 7.555 9.63753 7.575C9.63146 7.59404 9.62789 7.61379 9.62691 7.63375C9.62691 7.66125 9.61566 7.66937 9.59816 7.67312C9.58066 7.67687 9.58566 7.67687 9.56941 7.665C9.55316 7.65312 9.54816 7.64937 9.54816 7.63C9.54897 7.60876 9.54579 7.58756 9.53878 7.5675C9.53477 7.56152 9.52961 7.55639 9.5236 7.55242C9.51759 7.54845 9.51086 7.54572 9.50378 7.54437C9.42566 7.54437 9.42191 7.64625 9.42441 7.68562C9.42003 7.68937 9.41628 7.87 9.52253 7.925M11.9819 7.095C12.125 7.16937 12.3957 7.13437 12.3844 6.875C12.3844 6.85562 12.38 6.77687 12.3782 6.75375C12.3475 6.67875 12.2663 6.69437 12.2532 6.77687C12.2463 6.80062 12.2613 6.84375 12.24 6.85562C12.23 6.87125 12.1825 6.86312 12.1844 6.78875C12.1816 6.76631 12.1735 6.74488 12.1607 6.72625C12.1509 6.72184 12.14 6.72032 12.1294 6.72187C12.11 6.72187 12.11 6.72625 12.0988 6.74562C12.0923 6.76587 12.0885 6.78688 12.0875 6.80812C12.0875 6.83125 12.0769 6.83937 12.0588 6.84312C12.0407 6.84687 12.0438 6.84687 12.0307 6.835C12.0245 6.83144 12.0194 6.82635 12.0157 6.82021C12.0121 6.81408 12.0102 6.80711 12.01 6.8C12.0092 6.77741 12.0058 6.75498 12 6.73312C11.9897 6.72535 11.9777 6.72001 11.965 6.7175C11.8869 6.7175 11.8807 6.81937 11.8857 6.855C11.8807 6.8625 11.8769 7.0425 11.9844 7.09437M13.2557 9.18C13.1695 9.3226 13.1171 9.48304 13.1026 9.64902C13.0881 9.815 13.1118 9.9821 13.1719 10.1375C13.226 10.3025 13.3367 10.4431 13.4844 10.5344C13.506 10.5579 13.5329 10.5759 13.5629 10.5869C13.5928 10.5979 13.625 10.6017 13.6567 10.5978C13.6884 10.594 13.7187 10.5826 13.7451 10.5648C13.7716 10.5469 13.7934 10.523 13.8088 10.495C13.9557 10.3225 13.9588 9.88625 14.0269 9.8C14.0769 9.63937 14.1975 9.66625 14.2569 9.7375C14.3102 9.82075 14.3821 9.89049 14.4669 9.94125C14.4948 9.97441 14.529 10.0017 14.5675 10.0215C14.606 10.0413 14.6481 10.0532 14.6913 10.0565C14.7345 10.0598 14.7779 10.0545 14.819 10.0408C14.8601 10.0271 14.8981 10.0054 14.9307 9.97687C15.0526 9.89957 15.1408 9.779 15.1775 9.63937C15.2315 8.97839 15.2376 8.31436 15.1957 7.6525C15.1888 7.60562 15.0538 6.83562 15.0538 6.82812C15.0538 6.82062 15.0344 6.43562 15.0207 6.345C15.0169 6.30562 15.0088 6.29437 15.0438 6.29812C15.0807 6.3375 15.0844 6.34125 15.1063 6.34875C15.1432 6.35687 15.1763 6.28625 15.1544 6.21937C15.0413 5.98375 14.925 5.74437 14.8107 5.51312C14.7844 5.4775 14.7482 5.44625 14.7032 5.51687C14.6758 5.54485 14.6543 5.578 14.64 5.61438C14.6256 5.65076 14.6186 5.68964 14.6194 5.72875C14.63 5.8975 14.6563 6.07062 14.6657 6.23937C14.7119 6.52562 14.7575 6.81625 14.8038 7.10687C14.8463 7.72312 14.8588 8.28875 14.9013 8.905C14.8944 9.16375 14.8238 9.51375 14.7532 9.545C14.7532 9.545 14.6525 9.61562 14.5825 9.54062C14.4871 9.42414 14.4033 9.29853 14.3325 9.16562C14.2294 9.06 14.1607 9.0875 14.0869 9.16562C13.9058 9.45 13.7616 9.75619 13.6575 10.0769C13.6207 10.1394 13.5213 10.1944 13.4113 10.0731C13.2659 9.80018 13.2124 9.48763 13.2588 9.18187M12.0463 5.57937C12.1162 5.63978 12.17 5.71668 12.2028 5.80311C12.2355 5.88954 12.2462 5.98278 12.2338 6.07437C12.2082 6.25125 12.1407 6.44937 12.0913 6.42C12.0419 6.39062 12.1269 6.24312 12.0769 6.08187C12.0463 5.97625 11.8719 5.7875 11.8894 5.72875C11.8821 5.70743 11.8811 5.68449 11.8864 5.6626C11.8917 5.64071 11.9031 5.62078 11.9192 5.60512C11.9354 5.58946 11.9557 5.57873 11.9778 5.57417C11.9998 5.56961 12.0227 5.57141 12.0438 5.57937" fill="white"/>
<path d="M13.6713 9.35625C13.6828 9.09697 13.6736 8.83719 13.6438 8.57937C13.6363 8.375 13.4369 6.69062 13.3938 6.53375C13.345 6.23937 13.5888 6.49437 13.5607 6.32187C13.4769 6.10562 13.2675 5.7875 13.2025 5.59937C13.1607 5.51687 13.1782 5.44625 13.0894 5.57937C13.0133 5.81752 12.9863 6.06862 13.01 6.3175C13.2593 7.48456 13.3916 8.67356 13.405 9.86687C13.505 9.86687 13.62 9.61187 13.67 9.35625M15.2682 7.59937C15.3882 7.67 15.4557 8.03687 15.4432 8.14125C15.4207 8.33375 15.3588 8.54187 15.3132 8.51625C15.2675 8.49062 15.3232 8.22937 15.2994 8.15125C15.2713 8.03687 15.1119 7.82875 15.1288 7.76625C15.0969 7.63625 15.1988 7.58187 15.2682 7.60125M7.13628 8.6875C7.24753 8.735 7.31441 9.00562 7.30128 9.08437C7.27878 9.22562 7.21941 9.375 7.17628 9.35875C7.13316 9.3425 7.18566 9.14687 7.16253 9.08812C7.15378 8.94312 6.99753 8.86812 7.00066 8.80562C6.97128 8.69187 7.06316 8.67187 7.13503 8.6875M4.13003 5.48937C4.29628 5.54437 4.30566 5.81937 4.29503 5.90125C4.27253 6.04687 4.21316 6.20375 4.17003 6.18437C4.12691 6.165 4.17003 5.96812 4.14628 5.90562C4.12503 5.8125 3.98191 5.66187 4.00003 5.615C3.96816 5.51687 4.06253 5.46937 4.13191 5.49M7.40691 6.785C7.34194 6.83636 7.29679 6.90864 7.27912 6.98955C7.26146 7.07046 7.27238 7.15499 7.31003 7.22875C7.33203 7.26138 7.36407 7.28594 7.4013 7.29869C7.43853 7.31143 7.4789 7.31168 7.51628 7.29937C7.64128 7.31875 7.71503 7.03625 7.71503 7.03625C7.71503 7.03625 7.71878 6.9575 7.57191 7.10687C7.50941 7.1225 7.50128 7.095 7.48503 7.05562C7.47038 6.98199 7.47688 6.90572 7.50378 6.83562C7.52691 6.765 7.47878 6.73375 7.40691 6.785ZM8.36128 5.38312C8.3056 5.42831 8.25971 5.48437 8.2264 5.54787C8.19309 5.61138 8.17306 5.681 8.16753 5.7525C8.16191 5.84625 8.14628 5.84625 8.20253 5.90937C8.24441 5.97625 8.28503 5.96812 8.36628 5.9175C8.40796 5.88782 8.43626 5.84291 8.44503 5.7925C8.46503 5.6825 8.34316 5.84312 8.32628 5.72125C8.30941 5.59937 8.37753 5.56437 8.45128 5.45062C8.45128 5.37625 8.45128 5.32562 8.36003 5.38375M9.13191 5.53625C9.10111 5.6771 9.0825 5.82033 9.07628 5.96437C9.05316 6.07062 9.17628 6.1175 9.23066 5.98C9.28637 5.83054 9.31597 5.67261 9.31816 5.51312C9.29316 5.35187 9.19316 5.36 9.13066 5.53625M13.9819 8.3125C13.9994 8.29687 14.665 7.76312 14.665 7.76312C14.7332 7.73562 14.7188 8.03812 14.6882 8.03375C14.4859 8.25711 14.2471 8.44437 13.9819 8.5875C13.9494 8.61125 13.9163 8.37937 13.9819 8.3125ZM14.59 8.30812C14.7088 8.375 14.755 8.75937 14.7419 8.86562C14.7463 9.07 14.6288 9.23437 14.5832 9.21125C14.5375 9.18812 14.5888 8.95625 14.5657 8.87375C14.5144 8.7487 14.4773 8.6183 14.455 8.485C14.4219 8.355 14.5175 8.28437 14.59 8.30812ZM10.625 9.9725C10.6794 9.90326 10.7424 9.84129 10.8125 9.78812C10.8341 9.77763 10.8585 9.77464 10.882 9.77962C10.9054 9.7846 10.9265 9.79728 10.9419 9.81562C10.9532 9.88625 10.9007 9.95687 10.9175 10.055C10.9307 10.0944 10.9419 10.1419 11.0063 10.1219C11.0486 10.0844 11.0982 10.056 11.152 10.0385C11.2057 10.021 11.2625 10.0147 11.3188 10.02C11.4019 10.02 11.4025 10.1769 11.3525 10.1769C11.206 10.2182 11.0642 10.2748 10.9294 10.3456C10.92 10.3526 10.9092 10.3577 10.8978 10.3606C10.8864 10.3634 10.8745 10.3639 10.8629 10.3621C10.8512 10.3603 10.8401 10.3562 10.83 10.3501C10.82 10.3439 10.8113 10.3358 10.8044 10.3262C10.7915 10.306 10.7837 10.2829 10.7816 10.259C10.7796 10.235 10.7833 10.2109 10.7925 10.1887C10.7988 10.11 10.77 10.0637 10.7107 10.0712C10.6657 10.1025 10.6275 10.1181 10.6057 10.0631C10.5975 10.02 10.5944 9.99625 10.6232 9.9725M15.2919 10.1806C15.3109 10.2001 15.3215 10.2262 15.3215 10.2534C15.3215 10.2806 15.3109 10.3068 15.2919 10.3262C15.2444 10.3775 15.2125 10.4006 15.1669 10.4512C15.1463 10.4944 15.1325 10.5569 15.1988 10.5762C15.3238 10.6156 15.6113 10.4075 15.6113 10.3994C15.6269 10.3854 15.6378 10.3671 15.6427 10.3468C15.6476 10.3265 15.6463 10.3051 15.6388 10.2856C15.6113 10.2506 15.5513 10.27 15.51 10.27C15.4894 10.27 15.4257 10.2544 15.4563 10.1956C15.4775 10.1593 15.4951 10.121 15.5088 10.0812C15.5269 10.0306 15.5119 9.99937 15.4394 9.97125C15.3804 9.96155 15.3203 9.96155 15.2613 9.97125C15.2188 9.98312 15.2038 10.0069 15.1988 10.0619C15.1988 10.1481 15.2494 10.1444 15.2988 10.1794" fill="white"/>
</svg>
