<svg width="20" height="20" viewBox="0 0 20 20" fill="none" xmlns="http://www.w3.org/2000/svg">
<g clip-path="url(#clip0_128_1646)">
<path d="M16.2596 2H2.74038C1.22932 2 0 3.22932 0 4.74038V14.9711C0 16.4822 1.22932 17.7115 2.74038 17.7115H16.2596C17.7707 17.7115 19 16.4822 19 14.9711V4.74038C19 3.22932 17.7707 2 16.2596 2ZM17.9039 11.5H13.8846C12.978 11.5 12.2404 10.7624 12.2404 9.85576C12.2404 8.9491 12.978 8.21152 13.8846 8.21152H17.9039V11.5ZM17.9039 7.11538H13.8846C12.3736 7.11538 11.1442 8.3447 11.1442 9.85576C11.1442 11.3668 12.3736 12.5961 13.8846 12.5961H17.9039V14.9711C17.9039 15.8778 17.1663 16.6154 16.2596 16.6154H2.74038C1.83376 16.6154 1.09614 15.8778 1.09614 14.9711V4.74038C1.09614 3.83376 1.83372 3.09614 2.74038 3.09614H16.2596C17.1662 3.09614 17.9039 3.83372 17.9039 4.74038V7.11538Z" fill="#1D212C" stroke="#1D212C" stroke-width="0.2"/>
<path d="M14.6154 9.30859H13.8846C13.5819 9.30859 13.3365 9.554 13.3365 9.85666C13.3365 10.1594 13.582 10.4047 13.8846 10.4047H14.6154C14.9181 10.4047 15.1634 10.1593 15.1634 9.85666C15.1634 9.55396 14.9181 9.30859 14.6154 9.30859Z" fill="#1D212C" stroke="#1D212C" stroke-width="0.2"/>
</g>
<defs>
<clipPath id="clip0_128_1646">
<rect width="20" height="20" fill="white"/>
</clipPath>
</defs>
</svg>
