<svg width="16" height="16" viewBox="0 0 16 16" fill="none" xmlns="http://www.w3.org/2000/svg">
<path d="M13.0047 9.66016C13.4406 8.8414 13.668 7.92777 13.6667 7.00016C13.6667 3.8705 11.1297 1.3335 7.99999 1.3335C4.87032 1.3335 2.33332 3.8705 2.33332 7.00016C2.33103 8.33692 2.80355 9.63105 3.66665 10.6518L3.67332 10.6602C3.67565 10.6622 3.67765 10.6648 3.67932 10.6668H3.66665L7.02932 14.2368C7.15398 14.3691 7.30437 14.4746 7.47127 14.5466C7.63816 14.6187 7.81803 14.6559 7.99982 14.6559C8.18161 14.6559 8.36148 14.6187 8.52838 14.5466C8.69527 14.4746 8.84567 14.3691 8.97032 14.2368L12.3333 10.6668H12.3207L12.326 10.6605L12.3267 10.6598C12.3507 10.6312 12.3747 10.6025 12.3983 10.5732C12.6295 10.289 12.8327 9.98313 13.005 9.65983L13.0047 9.66016ZM8.00132 9.16683C7.47089 9.16683 6.96218 8.95612 6.58711 8.58104C6.21204 8.20597 6.00132 7.69726 6.00132 7.16683C6.00132 6.6364 6.21204 6.12769 6.58711 5.75262C6.96218 5.37754 7.47089 5.16683 8.00132 5.16683C8.53175 5.16683 9.04046 5.37754 9.41554 5.75262C9.79061 6.12769 10.0013 6.6364 10.0013 7.16683C10.0013 7.69726 9.79061 8.20597 9.41554 8.58104C9.04046 8.95612 8.53175 9.16683 8.00132 9.16683Z" fill="#1D212C"/>
</svg>
