<svg width="19" height="19" viewBox="0 0 19 19" fill="none" xmlns="http://www.w3.org/2000/svg">
<path d="M1.58331 14.2503V7.91699C1.58331 7.48158 1.73848 7.1087 2.04881 6.79837C2.35915 6.48804 2.73176 6.33313 3.16665 6.33366H5.54165V4.75033C5.54165 4.31491 5.69681 3.94204 6.00715 3.6317C6.31748 3.32137 6.69009 3.16647 7.12498 3.16699H11.875C12.3104 3.16699 12.6833 3.32216 12.9936 3.63249C13.3039 3.94283 13.4588 4.31544 13.4583 4.75033V6.33366H15.8333C16.2687 6.33366 16.6416 6.48883 16.9519 6.79916C17.2623 7.10949 17.4172 7.4821 17.4166 7.91699V14.2503C17.4166 14.6857 17.2615 15.0586 16.9511 15.369C16.6408 15.6793 16.2682 15.8342 15.8333 15.8337H3.16665C2.73123 15.8337 2.35836 15.6785 2.04802 15.3682C1.73769 15.0578 1.58279 14.6852 1.58331 14.2503ZM3.16665 14.2503H15.8333V11.8753H14.25C14.25 12.0996 14.174 12.2878 14.022 12.4398C13.87 12.5918 13.6821 12.6675 13.4583 12.667C13.234 12.667 13.0459 12.591 12.8939 12.439C12.7419 12.287 12.6661 12.0991 12.6666 11.8753H6.33331C6.33331 12.0996 6.25731 12.2878 6.10531 12.4398C5.95331 12.5918 5.76543 12.6675 5.54165 12.667C5.31734 12.667 5.12919 12.591 4.97719 12.439C4.82519 12.287 4.74945 12.0991 4.74998 11.8753H3.16665V14.2503ZM3.16665 7.91699V10.292H4.74998C4.74998 10.0677 4.82598 9.87954 4.97798 9.72754C5.12998 9.57554 5.31787 9.4998 5.54165 9.50033C5.76595 9.50033 5.95411 9.57633 6.10611 9.72833C6.25811 9.88033 6.33384 10.0682 6.33331 10.292H12.6666C12.6666 10.0677 12.7426 9.87954 12.8946 9.72754C13.0466 9.57554 13.2345 9.4998 13.4583 9.50033C13.6826 9.50033 13.8708 9.57633 14.0228 9.72833C14.1748 9.88033 14.2505 10.0682 14.25 10.292H15.8333V7.91699H3.16665ZM7.12498 6.33366H11.875V4.75033H7.12498V6.33366Z" fill="#19223C" fill-opacity="0.64"/>
</svg>
