<svg width="15" height="15" viewBox="0 0 15 15" fill="none" xmlns="http://www.w3.org/2000/svg">
<path d="M12.0776 5.91747C12.0776 5.91747 11.7382 10.1267 11.5414 11.8998C11.4476 12.7467 10.9245 13.2429 10.0677 13.2585C8.43708 13.2879 6.80463 13.2898 5.17467 13.2554C4.35032 13.2385 3.83596 12.736 3.74409 11.9042C3.54597 10.1155 3.20848 5.91747 3.20848 5.91747M12.9421 3.89972H2.34369M10.9 3.89971C10.4093 3.89971 9.98686 3.55284 9.89061 3.07223L9.73874 2.31225C9.64499 1.96164 9.3275 1.71914 8.96563 1.71914H6.32008C5.95822 1.71914 5.64072 1.96164 5.54698 2.31225L5.39511 3.07223C5.29886 3.55284 4.87637 3.89971 4.38576 3.89971" stroke="#181B28" stroke-opacity="0.7" stroke-width="1.3" stroke-linecap="round" stroke-linejoin="round"/>
</svg>
