<svg width="67" height="68" viewBox="0 0 67 68" fill="none" xmlns="http://www.w3.org/2000/svg">
<g filter="url(#filter0_d_23_5253)">
<path d="M63.4919 28.4083L63.0727 34.2768L62.0247 51.8825C61.8151 54.8168 59.9288 57.5414 57.2041 58.5894C35.6162 66.973 36.245 66.973 35.4066 67.1826C34.3587 67.3922 33.1011 67.3922 31.8436 67.1826C30.7956 66.973 31.634 67.1826 10.0461 58.5894C7.32142 57.5414 5.43509 54.8168 5.2255 51.8825L4.17755 34.2768L3.75836 28.4083L33.5203 37.8399L63.4919 28.4083Z" fill="#5993B4"/>
<path d="M35.1968 41.6131V66.9736C34.1488 67.1832 32.8913 67.1832 31.6338 66.9736V41.6131C32.8913 42.2419 34.1488 42.2419 35.1968 41.6131Z" fill="#729FB8"/>
<path d="M3.54835 28.4083L3.96753 34.2768L31.8432 46.2235C32.8911 46.6427 34.1487 46.6427 35.4062 46.2235L63.2818 34.2768L63.701 28.4083L33.5199 37.8399L3.54835 28.4083Z" fill="#4C86A8"/>
<g opacity="0.5">
<path d="M31.8428 41.6131V46.0145C32.8908 46.4337 34.1483 46.4337 35.4058 46.0145V41.6131C34.1483 42.2419 32.8908 42.2419 31.8428 41.6131Z" fill="#3A6883"/>
</g>
<path d="M64.9589 29.4556L35.4066 42.0311C34.9874 42.2407 34.3586 42.4503 33.7298 42.4503C33.1011 42.4503 32.6819 42.2407 32.0531 42.0311L2.08155 29.4556C-0.014359 28.6173 -0.433541 22.5391 0.404824 18.5569C0.614415 17.7185 0.824006 17.0897 1.0336 16.461C1.45278 15.8322 1.66237 15.413 2.08155 15.2034H64.9589C65.3781 15.413 65.5877 15.6226 65.7973 16.0418C66.2165 16.6706 66.4261 17.5089 66.6357 18.3473C67.474 22.5391 66.8452 28.6173 64.9589 29.4556Z" fill="#5993B4"/>
<path d="M66.6358 18.5565C66.2166 17.2989 64.3303 17.9277 64.3303 17.9277L36.6642 29.6648C35.8259 30.084 35.1971 30.9223 35.1971 31.9703V42.0307C34.7779 42.2403 34.1491 42.4499 33.5204 42.4499C32.8916 42.4499 32.4724 42.2403 31.8436 42.0307V31.7607C31.8436 30.7128 31.2149 29.8744 30.3765 29.4552L2.50087 17.7181C1.8721 17.5085 0.614549 17.2989 0.195367 18.3469C0.404958 17.5085 0.614549 16.8797 0.824141 16.251C1.24332 15.8318 1.66251 15.4126 2.08169 15.203L31.6341 2.62753C32.682 2.20834 33.9396 2.20834 35.1971 2.62753L64.7495 15.203C65.1687 15.4126 65.3782 15.6222 65.5878 16.0414C66.2166 16.6701 66.4262 17.5085 66.6358 18.5565Z" fill="#729FB8"/>
<path d="M34.3587 28.4073L62.0247 16.8798C62.4439 16.6702 62.4439 16.0414 62.0247 15.8318L34.3587 4.51387C33.7299 4.30428 33.1011 4.30428 32.4723 4.51387L5.01588 15.8318C4.5967 16.0414 4.5967 16.6702 5.01588 16.8798L32.4723 28.1977C33.1011 28.6169 33.9395 28.6169 34.3587 28.4073Z" fill="#5993B4"/>
<path d="M48.1914 24.6376L45.6763 25.6856C45.2572 25.2664 44.838 25.0568 43.5804 24.428L46.5147 23.1705C47.1435 23.7993 47.7722 24.2184 48.1914 24.6376Z" fill="#729FB8"/>
<path d="M21.3636 25.8952L18.8485 24.6376C19.2677 24.0088 19.8964 23.5897 20.5252 23.1705L23.4595 24.428C22.4115 25.0568 21.7828 25.476 21.3636 25.8952Z" fill="#729FB8"/>
<path d="M33.5199 16.2525C36.4541 17.7197 42.7419 21.0731 46.5145 23.3786L43.5802 24.6362C40.646 22.9595 36.6637 21.0731 33.5199 19.8156C29.7472 21.4923 26.3938 22.9595 23.4595 24.6362L20.5252 23.3786C23.8787 21.2827 29.9568 17.9293 33.5199 16.2525Z" fill="#4C86A8"/>
<g filter="url(#filter1_d_23_5253)">
<path d="M23.9933 11.0128C19.3902 13.5281 14.9962 15.8337 11.0208 18.1394C8.71919 19.6066 7.25455 22.1218 7.46378 24.8467L9.9746 57.7546C10.1838 59.4314 11.0208 61.1082 12.2762 61.9466C15.4147 64.2523 20.6456 67.3963 23.1564 65.3003L20.4363 63.4139L19.8086 24.0083L34.0366 16.0433V11.0128H23.9933Z" fill="#457591"/>
<g opacity="0.5">
<path d="M21.0626 29.6662L21.2719 61.9453L19.8072 59.43C18.5518 28.8278 17.7149 27.151 19.3888 24.6357L21.8996 25.6837C21.0626 26.7318 21.0626 28.199 21.0626 29.6662Z" fill="#70A9C9"/>
</g>
<path d="M17.5076 28.4096L18.9723 63.2039C18.9723 64.8807 20.6462 66.348 22.32 65.9288C23.157 65.7192 23.9939 65.0903 24.6216 64.2519L21.9016 62.9943C21.4831 62.7847 21.2739 62.3655 21.2739 61.9463L20.2277 27.9904C20.2277 26.3136 21.0646 24.4271 22.5293 23.5887C26.0863 21.4927 29.6433 19.8158 33.828 17.9294V14.7853C29.8525 16.6718 24.6216 19.6062 20.8554 21.9119C18.763 23.1695 17.2984 25.6848 17.5076 28.4096Z" fill="#558CAB"/>
<path d="M44.08 11.0128C48.6832 13.3185 53.0771 15.8337 57.0526 18.1394C59.3542 19.6066 60.8188 22.1218 60.6096 24.8467L58.0988 57.7546C57.8895 59.4314 57.0526 61.1082 55.7972 61.9466C52.6587 64.2523 47.4278 67.3963 44.917 65.3003L47.637 63.4139L48.2647 24.0083L34.0368 16.0433V11.0128H44.08Z" fill="#457591"/>
<g opacity="0.5">
<path d="M47.0094 29.6657L46.8002 62.1543L48.474 59.4295C49.311 28.8272 50.3571 27.36 48.6833 24.8448L46.1724 25.8928C47.0094 26.7312 47.0094 28.1984 47.0094 29.6657Z" fill="#70A9C9"/>
</g>
<path d="M50.5661 28.4096L49.1015 63.2039C49.1015 64.8807 47.4276 66.348 45.7537 65.9288C44.9168 65.7192 44.0798 65.0903 43.4521 64.2519L46.1722 63.2039C46.5907 62.9943 46.7999 62.7847 46.7999 62.3655L47.8461 28.4096C47.8461 26.7328 47.0091 24.8463 45.5445 24.0079C44.4983 23.3791 43.2429 22.7503 42.1967 22.1215C39.8951 20.8639 37.3843 19.8158 35.0827 18.7678C34.6643 18.5582 34.455 18.5582 34.2458 18.3486V14.7853C35.292 15.4142 36.3382 15.8334 37.3843 16.4622C40.7321 18.139 43.6614 19.8158 47.2184 21.9119C47.4276 22.1215 47.6368 22.3311 47.8461 22.3311C49.52 23.7983 50.7754 26.104 50.5661 28.4096Z" fill="#558CAB"/>
<path d="M30.6884 12.0588C30.6884 12.2684 30.4791 12.6876 30.4791 12.8972C29.433 16.0413 27.9683 17.7181 24.6206 16.8797C22.5282 16.2509 14.1588 18.1373 13.5311 17.9277C11.648 17.0893 11.0203 14.9933 11.2295 12.6876C11.2295 9.75315 12.4849 6.39948 13.5311 4.30344C14.5773 2.2074 16.2512 0.530567 18.1343 0.111359H18.9712C21.9005 0.111359 26.9222 4.93225 28.596 7.0283C30.2699 9.12434 28.8053 7.2379 28.8053 7.2379C29.8514 8.49552 30.4791 9.75315 30.6884 10.8012V12.0588Z" fill="#457591"/>
<path d="M30.689 12.0588C30.689 12.2684 30.4798 12.6876 30.4798 12.8972C30.0613 11.6396 28.8059 9.75315 28.3874 9.33394C26.5043 7.0283 21.6919 2.417 18.7626 2.417C14.5779 2.417 11.8579 8.49552 11.2302 12.6876C11.2302 9.75315 12.4856 6.39948 13.5317 4.30344C14.3687 2.417 16.461 0.530567 18.1349 0.111359H18.9718C21.9011 0.111359 26.9228 4.93225 28.5966 7.0283C30.2705 9.12434 28.8059 7.2379 28.8059 7.2379C30.0613 8.91473 30.4798 9.96275 30.689 10.8012V12.0588Z" fill="#457591"/>
<g opacity="0.5">
<path d="M32.9914 18.5554C32.3637 18.765 31.5267 19.1842 30.899 19.3938C28.3882 19.1842 27.9697 19.1842 27.342 18.765C27.5513 18.765 27.7605 18.5554 27.7605 18.3458C28.5975 17.5074 28.179 16.669 27.5513 15.8306H30.2713L30.6898 16.2498L32.9914 18.5554Z" fill="#4D758C"/>
</g>
<path d="M11.2302 14.5758C11.2302 15.8335 11.2302 19.8159 15.8333 20.4448C17.5072 20.6544 20.855 20.6544 22.7381 20.6544C25.4581 20.4448 29.4336 20.0256 29.4336 17.3007C29.4336 16.8815 29.2244 16.2527 29.0151 15.8335C28.5967 14.9951 27.132 13.7374 26.9228 13.7374C23.575 11.2222 18.3441 9.12613 16.0426 8.91653C13.1133 8.91653 11.2302 11.6414 11.2302 14.5758Z" fill="#56829B"/>
<path d="M20.6459 19.8157C38.6401 19.8157 20.8552 9.96426 16.0428 9.75465C13.7412 9.75465 12.0673 11.8507 12.0673 14.5755C12.0673 20.0253 15.2058 19.8157 20.6459 19.8157Z" fill="#5184A3"/>
<path d="M27.9687 18.5571C28.1779 18.3479 28.1779 18.5571 27.9687 18.5571V18.5571Z" fill="#558CAB"/>
<path d="M12.0673 14.5755C12.0673 15.6236 12.2765 17.0908 12.9042 17.9292C13.1135 15.6236 14.7874 13.5275 16.8797 13.5275C18.9721 13.5275 24.4122 15.6236 27.7599 18.558C31.1077 21.4925 27.7599 18.558 27.9692 18.3484C30.6892 15.6236 19.809 9.96426 15.8335 9.75465C13.7412 9.96426 12.0673 11.8507 12.0673 14.5755Z" fill="#4D758C"/>
<path d="M37.3833 12.0591C38.2203 15.4128 39.8942 17.928 43.4511 16.6704C45.5435 16.0416 53.9129 17.928 54.5406 17.7184C56.0052 17.0896 56.6329 15.6224 56.8422 13.9455C57.2606 9.33425 53.9129 -1.14596 47.8451 0.321268C45.7527 0.95008 41.7773 4.09414 39.2664 7.2382C36.7556 10.3823 39.0572 7.44781 39.0572 7.44781C37.8018 9.12464 36.9649 10.8015 37.3833 12.0591Z" fill="#457591"/>
<path d="M56.8426 12.6884C56.0057 7.86755 52.8671 1.36982 48.0547 2.41784C44.9162 3.46586 38.4299 9.33478 37.593 12.6884C37.1745 11.4308 36.756 10.1732 39.0576 7.23874L39.2669 7.02913C41.7777 3.88507 45.7531 0.950612 47.8455 0.112196C53.7041 -1.14543 56.8426 8.49636 56.8426 12.6884Z" fill="#457591"/>
<g opacity="0.5">
<path d="M57.6805 18.5554C56.0066 22.1187 52.0312 22.3283 47.8465 22.3283C46.8003 22.3283 45.9634 22.3283 44.9172 22.3283C43.2433 22.3283 42.6156 22.1187 41.9879 21.9091C39.6863 20.6514 37.1755 19.6034 34.8739 18.5554L36.9663 16.2498L37.3847 15.8306H52.8681C54.3328 16.669 57.0528 18.1362 57.6805 18.5554Z" fill="#4D758C"/>
</g>
<path d="M38.6391 17.5097C38.6391 20.2346 42.6146 20.6538 45.3346 20.8634C52.2394 21.073 56.8425 21.2826 56.8425 14.7849C56.8425 11.8504 54.9594 9.12557 52.0301 9.12557C48.4732 9.12557 38.6391 13.7369 38.6391 17.5097Z" fill="#56829B"/>
<path d="M47.4269 19.8157C29.4327 19.8157 47.4269 9.96426 52.0301 9.75465C54.3317 9.75465 56.0056 11.8507 56.0056 14.5755C56.0056 20.0253 52.6578 19.8157 47.4269 19.8157Z" fill="#5184A3"/>
<path d="M56.0058 14.5755C56.0058 15.6236 55.7965 16.8812 55.1688 17.9292C54.9596 15.414 53.2857 13.5275 51.1934 13.5275C49.101 13.5275 43.6609 15.6236 40.3132 18.558C36.9654 21.4925 40.3132 18.558 40.1039 18.3484C37.3839 15.6236 48.2641 9.96426 52.2395 9.75465C54.3319 9.96426 56.0058 11.8507 56.0058 14.5755Z" fill="#4D758C"/>
<g opacity="0.1">
<path d="M41.3594 14.7842C40.7317 15.2034 39.8948 16.2514 39.6855 17.0898C39.6855 17.509 39.6855 17.9282 40.104 18.3474C40.104 18.3474 40.104 18.557 40.3132 18.557C40.5225 18.7666 40.5225 18.7666 40.7317 18.9762C40.3132 19.3955 39.6855 19.3955 37.1747 19.6051C36.1285 18.9762 35.0824 18.557 34.0362 18.1378C33.6177 18.3474 33.4085 18.3474 33.1992 18.557C32.5715 18.7666 31.7346 19.1858 31.1069 19.3955C28.5961 19.1858 28.1776 19.1858 27.5499 18.7666C28.3868 18.3474 29.0145 17.2994 27.7591 15.8322C27.3407 15.413 27.1314 14.9938 26.713 14.7842C26.713 14.365 27.7591 8.70564 27.7591 8.49604C27.9684 7.86722 28.1776 7.44802 28.5961 7.23841C29.0145 7.02881 28.8053 7.44802 28.8053 7.44802C30.0607 9.12485 30.8977 10.8017 30.4792 12.0593C30.0607 13.5265 29.6422 14.9938 28.5961 15.8322C28.8053 16.2514 29.0145 16.6706 29.0145 17.0898C29.433 16.8802 30.0607 16.461 30.6884 16.2514C31.9438 15.8322 32.99 15.2034 34.0362 14.7842C35.7101 15.6226 37.1747 16.461 38.8486 17.2994C38.8486 16.8802 39.0578 16.461 39.2671 16.0418C38.4301 14.9938 37.8024 13.7361 37.3839 12.2689C36.9655 11.0113 37.8024 9.33445 39.2671 7.65762C39.2671 7.65762 39.2671 7.44802 39.4763 7.44802C39.8948 7.44802 40.104 7.86722 40.3132 8.49604C40.3132 8.91524 41.3594 14.5746 41.3594 14.7842Z" fill="#111D33"/>
</g>
<path d="M27.3406 16.6706C27.1314 17.509 27.7591 18.1378 28.3868 18.1378C33.1992 18.7666 34.4546 18.7666 39.4762 18.1378C40.3132 18.1378 40.7316 17.2994 40.5224 16.6706L39.4762 11.6401C39.4762 11.0112 38.8485 10.8016 38.2208 10.8016C35.5008 11.4305 31.9438 11.4305 29.2237 10.8016C28.596 10.592 28.1775 11.0112 27.9683 11.6401L27.3406 16.6706Z" fill="#457591"/>
<path d="M27.9682 13.3176C27.759 13.9464 28.3867 14.7848 29.0144 14.7848C33.1991 15.4136 34.873 15.4136 39.0577 14.7848C39.6854 14.7848 40.3131 14.156 40.1038 13.3176L39.2669 8.70632C39.2669 8.28711 38.6392 7.8679 38.2207 8.0775C35.9191 8.70632 32.3621 8.70632 30.0606 8.0775C29.6421 7.8679 29.0144 8.28711 29.0144 8.70632L27.9682 13.3176Z" fill="#457591"/>
</g>
</g>
<defs>
<filter id="filter0_d_23_5253" x="-4.00111" y="-1.00028" width="75.0022" height="75.3412" filterUnits="userSpaceOnUse" color-interpolation-filters="sRGB">
<feFlood flood-opacity="0" result="BackgroundImageFix"/>
<feColorMatrix in="SourceAlpha" type="matrix" values="0 0 0 0 0 0 0 0 0 0 0 0 0 0 0 0 0 0 127 0" result="hardAlpha"/>
<feOffset dy="3"/>
<feGaussianBlur stdDeviation="2"/>
<feComposite in2="hardAlpha" operator="out"/>
<feColorMatrix type="matrix" values="0 0 0 0 0 0 0 0 0 0 0 0 0 0 0 0 0 0 0.25 0"/>
<feBlend mode="normal" in2="BackgroundImageFix" result="effect1_dropShadow_23_5253"/>
<feBlend mode="normal" in="SourceGraphic" in2="effect1_dropShadow_23_5253" result="shape"/>
</filter>
<filter id="filter1_d_23_5253" x="3.44285" y="-1.00028" width="61.1878" height="74.0029" filterUnits="userSpaceOnUse" color-interpolation-filters="sRGB">
<feFlood flood-opacity="0" result="BackgroundImageFix"/>
<feColorMatrix in="SourceAlpha" type="matrix" values="0 0 0 0 0 0 0 0 0 0 0 0 0 0 0 0 0 0 127 0" result="hardAlpha"/>
<feOffset dy="3"/>
<feGaussianBlur stdDeviation="2"/>
<feComposite in2="hardAlpha" operator="out"/>
<feColorMatrix type="matrix" values="0 0 0 0 0 0 0 0 0 0 0 0 0 0 0 0 0 0 0.25 0"/>
<feBlend mode="normal" in2="BackgroundImageFix" result="effect1_dropShadow_23_5253"/>
<feBlend mode="normal" in="SourceGraphic" in2="effect1_dropShadow_23_5253" result="shape"/>
</filter>
</defs>
</svg>
