<svg width="24" height="24" viewBox="0 0 24 24" fill="none" xmlns="http://www.w3.org/2000/svg">
<path d="M12.0024 4.63947C13.7221 4.61302 15.3852 5.25345 16.6427 6.42638L20.0298 3.11558C17.8568 1.08012 14.9802 -0.0360172 12.0024 0.000886819C9.77748 0.000372912 7.59629 0.61856 5.70275 1.78632C3.8092 2.95407 2.27796 4.62535 1.28027 6.61326L5.16128 9.62528C5.63583 8.1829 6.55135 6.92581 7.77874 6.03129C9.00613 5.13676 10.4835 4.64994 12.0024 4.63947Z" fill="#E43E2B"/>
<path d="M23.5239 12.2651C23.5381 11.4404 23.4528 10.6169 23.27 9.81257H12.0021V14.2654H18.617C18.4915 15.0461 18.2094 15.7934 17.7875 16.4622C17.3657 17.1311 16.8129 17.7078 16.1624 18.1576L19.9499 21.0901C21.1303 19.9509 22.0586 18.5769 22.6748 17.0568C23.291 15.5367 23.5814 13.9043 23.5274 12.2651H23.5239Z" fill="#3B7DED"/>
<path d="M5.17508 14.3706C4.91267 13.6069 4.77739 12.8053 4.77463 11.9977C4.77941 11.1915 4.90985 10.3909 5.16123 9.62478L1.28022 6.61276C0.438459 8.28331 0 10.1278 0 11.9983C0 13.8688 0.438459 15.7133 1.28022 17.3838L5.17508 14.3706Z" fill="#F0B501"/>
<path d="M12.0024 23.9954C14.9259 24.0781 17.77 23.0382 19.9502 21.0895L16.1627 18.1571C14.9346 18.9801 13.4803 19.3995 12.0024 19.3568C10.4848 19.3478 9.0085 18.8613 7.78303 17.9664C6.55756 17.0715 5.64512 15.8135 5.17513 14.371L1.29412 17.3842C2.28913 19.3712 3.81786 21.0421 5.70912 22.2098C7.60038 23.3774 9.77948 23.9957 12.0024 23.9954Z" fill="#2BA24C"/>
</svg>
