<svg width="20" height="20" viewBox="0 0 20 20" fill="none" xmlns="http://www.w3.org/2000/svg">
<g clip-path="url(#clip0_800_8485)">
<path d="M17.3601 7.4429C17.3601 7.4429 16.8442 13.4483 16.5449 15.9779C16.4024 17.1861 15.6072 17.8941 14.3047 17.9164C11.8259 17.9583 9.34432 17.961 6.86653 17.912C5.61339 17.8879 4.83148 17.171 4.69182 15.9842C4.39064 13.4322 3.87761 7.4429 3.87761 7.4429M18.6743 4.56417H2.56299M15.5699 4.56415C14.8241 4.56415 14.1818 4.06928 14.0355 3.38358L13.8046 2.29932C13.6621 1.79909 13.1795 1.45312 12.6294 1.45312H8.60773C8.05764 1.45312 7.575 1.79909 7.43249 2.29932L7.20163 3.38358C7.05531 4.06928 6.41307 4.56415 5.66726 4.56415" stroke="#B73E53" stroke-width="1.5" stroke-linecap="round" stroke-linejoin="round"/>
</g>
<defs>
<clipPath id="clip0_800_8485">
<rect width="20" height="20" fill="white"/>
</clipPath>
</defs>
</svg>
