<svg width="104" height="111" viewBox="0 0 104 111" fill="none" xmlns="http://www.w3.org/2000/svg">
<g filter="url(#filter0_d_742_27697)">
<path d="M94.031 32.0451L52.5279 8.32905C51.9192 7.98127 51.1761 7.98127 50.5674 8.32905L9.06429 32.0451C8.44767 32.3969 8.06822 33.053 8.06822 33.7606V77.24C8.06822 77.9476 8.44767 78.6037 9.06429 78.9555L50.5674 102.672C50.8718 102.846 51.2078 102.932 51.5477 102.932C51.8877 102.932 52.2237 102.846 52.5281 102.672L94.0312 78.9555C94.6478 78.6037 95.0273 77.9476 95.0273 77.24V33.7606C95.0271 33.053 94.6476 32.3969 94.031 32.0451Z" fill="url(#paint0_linear_742_27697)"/>
<path d="M93.1956 33.507L93.1965 33.5076C93.2867 33.559 93.3434 33.6563 93.3435 33.761V77.24C93.3435 77.3444 93.2869 77.4416 93.1967 77.4931L93.1958 77.4936L51.6927 101.21L51.6926 101.21C51.6452 101.237 51.5977 101.249 51.5477 101.249C51.4978 101.249 51.4503 101.237 51.4029 101.21L51.4028 101.21L9.8997 77.4936L9.89881 77.4931C9.80855 77.4416 9.75203 77.3444 9.75203 77.24V33.7606C9.75203 33.6562 9.80856 33.559 9.8988 33.5076L9.8997 33.507L51.4028 9.79104C51.4028 9.79103 51.4028 9.79102 51.4028 9.79101C51.4938 9.73904 51.6015 9.73904 51.6925 9.79101C51.6925 9.79102 51.6925 9.79103 51.6925 9.79104L93.1956 33.507Z" stroke="white" stroke-width="3.36607"/>
</g>
<g clip-path="url(#clip0_742_27697)">
<path d="M36.92 60.8479C40.0011 61.2458 42.689 62.497 44.5922 64.2208C44.9908 64.5818 44.8423 65.7311 44.3652 65.979C42.0865 67.1627 39.1689 67.6901 36.0879 67.2922C33.0069 66.8943 30.3189 65.6431 28.4157 63.9193C28.0171 63.5583 28.1656 62.409 28.6428 62.1611C30.9214 60.9774 33.839 60.45 36.92 60.8479Z" fill="url(#paint1_linear_742_27697)"/>
<path d="M36.92 60.8479C40.0011 61.2458 42.689 62.497 44.5922 64.2208C44.9908 64.5818 44.8423 65.7311 44.3652 65.979C42.0865 67.1627 39.1689 67.6901 36.0879 67.2922C33.0069 66.8943 30.3189 65.6431 28.4157 63.9193C28.0171 63.5583 28.1656 62.409 28.6428 62.1611C30.9214 60.9774 33.839 60.45 36.92 60.8479Z" fill="url(#paint2_linear_742_27697)"/>
<path d="M37.2803 56.534C40.5753 57.9625 43.1603 60.2132 44.7224 62.7373C45.0495 63.2659 44.5167 64.495 43.9073 64.6176C40.9972 65.2029 37.5873 64.8543 34.2925 63.4259C30.9975 61.9974 28.4124 59.7468 26.8503 57.2226C26.5232 56.6941 27.0561 55.4649 27.6655 55.3423C30.5756 54.7571 33.9853 55.1056 37.2803 56.534Z" fill="url(#paint3_linear_742_27697)"/>
<path d="M37.2803 56.534C40.5753 57.9625 43.1603 60.2132 44.7224 62.7373C45.0495 63.2659 44.5167 64.495 43.9073 64.6176C40.9972 65.2029 37.5873 64.8543 34.2925 63.4259C30.9975 61.9974 28.4124 59.7468 26.8503 57.2226C26.5232 56.6941 27.0561 55.4649 27.6655 55.3423C30.5756 54.7571 33.9853 55.1056 37.2803 56.534Z" fill="url(#paint4_linear_742_27697)"/>
<path d="M43.2117 49.6075C44.5315 52.9475 44.768 56.3669 44.0877 59.2562C43.9453 59.8613 42.6993 60.3536 42.1817 60.0094C39.7101 58.3654 37.5454 55.7079 36.2257 52.368C34.9059 49.028 34.6694 45.6086 35.3497 42.7193C35.4921 42.1142 36.7381 41.6219 37.2557 41.9661C39.7273 43.61 41.892 46.2675 43.2117 49.6075Z" fill="url(#paint5_linear_742_27697)"/>
<path d="M43.2117 49.6075C44.5315 52.9475 44.768 56.3669 44.0877 59.2562C43.9453 59.8613 42.6993 60.3536 42.1817 60.0094C39.7101 58.3654 37.5454 55.7079 36.2257 52.368C34.9059 49.028 34.6694 45.6086 35.3497 42.7193C35.4921 42.1142 36.7381 41.6219 37.2557 41.9661C39.7273 43.61 41.892 46.2675 43.2117 49.6075Z" fill="url(#paint6_linear_742_27697)"/>
<path d="M38.403 49.7335C41.7627 52.7539 43.9472 56.4715 44.802 60.1066C44.981 60.8678 43.8543 62.1211 43.0783 62.0239C39.3731 61.5593 35.4449 59.7813 32.0852 56.7608C28.7256 53.7404 26.5411 50.0228 25.6862 46.3877C25.5072 45.6265 26.6339 44.3731 27.4099 44.4704C31.115 44.935 35.0433 46.7131 38.403 49.7335Z" fill="url(#paint7_linear_742_27697)"/>
<path d="M27.2246 50.5177C28.3675 52.7428 29.9995 54.886 32.0846 56.7606C35.4443 59.781 39.3724 61.559 43.0777 62.0236C43.8536 62.1209 44.9804 60.8677 44.8014 60.1063C43.9465 56.4713 41.762 52.7537 38.4024 49.7332C36.4241 47.9546 34.2484 46.6074 32.0375 45.7049L27.2246 50.5177Z" fill="url(#paint8_linear_742_27697)"/>
<path d="M66.5269 60.8479C63.4459 61.2458 60.7579 62.497 58.8547 64.2208C58.4561 64.5818 58.6046 65.7311 59.0818 65.979C61.3604 67.1627 64.278 67.6901 67.359 67.2922C70.4401 66.8943 73.128 65.6431 75.0312 63.9193C75.4298 63.5583 75.2813 62.409 74.8042 62.1611C72.5255 60.9774 69.6079 60.45 66.5269 60.8479Z" fill="url(#paint9_linear_742_27697)"/>
<path d="M66.5269 60.8479C63.4459 61.2458 60.7579 62.497 58.8547 64.2208C58.4561 64.5818 58.6046 65.7311 59.0818 65.979C61.3604 67.1627 64.278 67.6901 67.359 67.2922C70.4401 66.8943 73.128 65.6431 75.0312 63.9193C75.4298 63.5583 75.2813 62.409 74.8042 62.1611C72.5255 60.9774 69.6079 60.45 66.5269 60.8479Z" fill="url(#paint10_linear_742_27697)"/>
<path d="M66.1667 56.534C62.8717 57.9625 60.2867 60.2132 58.7245 62.7373C58.3975 63.2659 58.9303 64.495 59.5397 64.6176C62.4498 65.2029 65.8596 64.8543 69.1545 63.4259C72.4495 61.9974 75.0346 59.7468 76.5967 57.2226C76.9238 56.6941 76.3909 55.4649 75.7815 55.3423C72.8714 54.7571 69.4617 55.1056 66.1667 56.534Z" fill="url(#paint11_linear_742_27697)"/>
<path d="M66.1667 56.534C62.8717 57.9625 60.2867 60.2132 58.7245 62.7373C58.3975 63.2659 58.9303 64.495 59.5397 64.6176C62.4498 65.2029 65.8596 64.8543 69.1545 63.4259C72.4495 61.9974 75.0346 59.7468 76.5967 57.2226C76.9238 56.6941 76.3909 55.4649 75.7815 55.3423C72.8714 54.7571 69.4617 55.1056 66.1667 56.534Z" fill="url(#paint12_linear_742_27697)"/>
<path d="M60.233 49.6075C58.9132 52.9475 58.6767 56.3669 59.357 59.2562C59.4994 59.8613 60.7454 60.3536 61.263 60.0094C63.7346 58.3654 65.8993 55.7079 67.219 52.368C68.5388 49.028 68.7753 45.6086 68.095 42.7193C67.9526 42.1142 66.7066 41.6219 66.189 41.9661C63.7174 43.61 61.5527 46.2675 60.233 49.6075Z" fill="url(#paint13_linear_742_27697)"/>
<path d="M60.233 49.6075C58.9132 52.9475 58.6767 56.3669 59.357 59.2562C59.4994 59.8613 60.7454 60.3536 61.263 60.0094C63.7346 58.3654 65.8993 55.7079 67.219 52.368C68.5388 49.028 68.7753 45.6086 68.095 42.7193C67.9526 42.1142 66.7066 41.6219 66.189 41.9661C63.7174 43.61 61.5527 46.2675 60.233 49.6075Z" fill="url(#paint14_linear_742_27697)"/>
<path d="M65.043 49.7335C61.6833 52.7539 59.4988 56.4715 58.644 60.1066C58.465 60.8678 59.5917 62.1211 60.3676 62.0239C64.0729 61.5593 68.0011 59.7813 71.3607 56.7608C74.7204 53.7404 76.9049 50.0228 77.7597 46.3877C77.9388 45.6265 76.812 44.3731 76.0361 44.4704C72.3309 44.935 68.4026 46.7131 65.043 49.7335Z" fill="url(#paint15_linear_742_27697)"/>
<path d="M76.2207 50.5177C75.0778 52.7428 73.4458 54.886 71.3607 56.7606C68.0011 59.781 64.0729 61.559 60.3676 62.0236C59.5917 62.1209 58.465 60.8677 58.644 60.1063C59.4988 56.4713 61.6833 52.7537 65.043 49.7332C67.0213 47.9546 69.1969 46.6074 71.4079 45.7049L76.2207 50.5177Z" fill="url(#paint16_linear_742_27697)"/>
<path d="M51.7228 74.351C60.697 74.351 67.972 67.076 67.972 58.1018C67.972 49.1276 60.697 41.8525 51.7228 41.8525C42.7486 41.8525 35.4736 49.1276 35.4736 58.1018C35.4736 67.076 42.7486 74.351 51.7228 74.351Z" fill="url(#paint17_linear_742_27697)"/>
<path d="M51.7238 71.0526C58.8768 71.0526 64.6756 65.2539 64.6756 58.1008C64.6756 50.9477 58.8768 45.149 51.7238 45.149C44.5707 45.149 38.772 50.9477 38.772 58.1008C38.772 65.2539 44.5707 71.0526 51.7238 71.0526Z" fill="url(#paint18_linear_742_27697)"/>
<path d="M51.7231 69.2212C57.8641 69.2212 62.8423 64.243 62.8423 58.102C62.8423 51.9611 57.8641 46.9828 51.7231 46.9828C45.5821 46.9828 40.6039 51.9611 40.6039 58.102C40.6039 64.243 45.5821 69.2212 51.7231 69.2212Z" fill="url(#paint19_linear_742_27697)"/>
<path d="M35.4736 58.1023C35.4736 67.0766 42.7486 74.3516 51.7228 74.3516C60.697 74.3516 67.972 67.0766 67.972 58.1023C67.972 58.0393 67.9704 57.9767 67.9697 57.9137H35.4759C35.4752 57.9767 35.4736 58.0393 35.4736 58.1023Z" fill="url(#paint20_linear_742_27697)"/>
<path d="M56.2798 73.7018C61.4 72.2086 65.4743 68.2639 67.1473 63.2231L59.2331 55.309L57.449 55.3965L52.6337 50.5812L46.765 64.1869L56.2798 73.7018Z" fill="url(#paint21_linear_742_27697)"/>
<path d="M58.3845 54.5711L55.1978 53.8012C54.9014 53.7295 54.6424 53.5498 54.4714 53.2972L52.6344 50.5818C52.4122 50.2534 52.0718 50.0771 51.7216 50.0487C51.3713 50.0771 51.0308 50.2534 50.8087 50.5818L48.9717 53.2972C48.8009 53.5498 48.5418 53.7295 48.2453 53.8012L45.0586 54.5711C44.1942 54.78 43.834 55.8117 44.3805 56.5132L46.3954 59.0994C46.5828 59.34 46.6737 59.6419 46.6502 59.946L46.3977 63.2146C46.3292 64.1012 47.1991 64.7627 48.0352 64.4596L51.1175 63.3426C51.3122 63.272 51.52 63.2538 51.7216 63.2851C51.9233 63.2539 52.1309 63.2721 52.3257 63.3426L55.4079 64.4596C56.2439 64.7626 57.1139 64.1012 57.0454 63.2146L56.793 59.946C56.7695 59.6419 56.8604 59.34 57.0478 59.0994L59.0627 56.5132C59.6091 55.8117 59.249 54.78 58.3845 54.5711Z" fill="url(#paint22_linear_742_27697)"/>
<path d="M52.3255 63.3426L55.4077 64.4596C56.2438 64.7626 57.1137 64.1012 57.0453 63.2146L56.7928 59.946C56.7693 59.6419 56.8602 59.34 57.0476 59.0994L59.0625 56.5132C59.609 55.8118 59.2488 54.78 58.3843 54.5711L55.1976 53.8012C54.9012 53.7295 54.6422 53.5498 54.4712 53.2972L52.6343 50.5818C52.412 50.2534 52.0717 50.0771 51.7214 50.0487V63.2851C51.9231 63.2538 52.1308 63.272 52.3255 63.3426Z" fill="url(#paint23_linear_742_27697)"/>
<path d="M58.3847 54.5703L55.198 53.8004C55.0892 53.7741 54.9856 53.733 54.8894 53.6793L46.7659 64.1868C47.0846 64.4947 47.5654 64.6293 48.0354 64.459L51.1177 63.342C51.3124 63.2713 51.5202 63.2532 51.7218 63.2844C51.9235 63.2533 52.1311 63.2715 52.3259 63.342L55.4081 64.459C56.2441 64.7619 57.1141 64.1005 57.0456 63.2139L56.7931 59.9453C56.7696 59.6412 56.8606 59.3394 57.048 59.0987L59.0629 56.5126C59.6093 55.8109 59.2491 54.7792 58.3847 54.5703Z" fill="url(#paint24_linear_742_27697)"/>
<path d="M45.0586 54.5703L48.2453 53.8004C48.3541 53.7741 48.4578 53.733 48.5539 53.6793L56.6774 64.1868C56.3587 64.4947 55.8779 64.6293 55.4079 64.459L52.3257 63.342C52.1309 63.2713 51.9232 63.2532 51.7216 63.2844C51.5199 63.2533 51.3122 63.2715 51.1175 63.342L48.0352 64.459C47.1992 64.7619 46.3292 64.1005 46.3977 63.2139L46.6502 59.9453C46.6737 59.6412 46.5828 59.3394 46.3954 59.0987L44.3805 56.5126C43.834 55.8109 44.1942 54.7792 45.0586 54.5703Z" fill="url(#paint25_linear_742_27697)"/>
<path d="M44.2111 55.309C44.0596 55.6911 44.096 56.1466 44.3811 56.5127L46.396 59.0988C46.5834 59.3395 46.6744 59.6413 46.6509 59.9454L46.3984 63.214C46.3299 64.1006 47.1998 64.7622 48.0359 64.4591L51.1182 63.3421C51.3129 63.2715 51.5206 63.2533 51.7222 63.2845C51.9239 63.2534 52.1316 63.2716 52.3263 63.3421L55.4086 64.4591C56.2446 64.7621 57.1146 64.1006 57.0461 63.214L56.7936 59.9454C56.7805 59.7767 56.8039 59.609 56.8583 59.4518L44.2111 55.309Z" fill="url(#paint26_linear_742_27697)"/>
<path d="M59.2344 55.309C59.386 55.6911 59.3497 56.1466 59.0644 56.5127L57.0495 59.0988C56.8621 59.3395 56.7712 59.6413 56.7947 59.9454L57.0472 63.214C57.1156 64.1006 56.2457 64.7622 55.4097 64.4591L52.3274 63.3421C52.1327 63.2715 51.9249 63.2533 51.7233 63.2845C51.5216 63.2534 51.314 63.2716 51.1192 63.3421L48.037 64.4591C47.2009 64.7621 46.331 64.1006 46.3995 63.214L46.6519 59.9454C46.665 59.7767 46.6416 59.609 46.5873 59.4518L59.2344 55.309Z" fill="url(#paint27_linear_742_27697)"/>
</g>
<defs>
<filter id="filter0_d_742_27697" x="0.000313905" y="0.000313905" width="103.095" height="111" filterUnits="userSpaceOnUse" color-interpolation-filters="sRGB">
<feFlood flood-opacity="0" result="BackgroundImageFix"/>
<feColorMatrix in="SourceAlpha" type="matrix" values="0 0 0 0 0 0 0 0 0 0 0 0 0 0 0 0 0 0 127 0" result="hardAlpha"/>
<feOffset/>
<feGaussianBlur stdDeviation="4.03207"/>
<feComposite in2="hardAlpha" operator="out"/>
<feColorMatrix type="matrix" values="0 0 0 0 0 0 0 0 0 0 0 0 0 0 0 0 0 0 0.33 0"/>
<feBlend mode="normal" in2="BackgroundImageFix" result="effect1_dropShadow_742_27697"/>
<feBlend mode="normal" in="SourceGraphic" in2="effect1_dropShadow_742_27697" result="shape"/>
</filter>
<linearGradient id="paint0_linear_742_27697" x1="8.06822" y1="55.5003" x2="95.0273" y2="55.5003" gradientUnits="userSpaceOnUse">
<stop stop-color="#CCA3B7"/>
<stop offset="0.966667" stop-color="#EDA674"/>
</linearGradient>
<linearGradient id="paint1_linear_742_27697" x1="33.0987" y1="59.375" x2="36.4707" y2="64.0242" gradientUnits="userSpaceOnUse">
<stop stop-color="#FEF0AE"/>
<stop offset="1" stop-color="#FBC56D"/>
</linearGradient>
<linearGradient id="paint2_linear_742_27697" x1="32.7917" y1="62.3567" x2="38.105" y2="64.809" gradientUnits="userSpaceOnUse">
<stop stop-color="#DC8758" stop-opacity="0"/>
<stop offset="0.9957" stop-color="#DC8758" stop-opacity="0.996"/>
<stop offset="1" stop-color="#DC8758"/>
</linearGradient>
<linearGradient id="paint3_linear_742_27697" x1="29.6401" y1="55.4126" x2="35.2089" y2="59.5509" gradientUnits="userSpaceOnUse">
<stop stop-color="#FEF0AE"/>
<stop offset="1" stop-color="#FBC56D"/>
</linearGradient>
<linearGradient id="paint4_linear_742_27697" x1="31.9747" y1="60.0415" x2="36.1981" y2="59.9734" gradientUnits="userSpaceOnUse">
<stop stop-color="#DC8758" stop-opacity="0"/>
<stop offset="0.9957" stop-color="#DC8758" stop-opacity="0.996"/>
<stop offset="1" stop-color="#DC8758"/>
</linearGradient>
<linearGradient id="paint5_linear_742_27697" x1="40.8263" y1="45.8926" x2="39.5491" y2="51.7679" gradientUnits="userSpaceOnUse">
<stop stop-color="#FEF0AE"/>
<stop offset="1" stop-color="#FBC56D"/>
</linearGradient>
<linearGradient id="paint6_linear_742_27697" x1="35.3072" y1="46.4843" x2="38.5769" y2="49.8221" gradientUnits="userSpaceOnUse">
<stop stop-color="#DC8758" stop-opacity="0"/>
<stop offset="0.9957" stop-color="#DC8758" stop-opacity="0.996"/>
<stop offset="1" stop-color="#DC8758"/>
</linearGradient>
<linearGradient id="paint7_linear_742_27697" x1="33.3438" y1="47.3042" x2="36.1537" y2="56.0916" gradientUnits="userSpaceOnUse">
<stop stop-color="#FEF0AE"/>
<stop offset="1" stop-color="#FBC56D"/>
</linearGradient>
<linearGradient id="paint8_linear_742_27697" x1="33.9092" y1="52.0889" x2="37.5195" y2="55.2224" gradientUnits="userSpaceOnUse">
<stop stop-color="#DC8758" stop-opacity="0"/>
<stop offset="0.9957" stop-color="#DC8758" stop-opacity="0.996"/>
<stop offset="1" stop-color="#DC8758"/>
</linearGradient>
<linearGradient id="paint9_linear_742_27697" x1="70.3481" y1="59.375" x2="66.9762" y2="64.0242" gradientUnits="userSpaceOnUse">
<stop stop-color="#FEF0AE"/>
<stop offset="1" stop-color="#FBC56D"/>
</linearGradient>
<linearGradient id="paint10_linear_742_27697" x1="70.6552" y1="62.3567" x2="65.3419" y2="64.809" gradientUnits="userSpaceOnUse">
<stop stop-color="#DC8758" stop-opacity="0"/>
<stop offset="0.9957" stop-color="#DC8758" stop-opacity="0.996"/>
<stop offset="1" stop-color="#DC8758"/>
</linearGradient>
<linearGradient id="paint11_linear_742_27697" x1="73.8069" y1="55.4126" x2="68.2381" y2="59.5509" gradientUnits="userSpaceOnUse">
<stop stop-color="#FEF0AE"/>
<stop offset="1" stop-color="#FBC56D"/>
</linearGradient>
<linearGradient id="paint12_linear_742_27697" x1="71.4723" y1="60.0415" x2="67.2489" y2="59.9734" gradientUnits="userSpaceOnUse">
<stop stop-color="#DC8758" stop-opacity="0"/>
<stop offset="0.9957" stop-color="#DC8758" stop-opacity="0.996"/>
<stop offset="1" stop-color="#DC8758"/>
</linearGradient>
<linearGradient id="paint13_linear_742_27697" x1="62.6184" y1="45.8926" x2="63.8956" y2="51.7679" gradientUnits="userSpaceOnUse">
<stop stop-color="#FEF0AE"/>
<stop offset="1" stop-color="#FBC56D"/>
</linearGradient>
<linearGradient id="paint14_linear_742_27697" x1="68.1375" y1="46.4843" x2="64.8677" y2="49.8221" gradientUnits="userSpaceOnUse">
<stop stop-color="#DC8758" stop-opacity="0"/>
<stop offset="0.9957" stop-color="#DC8758" stop-opacity="0.996"/>
<stop offset="1" stop-color="#DC8758"/>
</linearGradient>
<linearGradient id="paint15_linear_742_27697" x1="70.1022" y1="47.3042" x2="67.2923" y2="56.0916" gradientUnits="userSpaceOnUse">
<stop stop-color="#FEF0AE"/>
<stop offset="1" stop-color="#FBC56D"/>
</linearGradient>
<linearGradient id="paint16_linear_742_27697" x1="69.5361" y1="52.0889" x2="65.9258" y2="55.2224" gradientUnits="userSpaceOnUse">
<stop stop-color="#DC8758" stop-opacity="0"/>
<stop offset="0.9957" stop-color="#DC8758" stop-opacity="0.996"/>
<stop offset="1" stop-color="#DC8758"/>
</linearGradient>
<linearGradient id="paint17_linear_742_27697" x1="41.7045" y1="48.0834" x2="58.8417" y2="65.2206" gradientUnits="userSpaceOnUse">
<stop stop-color="#FEF0AE"/>
<stop offset="1" stop-color="#FBC56D"/>
</linearGradient>
<linearGradient id="paint18_linear_742_27697" x1="60.1358" y1="66.5128" x2="43.0663" y2="49.4433" gradientUnits="userSpaceOnUse">
<stop stop-color="#FEF0AE"/>
<stop offset="1" stop-color="#FBC56D"/>
</linearGradient>
<linearGradient id="paint19_linear_742_27697" x1="43.6398" y1="50.0187" x2="56.9453" y2="63.3242" gradientUnits="userSpaceOnUse">
<stop stop-color="#FEF0AE"/>
<stop offset="1" stop-color="#FBC56D"/>
</linearGradient>
<linearGradient id="paint20_linear_742_27697" x1="51.7228" y1="62.8566" x2="51.7228" y2="73.5221" gradientUnits="userSpaceOnUse">
<stop stop-color="#DC8758" stop-opacity="0"/>
<stop offset="0.9957" stop-color="#DC8758" stop-opacity="0.996"/>
<stop offset="1" stop-color="#DC8758"/>
</linearGradient>
<linearGradient id="paint21_linear_742_27697" x1="61.4544" y1="66.5462" x2="48.0348" y2="58.0993" gradientUnits="userSpaceOnUse">
<stop stop-color="#DC8758" stop-opacity="0"/>
<stop offset="0.9957" stop-color="#DC8758" stop-opacity="0.996"/>
<stop offset="1" stop-color="#DC8758"/>
</linearGradient>
<linearGradient id="paint22_linear_742_27697" x1="48.3368" y1="55.0133" x2="54.4406" y2="61.117" gradientUnits="userSpaceOnUse">
<stop stop-color="#FBC56D"/>
<stop offset="1" stop-color="#C5715A"/>
</linearGradient>
<linearGradient id="paint23_linear_742_27697" x1="55.3787" y1="56.6775" x2="46.9424" y2="60.1651" gradientUnits="userSpaceOnUse">
<stop stop-color="#8C3D27" stop-opacity="0"/>
<stop offset="1" stop-color="#8C3D27"/>
</linearGradient>
<linearGradient id="paint24_linear_742_27697" x1="53.1764" y1="59.6706" x2="48.5577" y2="57.6911" gradientUnits="userSpaceOnUse">
<stop stop-color="#8C3D27" stop-opacity="0"/>
<stop offset="1" stop-color="#8C3D27"/>
</linearGradient>
<linearGradient id="paint25_linear_742_27697" x1="50.2669" y1="59.6706" x2="54.8857" y2="57.6911" gradientUnits="userSpaceOnUse">
<stop stop-color="#8C3D27" stop-opacity="0"/>
<stop offset="1" stop-color="#8C3D27"/>
</linearGradient>
<linearGradient id="paint26_linear_742_27697" x1="50.3703" y1="59.9025" x2="53.3394" y2="55.1306" gradientUnits="userSpaceOnUse">
<stop stop-color="#8C3D27" stop-opacity="0"/>
<stop offset="1" stop-color="#8C3D27"/>
</linearGradient>
<linearGradient id="paint27_linear_742_27697" x1="52.8464" y1="59.2998" x2="52.599" y2="54.634" gradientUnits="userSpaceOnUse">
<stop stop-color="#8C3D27" stop-opacity="0"/>
<stop offset="1" stop-color="#B9624A"/>
</linearGradient>
<clipPath id="clip0_742_27697">
<rect width="52.0873" height="52.0874" fill="white" transform="translate(25.6672 32.5464) scale(1.00047)"/>
</clipPath>
</defs>
</svg>
