<svg width="16" height="20" viewBox="0 0 16 20" fill="none" xmlns="http://www.w3.org/2000/svg">
<mask id="mask0_0_205" style="mask-type:alpha" maskUnits="userSpaceOnUse" x="1" y="3" width="14" height="14">
<path fill-rule="evenodd" clip-rule="evenodd" d="M7.99992 3.33325C4.31992 3.33325 1.33325 6.31992 1.33325 9.99992C1.33325 13.6799 4.31992 16.6666 7.99992 16.6666C11.6799 16.6666 14.6666 13.6799 14.6666 9.99992C14.6666 6.31992 11.6799 3.33325 7.99992 3.33325ZM7.99992 10.6666C7.63325 10.6666 7.33325 10.3666 7.33325 9.99992V7.33325C7.33325 6.96659 7.63325 6.66659 7.99992 6.66659C8.36659 6.66659 8.66659 6.96659 8.66659 7.33325V9.99992C8.66659 10.3666 8.36659 10.6666 7.99992 10.6666ZM7.33325 11.9999V13.3333H8.66659V11.9999H7.33325Z" fill="black"/>
</mask>
<g mask="url(#mask0_0_205)">
<rect y="2" width="16" height="16" fill="#DA1414"/>
</g>
</svg>
