<svg width="21" height="21" viewBox="0 0 21 21" fill="none" xmlns="http://www.w3.org/2000/svg">
<mask id="path-1-inside-1_946_46577" fill="white">
<path d="M18.5207 10.5707C18.5207 14.9614 14.9614 18.5207 10.5708 18.5207C6.18014 18.5207 2.62084 14.9614 2.62084 10.5707C2.62084 6.18013 6.18014 2.62083 10.5708 2.62083C14.9614 2.62083 18.5207 6.18013 18.5207 10.5707Z"/>
</mask>
<path d="M17.647 10.5707C17.647 14.4789 14.4789 17.647 10.5708 17.647V19.3943C15.4439 19.3943 19.3943 15.4438 19.3943 10.5707H17.647ZM10.5708 17.647C6.66262 17.647 3.49446 14.4789 3.49446 10.5707H1.74723C1.74723 15.4438 5.69765 19.3943 10.5708 19.3943V17.647ZM3.49446 10.5707C3.49446 6.66262 6.66262 3.49445 10.5708 3.49445V1.74722C5.69765 1.74722 1.74723 5.69765 1.74723 10.5707H3.49446ZM10.5708 3.49445C14.4789 3.49445 17.647 6.66262 17.647 10.5707H19.3943C19.3943 5.69765 15.4439 1.74722 10.5708 1.74722V3.49445Z" fill="#181B28" fill-opacity="0.4" mask="url(#path-1-inside-1_946_46577)"/>
</svg>
