<svg width="14" height="14" viewBox="0 0 14 14" fill="none" xmlns="http://www.w3.org/2000/svg">
<path d="M12.9193 5.89284L8.54426 1.51784C8.49837 1.47201 8.43993 1.4408 8.37632 1.42816C8.31271 1.41553 8.24678 1.42202 8.18686 1.44684C8.12693 1.47165 8.07571 1.51366 8.03965 1.56757C8.00359 1.62147 7.98432 1.68486 7.98426 1.74971V4.05752C5.00488 4.25385 1.40043 7.06534 0.988088 10.6561C0.974697 10.7705 0.997729 10.8861 1.0539 10.9866C1.11008 11.0871 1.19653 11.1673 1.30095 11.2157C1.40536 11.2642 1.52241 11.2785 1.63543 11.2566C1.74844 11.2347 1.85165 11.1776 1.93035 11.0936C2.54614 10.4368 4.7577 8.34502 7.98426 8.20995V10.4997C7.98432 10.5646 8.00359 10.6279 8.03965 10.6819C8.07571 10.7358 8.12693 10.7778 8.18686 10.8026C8.24678 10.8274 8.31271 10.8339 8.37632 10.8213C8.43993 10.8086 8.49837 10.7774 8.54426 10.7316L12.9193 6.35659C12.9807 6.29506 13.0152 6.21166 13.0152 6.12471C13.0152 6.03776 12.9807 5.95436 12.9193 5.89284ZM8.64051 9.70784V7.87471C8.64051 7.78769 8.60594 7.70423 8.5444 7.64269C8.48287 7.58116 8.39941 7.54659 8.31238 7.54659C6.7959 7.54659 5.3177 7.94307 3.91988 8.7251C3.10517 9.18277 2.3547 9.7464 1.68809 10.4013C1.94512 8.94877 2.79059 7.55752 4.09434 6.44901C5.38496 5.3558 6.96106 4.70284 8.31238 4.70284C8.39941 4.70284 8.48287 4.66827 8.5444 4.60673C8.60594 4.54519 8.64051 4.46174 8.64051 4.37471V2.54213L12.2231 6.12471L8.64051 9.70784Z" fill="#181B28" fill-opacity="0.7" stroke="#181B28" stroke-opacity="0.7" stroke-width="0.3"/>
</svg>
