<svg width="44" height="41" viewBox="0 0 44 41" fill="none" xmlns="http://www.w3.org/2000/svg">
<path d="M1.88324 28.1586L15.4668 4.63124C18.3704 -0.397912 25.6294 -0.397912 28.533 4.63124L42.1165 28.1587C45.0202 33.1878 41.3906 39.4743 35.5834 39.4743H8.41638C2.60916 39.4743 -1.02033 33.1878 1.88324 28.1586Z" fill="#B73E53" fill-opacity="0.2"/>
<path d="M21.9996 33.0874C23.3284 33.0874 24.4056 32.0102 24.4056 30.6814C24.4056 29.3526 23.3284 28.2754 21.9996 28.2754C20.6708 28.2754 19.5936 29.3526 19.5936 30.6814C19.5936 32.0102 20.6708 33.0874 21.9996 33.0874Z" fill="white"/>
<path d="M22 23.8052C20.6711 23.8052 19.594 22.728 19.594 21.3992V11.4519C19.594 10.123 20.6712 9.0459 22 9.0459C23.3288 9.0459 24.406 10.1231 24.406 11.4519V21.3992C24.406 22.728 23.3288 23.8052 22 23.8052Z" fill="white"/>
<path d="M35.5835 40.3337H25.566C25.0916 40.3337 24.7068 39.9488 24.7068 39.4744C24.7068 38.9999 25.0916 38.6151 25.566 38.6151H35.5835C38 38.6151 40.1642 37.3656 41.3724 35.2728C42.5808 33.1801 42.5809 30.6811 41.3725 28.5882L27.7889 5.06078C26.5806 2.96802 24.4165 1.71858 22 1.71858C19.5834 1.71858 17.4193 2.96802 16.211 5.06078L2.62743 28.5882C1.41906 30.6811 1.41915 33.1801 2.62752 35.2728C3.83589 37.3656 5.99988 38.6151 8.41644 38.6151H18.0902C18.5646 38.6151 18.9495 38.9999 18.9495 39.4744C18.9495 39.9488 18.5646 40.3337 18.0902 40.3337H8.41644C5.37855 40.3337 2.65811 38.7631 1.13925 36.1322C-0.379693 33.5013 -0.379779 30.3598 1.13917 27.7289L14.7227 4.20149C16.2417 1.57068 18.9621 0 22 0C25.0379 0 27.7584 1.57059 29.2773 4.20149L42.8608 27.7289C44.3797 30.3598 44.3797 33.5013 42.8607 36.1322C41.3418 38.763 38.6212 40.3337 35.5835 40.3337Z" fill="#B73E53"/>
<path d="M22 40.3335C21.774 40.3335 21.5523 40.2416 21.3925 40.0817C21.2321 39.9201 21.1417 39.7019 21.1407 39.4742C21.1407 39.2482 21.2326 39.0265 21.3925 38.8668C21.5524 38.7061 21.7741 38.6149 22 38.6149C22.226 38.6149 22.4477 38.7061 22.6074 38.8668C22.7681 39.0282 22.8587 39.2465 22.8593 39.4742C22.8593 39.7003 22.7674 39.9219 22.6074 40.0817C22.446 40.2423 22.2277 40.3328 22 40.3335ZM22 33.946C20.1995 33.946 18.7347 32.4812 18.7347 30.6807C18.7347 28.8803 20.1995 27.4155 22 27.4155C23.8005 27.4155 25.2653 28.8803 25.2653 30.6807C25.2653 32.4812 23.8005 33.946 22 33.946ZM22 29.134C21.1472 29.134 20.4533 29.8278 20.4533 30.6807C20.4533 31.5335 21.1472 32.2274 22 32.2274C22.8529 32.2274 23.5467 31.5335 23.5467 30.6807C23.5467 29.8278 22.8528 29.134 22 29.134ZM22 24.6644C20.1995 24.6644 18.7347 23.1996 18.7347 21.3992V11.4518C18.7347 9.65133 20.1995 8.18652 22 8.18652C23.8005 8.18652 25.2653 9.65133 25.2653 11.4518V21.3992C25.2653 23.1996 23.8005 24.6644 22 24.6644ZM22 9.9051C21.1472 9.9051 20.4533 10.599 20.4533 11.4518V21.3992C20.4533 22.252 21.1472 22.9459 22 22.9459C22.8529 22.9459 23.5467 22.252 23.5467 21.3992V11.4518C23.5467 10.599 22.8528 9.9051 22 9.9051ZM13.2635 17.3757C13.0375 17.3757 12.8158 17.2839 12.656 17.1239C12.4955 16.9624 12.405 16.7442 12.4042 16.5164C12.4042 16.2896 12.4961 16.0687 12.656 15.909C12.8173 15.7481 13.0357 15.6576 13.2635 15.6572C13.4895 15.6572 13.7113 15.7483 13.8709 15.909C14.0319 16.0703 14.1224 16.2886 14.1228 16.5164C14.1228 16.7425 14.0316 16.9633 13.8709 17.1239C13.7095 17.2845 13.4912 17.375 13.2635 17.3757ZM6.52233 29.1341C6.37261 29.1341 6.22552 29.0948 6.09573 29.0202C5.68401 28.7841 5.54169 28.2591 5.77759 27.8473L10.6925 19.2738C10.9285 18.8621 11.4535 18.7198 11.8654 18.9557C12.2771 19.1918 12.4194 19.7168 12.1835 20.1286L7.26861 28.7021C7.1933 28.8335 7.08462 28.9426 6.95357 29.0185C6.82252 29.0944 6.67375 29.1343 6.52233 29.1341Z" fill="#B73E53"/>
</svg>
