<svg width="50" height="20" viewBox="0 0 50 20" fill="none" xmlns="http://www.w3.org/2000/svg">
<g clip-path="url(#clip0_182_4795)">
<path d="M43.6405 0H5.80399C2.59854 0 0 2.59854 0 5.80399V14.196C0 17.4015 2.59854 20 5.80399 20H43.6405C46.846 20 49.4445 17.4015 49.4445 14.196V5.80399C49.4445 2.59854 46.846 0 43.6405 0Z" fill="#FFB3C7"/>
<path d="M39.5938 8.7633C39.1335 8.44967 38.5964 8.2675 38.0403 8.23638C37.4843 8.20526 36.9302 8.32638 36.4378 8.5867C35.9454 8.84701 35.5334 9.23667 35.2459 9.71374C34.9585 10.1908 34.8066 10.7372 34.8066 11.2942C34.8066 11.8512 34.9585 12.3976 35.2459 12.8746C35.5334 13.3517 35.9454 13.7414 36.4378 14.0017C36.9302 14.262 37.4843 14.3831 38.0403 14.352C38.5964 14.3209 39.1335 14.1387 39.5938 13.8251V14.1959H41.3315V8.39207H39.5938V8.7633ZM38.0133 12.7875C37.7214 12.772 37.4404 12.6712 37.2051 12.4976C36.9698 12.3241 36.7906 12.0854 36.6895 11.811C36.5885 11.5366 36.5701 11.2387 36.6366 10.954C36.7031 10.6693 36.8517 10.4103 37.0638 10.2092C37.276 10.008 37.5425 9.87342 37.8303 9.82211C38.1181 9.7708 38.4147 9.80499 38.6833 9.92045C38.9519 10.0359 39.1808 10.2276 39.3416 10.4718C39.5024 10.7159 39.5881 11.0019 39.5881 11.2943C39.577 11.701 39.4049 12.0867 39.1096 12.3667C38.8144 12.6466 38.4201 12.798 38.0133 12.7875Z" fill="#202432"/>
<path d="M15.7639 5.80557H13.9453V14.196H15.7639V5.80557Z" fill="#202432"/>
<path d="M31.7216 8.23592C31.38 8.21572 31.0385 8.27891 30.7267 8.42002C30.4149 8.56114 30.1421 8.77596 29.9317 9.04597V8.39236H28.2012V14.196H29.9525V11.146C29.9391 10.9708 29.9635 10.7947 30.0242 10.6298C30.0848 10.4649 30.1803 10.3149 30.304 10.1902C30.4278 10.0654 30.577 9.96882 30.7414 9.90687C30.9059 9.84492 31.0817 9.81911 31.257 9.83119C32.0208 9.83119 32.4598 10.2875 32.4598 11.134V14.196H34.1956V10.5052C34.1956 9.15445 33.1216 8.23592 31.7216 8.23592Z" fill="#202432"/>
<path d="M21.2617 8.7633C20.8015 8.44967 20.2644 8.2675 19.7083 8.23638C19.1522 8.20526 18.5982 8.32638 18.1058 8.5867C17.6134 8.84701 17.2013 9.23667 16.9139 9.71374C16.6265 10.1908 16.4746 10.7372 16.4746 11.2942C16.4746 11.8512 16.6265 12.3976 16.9139 12.8746C17.2013 13.3517 17.6134 13.7414 18.1058 14.0017C18.5982 14.262 19.1522 14.3831 19.7083 14.352C20.2644 14.3209 20.8015 14.1387 21.2617 13.8251V14.1959H22.9995V8.39207H21.2617V8.7633ZM19.6813 12.7875C19.3893 12.772 19.1083 12.6713 18.8729 12.4977C18.6376 12.3242 18.4584 12.0855 18.3573 11.8111C18.2562 11.5368 18.2378 11.2388 18.3043 10.9541C18.3708 10.6694 18.5193 10.4104 18.7315 10.2092C18.9436 10.008 19.2101 9.87344 19.498 9.82211C19.7858 9.77078 20.0824 9.80496 20.351 9.92043C20.6196 10.0359 20.8485 10.2276 21.0093 10.4717C21.1701 10.7159 21.2558 11.0019 21.2558 11.2943C21.2447 11.701 21.0727 12.0867 20.7774 12.3666C20.4822 12.6466 20.088 12.798 19.6813 12.7875Z" fill="#202432"/>
<path d="M25.6874 9.14807V8.39211H23.9082V14.1961H25.6912V11.4865C25.6912 10.5722 26.6821 10.0808 27.3698 10.0808C27.3767 10.0808 27.3834 10.0815 27.3904 10.0815V8.39246C27.0682 8.38381 26.7481 8.44715 26.4535 8.57787C26.1589 8.70859 25.8972 8.90338 25.6874 9.14807Z" fill="#202432"/>
<path d="M43.1766 12.1374C42.9609 12.1374 42.75 12.2014 42.5706 12.3213C42.3913 12.4411 42.2515 12.6115 42.1689 12.8108C42.0864 13.0101 42.0648 13.2294 42.1069 13.4409C42.149 13.6525 42.2529 13.8469 42.4054 13.9994C42.558 14.1519 42.7523 14.2558 42.9639 14.2979C43.1754 14.34 43.3947 14.3184 43.594 14.2358C43.7933 14.1532 43.9637 14.0134 44.0835 13.8341C44.2034 13.6547 44.2673 13.4438 44.2673 13.2281C44.2673 13.0849 44.2391 12.9431 44.1843 12.8107C44.1295 12.6784 44.0492 12.5581 43.9479 12.4568C43.8466 12.3556 43.7263 12.2752 43.594 12.2204C43.4617 12.1656 43.3198 12.1374 43.1766 12.1374Z" fill="#202432"/>
<path d="M12.6913 5.80399H10.8066C10.8096 6.55979 10.6347 7.30569 10.2962 7.98146C9.95768 8.65723 9.465 9.24393 8.85794 9.69418L8.11133 10.2534L11.0045 14.1987H13.383L10.7211 10.5685C11.3489 9.94451 11.8464 9.20198 12.1846 8.38404C12.5228 7.56611 12.6951 6.68909 12.6913 5.80399Z" fill="#202432"/>
<path d="M7.88023 5.80399H5.99219V14.1983H7.88023V5.80399Z" fill="#202432"/>
</g>
<defs>
<clipPath id="clip0_182_4795">
<rect width="49.4445" height="20" fill="white"/>
</clipPath>
</defs>
</svg>
