<svg width="24" height="24" viewBox="0 0 24 24" fill="none" xmlns="http://www.w3.org/2000/svg">
<path fill-rule="evenodd" clip-rule="evenodd" d="M13.6982 3.31344C13.8315 3.25483 13.979 3.23629 14.1227 3.26008C14.2663 3.28388 14.4 3.34898 14.5072 3.44744L20.5072 8.94744C20.5799 9.01402 20.6387 9.09425 20.6803 9.18355C20.7219 9.27285 20.7455 9.36948 20.7498 9.46791C20.754 9.56634 20.7389 9.66465 20.7052 9.75722C20.6714 9.84979 20.6198 9.93482 20.5532 10.0074C20.4867 10.0801 20.4064 10.1389 20.3171 10.1805C20.2278 10.2221 20.1312 10.2457 20.0328 10.25C19.9343 10.2542 19.836 10.2391 19.7435 10.2054C19.6509 10.1716 19.5659 10.12 19.4932 10.0534L14.7502 5.70544V20.0004C14.7502 20.1993 14.6712 20.3901 14.5306 20.5308C14.3899 20.6714 14.1992 20.7504 14.0002 20.7504C13.8013 20.7504 13.6106 20.6714 13.4699 20.5308C13.3293 20.3901 13.2502 20.1993 13.2502 20.0004V4.00044C13.2501 3.85479 13.2925 3.71227 13.372 3.59027C13.4516 3.46828 13.5649 3.37208 13.6982 3.31344ZM10.0002 3.25044C10.1992 3.25044 10.3899 3.32945 10.5306 3.47011C10.6712 3.61076 10.7502 3.80152 10.7502 4.00044V20.0004C10.7503 20.146 10.708 20.2885 10.6284 20.4105C10.5489 20.5325 10.4355 20.6286 10.3023 20.6873C10.169 20.7459 10.0215 20.7645 9.87784 20.7407C9.73418 20.7169 9.60054 20.6519 9.49324 20.5534L3.49324 15.0534C3.34657 14.919 3.25933 14.7318 3.25071 14.533C3.24208 14.3342 3.31277 14.1401 3.44724 13.9934C3.5817 13.8468 3.76892 13.7595 3.96771 13.7509C4.1665 13.7423 4.36057 13.813 4.50724 13.9474L9.25024 18.2954V4.00044C9.25024 3.80152 9.32926 3.61076 9.46991 3.47011C9.61056 3.32945 9.80133 3.25044 10.0002 3.25044Z" fill="#181B28" fill-opacity="0.7"/>
</svg>
