<svg width="24" height="24" viewBox="0 0 24 24" fill="none" xmlns="http://www.w3.org/2000/svg">
<path d="M9.44151 19.8943V17.1342C9.44149 16.4321 10.0138 15.8617 10.7229 15.857H13.3204C14.0328 15.857 14.6105 16.4288 14.6105 17.1342V19.9028C14.6103 20.4989 15.0909 20.9861 15.6927 21H17.4244C19.1506 21 20.55 19.6146 20.55 17.9056V10.0541C20.5408 9.38175 20.222 8.75041 19.6842 8.33973L13.7619 3.61677C12.7244 2.79441 11.2496 2.79441 10.2121 3.61677L4.31584 8.3483C3.77605 8.75732 3.45666 9.3897 3.45001 10.0626V17.9056C3.45001 19.6146 4.8494 21 6.57563 21H8.30728C8.92413 21 9.42419 20.5049 9.42419 19.8943" stroke="#181B28" stroke-opacity="0.4" stroke-width="1.5" stroke-linecap="round" stroke-linejoin="round"/>
</svg>
