<svg width="49" height="53" viewBox="0 0 49 53" fill="none" xmlns="http://www.w3.org/2000/svg">
<g filter="url(#filter0_d_742_28021)">
<path d="M44.6918 15.2307L24.9659 3.95879C24.6766 3.79349 24.3234 3.79349 24.0341 3.95879L4.30824 15.2307C4.01517 15.3979 3.83482 15.7097 3.83482 16.0461V36.7112C3.83482 37.0475 4.01517 37.3594 4.30824 37.5266L24.0341 48.7985C24.1788 48.8812 24.3384 48.9225 24.5 48.9225C24.6616 48.9225 24.8213 48.8812 24.966 48.7985L44.6918 37.5266C44.9849 37.3594 45.1653 37.0475 45.1653 36.7112V16.0461C45.1652 15.7097 44.9848 15.3979 44.6918 15.2307Z" fill="#D9D9D9"/>
<path d="M44.2947 15.9255L44.2951 15.9258C44.338 15.9503 44.365 15.9965 44.365 16.0463V36.7112C44.365 36.7608 44.3381 36.807 44.2952 36.8315L44.2948 36.8317L24.5689 48.1036L24.5689 48.1037C24.5463 48.1165 24.5238 48.1222 24.5 48.1222C24.4763 48.1222 24.4537 48.1165 24.4312 48.1037L24.4312 48.1036L4.7053 36.8317L4.70487 36.8315C4.66197 36.807 4.63511 36.7608 4.63511 36.7112V16.0461C4.63511 15.9964 4.66198 15.9503 4.70487 15.9258L4.7053 15.9255L24.4311 4.65365C24.4311 4.65365 24.4312 4.65364 24.4312 4.65364C24.4744 4.62894 24.5256 4.62894 24.5688 4.65364C24.5688 4.65364 24.5688 4.65365 24.5689 4.65365L44.2947 15.9255Z" stroke="white" stroke-width="1.59495"/>
</g>
<path d="M22.5786 32.4942C22.5222 32.4942 22.4667 32.4794 22.4177 32.4513C22.3687 32.4233 22.3279 32.3829 22.2993 32.3342C21.0888 30.272 17.8632 25.8829 17.8307 25.8388C17.7847 25.7761 17.7627 25.699 17.7688 25.6215C17.7749 25.5439 17.8087 25.4712 17.864 25.4165L18.8555 24.4367C18.9094 24.3835 18.9802 24.3508 19.0557 24.3444C19.1311 24.338 19.2065 24.3582 19.2686 24.4016L22.5111 26.6658C24.6669 23.8964 26.6702 21.9851 27.987 20.859C29.4629 19.5966 30.4013 19.0293 30.4405 19.0056C30.4908 18.9754 30.5484 18.9595 30.6072 18.9595H32.2112C32.2769 18.9594 32.341 18.9794 32.395 19.0167C32.4491 19.0539 32.4906 19.1067 32.5139 19.1681C32.5373 19.2294 32.5414 19.2964 32.5259 19.3602C32.5103 19.424 32.4756 19.4815 32.4266 19.5252C30.0486 21.6431 27.5762 25.0083 25.921 27.4583C24.1216 30.1214 22.8725 32.3088 22.8601 32.3306C22.8319 32.3799 22.7913 32.421 22.7423 32.4497C22.6933 32.4784 22.6376 32.4938 22.5808 32.4941L22.5786 32.4942Z" fill="#88898E" fill-opacity="0.4"/>
<defs>
<filter id="filter0_d_742_28021" x="0.000253379" y="0.000253379" width="48.9995" height="52.7569" filterUnits="userSpaceOnUse" color-interpolation-filters="sRGB">
<feFlood flood-opacity="0" result="BackgroundImageFix"/>
<feColorMatrix in="SourceAlpha" type="matrix" values="0 0 0 0 0 0 0 0 0 0 0 0 0 0 0 0 0 0 127 0" result="hardAlpha"/>
<feOffset/>
<feGaussianBlur stdDeviation="1.91052"/>
<feComposite in2="hardAlpha" operator="out"/>
<feColorMatrix type="matrix" values="0 0 0 0 0 0 0 0 0 0 0 0 0 0 0 0 0 0 0.33 0"/>
<feBlend mode="normal" in2="BackgroundImageFix" result="effect1_dropShadow_742_28021"/>
<feBlend mode="normal" in="SourceGraphic" in2="effect1_dropShadow_742_28021" result="shape"/>
</filter>
</defs>
</svg>
