<svg width="24" height="24" viewBox="0 0 24 24" fill="none" xmlns="http://www.w3.org/2000/svg">
<path d="M9.44169 19.8943V17.1342C9.44168 16.4321 10.014 15.8617 10.7231 15.857H13.3206C14.033 15.857 14.6106 16.4288 14.6106 17.1342V19.9028C14.6105 20.4989 15.0911 20.9861 15.6929 21H17.4246C19.1508 21 20.5502 19.6146 20.5502 17.9056V10.0541C20.541 9.38175 20.2221 8.75041 19.6844 8.33973L13.7621 3.61677C12.7246 2.79441 11.2498 2.79441 10.2123 3.61677L4.31602 8.3483C3.77623 8.75732 3.45685 9.3897 3.4502 10.0626V17.9056C3.4502 19.6146 4.84959 21 6.57581 21H8.30746C8.92431 21 9.42437 20.5049 9.42437 19.8943" stroke="#8C8C8C" stroke-width="1.5" stroke-linecap="round" stroke-linejoin="round"/>
</svg>
