<svg width="20" height="20" viewBox="0 0 20 20" fill="none" xmlns="http://www.w3.org/2000/svg">
<path d="M10.1364 18.1955C14.5873 18.1955 18.1955 14.5873 18.1955 10.1364C18.1955 5.68545 14.5873 2.07727 10.1364 2.07727C5.68547 2.07727 2.07729 5.68545 2.07729 10.1364C2.07729 14.5873 5.68547 18.1955 10.1364 18.1955Z" stroke="#8C8C8C" stroke-width="1.3" stroke-linecap="round" stroke-linejoin="round"/>
<path d="M2.72729 10.1364H17.5455" stroke="#8C8C8C" stroke-width="1.3" stroke-linecap="round" stroke-linejoin="round"/>
<path d="M10.6164 2.2889C10.4933 2.15408 10.3191 2.07727 10.1365 2.07727C9.95389 2.07727 9.77971 2.15408 9.65656 2.2889C7.69708 4.4341 6.58351 7.21803 6.52299 10.1228C6.5228 10.1318 6.5228 10.1409 6.52299 10.1499C6.58351 13.0547 7.69708 15.8386 9.65656 17.9838C9.77971 18.1186 9.95389 18.1955 10.1365 18.1955C10.3191 18.1955 10.4933 18.1186 10.6164 17.9838C12.5759 15.8386 13.6895 13.0547 13.75 10.1499C13.7502 10.1409 13.7502 10.1318 13.75 10.1228C13.6895 7.21803 12.5759 4.4341 10.6164 2.2889Z" stroke="#8C8C8C" stroke-width="1.3" stroke-linecap="round" stroke-linejoin="round"/>
</svg>
