<svg width="24" height="24" viewBox="0 0 24 24" fill="none" xmlns="http://www.w3.org/2000/svg">
<g clip-path="url(#clip0_312_5104)">
<path d="M19.356 12.8159L17.8519 7.40408C17.411 5.81863 16.4528 4.42606 15.1296 3.4477C13.8064 2.46935 12.1941 1.96136 10.5491 2.00449C8.90406 2.04762 7.32065 2.63939 6.05054 3.68574C4.78043 4.73208 3.89652 6.17296 3.53932 7.77933L2.37478 13.0162C2.24614 13.5949 2.24912 14.195 2.38348 14.7724C2.51784 15.3497 2.78016 15.8895 3.15107 16.3519C3.52198 16.8143 3.99201 17.1875 4.52646 17.444C5.0609 17.7004 5.64612 17.8335 6.2389 17.8335H7.12082C7.30252 18.7283 7.78798 19.5328 8.49495 20.1106C9.20192 20.6885 10.0869 21.0041 11 21.0041C11.9131 21.0041 12.7981 20.6885 13.505 20.1106C14.212 19.5328 14.6975 18.7283 14.8792 17.8335H15.5426C16.1528 17.8335 16.7548 17.6925 17.3015 17.4214C17.8482 17.1503 18.3248 16.7564 18.6941 16.2706C19.0633 15.7848 19.3153 15.2202 19.4303 14.6209C19.5453 14.0216 19.5193 13.4039 19.356 12.8159ZM11 19.4168C10.5105 19.4148 10.0337 19.2616 9.6346 18.9782C9.23555 18.6948 8.9338 18.295 8.77065 17.8335H13.2293C13.0662 18.295 12.7644 18.6948 12.3654 18.9782C11.9663 19.2616 11.4894 19.4148 11 19.4168ZM17.4331 15.312C17.2125 15.6047 16.9267 15.8419 16.5983 16.0047C16.27 16.1676 15.9083 16.2516 15.5418 16.2502H6.2389C5.88327 16.2501 5.5322 16.1702 5.21159 16.0163C4.89098 15.8624 4.60902 15.6385 4.38653 15.361C4.16404 15.0836 4.00669 14.7598 3.9261 14.4134C3.84551 14.067 3.84373 13.7069 3.9209 13.3598L5.08465 8.12212C5.36518 6.86037 6.05944 5.7286 7.05706 4.90673C8.05467 4.08485 9.2984 3.62005 10.5905 3.5862C11.8826 3.55235 13.149 3.9514 14.1883 4.71991C15.2276 5.48842 15.9801 6.58229 16.3263 7.82762L17.8305 13.2395C17.9299 13.592 17.9457 13.9629 17.8767 14.3227C17.8077 14.6825 17.6558 15.0212 17.4331 15.312Z" fill="#1D212C"/>
</g>
<circle cx="17" cy="5" r="4" fill="#E74C3C"/>
<defs>
<clipPath id="clip0_312_5104">
<rect x="1.5" y="2" width="19" height="19" rx="9.5" fill="white"/>
</clipPath>
</defs>
</svg>
