<svg width="71" height="71" viewBox="0 0 71 71" fill="none" xmlns="http://www.w3.org/2000/svg">
<path d="M41.2248 35.501L48.0545 28.6713C48.4406 28.2976 48.7484 27.8508 48.96 27.3569C49.1717 26.8631 49.2829 26.332 49.2873 25.7948C49.2916 25.2575 49.189 24.7247 48.9854 24.2275C48.7819 23.7303 48.4813 23.2785 48.1014 22.8986C47.7215 22.5187 47.2698 22.2182 46.7725 22.0146C46.2753 21.811 45.7425 21.7084 45.2053 21.7127C44.668 21.7171 44.137 21.8283 43.6431 22.04C43.1493 22.2516 42.7025 22.5594 42.3288 22.9455L35.499 29.7752L28.6693 22.9455C28.2956 22.5594 27.8488 22.2516 27.355 22.04C26.8611 21.8283 26.3301 21.7171 25.7928 21.7127C25.2555 21.7084 24.7227 21.811 24.2255 22.0146C23.7283 22.2182 23.2766 22.5187 22.8966 22.8986C22.5167 23.2785 22.2162 23.7303 22.0126 24.2275C21.809 24.7247 21.7064 25.2575 21.7108 25.7948C21.7151 26.332 21.8264 26.8631 22.038 27.3569C22.2497 27.8508 22.5575 28.2976 22.9435 28.6713L29.7732 35.501L22.9435 42.3307C22.5575 42.7044 22.2497 43.1512 22.038 43.6451C21.8264 44.1389 21.7151 44.67 21.7108 45.2072C21.7064 45.7445 21.809 46.2773 22.0126 46.7745C22.2162 47.2717 22.5167 47.7235 22.8966 48.1034C23.2766 48.4833 23.7283 48.7838 24.2255 48.9874C24.7227 49.191 25.2555 49.2936 25.7928 49.2893C26.3301 49.2849 26.8611 49.1737 27.355 48.962C27.8488 48.7504 28.2956 48.4426 28.6693 48.0565L35.499 41.2268L42.3288 48.0565C42.7025 48.4426 43.1493 48.7504 43.6431 48.962C44.137 49.1737 44.668 49.2849 45.2053 49.2893C45.7425 49.2936 46.2753 49.191 46.7725 48.9874C47.2698 48.7838 47.7215 48.4833 48.1014 48.1034C48.4813 47.7235 48.7819 47.2717 48.9854 46.7745C49.189 46.2773 49.2916 45.7445 49.2873 45.2072C49.2829 44.67 49.1717 44.1389 48.96 43.6451C48.7484 43.1512 48.4406 42.7044 48.0545 42.3307L41.2248 35.501Z" fill="#F4B2B0"/>
<path d="M35.4999 2.29032V0C26.0881 0.0109109 17.0649 3.75457 10.4097 10.4097C3.75457 17.0649 0.0109109 26.0881 0 35.4999H2.29032C2.30002 26.6952 5.80199 18.2538 12.0279 12.0279C18.2538 5.80199 26.6952 2.30002 35.4999 2.29032ZM68.7095 35.4999C68.6995 44.3046 65.1975 52.7458 58.9716 58.9716C52.7458 65.1975 44.3046 68.6995 35.4999 68.7095V70.9998C44.9118 70.9892 53.9352 67.2457 60.5904 60.5904C67.2457 53.9352 70.9892 44.9118 70.9998 35.4999H68.7095Z" fill="#B73E53"/>
<path d="M35.4998 6.87069C29.8375 6.87069 24.3024 8.54975 19.5944 11.6955C14.8864 14.8413 11.217 19.3126 9.0501 24.5438C6.88324 29.7751 6.3163 35.5314 7.42095 41.0849C8.52561 46.6384 11.2522 51.7396 15.2561 55.7434C19.2599 59.7472 24.3611 62.4739 29.9146 63.5785C35.4681 64.6832 41.2244 64.1162 46.4556 61.9494C51.6869 59.7825 56.1581 56.1131 59.3039 51.4051C62.4497 46.6971 64.1288 41.1619 64.1288 35.4997C64.1203 27.9094 61.1013 20.6324 55.7342 15.2653C50.367 9.89816 43.0901 6.87917 35.4998 6.87069ZM35.4998 61.8383C30.2905 61.8383 25.1982 60.2936 20.8668 57.3995C16.5355 54.5053 13.1596 50.3918 11.1661 45.579C9.17257 40.7663 8.65098 35.4704 9.66726 30.3612C10.6835 25.252 13.1921 20.5589 16.8756 16.8754C20.5591 13.1919 25.2522 10.6834 30.3614 9.66709C35.4706 8.65081 40.7664 9.1724 45.5792 11.1659C50.3919 13.1594 54.5055 16.5353 57.3996 20.8667C60.2937 25.1981 61.8385 30.2904 61.8385 35.4997C61.8306 42.4827 59.0531 49.1775 54.1153 54.1152C49.1776 59.053 42.4828 61.8304 35.4998 61.8383ZM3.1594 43.0841L0.929772 43.6051C1.10498 44.3529 1.30767 45.1075 1.53213 45.8462L3.72281 45.1797C3.51287 44.4903 3.32506 43.7918 3.1594 43.0841ZM4.42136 47.2318L2.27877 48.0403C2.54903 48.756 2.85135 49.4763 3.16856 50.1806L5.25274 49.2324C4.95729 48.5759 4.68017 47.909 4.42136 47.2318ZM2.45283 38.8034L0.172822 39.0325C0.249166 39.8074 0.350322 40.5739 0.476289 41.332L2.73683 40.9586C2.61926 40.2479 2.5246 39.5295 2.45283 38.8034ZM6.21582 51.1757L4.19805 52.2579C4.56374 52.9404 4.95119 53.6092 5.36039 54.2642L7.30716 53.0527C6.92162 52.4396 6.55784 51.814 6.21582 51.1757ZM25.1819 69.4765C25.9137 69.6987 26.6706 69.9014 27.4242 70.0766L27.9441 67.8458C27.2364 67.6817 26.5374 67.4946 25.8473 67.2847L25.1819 69.4765ZM29.7007 70.5278C30.4604 70.653 31.2272 70.7534 32.0014 70.829L32.2235 68.5501C31.4998 68.4791 30.7825 68.3852 30.0718 68.2684L29.7007 70.5278ZM20.8418 67.8401C21.5449 68.1596 22.2664 68.4585 22.9867 68.7299L23.7883 66.5873C23.1096 66.3308 22.4412 66.0533 21.7831 65.7548L20.8418 67.8401ZM9.59404 59.777C10.1231 60.342 10.6701 60.8886 11.2351 61.4169L12.8005 59.745C12.2722 59.2518 11.7607 58.7407 11.266 58.2116L9.59404 59.777ZM12.9791 62.9423C13.5761 63.4339 14.1892 63.9053 14.8183 64.3565L16.1547 62.4956C15.566 62.0735 14.9935 61.6326 14.4369 61.173L12.9791 62.9423ZM16.7478 65.6483C17.4029 66.0567 18.0724 66.4441 18.7565 66.8106L19.8386 64.7928C19.1996 64.4493 18.5732 64.0866 17.9594 63.7049L16.7478 65.6483ZM8.50958 54.8529L6.64984 56.1904C7.10179 56.8187 7.57322 57.4314 8.06411 58.0284L9.83223 56.5706C9.37417 56.0148 8.93328 55.4422 8.50958 54.8529ZM66.5783 23.7675L68.7209 22.959C68.4506 22.2433 68.1483 21.523 67.8311 20.8187L65.7469 21.7669C66.0423 22.4235 66.3195 23.0903 66.5783 23.7675ZM41.2989 0.471537C40.54 0.347097 39.7732 0.246705 38.9983 0.170361L38.7761 2.44923C39.4999 2.52023 40.2171 2.61413 40.9279 2.73094L41.2989 0.471537ZM68.5468 32.1959L70.8268 31.9668C70.7505 31.192 70.6493 30.4255 70.5233 29.6674L68.2628 30.0407C68.3811 30.7522 68.4758 31.4706 68.5468 32.1959ZM64.7838 19.8236L66.8016 18.7414C66.4359 18.0589 66.0484 17.3901 65.6392 16.7351L63.6925 17.9467C64.078 18.5597 64.4418 19.1853 64.7838 19.8236ZM67.8402 27.9153L70.0699 27.3942C69.8932 26.6409 69.6923 25.8935 69.4675 25.1531L67.2768 25.8196C67.4868 26.509 67.6746 27.2076 67.8402 27.9153ZM45.8177 1.52279C45.0771 1.2982 44.3293 1.09807 43.5755 0.92273L43.0579 3.1535C43.7656 3.31688 44.4645 3.50392 45.1546 3.71463L45.8177 1.52279ZM58.0205 8.05707C57.4243 7.56618 56.8112 7.09437 56.1814 6.64165L54.845 8.50368C55.4336 8.92586 56.0062 9.36675 56.5627 9.82634L58.0205 8.05707ZM50.1578 3.15923C49.4528 2.83915 48.7375 2.5424 48.013 2.26944L47.2113 4.41203C47.89 4.66854 48.5584 4.94606 49.2165 5.24456L50.1578 3.15923ZM54.2518 5.35106C53.5967 4.94186 52.9272 4.55441 52.2432 4.18872L51.161 6.20649C51.8 6.55004 52.4264 6.91267 53.0402 7.29439L54.2518 5.35106ZM61.4056 11.2223C60.8765 10.6573 60.3295 10.1107 59.7646 9.58242L58.1991 11.2544C58.7267 11.7475 59.2382 12.2587 59.7337 12.7877L61.4056 11.2223ZM62.4901 16.1465L64.3498 14.8101C63.8978 14.181 63.4264 13.5683 62.9355 12.9721L61.1674 14.4287C61.6255 14.9845 62.0663 15.5571 62.4901 16.1465Z" fill="#B73E53"/>
<path d="M50.3871 25.8057C50.3874 24.7783 50.083 23.7738 49.5123 22.9194C48.9416 22.065 48.1303 21.3991 47.181 21.0059C46.2317 20.6128 45.1872 20.51 44.1795 20.7107C43.1718 20.9113 42.2463 21.4064 41.5201 22.1332L35.5 28.1533L29.4799 22.1332C28.9976 21.6509 28.4251 21.2684 27.7949 21.0074C27.1648 20.7463 26.4894 20.612 25.8074 20.612C25.1253 20.612 24.4499 20.7463 23.8198 21.0074C23.1897 21.2684 22.6171 21.6509 22.1348 22.1332C21.6526 22.6155 21.27 23.1881 21.009 23.8182C20.748 24.4483 20.6136 25.1237 20.6136 25.8057C20.6136 26.4878 20.748 27.1632 21.009 27.7933C21.27 28.4234 21.6526 28.996 22.1348 29.4783L28.1549 35.4984L22.1348 41.5196C21.1608 42.4936 20.6136 43.8147 20.6136 45.1921C20.6136 46.5696 21.1608 47.8906 22.1348 48.8647C23.1089 49.8387 24.4299 50.3859 25.8074 50.3859C27.1848 50.3859 28.5059 49.8387 29.4799 48.8647L35.5 42.8434L41.5201 48.8647C42.4941 49.8387 43.8151 50.3859 45.1926 50.3859C46.5701 50.3859 47.8911 49.8387 48.8651 48.8647C49.8392 47.8906 50.3863 46.5696 50.3863 45.1921C50.3863 43.8147 49.8392 42.4936 48.8651 41.5196L42.845 35.4984L48.8651 29.4783C49.349 28.9972 49.7327 28.4248 49.994 27.7944C50.2552 27.1641 50.3888 26.4881 50.3871 25.8057ZM47.2459 27.859L40.4162 34.6887C40.2015 34.9035 40.0809 35.1947 40.0809 35.4984C40.0809 35.802 40.2015 36.0932 40.4162 36.308L47.2459 43.1389C47.7763 43.6863 48.0703 44.4204 48.0643 45.1827C48.0583 45.9449 47.7528 46.6743 47.2138 47.2133C46.6747 47.7523 45.9454 48.0578 45.1831 48.0638C44.4209 48.0698 43.6868 47.7759 43.1393 47.2454L36.3096 40.4145C36.0949 40.1998 35.8036 40.0792 35.5 40.0792C35.1963 40.0792 34.9051 40.1998 34.6904 40.4145L27.8606 47.2454C27.5926 47.5221 27.2721 47.7426 26.918 47.8942C26.5639 48.0459 26.1831 48.1255 25.7979 48.1285C25.4127 48.1316 25.0307 48.0579 24.6742 47.9119C24.3177 47.7659 23.9939 47.5504 23.7215 47.278C23.4491 47.0056 23.2336 46.6818 23.0876 46.3253C22.9416 45.9688 22.8679 45.5868 22.871 45.2016C22.874 44.8164 22.9536 44.4356 23.1053 44.0815C23.2569 43.7274 23.4774 43.4069 23.7541 43.1389L30.5838 36.308C30.7985 36.0932 30.9191 35.802 30.9191 35.4984C30.9191 35.1947 30.7985 34.9035 30.5838 34.6887L23.7541 27.859C23.4774 27.5909 23.2569 27.2705 23.1053 26.9164C22.9536 26.5622 22.874 26.1815 22.871 25.7963C22.8679 25.411 22.9416 25.0291 23.0876 24.6726C23.2336 24.3161 23.4491 23.9922 23.7215 23.7198C23.9939 23.4475 24.3177 23.232 24.6742 23.086C25.0307 22.9399 25.4127 22.8663 25.7979 22.8693C26.1831 22.8724 26.5639 22.952 26.918 23.1036C27.2721 23.2553 27.5926 23.4758 27.8606 23.7525L34.6904 30.5822C34.9051 30.7969 35.1963 30.9175 35.5 30.9175C35.8036 30.9175 36.0949 30.7969 36.3096 30.5822L43.1393 23.7525C43.4074 23.4758 43.7278 23.2553 44.082 23.1036C44.4361 22.952 44.8169 22.8724 45.2021 22.8693C45.5873 22.8663 45.9693 22.9399 46.3258 23.086C46.6822 23.232 47.0061 23.4475 47.2785 23.7198C47.5509 23.9922 47.7664 24.3161 47.9124 24.6726C48.0584 25.0291 48.132 25.411 48.129 25.7963C48.126 26.1815 48.0463 26.5622 47.8947 26.9164C47.7431 27.2705 47.5225 27.5909 47.2459 27.859Z" fill="#B73E53"/>
</svg>
