<svg xmlns="http://www.w3.org/2000/svg" width="20" height="20" viewBox="0 0 20 20">
    <path id="Path_5336" data-name="Path 5336"
        d="M48.6,285.38a14.356,14.356,0,0,0,0-4h3.38a7.822,7.822,0,0,1,0,4Zm-1.77,5.56a15.65,15.65,0,0,0,1.38-3.56h2.95a8.03,8.03,0,0,1-4.33,3.56m-.25-5.56H41.9a12.58,12.58,0,0,1,0-4h4.68a12.58,12.58,0,0,1,0,4m-2.34,5.96a14.087,14.087,0,0,1-1.91-3.96h3.82a14.087,14.087,0,0,1-1.91,3.96m-3.97-11.96h-2.95a7.987,7.987,0,0,1,4.33-3.56,15.649,15.649,0,0,0-1.38,3.56m-2.95,8h2.95a15.649,15.649,0,0,0,1.38,3.56,7.987,7.987,0,0,1-4.33-3.56m-.82-2a7.822,7.822,0,0,1,0-4h3.38a14.356,14.356,0,0,0,0,4Zm7.74-9.96a14.087,14.087,0,0,1,1.91,3.96h-3.82a14.087,14.087,0,0,1,1.91-3.96m6.92,3.96h-2.95a15.649,15.649,0,0,0-1.38-3.56,8.03,8.03,0,0,1,4.33,3.56m-6.93-6a10,10,0,1,0,10.01,10,10,10,0,0,0-10.01-10"
        transform="translate(-34.235 -273.38)" fill="#fff" />
</svg>
  