<svg width="375" height="285" viewBox="0 0 375 285" fill="none" xmlns="http://www.w3.org/2000/svg">
    <mask id="mask0_2_1433" style="mask-type:alpha" maskUnits="userSpaceOnUse" x="0" y="0"
        width="375" height="285">
        <rect width="375" height="285" fill="#D9D9D9" />
    </mask>
    <g mask="url(#mask0_2_1433)">
        <path
            d="M317.86 91.2101C321.693 91.2101 324.8 88.1029 324.8 84.2701C324.8 80.4372 321.693 77.3301 317.86 77.3301C314.027 77.3301 310.92 80.4372 310.92 84.2701C310.92 88.1029 314.027 91.2101 317.86 91.2101Z"
            fill="#FC4335" />
        <path
            d="M80.7799 89.0501C86.2255 89.0501 90.6399 84.6356 90.6399 79.1901C90.6399 73.7446 86.2255 69.3301 80.7799 69.3301C75.3344 69.3301 70.9199 73.7446 70.9199 79.1901C70.9199 84.6356 75.3344 89.0501 80.7799 89.0501Z"
            fill="#FF9F2C" />
        <path
            d="M332.07 203.83C337.516 203.83 341.93 199.416 341.93 193.97C341.93 188.525 337.516 184.11 332.07 184.11C326.624 184.11 322.21 188.525 322.21 193.97C322.21 199.416 326.624 203.83 332.07 203.83Z"
            fill="#5BBC6F" />
        <path
            d="M52.0801 213C56.9181 213 60.8401 209.078 60.8401 204.24C60.8401 199.402 56.9181 195.48 52.0801 195.48C47.242 195.48 43.3201 199.402 43.3201 204.24C43.3201 209.078 47.242 213 52.0801 213Z"
            fill="#FC4335" />
        <path
            d="M316.15 266.18C317.19 263.27 319.28 260.95 322.09 259.65C325.11 258.26 328.69 258.72 331.38 256.46C333.74 254.48 334.53 251.37 333.71 248.46C333.07 246.16 331.52 244.09 330.88 241.91C330.19 239.58 333.2 238.35 335.28 237.53C338.81 236.13 342.62 234.7 344.6 231.2C346.58 227.7 345.77 224.11 344.21 220.74C343.67 219.56 342.3 217.69 342.5 216.31C342.58 215.75 342.49 216.09 342.84 215.5C342.71 215.71 341.9 215.56 342.89 215.75C344.83 216.12 346.66 214.15 346.78 212.35C346.92 210.19 345.33 208.83 343.38 208.46C340.54 207.92 337.82 209.69 336.39 212.03C334.74 214.73 335.1 217.88 336.17 220.71C336.83 222.45 339.16 225.41 338.38 227.36C337.46 229.66 333.21 230.43 331.21 231.31C328.43 232.52 325.74 234.35 324.35 237.13C323.06 239.71 323.3 242.4 324.27 245.04C324.92 246.79 326.23 248.67 326.67 250.28C326.64 250.16 326.81 251.13 326.77 250.9C326.69 250.44 326.83 250.88 326.72 250.9C326.26 250.98 325.02 251.38 324.27 251.51C317.32 252.77 311.64 257.07 309.22 263.83C307.64 268.25 314.55 270.62 316.14 266.18H316.15Z"
            fill="#FFC52C" />
        <path
            d="M25.5 110.41C23.03 111.9 21.07 114.15 20.36 117.01C19.7 119.7 19.9301 122.57 21.4101 124.96C22.9601 127.45 25.41 129.37 28.32 129.96C30.92 130.49 33.22 129.85 35.75 129.37C35.98 129.33 36.22 129.29 36.45 129.25C37.25 129.1 36.21 129.3 36.22 129.25C36.24 129.15 36.97 129.34 37 129.28C36.95 129.37 36.11 129.07 36.7 129.25C37.54 129.5 35.89 128.71 36.62 129.25C36.58 129.22 35.86 128.57 36.34 129.04C36.91 129.6 35.91 128.19 36.22 128.89C36.04 128.47 36.08 128.06 36.12 128.71C36.03 127.12 36 128.86 36.04 128.99C35.91 128.57 36.2401 128.17 36.1001 128.65C36.0301 128.89 35.98 129.13 35.9 129.37C35.63 130.25 35.26 131.1 34.89 131.94C34.01 133.96 33.2601 135.96 33.1601 138.2C33.0501 140.73 33.6 143.39 34.81 145.63C37.8 151.2 44.3501 154.16 50.5201 152.76C52.6101 152.29 54.24 150.1 53.7 147.93C53.17 145.82 51.1 144.25 48.87 144.75C48.61 144.81 48.35 144.86 48.08 144.91C47.84 144.95 47.14 144.95 48.01 144.94C47.58 144.94 47.16 144.94 46.73 144.91C46.52 144.89 46.31 144.86 46.09 144.83C46.98 144.94 46.27 144.86 46.03 144.8C45.51 144.66 45.02 144.46 44.51 144.28C43.93 144.07 45.3301 144.81 44.4901 144.26C44.3101 144.14 44.1201 144.04 43.9401 143.93C43.76 143.82 43.59 143.68 43.42 143.56C42.57 143.02 43.81 144 43.39 143.56C43.07 143.22 42.75 142.88 42.4401 142.52C42.01 142.02 42.59 142.6 42.5 142.66C42.49 142.66 42.0601 141.91 42.0501 141.87C41.9601 141.69 41.87 141.51 41.79 141.32C41.77 141.28 41.4201 140.35 41.6301 140.97C41.8101 141.5 41.6101 140.87 41.58 140.74C41.5201 140.5 41.4601 140.25 41.4101 140C41.3701 139.8 41.35 139.6 41.31 139.4C41.19 138.64 41.28 139.46 41.31 139.54C41.16 139.13 41.32 138.3 41.37 137.88C41.39 137.73 41.55 137.12 41.39 137.66C41.21 138.3 41.49 137.34 41.51 137.3C41.61 136.95 41.7401 136.6 41.8801 136.26C42.2001 135.45 42.5701 134.65 42.9101 133.85C43.5801 132.26 44.22 130.51 44.22 128.77C44.22 126.22 43.15 123.82 40.98 122.38C38.87 120.98 36.34 120.94 33.93 121.43C33.07 121.6 32.22 121.84 31.36 122C31.17 122.04 30.98 122.06 30.79 122.1C30.03 122.24 30.95 122.13 30.99 122.1C30.79 122.2 30.44 122.07 30.22 122.08C29.78 122.12 30.9 122.32 30.21 122.09C29.97 122.01 29.7201 121.91 29.4801 121.85C29.1901 121.73 29.29 121.78 29.77 122.01C29.63 121.94 29.5001 121.86 29.3701 121.78C29.2301 121.7 28.79 121.49 28.74 121.34C28.84 121.66 29.25 121.84 28.78 121.34C28.65 121.2 28.33 120.94 28.29 120.75L28.54 121.12C28.44 120.94 28.34 120.76 28.25 120.58C27.91 120.01 28.39 120.71 28.26 120.71C28.17 120.71 28.13 119.84 28.08 119.84C28.2 119.84 28.07 120.64 28.11 120C28.11 119.95 28.2 119.13 28.18 119.12C28.38 119.3 27.96 119.85 28.18 119.29C28.24 119.14 28.3201 118.54 28.4801 118.45L28.26 118.9C28.33 118.77 28.4001 118.64 28.4801 118.52C28.5401 118.42 28.77 117.94 28.9 117.91L28.57 118.29C28.67 118.18 28.78 118.08 28.89 117.98C29.09 117.79 29.99 117.24 29.08 117.78C30.91 116.68 32.05 114.35 30.93 112.3C29.94 110.49 27.41 109.27 25.45 110.45L25.5 110.41Z"
            fill="#FFC52C" />
        <path
            d="M402.09 178.23C403.92 176.13 404.82 173.44 404.62 170.66C404.5 169 404 167.43 403.17 166.04C402.61 165.11 401.9 164.26 401.05 163.53L396.86 159.89L384.29 176.59L387.38 179.27C389.48 181.1 392.17 182 394.95 181.8C397.73 181.6 400.26 180.34 402.09 178.24V178.23ZM392.5 156.11L358.59 126.66C358.51 126.78 358.42 126.89 358.33 127L345.15 142.18C345.08 142.26 345.01 142.34 344.93 142.41L379.94 172.81L392.51 156.11H392.5Z"
            fill="#FF9F2C" />
        <path
            d="M341.16 134.66L336.59 121.42L350.34 124.08L352.8 124.56L341.98 137.03L341.16 134.66Z"
            fill="#FF9F2C" />
        <path
            d="M-42.7301 279.96C-41.6401 287.16 -33.9301 290.65 -27.3601 289.48C-21.2301 288.39 -16.1101 283.67 -14.4101 277.72C-13.7801 275.53 -13.6001 273.21 -13.4401 270.95C-13.3701 270 -13.3201 269.05 -13.2101 268.1C-13.1901 267.91 -13.1401 267.7 -13.1401 267.51C-13.1401 268.76 -13.2901 268.39 -13.2101 268C-13.1001 267.48 -13.0101 266.97 -12.8601 266.46C-12.7901 266.23 -12.7101 266.01 -12.6401 265.78C-12.4001 264.99 -12.7901 266.19 -12.8501 266.25C-12.5801 265.97 -12.3501 265.34 -12.1401 265C-11.8201 264.47 -11.8901 265.14 -12.4501 265.39C-12.3501 265.34 -12.1401 265.04 -12.0401 264.94C-11.8601 264.76 -11.6101 264.6 -11.4601 264.4C-11.1301 264.13 -11.3001 264.25 -11.9701 264.77C-11.8101 264.65 -11.6401 264.54 -11.4601 264.43C-11.1301 264.22 -10.7701 264.06 -10.4201 263.88C-9.50006 263.41 -11.5001 264.16 -10.8201 264.05C-10.6001 264.01 -10.3601 263.91 -10.1401 263.85C-9.78006 263.76 -9.38005 263.75 -9.03006 263.63C-10.2101 264.05 -9.89006 263.71 -9.28006 263.68C-8.99006 263.66 -8.71006 263.66 -8.42006 263.66C-7.54005 263.66 -6.66006 263.74 -5.78006 263.84C-5.58006 263.86 -5.38006 263.9 -5.18006 263.92C-6.62006 263.81 -5.87006 263.82 -5.49006 263.88C-4.94006 263.98 -4.39006 264.07 -3.83006 264.17C-1.59006 264.57 0.669945 265 2.93995 265.14C7.73994 265.44 12.8699 263.98 16.1499 260.3C19.0899 257.01 20.2399 252.94 20.9899 248.69C21.2999 246.92 21.5999 245.14 22.1199 243.41C22.2499 242.98 22.4799 242.54 22.5799 242.11C22.5699 242.17 21.9899 243.35 22.3699 242.62C22.4499 242.46 22.5299 242.29 22.6099 242.13C22.8199 241.73 23.0699 241.35 23.3199 240.97C23.5999 240.54 23.7599 240.8 22.9699 241.41C23.1699 241.26 23.3599 240.97 23.5299 240.79C23.6999 240.62 23.8799 240.47 24.0499 240.31C24.8999 239.49 23.3599 240.72 23.8499 240.46C24.1399 240.31 24.4499 240.12 24.7199 239.94C25.6199 239.34 23.8299 240.11 24.9499 239.82C25.5599 239.66 26.3399 239.3 26.9899 239.36C25.8599 239.26 26.6999 239.42 27.0599 239.41C27.4699 239.41 27.8899 239.41 28.2999 239.43C28.6099 239.45 29.0299 239.42 29.3199 239.52L28.7699 239.44C29.0299 239.48 29.2999 239.53 29.5599 239.59C30.2499 239.73 30.9199 239.92 31.5899 240.11C33.1299 240.55 34.6399 241.08 36.1899 241.48C39.6099 242.35 43.2399 242.65 46.6699 241.64C50.2699 240.58 53.8099 238.4 55.5599 234.96C56.8199 232.47 56.2999 229.04 53.6399 227.63C51.1999 226.34 47.6699 226.88 46.3099 229.55C46.1699 229.82 46.0099 230.07 45.8699 230.33C45.5399 230.94 46.5799 229.64 46.0399 230.08C45.9399 230.16 45.4699 230.75 45.3699 230.71C45.3199 230.69 46.5799 229.95 45.5999 230.51C45.3099 230.68 44.5699 231.28 44.2299 231.23L44.8399 230.99C44.6599 231.06 44.4699 231.12 44.2799 231.18C43.8999 231.3 43.5199 231.39 43.1399 231.48C42.9499 231.52 42.1499 231.76 42.8699 231.56C43.6499 231.35 42.5699 231.58 42.4199 231.58C41.8699 231.6 41.3199 231.56 40.7699 231.52C39.7699 231.45 40.5899 231.5 40.7999 231.54C40.4399 231.47 40.0799 231.4 39.7199 231.32C39.0099 231.16 38.3099 230.96 37.6099 230.75C34.7799 229.91 32.0499 229.05 29.0899 228.77C25.9299 228.47 22.7099 229.05 19.8499 230.42C15.5699 232.47 12.8899 236.61 11.6599 241.06C10.7199 244.43 10.5799 247.99 9.37994 251.29C9.31994 251.45 9.21994 251.64 9.17994 251.8C9.18994 251.74 9.76994 250.56 9.38994 251.29C9.19994 251.65 9.01994 252.01 8.80994 252.36C8.71994 252.51 8.60994 252.66 8.50994 252.82C8.16994 253.35 7.92994 253.11 8.77994 252.48C8.42994 252.74 8.10995 253.17 7.79995 253.48C7.48994 253.79 7.13995 253.73 8.25994 253.16C8.08995 253.24 7.91994 253.4 7.75994 253.5C7.36995 253.75 6.94995 253.93 6.54995 254.16C5.92995 254.52 7.92994 253.73 6.91994 254.01C6.72994 254.06 6.54994 254.13 6.35994 254.18C5.90994 254.31 5.36995 254.31 4.93995 254.47C5.88995 254.12 5.94994 254.39 5.44994 254.41C5.20994 254.41 4.95995 254.44 4.71994 254.45C4.27995 254.46 3.82994 254.45 3.38994 254.43C2.98994 254.41 2.58994 254.38 2.19994 254.34C1.99994 254.32 1.79994 254.3 1.59994 254.27C0.739941 254.17 1.15994 254.15 1.74994 254.3C-0.330055 253.76 -2.60006 253.54 -4.73006 253.24C-8.98006 252.63 -13.5801 252.9 -17.2301 255.42C-19.3301 256.88 -21.1701 258.73 -22.2201 261.09C-23.2501 263.41 -23.7101 265.68 -23.9701 268.21C-24.0701 269.21 -24.1301 270.22 -24.2001 271.22C-24.2401 271.73 -24.2801 272.23 -24.3301 272.74C-24.3601 272.99 -24.4001 273.25 -24.4201 273.5C-24.4601 274.02 -24.1701 272.19 -24.4101 273.35C-24.5101 273.85 -24.6101 274.34 -24.7501 274.83C-24.8201 275.07 -24.9101 275.31 -24.9801 275.56C-25.2301 276.43 -24.5201 274.76 -24.8501 275.29C-24.9601 275.47 -25.4901 276.84 -25.7301 276.85C-25.7501 276.85 -24.8201 275.86 -25.6001 276.67C-25.8801 276.95 -26.1401 277.24 -26.4301 277.51C-26.5301 277.6 -27.0201 277.95 -27.0401 278.03C-26.4801 277.61 -26.3701 277.52 -26.7101 277.75C-26.8801 277.86 -27.0501 277.97 -27.2201 278.07C-27.4501 278.21 -27.6901 278.34 -27.9301 278.46C-28.1101 278.55 -28.2901 278.64 -28.4801 278.72C-28.8601 278.89 -28.7201 278.84 -28.0801 278.57C-28.1101 278.55 -30.0001 279.11 -29.9901 279.07C-29.9601 278.88 -28.9301 279.05 -29.7601 279.04C-29.9601 279.04 -30.7401 279.18 -30.9201 279.02C-30.6701 279.23 -30.0701 279.24 -30.7301 279.04C-31.0001 278.96 -31.6101 278.92 -31.8201 278.71L-31.2401 278.94C-31.4001 278.86 -31.5601 278.77 -31.7201 278.67C-32.7301 278.07 -31.6701 278.8 -31.6401 278.78C-31.6901 278.82 -32.1901 278.22 -32.2601 278.16C-32.5401 277.84 -32.4301 277.99 -31.9301 278.62C-32.0301 278.48 -32.1201 278.33 -32.2001 278.17C-32.3301 277.7 -32.7601 277.73 -32.2901 278.05C-32.1201 278.5 -32.1001 278.5 -32.2401 278.05C-32.3001 277.82 -32.3401 277.59 -32.3701 277.35C-32.7901 274.57 -36.2701 272.68 -38.8601 273.45C-41.8601 274.34 -43.2101 276.97 -42.7601 279.94L-42.7301 279.96Z"
            fill="#FF9F2C" />
        <path
            d="M-66.56 -24.96C-66.97 -25.37 -66.98 -26.04 -66.57 -26.46C-66.16 -26.88 -65.48 -26.9 -65.06 -26.49C-62.3 -23.82 -59.37 -21.13 -56.36 -18.49C-55.91 -18.1 -55.87 -17.43 -56.26 -16.98C-56.65 -16.54 -57.32 -16.49 -57.77 -16.88C-60.81 -19.54 -63.76 -22.25 -66.55 -24.95H-66.56V-24.96ZM-74.86 -33.45L-74.89 -33.48C-77.67 -36.49 -80.29 -39.53 -82.69 -42.52C-83.06 -42.98 -82.99 -43.65 -82.53 -44.02C-82.07 -44.39 -81.4 -44.32 -81.03 -43.86C-78.66 -40.91 -76.07 -37.91 -73.33 -34.93C-72.93 -34.5 -72.96 -33.82 -73.39 -33.42C-73.81 -33.03 -74.46 -33.05 -74.87 -33.45H-74.86ZM-48.72 -9.33005C-49.1 -9.71005 -49.14 -10.32 -48.8 -10.75C-48.43 -11.21 -47.76 -11.29 -47.3 -10.92C-44.27 -8.50005 -41.11 -6.08004 -37.91 -3.73005C-37.44 -3.38005 -37.33 -2.71005 -37.68 -2.24005C-38.03 -1.77005 -38.7 -1.66005 -39.17 -2.01004C-42.4 -4.38004 -45.58 -6.82005 -48.63 -9.26004C-48.66 -9.29004 -48.69 -9.31005 -48.72 -9.34005V-9.33005ZM-89.64 -51.98C-89.64 -51.98 -89.73 -52.08 -89.77 -52.14C-92.11 -55.63 -94.16 -59.1 -95.88 -62.45C-96.15 -62.97 -95.94 -63.61 -95.42 -63.88C-94.9 -64.15 -94.25 -63.94 -93.98 -63.42C-92.3 -60.14 -90.28 -56.75 -87.99 -53.33C-87.66 -52.84 -87.79 -52.18 -88.28 -51.85C-88.71 -51.56 -89.27 -51.63 -89.63 -51.98H-89.64ZM-29.59 4.73995C-29.94 4.38995 -30.01 3.81995 -29.72 3.38995C-29.39 2.89996 -28.73 2.76996 -28.24 3.10995C-25.01 5.29996 -21.68 7.46996 -18.33 9.56995C-17.83 9.87995 -17.68 10.54 -17.99 11.04C-18.3 11.54 -18.96 11.6899 -19.46 11.38C-22.83 9.26995 -26.19 7.07995 -29.44 4.87995C-29.5 4.83995 -29.55 4.79996 -29.6 4.74995L-29.59 4.73995ZM-9.47005 17.34C-9.80005 17.0099 -9.89005 16.48 -9.64005 16.05C-9.35004 15.54 -8.69005 15.37 -8.18005 15.66C-4.79005 17.62 -1.31004 19.55 2.15996 21.4C2.67995 21.68 2.87995 22.32 2.59995 22.84C2.31995 23.3599 1.67995 23.56 1.15996 23.28C-2.34004 21.42 -5.84004 19.47 -9.25005 17.5C-9.33005 17.45 -9.41005 17.39 -9.47005 17.33V17.34ZM11.47 28.51C11.16 28.2 11.06 27.71 11.27 27.29C11.53 26.76 12.17 26.54 12.7 26.8C16.2299 28.53 19.83 30.22 23.41 31.83C23.95 32.07 24.1899 32.7 23.95 33.24C23.71 33.78 23.08 34.02 22.54 33.78C18.94 32.16 15.31 30.46 11.76 28.72C11.65 28.67 11.56 28.6 11.47 28.52V28.51ZM33.1199 38.23C32.83 37.94 32.72 37.48 32.89 37.07C33.11 36.52 33.74 36.2599 34.28 36.49C37.92 37.9799 41.63 39.42 45.31 40.78C45.86 40.9799 46.15 41.6 45.94 42.15C45.74 42.7 45.12 42.99 44.57 42.78C40.87 41.41 37.14 39.96 33.4799 38.46C33.34 38.4 33.23 38.32 33.13 38.23H33.1199ZM55.38 46.45C55.1 46.17 54.9899 45.76 55.1199 45.36C55.2999 44.8 55.91 44.5 56.47 44.68C60.21 45.91 64 47.09 67.75 48.18C68.32 48.34 68.64 48.94 68.4799 49.5C68.3199 50.07 67.72 50.39 67.16 50.23C63.39 49.13 59.5699 47.95 55.81 46.71C55.6499 46.66 55.5 46.57 55.39 46.45H55.38ZM78.14 53.07C77.88 52.81 77.7599 52.43 77.86 52.05C78 51.48 78.58 51.13 79.16 51.28C82.98 52.24 86.8499 53.14 90.67 53.94C91.25 54.06 91.62 54.63 91.49 55.21C91.37 55.79 90.8 56.15 90.2299 56.03C86.39 55.22 82.49 54.31 78.64 53.35C78.45 53.2999 78.28 53.2 78.1499 53.07H78.14ZM101.33 57.97C101.09 57.73 100.97 57.39 101.03 57.03C101.13 56.45 101.68 56.06 102.26 56.16C106.15 56.82 110.08 57.41 113.94 57.91C114.52 57.99 114.94 58.52 114.86 59.11C114.78 59.69 114.25 60.11 113.66 60.03C109.77 59.53 105.81 58.93 101.89 58.26C101.66 58.22 101.47 58.11 101.32 57.96L101.33 57.97ZM124.84 61.01C124.62 60.79 124.5 60.49 124.53 60.16C124.58 59.57 125.1 59.14 125.69 59.19C129.62 59.53 133.58 59.7899 137.48 59.95C138.07 59.9699 138.53 60.47 138.5 61.06C138.47 61.6499 137.98 62.11 137.39 62.08C133.47 61.91 129.47 61.6499 125.51 61.31C125.25 61.29 125.02 61.17 124.85 61L124.84 61.01ZM148.52 62.02C148.33 61.8299 148.21 61.56 148.21 61.27C148.21 60.68 148.68 60.2 149.27 60.2C153.21 60.1899 157.18 60.09 161.07 59.89C161.66 59.86 162.16 60.31 162.19 60.9C162.22 61.49 161.77 61.99 161.18 62.02C157.26 62.2199 153.25 62.32 149.28 62.33C148.98 62.33 148.72 62.21 148.52 62.02ZM172.19 60.83C172.02 60.66 171.91 60.44 171.88 60.18C171.82 59.59 172.25 59.07 172.84 59.01C173.83 58.91 174.82 58.81 175.81 58.7C176.4 58.63 176.92 59.06 176.99 59.64C177.06 60.2299 176.63 60.75 176.05 60.82C175.05 60.93 174.05 61.04 173.05 61.14C172.72 61.17 172.41 61.05 172.19 60.83Z"
            fill="#FFCD38" />
        <path
            d="M209.97 50.88C209.97 50.88 210 50.86 210.01 50.84C210.01 50.84 210.03 50.81 210.04 50.79C210.04 50.79 210.06 50.75 210.06 50.74C210.06 50.74 210.07 50.71 210.08 50.69C210.08 50.69 210.08 50.65 210.09 50.63C210.09 50.63 210.09 50.59 210.09 50.58V50.56C210.09 50.56 210.09 50.53 210.09 50.51C210.09 50.51 210.07 50.43 210.06 50.4C210.06 50.4 210.04 50.36 210.03 50.35C210.03 50.35 210.01 50.32 210 50.31C210 50.31 209.98 50.28 209.96 50.27C209.96 50.27 209.93 50.24 209.92 50.24C209.92 50.24 209.89 50.22 209.87 50.22C209.87 50.22 209.84 50.21 209.82 50.2L181.95 45.22C181.81 45.19 181.66 45.25 181.58 45.37C181.49 45.49 181.48 45.64 181.55 45.77L183.61 49.79L182.32 57.43C182.32 57.43 182.32 57.47 182.32 57.49C182.32 57.49 182.32 57.54 182.32 57.55V57.6L182.34 57.62C182.34 57.62 182.35 57.65 182.36 57.67C182.36 57.67 182.38 57.71 182.39 57.72C182.39 57.72 182.41 57.76 182.43 57.77C182.43 57.77 182.46 57.8 182.47 57.81H182.48C182.48 57.81 182.51 57.84 182.53 57.84H182.55C182.55 57.84 182.58 57.86 182.59 57.86C182.59 57.86 182.61 57.86 182.62 57.86C182.63 57.86 182.64 57.86 182.66 57.86C182.66 57.86 182.68 57.86 182.69 57.86C182.7 57.86 182.71 57.86 182.72 57.86C182.73 57.86 182.74 57.86 182.75 57.86H182.77L187.15 56.74L189.76 61.82C189.8 61.9 189.87 61.96 189.95 61.99C189.96 61.99 189.98 62 189.99 62.01C190.09 62.04 190.2 62.03 190.28 61.98L209.91 50.91C209.91 50.91 209.94 50.89 209.95 50.88H209.97ZM186.94 52.65C186.94 52.65 186.91 52.65 186.9 52.65C186.9 52.65 186.87 52.65 186.86 52.66C186.86 52.66 186.8 52.69 186.78 52.71C186.78 52.71 186.76 52.74 186.74 52.75C186.73 52.76 186.72 52.77 186.71 52.79L184.56 55.76L185.54 49.92L204.43 50.78L186.97 52.65H186.94Z"
            fill="#FFCD38" />
    </g>
</svg>
    