<svg xmlns="http://www.w3.org/2000/svg" width="15.102" height="16.763" viewBox="0 0 15.102 16.763">
    <path id="Path_5331" data-name="Path 5331"
        d="M51.249,125.99a1.513,1.513,0,0,0-1.068-.441.308.308,0,0,1-.116-.023.327.327,0,0,1-.1-.066.294.294,0,0,1-.088-.215V121.62a5.741,5.741,0,0,0-11.481,0v3.629a.3.3,0,0,1-.088.212.3.3,0,0,1-.212.088,1.511,1.511,0,0,0,0,3.021h3.623v1.656a2.417,2.417,0,0,0,4.834,0V128.57h3.625a1.512,1.512,0,0,0,1.068-2.58"
        transform="translate(-36.589 -115.88)" fill="#fff" />
</svg>
  