<svg width="9" height="17" viewBox="0 0 9 17" fill="none" xmlns="http://www.w3.org/2000/svg">
<path d="M4.6665 7.5C5.46215 7.5 6.22522 7.18393 6.78782 6.62132C7.35043 6.05871 7.6665 5.29565 7.6665 4.5C7.6665 3.70435 7.35043 2.94129 6.78782 2.37868C6.22522 1.81607 5.46215 1.5 4.6665 1.5C3.87085 1.5 3.10779 1.81607 2.54518 2.37868C1.98257 2.94129 1.6665 3.70435 1.6665 4.5C1.6665 5.29565 1.98257 6.05871 2.54518 6.62132C3.10779 7.18393 3.87085 7.5 4.6665 7.5ZM4.6665 7.5V16.5V7.5Z" fill="#1D212C"/>
<path d="M4.6665 7.5C5.46215 7.5 6.22522 7.18393 6.78782 6.62132C7.35043 6.05871 7.6665 5.29565 7.6665 4.5C7.6665 3.70435 7.35043 2.94129 6.78782 2.37868C6.22522 1.81607 5.46215 1.5 4.6665 1.5C3.87085 1.5 3.10779 1.81607 2.54518 2.37868C1.98257 2.94129 1.6665 3.70435 1.6665 4.5C1.6665 5.29565 1.98257 6.05871 2.54518 6.62132C3.10779 7.18393 3.87085 7.5 4.6665 7.5ZM4.6665 7.5V16.5" stroke="#1D212C" stroke-width="1.66667"/>
</svg>
