<svg width="375" height="423" viewBox="0 0 375 423" fill="none" xmlns="http://www.w3.org/2000/svg">
<path d="M2.08877 35.4409C2.8109 36.4191 3.18701 37.4575 2.9463 39.0979C6.94808 38.526 9.43039 37.6532 12.9808 36.1633C13.0109 33.8156 12.4693 32.5213 11.9879 31.6484C8.63305 34.0564 6.06047 34.7637 2.07373 35.4409H2.08877Z" fill="#FF0E41"/>
<path d="M348.89 290.394C348.469 290.8 348.394 291.252 348.288 291.989C349.913 292.155 351.583 292.817 353.449 293.765C353.569 293.178 353.779 292.832 354.246 292.366C352.335 291.237 351.162 290.785 348.89 290.394Z" fill="#FFAF00"/>
<path d="M368.192 355.739C369.14 354.746 369.952 354.354 371.577 354.505C370.915 352.834 370.087 351.886 368.478 350.276C367.199 350.201 366.567 350.562 365.559 351.6C366.928 353 367.816 354.098 368.177 355.739H368.192Z" fill="#FFAF00"/>
<path d="M374.119 106.926C375.473 108.13 377.023 108.311 379.49 107.994C379.43 104.052 379.851 101.719 381.265 98.2424C379.445 98.3779 378.181 97.8963 375.879 96.4515C374.48 100.003 374.104 102.983 374.119 106.926Z" fill="#FFAF00"/>
<path d="M97.2742 391.496C98.0414 393.016 99.3352 393.709 101.607 394.28C102.916 390.819 104.089 388.923 106.526 386.38C104.887 385.868 103.954 385.01 102.434 382.948C99.9821 385.567 98.6282 388.035 97.2742 391.496V391.496Z" fill="#FFAF00"/>
<path d="M143.37 10.6093C141.745 10.6544 140.873 10.8802 139.609 12.0691C140.316 14.6726 140.542 16.2829 140.707 18.9166C141.595 18.5253 142.302 18.4501 142.904 18.4952C142.633 15.4703 142.858 13.574 143.385 10.5942L143.37 10.6093Z" fill="#FF41AA"/>
<path d="M64.8538 11.8735C62.2661 15.6359 61.0626 18.2395 59.9644 21.9115C62.9281 22.5888 64.9139 22.4834 66.7493 21.9567C66.8998 19.5939 67.8927 18.0288 69.6378 15.7563C67.1254 14.9888 66.0423 13.9654 64.8538 11.8735Z" fill="#FFAF00"/>
<path d="M0.539372 104.082C-0.498686 107.693 -0.965056 110.703 -0.197796 113.743C2.16416 114.571 3.80399 114.616 5.65444 114.074C5.02258 110.327 5.21815 108.115 6.45179 104.563C3.96948 105.286 2.40487 105.331 0.52433 104.067L0.539372 104.082Z" fill="#FF41AA"/>
<path d="M325.707 362.466C326.669 363.113 327.136 363.489 327.572 364.362C327.918 364.061 328.189 363.926 328.475 363.956C328.054 362.978 327.542 362.436 326.579 361.668C326.188 361.864 325.917 362.135 325.692 362.466H325.707Z" fill="#FFAF00"/>
<path d="M15.2677 188.735C14.7111 189.849 14.8615 190.917 15.5235 192.497C18.1261 191.76 19.7509 191.609 22.3235 191.925C21.9022 190.737 22.0075 189.819 22.5491 188.028C19.9314 187.727 17.8854 188.028 15.2677 188.735Z" fill="#FF41AA"/>
<path d="M314.905 421.641C317.568 422.228 319.087 422.243 321.645 420.813C321.585 416.268 321.856 413.574 322.698 409.195C321.088 409.466 319.915 409.3 318.952 408.969C318.14 414.011 316.996 417.005 314.905 421.641V421.641Z" fill="#FF0E41"/>
<path d="M354.983 59.6255C357.646 60.2124 359.165 60.2275 361.723 58.7978C361.663 54.2529 361.933 51.559 362.776 47.1796C361.166 47.4505 359.993 47.2849 359.03 46.9539C358.217 51.9954 357.074 54.9903 354.983 59.6255Z" fill="#FF0E41"/>
<path d="M77.8369 329.131C78.3033 329.718 78.6042 330.32 78.8449 331.208C80.244 329.929 81.252 329.147 82.5307 328.469C82.5157 327.476 82.2449 326.979 81.7785 326.377C80.8157 326.829 79.3714 327.822 77.8369 329.131Z" fill="#FFAF00"/>
<path d="M250.892 67.2555C248.77 67.1954 246.453 67.3308 244.423 68.7153C243.956 70.431 243.55 71.5747 242.617 73.1549C244.152 72.8239 245.115 73.3506 246.649 74.9759C247.401 72.3724 248.876 70.1902 250.892 67.2555Z" fill="#00D339"/>
<path d="M31.6209 347.206C32.2227 345.836 32.9599 345.25 34.1935 344.542C32.1776 343.158 30.0112 341.999 28.8979 341.803C28.1908 342.751 27.8298 343.699 27.4988 345.069C28.7625 345.28 29.8457 345.972 31.6209 347.206V347.206Z" fill="#FF0E41"/>
<path d="M323.841 329.026C324.142 330.17 324.864 330.757 326.068 331.69C327.979 328.966 330.837 326.648 334.387 324.271C333.455 323.473 333.063 322.766 332.672 321.456C328.776 323.744 326.79 325.369 323.841 329.011V329.026Z" fill="#008DF0"/>
<path d="M82.1547 145.979C82.1096 147.093 82.4105 147.785 83.3432 148.583C84.5016 148.372 85.299 148.071 85.9158 147.409C85.5999 146.19 85.7503 145.302 86.1264 143.812C84.7424 144.851 83.8547 145.453 82.1547 145.979Z" fill="#00D339"/>
<path d="M57.3166 256.879C57.1963 255.359 56.6396 254.456 55.2405 253.538C53.706 254.019 52.6679 254.591 51.9458 255.585C52.5777 257.18 52.5476 258.414 52.2768 260.521C53.9768 258.865 55.075 257.887 57.3166 256.879V256.879Z" fill="#FF0E41"/>
<path d="M142.723 341.292C141.941 341.292 141.474 341.427 140.737 341.909C141.339 342.676 141.534 343.248 141.595 343.925C142.332 343.97 142.828 343.88 143.58 343.654C143.129 342.887 142.934 342.285 142.738 341.292H142.723Z" fill="#FF41AA"/>
<path d="M345.024 213.356C345.866 212.107 346.257 211.249 346.618 210.045C345.641 209.819 344.994 209.864 344.392 210.045C344.347 210.828 344.016 211.339 343.444 212.092C344.272 212.347 344.633 212.679 345.024 213.356V213.356Z" fill="#FF0E41"/>
<path d="M215.974 24.2441C217.869 21.475 218.742 19.5487 219.524 16.8548C217.343 16.3582 215.884 16.4485 214.53 16.8548C214.424 18.6006 213.702 19.7443 212.423 21.4299C214.274 21.9867 215.071 22.7392 215.959 24.2742L215.974 24.2441Z" fill="#FF0E41"/>
<path d="M286.441 333.451C285.343 333.962 284.561 333.932 283.432 333.707C283.929 335.633 284.636 337.514 285.208 338.236C286.14 338.041 286.878 337.65 287.81 336.972C287.148 336.16 286.847 335.166 286.426 333.451H286.441Z" fill="#008DF0"/>
<path d="M318.004 59.791C316.816 62.2591 316.108 64.3661 316.289 66.6536C317.884 67.5415 319.057 67.7672 320.456 67.6167C320.456 64.8476 320.877 63.2825 322.201 60.8746C320.321 61.0853 319.193 60.9348 318.004 59.791V59.791Z" fill="#00D339"/>
<path d="M372.148 272.214C371.832 273.659 371.577 274.366 370.749 275.3C371.261 275.585 371.532 275.826 371.637 276.202C372.6 275.254 373.021 274.412 373.502 272.907C373.096 272.53 372.66 272.335 372.148 272.214Z" fill="#00D339"/>
<path d="M260.956 383.129C260.505 383.731 260.415 384.228 260.625 385.025C261.347 385.341 261.904 385.477 262.491 385.341C262.777 384.559 263.198 384.107 263.965 383.43C262.807 383.49 262.085 383.49 260.941 383.129H260.956Z" fill="#FF41AA"/>
<path d="M226.64 52.6425C225.692 52.7328 224.684 52.9133 223.857 53.6207C223.736 54.4032 223.616 54.93 223.285 55.6825C223.947 55.4567 224.398 55.6373 225.166 56.2844C225.361 55.0955 225.903 54.0571 226.64 52.6425V52.6425Z" fill="#008DF0"/>
<path d="M255.375 2.64816C253.434 3.14479 251.283 2.8438 247.025 0.450928C246.303 2.43746 246.213 4.3638 246.86 6.92221C250.275 8.26161 252.411 8.78834 255.961 8.54755C255.059 6.57607 255.059 5.22162 255.375 2.64816V2.64816Z" fill="#00D339"/>
<path d="M15.719 91.8915C16.0198 90.7778 16.2305 90.2059 16.9225 89.5137C16.5313 89.2729 16.3207 89.0772 16.2455 88.7762C15.4482 89.4836 15.1021 90.1457 14.6809 91.3046C14.9818 91.6055 15.3278 91.7861 15.719 91.8915V91.8915Z" fill="#FFAF00"/>
<path d="M94.3105 83.8702C94.9875 84.1562 95.5592 84.0207 96.4618 83.7649C95.845 81.7934 95.7698 79.5059 95.9202 76.8572C95.168 77.0227 94.6716 76.9475 93.8893 76.6465C93.5432 79.4457 93.6034 81.0409 94.2954 83.8702H94.3105Z" fill="#FF41AA"/>
<path d="M0.554443 157.191C1.02082 157.989 1.60754 158.816 2.58542 159.253C3.3226 159.027 3.84915 158.922 4.6465 158.892C4.16508 158.395 4.15004 157.929 4.39074 156.98C3.24738 157.297 2.10401 157.266 0.554443 157.191V157.191Z" fill="#00D339"/>
<path d="M282.56 83.8401C280.604 82.7265 279.4 82.3502 277.038 82.8469C275.985 86.4587 275.098 88.5205 273.368 91.7712C274.707 91.9518 275.594 92.3732 276.271 92.8698C278.152 89.0773 279.777 87.0005 282.56 83.8401V83.8401Z" fill="#008DF0"/>
<path d="M24.9262 120.862C22.9253 122.216 21.4509 123.495 20.5784 125.316C21.3908 126.701 22.1881 127.393 23.3164 127.905C24.5651 125.798 25.558 124.79 27.6341 123.556C26.1147 122.878 25.3173 122.261 24.9262 120.862V120.862Z" fill="#FFAF00"/>
<path d="M362.46 236.201C365.003 235.313 366.372 234.365 368.282 231.972C365.469 230.106 364.19 228.496 363.257 226.328C360.82 226.991 359.286 227.833 357.074 229.429C359.421 231.4 360.73 233.191 362.46 236.186V236.201Z" fill="#00D339"/>
<path d="M83.313 260.34C85.0581 259.738 86.0661 259.167 87.2997 258.233C86.4873 257.3 85.8254 256.864 85.1033 256.593C84.4865 257.33 83.7944 257.601 82.6812 257.917C83.313 258.775 83.4334 259.362 83.313 260.325V260.34Z" fill="#FF0E41"/>
<path d="M5.08267 291.478C5.77471 291.869 6.25612 291.989 7.14374 291.944C7.00834 290.966 7.11365 290.364 7.41454 289.732C6.79772 289.31 6.30126 289.145 5.51896 288.964C5.534 289.867 5.3986 290.514 5.06763 291.478H5.08267Z" fill="#FFAF00"/>
<path d="M357.51 160.126C357.826 162.233 357.375 163.497 356.427 165.273C359.902 165.423 363.393 165.167 364.882 164.565C365.018 162.91 364.732 161.48 364.085 159.569C362.4 160.276 360.579 160.261 357.51 160.126Z" fill="#00D339"/>
<path d="M168.945 73.1399C168.088 75.2469 168.208 76.797 169.442 78.9641C171.804 79.3554 173.564 79.3102 175.204 78.4675C175.444 75.9241 176.317 74.2988 178.092 71.6952C174.722 72.7487 172.601 73.3055 168.945 73.1399Z" fill="#FF41AA"/>
<path d="M343.504 364.227C341.849 364.227 340.796 364.994 339.126 366.304C342.12 369.855 344.241 374.521 346.197 380.149C347.596 379.156 348.709 378.885 350.59 378.825C348.89 372.745 347.401 369.494 343.504 364.227Z" fill="#008DF0"/>
<path d="M53.4953 71.3189C54.082 67.6017 54.6086 65.7356 56.5794 63.2374C55.2254 62.6053 54.4882 62.0033 54.1572 61.1003C51.8404 63.6588 50.9077 65.9011 49.9448 69.7839C51.0431 70.6567 52.1864 71.1082 53.4953 71.334V71.3189Z" fill="#008DF0"/>
<path d="M25.7085 284.194C24.9262 285.172 24.0386 285.864 22.6846 286.602C25.2722 288.423 26.912 289.777 28.4766 291.628C30.0864 291.237 30.7935 290.635 31.6209 289.642C30.5527 288.242 28.3864 286.226 25.6934 284.209L25.7085 284.194Z" fill="#008DF0"/>
<path d="M291.195 19.3832C291.737 20.1808 291.992 21.0086 291.752 22.2878C294.911 21.9717 296.882 21.3697 299.725 20.3163C299.815 18.4652 299.439 17.4418 299.093 16.7345C296.37 18.5103 294.339 18.9769 291.195 19.3832V19.3832Z" fill="#FF41AA"/>
<path d="M252.817 368.606C251.629 368.11 250.711 367.372 250.034 365.747C246.694 368.456 244.919 370.608 242.497 373.904C243.761 376.056 244.949 376.944 245.867 377.47C247.612 373.437 249.553 371.39 252.817 368.591V368.606Z" fill="#008DF0"/>
<path d="M168.524 405.763C169.412 407.629 169.532 409.872 167.937 414.658C170.089 415.004 172.059 414.718 174.527 413.559C175.219 409.842 175.324 407.569 174.391 404.018C172.571 405.312 171.202 405.598 168.539 405.763H168.524Z" fill="#FF0E41"/>
<path d="M357.42 267.037C358.007 265.638 358.172 264.795 357.646 263.245C355.148 262.824 353.689 262.387 351.372 261.484C351.357 262.402 351.147 263.034 350.861 263.516C353.554 264.479 355.073 265.412 357.42 267.037Z" fill="#FF0E41"/>
<path d="M359.165 123.676C357.24 121.87 355.976 121.087 353.133 121.012C350.936 124.835 349.356 126.957 346.483 130.192C347.957 130.764 348.86 131.487 349.492 132.239C352.666 128.432 355.118 126.505 359.165 123.676Z" fill="#FFAF00"/>
<path d="M333.575 89.92C335.245 90.808 337.14 91.6056 339.292 91.3046C340.33 90.1157 341.112 89.3783 342.466 88.4753C341.112 88.1442 340.555 87.3466 339.969 85.4353C338.344 87.2111 336.328 88.3699 333.575 89.92V89.92Z" fill="#008DF0"/>
<path d="M14.1244 315.963C11.8978 318.446 10.3934 319.695 7.42969 321.306C8.19695 322.766 9.11465 323.879 10.4837 324.556C12.5748 323.668 14.8616 322.028 17.7049 319.53C15.4483 318.642 14.4403 317.829 14.1244 315.963V315.963Z" fill="#008DF0"/>
<path d="M46.3793 163.241C47.3271 161.721 47.7484 160.683 48.1094 159.223C46.936 159.012 46.1537 159.087 45.4466 159.328C45.4466 160.261 45.0705 160.878 44.4236 161.811C45.4165 162.067 45.8678 162.443 46.3643 163.241H46.3793Z" fill="#FFAF00"/>
<path d="M206.089 365.235C204.194 361.638 202.644 359.622 200.207 357.244C198.447 359.306 197.71 360.901 197.364 362.571C199.169 363.655 199.981 365.085 201.05 367.402C202.689 365.747 203.953 365.31 206.089 365.235Z" fill="#FF41AA"/>
<path d="M39.1431 305.429C38.9626 305.097 38.8873 304.766 39.0227 304.27C37.759 304.27 36.9617 304.45 35.8033 304.751C35.698 305.474 35.8033 305.895 35.9236 306.181C37.0519 305.579 37.8794 305.459 39.1281 305.429H39.1431Z" fill="#FFAF00"/>
<path d="M382.499 316.505C379.325 316.415 377.354 316.686 374.796 317.438C375.519 319.425 376.331 320.538 377.324 321.411C378.753 320.598 380.047 320.598 382.033 320.764C381.536 319.003 381.717 317.98 382.499 316.505Z" fill="#00D339"/>
<path d="M127.363 30.4144C126.565 29.7522 126.024 28.9697 125.888 27.5701C122.699 28.8794 120.833 30.1134 118.201 32.1C118.667 34.0564 119.389 35.0045 119.961 35.6215C122.233 32.9277 124.203 31.799 127.363 30.3994V30.4144Z" fill="#00D339"/>
<path d="M46.9209 396.252C47.0262 395.409 46.6952 394.807 46.1386 393.859C44.1226 395.169 41.5802 395.951 38.5713 396.598C38.9925 397.381 39.0527 397.968 38.9624 398.946C42.197 398.465 43.9572 397.908 46.9209 396.252V396.252Z" fill="#00D339"/>
</svg>
