<svg xmlns="http://www.w3.org/2000/svg" width="13.135" height="10.89" viewBox="0 0 13.135 10.89">
    <g id="Group_2249" data-name="Group 2249" transform="translate(-40.522 -144.563)">
        <path id="Path_4313" data-name="Path 4313"
            d="M180.241,150.884v6.292a3.285,3.285,0,0,1-3.284,3.284H170.39a3.22,3.22,0,0,1-.873-.117.558.558,0,0,1-.237-.933l6.981-6.981a.62.62,0,0,1,.565-.138.689.689,0,0,0,.6-.178l1.687-1.694c.617-.618,1.123-.414,1.123.466"
            transform="translate(-126.584 -5.006)" fill="#6b4e46" />
        <path id="Path_4314" data-name="Path 4314"
            d="M175.347,151.954l-6.876,6.875a.659.659,0,0,1-1.051-.157,3.161,3.161,0,0,1-.375-1.511V150.87c0-.88.506-1.084,1.123-.466l1.694,1.7a.675.675,0,0,0,.933,0l2.351-2.357a.662.662,0,0,1,.933,0l1.274,1.274a.669.669,0,0,1-.007.933"
            transform="translate(-126.524 -4.992)" fill="#6b4e46" />
    </g>
</svg>
  