<svg width="375" height="240" viewBox="0 0 375 240" fill="none"
    xmlns="http://www.w3.org/2000/svg">
    <mask id="mask0_2_2755" style="mask-type:alpha" maskUnits="userSpaceOnUse" x="0" y="0" width="375" height="240">
        <rect width="375" height="240" fill="white"/>
    </mask>
    <g mask="url(#mask0_2_2755)">
        <path d="M18.956 147.402C20.0099 147.363 21.1092 147.344 22.2459 147.339C23.0445 136.352 25.7355 126.044 30.3402 116.417L61.3065 132.209C57.8196 139.705 56.2633 147.74 56.6308 156.316C56.6526 157.31 56.6696 158.277 56.6738 159.211L60.4568 158.105C60.3976 157.452 60.3124 156.811 60.1935 156.176C59.9262 148.169 61.3256 140.748 64.4038 133.903L75.6918 139.618C73.6414 144.495 72.6385 149.731 72.6696 155.33C72.5067 155.91 72.5037 157.279 72.6686 159.441L75.3439 158.662C75.3457 157.524 75.3299 156.327 75.2966 155.069C75.1624 150.033 76.0385 145.265 77.9264 140.773L102.295 153.184C102.922 153.737 103.523 154.294 104.091 154.863C109.335 158.873 114.388 158.799 119.252 154.64C120.2 153.761 121.256 152.821 122.43 151.804L143.479 137.436C145.611 141.289 146.935 145.473 147.453 149.995C147.731 155.055 147.739 158.627 147.479 160.711C148.342 160.461 149.183 160.243 149.997 160.071C150.185 158.21 150.139 154.386 149.851 148.595C149.207 144.11 147.765 139.855 145.521 135.833L155.857 128.707C159.486 134.725 161.693 141.461 162.47 148.918C162.329 150.492 162.45 151.929 162.825 153.224C162.862 155.416 162.784 157.544 162.589 159.603C163.863 159.629 165.07 159.744 166.195 159.951C166.463 157.67 166.526 155.377 166.394 153.083C166.744 151.779 166.668 150.362 166.157 148.847C165.352 140.6 162.937 133.16 158.925 126.518L187.468 106.955C195.082 118.824 199.493 132.326 200.718 147.464C200.641 147.422 200.588 148.268 200.56 150.011C200.65 149.849 200.746 149.72 200.848 149.625C200.817 149.966 200.852 150.323 200.96 150.694C202.996 149.896 205.082 149.256 207.208 148.769C207.197 148.506 207.158 148.247 207.087 148.002C205.925 131.24 201.028 116.212 192.4 102.903L192.463 102.787C191.806 101.912 191.131 100.97 190.439 99.9755C186.067 93.7044 180.749 87.8445 174.477 82.3969C154.432 65.0149 131.249 57.2311 104.931 59.0521C78.69 60.9154 56.8333 71.8113 39.3486 91.749L39.3183 91.6566C24.9416 108.282 17.166 126.92 15.9914 147.569L18.9492 147.403L18.956 147.402ZM108.536 65.2072C122.255 64.6028 135.049 66.9042 146.925 72.1173L146.979 72.3032L133.082 103.919C126.231 101.045 118.853 99.6936 110.956 99.8716L108.537 65.214M106.812 100.079C97.7582 100.859 89.6671 103.458 82.5388 107.876L63.97 78.6417L63.8541 78.5784C75.8614 70.9965 89.3859 66.6367 104.417 65.5148L106.805 100.08M43.9697 95.9103C49.1353 90.0582 54.6289 85.0765 60.4448 80.9732L79.2465 110.341C75.9798 112.634 72.9539 115.422 70.1688 118.705L70.074 118.721C67.304 121.813 64.9748 125.029 63.0831 128.392L32.3554 112.726C35.5151 106.858 39.4301 101.275 44.0856 95.9736L43.9697 95.9103ZM107.131 103.589L107.977 116.065C101.827 116.731 96.2905 118.579 91.3698 121.625L84.5546 110.997C91.1425 106.799 98.6711 104.334 107.139 103.595M135.385 109.062C138.788 110.87 142.08 113.116 145.267 115.792L145.298 115.884C148.556 118.806 151.34 121.931 153.651 125.264L143.154 132.545C141.482 130.027 139.463 127.682 137.09 125.504C134.806 123.632 132.496 122.008 130.15 120.621L135.386 109.069M141.151 133.931L117.003 150.709L129.049 123.042C131.274 124.261 133.34 125.726 135.241 127.442L135.45 127.482C137.626 129.451 139.526 131.6 141.145 133.932M147.61 113.208C144.172 110.137 140.585 107.684 136.84 105.839L150.777 74.0134C157.634 77.3548 164.116 81.7043 170.219 87.0631L170.314 87.0464C176.069 92.0965 181.005 97.5701 185.126 103.446L156.73 123.172C154.144 119.587 151.102 116.271 147.605 113.216M72.8261 120.951C75.3703 118.004 78.1107 115.497 81.0485 113.436L87.8347 123.979C85.8083 125.509 83.9244 127.292 82.191 129.336C80.4086 131.458 78.8694 133.613 77.5656 135.798L66.37 130.053C68.1295 126.93 70.2946 123.931 72.8496 121.045L72.8328 120.95M89.2733 126.161L103.919 149.534L79.8528 137.132C81.0304 134.984 82.4409 132.97 84.0967 131.08L84.0664 130.987C85.6919 129.242 87.4249 127.631 89.2665 126.162M112.041 115.998L111.195 103.521C118.404 103.283 125.226 104.565 131.651 107.361L126.292 118.845C121.954 117.041 117.208 116.091 112.034 115.999M125.291 121.241L114.122 146.444L112.271 118.532C116.911 118.642 121.251 119.545 125.284 121.242M110.292 151.872L92.6543 123.764C97.1797 120.97 102.302 119.306 108.028 118.771L110.292 151.872Z" fill="#FB8636"/>
        <path d="M178.947 155.685C178.947 155.685 162.78 158.871 120.836 153.132C91.571 149.129 53.7578 136.185 10.184 121.207L7.30223 149.471C7.30223 149.471 207.8 188.383 198.913 170.045C195.833 163.7 178.947 155.685 178.947 155.685Z" fill="#31225D"/>
        <path d="M49.7268 192.806C63.7665 200.471 74.56 205.637 82.1097 208.319C94.7837 213.503 103.299 215.449 107.673 214.169C99.4081 211.271 93.1647 208.596 88.953 206.163C77.2962 199.306 69.7664 192.978 66.3774 187.176C62.9147 181.351 54.9313 176.408 42.4113 172.335C29.8487 168.178 15.425 167.992 -0.859877 171.778C-4.63964 172.744 -8.57718 174.479 -12.6805 176.975C14.8277 179.843 35.635 185.122 49.7404 192.803" fill="#30B9B5"/>
        <path d="M75.8068 174.863C90.5484 185.084 99.412 191.219 102.399 193.275C109.445 198.286 116.137 201.803 122.468 203.827C141.275 209.835 163.18 205.903 188.182 192.024C200.448 185.157 211.673 177.294 221.857 168.436C229.239 161.976 239.341 151.778 252.154 137.843C241.022 149.318 227.809 159.13 212.529 167.268C196.622 175.572 183.648 181.154 173.609 184.027C163.587 186.834 151.353 188.419 136.894 188.791C122.378 189.145 109.483 185.242 98.2251 177.087C86.8348 168.891 74.5623 162.304 61.401 157.324C48.2628 152.278 34.0718 150.285 18.8417 151.345C3.54463 152.381 -10.1207 155.942 -22.1465 162.034C-19.168 162.737 -14.5674 162.665 -8.34581 161.813C-2.09992 160.9 9.79209 160.303 27.3382 160.029C44.9085 159.695 61.0572 164.636 75.7988 174.857" fill="#30B9B5"/>
        <path d="M273.881 97.0432C276.64 93.8488 277.886 91.1794 277.628 89.0405L255.431 110.633C248.737 117.159 243.764 121.77 240.519 124.463C228.932 133.953 215.497 141.277 200.209 146.437C185.795 151.295 170.597 153.961 154.621 154.433C126.825 155.238 96.6671 149.57 64.136 137.412C51.624 132.632 45.2066 130.197 44.8813 130.094C37.4642 127.452 30.8623 125.594 25.0837 124.526C14.9141 122.739 3.45374 122.617 -9.2984 124.154C-14.3701 124.72 -18.5922 125.869 -21.966 127.595C-26.3145 129.729 -28.8969 132.697 -29.7144 136.491C-11.8175 130.014 10.1177 130.131 36.0869 136.858C42.6469 138.598 53.2651 141.939 67.9267 146.877C81.5722 151.436 92.223 154.646 99.8871 156.512C122.348 161.945 144.682 163.179 166.893 160.226C190.147 157.096 210.984 149.604 229.405 137.743C243.872 128.36 258.697 114.789 273.895 97.0408" fill="#30B9B5"/>
    </g>
</svg>
