<svg width="375" height="350" viewBox="0 0 375 350" fill="none"
    xmlns="http://www.w3.org/2000/svg">
    <mask id="mask0_2_2328" style="mask-type:alpha" maskUnits="userSpaceOnUse" x="0" y="0" width="375" height="350">
        <rect width="375" height="350" fill="#D9D9D9"/>
    </mask>
    <g mask="url(#mask0_2_2328)">
        <path d="M327.48 148.2C326.63 166.18 328.12 178.63 331.96 185.54C333.27 188.23 334.78 190.18 336.47 191.38C339.24 193.45 341.78 193.64 344.1 191.96C345.78 191.05 346.86 187.57 347.33 181.51C347.69 175.42 347.4 165.62 346.45 152.12C345.51 138.62 347.01 120 350.97 96.25C354.81 72.47 364.5 48.14 380.02 23.29C364.1 43.16 352.02 63.43 343.79 84.08C333.73 108.96 328.29 130.33 327.48 148.2ZM192.23 8.75C198.5 13.64 210.62 16.89 228.59 18.48C246.41 20.14 268.31 17.74 294.28 11.28C315.96 6.07 337.74 -3.02 359.61 -16C332.81 -4.23 307.38 1.93 283.33 2.47C259.28 3.01 240.65 1.88 227.45 -0.93C214.25 -3.74 204.56 -5.4 198.4 -5.9C192.31 -6.26 188.73 -5.63 187.68 -4C185.62 -1.98 185.42 0.57 187.1 3.63C188.09 5.46 189.8 7.17 192.23 8.75ZM176.17 70.53C177.68 71.92 179.92 73 182.88 73.77C191.18 76.38 205.38 75.56 225.5 71.3C245.84 67.12 269.64 57.54 296.92 42.58C319.64 30.39 341.65 14.3 362.96 -5.71C336.14 14.76 309.41 29.23 282.75 37.7C256.09 46.17 235.15 51.2 219.94 52.79C204.61 54.35 193.5 55.93 186.61 57.53C179.72 59.13 175.82 60.9 174.91 62.82C173.17 65.33 173.59 67.9 176.17 70.53ZM198.93 152.77C204.38 150.67 211.31 146.97 219.72 141.66C228.02 136.32 242.57 123.3 263.37 102.63C284.17 81.95 317.4 51.32 363.08 10.75C342.19 25.56 323.13 39.93 305.9 53.89C288.55 67.8 274.01 78.64 262.26 86.4C250.4 94.12 237.31 102.73 222.98 112.21C208.65 121.69 198.23 130.47 191.72 138.55C185.02 146.81 183.19 151.77 186.22 153.44C189.14 155.07 193.38 154.85 198.94 152.79M268.67 192.85C270.91 195.73 273.43 196.54 276.23 195.27C278.17 194.69 280.42 191.06 282.97 184.35C285.45 177.87 288.53 167.12 292.21 152.11C295.96 137.24 303.91 117.23 316.06 92.08C328.09 66.89 346.1 42.39 370.09 18.59C347.38 36.87 328.4 56.44 313.14 77.28C294.45 102.29 281.65 124.48 274.73 143.85C267.66 163.29 264.84 177.24 266.28 185.69C266.66 188.93 267.45 191.31 268.66 192.85" fill="#FB8636"/>
        <path d="M323.35 295.41L318.92 269.5L339.2 286.04L361.19 273.42L350.97 296.09L373.13 314.5L343.81 312.12L331.19 340.07L326.08 310.24L300.68 308.54L323.35 295.41Z" fill="#30B9B5"/>
        <path d="M46.2999 150.95C42.5899 152.34 39.9199 154.83 38.2899 158.41C36.7299 161.97 36.6399 165.6 38.0399 169.32C39.4099 172.97 41.8699 175.65 45.4099 177.36C48.9899 178.98 52.6399 179.1 56.3499 177.71C60.0599 176.32 62.7299 173.83 64.3599 170.25C65.9599 166.6 66.0799 162.96 64.7099 159.31C63.3199 155.6 60.8299 152.93 57.2499 151.3C53.6699 149.68 50.0199 149.56 46.3099 150.95M47.8499 155.05C50.3899 154.1 52.9099 154.19 55.4199 155.33C57.9299 156.47 59.6599 158.31 60.6099 160.85C61.5899 163.46 61.4899 165.98 60.3299 168.42C59.1899 170.93 57.3499 172.66 54.8099 173.61C52.2699 174.56 49.7499 174.47 47.2399 173.33C44.8199 172.23 43.1199 170.38 42.1499 167.78C41.1999 165.24 41.2599 162.73 42.3299 160.25C43.4699 157.74 45.3099 156.01 47.8499 155.06" fill="#30B9B5"/>
        <path d="M75.9899 135.34C73.7099 136.2 71.4499 136.12 69.2099 135.1C66.9699 134.08 65.4199 132.44 64.5699 130.16C63.7099 127.88 63.7999 125.62 64.8099 123.38C65.8299 121.14 67.4799 119.59 69.7499 118.74C72.0299 117.88 74.2899 117.96 76.5299 118.98C78.7699 120 80.3199 121.64 81.1699 123.92C82.0299 126.2 81.9499 128.46 80.9299 130.7C79.9099 132.94 78.2699 134.49 75.9899 135.34Z" fill="#30B9B5"/>
    </g>
</svg>
