<svg id="Layer_1" data-name="Layer 1" xmlns="http://www.w3.org/2000/svg" viewBox="0 0 512 512"><title>check green</title><path d="M220.8,343.1a19.93,19.93,0,0,1-14.1-5.9l-63.9-63.9A20,20,0,1,1,171.1,245l49.7,49.7,120-120A20,20,0,1,1,369.1,203L235,337.2A20,20,0,0,1,220.8,343.1Z" fill="#5adb85"/><path d="M256,512A256.06,256.06,0,0,1,74.93,74.94,256,256,0,0,1,512,256,255.83,255.83,0,0,1,256,512Zm0-472C136.93,40,40,136.93,40,256s96.93,216,216,216,216-96.93,216-216S375.07,40,256,40Z" fill="#5adb85"/></svg>