<svg width="25" height="24" viewBox="0 0 25 24" fill="none" xmlns="http://www.w3.org/2000/svg">
    <path
        d="M17.1867 21.2899L13.7067 19.5499C12.7367 19.0699 11.6067 19.0699 10.6367 19.5499L7.15666 21.2899C4.16666 22.7799 1.01666 19.5699 2.57666 16.6199L3.39666 15.0799C3.50666 14.8699 3.68666 14.6999 3.90666 14.5999L16.5467 8.89993C17.0667 8.66993 17.6767 8.87993 17.9367 9.37993L21.7467 16.6199C23.3067 19.5699 20.1667 22.7799 17.1867 21.2899Z"
        fill="#FC4335" />
    <path opacity="0.4"
        d="M15.7666 7.69002L7.48658 11.42C6.55658 11.84 5.61658 10.84 6.09658 9.94002L9.13658 4.17002C10.4266 1.72002 13.9266 1.72002 15.2166 4.17002L16.2866 6.21002C16.5666 6.76002 16.3266 7.44002 15.7666 7.69002Z"
        fill="#FC4335" />
</svg>
    